<svg width="43" height="42" viewBox="0 0 43 42" fill="none" xmlns="http://www.w3.org/2000/svg">
<path d="M39.0448 13.4295C39.0565 12.8574 38.9122 12.293 38.6274 11.7968C38.3278 11.3098 37.9037 10.9116 37.3989 10.6431C32.8542 8.13356 28.3072 5.62538 23.7581 3.1185C23.2097 2.78825 22.5806 2.61637 21.9404 2.62193C21.3003 2.62749 20.6742 2.81028 20.1317 3.15C18.323 4.17244 9.27072 9.14156 6.57222 10.6391C6.05902 10.8975 5.63061 11.2975 5.33774 11.7918C5.04488 12.2861 4.89983 12.854 4.91978 13.4282V28.5731C4.90652 29.1324 5.04243 29.6851 5.31353 30.1744C5.61475 30.6754 6.0479 31.0841 6.56566 31.3556C9.26416 32.8532 18.3178 37.8223 20.1264 38.8447C20.6687 39.1849 21.2947 39.3681 21.9348 39.3741C22.5749 39.3802 23.2042 39.2087 23.7528 38.8789C28.2941 36.3667 32.838 33.8586 37.3845 31.3543C37.9023 31.0824 38.3358 30.6739 38.6379 30.1731C38.909 29.6837 39.0449 29.1311 39.0317 28.5718V13.4295" fill="#659AD2"/>
<path d="M38.4527 30.4119C38.5217 30.3361 38.5861 30.2564 38.6457 30.1731C38.9168 29.6837 39.0527 29.1311 39.0394 28.5718V13.4295C39.0512 12.8574 38.9069 12.293 38.6221 11.7967C38.5748 11.7193 38.5052 11.6589 38.4514 11.5867L21.9822 21L38.4527 30.4119Z" fill="#00599C"/>
<path d="M38.4528 30.4119L21.9823 21L5.51172 30.4119C5.78903 30.8037 6.15222 31.127 6.57353 31.3569C9.27203 32.8545 18.3257 37.8236 20.1343 38.8461C20.6766 39.1862 21.3026 39.3694 21.9427 39.3754C22.5828 39.3815 23.2121 39.21 23.7607 38.8802C28.302 36.3681 32.8458 33.8599 37.3923 31.3556C37.813 31.1259 38.1758 30.8031 38.4528 30.4119Z" fill="#004482"/>
<path d="M26.7071 23.6513C26.1225 24.691 25.2105 25.5083 24.1131 25.976C23.0158 26.4436 21.7946 26.5354 20.6396 26.2371C19.4847 25.9387 18.4608 25.2669 17.7273 24.3262C16.9938 23.3855 16.5918 22.2288 16.5839 21.0359C16.576 19.8431 16.9627 18.6811 17.6837 17.7308C18.4047 16.7805 19.4197 16.0953 20.5706 15.7816C21.7215 15.468 22.9438 15.5437 24.0472 15.9968C25.1507 16.4499 26.0734 17.2551 26.6717 18.2871L31.4164 15.5662C30.2121 13.4994 28.3616 11.8859 26.15 10.9743C23.9385 10.0626 21.4885 9.90342 19.1776 10.5211C16.8666 11.1389 14.8229 12.4993 13.3612 14.3928C11.8995 16.2863 11.1009 18.6079 11.0884 21C11.085 22.8969 11.5831 24.7611 12.5321 26.4036C13.4922 28.0629 14.8723 29.4403 16.5336 30.397C18.1948 31.3538 20.0787 31.8564 21.9958 31.8541C23.9129 31.8518 25.7956 31.3449 27.4546 30.3842C29.1136 29.4235 30.4904 28.0429 31.4466 26.3813L26.7071 23.6513Z" fill="white"/>
</svg>
