<svg width="130" height="100" viewBox="0 0 130 100" fill="none" xmlns="http://www.w3.org/2000/svg">
<path d="M35.3694 86.74C33.1765 86.7548 33.8961 85.5828 33.8961 85.5828C30.6417 84.8856 29.0445 85.2736 29.0415 85.2739C28.2272 87.2933 28.5548 88.513 28.5248 88.9988C28.51 89.239 28.7638 89.386 29.0842 89.4699C30.8342 89.9276 32.4277 90.2322 35.6871 90.0089C38.0864 89.8445 40.6267 88.2831 40.049 86.6792C39.6898 85.6818 37.5931 86.7251 35.3694 86.74Z" fill="#434244"/>
<g opacity="0.14">
<path d="M95.6349 94.8588L83.0481 100L71.3843 95.2668L83.9711 90.1256L95.6349 94.8588Z" fill="#424242"/>
</g>
<g opacity="0.14">
<path d="M114.062 87.0885L101.475 92.2297L89.811 87.4965L102.398 82.3553L114.062 87.0885Z" fill="#424242"/>
</g>
<g opacity="0.14">
<path d="M49.5509 86.9109C55.4927 89.3221 55.5241 93.2315 49.62 95.643C43.7169 98.0542 34.1145 98.0542 28.1727 95.6431C22.2309 93.2319 22.1996 89.3225 28.1028 86.9114C34.0068 84.4999 43.6092 84.4998 49.5509 86.9109Z" fill="#424242"/>
</g>
<path d="M34.4304 72.2485C33.786 71.6616 32.6852 71.1596 30.8589 71.499L11.249 74.1578L11.9861 77.6977C11.9861 77.6977 14.99 80.481 20.247 79.4253C25.5039 78.3696 28.9174 76.6422 28.9174 76.6422L28.2559 86.4102C28.2559 86.4102 31.3323 87.0801 34.0693 85.9182C34.5285 85.7233 34.9578 76.3054 35.0957 73.8867C35.1338 73.2201 35.0102 72.7767 34.4304 72.2485Z" fill="#808083"/>
<path d="M44.7812 89.5658C42.504 89.5812 43.2516 88.3641 43.2516 88.3641C39.8724 87.6403 38.2139 88.0432 38.2108 88.0435C37.3654 90.1402 37.7054 91.4067 37.6743 91.911C37.6588 92.1604 37.9225 92.3131 38.255 92.4002C40.0721 92.8756 41.7267 93.1918 45.1111 92.9598C47.6022 92.7893 50.24 91.168 49.6401 89.5025C49.2671 88.467 47.0901 89.5503 44.7812 89.5658Z" fill="#434244"/>
<path d="M22.4968 85.6805L5.66602 78.8415V80.5055L22.4982 87.3275L22.4968 85.6805Z" fill="#F0F1F1"/>
<path d="M20.9625 72.663L5.66602 78.8415L22.4968 85.6805L37.8148 79.4929L20.9625 72.663Z" fill="#F0F1F1"/>
<path d="M37.8154 79.4925L22.4971 85.6805L22.4985 87.3275L37.8154 81.0986V79.4925Z" fill="#BABCBE"/>
<path d="M43.8066 74.5191C43.1375 73.9097 41.9946 73.3884 40.0982 73.7409L19.7368 76.5014L20.5022 80.1771C20.5022 80.1771 23.6212 83.0669 29.0796 81.9708C34.538 80.8747 38.0824 79.081 38.0824 79.081L37.3954 89.2231C37.3954 89.2231 40.5897 89.9189 43.4316 88.7124C43.9084 88.51 44.354 78.7313 44.4973 76.2199C44.5369 75.5278 44.4084 75.0675 43.8066 74.5191Z" fill="#919395"/>
<path d="M7.42472 53.8184L42.1893 39.6342C43.6619 39.0333 45.4792 39.0318 46.9539 39.63L101.72 61.8984C103.116 62.4647 103.118 63.8797 101.725 64.4483L67.7325 78.3174C65.9821 79.0316 63.822 79.0334 62.0691 78.3222L7.42874 56.1051C6.17725 55.5973 6.17499 54.3282 7.42472 53.8184Z" fill="#F0F1F1"/>
<path d="M7.42844 56.1051L62.0687 78.3223C63.8215 79.0335 65.9817 79.0316 67.7321 78.3175L101.724 64.4484C102.418 64.1654 102.764 63.673 102.767 63.1799V65.0049C102.767 65.0097 102.767 65.0144 102.767 65.0193V65.0425L102.762 65.0432C102.749 65.5282 102.406 66.0095 101.724 66.2878L67.7322 80.1568C65.9818 80.871 63.8217 80.8729 62.0688 80.1616L7.42844 57.9444C6.7983 57.6887 6.48637 57.2401 6.49001 56.7925L6.48926 56.7921V54.9666C6.4919 55.4096 6.80471 55.8519 7.42844 56.1051Z" fill="#BABCBE"/>
<path d="M7.42844 56.1051L62.0687 78.3223C62.8715 78.648 63.7606 78.8168 64.6559 78.8434V80.6829C63.7606 80.6563 62.8715 80.4875 62.0687 80.1617L7.42844 57.9444C6.7983 57.6887 6.48637 57.2401 6.49001 56.7925L6.48926 56.7921V54.9666C6.4919 55.4096 6.80471 55.8519 7.42844 56.1051Z" fill="#CFD1D2"/>
<path d="M33.1126 58.948L39.0129 56.5487C39.29 56.4356 39.6321 56.4353 39.9097 56.5479L58.1305 63.9546C58.3931 64.0611 58.3936 64.3274 58.1313 64.4345L52.3765 66.7744C52.0471 66.9089 51.6404 66.9091 51.3104 66.7753L33.1134 59.3784C32.878 59.2829 32.8775 59.044 33.1126 58.948Z" fill="#CFD1D2"/>
<path d="M33.1132 59.3784L51.3102 66.7754C51.6403 66.9092 52.0468 66.9089 52.3763 66.7745L58.1312 64.4346C58.2618 64.3813 58.3269 64.2886 58.3274 64.1958V64.6851C58.3274 64.686 58.3274 64.6868 58.3274 64.6878V64.6921L58.3266 64.6922C58.324 64.7836 58.2595 64.8741 58.1312 64.9265L52.3763 67.2665C52.0469 67.4009 51.6403 67.4012 51.3102 67.2674L33.1132 59.8704C32.9947 59.8222 32.9359 59.7378 32.9367 59.6535H32.9365V59.1641C32.937 59.2475 32.9958 59.3307 33.1132 59.3784Z" fill="#A5A6A9"/>
<path d="M49.0841 62.2767L48.3476 62.5771L47.5059 62.2375L48.2447 61.9363L49.0841 62.2767Z" fill="#DA1D5D"/>
<path d="M48.5532 62.6613L49.292 62.3601L50.1313 62.7004L49.395 63.0007L48.5532 62.6613Z" fill="#DA1D5D"/>
<path d="M40.2666 60.0844L41.0052 59.7833L41.8449 60.1236L41.1084 60.424L40.2666 60.0844Z" fill="#DA1D5D"/>
<path d="M41.3135 60.5082L42.0523 60.207L42.8919 60.5474L42.1554 60.8476L41.3135 60.5082Z" fill="#DA1D5D"/>
<path d="M42.3608 60.9319L43.0997 60.6308L43.9392 60.9711L43.2027 61.2713L42.3608 60.9319Z" fill="#DA1D5D"/>
<path d="M38.9448 57.2221L39.6837 56.9208L40.5231 57.2612L39.7867 57.5614L38.9448 57.2221Z" fill="#DA1D5D"/>
<path d="M39.9922 57.6458L40.7309 57.3446L41.5704 57.6848L40.8341 57.9853L39.9922 57.6458Z" fill="#DA1D5D"/>
<path d="M41.0396 58.0695L41.7783 57.7683L42.6177 58.1086L41.8813 58.4089L41.0396 58.0695Z" fill="#DA1D5D"/>
<path d="M42.0869 58.4932L42.8258 58.192L43.6652 58.5323L42.9288 58.8326L42.0869 58.4932Z" fill="#DA1D5D"/>
<path d="M43.1343 58.9169L43.8731 58.6157L44.7125 58.956L43.9762 59.2564L43.1343 58.9169Z" fill="#DA1D5D"/>
<path d="M44.1812 59.3406L44.92 59.0394L45.7594 59.3797L45.0229 59.68L44.1812 59.3406Z" fill="#DA1D5D"/>
<path d="M45.2285 59.7644L45.9674 59.4632L46.8069 59.8035L46.0704 60.1038L45.2285 59.7644Z" fill="#DA1D5D"/>
<path d="M46.2759 60.188L47.0147 59.8868L47.8543 60.2272L47.1178 60.5275L46.2759 60.188Z" fill="#DA1D5D"/>
<path d="M47.3232 60.6119L48.062 60.3105L48.9015 60.6509L48.165 60.9512L47.3232 60.6119Z" fill="#DA1D5D"/>
<path d="M48.3706 61.0355L49.1093 60.7343L49.949 61.0746L49.2124 61.3749L48.3706 61.0355Z" fill="#DA1D5D"/>
<path d="M49.418 61.4591L50.1568 61.158L50.9962 61.4984L50.2599 61.7986L49.418 61.4591Z" fill="#DA1D5D"/>
<path d="M50.4648 61.883L51.2037 61.5817L52.0432 61.922L51.3069 62.2223L50.4648 61.883Z" fill="#DA1D5D"/>
<path d="M52.2509 62.0054L53.0905 62.3457L52.354 62.6461L51.5122 62.3066L52.2509 62.0054Z" fill="#DA1D5D"/>
<path d="M38.8307 57.9506L37.9888 57.6112L38.7275 57.31L39.5671 57.6504L38.8307 57.9506Z" fill="#DA1D5D"/>
<path d="M40.6144 58.074L39.878 58.3744L39.0361 58.035L39.7749 57.7338L40.6144 58.074Z" fill="#DA1D5D"/>
<path d="M41.6616 58.4978L40.9253 58.798L40.0835 58.4587L40.8222 58.1575L41.6616 58.4978Z" fill="#DA1D5D"/>
<path d="M42.7091 58.9215L41.9728 59.2218L41.1309 58.8824L41.8696 58.5812L42.7091 58.9215Z" fill="#DA1D5D"/>
<path d="M43.7565 59.3452L43.02 59.6456L42.1782 59.3061L42.9171 59.0049L43.7565 59.3452Z" fill="#DA1D5D"/>
<path d="M44.8038 59.769L44.0675 60.0693L43.2256 59.7298L43.9643 59.4286L44.8038 59.769Z" fill="#DA1D5D"/>
<path d="M45.8507 60.1927L45.1144 60.493L44.2725 60.1536L45.0113 59.8523L45.8507 60.1927Z" fill="#DA1D5D"/>
<path d="M46.8982 60.6164L46.1617 60.9167L45.3198 60.5772L46.0588 60.276L46.8982 60.6164Z" fill="#DA1D5D"/>
<path d="M47.9456 61.0401L47.2091 61.3403L46.3672 61.001L47.106 60.6997L47.9456 61.0401Z" fill="#DA1D5D"/>
<path d="M48.9927 61.4637L48.2563 61.7641L47.4146 61.4247L48.1533 61.1234L48.9927 61.4637Z" fill="#DA1D5D"/>
<path d="M50.0402 61.8875L49.3037 62.1878L48.4619 61.8484L49.2006 61.5472L50.0402 61.8875Z" fill="#DA1D5D"/>
<path d="M51.0877 62.3112L50.3511 62.6115L49.5093 62.2721L50.2481 61.9709L51.0877 62.3112Z" fill="#DA1D5D"/>
<path d="M51.2955 62.3947L52.135 62.7349L51.3986 63.0353L50.5566 62.6958L51.2955 62.3947Z" fill="#DA1D5D"/>
<path d="M37.8748 58.3399L37.0327 58.0004L37.7716 57.6992L38.6112 58.0396L37.8748 58.3399Z" fill="#DA1D5D"/>
<path d="M39.6588 58.4633L38.9225 58.7637L38.0806 58.4242L38.8194 58.123L39.6588 58.4633Z" fill="#DA1D5D"/>
<path d="M39.1279 58.8479L39.8665 58.5466L40.7062 58.887L39.9697 59.1873L39.1279 58.8479Z" fill="#DA1D5D"/>
<path d="M41.7529 59.3107L41.0166 59.611L40.1748 59.2716L40.9135 58.9704L41.7529 59.3107Z" fill="#DA1D5D"/>
<path d="M42.8004 59.7344L42.0641 60.0347L41.2222 59.6953L41.9609 59.3941L42.8004 59.7344Z" fill="#DA1D5D"/>
<path d="M43.8479 60.1582L43.1116 60.4584L42.2695 60.119L43.0084 59.8178L43.8479 60.1582Z" fill="#DA1D5D"/>
<path d="M44.8951 60.5818L44.1588 60.8822L43.3169 60.5428L44.0557 60.2415L44.8951 60.5818Z" fill="#DA1D5D"/>
<path d="M45.9426 61.0056L45.2062 61.3059L44.3643 60.9665L45.1031 60.6652L45.9426 61.0056Z" fill="#DA1D5D"/>
<path d="M46.9897 61.4293L46.2534 61.7295L45.4116 61.3902L46.1505 61.089L46.9897 61.4293Z" fill="#DA1D5D"/>
<path d="M48.0367 61.853L47.3004 62.1533L46.4585 61.8139L47.1973 61.5127L48.0367 61.853Z" fill="#DA1D5D"/>
<path d="M50.3393 62.7838L51.1788 63.1241L50.4425 63.4245L49.6006 63.085L50.3393 62.7838Z" fill="#DA1D5D"/>
<path d="M36.9191 58.7291L36.0771 58.3896L36.816 58.0884L37.6554 58.4288L36.9191 58.7291Z" fill="#DA1D5D"/>
<path d="M37.1245 58.8134L37.8634 58.5122L38.7028 58.8524L37.9663 59.1528L37.1245 58.8134Z" fill="#DA1D5D"/>
<path d="M38.1719 59.2371L38.9107 58.9359L39.7502 59.2762L39.0138 59.5765L38.1719 59.2371Z" fill="#DA1D5D"/>
<path d="M39.2192 59.6608L39.958 59.3595L40.7974 59.6999L40.061 60.0002L39.2192 59.6608Z" fill="#DA1D5D"/>
<path d="M43.4082 61.3557L44.1471 61.0544L44.9866 61.3948L44.2501 61.6951L43.4082 61.3557Z" fill="#DA1D5D"/>
<path d="M44.4556 61.7794L45.1944 61.4781L46.0338 61.8185L45.2973 62.1187L44.4556 61.7794Z" fill="#DA1D5D"/>
<path d="M45.5029 62.2031L46.2417 61.9019L47.0812 62.2422L46.3447 62.5425L45.5029 62.2031Z" fill="#DA1D5D"/>
<path d="M46.5503 62.6268L47.289 62.3255L48.1285 62.6659L47.3921 62.9662L46.5503 62.6268Z" fill="#DA1D5D"/>
<path d="M47.5977 63.0506L48.3364 62.7493L49.1758 63.0896L48.4394 63.3899L47.5977 63.0506Z" fill="#DA1D5D"/>
<path d="M49.3834 63.173L50.2229 63.5133L49.4864 63.8136L48.6445 63.4742L49.3834 63.173Z" fill="#DA1D5D"/>
<path d="M35.9631 59.1183L35.1211 58.7788L35.8599 58.4776L36.6995 58.8179L35.9631 59.1183Z" fill="#DA1D5D"/>
<path d="M36.1685 59.2026L36.9073 58.9014L37.7467 59.2417L37.0104 59.542L36.1685 59.2026Z" fill="#DA1D5D"/>
<path d="M37.2158 59.6263L37.9546 59.3251L38.7939 59.6654L38.0576 59.9657L37.2158 59.6263Z" fill="#DA1D5D"/>
<path d="M38.2632 60.05L39.002 59.7487L39.8414 60.0891L39.1051 60.3893L38.2632 60.05Z" fill="#DA1D5D"/>
<path d="M39.3105 60.4737L40.0493 60.1725L40.8888 60.5128L40.1525 60.8131L39.3105 60.4737Z" fill="#DA1D5D"/>
<path d="M40.3579 60.8974L41.0966 60.5961L41.9362 60.9365L41.1997 61.2368L40.3579 60.8974Z" fill="#DA1D5D"/>
<path d="M41.4048 61.3212L42.1435 61.02L42.983 61.3603L42.2467 61.6606L41.4048 61.3212Z" fill="#DA1D5D"/>
<path d="M42.4521 61.7448L43.1909 61.4437L44.0304 61.784L43.2941 62.0843L42.4521 61.7448Z" fill="#DA1D5D"/>
<path d="M43.4995 62.1686L44.2382 61.8673L45.0778 62.2077L44.3413 62.508L43.4995 62.1686Z" fill="#DA1D5D"/>
<path d="M44.5469 62.5923L45.2857 62.291L46.1254 62.6313L45.3888 62.9317L44.5469 62.5923Z" fill="#DA1D5D"/>
<path d="M45.5942 63.016L46.3331 62.7148L47.1726 63.0552L46.4361 63.3554L45.5942 63.016Z" fill="#DA1D5D"/>
<path d="M46.6416 63.4398L47.3803 63.1385L48.22 63.4789L47.4834 63.7791L46.6416 63.4398Z" fill="#DA1D5D"/>
<path d="M48.4272 63.5621L49.2669 63.9025L48.5303 64.2029L47.6885 63.8634L48.4272 63.5621Z" fill="#DA1D5D"/>
<path d="M34.9043 58.8668L35.7438 59.2071L35.0073 59.5075L34.1655 59.168L34.9043 58.8668Z" fill="#DA1D5D"/>
<path d="M36.7911 59.6308L36.0548 59.9312L35.2129 59.5918L35.9517 59.2905L36.7911 59.6308Z" fill="#DA1D5D"/>
<path d="M37.838 60.0546L37.1015 60.3548L36.2598 60.0155L36.9986 59.7142L37.838 60.0546Z" fill="#DA1D5D"/>
<path d="M38.8854 60.4783L38.1489 60.7786L37.3071 60.4392L38.0459 60.1379L38.8854 60.4783Z" fill="#DA1D5D"/>
<path d="M39.9327 60.902L39.1963 61.2023L38.3545 60.8629L39.0932 60.5617L39.9327 60.902Z" fill="#DA1D5D"/>
<path d="M40.9801 61.3258L40.2438 61.626L39.4019 61.2865L40.1406 60.9854L40.9801 61.3258Z" fill="#DA1D5D"/>
<path d="M41.1879 61.4091L42.2351 61.8329H42.2353L42.4416 61.9164L43.2822 62.2567L43.2826 62.2566L43.7094 62.4296L44.3292 62.6804L44.3299 62.6802L44.9909 62.9482L46.2165 63.4444L45.4802 63.7446L44.1989 63.2265L43.591 62.9815L43.592 62.9811L42.9545 62.7233L42.5437 62.5577L42.5444 62.5575L41.7163 62.2226L41.4965 62.1341L41.4967 62.134L40.4492 61.7104L41.1879 61.4091Z" fill="#DA1D5D"/>
<path d="M47.264 63.868L46.5275 64.1683L45.6855 63.829L46.4244 63.5276L47.264 63.868Z" fill="#DA1D5D"/>
<path d="M48.3112 64.2917L47.5748 64.5921L46.7329 64.2527L47.4718 63.9514L48.3112 64.2917Z" fill="#DA1D5D"/>
<path d="M53.6069 63.1534L54.3457 62.8522L55.1852 63.1925L54.4488 63.4928L53.6069 63.1534Z" fill="#DA1D5D"/>
<path d="M54.6543 63.5771L55.3932 63.2759L56.2325 63.6162L55.4961 63.9166L54.6543 63.5771Z" fill="#DA1D5D"/>
<path d="M55.7012 64.0008L56.44 63.6995L57.2796 64.0399L56.5431 64.3403L55.7012 64.0008Z" fill="#DA1D5D"/>
<path d="M54.2291 63.5817L53.4927 63.882L52.6509 63.5426L53.3897 63.2414L54.2291 63.5817Z" fill="#DA1D5D"/>
<path d="M55.2764 64.0054L54.5402 64.3058L53.6982 63.9663L54.437 63.6651L55.2764 64.0054Z" fill="#DA1D5D"/>
<path d="M56.3239 64.4292L55.5874 64.7294L54.7456 64.39L55.4845 64.0887L56.3239 64.4292Z" fill="#DA1D5D"/>
<path d="M53.2732 63.9709L52.5367 64.2711L51.6948 63.9318L52.4337 63.6306L53.2732 63.9709Z" fill="#DA1D5D"/>
<path d="M54.3206 64.3946L53.5842 64.6949L52.7422 64.3555L53.4809 64.0543L54.3206 64.3946Z" fill="#DA1D5D"/>
<path d="M55.3678 64.8184L54.6315 65.1186L53.7896 64.7792L54.5284 64.478L55.3678 64.8184Z" fill="#DA1D5D"/>
<path d="M50.7393 64.321L51.4781 64.0198L52.3176 64.3601L51.5812 64.6604L50.7393 64.321Z" fill="#DA1D5D"/>
<path d="M51.7861 64.7447L52.525 64.4434L53.3645 64.7838L52.628 65.0841L51.7861 64.7447Z" fill="#DA1D5D"/>
<path d="M52.8335 65.1684L53.5724 64.8671L54.4119 65.2076L53.6754 65.5078L52.8335 65.1684Z" fill="#DA1D5D"/>
<path d="M49.7832 64.7102L50.5219 64.409L51.3615 64.7493L50.625 65.0495L49.7832 64.7102Z" fill="#DA1D5D"/>
<path d="M50.8306 65.1339L51.5693 64.8326L52.4088 65.1729L51.6723 65.4733L50.8306 65.1339Z" fill="#DA1D5D"/>
<path d="M51.8779 65.5576L52.6167 65.2563L53.4562 65.5968L52.7197 65.897L51.8779 65.5576Z" fill="#DA1D5D"/>
<path d="M50.4053 65.1385L49.6689 65.4388L48.8271 65.0995L49.5657 64.7982L50.4053 65.1385Z" fill="#DA1D5D"/>
<path d="M51.4528 65.5622L50.7165 65.8625L49.8745 65.523L50.6134 65.2219L51.4528 65.5622Z" fill="#DA1D5D"/>
<path d="M46.2017 54.9677L52.0056 52.5996C52.2514 52.4993 52.5548 52.4991 52.801 52.5989L66.5712 58.1853C66.8042 58.2798 66.8045 58.5161 66.5719 58.611L60.897 60.9264C60.6047 61.0456 60.2441 61.0459 59.9515 60.9272L46.2023 55.3493C45.9935 55.2647 45.993 55.0528 46.2017 54.9677Z" fill="#CFD1D2"/>
<path d="M46.2021 55.3495L59.9513 60.9274C60.2439 61.0461 60.6044 61.0458 60.8968 60.9266L66.5717 58.6112C66.6875 58.564 66.7453 58.4818 66.7456 58.3995V58.8941C66.7456 58.8949 66.7456 58.8957 66.7456 58.8965V58.9004L66.7449 58.9006C66.7428 58.9815 66.6856 59.0619 66.5717 59.1083L60.8968 61.4238C60.6044 61.5431 60.2439 61.5433 59.9513 61.4245L46.2021 55.8466C46.0969 55.8039 46.0449 55.729 46.0455 55.6543L46.0454 55.6542V55.1595C46.0458 55.2334 46.0979 55.3073 46.2021 55.3495Z" fill="#A5A6A9"/>
<path d="M46.2021 55.3495L59.9513 60.9274C60.0853 60.9817 60.2337 61.01 60.3831 61.0143V61.5114C60.2337 61.507 60.0853 61.4788 59.9513 61.4244L46.2021 55.8465C46.0969 55.8039 46.0449 55.729 46.0455 55.6542L46.0454 55.6541V55.1594C46.0458 55.2334 46.0979 55.3073 46.2021 55.3495Z" fill="#A5A6A9"/>
<path d="M61.2584 55.3409L50.5557 50.9879V54.7147L61.2587 59.0648L61.2584 55.3409Z" fill="#E5E5E6"/>
<path d="M52.0458 50.3868L50.5557 50.9879L61.2584 55.3409L62.7522 54.7382L52.0458 50.3868Z" fill="#1F334B"/>
<path d="M62.7526 54.7382L61.2588 55.3409L61.259 59.0648L62.7526 58.4549V54.7382Z" fill="#919395"/>
<path d="M39.7388 32.0203L72.2712 45.2824L72.2705 62.1088L39.7388 48.7938V32.0203Z" fill="#EDB9D4"/>
<path d="M72.2713 45.2824L73.353 44.8205V61.6469L72.2705 62.1088L72.2713 45.2824Z" fill="#919395"/>
<path d="M39.7388 32.0203L40.8466 31.5691L73.3529 44.8205L72.2712 45.2824L39.7388 32.0203Z" fill="#A5A6A9"/>
<path d="M39.7388 32.0203V48.7937L72.2705 62.1087L72.2712 45.2823L39.7388 32.0203ZM71.5002 61.1669L40.509 48.4825V32.9603L71.501 45.5943L71.5002 61.1669Z" fill="#E5E5E6"/>
<path d="M27.6928 52.7945C27.3556 55.1979 24.8333 56.9904 22.0594 56.798C19.2854 56.6057 17.3102 54.5015 17.6473 52.0981C17.9848 49.6948 20.5069 47.9024 23.2808 48.0947C26.0548 48.287 28.0301 50.3912 27.6928 52.7945Z" fill="#F2D2BC"/>
<path d="M31.8375 58.3975C31.8375 58.3975 33.0436 58.6013 33.4616 58.6311C33.8796 58.6609 35.4634 58.8921 36.1114 58.7537C36.7592 58.6153 35.5422 58.3132 35.2428 58.1569C34.9433 58.0006 34.9568 57.6074 35.6105 57.4687C36.2643 57.3301 37.7423 57.3955 38.5241 57.3173C39.3058 57.2388 37.7469 55.5747 36.4733 55.4206C35.1996 55.2663 34.1086 55.3607 32.9824 55.7515C31.896 56.1283 31.3026 56.7639 30.7969 56.8872L31.8375 58.3975Z" fill="#E6C3A1"/>
<path d="M31.9756 56.1274L23.7287 57.581L23.3145 61.2633L33.0495 58.9185C33.252 57.6145 31.9756 56.1274 31.9756 56.1274Z" fill="#DB2B7C"/>
<path d="M11.6362 57.686C11.6362 57.686 9.35553 59.7057 11.6362 62.4873C11.6362 62.4873 13.2315 64.0379 17.6099 62.52L11.6362 57.686Z" fill="#DB2B7C"/>
<path d="M18.396 55.3259C18.396 55.3259 21.9502 55.1553 24.7398 56.5259C24.7398 56.5259 24.9464 56.938 25.5043 57.1994C26.0622 57.4608 28.8281 58.2405 28.8281 58.2405C28.8281 58.2405 27.6088 69.6505 29.0084 75.2059C29.0084 75.2059 22.9982 78.5043 13.6122 75.2059C13.6122 75.2059 12.2401 61.1967 11.6362 57.686C11.6362 57.686 13.2005 56.3262 18.396 55.3259Z" fill="#DA1D5D"/>
<path d="M16.8308 74.1615L0 67.3224L5.66614 78.8585L22.4983 85.6805L16.8308 74.1615Z" fill="#F0F1F1"/>
<path d="M1.85851 66.5644L0 67.3225L16.8308 74.1615L18.7106 73.3942L1.85851 66.5644Z" fill="#CFD1D2"/>
<path d="M18.7108 73.394L16.8306 74.1615L22.4981 85.6805L24.3984 84.911L18.7108 73.394Z" fill="#BABCBE"/>
<path d="M42.5303 63.6226C42.5303 63.6226 43.4493 62.9723 43.8007 62.7866C44.1521 62.6009 45.3884 61.7823 46.0816 61.6738C46.7749 61.5653 45.5909 62.4095 45.4477 62.6737C45.3047 62.9379 46.1563 62.4629 46.8052 62.2921C47.4759 62.1156 48.2172 62.1468 49.0113 62.3453C50.6048 62.7435 50.5267 64.9835 49.2248 64.7187C47.0825 64.2833 46.1183 65.4785 44.8401 65.7301C43.9549 65.9044 43.5817 65.8933 43.0281 65.9632L42.5303 63.6226Z" fill="#E6C3A1"/>
<path d="M28.8279 58.2404L35.7884 64.7225L43.0222 63.2215C43.0222 63.2215 44.5743 64.597 44.0708 66.0544L34.4162 68.696L26.5703 62.6288C26.5703 62.6288 23.9429 58.7806 28.8279 58.2404Z" fill="#DB2B7C"/>
<path d="M24.95 46.042C24.95 46.042 25.4861 46.9447 22.9241 47.1895C20.3689 47.4337 17.1967 48.3301 16.3646 50.2285C15.832 51.4438 16.4491 52.7466 17.3166 53.8069C17.6133 54.1696 17.945 54.5304 18.3343 54.8484C18.3343 54.8484 20.0461 55.1732 22.1103 54.392C22.1103 54.392 23.3805 53.7968 24.1427 52.6509C24.1427 52.6509 25.6672 53.0973 26.1435 52.2045C26.4937 51.5481 27.5956 51.3853 28.1953 51.0268C28.1953 51.0268 31.6542 47.0541 24.95 46.042Z" fill="#434244"/>
<path d="M101.62 88.239L90.4678 83.6891V86.6218L101.621 91.1592L101.62 88.239Z" fill="#FFC5DD"/>
<path d="M101.994 79.0334L90.4678 83.6891L101.62 88.239L113.162 83.5764L101.994 79.0334Z" fill="#FFABCB"/>
<path d="M113.163 83.5763L101.62 88.239L101.621 91.1591L113.163 86.4654V83.5763Z" fill="#FF9FC6"/>
<path d="M101.62 83.4422L90.4678 78.8923V81.825L101.621 86.3623L101.62 83.4422Z" fill="#E5E5E6"/>
<path d="M101.994 74.2365L90.4678 78.8923L101.62 83.4422L113.162 78.7796L101.994 74.2365Z" fill="#F0F1F1"/>
<path d="M113.163 78.7796L101.62 83.4423L101.621 86.3623L113.163 81.6686V78.7796Z" fill="#BABCBE"/>
<path d="M82.759 95.9149L71.6069 91.3649V94.2977L82.7599 98.835L82.759 95.9149Z" fill="#FFC5DD"/>
<path d="M83.1335 86.7092L71.6069 91.3649L82.759 95.9149L94.3015 91.2522L83.1335 86.7092Z" fill="#FFABCB"/>
<path d="M94.3017 91.2523L82.7588 95.9149L82.7597 98.835L94.3017 94.1413V91.2523Z" fill="#FF9FC6"/>
<path d="M82.759 91.1181L71.6069 86.5681V89.5009L82.7599 94.0381L82.759 91.1181Z" fill="#E5E5E6"/>
<path d="M83.1335 81.9123L71.6069 86.5681L82.759 91.1181L94.3015 86.4555L83.1335 81.9123Z" fill="#F0F1F1"/>
<path d="M94.3017 86.4554L82.7588 91.1181L82.7597 94.0381L94.3017 89.3444V86.4554Z" fill="#BABCBE"/>
<path d="M86.2386 88.2441L85.538 87.9598C85.0336 88.0993 84.4753 88.1917 83.8979 88.237L83.9012 88.6385L82.2001 88.6389L82.1959 88.2369C81.6189 88.1911 81.059 88.0988 80.5535 87.9597L79.8574 88.2441L78.6496 87.7539L79.3458 87.4695C79.0027 87.2642 78.7739 87.0365 78.6597 86.8018H77.6735L77.668 86.1088H78.6542C78.7647 85.874 78.9898 85.6464 79.3297 85.4402L78.63 85.1563L79.8289 84.6666L80.5284 84.9505C81.0328 84.8119 81.5922 84.719 82.1675 84.6737L82.1653 84.2718H83.8674L83.8696 84.6737C84.4477 84.719 85.0075 84.8115 85.5131 84.9505L86.2092 84.6661L87.417 85.1562L86.7209 85.4405C87.0639 85.6459 87.2927 85.8735 87.406 86.1087H88.3944L88.3988 86.8013L87.4116 86.8018C87.303 87.0365 87.0769 87.2646 86.7371 87.47L87.4378 87.7542L86.2386 88.2441ZM81.4605 87.0979C82.3351 87.4529 83.7483 87.4529 84.6171 87.0979C85.4861 86.7431 85.4814 86.1677 84.6068 85.8128C83.7323 85.4579 82.319 85.4579 81.4502 85.8128C80.5814 86.1677 80.5859 86.7431 81.4605 87.0979Z" fill="#BD7044"/>
<path d="M102.847 76.7669L103.931 78.3947L105.016 80.023L101.013 79.5867L97.0112 79.1505L99.9288 77.9587L102.847 76.7669Z" fill="#DA1D5D"/>
<path d="M118.209 56.9367L118.193 56.9434L118.192 56.9419C118.197 56.9398 118.204 56.9389 118.209 56.9367Z" fill="#BECCDE"/>
<path d="M43.7861 35.5152V35.9614L46.453 37.0426V36.5964L43.7861 35.5152Z" fill="#BD7044"/>
<path d="M43.7861 36.3303V36.7766L46.453 37.8578V37.4115L43.7861 36.3303Z" fill="#ECEFF6"/>
<path d="M43.7861 37.1455V37.5916L46.453 38.6729V38.2267L43.7861 37.1455Z" fill="#ECEFF6"/>
<path d="M63.9129 46.5665V46.1202L47.4536 39.4474V39.8937L63.9129 46.5665Z" fill="#ECEFF6"/>
<path d="M43.7861 37.9606V38.4068L46.453 39.4881V39.0418L43.7861 37.9606Z" fill="#ECEFF6"/>
<path d="M43.7861 38.7757V39.222L46.453 40.3032V39.8569L43.7861 38.7757Z" fill="#ECEFF6"/>
<path d="M63.9129 47.3816V46.9354L47.4536 40.2626V40.7088L63.9129 47.3816Z" fill="#BABCBE"/>
<path d="M43.7861 41.2211V41.6674L46.453 42.7485V42.3024L43.7861 41.2211Z" fill="#ECEFF6"/>
<path d="M43.7861 42.0362V42.4825L46.453 43.5637V43.1174L43.7861 42.0362Z" fill="#BD7044"/>
<path d="M43.7861 45.2968V45.743L46.453 46.8242V46.378L43.7861 45.2968Z" fill="#ECEFF6"/>
<path d="M43.7861 46.1119V46.5582L46.453 47.6393V47.1931L43.7861 46.1119Z" fill="#ECEFF6"/>
<path d="M57.8373 51.8085L47.4536 47.5988V48.0449L57.8373 52.2547V51.8085Z" fill="#BABCBE"/>
<path d="M58.3848 52.0303V52.4766L63.913 54.7178V54.2715L58.3848 52.0303Z" fill="#ECEFF6"/>
<path d="M52.6705 48.8986L47.4536 46.7836V47.2299L52.6705 49.3448V48.8986Z" fill="#ECEFF6"/>
<path d="M53.2178 49.1205V49.5667L63.9129 53.9027V53.4564L53.2178 49.1205Z" fill="#ECEFF6"/>
<path d="M62.5059 50.4407V50.8869L63.9128 51.4572V51.0111L62.5059 50.4407Z" fill="#ECEFF6"/>
<path d="M54.8493 46.5214L47.4536 43.5231V43.9693L54.8493 46.9676V46.5214Z" fill="#DA1D5D"/>
<path d="M51.8189 38.7718L47.4536 37.002V37.4483L51.8189 39.218V38.7718Z" fill="#ECEFF6"/>
<path d="M58.9743 41.6727L52.3662 38.9937V39.4399L58.9743 42.1189V41.6727Z" fill="#ECEFF6"/>
<path d="M55.1228 40.9264L50.4702 39.0402V39.4865L55.1228 41.3727V40.9264Z" fill="#ECEFF6"/>
<path d="M60.0046 42.9054L55.6704 41.1483V41.5945L60.0046 43.3517V42.9054Z" fill="#DA1D5D"/>
<path d="M60.5518 43.1273V43.5736L63.913 44.9362V44.4899L60.5518 43.1273Z" fill="#ECEFF6"/>
<path d="M48.3135 38.9809V39.4271L51.819 40.8482V40.402L48.3135 38.9809Z" fill="#DA1D5D"/>
<path d="M62.5415 44.7491L52.3662 40.6239V41.0702L62.5415 45.1954V44.7491Z" fill="#ECEFF6"/>
<path d="M56.7157 44.8328L50.0659 42.1368V42.5831L56.7157 45.2789V44.8328Z" fill="#ECEFF6"/>
<path d="M62.5415 47.1945L57.2632 45.0547V45.5008L62.5415 47.6407V47.1945Z" fill="#ECEFF6"/>
<path d="M61.9586 49.4037L55.3965 46.7432V47.1895L61.9586 49.8498V49.4037Z" fill="#ECEFF6"/>
<path d="M58.3848 48.7698V49.216L61.9588 50.665V50.2188L58.3848 48.7698Z" fill="#BABCBE"/>
<path d="M48.7405 44.86L47.4536 44.3382V44.7844L48.7405 45.3062V44.86Z" fill="#ECEFF6"/>
<path d="M51.1514 45.8374V46.2836L57.8373 48.9941V48.5479L51.1514 45.8374Z" fill="#ECEFF6"/>
<path d="M50.6043 45.6155L49.2881 45.0819V45.5281L50.6043 46.0617V45.6155Z" fill="#ECEFF6"/>
<path d="M56.6006 48.8616L49.2881 45.897V46.3433L56.6006 49.3078V48.8616Z" fill="#ECEFF6"/>
<path d="M65.0703 44.1495V44.2724L65.8051 44.5703V44.4474L65.0703 44.1495Z" fill="#ECEFF6"/>
<path d="M65.0703 44.3741V44.4971L65.8051 44.795V44.672L65.0703 44.3741Z" fill="#ECEFF6"/>
<path d="M65.0703 44.5987V44.7216L65.8051 45.0195V44.8965L65.0703 44.5987Z" fill="#ECEFF6"/>
<path d="M70.6162 47.1945V47.0716L66.0811 45.233V45.356L70.6162 47.1945Z" fill="#ECEFF6"/>
<path d="M65.0703 44.8233V44.9463L65.8051 45.2442V45.1212L65.0703 44.8233Z" fill="#ECEFF6"/>
<path d="M65.0703 45.0479V45.1708L65.8051 45.4688V45.3458L65.0703 45.0479Z" fill="#ECEFF6"/>
<path d="M70.6162 47.4192V47.2962L66.0811 45.4576V45.5805L70.6162 47.4192Z" fill="#ECEFF6"/>
<path d="M65.0703 45.7218V45.8447L65.8051 46.1426V46.0196L65.0703 45.7218Z" fill="#ECEFF6"/>
<path d="M65.0703 45.9463V46.0693L65.8051 46.3672V46.2442L65.0703 45.9463Z" fill="#ECEFF6"/>
<path d="M65.0703 46.8447V46.9677L65.8051 47.2656V47.1426L65.0703 46.8447Z" fill="#ECEFF6"/>
<path d="M65.0703 47.0693V47.1922L65.8051 47.4902V47.3672L65.0703 47.0693Z" fill="#ECEFF6"/>
<path d="M68.9421 48.639L66.0811 47.479V47.6019L68.9421 48.7619V48.639Z" fill="#ECEFF6"/>
<path d="M69.0928 48.7001V48.8231L70.6161 49.4406V49.3176L69.0928 48.7001Z" fill="#ECEFF6"/>
<path d="M67.5184 47.8372L66.0811 47.2544V47.3773L67.5184 47.9601V47.8372Z" fill="#ECEFF6"/>
<path d="M67.6694 47.8983V48.0212L70.6164 49.216V49.093L67.6694 47.8983Z" fill="#ECEFF6"/>
<path d="M70.2285 48.2621V48.385L70.6162 48.5422V48.4192L70.2285 48.2621Z" fill="#ECEFF6"/>
<path d="M68.1188 47.1822L66.0811 46.356V46.479L68.1188 47.3051V47.1822Z" fill="#ECEFF6"/>
<path d="M67.2838 45.0468L66.0811 44.5592V44.6821L67.2838 45.1698V45.0468Z" fill="#ECEFF6"/>
<path d="M69.2554 45.8461L67.4346 45.1079V45.2309L69.2554 45.9691V45.8461Z" fill="#ECEFF6"/>
<path d="M68.194 45.6405L66.9121 45.1208V45.2437L68.194 45.7634V45.6405Z" fill="#ECEFF6"/>
<path d="M69.5395 46.1858L68.3452 45.7016V45.8246L69.5395 46.3087V46.1858Z" fill="#ECEFF6"/>
<path d="M69.6904 46.2469V46.37L70.6165 46.7454V46.6224L69.6904 46.2469Z" fill="#ECEFF6"/>
<path d="M66.3179 45.1044V45.2273L67.2837 45.6189V45.496L66.3179 45.1044Z" fill="#ECEFF6"/>
<path d="M70.2383 46.6938L67.4346 45.5571V45.6801L70.2383 46.8167V46.6938Z" fill="#ECEFF6"/>
<path d="M68.633 46.7168L66.8008 45.974V46.097L68.633 46.8398V46.7168Z" fill="#ECEFF6"/>
<path d="M70.2381 47.3676L68.7837 46.778V46.9009L70.2381 47.4905V47.3676Z" fill="#ECEFF6"/>
<path d="M70.0776 47.9763L68.2695 47.2433V47.3663L70.0776 48.0993V47.9763Z" fill="#ECEFF6"/>
<path d="M69.0928 47.8017V47.9246L70.0776 48.3239V48.2009L69.0928 47.8017Z" fill="#ECEFF6"/>
<path d="M66.4356 46.7243L66.0811 46.5806V46.7036L66.4356 46.8473V46.7243Z" fill="#ECEFF6"/>
<path d="M67.1001 46.9937V47.1166L68.9423 47.8635V47.7405L67.1001 46.9937Z" fill="#ECEFF6"/>
<path d="M66.9491 46.9325L66.5864 46.7855V46.9084L66.9491 47.0555V46.9325Z" fill="#ECEFF6"/>
<path d="M68.6013 47.8269L66.5864 47.0101V47.1331L68.6013 47.9499V47.8269Z" fill="#ECEFF6"/>
<path d="M65.0703 47.9499V48.0728L65.8051 48.3708V48.2478L65.0703 47.9499Z" fill="#ECEFF6"/>
<path d="M65.0703 48.1745V48.2975L65.8051 48.5953V48.4725L65.0703 48.1745Z" fill="#ECEFF6"/>
<path d="M65.0703 48.3991V48.522L65.8051 48.82V48.697L65.0703 48.3991Z" fill="#ECEFF6"/>
<path d="M70.6162 50.995V50.872L66.0811 49.0334V49.1563L70.6162 50.995Z" fill="#ECEFF6"/>
<path d="M65.0703 48.6237V48.7467L65.8051 49.0446V48.9216L65.0703 48.6237Z" fill="#ECEFF6"/>
<path d="M65.0703 48.8483V48.9713L65.8051 49.2692V49.1463L65.0703 48.8483Z" fill="#ECEFF6"/>
<path d="M70.6162 51.2196V51.0966L66.0811 49.258V49.381L70.6162 51.2196Z" fill="#ECEFF6"/>
<path d="M65.0703 49.5221V49.6451L65.8051 49.9429V49.82L65.0703 49.5221Z" fill="#ECEFF6"/>
<path d="M65.0703 49.7467V49.8697L65.8051 50.1676V50.0446L65.0703 49.7467Z" fill="#ECEFF6"/>
<path d="M65.0703 50.6451V50.7681L65.8051 51.0659V50.9431L65.0703 50.6451Z" fill="#ECEFF6"/>
<path d="M65.0703 50.8697V50.9927L65.8051 51.2906V51.1676L65.0703 50.8697Z" fill="#ECEFF6"/>
<path d="M68.9421 52.4393L66.0811 51.2794V51.4024L68.9421 52.5623V52.4393Z" fill="#ECEFF6"/>
<path d="M69.0928 52.5005V52.6234L70.6161 53.241V53.118L69.0928 52.5005Z" fill="#ECEFF6"/>
<path d="M67.5184 51.6376L66.0811 51.0548V51.1778L67.5184 51.7605V51.6376Z" fill="#ECEFF6"/>
<path d="M67.6694 51.6987V51.8217L70.6164 53.0164V52.8935L67.6694 51.6987Z" fill="#ECEFF6"/>
<path d="M70.2285 52.0625V52.1854L70.6162 52.3426V52.2196L70.2285 52.0625Z" fill="#ECEFF6"/>
<path d="M68.1188 50.9825L66.0811 50.1564V50.2793L68.1188 51.1055V50.9825Z" fill="#ECEFF6"/>
<path d="M67.2838 48.8472L66.0811 48.3596V48.4825L67.2838 48.9701V48.8472Z" fill="#ECEFF6"/>
<path d="M69.2554 49.6465L67.4346 48.9084V49.0313L69.2554 49.7695V49.6465Z" fill="#ECEFF6"/>
<path d="M68.194 49.4409L66.9121 48.9212V49.0442L68.194 49.5639V49.4409Z" fill="#ECEFF6"/>
<path d="M69.5395 49.9862L68.3452 49.5021V49.6249L69.5395 50.1092V49.9862Z" fill="#ECEFF6"/>
<path d="M69.6904 50.0473V50.1703L70.6165 50.5457V50.4229L69.6904 50.0473Z" fill="#ECEFF6"/>
<path d="M66.3179 48.9048V49.0278L67.2837 49.4194V49.2964L66.3179 48.9048Z" fill="#ECEFF6"/>
<path d="M70.2383 50.4942L67.4346 49.3576V49.4805L70.2383 50.6172V50.4942Z" fill="#ECEFF6"/>
<path d="M68.633 50.5173L66.8008 49.7744V49.8974L68.633 50.6402V50.5173Z" fill="#ECEFF6"/>
<path d="M70.2381 51.168L68.7837 50.5784V50.7014L70.2381 51.291V51.168Z" fill="#ECEFF6"/>
<path d="M70.0776 51.7768L68.2695 51.0437V51.1666L70.0776 51.8997V51.7768Z" fill="#ECEFF6"/>
<path d="M69.0928 51.6021V51.7251L70.0776 52.1243V52.0013L69.0928 51.6021Z" fill="#ECEFF6"/>
<path d="M66.4356 50.5248L66.0811 50.381V50.5039L66.4356 50.6478V50.5248Z" fill="#ECEFF6"/>
<path d="M67.1001 50.794V50.917L68.9423 51.6639V51.5409L67.1001 50.794Z" fill="#ECEFF6"/>
<path d="M66.9491 50.7329L66.5864 50.5859V50.7089L66.9491 50.8559V50.7329Z" fill="#ECEFF6"/>
<path d="M68.6013 51.6274L66.5864 50.8105V50.9334L68.6013 51.7503V51.6274Z" fill="#ECEFF6"/>
<path d="M65.0703 51.7503V51.8733L65.8051 52.1712V52.0482L65.0703 51.7503Z" fill="#ECEFF6"/>
<path d="M65.0703 51.975V52.0978L65.8051 52.3958V52.2728L65.0703 51.975Z" fill="#ECEFF6"/>
<path d="M65.0703 52.1995V52.3225L65.8051 52.6204V52.4975L65.0703 52.1995Z" fill="#ECEFF6"/>
<path d="M70.6162 54.7955V54.6724L66.0811 52.8338V52.9568L70.6162 54.7955Z" fill="#ECEFF6"/>
<path d="M65.0703 52.4241V52.5471L65.8051 52.845V52.722L65.0703 52.4241Z" fill="#ECEFF6"/>
<path d="M65.0703 52.6488V52.7717L65.8051 53.0696V52.9466L65.0703 52.6488Z" fill="#ECEFF6"/>
<path d="M70.6162 55.02V54.897L66.0811 53.0584V53.1813L70.6162 55.02Z" fill="#ECEFF6"/>
<path d="M65.0703 53.3225V53.4455L65.8051 53.7434V53.6204L65.0703 53.3225Z" fill="#ECEFF6"/>
<path d="M65.0703 53.5471V53.6701L65.8051 53.9679V53.8451L65.0703 53.5471Z" fill="#ECEFF6"/>
<path d="M65.0703 54.4455V54.5684L65.8051 54.8664V54.7434L65.0703 54.4455Z" fill="#ECEFF6"/>
<path d="M65.0703 54.6701V54.7932L65.8051 55.091V54.9681L65.0703 54.6701Z" fill="#ECEFF6"/>
<path d="M68.9421 56.2398L66.0811 55.0798V55.2028L68.9421 56.3628V56.2398Z" fill="#ECEFF6"/>
<path d="M69.0928 56.3009V56.4239L70.6161 57.0414V56.9185L69.0928 56.3009Z" fill="#ECEFF6"/>
<path d="M67.5184 55.438L66.0811 54.8553V54.9782L67.5184 55.561V55.438Z" fill="#ECEFF6"/>
<path d="M67.6694 55.4991V55.6221L70.6164 56.8168V56.6938L67.6694 55.4991Z" fill="#ECEFF6"/>
<path d="M70.2285 55.8629V55.9858L70.6162 56.143V56.02L70.2285 55.8629Z" fill="#ECEFF6"/>
<path d="M68.1188 54.7829L66.0811 53.9568V54.0798L68.1188 54.906V54.7829Z" fill="#ECEFF6"/>
<path d="M67.2838 52.6476L66.0811 52.16V52.283L67.2838 52.7706V52.6476Z" fill="#ECEFF6"/>
<path d="M69.2554 53.447L67.4346 52.7088V52.8317L69.2554 53.5699V53.447Z" fill="#ECEFF6"/>
<path d="M68.194 53.2413L66.9121 52.7216V52.8446L68.194 53.3643V53.2413Z" fill="#ECEFF6"/>
<path d="M69.5395 53.7867L68.3452 53.3024V53.4254L69.5395 53.9097V53.7867Z" fill="#ECEFF6"/>
<path d="M69.6904 53.8477V53.9708L70.6165 54.3462V54.2232L69.6904 53.8477Z" fill="#ECEFF6"/>
<path d="M66.3179 52.7052V52.8283L67.2837 53.2198V53.0969L66.3179 52.7052Z" fill="#ECEFF6"/>
<path d="M70.2383 54.2946L67.4346 53.158V53.281L70.2383 54.4176V54.2946Z" fill="#ECEFF6"/>
<path d="M68.633 54.3177L66.8008 53.5749V53.6978L68.633 54.4406V54.3177Z" fill="#ECEFF6"/>
<path d="M70.2381 54.9684L68.7837 54.3788V54.5017L70.2381 55.0914V54.9684Z" fill="#ECEFF6"/>
<path d="M70.0776 55.5771L68.2695 54.8441V54.9671L70.0776 55.7001V55.5771Z" fill="#ECEFF6"/>
<path d="M69.0928 55.4025V55.5254L70.0776 55.9247V55.8017L69.0928 55.4025Z" fill="#ECEFF6"/>
<path d="M66.4356 54.3253L66.0811 54.1815V54.3044L66.4356 54.4481V54.3253Z" fill="#ECEFF6"/>
<path d="M67.1001 54.5945V54.7175L68.9423 55.4643V55.3414L67.1001 54.5945Z" fill="#ECEFF6"/>
<path d="M66.9491 54.5334L66.5864 54.3863V54.5093L66.9491 54.6563V54.5334Z" fill="#ECEFF6"/>
<path d="M68.6013 55.4277L66.5864 54.6109V54.7339L68.6013 55.5507V55.4277Z" fill="#ECEFF6"/>
<path d="M65.0703 55.5507V55.6737L65.8051 55.9716V55.8486L65.0703 55.5507Z" fill="#ECEFF6"/>
<path d="M65.0703 55.7753V55.8983L65.8051 56.1962V56.0733L65.0703 55.7753Z" fill="#ECEFF6"/>
<path d="M65.0703 56V56.1229L65.8051 56.4208V56.2978L65.0703 56Z" fill="#ECEFF6"/>
<path d="M70.6162 58.5958V58.4728L66.0811 56.6342V56.7571L70.6162 58.5958Z" fill="#ECEFF6"/>
<path d="M65.0703 56.2245V56.3475L65.8051 56.6454V56.5225L65.0703 56.2245Z" fill="#ECEFF6"/>
<path d="M65.0703 56.4491V56.5721L65.8051 56.87V56.7471L65.0703 56.4491Z" fill="#ECEFF6"/>
<path d="M70.6162 58.8204V58.6975L66.0811 56.8588V56.9818L70.6162 58.8204Z" fill="#ECEFF6"/>
<path d="M65.0703 57.1229V57.2459L65.8051 57.5439V57.4209L65.0703 57.1229Z" fill="#ECEFF6"/>
<path d="M65.0703 57.3476V57.4705L65.8051 57.7684V57.6454L65.0703 57.3476Z" fill="#ECEFF6"/>
<path d="M70.2285 59.6633V59.7862L70.6162 59.9434V59.8205L70.2285 59.6633Z" fill="#ECEFF6"/>
<path d="M68.1188 58.5834L66.0811 57.7572V57.8802L68.1188 58.7063V58.5834Z" fill="#ECEFF6"/>
<path d="M67.2838 56.4481L66.0811 55.9605V56.0833L67.2838 56.571V56.4481Z" fill="#ECEFF6"/>
<path d="M69.2554 57.2474L67.4346 56.5092V56.6322L69.2554 57.3704V57.2474Z" fill="#ECEFF6"/>
<path d="M68.194 57.0417L66.9121 56.522V56.645L68.194 57.1646V57.0417Z" fill="#ECEFF6"/>
<path d="M69.5395 57.587L68.3452 57.1029V57.2258L69.5395 57.71V57.587Z" fill="#ECEFF6"/>
<path d="M69.6904 57.6482V57.7711L70.6165 58.1466V58.0237L69.6904 57.6482Z" fill="#ECEFF6"/>
<path d="M66.3179 56.5057V56.6286L67.2837 57.0202V56.8972L66.3179 56.5057Z" fill="#ECEFF6"/>
<path d="M70.2383 58.0951L67.4346 56.9584V57.0813L70.2383 58.218V58.0951Z" fill="#ECEFF6"/>
<path d="M68.633 58.1181L66.8008 57.3753V57.4983L68.633 58.2411V58.1181Z" fill="#ECEFF6"/>
<path d="M70.2381 58.7689L68.7837 58.1792V58.3022L70.2381 58.8918V58.7689Z" fill="#ECEFF6"/>
<path d="M70.0776 59.3776L68.2695 58.6445V58.7675L70.0776 59.5005V59.3776Z" fill="#ECEFF6"/>
<path d="M69.0928 59.2029V59.3259L70.0776 59.7252V59.6022L69.0928 59.2029Z" fill="#ECEFF6"/>
<path d="M66.4356 58.1256L66.0811 57.9819V58.1048L66.4356 58.2486V58.1256Z" fill="#ECEFF6"/>
<path d="M67.1001 58.3949V58.5178L68.9423 59.2648V59.1418L67.1001 58.3949Z" fill="#ECEFF6"/>
<path d="M66.9491 58.3337L66.5864 58.1867V58.3097L66.9491 58.4567V58.3337Z" fill="#ECEFF6"/>
<path d="M68.6013 59.2282L66.5864 58.4114V58.5343L68.6013 59.3512V59.2282Z" fill="#ECEFF6"/>
<path d="M42.0778 34.8221L41.1991 34.4658C41.1562 34.4484 41.1025 34.4702 41.1025 34.5049V35.2443C41.1025 35.2803 41.1299 35.3135 41.1743 35.3316L42.0529 35.6887C42.0969 35.7065 42.1519 35.6842 42.1519 35.6486V34.9124C42.1518 34.8751 42.1237 34.8407 42.0778 34.8221Z" fill="#DA1D5D"/>
<path d="M42.0778 35.9281L41.1991 35.5717C41.1562 35.5543 41.1025 35.5761 41.1025 35.6109V36.3503C41.1025 36.3862 41.1299 36.4195 41.1743 36.4376L42.0529 36.7947C42.0969 36.8125 42.1519 36.7902 42.1519 36.7546V36.0183C42.1518 35.981 42.1237 35.9467 42.0778 35.9281Z" fill="#DA1D5D"/>
<path d="M42.0778 37.0341L41.1991 36.6776C41.1562 36.6602 41.1025 36.6821 41.1025 36.7169V37.4562C41.1025 37.4922 41.1299 37.5255 41.1743 37.5435L42.0529 37.9005C42.0969 37.9184 42.1519 37.896 42.1519 37.8604V37.1242C42.1518 37.087 42.1237 37.0526 42.0778 37.0341Z" fill="#DA1D5D"/>
<path d="M42.0778 38.14L41.1991 37.7837C41.1562 37.7663 41.1025 37.788 41.1025 37.8228V38.5622C41.1025 38.5982 41.1299 38.6314 41.1743 38.6494L42.0529 39.0065C42.0969 39.0243 42.1519 39.0021 42.1519 38.9664V38.2302C42.1518 38.193 42.1237 38.1586 42.0778 38.14Z" fill="#DA1D5D"/>
<path d="M42.0778 39.2459L41.1991 38.8896C41.1562 38.8722 41.1025 38.8939 41.1025 38.9288V39.6681C41.1025 39.7041 41.1299 39.7373 41.1743 39.7554L42.0529 40.1125C42.0969 40.1303 42.1519 40.1081 42.1519 40.0724V39.3362C42.1518 39.2989 42.1237 39.2646 42.0778 39.2459Z" fill="#DA1D5D"/>
<path d="M42.0778 40.352L41.1991 39.9955C41.1562 39.9782 41.1025 40 41.1025 40.0348V40.7741C41.1025 40.8101 41.1299 40.8434 41.1743 40.8615L42.0529 41.2185C42.0969 41.2364 42.1519 41.214 42.1519 41.1784V40.4421C42.1518 40.4049 42.1237 40.3705 42.0778 40.352Z" fill="#DA1D5D"/>
<path d="M42.0778 41.4579L41.1991 41.1015C41.1562 41.0841 41.1025 41.1059 41.1025 41.1407V41.88C41.1025 41.916 41.1299 41.9493 41.1743 41.9673L42.0529 42.3244C42.0969 42.3423 42.1519 42.3199 42.1519 42.2843V41.5481C42.1518 41.5108 42.1237 41.4764 42.0778 41.4579Z" fill="#DA1D5D"/>
<path d="M42.0778 42.5638L41.1991 42.2075C41.1562 42.1901 41.1025 42.2118 41.1025 42.2467V42.986C41.1025 43.022 41.1299 43.0552 41.1743 43.0733L42.0529 43.4304C42.0969 43.4482 42.1519 43.426 42.1519 43.3903V42.6541C42.1518 42.6168 42.1237 42.5825 42.0778 42.5638Z" fill="#DA1D5D"/>
<path d="M42.0778 43.6699L41.1991 43.3134C41.1562 43.2961 41.1025 43.3179 41.1025 43.3527V44.092C41.1025 44.128 41.1299 44.1613 41.1743 44.1793L42.0529 44.5363C42.0969 44.5542 42.1519 44.5318 42.1519 44.4961V43.7599C42.1518 43.7228 42.1237 43.6884 42.0778 43.6699Z" fill="#DA1D5D"/>
<path d="M42.0778 44.7758L41.1991 44.4195C41.1562 44.4021 41.1025 44.4239 41.1025 44.4586V45.1979C41.1025 45.234 41.1299 45.2672 41.1743 45.2853L42.0529 45.6423C42.0969 45.6602 42.1519 45.6379 42.1519 45.6022V44.866C42.1518 44.8287 42.1237 44.7943 42.0778 44.7758Z" fill="#DA1D5D"/>
<path d="M42.0778 45.8817L41.1991 45.5253C41.1562 45.5079 41.1025 45.5297 41.1025 45.5645V46.3039C41.1025 46.3398 41.1299 46.3731 41.1743 46.3912L42.0529 46.7483C42.0969 46.7661 42.1519 46.7438 42.1519 46.7082V45.972C42.1518 45.9346 42.1237 45.9003 42.0778 45.8817Z" fill="#DA1D5D"/>
<path d="M42.0778 46.9877L41.1991 46.6313C41.1562 46.614 41.1025 46.6357 41.1025 46.6705V47.4099C41.1025 47.4458 41.1299 47.4791 41.1743 47.4972L42.0529 47.8542C42.0969 47.8721 42.1519 47.8498 42.1519 47.8141V47.0778C42.1518 47.0406 42.1237 47.0063 42.0778 46.9877Z" fill="#DA1D5D"/>
<g opacity="0.4">
<path d="M56.7122 6.5463V6.99248L59.3791 8.07368V7.62742L56.7122 6.5463Z" fill="#999999"/>
<path d="M56.7122 7.36144V7.80762L59.3791 8.88882V8.44256L56.7122 7.36144Z" fill="#999999"/>
<path d="M56.7122 8.17658V8.62275L59.3791 9.70396V9.2577L56.7122 8.17658Z" fill="#999999"/>
<path d="M76.839 17.5975V17.1513L60.3796 10.4785V10.9247L76.839 17.5975Z" fill="#999999"/>
<path d="M56.7122 8.99164V9.4379L59.3791 10.5191V10.0728L56.7122 8.99164Z" fill="#999999"/>
<path d="M56.7122 9.80678V10.253L59.3791 11.3342V10.888L56.7122 9.80678Z" fill="#999999"/>
<path d="M76.839 18.4127V17.9664L60.3796 11.2936V11.7399L76.839 18.4127Z" fill="#999999"/>
<path d="M56.7122 12.2522V12.6984L59.3791 13.7797V13.3333L56.7122 12.2522Z" fill="#999999"/>
<path d="M56.7122 13.0673V13.5135L59.3791 14.5948V14.1485L56.7122 13.0673Z" fill="#999999"/>
<path d="M56.7122 16.3278V16.7741L59.3791 17.8553V17.409L56.7122 16.3278Z" fill="#999999"/>
<path d="M56.7122 17.143V17.5892L59.3791 18.6704V18.2242L56.7122 17.143Z" fill="#999999"/>
<path d="M70.7634 22.8395L60.3796 18.6299V19.0761L70.7634 23.2858V22.8395Z" fill="#999999"/>
<path d="M71.3108 23.0614V23.5077L76.8391 25.7489V25.3026L71.3108 23.0614Z" fill="#999999"/>
<path d="M65.5966 19.9297L60.3796 17.8147V18.2609L65.5966 20.376V19.9297Z" fill="#999999"/>
<path d="M66.1443 20.1516V20.5978L76.8394 24.9338V24.4874L66.1443 20.1516Z" fill="#999999"/>
<path d="M75.4324 21.4717V21.918L76.8393 22.4884V22.0421L75.4324 21.4717Z" fill="#999999"/>
<path d="M67.7753 17.5525L60.3796 14.5542V15.0004L67.7753 17.9987V17.5525Z" fill="#999999"/>
<path d="M64.7449 9.80281L60.3796 8.03313V8.47931L64.7449 10.2491V9.80281Z" fill="#999999"/>
<path d="M71.9005 12.7038L65.2922 10.0247V10.471L71.9005 13.1499V12.7038Z" fill="#999999"/>
<path d="M68.0493 11.9574L63.3967 10.0713V10.5175L68.0493 12.4037V11.9574Z" fill="#999999"/>
<path d="M72.9307 13.9365L68.5964 12.1794V12.6256L72.9307 14.3827V13.9365Z" fill="#999999"/>
<path d="M73.4783 14.1583V14.6046L76.8394 15.9672V15.5211L73.4783 14.1583Z" fill="#999999"/>
<path d="M61.2395 10.012V10.4582L64.7449 11.8793V11.4331L61.2395 10.012Z" fill="#999999"/>
<path d="M75.4677 15.7801L65.2922 11.655V12.1012L75.4677 16.2264V15.7801Z" fill="#999999"/>
<path d="M69.6422 15.8638L62.9924 13.168V13.6142L69.6422 16.3101V15.8638Z" fill="#999999"/>
<path d="M75.4676 18.2257L70.1892 16.0857V16.532L75.4676 18.6718V18.2257Z" fill="#999999"/>
<path d="M74.8851 20.4347L68.323 17.7744V18.2205L74.8851 20.881V20.4347Z" fill="#999999"/>
<path d="M71.3108 19.8009V20.2471L74.8848 21.6961V21.2498L71.3108 19.8009Z" fill="#999999"/>
<path d="M61.6667 15.8911L60.3796 15.3693V15.8156L61.6667 16.3374V15.8911Z" fill="#999999"/>
<path d="M64.0779 16.8684V17.3147L70.7638 20.0253V19.579L64.0779 16.8684Z" fill="#999999"/>
<path d="M63.5303 16.6466L62.2141 16.113V16.5592L63.5303 17.0928V16.6466Z" fill="#999999"/>
<path d="M69.5266 19.8927L62.2141 16.9281V17.3743L69.5266 20.3389V19.8927Z" fill="#999999"/>
</g>
<path opacity="0.2" d="M91.3799 16.8417L83.1184 13.4913C82.7153 13.3279 82.2117 13.5325 82.2117 13.8596V20.8102C82.2117 21.1486 82.4686 21.4616 82.8855 21.631L91.1459 24.9877C91.5593 25.1556 92.0762 24.946 92.0762 24.6104L92.0763 17.6889C92.0763 17.3393 91.8109 17.0164 91.3799 16.8417Z" fill="#808080"/>
<path opacity="0.2" d="M102.662 3.40799L94.4009 0.057416C93.9977 -0.105913 93.4941 0.0986676 93.4941 0.425766V7.37637C93.4941 7.71478 93.751 8.02766 94.168 8.19717L102.428 11.5538C102.842 11.7217 103.359 11.5121 103.359 11.1766L103.359 4.25493C103.359 3.90549 103.093 3.58254 102.662 3.40799Z" fill="white"/>
<path opacity="0.2" d="M114.847 35.5644L106.585 32.2138C106.182 32.0505 105.678 32.255 105.678 32.5821V39.5328C105.678 39.8712 105.935 40.1842 106.352 40.3535L114.613 43.7103C115.026 43.8781 115.543 43.6686 115.543 43.333L115.543 36.4114C115.543 36.0618 115.278 35.7388 114.847 35.5644Z" fill="#808080"/>
<path opacity="0.2" d="M129.304 14.4444L121.042 11.0938C120.639 10.9305 120.135 11.135 120.135 11.4621V18.4128C120.135 18.7512 120.392 19.0641 120.809 19.2335L129.07 22.5903C129.483 22.7581 130 22.5486 130 22.213L130 15.2914C130 14.9418 129.734 14.6188 129.304 14.4444Z" fill="#808080"/>
<path d="M110.027 38.1101L99.1953 33.717C98.8642 33.5829 98.484 33.5886 98.1112 33.7474L98.111 33.7471L95.7327 34.7123L96.8384 35.7661L97.2505 36.0981V43.6405C97.2505 44.0895 97.5912 44.5046 98.1444 44.7294L106.251 48.0236L106.334 48.3404L107.988 49.9697L110.533 48.9184C110.537 48.9167 110.541 48.9149 110.546 48.9131L110.563 48.9063V48.9053C110.79 48.8057 110.951 48.6306 110.951 48.4155L110.951 39.2337C110.951 38.7701 110.599 38.3416 110.027 38.1101Z" fill="#D0845E"/>
<path d="M107.495 39.1561L96.5356 34.7114C96.0007 34.4947 95.3328 34.7662 95.3328 35.2V44.4205C95.3328 44.8694 95.6735 45.2845 96.2267 45.5093L107.185 49.9622C107.733 50.1849 108.419 49.9068 108.419 49.4618L108.419 40.2799C108.419 39.8161 108.066 39.3877 107.495 39.1561Z" fill="#BD7044"/>
<path d="M122.421 19.7699L111.59 15.3767C111.258 15.2426 110.878 15.2483 110.505 15.407L110.505 15.4068L108.127 16.372L109.233 17.4259L109.645 17.7578V25.3002C109.645 25.7492 109.985 26.1642 110.538 26.3891L118.645 29.6833L118.728 30.0002L120.382 31.6294L122.927 30.5781C122.931 30.5764 122.935 30.5747 122.94 30.5729L122.957 30.566V30.5651C123.184 30.4655 123.344 30.2902 123.344 30.0752L123.345 20.8934C123.345 20.4298 122.993 20.0013 122.421 19.7699Z" fill="#DC4073"/>
<path d="M119.889 20.816L108.93 16.3712C108.395 16.1544 107.727 16.426 107.727 16.8598V26.0803C107.727 26.5292 108.068 26.9443 108.621 27.1691L119.579 31.6219C120.127 31.8446 120.813 31.5666 120.813 31.1215L120.813 21.9396C120.813 21.4759 120.461 21.0475 119.889 20.816Z" fill="#DA2454"/>
<path d="M120.398 31.6229L120.382 31.6295L120.381 31.6281C120.387 31.626 120.393 31.6251 120.398 31.6229Z" fill="#BECCDE"/>
<path d="M120.813 31.1215L120.813 21.9395C120.813 21.7848 120.761 21.6379 120.687 21.4971L123.229 20.468C123.297 20.6038 123.345 20.7451 123.345 20.8935L123.345 30.0752C123.345 30.2903 123.184 30.4656 122.957 30.565V30.566L122.94 30.5729C122.935 30.5747 122.931 30.5764 122.927 30.5781L120.404 31.6205C120.642 31.5229 120.813 31.343 120.813 31.1215Z" fill="#DC4073"/>
<path d="M86.2016 19.9029L75.3699 15.5097C75.0387 15.3755 74.6586 15.3812 74.2857 15.5401L74.2854 15.5398L71.907 16.505L73.0128 17.5589L73.4249 17.8909V25.4333C73.4249 25.8823 73.7656 26.2973 74.3189 26.5222L82.4256 29.8165L82.5087 30.1333L84.1629 31.7626L86.7071 30.7113C86.7115 30.7097 86.7159 30.7079 86.72 30.706L86.7372 30.6991V30.6982C86.9642 30.5987 87.1251 30.4234 87.1251 30.2084L87.1252 21.0266C87.1253 20.5629 86.7732 20.1343 86.2016 19.9029Z" fill="#DC4073"/>
<path d="M83.6698 20.9489L72.7105 16.5042C72.1757 16.2875 71.5076 16.559 71.5076 16.9928V26.2132C71.5076 26.6621 71.8483 27.0772 72.4015 27.302L83.3593 31.7548C83.9076 31.9775 84.5933 31.6995 84.5933 31.2544L84.5935 22.0726C84.5937 21.6088 84.2414 21.1805 83.6698 20.9489Z" fill="#DA2454"/>
<path d="M84.179 31.756L84.1633 31.7625L84.1619 31.7611C84.1674 31.759 84.1737 31.7582 84.179 31.756Z" fill="#BECCDE"/>
<path d="M84.5933 31.2544L84.5935 22.0724C84.5935 21.9177 84.5416 21.7709 84.4682 21.63L87.0103 20.601C87.078 20.7367 87.1255 20.8781 87.1255 21.0265L87.1254 30.2082C87.1254 30.4233 86.9647 30.5985 86.7374 30.6979V30.699L86.7204 30.7059C86.7162 30.7076 86.7118 30.7094 86.7074 30.7112L84.1848 31.7535C84.4231 31.656 84.5933 31.4759 84.5933 31.2544Z" fill="#DC4073"/>
<path d="M81.5078 22.7585C80.843 21.9491 79.9706 21.3253 79.0974 20.9709C78.2242 20.6166 77.3501 20.5316 76.6817 20.8001C75.4943 21.2756 75.3591 22.7056 76.2743 24.1519L73.2971 25.3444L74.1642 26.4L77.1413 25.2075C77.7218 25.7686 78.4002 26.207 79.0791 26.4825C79.9508 26.8363 80.8235 26.9218 81.4921 26.6549C82.8287 26.1194 82.8359 24.3752 81.5078 22.7585ZM80.625 25.5992C80.1975 25.7705 79.6383 25.7159 79.0798 25.4892C78.5213 25.2626 77.9634 24.8639 77.5387 24.3468C76.6894 23.3128 76.6938 22.1967 77.5488 21.8556C77.9762 21.6845 78.5355 21.739 79.094 21.9657C79.6525 22.1924 80.2103 22.591 80.635 23.108C81.4845 24.1407 81.4799 25.2567 80.625 25.5992Z" fill="white"/>
<path d="M111.316 20.2324C111.195 20.3192 111.137 20.4877 111.136 20.7357L111.132 21.8377L111.132 21.8658C111.131 22.0755 111.036 22.1878 110.845 22.2027C110.655 22.2177 110.382 22.1532 110.031 22.0107L110.028 22.7777C110.379 22.9202 110.652 23.0767 110.841 23.2484C111.031 23.42 111.125 23.6197 111.124 23.8472L111.12 24.9364C111.119 25.1842 111.175 25.3992 111.295 25.5861C111.411 25.7716 111.597 25.9472 111.854 26.1151C112.11 26.283 112.464 26.4576 112.914 26.64L112.917 25.9139C112.625 25.7882 112.429 25.665 112.325 25.5434C112.221 25.4192 112.171 25.2759 112.172 25.1098L112.176 24.0666L112.176 24.0257C112.178 23.6091 111.853 23.2313 111.194 22.8848L111.195 22.8439C111.844 23.0306 112.171 22.9021 112.182 22.4612L112.186 21.418C112.187 21.2493 112.241 21.1484 112.346 21.1115C112.451 21.0746 112.647 21.1134 112.935 21.2226L112.938 20.4965C112.495 20.3166 112.144 20.2047 111.884 20.1633C111.621 20.1206 111.434 20.1444 111.316 20.2324Z" fill="white"/>
<path d="M117.442 24.8797C117.259 24.7131 117.165 24.5238 117.166 24.3141L117.166 24.286L117.17 23.1841C117.172 22.8287 117.04 22.5242 116.768 22.268C116.5 22.013 116.035 21.7526 115.37 21.4829L115.367 22.209C115.655 22.3335 115.854 22.4553 115.958 22.577C116.062 22.6961 116.112 22.8419 116.112 23.0107L116.108 24.0538C116.119 24.5038 116.45 24.8994 117.099 25.2394L117.098 25.2803C116.775 25.1902 116.528 25.1719 116.36 25.229C116.188 25.2875 116.102 25.419 116.101 25.6286L116.101 25.6593L116.097 26.7025C116.096 26.8711 116.045 26.9759 115.94 27.0127C115.836 27.0471 115.636 27.0096 115.348 26.9004L115.345 27.6265C116.007 27.8949 116.472 28.0097 116.745 27.9744C117.015 27.9378 117.152 27.7425 117.153 27.3847L117.157 26.2955C117.158 26.068 117.254 25.9455 117.438 25.9254C117.625 25.9066 117.894 25.9698 118.252 26.1149L118.255 25.3479C117.898 25.2028 117.629 25.0476 117.442 24.8797Z" fill="white"/>
<path d="M96.7229 40.6532L100.118 43.2442L100.12 42.584L97.7807 40.8537L100.127 40.9283L100.13 40.264L96.7245 40.2562L96.7229 40.6532Z" fill="white"/>
<path d="M100.467 43.9483L101.414 44.3327L103.3 41.0456L102.35 40.6602L100.467 43.9483Z" fill="white"/>
<path d="M103.631 41.6849L103.629 42.3492L105.971 44.1772L103.622 44.0049L103.619 44.6651L107.026 44.8343L107.028 44.4374L103.631 41.6849Z" fill="white"/>
<g opacity="0.4">
<path d="M73.1482 31.768V32.2142L75.8152 33.2954V32.8492L73.1482 31.768Z" fill="#999999"/>
<path d="M73.1482 32.5831V33.0294L75.8152 34.1106V33.6643L73.1482 32.5831Z" fill="#999999"/>
<path d="M73.1482 33.3983V33.8445L75.8152 34.9256V34.4795L73.1482 33.3983Z" fill="#999999"/>
<path d="M93.2751 42.8193V42.373L76.8157 35.7002V36.1465L93.2751 42.8193Z" fill="#999999"/>
<path d="M73.1482 34.2134V34.6596L75.8152 35.7408V35.2945L73.1482 34.2134Z" fill="#999999"/>
<path d="M73.1482 35.0285V35.4747L75.8152 36.5559V36.1097L73.1482 35.0285Z" fill="#999999"/>
<path d="M93.2751 43.6344V43.1882L76.8157 36.5154V36.9615L93.2751 43.6344Z" fill="#999999"/>
<path d="M73.1482 37.4739V37.9201L75.8152 39.0013V38.5551L73.1482 37.4739Z" fill="#999999"/>
<path d="M73.1482 38.289V38.7353L75.8152 39.8165V39.3702L73.1482 38.289Z" fill="#999999"/>
<path d="M73.1482 41.5496V41.9958L75.8152 43.077V42.6308L73.1482 41.5496Z" fill="#999999"/>
<path d="M73.1482 42.3647V42.811L75.8152 43.8922V43.4459L73.1482 42.3647Z" fill="#999999"/>
<path d="M87.1995 48.0613L76.8157 43.8515V44.2978L87.1995 48.5075V48.0613Z" fill="#999999"/>
<path d="M87.7468 48.2831V48.7294L93.2751 50.9706V50.5243L87.7468 48.2831Z" fill="#999999"/>
<path d="M82.0328 45.1515L76.8157 43.0364V43.4827L82.0328 45.5976V45.1515Z" fill="#999999"/>
<path d="M82.5798 45.3733V45.8195L93.2749 50.1555V49.7092L82.5798 45.3733Z" fill="#999999"/>
<path d="M91.8684 46.6934V47.1397L93.2752 47.71V47.2638L91.8684 46.6934Z" fill="#999999"/>
<path d="M84.2114 42.7742L76.8157 39.7759V40.2221L84.2114 43.2204V42.7742Z" fill="#999999"/>
<path d="M81.1811 35.0246L76.8157 33.2548V33.7011L81.1811 35.4708V35.0246Z" fill="#999999"/>
<path d="M88.3365 37.9254L81.7283 35.2465V35.6926L88.3365 38.3717V37.9254Z" fill="#999999"/>
<path d="M84.4853 37.1792L79.8328 35.293V35.7393L84.4853 37.6255V37.1792Z" fill="#999999"/>
<path d="M89.3666 39.1582L85.0325 37.4011V37.8473L89.3666 39.6044V39.1582Z" fill="#999999"/>
<path d="M89.9138 39.3801V39.8264L93.2749 41.189V40.7427L89.9138 39.3801Z" fill="#999999"/>
<path d="M77.6755 35.2337V35.6799L81.181 37.101V36.6548L77.6755 35.2337Z" fill="#999999"/>
<path d="M91.9037 41.0019L81.7283 36.8767V37.3229L91.9037 41.4481V41.0019Z" fill="#999999"/>
<path d="M86.0783 41.0856L79.4285 38.3896V38.8359L86.0783 41.5317V41.0856Z" fill="#999999"/>
<path d="M91.9035 43.4473L86.6252 41.3074V41.7536L91.9035 43.8935V43.4473Z" fill="#999999"/>
<path d="M91.3206 45.6565L84.7585 42.996V43.4423L91.3206 46.1026V45.6565Z" fill="#999999"/>
<path d="M87.7468 45.0226V45.4688L91.3208 46.9178V46.4715L87.7468 45.0226Z" fill="#999999"/>
<path d="M78.1027 41.1128L76.8157 40.591V41.0372L78.1027 41.559V41.1128Z" fill="#999999"/>
<path d="M80.5134 42.0902V42.5365L87.1993 45.247V44.8007L80.5134 42.0902Z" fill="#999999"/>
<path d="M79.9664 41.8683L78.6501 41.3347V41.7809L79.9664 42.3145V41.8683Z" fill="#999999"/>
<path d="M85.9627 45.1145L78.6501 42.1498V42.5961L85.9627 45.5606V45.1145Z" fill="#999999"/>
</g>
<g opacity="0.4">
<path d="M97.6638 3.83244V4.2787L100.331 5.3599V4.91364L97.6638 3.83244Z" fill="#999999"/>
<path d="M97.6638 4.64758V5.09384L100.331 6.17504V5.72878L97.6638 4.64758Z" fill="#999999"/>
<path d="M97.6638 5.46272V5.90898L100.331 6.99018V6.54392L97.6638 5.46272Z" fill="#999999"/>
<path d="M117.791 14.8837V14.4375L101.331 7.76469V8.21095L117.791 14.8837Z" fill="#999999"/>
<path d="M97.6638 6.27785V6.72412L100.331 7.80532V7.35906L97.6638 6.27785Z" fill="#999999"/>
<path d="M97.6638 7.093V7.53926L100.331 8.62046V8.1742L97.6638 7.093Z" fill="#999999"/>
<path d="M117.791 15.6988V15.2526L101.331 8.57983V9.02609L117.791 15.6988Z" fill="#999999"/>
<path d="M97.6638 9.53842V9.98459L100.331 11.0658V10.6196L97.6638 9.53842Z" fill="#999999"/>
<path d="M97.6638 10.3536V10.7997L100.331 11.8809V11.4347L97.6638 10.3536Z" fill="#999999"/>
<path d="M97.6638 13.614V14.0603L100.331 15.1415V14.6952L97.6638 13.614Z" fill="#999999"/>
<path d="M97.6638 14.4292V14.8754L100.331 15.9566V15.5104L97.6638 14.4292Z" fill="#999999"/>
<path d="M111.715 20.1257L101.331 15.916V16.3623L111.715 20.5719V20.1257Z" fill="#999999"/>
<path d="M112.262 20.3476V20.7939L117.79 23.0351V22.5888L112.262 20.3476Z" fill="#999999"/>
<path d="M106.548 17.2159L101.331 15.1009V15.5471L106.548 17.6621V17.2159Z" fill="#999999"/>
<path d="M107.095 17.4378V17.884L117.791 22.2199V21.7737L107.095 17.4378Z" fill="#999999"/>
<path d="M116.384 18.758V19.2041L117.79 19.7745V19.3283L116.384 18.758Z" fill="#999999"/>
<path d="M108.727 14.8387L101.331 11.8404V12.2866L108.727 15.2849V14.8387Z" fill="#999999"/>
<path d="M105.696 7.08902L101.331 5.31926V5.76552L105.696 7.53528V7.08902Z" fill="#999999"/>
<path d="M112.852 9.98999L106.244 7.31092V7.75718L112.852 10.4362V9.98999Z" fill="#999999"/>
<path d="M109 9.24365L104.348 7.35747V7.80373L109 9.68991V9.24365Z" fill="#999999"/>
<path d="M113.882 11.2227L109.548 9.46555V9.91181L113.882 11.6689V11.2227Z" fill="#999999"/>
<path d="M114.429 11.4446V11.8907L117.791 13.2535V12.8072L114.429 11.4446Z" fill="#999999"/>
<path d="M102.191 7.29819V7.74437L105.696 9.16548V8.7193L102.191 7.29819Z" fill="#999999"/>
<path d="M116.419 13.0664L106.244 8.9412V9.38737L116.419 13.5126V13.0664Z" fill="#999999"/>
<path d="M110.593 13.1499L103.944 10.4541V10.9003L110.593 13.5963V13.1499Z" fill="#999999"/>
<path d="M116.419 15.5118L111.141 13.3719V13.8181L116.419 15.9581V15.5118Z" fill="#999999"/>
<path d="M115.836 17.7209L109.274 15.0606V15.5068L115.836 18.1671V17.7209Z" fill="#999999"/>
<path d="M112.262 17.0871V17.5333L115.836 18.9822V18.5361L112.262 17.0871Z" fill="#999999"/>
<path d="M102.618 13.1773L101.331 12.6554V13.1017L102.618 13.6235V13.1773Z" fill="#999999"/>
<path d="M105.029 14.1546V14.6009L111.715 17.3114V16.8652L105.029 14.1546Z" fill="#999999"/>
<path d="M104.481 13.9328L103.165 13.3992V13.8454L104.481 14.379V13.9328Z" fill="#999999"/>
<path d="M110.478 17.1788L103.165 14.2144V14.6605L110.478 17.6251V17.1788Z" fill="#999999"/>
</g>
<path d="M60.7069 65.2867C60.7069 65.2867 59.2038 64.8147 57.4358 65.6378C55.6679 66.4608 54.4769 67.6119 55.1957 68.0358C55.9146 68.4597 57.312 68.914 58.2186 68.6855C59.1252 68.4569 63.6088 66.6031 60.7069 65.2867Z" fill="#DA1D5D"/>
<g opacity="0.19">
<path d="M78.8871 4.95992C78.9623 4.99049 79.0376 5.05868 79.0542 5.14074C79.3944 6.86784 80.4455 8.52833 82.3106 9.79344C82.5647 9.96534 82.8357 10.1311 83.1147 10.2859C83.1956 10.3304 83.2541 10.4112 83.2538 10.4773C83.2536 10.5434 83.1948 10.5767 83.1145 10.5558C82.4769 10.3918 81.8978 10.3262 81.3937 10.3605C79.8139 10.4686 79.2343 11.5166 79.0258 12.3765C79.0111 12.4361 78.9403 12.4554 78.8584 12.4222C78.8305 12.4115 78.7131 12.3506 78.6911 12.2407C78.2965 10.2494 76.9344 8.39397 74.6409 7.11923C74.4564 7.01712 74.4573 6.80265 74.6412 6.84929C76.9599 7.44227 78.3084 6.6841 78.7194 5.00488C78.7364 4.93642 78.8118 4.92936 78.8871 4.95992Z" fill="#FC1A55"/>
</g>
<g opacity="0.19">
<path d="M98.0306 27.2108C98.0902 27.235 98.1497 27.2889 98.1622 27.3538C98.4324 28.7214 99.2645 30.036 100.741 31.0376C100.943 31.174 101.157 31.305 101.378 31.4273C101.442 31.4627 101.488 31.5263 101.488 31.5789C101.489 31.6317 101.442 31.6575 101.378 31.6411C100.873 31.5118 100.415 31.4594 100.015 31.4868C98.765 31.5729 98.3051 32.402 98.14 33.0828C98.1285 33.1301 98.073 33.1453 98.008 33.1189C97.9856 33.1102 97.8924 33.0622 97.8752 32.9754C97.5632 31.3987 96.4849 29.9297 94.6687 28.9206C94.5227 28.8394 94.5234 28.6696 94.6695 28.7068C96.5049 29.1764 97.5723 28.576 97.8983 27.2465C97.9114 27.1922 97.9711 27.1866 98.0306 27.2108Z" fill="#FC1A55"/>
</g>
<g opacity="0.19">
<path d="M109.398 54.7108C109.451 54.7321 109.503 54.7795 109.514 54.8368C109.751 56.0371 110.482 57.1918 111.778 58.0709C111.955 58.1908 112.144 58.3062 112.338 58.4135C112.394 58.4447 112.434 58.5009 112.434 58.5469C112.434 58.5929 112.393 58.6158 112.338 58.6017C111.894 58.4874 111.492 58.4423 111.141 58.4659C110.042 58.5409 109.639 59.2691 109.495 59.8673C109.484 59.9084 109.435 59.9222 109.378 59.8992C109.359 59.8918 109.277 59.8492 109.262 59.7729C108.988 58.3887 108.041 57.0982 106.446 56.212C106.318 56.1415 106.318 55.9915 106.446 56.0248C108.059 56.4369 108.996 55.9099 109.281 54.7424C109.293 54.6946 109.346 54.6896 109.398 54.7108Z" fill="#FC1A55"/>
</g>
</svg>
