<svg width="266" height="207" viewBox="0 0 266 207" fill="none" xmlns="http://www.w3.org/2000/svg">
<rect x="0.657227" y="0.0983887" width="265" height="206" rx="16" fill="#E9E9FB"/>
<path opacity="0.5" d="M101.456 146.697C101.498 146.718 101.542 146.739 101.586 146.76L178.116 181.389C179.467 182.001 181.667 181.997 183.028 181.381L214.054 166.652L215.632 165.938C215.684 165.915 215.732 165.891 215.781 165.866C216.383 165.558 216.675 165.17 216.656 164.785C216.638 164.397 216.302 164.011 215.65 163.716L139.12 129.086C137.768 128.475 135.569 128.479 134.208 129.094L101.604 144.537C100.865 144.871 100.525 145.318 100.585 145.754C100.632 146.094 100.922 146.428 101.456 146.697Z" fill="#9FCBFF"/>
<path d="M185.023 73.7355L71.4148 22.328C70.8167 22.0575 70.2763 22.0343 69.8896 22.2149L64.1797 24.856C64.5656 24.6844 65.0988 24.7113 65.6872 24.9776L69.2812 26.6037L179.295 76.3854C180.474 76.9187 181.429 78.2088 181.429 79.2674V176.239V178.014V181.338C181.429 181.837 181.217 182.195 180.87 182.378L186.453 179.793C186.885 179.638 187.156 179.253 187.156 178.689V76.6182C187.156 75.559 186.201 74.2689 185.023 73.7355Z" fill="#D6E6ED"/>
<path d="M181.424 181.339V178.014V176.239V79.2679C181.424 78.2088 180.469 76.9187 179.29 76.3853L69.2756 26.6038L65.6825 24.9778C65.094 24.7114 64.5608 24.6844 64.1749 24.8561C63.7882 25.0281 63.5488 25.3994 63.5488 25.9292V128C63.5488 129.059 64.504 130.349 65.6825 130.882L179.29 182.29C179.914 182.572 180.475 182.585 180.865 182.379C181.212 182.195 181.424 181.837 181.424 181.339Z" fill="#E7F3F7"/>
<path d="M181.424 79.3867C181.424 78.3281 180.469 77.0374 179.29 76.5046L69.2756 26.7228L65.6825 25.0967C65.094 24.8304 64.5608 24.8035 64.1749 24.9751C63.7882 25.1471 63.5488 25.5184 63.5488 26.0482V35.6247L181.424 88.9632V79.3867Z" fill="#2B50A0"/>
<path d="M71.2749 34.1915C71.7544 33.9715 71.7488 33.2657 71.262 32.615C70.7761 31.9644 69.9931 31.6153 69.5143 31.8353C69.0347 32.0553 69.0403 32.7611 69.5263 33.4117C70.0131 34.0624 70.7953 34.4115 71.2749 34.1915Z" fill="white"/>
<path d="M76.8636 37.039C77.3432 36.819 77.3376 36.1132 76.8508 35.4626C76.3648 34.8119 75.5826 34.4628 75.1031 34.6828C74.6235 34.9028 74.6291 35.6086 75.1159 36.2593C75.6018 36.9099 76.3849 37.259 76.8636 37.039Z" fill="white"/>
<path d="M82.2093 39.5849C82.6889 39.3653 82.6832 38.6592 82.1973 38.0086C81.7105 37.358 80.9283 37.0088 80.4488 37.2288C79.9692 37.4489 79.9748 38.1547 80.4616 38.8056C80.9476 39.4557 81.7305 39.8052 82.2093 39.5849Z" fill="white"/>
<path d="M171.902 76.11C172.001 76.1545 172.099 76.1991 172.198 76.2436C172.216 76.2556 172.234 76.2687 172.253 76.2782C172.76 76.5398 173.226 76.8937 173.643 77.343C174.317 78.0721 174.719 78.8345 174.836 79.6214C174.92 80.188 174.824 80.6479 174.552 81.0006C174.496 81.0733 174.43 81.1386 174.368 81.2095C174.515 81.3043 174.623 81.4316 174.723 81.5684C175.2 82.2147 175.677 82.861 176.157 83.5055C176.288 83.6805 176.402 83.8531 176.439 84.0363C176.439 84.0827 176.439 84.1292 176.439 84.1756C176.434 84.1875 176.429 84.1988 176.425 84.2114C176.366 84.3915 176.229 84.4699 175.997 84.4222C175.762 84.3745 175.563 84.2189 175.394 83.9911C174.926 83.3586 174.458 82.7261 173.99 82.0936C173.854 81.9092 173.698 81.7284 173.661 81.5402C173.454 81.5364 173.258 81.5483 173.05 81.5276C172.472 81.4693 171.875 81.2327 171.283 80.8004C170.094 79.9313 169.409 78.886 169.246 77.7057C169.164 77.1158 169.302 76.6515 169.625 76.3189C170.094 75.8352 170.784 75.7473 171.68 76.0341C171.753 76.0579 171.828 76.0849 171.902 76.11ZM174.153 79.6634C174.152 78.6187 173.207 77.3442 172.046 76.819C170.882 76.2932 169.941 76.7143 169.942 77.759C169.943 78.8044 170.889 80.0813 172.048 80.604C173.209 81.1273 174.156 80.7044 174.153 79.6634Z" fill="white"/>
<path opacity="0.34" d="M146.299 120.753C146.841 118.735 147.005 116.451 147.098 114.17C147.222 111.106 147.134 107.939 147.142 104.818L124.361 86.0304L106.855 84.6248L101.58 84.2013C101.589 87.3293 101.501 90.4165 101.625 93.5934C101.717 95.9577 101.881 98.3905 102.423 100.899C105.196 113.741 112.584 125.452 124.361 136.009C130.091 136.059 134.782 134.894 138.408 132.495C142.235 129.964 144.876 126.059 146.299 120.753Z" fill="#818384"/>
<path d="M136.563 124.661C137.105 122.642 137.269 120.358 137.362 118.077C137.485 115.013 137.398 111.847 137.406 108.726L114.625 89.9376L97.1182 88.5321L91.843 88.1085C91.8518 91.2371 91.7645 94.3243 91.8886 97.5006C91.9806 99.865 92.1448 102.298 92.6868 104.806C95.4601 117.648 102.847 129.36 114.625 139.917C120.355 139.967 125.046 138.801 128.672 136.403C132.498 133.871 135.139 129.966 136.563 124.661Z" fill="white"/>
<path d="M96.8449 94.0288C96.8521 96.4666 96.784 98.8723 96.88 101.348C96.9521 103.19 97.0802 105.086 97.5021 107.041C99.663 117.047 105.42 126.174 114.598 134.4V95.4544L96.8449 94.0288Z" fill="#4869AA"/>
<path d="M131.695 122.513C132.117 120.94 132.245 119.159 132.316 117.382C132.413 114.994 132.345 112.527 132.351 110.095L114.599 95.4545V134.401C123.777 134.48 129.533 130.564 131.695 122.513Z" fill="#5D7EC9"/>
<path d="M142.688 106.309L119.907 87.5212L97.352 85.7103L91.8398 88.1086L114.622 89.9377L137.403 108.726C137.394 111.846 137.482 115.013 137.358 118.077C137.266 120.358 137.101 122.642 136.56 124.66C135.136 129.966 132.495 133.871 128.669 136.402C135.418 134.414 139.84 129.718 141.845 122.245C142.387 120.226 142.551 117.941 142.643 115.661C142.767 112.597 142.679 109.43 142.688 106.309Z" fill="#163891"/>
<path d="M106.952 117.466L106.91 106.019C106.91 106.034 106.912 106.049 106.914 106.064C106.914 106.069 106.916 106.074 106.917 106.079C106.919 106.088 106.921 106.098 106.924 106.108C106.929 106.129 106.937 106.15 106.948 106.171C106.95 106.176 106.953 106.18 106.955 106.184C106.965 106.204 106.977 106.223 106.991 106.241C106.993 106.243 106.993 106.245 106.996 106.248C107.011 106.268 107.029 106.287 107.048 106.306C107.052 106.31 107.057 106.315 107.061 106.319C107.082 106.338 107.104 106.356 107.128 106.374C110.926 108.789 115.525 110.884 120.831 112.615C120.871 112.629 120.913 112.64 120.955 112.651C120.967 112.654 120.979 112.657 120.992 112.66C121.026 112.667 121.06 112.674 121.095 112.681C121.106 112.682 121.117 112.684 121.127 112.686C121.173 112.694 121.219 112.699 121.265 112.704C121.275 112.705 121.284 112.706 121.294 112.707C121.332 112.71 121.372 112.713 121.411 112.715C121.825 112.735 122.27 112.67 122.569 112.548L122.611 123.995C122.316 124.115 121.882 124.18 121.473 124.163C121.466 124.162 121.459 124.162 121.452 124.162C121.412 124.16 121.374 124.157 121.336 124.153C121.326 124.153 121.316 124.152 121.307 124.151C121.26 124.147 121.214 124.14 121.169 124.133C121.158 124.131 121.147 124.129 121.136 124.127C121.101 124.121 121.067 124.114 121.034 124.106C121.021 124.104 121.009 124.101 120.997 124.098C120.954 124.087 120.913 124.076 120.873 124.062C115.566 122.331 110.967 120.235 107.17 117.821C107.145 117.803 107.123 117.785 107.103 117.766C107.098 117.761 107.093 117.757 107.089 117.753C107.07 117.734 107.052 117.714 107.037 117.694C107.035 117.692 107.033 117.69 107.032 117.687C107.018 117.669 107.007 117.65 106.997 117.631C106.994 117.626 106.992 117.622 106.989 117.618C106.979 117.597 106.971 117.576 106.965 117.554C106.965 117.554 106.964 117.552 106.964 117.551C106.961 117.542 106.96 117.534 106.958 117.525C106.957 117.521 106.956 117.516 106.955 117.511C106.953 117.496 106.952 117.481 106.952 117.466Z" fill="#2B50A0"/>
<path d="M123.025 112.34C123.34 112.197 123.655 112.055 123.97 111.913C124.082 111.862 124.193 111.811 124.305 111.761C124.498 111.665 124.611 111.537 124.626 111.407H124.627V123.081L124.206 123.271H124.205C123.673 123.512 123.14 123.753 122.608 123.994L122.566 112.548C122.719 112.479 122.872 112.409 123.025 112.34Z" fill="#2B50A0"/>
<path d="M107.283 105.585C107.863 105.323 108.442 105.061 109.05 104.786C109.478 104.592 110.202 104.624 110.623 104.798C115.186 106.877 119.75 108.955 124.314 111.034C124.547 111.133 124.644 111.271 124.628 111.407C124.614 111.537 124.501 111.665 124.309 111.761C124.197 111.811 124.085 111.862 123.973 111.913C123.658 112.055 123.343 112.197 123.029 112.34C122.875 112.409 122.722 112.479 122.569 112.548C122.118 112.731 121.342 112.787 120.831 112.615C115.525 110.884 110.926 108.789 107.128 106.374C106.812 106.145 106.82 105.795 107.283 105.585Z" fill="#2B50A0"/>
<path d="M110.1 103.003V106.756C110.1 106.885 110.207 107.014 110.423 107.113C110.855 107.31 111.554 107.31 111.985 107.113C112.202 107.014 112.309 106.884 112.309 106.754V103.003C112.309 102.355 112.543 101.877 112.952 101.692C113.361 101.507 114.007 101.587 114.723 101.911L115.94 102.462C117.847 103.324 119.459 105.512 119.459 107.238V110.991C119.459 111.12 119.567 111.249 119.782 111.348C120.059 111.474 120.446 111.52 120.802 111.484C121.001 111.464 121.19 111.418 121.344 111.348C121.403 111.321 121.453 111.293 121.495 111.262C121.611 111.179 121.668 111.084 121.668 110.99L121.668 107.238C121.668 106.108 121.19 104.838 120.324 103.662C119.458 102.486 118.293 101.527 117.045 100.962L115.827 100.411C115.139 100.1 114.454 99.919 113.79 99.8739C113.086 99.8262 112.414 99.9366 111.847 100.193C111.281 100.449 110.824 100.85 110.525 101.352C110.242 101.825 110.1 102.38 110.1 103.003Z" fill="#2B50A0"/>
<path d="M114.286 116.822C114.286 116.47 113.968 116.041 113.575 115.863C113.183 115.686 112.865 115.828 112.865 116.18C112.865 116.366 112.954 116.575 113.097 116.755C113.093 116.777 113.089 116.8 113.089 116.824V118.283C113.089 118.523 113.306 118.815 113.573 118.936C113.84 119.057 114.057 118.961 114.057 118.721V117.262C114.057 117.238 114.054 117.215 114.05 117.19C114.194 117.139 114.286 117.011 114.286 116.822Z" fill="#2B50A0"/>
<path d="M104.973 118.344L104.933 106.897C104.933 106.912 104.933 106.927 104.936 106.942C104.937 106.947 104.938 106.952 104.939 106.957C104.941 106.967 104.943 106.976 104.945 106.986C104.951 107.007 104.96 107.028 104.97 107.049C104.972 107.053 104.975 107.058 104.977 107.063C104.988 107.082 104.999 107.101 105.013 107.119C105.014 107.121 105.016 107.124 105.017 107.126C105.033 107.146 105.05 107.165 105.07 107.184C105.074 107.188 105.079 107.193 105.084 107.197C105.104 107.216 105.126 107.235 105.15 107.252C108.948 109.667 113.546 111.761 118.854 113.494C118.893 113.507 118.934 113.518 118.977 113.529C118.989 113.532 119.002 113.535 119.014 113.538C119.047 113.545 119.082 113.552 119.117 113.559C119.128 113.56 119.139 113.563 119.15 113.565C119.195 113.572 119.24 113.578 119.288 113.582C119.297 113.584 119.307 113.584 119.316 113.585C119.355 113.589 119.393 113.591 119.432 113.593C119.847 113.614 120.292 113.548 120.592 113.426L120.633 124.873C120.338 124.993 119.904 125.058 119.496 125.041C119.488 125.041 119.481 125.04 119.474 125.04C119.435 125.038 119.396 125.035 119.358 125.032C119.348 125.031 119.338 125.03 119.328 125.029C119.282 125.024 119.236 125.018 119.191 125.011C119.18 125.009 119.169 125.008 119.159 125.006C119.123 124.999 119.089 124.992 119.055 124.985C119.043 124.982 119.031 124.979 119.019 124.976C118.976 124.965 118.934 124.954 118.895 124.94C113.588 123.209 108.989 121.114 105.191 118.699C105.167 118.681 105.146 118.663 105.125 118.644C105.12 118.64 105.116 118.635 105.111 118.631C105.092 118.612 105.074 118.593 105.059 118.573C105.058 118.57 105.056 118.568 105.054 118.566C105.041 118.548 105.029 118.529 105.019 118.509C105.016 118.505 105.013 118.501 105.011 118.496C105.001 118.475 104.993 118.454 104.987 118.433C104.986 118.432 104.985 118.43 104.985 118.43C104.983 118.421 104.982 118.412 104.981 118.404C104.98 118.399 104.978 118.394 104.977 118.389C104.975 118.374 104.973 118.359 104.973 118.344Z" fill="white"/>
<path d="M121.05 113.218C121.365 113.075 121.68 112.933 121.994 112.79C122.106 112.74 122.218 112.689 122.331 112.639C122.523 112.544 122.636 112.415 122.65 112.285H122.652V123.959L122.23 124.15C121.698 124.391 121.165 124.632 120.632 124.873L120.591 113.425C120.744 113.356 120.897 113.287 121.05 113.218Z" fill="#DCEFFF"/>
<path d="M105.305 106.464C105.886 106.201 106.465 105.938 107.072 105.664C107.501 105.47 108.224 105.502 108.646 105.677C113.209 107.755 117.772 109.834 122.337 111.913C122.57 112.011 122.666 112.149 122.651 112.286C122.637 112.415 122.523 112.544 122.331 112.639C122.219 112.689 122.107 112.74 121.995 112.79C121.68 112.933 121.366 113.075 121.051 113.218C120.898 113.287 120.745 113.356 120.592 113.425C120.141 113.61 119.364 113.666 118.854 113.494C113.547 111.762 108.948 109.667 105.15 107.252C104.835 107.023 104.843 106.673 105.305 106.464Z" fill="#D0E8F7"/>
<path d="M108.122 103.881V107.634C108.122 107.763 108.23 107.892 108.446 107.991C108.878 108.189 109.577 108.189 110.008 107.991C110.224 107.892 110.333 107.762 110.332 107.633V103.881C110.332 103.233 110.566 102.755 110.975 102.57C111.384 102.385 112.029 102.465 112.746 102.789L113.963 103.339C115.87 104.203 117.481 106.39 117.481 108.116V111.869C117.481 111.998 117.589 112.127 117.805 112.226C118.082 112.353 118.469 112.398 118.825 112.362C119.023 112.342 119.212 112.297 119.367 112.226C119.425 112.199 119.476 112.171 119.518 112.14C119.634 112.057 119.691 111.962 119.69 111.867L119.691 108.116C119.691 106.986 119.214 105.716 118.347 104.54C117.48 103.364 116.315 102.405 115.067 101.84L113.85 101.289C113.162 100.978 112.477 100.797 111.813 100.752C111.108 100.704 110.437 100.814 109.871 101.07C109.304 101.327 108.847 101.728 108.548 102.229C108.265 102.703 108.122 103.258 108.122 103.881Z" fill="#2C4482"/>
<path d="M112.278 117.701C112.278 117.349 111.96 116.919 111.568 116.742C111.176 116.564 110.858 116.706 110.858 117.058C110.858 117.245 110.947 117.453 111.089 117.634C111.085 117.655 111.082 117.679 111.082 117.703V119.161C111.082 119.402 111.299 119.694 111.565 119.815C111.833 119.936 112.049 119.839 112.049 119.599V118.14C112.049 118.117 112.047 118.093 112.043 118.069C112.187 118.017 112.278 117.889 112.278 117.701Z" fill="#2C4482"/>
<path d="M123.805 76.7582L123.824 76.7468C123.818 76.75 123.812 76.7531 123.805 76.7563V76.7582Z" fill="#2B50A0"/>
<path d="M129.893 69.9858C129.893 64.6146 125.047 58.0675 119.068 55.3624C116.029 53.987 113.285 53.8703 111.319 54.7927L111.313 54.7895L108.484 56.0733L108.514 56.079C109.006 55.8368 109.548 55.6605 110.132 55.555C110.881 55.4195 111.7 55.4001 112.571 55.5017C112.937 55.5444 113.313 55.6084 113.696 55.695C113.704 55.6962 113.71 55.6981 113.716 55.6994C113.784 55.7151 113.852 55.7307 113.92 55.7477C113.931 55.7502 113.942 55.7533 113.953 55.7558C114.018 55.7722 114.083 55.7885 114.149 55.806C114.161 55.8092 114.173 55.8123 114.185 55.8155C114.253 55.8336 114.321 55.8531 114.39 55.8726C114.398 55.8751 114.406 55.8769 114.414 55.8795C114.569 55.9246 114.725 55.9729 114.883 56.025C114.889 56.0269 114.896 56.0288 114.901 56.0307C114.971 56.0539 115.04 56.0777 115.109 56.1016C115.131 56.1091 115.153 56.1173 115.173 56.1248C115.229 56.1442 115.283 56.1637 115.338 56.1838C115.365 56.1938 115.391 56.2039 115.418 56.2139C115.468 56.2327 115.519 56.2515 115.57 56.2716C115.598 56.2823 115.627 56.2936 115.655 56.3049C115.705 56.3243 115.755 56.3444 115.804 56.3651C115.833 56.3764 115.862 56.3877 115.89 56.3996C115.944 56.4216 115.996 56.4442 116.05 56.4674C116.075 56.4781 116.1 56.4881 116.125 56.4988C116.202 56.5327 116.281 56.5672 116.359 56.6029C122.337 59.308 127.183 65.8551 127.183 71.2263C127.183 71.3148 127.182 71.4027 127.179 71.4899C127.179 71.5093 127.178 71.5288 127.177 71.5489C127.174 71.6336 127.17 71.7183 127.164 71.8017C127.163 71.813 127.163 71.8243 127.162 71.8356C127.156 71.9115 127.15 71.9868 127.142 72.0615C127.14 72.0778 127.139 72.0948 127.137 72.1117C127.128 72.1927 127.119 72.273 127.107 72.352C127.105 72.3677 127.103 72.3828 127.1 72.3978C127.09 72.47 127.078 72.5415 127.066 72.6124C127.063 72.6237 127.062 72.6356 127.059 72.6469C127.045 72.7248 127.03 72.8013 127.013 72.8772C127.009 72.8935 127.006 72.9092 127.002 72.9255C126.985 73.0008 126.967 73.0749 126.947 73.1483C126.947 73.1502 126.946 73.1521 126.946 73.1546C126.926 73.2292 126.905 73.3033 126.882 73.3767C126.878 73.3918 126.873 73.4068 126.868 73.4219C126.846 73.4947 126.822 73.5662 126.797 73.6371C126.794 73.6421 126.793 73.6478 126.79 73.6528C126.766 73.7199 126.741 73.7858 126.715 73.8504C126.71 73.8636 126.705 73.8762 126.7 73.8887C126.673 73.9571 126.644 74.0243 126.613 74.0901C126.609 74.0996 126.605 74.1096 126.6 74.119C126.572 74.1805 126.542 74.2407 126.512 74.3004C126.508 74.3091 126.504 74.3173 126.499 74.3261C126.466 74.3901 126.432 74.4535 126.396 74.5156C126.391 74.5269 126.384 74.5375 126.378 74.5482C126.343 74.6097 126.307 74.6699 126.27 74.7289C126.268 74.7308 126.268 74.7327 126.266 74.7339C126.227 74.7948 126.188 74.8544 126.147 74.9134C126.14 74.9241 126.133 74.9341 126.125 74.9448C126.084 75.0031 126.043 75.0609 125.998 75.1173V75.118C125.789 75.3909 125.554 75.6388 125.296 75.8609C124.983 76.1288 124.637 76.3591 124.26 76.5499L126.759 75.4122L126.757 75.4116C128.695 74.5313 129.893 72.6551 129.893 69.9858Z" fill="#4869AA"/>
<path d="M125.299 75.8607C125.557 75.6386 125.792 75.3908 126.002 75.1178C126.046 75.0613 126.087 75.0036 126.129 74.9446C126.136 74.9346 126.143 74.9239 126.151 74.9132C126.191 74.8549 126.231 74.7953 126.27 74.7344C126.271 74.7325 126.271 74.7306 126.273 74.7288C126.31 74.6698 126.346 74.6095 126.381 74.5487C126.388 74.5374 126.394 74.5267 126.4 74.516C126.436 74.4539 126.469 74.3905 126.503 74.3265C126.507 74.3178 126.511 74.309 126.516 74.3008C126.545 74.2412 126.575 74.1803 126.603 74.1195C126.608 74.1094 126.613 74.1 126.617 74.09C126.647 74.0241 126.676 73.957 126.703 73.8892C126.709 73.8766 126.713 73.8635 126.719 73.8509C126.745 73.7857 126.77 73.7198 126.794 73.6533C126.796 73.6476 126.798 73.6426 126.8 73.6369C126.825 73.5667 126.849 73.4945 126.871 73.4224C126.876 73.4073 126.881 73.3922 126.886 73.3765C126.908 73.3038 126.93 73.2297 126.95 73.1544C126.95 73.1525 126.95 73.1506 126.951 73.1481C126.97 73.0753 126.988 73.0007 127.005 72.926C127.009 72.9097 127.013 72.8934 127.016 72.8777C127.033 72.8011 127.049 72.7246 127.062 72.6468C127.065 72.6355 127.066 72.6236 127.069 72.6123C127.082 72.542 127.093 72.4705 127.103 72.3983C127.106 72.3826 127.108 72.3676 127.111 72.3525C127.122 72.2728 127.131 72.1931 127.14 72.1115C127.142 72.0952 127.143 72.0783 127.145 72.0613C127.153 71.9867 127.159 71.9114 127.165 71.8355C127.166 71.8242 127.167 71.8135 127.167 71.8022C127.173 71.7187 127.178 71.634 127.181 71.5487C127.181 71.5292 127.182 71.5092 127.183 71.4897C127.185 71.4025 127.187 71.3153 127.187 71.2262C127.187 65.855 122.34 59.3078 116.362 56.6028C116.284 56.5676 116.206 56.5331 116.128 56.4992C116.103 56.4886 116.078 56.4779 116.053 56.4672C116 56.4446 115.947 56.4221 115.894 56.4001C115.865 56.3882 115.836 56.3769 115.808 56.365C115.758 56.3449 115.708 56.3248 115.659 56.3047C115.63 56.2934 115.602 56.2828 115.573 56.2715C115.522 56.252 115.472 56.2326 115.422 56.2137C115.394 56.2037 115.368 56.1937 115.342 56.1842C115.286 56.1635 115.232 56.1441 115.177 56.1246C115.156 56.1171 115.134 56.1096 115.113 56.1021C115.044 56.0776 114.974 56.0537 114.905 56.0311C114.899 56.0293 114.892 56.0268 114.887 56.0249C114.729 55.9728 114.572 55.9245 114.417 55.8793C114.409 55.8774 114.401 55.8749 114.393 55.873C114.325 55.8529 114.256 55.8341 114.188 55.8159C114.176 55.8128 114.164 55.8096 114.152 55.8065C114.087 55.7889 114.022 55.772 113.957 55.7563C113.945 55.7532 113.934 55.7507 113.923 55.7475C113.855 55.7312 113.788 55.7149 113.72 55.6998C113.713 55.698 113.707 55.6967 113.7 55.6948C113.316 55.6089 112.941 55.5442 112.575 55.5016C111.703 55.3999 110.885 55.42 110.135 55.5549C109.551 55.6603 109.01 55.8373 108.518 56.0788C106.672 56.988 105.538 58.8328 105.538 61.43C105.538 66.8012 110.384 73.3483 116.362 76.0534C119.246 77.3585 121.866 77.5298 123.806 76.7561C123.814 76.753 123.822 76.7505 123.83 76.7467C123.979 76.6871 124.123 76.6212 124.263 76.5497C124.64 76.359 124.986 76.1293 125.299 75.8607Z" fill="#48D4FF"/>
<path d="M115.344 67.0516C115.439 67.0152 115.525 66.9851 115.607 66.9487C117.333 66.1801 119.061 65.4127 120.784 64.639C121.171 64.4645 121.615 64.5122 122.152 64.9013C123.014 65.5262 123.341 66.5892 122.798 66.9895C122.715 67.051 122.613 67.093 122.515 67.137C120.479 68.0456 118.443 68.9541 116.407 69.8615C115.696 70.1784 114.996 69.864 114.289 68.9109C113.153 67.3773 112.017 65.8431 110.883 64.3089C110.514 63.8094 110.368 63.3489 110.524 62.9605C110.675 62.5846 111.019 62.471 111.522 62.6103C112.005 62.7434 112.399 63.0866 112.737 63.5453C113.545 64.6402 114.356 65.7339 115.167 66.8276C115.219 66.8973 115.275 66.9644 115.344 67.0516Z" fill="white"/>
<path d="M80.0618 94.3508L54.7978 82.9187C53.9395 82.5303 53.1597 82.4845 52.5873 82.7236L52.5865 82.723L52.5689 82.7311C52.5465 82.7405 52.524 82.7512 52.5024 82.7619L50.665 83.6084C50.9829 83.486 51.3616 83.4477 51.7795 83.5048C52.1101 83.55 52.4648 83.6529 52.8347 83.8204L78.0987 95.2525C79.8544 96.0469 81.2827 97.9757 81.2827 99.5532V122.252C81.2827 122.268 81.2819 122.283 81.2811 122.299C81.2755 122.597 81.2187 122.86 81.117 123.086C80.9641 123.424 80.7119 123.677 80.3869 123.832L80.3917 123.845L82.3948 122.912L82.3923 122.91C82.9207 122.639 83.2458 122.102 83.2458 121.351V98.6515C83.2458 97.0747 81.8176 95.1452 80.0618 94.3508Z" fill="#2B50A0"/>
<path opacity="0.34" d="M82.0071 93.3871L56.7431 81.955C55.8848 81.5666 55.105 81.5208 54.5326 81.7599L54.5318 81.7592L54.5142 81.7674C54.491 81.7768 54.4693 81.7875 54.4469 81.7981L52.6104 82.644C52.9282 82.5216 53.3061 82.484 53.7248 82.5411C54.0546 82.5856 54.4101 82.6892 54.7792 82.8561L80.044 94.2881C81.7997 95.0825 83.2272 97.012 83.2272 98.5895V121.288C83.2272 121.304 83.2264 121.319 83.2264 121.334C83.2208 121.633 83.1632 121.896 83.0623 122.121C82.9094 122.46 82.6572 122.712 82.3314 122.868L82.3369 122.881L84.3393 121.949L84.3368 121.946C84.866 121.674 85.1903 121.137 85.1903 120.386V97.6878C85.1903 96.1103 83.7628 94.1814 82.0071 93.3871Z" fill="#818384"/>
<path d="M50.4072 83.7365C50.4072 83.7365 50.4105 83.7384 50.415 83.7409C50.4344 83.7258 50.4544 83.7119 50.4745 83.698L50.4072 83.7365Z" fill="#76ACDD"/>
<path d="M81.1227 123.085C81.2244 122.86 81.2821 122.596 81.2877 122.298C81.2877 122.282 81.2885 122.267 81.2885 122.252V99.5525C81.2885 97.9756 79.8602 96.0462 78.1053 95.2518L52.8404 83.8197C52.4706 83.6522 52.1159 83.5493 51.7852 83.5047C51.3673 83.4476 50.9894 83.4853 50.6716 83.6076C50.6027 83.634 50.5379 83.6641 50.4746 83.698C50.4498 83.7118 50.4258 83.7256 50.4018 83.7407C49.9366 84.0274 49.6572 84.5413 49.6572 85.2397V107.938C49.6572 109.516 51.0847 111.444 52.8404 112.239L78.1053 123.671C79.0027 124.078 79.8138 124.108 80.3926 123.832C80.7176 123.676 80.9706 123.424 81.1227 123.085Z" fill="#F4FAFF"/>
<path d="M59.0127 105.615C59.0127 105.602 59.0127 105.59 59.0127 105.577C59.1048 105.293 59.1976 105.01 59.2889 104.724C59.4378 104.254 59.8077 104.069 60.3914 104.159C61.0118 104.255 61.6315 104.35 62.2528 104.448C62.4353 104.476 62.5762 104.442 62.6883 104.355C62.8932 104.197 63.0077 103.963 63.0718 103.69C63.079 103.658 63.0462 103.589 63.0133 103.546C62.6619 103.088 62.4601 102.634 62.4153 102.18C62.4073 102.099 62.3857 102.021 62.296 101.938C62.2552 101.9 62.2191 101.835 62.2047 101.787C62.1311 101.539 62.059 101.29 61.999 101.045C61.9469 100.835 61.9581 100.662 62.1263 100.59C62.1655 100.573 62.1919 100.523 62.1935 100.472C62.1991 100.167 62.1959 99.8562 62.1967 99.5481C62.1975 99.1717 62.3064 98.8686 62.5226 98.6439C63.135 98.0083 64.3223 98.1934 65.4512 99.0851C65.8435 99.395 66.1381 99.7596 66.2414 100.193C66.2486 100.223 66.2654 100.259 66.2878 100.286C66.5953 100.653 66.6865 101.008 66.6985 101.348C66.7122 101.742 66.7033 102.127 66.7113 102.519C66.7121 102.569 66.7426 102.64 66.7786 102.697C66.8707 102.84 66.9491 102.979 66.9315 103.108C66.8955 103.371 66.8251 103.611 66.7034 103.814C66.6825 103.85 66.6473 103.883 66.6033 103.886C66.5208 103.892 66.496 103.943 66.4888 104.015C66.4472 104.429 66.2494 104.706 65.8947 104.842C65.8347 104.865 65.8131 104.902 65.8379 104.981C65.8995 105.175 65.9492 105.367 66.026 105.561C66.179 105.947 66.4175 106.279 66.809 106.559C67.3855 106.97 67.9507 107.411 68.5207 107.84C69.0996 108.276 69.4671 108.794 69.6152 109.395C69.6936 109.714 69.7729 110.033 69.8521 110.352C69.9074 110.574 69.8866 110.612 69.7008 110.624C66.2022 109.04 62.7027 107.457 59.2041 105.874C59.14 105.787 59.0759 105.701 59.0127 105.615Z" fill="#5D7EC9"/>
<path d="M71.9738 114.697L58.088 108.413C57.1233 107.977 56.3379 106.917 56.3379 106.049V93.5739C56.3379 92.7074 57.1233 92.3573 58.088 92.794L71.9738 99.0769C72.9385 99.5137 73.7231 100.574 73.7231 101.441V113.916C73.7231 114.783 72.9385 115.133 71.9738 114.697ZM58.088 93.3123C57.4411 93.0193 56.9151 93.2539 56.9151 93.835V106.311C56.9151 106.892 57.4411 107.602 58.088 107.896L71.9738 114.178C72.6207 114.472 73.1467 114.237 73.1467 113.656V101.18C73.1467 100.599 72.6207 99.8883 71.9738 99.5952L58.088 93.3123Z" fill="#5D7EC9"/>
<path opacity="0.34" d="M81.802 55.5774L56.538 44.1454C55.6798 43.757 54.9008 43.7118 54.3275 43.9503L54.3267 43.9496L54.3091 43.9578C54.2867 43.9672 54.2643 43.9779 54.2427 43.9885L52.4053 44.835C52.7231 44.7126 53.1018 44.6744 53.5197 44.7315C53.8504 44.7767 54.205 44.8796 54.5749 45.0471L79.839 56.4791C81.5947 57.2729 83.023 59.2024 83.023 60.7799V72.1642C83.023 72.1805 83.0222 72.1956 83.0214 72.2113C83.0166 72.5093 82.9589 72.7729 82.8572 72.9981C82.7051 73.337 82.4521 73.5892 82.1271 73.7448L82.1319 73.7574L84.135 72.825L84.1326 72.8224C84.6618 72.5514 84.986 72.0143 84.986 71.2632V59.8782C84.986 58.3013 83.5578 56.3718 81.802 55.5774Z" fill="#818384"/>
<path d="M80.0647 56.3776L54.8007 44.9456C53.9424 44.5572 53.1627 44.512 52.5902 44.7504L52.5894 44.7498L52.5718 44.758C52.5494 44.768 52.527 44.778 52.5054 44.7887L50.668 45.6352C50.9858 45.5128 51.3645 45.4752 51.7824 45.5316C52.1131 45.5768 52.4677 45.6797 52.8376 45.8473L78.1016 57.2793C79.8574 58.0737 81.2857 60.0032 81.2857 61.5801V72.965C81.2857 72.9807 81.284 72.9958 81.284 73.0115C81.2784 73.3095 81.2208 73.5731 81.1199 73.7983C80.967 74.1372 80.7148 74.3894 80.389 74.545L80.3946 74.5582L82.3969 73.6258L82.3945 73.6233C82.9237 73.3516 83.2479 72.8144 83.2479 72.0633V60.679C83.2487 59.1015 81.8204 57.172 80.0647 56.3776Z" fill="#2B50A0"/>
<path d="M81.1247 73.7988C81.2264 73.573 81.284 73.31 81.2896 73.012C81.2896 72.9963 81.2904 72.9812 81.2904 72.9649V61.5806C81.2904 60.0031 79.8621 58.0736 78.1064 57.2792L52.8424 45.8472C52.4725 45.6803 52.1178 45.5774 51.7872 45.5322C51.3693 45.4751 50.9914 45.5127 50.6735 45.6357C50.6047 45.6614 50.539 45.6916 50.4766 45.7261C50.4518 45.7392 50.427 45.7537 50.4029 45.7687C49.9386 46.0555 49.6592 46.5688 49.6592 47.2672V58.6521C49.6592 60.229 51.0867 62.1585 52.8424 62.9529L78.1064 74.3849C79.0047 74.7909 79.8157 74.8223 80.3946 74.5455C80.7196 74.3899 80.9726 74.1377 81.1247 73.7988Z" fill="#F4FAFF"/>
<path d="M75.8641 65.9246L54.3798 56.2025C53.9627 56.0136 53.624 56.1648 53.624 56.5394V59.1033C53.624 59.4779 53.9627 59.9347 54.3798 60.1236L75.8641 69.8451C76.2813 70.034 76.6191 69.8834 76.6191 69.5081V66.9449C76.6191 66.5697 76.2813 66.1129 75.8641 65.9246Z" fill="#5D7EC9"/>
<path d="M74.3777 66.7454L55.9517 58.4075C55.6635 58.277 55.4297 58.3811 55.4297 58.6403C55.4297 58.8994 55.6635 59.215 55.9517 59.3456L74.3777 67.6835C74.6659 67.814 74.8997 67.7099 74.8997 67.4507C74.8997 67.1916 74.6659 66.8759 74.3777 66.7454Z" fill="white"/>
<path d="M75.9327 59.8463L54.4483 50.1248C54.0312 49.9359 53.6934 50.0865 53.6934 50.4618V53.025C53.6934 53.3996 54.0312 53.8571 54.4483 54.0453L75.9327 63.7675C76.3498 63.9557 76.6885 63.8051 76.6885 63.4305V60.8666C76.6885 60.492 76.3498 60.0352 75.9327 59.8463Z" fill="#5D7EC9"/>
<path d="M57.4334 52.9133L57.708 52.9171L57.8513 53.2245L58.1523 53.4084L58.1099 53.6613L58.3229 53.9549L58.1099 54.0566L58.1523 54.3477L57.8513 54.2592L57.708 54.4368L57.4334 54.1921L57.158 54.1883L57.0147 53.8809L56.7137 53.697L56.7561 53.4441L56.5439 53.1505L56.7561 53.0488L56.7137 52.7577L57.0147 52.8462L57.158 52.6686L57.4334 52.9133Z" fill="white"/>
<path d="M61.3476 54.6689L61.6231 54.6727L61.7664 54.9801L62.0674 55.164L62.025 55.4169L62.2371 55.7105L62.025 55.8122L62.0674 56.1033L61.7664 56.0149L61.6231 56.1924L61.3476 55.9477L61.0731 55.944L60.9297 55.6359L60.6287 55.452L60.6711 55.1998L60.459 54.9061L60.6711 54.8044L60.6287 54.5127L60.9297 54.6018L61.0731 54.4242L61.3476 54.6689Z" fill="white"/>
<path d="M65.242 56.4289L65.5166 56.4327L65.6599 56.7402L65.9618 56.924L65.9185 57.1769L66.1315 57.4705L65.9185 57.5716L65.9618 57.8634L65.6599 57.7743L65.5166 57.9525L65.242 57.7071L64.9666 57.7033L64.8233 57.3959L64.5223 57.212L64.5655 56.9592L64.3525 56.6655L64.5655 56.5645L64.5223 56.2727L64.8233 56.3618L64.9666 56.1836L65.242 56.4289Z" fill="white"/>
<path d="M69.1572 58.201L69.4326 58.2048L69.5759 58.5123L69.877 58.6961L69.8346 58.949L70.0467 59.2426L69.8346 59.3437L69.877 59.6355L69.5759 59.5463L69.4326 59.7246L69.1572 59.4792L68.8826 59.4761L68.7393 59.168L68.4383 58.9841L68.4807 58.7319L68.2686 58.4376L68.4807 58.3366L68.4383 58.0448L68.7393 58.1339L68.8826 57.9557L69.1572 58.201Z" fill="white"/>
<path d="M73.0809 59.9769L73.3555 59.9807L73.4988 60.2881L73.7998 60.472L73.7574 60.7248L73.9703 61.0185L73.7574 61.1202L73.7998 61.4113L73.4988 61.3228L73.3555 61.5004L73.0809 61.2557L72.8055 61.2519L72.6622 60.9438L72.3611 60.76L72.4036 60.5077L72.1914 60.2135L72.4036 60.1124L72.3611 59.8213L72.6622 59.9098L72.8055 59.7322L73.0809 59.9769Z" fill="white"/>
<path d="M189.538 169.434L189.537 169.43C189.487 169.235 189.414 169.039 189.316 168.847L185.188 157.927C185.109 157.145 184.413 156.375 183.098 155.78C180.286 154.508 175.711 154.515 172.88 155.797C171.506 156.418 170.796 157.225 170.748 158.036L166.592 169.012C165.813 170.691 166.853 172.503 169.719 173.801C174.246 175.849 181.613 175.837 186.174 173.773C188.799 172.585 189.921 170.976 189.538 169.434Z" fill="url(#paint0_linear_2026_8183)"/>
<path d="M186.179 166.44C186.903 166.112 187.512 165.753 188.007 165.371L185.193 157.927C185.115 157.145 184.418 156.375 183.103 155.78C180.292 154.508 175.717 154.515 172.885 155.797C171.512 156.418 170.801 157.225 170.753 158.036L167.952 165.435C168.434 165.803 169.025 166.151 169.725 166.467C174.251 168.515 181.619 168.504 186.179 166.44Z" fill="url(#paint1_linear_2026_8183)"/>
<path d="M158.971 120.948C158.803 128.854 156.301 141.515 153.489 142.788C150.677 144.06 148.621 133.462 148.788 125.555C148.955 117.649 151.282 114.367 154.094 113.094C156.906 111.822 159.138 113.041 158.971 120.948Z" fill="url(#paint2_linear_2026_8183)"/>
<path d="M178.046 134.354C163.826 134.354 152.258 129.223 151.835 122.823C151.823 123.06 151.815 123.305 151.815 123.562C151.815 134.917 163.559 161.39 178.046 161.39C192.532 161.39 204.275 134.917 204.275 123.562C204.275 123.305 204.267 123.06 204.255 122.823C203.833 129.223 192.265 134.354 178.046 134.354Z" fill="url(#paint3_radial_2026_8183)"/>
<path d="M178.046 134.353C192.265 134.353 203.833 129.223 204.255 122.822C204.263 122.702 204.275 122.582 204.275 122.461C204.275 115.893 192.532 110.569 178.046 110.569C163.559 110.569 151.815 115.893 151.815 122.461C151.815 122.582 151.827 122.702 151.835 122.822C152.258 129.223 163.826 134.353 178.046 134.353Z" fill="url(#paint4_linear_2026_8183)"/>
<path d="M208.248 136.729C208.081 144.635 205.578 157.296 202.766 158.568C199.954 159.841 197.898 149.243 198.065 141.336C198.232 133.43 200.559 130.147 203.371 128.875C206.183 127.602 208.415 128.822 208.248 136.729Z" fill="url(#paint5_linear_2026_8183)"/>
<path d="M204.315 120.421C204.297 120.465 204.275 120.51 204.256 120.554C204.275 120.51 204.297 120.465 204.315 120.421Z" fill="url(#paint6_radial_2026_8183)"/>
<path d="M200.928 124.147C200.933 124.142 200.938 124.137 200.944 124.131C200.94 124.134 200.937 124.137 200.933 124.141C200.931 124.143 200.93 124.145 200.928 124.147Z" fill="url(#paint7_radial_2026_8183)"/>
<path d="M175.546 94.8252C164.707 96.3405 154.27 102.526 152.424 111.56C152.272 112.302 152.15 113.011 152.052 113.695C152.048 113.7 152.045 113.705 152.04 113.711C151.994 114.067 151.904 114.804 151.896 115.196L151.896 115.196C151.85 117.598 152.306 121.047 154.738 123.805C155.44 124.491 156.763 125.614 158.633 126.518C169.258 131.235 186.383 131.181 197.009 126.373C198.532 125.684 199.834 124.933 200.924 124.141C200.929 124.138 200.934 124.135 200.938 124.132C201.241 123.911 201.529 123.686 201.798 123.459C201.821 123.439 201.842 123.421 201.864 123.401C202.101 123.199 202.323 122.995 202.533 122.789C202.576 122.747 202.618 122.707 202.659 122.665C203.104 122.216 203.488 121.757 203.808 121.292C203.845 121.24 203.878 121.187 203.913 121.134C204.04 120.941 204.156 120.748 204.262 120.553C204.285 120.509 204.312 120.465 204.335 120.421C204.408 120.278 204.473 120.135 204.536 119.991C205.335 118.458 205.635 116.433 205.745 115.089C207.396 101.187 186.217 93.3324 175.546 94.8252Z" fill="url(#paint8_radial_2026_8183)"/>
<path d="M159.824 121.832C166.753 124.968 176.518 126.034 185.438 125.056L185.423 125.042C189.864 124.714 191.272 121.838 191.571 121.071C191.753 120.177 191.877 119.267 192.001 118.419C192.454 114.618 187.159 114.431 185.422 114.471C176.507 115.445 166.749 114.371 159.824 111.237C158.486 110.632 157.324 109.978 156.327 109.288L156.334 109.276C156.334 109.276 156.215 109.204 156.021 109.071C155.477 108.677 154.982 108.272 154.545 107.857C154.542 107.86 154.539 107.863 154.536 107.866C154.363 107.701 154.19 107.521 154.018 107.333C153.775 107.771 153.562 108.223 153.363 108.68L153.36 108.668C153.094 109.28 152.866 109.908 152.685 110.553C152.591 110.885 152.506 111.22 152.436 111.56C152.285 112.302 152.162 113.011 152.065 113.695C152.061 113.7 152.057 113.705 152.053 113.711C152.039 113.815 152.022 113.954 152.004 114.105C152.475 116.926 155.071 119.681 159.824 121.832Z" fill="url(#paint9_linear_2026_8183)"/>
<path d="M161.831 118.458C162.585 118.112 162.576 117.003 161.811 115.98C161.047 114.958 159.817 114.409 159.064 114.754C158.311 115.1 158.32 116.21 159.083 117.232C159.848 118.255 161.078 118.804 161.831 118.458Z" fill="#48D4FF"/>
<path d="M200.928 124.147C200.933 124.142 200.938 124.137 200.944 124.131C200.94 124.134 200.937 124.137 200.933 124.141C200.931 124.143 200.93 124.145 200.928 124.147Z" fill="url(#paint10_radial_2026_8183)"/>
<path d="M152.053 113.695C152.032 113.727 152.015 113.76 151.995 113.794C151.99 113.848 151.986 113.908 151.982 113.964C151.988 114.011 151.997 114.058 152.004 114.105C152.019 113.954 152.032 113.815 152.043 113.711C152.046 113.705 152.05 113.7 152.053 113.695Z" fill="#262626"/>
<path d="M200.928 124.147C200.933 124.142 200.938 124.137 200.944 124.131C200.94 124.134 200.937 124.137 200.933 124.141C200.931 124.143 200.93 124.145 200.928 124.147Z" fill="url(#paint11_radial_2026_8183)"/>
<path d="M152.417 111.56C152.486 111.22 152.571 110.885 152.665 110.553C152.572 110.885 152.486 111.22 152.417 111.56Z" fill="#606060"/>
<path d="M174.128 121.359C174.881 121.014 174.873 119.904 174.108 118.881C173.344 117.859 172.114 117.31 171.361 117.656C170.608 118.002 170.617 119.111 171.38 120.134C172.145 121.156 173.375 121.705 174.128 121.359Z" fill="#48D4FF"/>
<path d="M172.056 143.898C172.056 146.564 169.651 147.637 166.683 146.294C163.716 144.951 161.311 141.701 161.311 139.035C161.311 136.369 163.716 135.296 166.683 136.639C169.651 137.982 172.056 141.232 172.056 143.898Z" fill="url(#paint12_linear_2026_8183)"/>
<path d="M167.026 140.543C167.436 140.354 167.431 139.751 167.015 139.195C166.599 138.638 165.93 138.339 165.52 138.528C165.11 138.716 165.115 139.32 165.531 139.876C165.947 140.432 166.616 140.731 167.026 140.543Z" fill="#48D4FF"/>
<path d="M167.387 144.413C167.796 144.225 167.792 143.622 167.375 143.066C166.96 142.509 166.29 142.21 165.881 142.399C165.471 142.587 165.475 143.191 165.891 143.746C166.307 144.303 166.977 144.602 167.387 144.413Z" fill="#48D4FF"/>
<path opacity="0.5" d="M134.43 170.203C134.43 169.956 133.985 169.756 133.438 169.756L131.32 169.757C131.231 169.757 131.145 169.75 131.065 169.738C130.828 169.702 130.637 169.617 130.545 169.507C130.47 169.418 130.39 169.33 130.302 169.243C130.156 169.099 130.209 168.931 130.457 168.819L131.953 168.144C132.145 168.056 132.242 167.943 132.243 167.83C132.245 167.714 132.149 167.599 131.953 167.511L129.512 166.411C129.125 166.236 128.497 166.237 128.11 166.411L126.601 167.092C126.364 167.199 126.007 167.23 125.698 167.17C125.483 167.128 125.251 167.086 125.05 167.051C124.736 166.996 124.532 166.86 124.532 166.708V165.743C124.532 165.496 124.088 165.296 123.54 165.296H120.09C119.542 165.296 119.098 165.496 119.098 165.743V166.698C119.098 166.856 118.872 166.991 118.544 167.047C118.336 167.082 118.132 167.121 117.931 167.163C117.612 167.229 117.238 167.206 116.989 167.094L115.487 166.42C115.099 166.247 114.47 166.247 114.084 166.422L111.651 167.526C111.444 167.62 111.35 167.745 111.366 167.867C111.38 167.973 111.476 168.078 111.656 168.158L113.169 168.837C113.408 168.944 113.476 169.105 113.345 169.244C113.253 169.341 113.161 169.446 113.083 169.537C112.99 169.644 112.793 169.724 112.556 169.756C112.482 169.766 112.403 169.771 112.322 169.771L110.183 169.774C109.635 169.774 109.193 169.974 109.194 170.222L109.202 171.601L109.202 171.778C109.204 172.024 109.649 172.225 110.197 172.224L112.314 172.221C112.665 172.221 112.967 172.323 113.091 172.471C113.165 172.56 113.247 172.648 113.334 172.734C113.481 172.878 113.429 173.047 113.181 173.159L111.687 173.836C111.3 174.011 111.302 174.294 111.689 174.468L114.134 175.567C114.522 175.74 115.15 175.74 115.536 175.565L117.043 174.883C117.28 174.776 117.637 174.745 117.946 174.804C118.16 174.846 118.393 174.888 118.593 174.923C118.908 174.977 119.113 175.114 119.113 175.266L119.117 176.23C119.118 176.478 119.562 176.677 120.11 176.677L123.56 176.674C124.108 176.674 124.551 176.473 124.55 176.226L124.547 175.271C124.546 175.114 124.773 174.977 125.1 174.922C125.298 174.888 125.493 174.851 125.685 174.812C126.004 174.746 126.378 174.77 126.626 174.881L128.126 175.556C128.514 175.73 129.141 175.73 129.528 175.555L131.965 174.453C132.352 174.278 132.351 173.995 131.964 173.821L130.453 173.141C130.215 173.034 130.147 172.873 130.279 172.734C130.499 172.501 130.725 172.224 130.736 172.208L133.442 172.207C133.972 172.206 134.403 172.019 134.43 171.782C134.431 171.775 134.433 171.767 134.433 171.76L134.43 170.203ZM126.624 171.383C126.521 171.631 126.332 171.86 126.077 172.066C124.919 172.998 122.378 173.446 120.05 173.042C118.967 172.853 118.097 172.495 117.553 172.055C117.012 171.617 116.792 171.1 117.006 170.589C117.089 170.387 117.229 170.2 117.414 170.026C118.497 169.013 121.154 168.508 123.58 168.93C124.743 169.132 125.66 169.531 126.193 170.017C126.648 170.432 126.821 170.91 126.624 171.383Z" fill="#9FCBFF"/>
<path d="M133.354 168.922L130.647 168.923C130.637 168.94 130.41 169.217 130.19 169.449C130.058 169.589 130.126 169.75 130.364 169.857L131.875 170.537C132.262 170.711 132.263 170.994 131.876 171.169L129.439 172.27C129.053 172.445 128.425 172.445 128.037 172.271L126.537 171.596C126.289 171.485 125.915 171.462 125.596 171.527C125.404 171.567 125.21 171.603 125.012 171.637C124.684 171.693 124.458 171.829 124.458 171.987L124.461 172.942C124.463 173.189 124.019 173.389 123.472 173.39L120.022 173.392C119.473 173.393 119.029 173.193 119.028 172.946L119.025 171.981C119.024 171.829 118.819 171.693 118.505 171.638C118.304 171.603 118.072 171.561 117.857 171.52C117.548 171.46 117.191 171.491 116.954 171.598L115.448 172.28C115.061 172.456 114.434 172.456 114.045 172.282L111.601 171.184C111.213 171.01 111.212 170.726 111.598 170.552L113.092 169.875C113.34 169.762 113.392 169.594 113.245 169.45C113.158 169.363 113.076 169.275 113.002 169.186C112.878 169.039 112.576 168.937 112.225 168.937L110.108 168.94C109.56 168.94 109.115 168.74 109.113 168.494L109.113 168.316C109.109 168.334 109.105 168.352 109.105 168.37L109.113 170.642C109.115 170.889 109.56 171.089 110.108 171.088L111.35 171.087L111.32 172.963C111.312 172.996 111.311 173.028 111.318 173.06C111.341 173.16 111.432 173.257 111.601 173.333L114.045 174.431C114.283 174.537 114.608 174.57 114.915 174.546L114.931 174.553V174.544C115.12 174.528 115.302 174.495 115.448 174.43L116.954 173.748C117.191 173.64 117.548 173.609 117.857 173.668C118.072 173.71 118.304 173.752 118.505 173.787C118.819 173.842 119.024 173.978 119.025 174.13L119.028 175.095C119.029 175.342 119.473 175.541 120.022 175.541L123.472 175.538C124.019 175.538 124.463 175.338 124.461 175.09L124.458 174.135C124.458 173.978 124.684 173.842 125.012 173.786C125.21 173.752 125.404 173.715 125.596 173.676C125.915 173.61 126.289 173.634 126.537 173.746L128.037 174.42C128.182 174.485 128.364 174.518 128.551 174.534V174.547L128.578 174.536C128.883 174.559 129.205 174.526 129.439 174.419L131.876 173.318C132.037 173.245 132.127 173.154 132.154 173.059L132.165 173.055L132.164 173.011C132.165 173.004 132.164 172.997 132.164 172.991L132.133 171.071H133.354C133.901 171.071 134.345 170.871 134.344 170.623L134.341 168.498C134.315 168.734 133.884 168.922 133.354 168.922Z" fill="#184EAE"/>
<path d="M131.866 164.859L130.369 165.534C130.121 165.646 130.068 165.815 130.214 165.959C130.301 166.045 130.383 166.133 130.458 166.223C130.55 166.333 130.74 166.418 130.977 166.454L131.866 166.052C132.044 165.972 132.136 165.87 132.15 165.765H132.166L132.156 164.546C132.154 164.658 132.058 164.772 131.866 164.859Z" fill="#184EAE"/>
<path d="M126.093 166.732C125.894 166.552 125.641 166.382 125.343 166.231C125.336 166.228 125.331 166.225 125.324 166.222C125.282 166.2 125.239 166.18 125.194 166.159C125.183 166.154 125.171 166.149 125.16 166.143C125.121 166.126 125.081 166.107 125.039 166.09C125.024 166.084 125.009 166.077 124.994 166.071C124.955 166.055 124.917 166.04 124.877 166.025C124.86 166.018 124.841 166.011 124.823 166.004C124.785 165.989 124.747 165.976 124.709 165.962C124.689 165.955 124.668 165.947 124.647 165.94C124.609 165.927 124.572 165.915 124.533 165.903C124.511 165.895 124.488 165.888 124.466 165.881C124.428 165.87 124.39 165.858 124.351 165.846C124.327 165.839 124.303 165.833 124.279 165.826C124.241 165.815 124.201 165.804 124.162 165.794C124.137 165.787 124.112 165.781 124.087 165.775C124.046 165.764 124.005 165.755 123.964 165.745C123.939 165.739 123.915 165.733 123.89 165.727C123.845 165.717 123.798 165.708 123.753 165.698C123.73 165.693 123.709 165.689 123.687 165.684C123.619 165.671 123.549 165.657 123.48 165.646C123.411 165.634 123.341 165.622 123.272 165.612C123.261 165.61 123.25 165.609 123.238 165.607C123.172 165.597 123.106 165.588 123.039 165.58C123.026 165.578 123.014 165.577 123.001 165.575C122.934 165.566 122.866 165.558 122.798 165.551C122.791 165.551 122.784 165.55 122.777 165.55C122.712 165.543 122.645 165.537 122.58 165.531C122.572 165.531 122.563 165.53 122.554 165.529C122.487 165.524 122.42 165.519 122.352 165.516C122.34 165.514 122.327 165.514 122.314 165.513C122.247 165.509 122.179 165.506 122.113 165.504C122.103 165.503 122.093 165.503 122.083 165.502C122.014 165.501 121.946 165.499 121.878 165.497C121.876 165.497 121.874 165.497 121.871 165.497C121.802 165.496 121.733 165.496 121.665 165.496C121.653 165.497 121.642 165.497 121.631 165.497C121.565 165.497 121.498 165.498 121.432 165.5C121.42 165.501 121.41 165.501 121.399 165.501C121.33 165.503 121.262 165.506 121.194 165.509C121.191 165.509 121.19 165.509 121.187 165.509C121.119 165.513 121.051 165.517 120.982 165.521C120.976 165.522 120.969 165.522 120.962 165.523C120.895 165.528 120.829 165.533 120.762 165.539C120.753 165.54 120.743 165.541 120.734 165.541C120.666 165.548 120.6 165.555 120.534 165.562C120.529 165.562 120.524 165.563 120.519 165.563C120.45 165.572 120.382 165.58 120.314 165.589C120.314 165.589 120.314 165.589 120.313 165.589C120.246 165.598 120.179 165.608 120.113 165.619C120.107 165.62 120.099 165.62 120.092 165.622C120.027 165.632 119.963 165.643 119.899 165.654C119.894 165.656 119.888 165.656 119.882 165.657C119.75 165.682 119.62 165.708 119.493 165.738C119.49 165.738 119.487 165.739 119.485 165.74C119.421 165.754 119.359 165.77 119.297 165.785C119.293 165.787 119.289 165.787 119.284 165.789C119.095 165.838 118.912 165.892 118.738 165.952C118.736 165.953 118.734 165.954 118.731 165.955C118.674 165.975 118.617 165.996 118.561 166.017H118.56C118.389 166.082 118.228 166.153 118.077 166.228C118.077 166.228 118.076 166.228 118.075 166.228C117.925 166.304 117.786 166.385 117.658 166.47C117.658 166.47 117.658 166.471 117.657 166.471C117.529 166.557 117.415 166.647 117.313 166.741V166.742C117.128 166.915 116.988 167.103 116.905 167.304C116.691 167.815 116.911 168.333 117.452 168.77C118.61 167.838 121.151 167.389 123.479 167.794C124.562 167.982 125.432 168.341 125.977 168.781C126.232 168.575 126.42 168.347 126.524 168.098C126.721 167.626 126.548 167.148 126.093 166.732Z" fill="#184EAE"/>
<path d="M112.985 166.252C113.063 166.161 113.155 166.056 113.247 165.96C113.378 165.82 113.31 165.659 113.072 165.553L111.558 164.874C111.378 164.793 111.282 164.689 111.268 164.583V165.738C111.261 165.857 111.356 165.977 111.558 166.067L112.458 166.471C112.695 166.439 112.892 166.36 112.985 166.252Z" fill="#184EAE"/>
<path d="M134.341 166.919C134.341 166.672 133.896 166.472 133.349 166.472L131.232 166.473C131.142 166.473 131.057 166.466 130.976 166.454C130.74 166.418 130.548 166.333 130.456 166.223C130.382 166.134 130.301 166.046 130.213 165.959C130.067 165.815 130.12 165.646 130.368 165.534L131.864 164.859C132.057 164.772 132.153 164.659 132.154 164.546C132.156 164.43 132.06 164.315 131.864 164.226L129.423 163.127C129.036 162.952 128.408 162.952 128.021 163.127L126.513 163.808C126.275 163.915 125.918 163.945 125.609 163.885C125.395 163.844 125.162 163.802 124.962 163.767C124.648 163.712 124.443 163.576 124.443 163.423V162.459C124.443 162.212 123.999 162.012 123.452 162.012H120.001C119.453 162.012 119.009 162.212 119.009 162.459V163.414C119.009 163.572 118.783 163.707 118.455 163.763C118.248 163.798 118.043 163.837 117.842 163.879C117.523 163.944 117.149 163.921 116.901 163.81L115.398 163.136C115.01 162.962 114.382 162.962 113.996 163.138L111.563 164.241C111.356 164.335 111.262 164.46 111.278 164.583C111.291 164.689 111.387 164.793 111.567 164.874L113.08 165.553C113.319 165.659 113.387 165.82 113.256 165.959C113.165 166.057 113.072 166.161 112.994 166.252C112.902 166.36 112.704 166.439 112.467 166.471C112.393 166.481 112.314 166.486 112.234 166.486L110.094 166.489C109.547 166.49 109.104 166.69 109.105 166.937L109.113 168.316L109.113 168.493C109.115 168.74 109.56 168.94 110.108 168.939L112.225 168.937C112.576 168.937 112.878 169.038 113.002 169.186C113.076 169.276 113.158 169.363 113.245 169.45C113.392 169.594 113.34 169.762 113.092 169.874L111.598 170.551C111.212 170.726 111.213 171.009 111.601 171.184L114.045 172.282C114.434 172.456 115.061 172.456 115.448 172.281L116.954 171.598C117.191 171.491 117.548 171.46 117.857 171.52C118.072 171.561 118.304 171.603 118.505 171.638C118.819 171.693 119.024 171.829 119.025 171.981L119.028 172.946C119.029 173.193 119.473 173.392 120.022 173.392L123.472 173.39C124.019 173.389 124.463 173.188 124.461 172.942L124.458 171.987C124.458 171.829 124.684 171.693 125.012 171.637C125.21 171.603 125.404 171.566 125.596 171.527C125.915 171.461 126.289 171.485 126.537 171.597L128.037 172.271C128.425 172.446 129.053 172.445 129.439 172.27L131.876 171.169C132.263 170.994 132.262 170.711 131.875 170.536L130.364 169.857C130.126 169.749 130.058 169.589 130.19 169.449C130.41 169.217 130.636 168.94 130.647 168.923L133.354 168.922C133.884 168.922 134.315 168.734 134.341 168.498C134.342 168.49 134.344 168.482 134.344 168.475L134.341 166.919ZM126.536 168.098C126.432 168.347 126.243 168.576 125.988 168.781C124.83 169.713 122.289 170.162 119.961 169.757C118.878 169.569 118.008 169.21 117.464 168.77C116.923 168.333 116.703 167.815 116.917 167.305C117 167.103 117.14 166.915 117.325 166.742C118.408 165.729 121.065 165.224 123.491 165.646C124.654 165.848 125.572 166.247 126.104 166.732C126.559 167.148 126.732 167.626 126.536 168.098Z" fill="url(#paint13_linear_2026_8183)"/>
<path opacity="0.5" d="M151.994 179.419C151.994 179.24 151.673 179.095 151.277 179.095L149.746 179.096C149.682 179.096 149.62 179.092 149.561 179.082C149.391 179.057 149.252 178.995 149.186 178.915C149.132 178.851 149.074 178.787 149.01 178.725C148.905 178.621 148.943 178.499 149.122 178.418L150.204 177.93C150.343 177.867 150.412 177.785 150.414 177.703C150.415 177.62 150.345 177.536 150.203 177.472L148.44 176.677C148.16 176.551 147.706 176.551 147.425 176.677L146.335 177.17C146.164 177.247 145.906 177.269 145.682 177.226C145.526 177.196 145.358 177.165 145.214 177.14C144.987 177.1 144.839 177.002 144.839 176.892V176.195C144.839 176.016 144.518 175.871 144.122 175.871H141.628C141.232 175.871 140.911 176.016 140.911 176.195V176.885C140.911 176.999 140.747 177.097 140.51 177.137C140.36 177.163 140.213 177.19 140.067 177.221C139.836 177.269 139.566 177.252 139.386 177.171L138.3 176.684C138.02 176.558 137.566 176.559 137.286 176.685L135.528 177.483C135.378 177.551 135.31 177.642 135.321 177.73C135.331 177.807 135.401 177.882 135.531 177.94L136.625 178.431C136.797 178.508 136.846 178.625 136.752 178.725C136.685 178.796 136.619 178.871 136.563 178.937C136.495 179.015 136.353 179.072 136.182 179.095C136.127 179.102 136.071 179.106 136.013 179.106L134.466 179.108C134.07 179.109 133.75 179.254 133.751 179.432L133.757 180.429V180.557C133.758 180.736 134.079 180.88 134.476 180.879L136.007 180.878C136.26 180.877 136.478 180.952 136.568 181.058C136.622 181.123 136.68 181.186 136.744 181.249C136.85 181.352 136.812 181.474 136.633 181.556L135.553 182.045C135.274 182.171 135.275 182.376 135.555 182.502L137.322 183.296C137.603 183.422 138.057 183.421 138.336 183.295L139.425 182.802C139.596 182.724 139.854 182.702 140.078 182.745C140.234 182.775 140.402 182.805 140.547 182.83C140.773 182.87 140.921 182.969 140.922 183.079L140.924 183.776C140.925 183.955 141.246 184.099 141.643 184.098L144.136 184.097C144.533 184.096 144.853 183.952 144.852 183.773L144.85 183.082C144.85 182.968 145.013 182.87 145.25 182.83C145.393 182.805 145.534 182.779 145.673 182.751C145.903 182.703 146.174 182.72 146.353 182.801L147.437 183.288C147.718 183.414 148.172 183.414 148.451 183.288L150.213 182.491C150.493 182.365 150.492 182.16 150.211 182.034L149.119 181.543C148.947 181.465 148.899 181.349 148.994 181.248C149.153 181.08 149.316 180.88 149.324 180.868L151.28 180.867C151.664 180.867 151.975 180.731 151.994 180.561C151.995 180.555 151.997 180.549 151.997 180.544L151.994 179.419ZM146.352 180.271C146.277 180.451 146.14 180.616 145.956 180.765C145.119 181.438 143.281 181.763 141.599 181.47C140.816 181.335 140.187 181.075 139.794 180.757C139.402 180.441 139.244 180.067 139.398 179.697C139.459 179.552 139.559 179.416 139.693 179.291C140.476 178.558 142.398 178.193 144.151 178.498C144.992 178.644 145.655 178.933 146.04 179.284C146.369 179.584 146.494 179.93 146.352 180.271Z" fill="#9FCBFF"/>
<path d="M151.186 178.493L149.23 178.494C149.222 178.506 149.058 178.706 148.899 178.874C148.804 178.975 148.853 179.091 149.025 179.169L150.117 179.66C150.397 179.786 150.398 179.991 150.118 180.117L148.357 180.914C148.077 181.04 147.623 181.04 147.343 180.914L146.259 180.426C146.079 180.346 145.809 180.329 145.578 180.376C145.44 180.405 145.299 180.431 145.155 180.456C144.919 180.496 144.755 180.595 144.756 180.709L144.758 181.399C144.759 181.578 144.438 181.723 144.043 181.723L141.548 181.725C141.152 181.725 140.831 181.58 140.83 181.402L140.827 180.704C140.827 180.595 140.679 180.496 140.452 180.457C140.307 180.431 140.139 180.401 139.983 180.371C139.76 180.328 139.502 180.35 139.33 180.428L138.241 180.921C137.962 181.048 137.508 181.048 137.228 180.922L135.461 180.128C135.18 180.002 135.179 179.798 135.458 179.671L136.539 179.182C136.718 179.101 136.755 178.979 136.65 178.875C136.586 178.812 136.527 178.749 136.474 178.684C136.384 178.577 136.165 178.504 135.912 178.504L134.382 178.506C133.985 178.506 133.663 178.361 133.663 178.183L133.662 178.055C133.659 178.068 133.656 178.081 133.656 178.093L133.663 179.736C133.663 179.915 133.985 180.059 134.382 180.059L135.279 180.058L135.257 181.415C135.252 181.438 135.251 181.461 135.257 181.485C135.273 181.557 135.338 181.627 135.461 181.681L137.228 182.475C137.4 182.552 137.635 182.576 137.856 182.559L137.868 182.564V182.557C138.004 182.546 138.136 182.522 138.241 182.475L139.33 181.981C139.502 181.903 139.76 181.882 139.983 181.924C140.139 181.954 140.307 181.984 140.452 182.01C140.679 182.05 140.827 182.148 140.827 182.258L140.83 182.955C140.831 183.134 141.152 183.278 141.548 183.278L144.043 183.276C144.438 183.276 144.759 183.131 144.758 182.953L144.756 182.262C144.755 182.148 144.919 182.05 145.155 182.009C145.299 181.984 145.44 181.958 145.578 181.93C145.809 181.882 146.079 181.899 146.259 181.98L147.343 182.468C147.448 182.515 147.58 182.539 147.715 182.55V182.56L147.733 182.552C147.954 182.568 148.186 182.544 148.357 182.467L150.118 181.671C150.234 181.618 150.299 181.552 150.319 181.484L150.327 181.481V181.449C150.327 181.444 150.327 181.439 150.326 181.434L150.304 180.047L151.186 180.046C151.582 180.046 151.902 179.901 151.902 179.723L151.901 178.186C151.881 178.357 151.569 178.493 151.186 178.493Z" fill="#184EAE"/>
<path d="M150.133 175.555L149.051 176.044C148.872 176.125 148.834 176.247 148.939 176.351C149.002 176.413 149.061 176.477 149.115 176.542C149.181 176.621 149.319 176.682 149.49 176.709L150.133 176.418C150.261 176.36 150.328 176.286 150.338 176.21H150.35L150.343 175.329C150.341 175.411 150.272 175.493 150.133 175.555Z" fill="#184EAE"/>
<path d="M145.966 176.91C145.966 176.91 145.966 176.91 145.966 176.91C145.822 176.779 145.64 176.657 145.423 176.547C145.419 176.545 145.415 176.543 145.411 176.54C145.38 176.525 145.349 176.51 145.317 176.495C145.308 176.491 145.3 176.488 145.292 176.484C145.263 176.471 145.235 176.458 145.205 176.446C145.194 176.441 145.182 176.436 145.171 176.432C145.144 176.42 145.116 176.409 145.087 176.398C145.074 176.393 145.062 176.388 145.048 176.383C145.021 176.373 144.994 176.362 144.966 176.353C144.951 176.347 144.936 176.342 144.921 176.337C144.894 176.328 144.866 176.319 144.839 176.31C144.822 176.304 144.806 176.299 144.79 176.294C144.763 176.286 144.735 176.278 144.707 176.269C144.689 176.264 144.673 176.259 144.655 176.254C144.627 176.247 144.599 176.239 144.57 176.232C144.552 176.227 144.534 176.222 144.516 176.217C144.487 176.21 144.457 176.203 144.427 176.196C144.409 176.192 144.392 176.187 144.374 176.183C144.341 176.176 144.307 176.169 144.274 176.162C144.259 176.159 144.243 176.155 144.227 176.152C144.178 176.142 144.127 176.133 144.077 176.124C144.027 176.116 143.977 176.107 143.927 176.1C143.919 176.099 143.91 176.097 143.902 176.096C143.854 176.089 143.806 176.082 143.759 176.077C143.749 176.075 143.74 176.074 143.731 176.073C143.682 176.067 143.633 176.061 143.584 176.056C143.58 176.056 143.574 176.055 143.569 176.055C143.522 176.05 143.474 176.045 143.427 176.042C143.42 176.041 143.414 176.041 143.408 176.04C143.36 176.037 143.311 176.033 143.262 176.03C143.252 176.03 143.243 176.029 143.235 176.028C143.186 176.026 143.137 176.023 143.089 176.021C143.082 176.021 143.074 176.021 143.067 176.021C143.018 176.019 142.969 176.018 142.919 176.017C142.918 176.017 142.916 176.017 142.914 176.017C142.865 176.016 142.814 176.016 142.765 176.016C142.757 176.016 142.749 176.016 142.741 176.016C142.693 176.017 142.645 176.018 142.597 176.019C142.589 176.019 142.581 176.02 142.573 176.02C142.524 176.021 142.474 176.023 142.424 176.025C142.423 176.025 142.421 176.025 142.42 176.026C142.371 176.028 142.321 176.031 142.272 176.034C142.267 176.035 142.262 176.035 142.257 176.035C142.208 176.039 142.16 176.043 142.112 176.047C142.106 176.048 142.099 176.048 142.091 176.049C142.043 176.054 141.995 176.059 141.948 176.064C141.944 176.064 141.94 176.065 141.937 176.065C141.887 176.07 141.838 176.077 141.789 176.084C141.789 176.084 141.789 176.084 141.788 176.084C141.74 176.09 141.691 176.097 141.644 176.104C141.638 176.106 141.633 176.106 141.629 176.107C141.581 176.114 141.535 176.123 141.488 176.131C141.484 176.131 141.48 176.132 141.477 176.133C141.381 176.15 141.287 176.17 141.195 176.191C141.193 176.192 141.191 176.192 141.189 176.192C141.143 176.203 141.099 176.214 141.054 176.225C141.051 176.226 141.047 176.227 141.044 176.227C140.907 176.263 140.775 176.303 140.649 176.346C140.648 176.347 140.646 176.347 140.645 176.348C140.602 176.362 140.561 176.377 140.521 176.392C140.397 176.439 140.28 176.49 140.171 176.545C140.171 176.545 140.171 176.545 140.171 176.545C140.062 176.6 139.961 176.658 139.869 176.72C139.869 176.721 139.868 176.721 139.868 176.721C139.776 176.783 139.693 176.848 139.62 176.916H139.619C139.485 177.042 139.384 177.178 139.324 177.323C139.17 177.692 139.328 178.066 139.72 178.383C140.557 177.709 142.394 177.385 144.077 177.677C144.86 177.814 145.488 178.073 145.882 178.391C146.066 178.242 146.203 178.077 146.278 177.897C146.42 177.556 146.295 177.21 145.966 176.91Z" fill="#184EAE"/>
<path d="M136.48 176.563C136.536 176.497 136.603 176.422 136.668 176.352C136.764 176.25 136.714 176.134 136.542 176.057L135.448 175.567C135.318 175.508 135.248 175.433 135.239 175.356V176.191C135.233 176.277 135.302 176.364 135.448 176.429L136.098 176.721C136.27 176.698 136.412 176.641 136.48 176.563Z" fill="#184EAE"/>
<path d="M151.901 177.044C151.9 176.865 151.579 176.721 151.182 176.721L149.652 176.722C149.588 176.722 149.525 176.717 149.467 176.708C149.296 176.682 149.158 176.621 149.091 176.541C149.038 176.476 148.979 176.413 148.916 176.35C148.81 176.246 148.848 176.124 149.028 176.043L150.11 175.555C150.248 175.492 150.319 175.41 150.319 175.329C150.32 175.245 150.25 175.162 150.11 175.098L148.345 174.303C148.065 174.177 147.611 174.177 147.331 174.303L146.24 174.795C146.069 174.873 145.811 174.894 145.588 174.851C145.432 174.822 145.264 174.791 145.119 174.766C144.892 174.726 144.745 174.627 144.745 174.517V173.82C144.745 173.641 144.424 173.496 144.027 173.496H141.533C141.137 173.496 140.816 173.641 140.816 173.82V174.51C140.816 174.625 140.653 174.723 140.416 174.763C140.265 174.788 140.118 174.816 139.972 174.846C139.742 174.894 139.472 174.878 139.292 174.797L138.205 174.31C137.925 174.184 137.471 174.184 137.192 174.311L135.433 175.108C135.283 175.177 135.215 175.267 135.226 175.356C135.237 175.432 135.306 175.508 135.436 175.566L136.53 176.057C136.703 176.134 136.751 176.25 136.657 176.351C136.59 176.421 136.524 176.497 136.468 176.562C136.401 176.64 136.258 176.698 136.087 176.72C136.033 176.728 135.976 176.732 135.918 176.732L134.371 176.734C133.976 176.734 133.655 176.879 133.656 177.058L133.662 178.054L133.663 178.182C133.663 178.361 133.985 178.506 134.382 178.505L135.912 178.503C136.165 178.503 136.384 178.577 136.474 178.684C136.527 178.748 136.586 178.812 136.65 178.874C136.755 178.978 136.718 179.1 136.539 179.181L135.458 179.67C135.179 179.797 135.18 180.002 135.461 180.128L137.228 180.921C137.508 181.048 137.962 181.047 138.241 180.921L139.33 180.428C139.502 180.35 139.76 180.328 139.983 180.37C140.139 180.401 140.307 180.431 140.452 180.456C140.679 180.496 140.827 180.595 140.827 180.704L140.83 181.401C140.831 181.58 141.152 181.725 141.548 181.724L144.043 181.723C144.438 181.722 144.759 181.577 144.758 181.398L144.756 180.708C144.755 180.594 144.919 180.496 145.155 180.455C145.299 180.431 145.44 180.404 145.578 180.376C145.809 180.328 146.079 180.345 146.259 180.426L147.343 180.914C147.623 181.04 148.077 181.039 148.357 180.913L150.118 180.117C150.398 179.99 150.397 179.786 150.117 179.66L149.025 179.168C148.853 179.091 148.804 178.974 148.899 178.874C149.058 178.706 149.222 178.505 149.23 178.493L151.186 178.492C151.569 178.492 151.881 178.357 151.901 178.186C151.901 178.181 151.902 178.175 151.902 178.169L151.901 177.044ZM146.257 177.897C146.183 178.076 146.046 178.242 145.862 178.391C145.024 179.065 143.187 179.388 141.505 179.096C140.722 178.961 140.093 178.701 139.699 178.383C139.308 178.066 139.149 177.692 139.304 177.323C139.364 177.178 139.465 177.042 139.599 176.916C140.381 176.184 142.303 175.819 144.056 176.124C144.898 176.27 145.561 176.559 145.946 176.909C146.275 177.21 146.4 177.556 146.257 177.897Z" fill="#9FCBFF"/>
<path opacity="0.5" d="M64.5582 150.14L65.9704 150.779L76.6746 155.623C77.1173 155.823 77.8371 155.822 78.283 155.62L89.0816 150.734L90.4875 150.098C90.698 150.002 90.8085 149.879 90.8213 149.755C90.8349 149.616 90.7269 149.475 90.4931 149.37L78.3775 143.888C77.9347 143.687 77.2142 143.688 76.7691 143.89L64.5646 149.413C64.2692 149.546 64.1699 149.734 64.2636 149.904C64.3116 149.99 64.4084 150.073 64.5582 150.14Z" fill="#9FCBFF"/>
<path d="M90.4877 147.052L89.0818 147.688L78.284 152.575C77.8381 152.776 77.1175 152.777 76.6748 152.577L65.9706 147.734L64.5592 147.095C64.4094 147.027 64.3118 146.945 64.2637 146.858H64.2285L64.2325 148.704C64.2293 148.726 64.2293 148.748 64.2325 148.77V148.775C64.2525 148.893 64.3606 149.008 64.5592 149.098L76.6748 154.58C77.1175 154.78 77.8381 154.779 78.284 154.577L90.4877 149.055C90.6862 148.965 90.7959 148.851 90.8192 148.734H90.8239V146.709H90.8215C90.8087 146.834 90.6983 146.957 90.4877 147.052Z" fill="#184EAE"/>
<path d="M64.5582 147.095L65.9704 147.733L76.6746 152.578C77.1173 152.778 77.8371 152.776 78.283 152.574L89.0816 147.688L90.4875 147.052C90.698 146.957 90.8085 146.834 90.8213 146.709C90.8349 146.571 90.7269 146.43 90.4931 146.324L78.3775 140.842C77.9347 140.642 77.2142 140.643 76.7691 140.844L64.5646 146.367C64.2692 146.5 64.1699 146.688 64.2636 146.858C64.3116 146.945 64.4092 147.027 64.5582 147.095Z" fill="url(#paint14_linear_2026_8183)"/>
<path d="M81.9777 145.856C82.7535 146.327 83.0049 146.847 82.7007 147.416C82.4909 147.808 82.041 148.138 81.338 148.381C79.9306 148.868 78.411 148.926 76.8322 148.548C76.0476 148.36 75.4792 148.068 75.1205 147.7C74.9908 147.567 74.9051 147.426 74.7963 147.285C74.5665 147.355 74.2847 147.34 74.0084 147.34C73.0613 147.338 72.1142 147.336 71.1671 147.335C70.8268 147.334 70.5514 147.276 70.3777 147.138C70.2072 147.003 70.2256 146.868 70.3977 146.737C70.4089 146.728 70.4193 146.718 70.4305 146.709C70.4826 146.686 70.5346 146.662 70.5866 146.639C70.8108 146.57 71.063 146.561 71.3256 146.563C72.2919 146.567 73.2583 146.567 74.2254 146.568C74.4296 146.568 74.6273 146.577 74.8083 146.631C74.8563 146.551 74.8963 146.473 74.9492 146.397C75.2062 146.031 75.6737 145.731 76.3518 145.502C77.2933 145.183 78.3533 145.073 79.5126 145.168C80.2276 145.226 80.8617 145.368 81.4125 145.585C81.4325 145.593 81.4565 145.599 81.4789 145.605C81.579 145.65 81.6791 145.696 81.7792 145.741C81.8456 145.78 81.9129 145.817 81.9777 145.856ZM76.6649 147.922C77.8394 148.455 79.7512 148.458 80.9241 147.929C82.097 147.399 82.0906 146.537 80.9105 146.002C79.7328 145.468 77.8241 145.465 76.6513 145.994C75.4832 146.52 75.4888 147.387 76.6649 147.922Z" fill="white"/>
<path opacity="0.5" d="M84.1606 159.32L85.572 159.959L96.2762 164.803C96.7189 165.003 97.4394 165.002 97.8846 164.8L108.683 159.914L110.089 159.278C110.3 159.182 110.41 159.059 110.423 158.935C110.437 158.796 110.328 158.655 110.095 158.55L97.9791 153.067C97.5363 152.867 96.8166 152.868 96.3706 153.07L84.1661 158.593C83.8707 158.726 83.7714 158.914 83.8651 159.084C83.9132 159.17 84.0108 159.253 84.1606 159.32Z" fill="#9FCBFF"/>
<path d="M110.139 156.115L108.733 156.751L97.9346 161.637C97.4886 161.839 96.7689 161.84 96.3262 161.64L85.622 156.796L84.2098 156.157C84.0601 156.09 83.9632 156.007 83.9151 155.921H83.8799L83.8831 157.767C83.8799 157.789 83.8799 157.811 83.8831 157.833V157.838C83.9023 157.956 84.012 158.071 84.2098 158.16L96.3262 163.643C96.7689 163.843 97.4886 163.842 97.9346 163.64L110.139 158.118C110.337 158.028 110.447 157.914 110.47 157.798L110.475 157.797V155.772H110.473C110.46 155.896 110.35 156.019 110.139 156.115Z" fill="#184EAE"/>
<path d="M84.2102 156.158L85.6217 156.797L96.3259 161.64C96.7686 161.84 97.4892 161.839 97.9351 161.638L108.733 156.752L110.14 156.115C110.349 156.02 110.46 155.897 110.473 155.773C110.487 155.633 110.379 155.493 110.145 155.387L98.0288 149.905C97.586 149.704 96.8663 149.706 96.4203 149.908L84.2159 155.43C83.9212 155.564 83.8211 155.751 83.9148 155.921C83.9628 156.008 84.0605 156.09 84.2102 156.158Z" fill="#9FCBFF"/>
<path d="M101.413 157.183C101.399 157.183 101.384 157.183 101.369 157.181L92.7458 156.368C92.6065 156.354 92.4896 156.281 92.4424 156.178C92.3952 156.075 92.4272 155.96 92.5241 155.881L94.9883 153.868C95.1292 153.753 95.363 153.749 95.5095 153.86C95.6569 153.97 95.6616 154.153 95.5207 154.268L93.5672 155.863L101.457 156.607C101.659 156.627 101.803 156.77 101.779 156.929C101.757 157.075 101.597 157.183 101.413 157.183Z" fill="white"/>
<defs>
<linearGradient id="paint0_linear_2026_8183" x1="177.976" y1="175.329" x2="177.976" y2="154.831" gradientUnits="userSpaceOnUse">
<stop stop-color="#00FFFF" stop-opacity="0"/>
<stop offset="1" stop-color="#00FFFF"/>
</linearGradient>
<linearGradient id="paint1_linear_2026_8183" x1="177.98" y1="166.617" x2="177.98" y2="154.367" gradientUnits="userSpaceOnUse">
<stop stop-color="#00FFFF" stop-opacity="0"/>
<stop offset="1" stop-color="#00FFFF"/>
</linearGradient>
<linearGradient id="paint2_linear_2026_8183" x1="148.689" y1="130.249" x2="158.771" y2="130.462" gradientUnits="userSpaceOnUse">
<stop stop-color="white"/>
<stop offset="1" stop-color="#9FC7F3"/>
</linearGradient>
<radialGradient id="paint3_radial_2026_8183" cx="0" cy="0" r="1" gradientUnits="userSpaceOnUse" gradientTransform="translate(176.334 136.525) scale(26.8049 21.0084)">
<stop stop-color="white"/>
<stop offset="1" stop-color="#9FC7F3"/>
</radialGradient>
<linearGradient id="paint4_linear_2026_8183" x1="172.57" y1="115.772" x2="183.409" y2="137.313" gradientUnits="userSpaceOnUse">
<stop stop-color="white"/>
<stop offset="1" stop-color="#9FC7F3"/>
</linearGradient>
<linearGradient id="paint5_linear_2026_8183" x1="198.056" y1="143.557" x2="208.257" y2="143.557" gradientUnits="userSpaceOnUse">
<stop stop-color="white"/>
<stop offset="1" stop-color="#9FC7F3"/>
</linearGradient>
<radialGradient id="paint6_radial_2026_8183" cx="0" cy="0" r="1" gradientUnits="userSpaceOnUse" gradientTransform="translate(184.03 100.421) scale(29.6951 28.996)">
<stop stop-color="white"/>
<stop offset="1" stop-color="#9FC7F3"/>
</radialGradient>
<radialGradient id="paint7_radial_2026_8183" cx="0" cy="0" r="1" gradientUnits="userSpaceOnUse" gradientTransform="translate(183.506 99.959) scale(29.5191 29.5313)">
<stop stop-color="white"/>
<stop offset="1" stop-color="#9FC7F3"/>
</radialGradient>
<radialGradient id="paint8_radial_2026_8183" cx="0" cy="0" r="1" gradientUnits="userSpaceOnUse" gradientTransform="translate(179.219 100.545) scale(36.7671 28.8163)">
<stop stop-color="white"/>
<stop offset="1" stop-color="#9FC7F3"/>
</radialGradient>
<linearGradient id="paint9_linear_2026_8183" x1="172.19" y1="104.594" x2="171.997" y2="125.351" gradientUnits="userSpaceOnUse">
<stop stop-color="#4E7BF4"/>
<stop offset="1" stop-color="#3556AB"/>
</linearGradient>
<radialGradient id="paint10_radial_2026_8183" cx="0" cy="0" r="1" gradientUnits="userSpaceOnUse" gradientTransform="translate(200.936 124.139) scale(0.0078406 0.00784382)">
<stop stop-color="white"/>
<stop offset="0.1732" stop-color="#FBFBFB"/>
<stop offset="0.3517" stop-color="#EEEEEE"/>
<stop offset="0.5327" stop-color="#DADADA"/>
<stop offset="0.7154" stop-color="#BDBDBD"/>
<stop offset="0.8976" stop-color="#989898"/>
<stop offset="1" stop-color="#808080"/>
</radialGradient>
<radialGradient id="paint11_radial_2026_8183" cx="0" cy="0" r="1" gradientUnits="userSpaceOnUse" gradientTransform="translate(200.936 124.139) scale(0.0078406 0.00784382)">
<stop stop-color="white"/>
<stop offset="0.1732" stop-color="#FBFBFB"/>
<stop offset="0.3517" stop-color="#EEEEEE"/>
<stop offset="0.5327" stop-color="#DADADA"/>
<stop offset="0.7154" stop-color="#BDBDBD"/>
<stop offset="0.8976" stop-color="#989898"/>
<stop offset="1" stop-color="#808080"/>
</radialGradient>
<linearGradient id="paint12_linear_2026_8183" x1="163.677" y1="137.015" x2="166.849" y2="144.661" gradientUnits="userSpaceOnUse">
<stop stop-color="#4E7BF4"/>
<stop offset="1" stop-color="#3556AB"/>
</linearGradient>
<linearGradient id="paint13_linear_2026_8183" x1="109.105" y1="167.702" x2="134.344" y2="167.702" gradientUnits="userSpaceOnUse">
<stop stop-color="#407AE6"/>
<stop offset="0.2634" stop-color="#3D77E2"/>
<stop offset="0.5348" stop-color="#346DD5"/>
<stop offset="0.8089" stop-color="#265DC1"/>
<stop offset="1" stop-color="#184EAE"/>
</linearGradient>
<linearGradient id="paint14_linear_2026_8183" x1="64.2291" y1="146.709" x2="90.8221" y2="146.709" gradientUnits="userSpaceOnUse">
<stop stop-color="#407AE6"/>
<stop offset="0.2634" stop-color="#3D77E2"/>
<stop offset="0.5348" stop-color="#346DD5"/>
<stop offset="0.8089" stop-color="#265DC1"/>
<stop offset="1" stop-color="#184EAE"/>
</linearGradient>
</defs>
</svg>
