<svg width="181" height="181" viewBox="0 0 181 181" fill="none" xmlns="http://www.w3.org/2000/svg">
<path d="M154.485 48.6841C154.454 48.6841 154.424 48.6764 154.396 48.6602L136.179 38.0758C135.809 37.8611 135.349 37.8599 134.977 38.0742L116.638 48.6603C116.554 48.7082 116.446 48.6803 116.396 48.5957C116.348 48.5112 116.377 48.4032 116.461 48.3544L134.801 37.7684C135.281 37.4916 135.877 37.4923 136.357 37.7705L154.574 48.3551C154.658 48.404 154.686 48.5119 154.637 48.5963C154.605 48.6527 154.546 48.6841 154.485 48.6841Z" fill="#DBDEE4"/>
<path d="M76.7809 73.5954C76.7202 73.5954 76.6609 73.5638 76.6278 73.5071C76.5796 73.4226 76.6085 73.3147 76.6927 73.2659L115.972 50.5927C116.055 50.5444 116.163 50.5723 116.214 50.6574C116.262 50.7418 116.233 50.8498 116.149 50.8986L76.8693 73.5718C76.8416 73.5878 76.8112 73.5954 76.7809 73.5954Z" fill="#DBDEE4"/>
<path d="M26.9861 174.384C26.9558 174.384 26.9254 174.377 26.8978 174.361L7.79473 163.346C7.51675 163.186 7.3512 162.899 7.35046 162.578C7.35046 162.258 7.51601 161.971 7.79335 161.81L35.0603 146.01C35.1424 145.961 35.252 145.989 35.3017 146.074C35.35 146.159 35.3217 146.267 35.2369 146.315L7.96998 162.116C7.80307 162.212 7.70372 162.385 7.70372 162.578C7.70372 162.771 7.8037 162.943 7.97136 163.04L27.0746 174.054C27.1587 174.103 27.1876 174.211 27.1394 174.296C27.1061 174.352 27.0468 174.384 26.9861 174.384Z" fill="#DBDEE4"/>
<path d="M23.3935 174.484C22.0933 173.735 22.0859 172.521 23.3777 171.773C24.6695 171.024 26.7722 171.024 28.0724 171.773C29.3727 172.521 29.379 173.735 28.0872 174.483C26.7954 175.232 24.6938 175.232 23.3935 174.484Z" fill="white"/>
<path d="M25.7431 175.218C24.8615 175.218 23.9786 175.024 23.3053 174.637C22.6176 174.24 22.2376 173.703 22.2368 173.123C22.2362 172.547 22.61 172.013 23.2894 171.62C24.6276 170.844 26.8129 170.844 28.1608 171.62C28.8485 172.016 29.2279 172.553 29.2285 173.132C29.2292 173.708 28.8553 174.242 28.1752 174.636C27.5062 175.024 26.6254 175.218 25.7431 175.218ZM25.7218 171.386C24.9037 171.386 24.0869 171.566 23.4661 171.925C22.9005 172.253 22.5894 172.678 22.5901 173.123C22.5908 173.571 22.9073 174 23.482 174.331C24.7305 175.05 26.7571 175.05 27.9987 174.331C28.5644 174.003 28.8761 173.577 28.8754 173.133C28.8747 172.685 28.5581 172.256 27.9841 171.926C27.3593 171.566 26.5399 171.386 25.7218 171.386Z" fill="#DBDEE4"/>
<path d="M25.7252 172.273C26.2322 172.273 26.7227 172.388 27.0712 172.589C27.3511 172.75 27.5117 172.948 27.512 173.132C27.5122 173.313 27.3548 173.509 27.08 173.668C26.7343 173.868 26.2458 173.983 25.7395 173.983C25.233 173.983 24.7429 173.868 24.3946 173.668C24.1145 173.506 23.9537 173.308 23.9534 173.124C23.9532 172.942 24.1105 172.747 24.3851 172.588C24.7304 172.388 25.2189 172.273 25.7252 172.273Z" fill="#FF1FC7"/>
<path d="M23.3935 174.484C22.0933 173.735 22.0859 172.521 23.3777 171.773C24.6695 171.024 26.7722 171.024 28.0724 171.773C29.3727 172.521 29.379 173.735 28.0872 174.483C26.7954 175.232 24.6938 175.232 23.3935 174.484Z" fill="white"/>
<path d="M25.7431 175.218C24.8615 175.218 23.9786 175.024 23.3053 174.637C22.6176 174.24 22.2376 173.703 22.2368 173.123C22.2362 172.547 22.61 172.013 23.2894 171.62C24.6276 170.844 26.8129 170.844 28.1608 171.62C28.8485 172.016 29.2279 172.553 29.2285 173.132C29.2292 173.708 28.8553 174.242 28.1752 174.636C27.5062 175.024 26.6254 175.218 25.7431 175.218ZM25.7218 171.386C24.9037 171.386 24.0869 171.566 23.4661 171.925C22.9005 172.253 22.5894 172.678 22.5901 173.123C22.5908 173.571 22.9073 174 23.482 174.331C24.7305 175.05 26.7571 175.05 27.9987 174.331C28.5644 174.003 28.8761 173.577 28.8754 173.133C28.8747 172.685 28.5581 172.256 27.9841 171.926C27.3593 171.566 26.5399 171.386 25.7218 171.386Z" fill="#DBDEE4"/>
<path d="M25.7252 172.273C26.2322 172.273 26.7227 172.388 27.0712 172.589C27.3511 172.75 27.5117 172.948 27.512 173.132C27.5122 173.313 27.3548 173.509 27.08 173.668C26.7343 173.868 26.2458 173.983 25.7395 173.983C25.233 173.983 24.7429 173.868 24.3946 173.668C24.1145 173.506 23.9537 173.308 23.9534 173.124C23.9532 172.942 24.1105 172.747 24.3851 172.588C24.7304 172.388 25.2189 172.273 25.7252 172.273Z" fill="#FF1FC7"/>
<path d="M15.4947 166.533C16.0391 166.533 16.566 166.656 16.9402 166.872C17.2408 167.045 17.4133 167.257 17.4136 167.455C17.4139 167.65 17.2448 167.86 16.9496 168.031C16.5784 168.246 16.0537 168.369 15.51 168.369C14.9661 168.369 14.4396 168.246 14.0656 168.03C13.7648 167.857 13.5921 167.645 13.5918 167.447C13.5916 167.252 13.7605 167.042 14.0555 166.871C14.4263 166.656 14.9509 166.533 15.4947 166.533Z" fill="#373B42"/>
<path d="M102.905 166.145C102.875 166.145 102.844 166.137 102.817 166.121L65.1924 144.301C65.1075 144.252 65.0793 144.144 65.1282 144.06C65.1764 143.975 65.2855 143.947 65.3689 143.995L102.993 165.815C103.078 165.864 103.106 165.972 103.057 166.057C103.025 166.113 102.966 166.145 102.905 166.145Z" fill="#DBDEE4"/>
<path d="M99.9852 166.675C98.685 165.926 98.6776 164.711 99.9694 163.961C101.261 163.212 103.364 163.213 104.664 163.962C105.964 164.711 105.971 165.926 104.679 166.675C103.387 167.424 101.285 167.424 99.9852 166.675Z" fill="white"/>
<path d="M102.334 167.41C101.453 167.41 100.57 167.216 99.8967 166.828C99.2089 166.432 98.8295 165.894 98.8289 165.314C98.8275 164.737 99.2013 164.203 99.8808 163.809C101.219 163.033 103.404 163.033 104.752 163.809C105.44 164.205 105.819 164.743 105.821 165.322C105.821 165.899 105.447 166.433 104.767 166.827C104.098 167.216 103.217 167.41 102.334 167.41ZM102.313 163.574C101.495 163.574 100.678 163.754 100.057 164.114C99.4924 164.442 99.1813 164.868 99.182 165.313C99.1827 165.762 99.4986 166.191 100.073 166.522C101.322 167.242 103.35 167.242 104.591 166.522C105.156 166.194 105.468 165.768 105.467 165.323C105.467 164.874 105.15 164.445 104.576 164.115C103.951 163.754 103.131 163.574 102.313 163.574Z" fill="#DBDEE4"/>
<path d="M102.317 164.463C102.824 164.463 103.314 164.578 103.663 164.779C103.943 164.94 104.103 165.138 104.104 165.322C104.104 165.504 103.946 165.699 103.672 165.859C103.326 166.059 102.837 166.174 102.331 166.174C101.825 166.174 101.334 166.059 100.986 165.858C100.706 165.697 100.545 165.499 100.545 165.315C100.545 165.133 100.702 164.937 100.977 164.778C101.322 164.577 101.811 164.463 102.317 164.463Z" fill="#FF1FC7"/>
<path d="M93.8768 159.685C94.4212 159.685 94.948 159.808 95.3224 160.024C95.623 160.197 95.7955 160.41 95.7958 160.608C95.796 160.803 95.627 161.013 95.3318 161.184C94.9606 161.399 94.4359 161.523 93.8922 161.523C93.3483 161.523 92.8218 161.399 92.4478 161.184C92.147 161.011 91.9743 160.798 91.974 160.6C91.9738 160.404 92.1427 160.194 92.4377 160.023C92.8084 159.808 93.333 159.685 93.8768 159.685Z" fill="#373B42"/>
<path d="M58.1268 175.415C58.0661 175.415 58.0068 175.384 57.9736 175.327C57.9254 175.243 57.9543 175.135 58.0385 175.086L77.1416 164.071C77.3092 163.975 77.4092 163.802 77.4092 163.609C77.4092 163.417 77.3099 163.244 77.1429 163.147L49.8768 147.347C49.7919 147.298 49.7636 147.19 49.8126 147.106C49.8608 147.021 49.9699 146.993 50.0533 147.041L77.3195 162.841C77.5974 163.002 77.7623 163.289 77.7623 163.61C77.7617 163.93 77.5961 164.217 77.3181 164.377L58.2149 175.392C58.1875 175.408 58.1571 175.415 58.1268 175.415Z" fill="#DBDEE4"/>
<path d="M61.7196 175.515C63.0199 174.766 63.0273 173.552 61.7354 172.804C60.4436 172.055 58.341 172.056 57.0407 172.804C55.7405 173.552 55.7341 174.766 57.0259 175.514C58.3178 176.263 60.4192 176.263 61.7196 175.515Z" fill="white"/>
<path d="M59.3698 176.249C58.4883 176.249 57.6067 176.055 56.9376 175.667C56.2575 175.273 55.8835 174.739 55.8843 174.163C55.885 173.584 56.2644 173.047 56.9521 172.651C58.2992 171.876 60.4845 171.874 61.8234 172.651C62.5029 173.044 62.8767 173.578 62.876 174.154C62.8754 174.734 62.4953 175.272 61.8075 175.668C61.1343 176.055 60.2514 176.249 59.3698 176.249ZM59.392 172.417C58.5733 172.417 57.7537 172.597 57.1288 172.957C56.5549 173.287 56.2383 173.716 56.2375 174.164C56.2368 174.609 56.5487 175.034 57.1142 175.362C58.3565 176.081 60.3832 176.081 61.631 175.362C62.2056 175.031 62.5222 174.602 62.5229 174.154C62.5235 173.71 62.2125 173.284 61.6468 172.957C61.0261 172.597 60.2094 172.417 59.392 172.417Z" fill="#DBDEE4"/>
<path d="M59.3878 173.304C58.8809 173.304 58.3904 173.419 58.0419 173.62C57.762 173.781 57.6014 173.979 57.6011 174.163C57.6009 174.344 57.7583 174.54 58.0332 174.699C58.3788 174.899 58.8673 175.014 59.3737 175.014C59.8801 175.014 60.3703 174.899 60.7186 174.699C60.9987 174.537 61.1595 174.339 61.1597 174.155C61.1599 173.973 61.0026 173.778 60.728 173.619C60.3827 173.419 59.8942 173.304 59.3878 173.304Z" fill="#FF1FC7"/>
<path d="M61.7196 175.515C63.0199 174.766 63.0273 173.552 61.7354 172.804C60.4436 172.055 58.341 172.056 57.0407 172.804C55.7405 173.552 55.7341 174.766 57.0259 175.514C58.3178 176.263 60.4192 176.263 61.7196 175.515Z" fill="white"/>
<path d="M59.3698 176.249C58.4883 176.249 57.6067 176.055 56.9376 175.667C56.2575 175.273 55.8835 174.739 55.8843 174.163C55.885 173.584 56.2644 173.047 56.9521 172.651C58.2992 171.876 60.4845 171.874 61.8234 172.651C62.5029 173.044 62.8767 173.578 62.876 174.154C62.8754 174.734 62.4953 175.272 61.8075 175.668C61.1343 176.055 60.2514 176.249 59.3698 176.249ZM59.392 172.417C58.5733 172.417 57.7537 172.597 57.1288 172.957C56.5549 173.287 56.2383 173.716 56.2375 174.164C56.2368 174.609 56.5487 175.034 57.1142 175.362C58.3565 176.081 60.3832 176.081 61.631 175.362C62.2056 175.031 62.5222 174.602 62.5229 174.154C62.5235 173.71 62.2125 173.284 61.6468 172.957C61.0261 172.597 60.2094 172.417 59.392 172.417Z" fill="#DBDEE4"/>
<path d="M59.3878 173.304C58.8809 173.304 58.3904 173.419 58.0419 173.62C57.762 173.781 57.6014 173.979 57.6011 174.163C57.6009 174.344 57.7583 174.54 58.0332 174.699C58.3788 174.899 58.8673 175.014 59.3737 175.014C59.8801 175.014 60.3703 174.899 60.7186 174.699C60.9987 174.537 61.1595 174.339 61.1597 174.155C61.1599 173.973 61.0026 173.778 60.728 173.619C60.3827 173.419 59.8942 173.304 59.3878 173.304Z" fill="#FF1FC7"/>
<path d="M69.6184 167.564C69.074 167.564 68.5471 167.687 68.1729 167.903C67.8723 168.076 67.6998 168.288 67.6995 168.486C67.6993 168.681 67.8683 168.891 68.1635 169.062C68.5347 169.277 69.0594 169.4 69.6031 169.4C70.147 169.4 70.6735 169.277 71.0475 169.062C71.3483 168.888 71.521 168.676 71.5213 168.478C71.5215 168.283 71.3526 168.073 71.0576 167.902C70.6868 167.687 70.1622 167.564 69.6184 167.564Z" fill="#373B42"/>
<g opacity="0.1">
<path d="M1.28935 137.838C-0.420761 138.825 -0.429735 140.422 1.26243 141.405L43.3786 165.873C45.0706 166.856 47.8284 166.856 49.5385 165.869L91.9232 141.406C93.6333 140.419 93.6423 138.822 91.9503 137.839L49.8341 113.371C48.142 112.388 45.3841 112.388 43.674 113.375L1.28935 137.838Z" fill="black"/>
</g>
<path d="M94.0753 132.768C94.0753 133.424 93.6495 134.079 92.7863 134.563L50.4055 159.038C49.5768 159.509 48.5064 159.751 47.4361 159.774C46.2851 159.786 45.1222 159.544 44.2359 159.038L2.11998 134.563C1.29132 134.091 0.865214 133.447 0.865214 132.802L0.830688 72.9411C0.830688 73.5855 1.25669 74.2184 2.09696 74.7016L44.2132 99.1764C45.088 99.6826 46.2733 99.9242 47.4361 99.9012C48.4949 99.8782 49.5538 99.6365 50.3709 99.1764L92.7518 74.7016C93.6151 74.2069 94.0408 73.5625 94.0408 72.9066L94.0753 132.768Z" fill="white"/>
<path d="M47.357 159.951C46.1437 159.951 45.0083 159.682 44.1481 159.191L2.0306 134.716C1.17797 134.23 0.688206 133.533 0.688206 132.802L0.653687 72.9412C0.653687 72.941 0.653687 72.941 0.653687 72.941C0.653687 72.8435 0.732971 72.7644 0.830311 72.7644C0.927546 72.7644 1.00694 72.8433 1.00694 72.9408C1.00694 73.5409 1.42565 74.1117 2.18506 74.5484L44.3018 99.0238C45.1117 99.4925 46.2581 99.7513 47.4321 99.7246C48.5082 99.7011 49.5214 99.4518 50.2837 99.0225L92.6633 74.5485C93.4379 74.1045 93.8642 73.5213 93.8642 72.9064C93.8642 72.8089 93.9435 72.7297 94.0408 72.7297C94.1381 72.7297 94.2175 72.8087 94.2175 72.9062L94.252 132.768C94.252 132.768 94.252 132.768 94.252 132.768C94.252 133.527 93.7622 134.219 92.8724 134.717L50.4936 159.191C49.6762 159.656 48.5918 159.926 47.4392 159.95C47.4122 159.951 47.3839 159.951 47.357 159.951ZM1.00768 73.9895L1.04146 132.802C1.04146 133.402 1.4664 133.988 2.20722 134.409L44.3247 158.885C45.149 159.356 46.2575 159.617 47.4336 159.598C48.5262 159.574 49.5512 159.321 50.3176 158.885L92.6978 134.41C93.4732 133.976 93.8987 133.393 93.8987 132.768L93.865 73.9653C93.6311 74.2971 93.2855 74.5991 92.8392 74.8549L50.4589 99.3295C49.6449 99.7877 48.573 100.053 47.4397 100.078C46.1843 100.102 44.9889 99.8298 44.1245 99.3293L2.0079 74.8543C1.57398 74.6048 1.23678 74.3112 1.00768 73.9895Z" fill="#373B42"/>
<path d="M39.3088 103.5C40.8562 104.394 42.0997 106.555 42.0947 108.324L41.9837 147.472C41.9786 149.249 40.727 149.962 39.1796 149.069L9.35405 131.855C7.80663 130.961 6.56317 128.808 6.56813 127.031L6.6792 87.8834C6.68416 86.1137 7.93586 85.3928 9.48327 86.286L39.3088 103.5Z" fill="#DBDEE4"/>
<path d="M2.1182 71.1374C0.408096 72.1244 0.399122 73.7214 2.09128 74.7045L44.2075 99.1722C45.8994 100.155 48.6573 100.155 50.3674 99.1681L92.7521 74.7048C94.4622 73.7178 94.4711 72.1208 92.7792 71.1379L50.663 46.6702C48.9708 45.6871 46.213 45.6871 44.5029 46.6741L2.1182 71.1374Z" fill="white"/>
<path d="M47.2772 100.082C46.1307 100.082 44.9878 99.8295 44.1186 99.3248L2.00247 74.857C1.13126 74.3506 0.651218 73.6663 0.652591 72.9303C0.65333 72.1877 1.14309 71.4966 2.03013 70.9844L44.4146 46.5212C46.1695 45.5081 49.0127 45.5074 50.7524 46.5174L92.8685 70.9853C93.7397 71.4917 94.2191 72.1759 94.2184 72.9118C94.217 73.6544 93.728 74.3455 92.8402 74.8578L50.4557 99.321C49.5775 99.8279 48.4256 100.082 47.2772 100.082ZM2.20666 71.2903C1.43342 71.7368 1.00637 72.3195 1.00574 72.9308C1.005 73.5356 1.42171 74.1112 2.18047 74.5518L44.2966 99.0195C45.9383 99.9735 48.6223 99.9718 50.2792 99.0151L92.6636 74.5519C93.4375 74.1054 93.8645 73.5228 93.8652 72.9114C93.866 72.3067 93.4493 71.7312 92.6905 71.2907L50.5744 46.8229C48.9327 45.8695 46.248 45.8706 44.5911 46.8272L2.20666 71.2903Z" fill="#373B42"/>
<path d="M69.8444 103.637C69.7837 103.637 69.7244 103.605 69.6913 103.549C69.6431 103.464 69.672 103.356 69.7561 103.307L88.6993 92.3699C88.7813 92.3217 88.8904 92.3495 88.9407 92.4346C88.989 92.5191 88.9601 92.6271 88.8759 92.6759L69.9328 103.613C69.9051 103.629 69.8748 103.637 69.8444 103.637Z" fill="#373B42"/>
<path d="M53.5852 113.525C53.488 113.525 53.4086 113.446 53.4086 113.348V103.918C53.4086 103.82 53.4879 103.741 53.5852 103.741C53.6825 103.741 53.7618 103.82 53.7618 103.918V113.348C53.7618 113.446 53.6824 113.525 53.5852 113.525Z" fill="#373B42"/>
<path d="M57.1555 111.463C57.0583 111.463 56.9789 111.384 56.9789 111.286V101.856C56.9789 101.758 57.0582 101.679 57.1555 101.679C57.2529 101.679 57.3321 101.758 57.3321 101.856V111.286C57.3321 111.384 57.2529 111.463 57.1555 111.463Z" fill="#373B42"/>
<path d="M60.7259 109.401C60.6287 109.401 60.5493 109.323 60.5493 109.225V99.7945C60.5493 99.697 60.6286 99.6179 60.7259 99.6179C60.8232 99.6179 60.9026 99.6969 60.9026 99.7945V109.225C60.9025 109.323 60.8232 109.401 60.7259 109.401Z" fill="#373B42"/>
<path d="M87.043 83.6152C88.2348 82.9273 89.2055 83.4802 89.2094 84.8454C89.2133 86.2146 88.2489 87.8843 87.057 88.5722C85.8722 89.2561 84.9015 88.7031 84.8976 87.334C84.8938 85.9689 85.8581 84.299 87.043 83.6152Z" fill="#373B42"/>
<path d="M79.3529 88.0557C80.5448 87.3678 81.5154 87.9206 81.5193 89.2858C81.5232 90.655 80.5588 92.3247 79.367 93.0127C78.1821 93.6966 77.2114 93.1436 77.2075 91.7744C77.2037 90.4093 78.1681 88.7395 79.3529 88.0557Z" fill="#FF1FC7"/>
<path d="M71.6629 92.496C72.8547 91.8081 73.8254 92.3609 73.8293 93.7261C73.8332 95.0953 72.8688 96.765 71.6769 97.4529C70.492 98.1368 69.5214 97.5839 69.5175 96.2147C69.5137 94.8496 70.478 93.1799 71.6629 92.496Z" fill="#FF1FC7"/>
<path d="M69.8444 141.889C69.7837 141.889 69.7244 141.857 69.6913 141.8C69.6431 141.716 69.672 141.608 69.7561 141.559L88.6993 130.622C88.7813 130.573 88.8904 130.601 88.9407 130.686C88.989 130.771 88.9601 130.879 88.8759 130.928L69.9328 141.865C69.9051 141.881 69.8748 141.889 69.8444 141.889Z" fill="#373B42"/>
<path d="M53.5852 151.776C53.488 151.776 53.4086 151.697 53.4086 151.599V142.169C53.4086 142.072 53.4879 141.993 53.5852 141.993C53.6825 141.993 53.7618 142.071 53.7618 142.169V151.599C53.7618 151.697 53.6824 151.776 53.5852 151.776Z" fill="#373B42"/>
<path d="M57.1555 149.715C57.0583 149.715 56.9789 149.636 56.9789 149.538V140.108C56.9789 140.01 57.0582 139.931 57.1555 139.931C57.2529 139.931 57.3321 140.01 57.3321 140.108V149.538C57.3321 149.636 57.2529 149.715 57.1555 149.715Z" fill="#373B42"/>
<path d="M60.7259 147.653C60.6287 147.653 60.5493 147.574 60.5493 147.476V138.046C60.5493 137.948 60.6286 137.87 60.7259 137.87C60.8232 137.87 60.9026 137.948 60.9026 138.046V147.476C60.9025 147.574 60.8232 147.653 60.7259 147.653Z" fill="#373B42"/>
<path d="M87.043 121.867C88.2348 121.179 89.2055 121.732 89.2094 123.097C89.2133 124.466 88.2489 126.136 87.057 126.824C85.8722 127.508 84.9015 126.955 84.8976 125.586C84.8938 124.22 85.8581 122.551 87.043 121.867Z" fill="#373B42"/>
<path d="M79.3529 126.307C80.5448 125.619 81.5154 126.172 81.5193 127.537C81.5232 128.906 80.5588 130.576 79.367 131.264C78.1821 131.948 77.2114 131.395 77.2075 130.026C77.2037 128.661 78.1681 126.991 79.3529 126.307Z" fill="#FF1FC7"/>
<path d="M71.6629 130.748C72.8547 130.06 73.8254 130.613 73.8293 131.978C73.8332 133.347 72.8688 135.017 71.6769 135.705C70.492 136.389 69.5214 135.836 69.5175 134.466C69.5137 133.101 70.478 131.431 71.6629 130.748Z" fill="#FF1FC7"/>
<path d="M69.8444 122.763C69.7837 122.763 69.7244 122.731 69.6913 122.674C69.6431 122.59 69.672 122.482 69.7561 122.433L88.6993 111.496C88.7813 111.447 88.8904 111.475 88.9407 111.56C88.989 111.645 88.9601 111.753 88.8759 111.802L69.9328 122.739C69.9051 122.755 69.8748 122.763 69.8444 122.763Z" fill="#373B42"/>
<path d="M53.5852 132.65C53.488 132.65 53.4086 132.571 53.4086 132.474V123.043C53.4086 122.946 53.4879 122.867 53.5852 122.867C53.6825 122.867 53.7618 122.946 53.7618 123.043V132.474C53.7618 132.571 53.6824 132.65 53.5852 132.65Z" fill="#373B42"/>
<path d="M57.1555 130.589C57.0583 130.589 56.9789 130.51 56.9789 130.412V120.982C56.9789 120.884 57.0582 120.805 57.1555 120.805C57.2529 120.805 57.3321 120.884 57.3321 120.982V130.412C57.3321 130.51 57.2529 130.589 57.1555 130.589Z" fill="#373B42"/>
<path d="M60.7259 128.527C60.6287 128.527 60.5493 128.448 60.5493 128.351V118.92C60.5493 118.823 60.6286 118.744 60.7259 118.744C60.8232 118.744 60.9026 118.822 60.9026 118.92V128.351C60.9025 128.448 60.8232 128.527 60.7259 128.527Z" fill="#373B42"/>
<path d="M87.043 102.741C88.2348 102.053 89.2055 102.606 89.2094 103.971C89.2133 105.34 88.2489 107.01 87.057 107.698C85.8722 108.382 84.9015 107.829 84.8976 106.46C84.8938 105.095 85.8581 103.425 87.043 102.741Z" fill="#373B42"/>
<path d="M79.3529 107.181C80.5448 106.493 81.5154 107.046 81.5193 108.411C81.5232 109.781 80.5588 111.45 79.367 112.138C78.1821 112.822 77.2114 112.269 77.2075 110.9C77.2037 109.535 78.1681 107.865 79.3529 107.181Z" fill="#FF1FC7"/>
<path d="M71.6629 111.622C72.8547 110.934 73.8254 111.487 73.8293 112.852C73.8332 114.221 72.8688 115.891 71.6769 116.579C70.492 117.263 69.5214 116.71 69.5175 115.34C69.5137 113.975 70.478 112.306 71.6629 111.622Z" fill="#FF1FC7"/>
<path d="M51.4137 119.916C51.353 119.916 51.2937 119.884 51.2606 119.828C51.2124 119.743 51.2413 119.635 51.3255 119.586L91.2922 96.5099C91.3743 96.4614 91.4832 96.4894 91.5336 96.5746C91.5819 96.6591 91.5529 96.7671 91.4688 96.8158L51.5021 119.892C51.4744 119.908 51.4441 119.916 51.4137 119.916Z" fill="#BEC4CD"/>
<path d="M51.4137 138.433C51.353 138.433 51.2937 138.401 51.2606 138.344C51.2124 138.26 51.2413 138.152 51.3255 138.103L91.2922 115.027C91.3743 114.979 91.4832 115.006 91.5336 115.091C91.5819 115.176 91.5529 115.284 91.4688 115.333L51.5021 138.409C51.4744 138.425 51.4441 138.433 51.4137 138.433Z" fill="#BEC4CD"/>
<g opacity="0.1">
<path d="M35.4965 77.6051C34.9416 77.9254 34.9388 78.4441 35.4901 78.7643L45.0359 84.3175C45.5872 84.6378 46.4829 84.6378 47.0378 84.3175L62.174 75.5813C62.7289 75.261 62.7318 74.7423 62.1806 74.422L52.6348 68.8688C52.0835 68.5485 51.1878 68.5485 50.6329 68.8688L35.4965 77.6051Z" fill="black"/>
</g>
<path d="M62.5922 72.9071C62.5922 73.2618 62.4676 73.5109 62.2639 73.6279L47.3775 82.2761C47.5813 82.1591 47.7021 81.9101 47.7059 81.5592C47.7059 80.8461 47.2039 79.9744 46.5849 79.6198L38.3779 74.8796C38.2949 74.8305 38.2231 74.7701 38.1665 74.7061C38.0419 74.5626 37.9778 74.4004 37.9439 74.2948C37.8986 74.1552 37.8571 73.9212 37.9968 73.8005L52.9095 65.1333C52.7434 65.2503 52.7887 65.4955 52.834 65.6465C52.8642 65.7483 52.9246 65.9107 53.0528 66.0539C53.1094 66.1219 53.1811 66.1823 53.268 66.2314L61.4712 70.9678C62.094 71.3223 62.596 72.1978 62.5922 72.9071Z" fill="#F0F2F5"/>
<path d="M47.3778 82.4528C47.3171 82.4528 47.2578 82.4212 47.2246 82.3647C47.1764 82.2803 47.2047 82.1724 47.2888 82.1235L47.2923 82.1214C47.442 82.0335 47.5262 81.8333 47.5296 81.5571C47.5296 80.9116 47.0565 80.0935 46.497 79.7728L38.2898 75.0323C38.1932 74.9756 38.1049 74.9033 38.0339 74.8226C37.9228 74.6945 37.8366 74.5357 37.776 74.3494C37.6815 74.0552 37.7194 73.8068 37.8808 73.6669L52.8203 64.9805C52.9031 64.9332 53.0066 64.9579 53.0583 65.0379C53.1093 65.1174 53.088 65.2231 53.0107 65.2775C52.9314 65.3333 52.9851 65.5348 53.0031 65.5953C53.0445 65.7348 53.1038 65.8461 53.1845 65.9359C53.2327 65.9942 53.2887 66.0401 53.3549 66.0775L61.5593 70.8145C62.2305 71.1963 62.7733 72.1357 62.7685 72.9078C62.7685 73.3167 62.6201 73.6268 62.3511 73.7807L47.4696 82.427C47.4688 82.4273 47.4682 82.4277 47.4675 82.428L47.4667 82.4285C47.4661 82.4287 47.4661 82.4289 47.4661 82.4291C47.4378 82.4452 47.4081 82.4528 47.3778 82.4528ZM52.6223 65.5042L38.0855 73.953C38.0654 73.974 38.0655 74.0975 38.1117 74.2408C38.1579 74.3834 38.22 74.4981 38.3 74.5906C38.3455 74.6421 38.4035 74.6899 38.4677 74.7273L46.6728 79.4668C47.3398 79.8487 47.8827 80.7875 47.8827 81.5593C47.8819 81.6404 47.8751 81.7173 47.8634 81.7899L62.1745 73.4753C62.3304 73.3861 62.4152 73.1845 62.4152 72.9071C62.4152 72.9068 62.4152 72.9065 62.4152 72.906C62.4187 72.259 61.9469 71.4416 61.3833 71.1212L53.1796 66.3844C53.0775 66.3267 52.9885 66.2534 52.9168 66.1669C52.8071 66.0439 52.7209 65.8843 52.665 65.697C52.6436 65.6266 52.6299 65.5626 52.6223 65.5042Z" fill="#373B42"/>
<path d="M61.471 70.9679C62.0938 71.3225 62.5958 72.198 62.592 72.9072C62.592 73.262 62.4675 73.511 62.2637 73.628L47.3774 82.2762C47.5811 82.1592 47.7019 81.9102 47.7057 81.5594C47.7057 80.8462 47.2037 79.9745 46.5847 79.6199" fill="#DBDEE4"/>
<path d="M47.3778 82.4529C47.317 82.4529 47.2577 82.4213 47.2246 82.3647C47.1763 82.2804 47.2046 82.1725 47.2888 82.1236L47.2929 82.1212C47.4426 82.033 47.526 81.8331 47.5295 81.5573C47.5295 80.9117 47.0563 80.0936 46.4968 79.773C46.412 79.7246 46.383 79.6166 46.4313 79.5319C46.4795 79.4474 46.5865 79.4176 46.672 79.4663C47.3397 79.8486 47.8826 80.7875 47.8826 81.5593C47.8819 81.6404 47.875 81.7173 47.8633 81.7899L62.1744 73.4753C62.3304 73.3861 62.4152 73.1845 62.4152 72.9071C62.4186 72.2591 61.9468 71.4416 61.3833 71.1212C61.2984 71.0729 61.2695 70.9652 61.3177 70.8803C61.3653 70.7956 61.4736 70.7656 61.5584 70.8142C62.2303 71.1965 62.7732 72.1359 62.7683 72.908C62.7683 73.3164 62.62 73.6268 62.351 73.7809L47.4708 82.4264C47.4687 82.4272 47.4673 82.4281 47.4659 82.4291C47.4377 82.4453 47.4081 82.4529 47.3778 82.4529Z" fill="#373B42"/>
<path d="M39.0928 63.2411C39.7155 63.6005 40.2151 64.4683 40.2131 65.1809L40.198 70.5159C40.1943 71.8173 39.7502 72.7895 38.9451 73.2456L38.0475 73.7595C37.8512 73.8713 37.8956 74.1399 37.9447 74.295C37.9892 74.4475 38.1056 74.7241 38.3798 74.8824L46.5848 79.6176C47.203 79.9745 47.707 80.8474 47.705 81.5574C47.703 82.2727 47.1956 82.5566 46.5774 82.1999L38.3724 77.4646C37.2687 76.8276 36.2817 75.5001 35.8624 74.0812C35.4432 72.6649 35.6807 71.4623 36.461 71.0126L37.3608 70.5051C37.7398 70.2893 37.9482 69.8328 37.95 69.2183L37.9651 63.8833C37.9672 63.1709 38.4747 62.8844 39.0928 63.2411Z" fill="#373B42"/>
<path d="M47.0818 82.5313C46.8962 82.5313 46.6949 82.4716 46.4893 82.353L38.2842 77.6176C37.1413 76.9577 36.1237 75.5893 35.6933 74.1312C35.2511 72.6368 35.518 71.3527 36.3728 70.8598L37.2743 70.3515C37.5944 70.1692 37.7716 69.7664 37.7736 69.2181L37.7888 63.8831C37.7902 63.4746 37.9386 63.1644 38.2076 63.0097C38.4773 62.8548 38.8236 62.8816 39.1809 63.0882C39.861 63.4807 40.3915 64.4001 40.3894 65.1815L40.3749 70.5164C40.3708 71.8874 39.8935 72.9111 39.0319 73.3993L38.1351 73.9128C38.0337 73.9709 38.0992 74.1971 38.1131 74.242C38.151 74.3711 38.2462 74.6016 38.4683 74.7295L46.6734 79.4649C47.3418 79.8509 47.8841 80.79 47.882 81.5582C47.8806 81.9673 47.7322 82.2775 47.464 82.4321C47.3487 82.4983 47.2197 82.5313 47.0818 82.5313ZM38.5911 63.2637C38.5138 63.2637 38.4441 63.2808 38.3834 63.3157C38.2289 63.4048 38.1427 63.6068 38.142 63.8841L38.1268 69.219C38.1247 69.8993 37.884 70.4106 37.4487 70.6587L36.5478 71.1665C35.8408 71.574 35.6373 72.6987 36.0311 74.0312C36.4381 75.4069 37.3914 76.6946 38.4606 77.3116L46.6657 82.047C46.9113 82.1884 47.132 82.2163 47.2872 82.1258C47.4424 82.0368 47.528 81.8348 47.5287 81.557C47.5308 80.9127 47.0583 80.0948 46.4968 79.7706L38.2917 75.0353C37.9634 74.8459 37.8275 74.5213 37.775 74.3448C37.6681 74.0051 37.735 73.7345 37.9599 73.6061L38.8573 73.0922C39.6043 72.6688 40.0175 71.7536 40.0217 70.5151L40.0361 65.1802C40.0382 64.5247 39.5753 63.7234 39.0042 63.3939C38.8545 63.3076 38.7139 63.2637 38.5911 63.2637Z" fill="#373B42"/>
<path d="M62.5921 72.8708C62.5921 73.2255 62.4675 73.4746 62.2637 73.5915L47.3774 82.2398C47.5812 82.1228 47.702 81.8737 47.7058 81.5229C47.7058 80.8098 47.2038 79.9381 46.5848 79.5834L38.3778 74.8433C38.2948 74.7942 38.223 74.7338 38.1664 74.6698C38.0418 74.5263 37.9776 74.3641 37.9437 74.2584C37.8984 74.1189 37.857 73.8849 37.9966 73.7641L52.9094 65.097C52.7433 65.214 52.7886 65.4592 52.8339 65.6102C52.8641 65.712 52.9244 65.8743 53.0527 66.0176C53.1093 66.0856 53.181 66.146 53.2679 66.1951L61.4711 70.9315C62.0939 71.286 62.5959 72.1614 62.5921 72.8708Z" fill="#F0F2F5"/>
<path d="M47.3777 82.4163C47.317 82.4163 47.2576 82.3848 47.2245 82.3281C47.1762 82.2437 47.2045 82.1359 47.2887 82.0871L47.2928 82.0847C47.4425 81.9968 47.5259 81.7967 47.5294 81.5208C47.5294 80.8751 47.0562 80.0572 46.4968 79.7368L38.2896 74.9962C38.1923 74.9391 38.1047 74.8669 38.0336 74.7863C37.9226 74.6586 37.8363 74.4996 37.7757 74.3132C37.6812 74.0189 37.7191 73.7705 37.8806 73.6306L52.8201 64.9442C52.9029 64.8969 53.0063 64.9214 53.0581 65.0014C53.1084 65.0811 53.0877 65.1868 53.0104 65.2411C52.9312 65.297 52.9849 65.4986 53.0028 65.5589C53.045 65.6988 53.1036 65.81 53.1842 65.8997C53.2325 65.958 53.2884 66.0039 53.3546 66.0413L61.5591 70.7784C62.2302 71.1605 62.7731 72.0996 62.7682 72.8717C62.7682 73.2808 62.6199 73.5907 62.3509 73.7447L47.4707 82.3898C47.4693 82.3909 47.4672 82.3919 47.4658 82.3929C47.4377 82.4087 47.4073 82.4163 47.3777 82.4163ZM52.6221 65.4677L38.0854 73.9166C38.0653 73.9376 38.0653 74.0609 38.1116 74.2043C38.1578 74.347 38.2199 74.4616 38.2992 74.5539C38.3454 74.6056 38.4034 74.6534 38.4675 74.6911L46.6725 79.4304C47.3396 79.8121 47.8824 80.751 47.8824 81.5228C47.8817 81.6037 47.8748 81.6808 47.8631 81.7534L62.1743 73.4388C62.3302 73.3498 62.415 73.1483 62.415 72.8706C62.415 72.8703 62.415 72.8699 62.415 72.8695C62.4185 72.2227 61.9466 71.4054 61.3831 71.0847L53.1794 66.3479C53.0773 66.2902 52.9883 66.2169 52.9166 66.1304C52.8069 66.0078 52.7206 65.8481 52.6648 65.6605C52.6435 65.5902 52.6297 65.5262 52.6221 65.4677Z" fill="#373B42"/>
<path d="M39.0928 63.2045C39.7155 63.5638 40.2151 64.4316 40.2131 65.1443L40.198 70.4792C40.1943 71.7806 39.7502 72.7528 38.9451 73.2089L38.0475 73.7228C37.8512 73.8346 37.8956 74.1032 37.9447 74.2583C37.9892 74.4108 38.1056 74.6874 38.3798 74.8457L46.5848 79.581C47.203 79.9378 47.707 80.8107 47.705 81.5208C47.703 82.236 47.1956 82.52 46.5774 82.1632L38.3724 77.4279C37.2687 76.7909 36.2817 75.4634 35.8624 74.0445C35.4432 72.6282 35.6807 71.4256 36.461 70.9759L37.3608 70.4684C37.7398 70.2526 37.9482 69.7961 37.95 69.1816L37.9651 63.8467C37.9672 63.1343 38.4747 62.8477 39.0928 63.2045Z" fill="#373B42"/>
<path d="M47.0818 82.4946C46.8962 82.4946 46.6949 82.4349 46.4893 82.3163L38.2842 77.5809C37.1413 76.9211 36.1237 75.5527 35.6933 74.0948C35.2511 72.6002 35.518 71.316 36.3728 70.8232L37.2743 70.3148C37.5944 70.1325 37.7716 69.7298 37.7736 69.1813L37.7888 63.8464C37.7902 63.4378 37.9386 63.1276 38.2076 62.973C38.4773 62.8183 38.8236 62.8453 39.1809 63.0516C39.861 63.4439 40.3915 64.3634 40.3894 65.1449L40.3749 70.4798C40.3708 71.8506 39.8935 72.8744 39.0319 73.3626L38.1351 73.8763C38.0337 73.9343 38.0992 74.1605 38.1131 74.2054C38.151 74.3345 38.2462 74.565 38.4683 74.6929L46.6734 79.4283C47.3418 79.8143 47.8841 80.7534 47.882 81.5216C47.8806 81.9307 47.7322 82.2411 47.464 82.3956C47.3487 82.4617 47.2197 82.4946 47.0818 82.4946ZM38.5904 63.2272C38.5138 63.2272 38.4441 63.2444 38.3834 63.2792C38.2289 63.3683 38.1427 63.5702 38.142 63.8474L38.1268 69.1823C38.1247 69.863 37.8833 70.3742 37.4487 70.622L36.5478 71.1299C35.8408 71.5374 35.6373 72.6622 36.0319 73.9947C36.4381 75.3704 37.3915 76.658 38.4606 77.2749L46.6657 82.0103C46.9113 82.1517 47.132 82.1791 47.2872 82.0893C47.4424 82.0002 47.528 81.7982 47.5287 81.5204C47.5308 80.8762 47.0583 80.0581 46.4968 79.734L38.2917 74.9986C37.9634 74.8092 37.8275 74.4847 37.775 74.3081C37.6681 73.9684 37.735 73.6978 37.9599 73.5695L38.8573 73.0555C39.6043 72.6322 40.0175 71.7172 40.0217 70.4787L40.0361 65.1438C40.0382 64.4881 39.5753 63.6867 39.0042 63.3573C38.8545 63.2711 38.7132 63.2272 38.5904 63.2272Z" fill="#373B42"/>
<path d="M53.8344 64.5963C54.6372 64.1387 55.0844 63.1673 55.0878 61.865L55.102 56.5327C55.102 55.8182 54.6056 54.9524 53.9824 54.5933C53.669 54.4103 53.3873 54.3962 53.1832 54.5159L38.2938 63.1639C38.4979 63.0441 38.7831 63.0618 39.093 63.2412C39.7162 63.6003 40.2161 64.4696 40.2126 65.1806L40.1984 70.5165C40.195 71.7308 39.8077 72.6565 39.1035 73.1422C39.1 73.1493 39.0964 73.1528 39.093 73.1528L38.0473 73.7581C38.0297 73.7687 38.0121 73.7792 37.998 73.8005L52.9086 65.1349L53.8344 64.5963Z" fill="white"/>
<path d="M37.9979 73.9768C37.9503 73.9768 37.9027 73.9573 37.8682 73.9203C37.8124 73.8596 37.8054 73.7681 37.8524 73.7C37.8889 73.6469 37.9331 73.6205 37.9572 73.6062L38.9844 73.0116C38.9906 73.0061 38.9968 73.001 39.0037 72.9966C39.6569 72.546 40.0184 71.665 40.0219 70.5158L40.0363 65.1801C40.0398 64.5359 39.5673 63.7183 39.0051 63.3942C38.765 63.2548 38.5401 63.2265 38.3863 63.3145L38.3828 63.3164C38.2979 63.3648 38.1897 63.3369 38.1414 63.2527C38.0924 63.1686 38.1207 63.0606 38.2048 63.0115C38.2062 63.0104 38.2076 63.0096 38.2089 63.0087L53.094 54.3632C53.3657 54.2037 53.7141 54.2313 54.0714 54.4408C54.7481 54.8307 55.2785 55.7497 55.2785 56.5326L55.2647 61.8654C55.2606 63.2334 54.7839 64.2574 53.9231 64.7488L38.0868 73.9528C38.0586 73.969 38.0282 73.9768 37.9979 73.9768ZM38.958 62.9822C39.0318 63.0098 39.107 63.0452 39.1815 63.0884C39.8623 63.481 40.3928 64.4002 40.3893 65.1814L40.3748 70.5169C40.3727 71.2879 40.2182 71.9538 39.9285 72.474L53.7452 64.4438C53.7459 64.4435 53.7465 64.4433 53.7465 64.443C54.4943 64.0171 54.9075 63.1013 54.9116 61.8645L54.9254 56.5323C54.9254 55.8756 54.4626 55.0742 53.8941 54.7464C53.65 54.6037 53.4299 54.5762 53.272 54.6683L38.958 62.9822Z" fill="#373B42"/>
<path d="M74.6602 3.83615C74.6555 2.15374 73.4643 1.47511 71.9997 2.32043L20.3998 32.1026C18.9351 32.9478 17.7518 34.997 17.7566 36.6794L17.8553 71.4905L74.759 38.6473L74.6602 3.83615Z" fill="#373B42"/>
<path d="M17.8552 71.667C17.8249 71.667 17.7945 71.6592 17.767 71.6434C17.7125 71.612 17.6787 71.5538 17.6787 71.4909L17.5801 36.6797C17.5752 34.9437 18.8003 32.8218 20.3116 31.9494L71.9117 2.16735C72.6794 1.72436 73.4099 1.65764 73.9707 1.98006C74.5267 2.30026 74.8343 2.95925 74.837 3.83561L74.9357 38.6468C74.9357 38.71 74.9019 38.7685 74.8474 38.8003L17.9435 71.6434C17.9159 71.6591 17.8855 71.667 17.8552 71.667ZM73.1891 2.13229C72.8553 2.13229 72.4807 2.24684 72.0882 2.47319L20.4881 32.2554C19.0746 33.0712 17.9283 35.0555 17.933 36.6788L18.031 71.1853L74.5824 38.5455L74.4838 3.83667C74.4817 3.09153 74.2368 2.54097 73.794 2.28622C73.6154 2.18328 73.4113 2.13229 73.1891 2.13229Z" fill="#373B42"/>
<path d="M18.9495 36.676C18.946 35.421 19.9024 33.7664 20.9962 33.1351L72.5962 3.35295C72.915 3.16893 73.1173 3.14919 73.1895 3.14919C73.4454 3.14919 73.4667 3.67727 73.4672 3.83922L73.5642 39.3367L19.0423 70.8075L18.9495 36.676Z" fill="white"/>
<path d="M19.0422 70.984C19.0119 70.984 18.9815 70.9763 18.954 70.9604C18.8995 70.929 18.8657 70.8708 18.8657 70.8079L18.7726 36.6764C18.7691 35.3669 19.7673 33.6406 20.9082 32.9821L72.5076 3.20004C72.8511 3.0021 73.0822 2.97264 73.1898 2.97264C73.4781 2.97264 73.6436 3.28851 73.6436 3.8394L73.7409 39.3362C73.7409 39.3994 73.7071 39.4579 73.6526 39.4897L19.1306 70.9605C19.1029 70.9761 19.0726 70.984 19.0422 70.984ZM73.1856 3.3243C73.1442 3.32568 72.9745 3.33866 72.6841 3.50589L21.0847 33.2881C20.0376 33.892 19.1223 35.4748 19.1256 36.6754L19.2181 70.5021L73.3876 39.2349L73.2904 3.83982C73.2904 3.52025 73.2222 3.34647 73.1856 3.3243Z" fill="#373B42"/>
<path d="M17.8552 71.4904L17.8698 76.6408C17.8745 78.3233 19.0656 79.0018 20.5303 78.1564L72.1302 48.3744C73.5949 47.529 74.7783 45.4799 74.7735 43.7975L74.7589 38.6472L17.8552 71.4904Z" fill="#DBDEE4"/>
<path d="M19.3404 78.6979C19.0569 78.6979 18.7934 78.6312 18.5595 78.4969C18.0036 78.1767 17.6959 77.5177 17.6932 76.6413L17.6787 71.491C17.6787 71.4277 17.7125 71.3693 17.767 71.3375L74.6709 38.4943C74.7261 38.463 74.7923 38.463 74.8474 38.4943C74.9019 38.5257 74.9357 38.5838 74.9357 38.6468L74.9501 43.797C74.955 45.5329 73.7299 47.655 72.2186 48.5276L20.6186 78.3094C20.1708 78.5677 19.7363 78.6979 19.3404 78.6979ZM18.0318 71.5922L18.0462 76.6402C18.0483 77.3853 18.2932 77.9361 18.736 78.1909C19.1837 78.4484 19.788 78.3806 20.4419 78.0036L72.0419 48.2216C73.4554 47.4056 74.6018 45.4211 74.597 43.7981L74.5831 38.9526L18.0318 71.5922Z" fill="#373B42"/>
<path d="M73.8891 2.13426C73.4062 1.85237 72.7396 1.89503 72.0002 2.32218L20.3994 32.1026C19.972 32.3503 19.5661 32.7049 19.2114 33.1193C18.9593 33.4055 18.7371 33.7174 18.5448 34.0506C18.3055 34.4607 18.1132 34.8921 17.9807 35.3279C17.8355 35.7851 17.7543 36.2422 17.7585 36.6779L17.8696 76.6429C17.8739 77.476 18.1687 78.0655 18.643 78.3432L15.579 76.5617C15.1047 76.2841 14.8098 75.6946 14.8056 74.8615L14.6945 34.8965C14.6903 34.465 14.7671 34.0122 14.9082 33.5593C15.0449 33.1236 15.2373 32.6921 15.4723 32.2862C15.6688 31.9531 15.8911 31.6327 16.1432 31.3463C16.4978 30.9276 16.9039 30.5732 17.3355 30.3253L68.9363 0.540629C69.6756 0.113374 70.3423 0.0791693 70.8252 0.356932L73.8891 2.13426Z" fill="white"/>
<path d="M73.8888 2.13489C73.4059 1.85301 72.7393 1.89566 71.9999 2.32281L20.3992 32.1033C19.6769 32.5221 19.0189 33.2355 18.5445 34.0513C18.0574 34.8886 17.754 35.8285 17.7582 36.6787L17.8693 76.6437C17.8735 77.4767 18.1684 78.0663 18.6427 78.3439L15.5775 76.5617C15.1032 76.2841 14.8083 75.6945 14.8041 74.8615L14.693 34.8965C14.6887 34.0506 14.9879 33.115 15.4708 32.2862C15.9494 31.4616 16.6075 30.7441 17.334 30.3254L68.9349 0.540629C69.6742 0.113374 70.3408 0.0791693 70.8237 0.356932L73.8888 2.13489Z" fill="#DBDEE4"/>
<path d="M18.6429 78.5205C18.6126 78.5205 18.5822 78.5128 18.5539 78.4966L15.4884 76.7144C14.9373 76.3915 14.6317 75.7338 14.6276 74.8623L14.5165 34.897C14.5124 34.0505 14.7972 33.0917 15.318 32.1974C15.832 31.3117 16.5169 30.5924 17.2461 30.1725L68.8469 0.387644C69.614 -0.0561854 70.3473 -0.120901 70.9122 0.203842L73.9707 1.97853C73.9735 1.9799 73.9756 1.98116 73.9776 1.98254C74.0617 2.03163 74.09 2.13963 74.041 2.22377C73.992 2.30844 73.8831 2.33642 73.8003 2.28775L73.7941 2.28447C73.3498 2.02804 72.7442 2.09698 72.0882 2.47588L20.4874 32.2563C19.8114 32.6481 19.1755 33.3172 18.6968 34.1402C18.2015 34.9923 17.9311 35.8935 17.9353 36.6778L18.0463 76.6431C18.0498 77.385 18.2933 77.9349 18.732 78.1916C18.8162 78.2408 18.8445 78.3489 18.7955 78.433C18.763 78.4891 18.7036 78.5205 18.6429 78.5205ZM70.1223 0.353754C69.7885 0.353754 69.4139 0.467877 69.0235 0.693487L17.4227 30.4783C16.7461 30.8679 16.1072 31.5414 15.6231 32.3748C15.1333 33.2155 14.8657 34.1107 14.8698 34.8955L14.9808 74.8608C14.9843 75.6022 15.2278 76.1523 15.6666 76.4093L17.8843 77.6986C17.7609 77.4003 17.6953 77.045 17.6932 76.6445L17.5821 36.6793C17.5773 35.8334 17.865 34.8685 18.3919 33.9625C18.901 33.0873 19.5825 32.3728 20.3109 31.9504L71.9117 2.16982C72.2711 1.96237 72.6215 1.83684 72.9498 1.7944L70.7356 0.509684C70.5541 0.405483 70.3472 0.353754 70.1223 0.353754Z" fill="#373B42"/>
<path d="M43.3689 60.8982C43.3689 61.3921 43.0238 61.991 42.5936 62.2386C42.1648 62.4848 41.8168 62.2888 41.8152 61.7948C41.8137 61.3008 42.1603 60.702 42.5891 60.4543C43.0177 60.2067 43.3673 60.4042 43.3689 60.8982Z" fill="#373B42"/>
<path d="M47.0419 58.7783C47.0419 59.2723 46.6968 59.8711 46.2666 60.1188C45.8378 60.365 45.4896 60.1689 45.4882 59.6751C45.4867 59.1812 45.8333 58.5823 46.262 58.3346C46.6907 58.0867 47.0403 58.2844 47.0419 58.7783Z" fill="#373B42"/>
<path d="M50.7149 56.6582C50.7149 57.1522 50.3698 57.751 49.9395 57.9987C49.5108 58.2449 49.1627 58.0488 49.1611 57.5548C49.1597 57.0609 49.5063 56.4621 49.935 56.2144C50.3636 55.9667 50.7133 56.1643 50.7149 56.6582Z" fill="#373B42"/>
<path d="M64.7805 13.9873C64.7198 13.9873 64.6605 13.9555 64.6273 13.899C64.5791 13.8146 64.608 13.7066 64.6922 13.6578L68.2494 11.6047C68.3315 11.5565 68.4405 11.5844 68.4909 11.6693C68.5391 11.7538 68.5102 11.8618 68.426 11.9106L64.8688 13.9638C64.8412 13.9797 64.8108 13.9873 64.7805 13.9873Z" fill="#373B42"/>
<path d="M46.55 24.5095C46.4893 24.5095 46.4299 24.4777 46.3969 24.4212C46.3486 24.3367 46.3776 24.2287 46.4617 24.18L62.0476 15.1842C62.1296 15.1359 62.2387 15.1638 62.289 15.2488C62.3373 15.3333 62.3083 15.4413 62.2242 15.49L46.6383 24.4858C46.6107 24.5019 46.5804 24.5095 46.55 24.5095Z" fill="#FF1FC7"/>
<path d="M32.7913 32.4503C32.7306 32.4503 32.6713 32.4185 32.6382 32.3621C32.59 32.2776 32.6189 32.1696 32.703 32.1208L42.8175 26.2831C42.9002 26.2348 43.0085 26.2627 43.0589 26.3478C43.1072 26.4322 43.0782 26.5402 42.9941 26.589L32.8797 32.4268C32.852 32.4427 32.8217 32.4503 32.7913 32.4503Z" fill="#373B42"/>
<path d="M43.1671 30.3071C43.1064 30.3071 43.0471 30.2753 43.0141 30.2188C42.9658 30.1343 42.9947 30.0263 43.0789 29.9776L60.194 20.0991C60.2768 20.0506 60.3851 20.0787 60.4355 20.1637C60.4837 20.2482 60.4548 20.3562 60.3706 20.4049L43.2555 30.2834C43.2279 30.2995 43.1974 30.3071 43.1671 30.3071Z" fill="#373B42"/>
<path d="M32.7913 36.2954C32.7306 36.2954 32.6713 36.2637 32.6382 36.2071C32.59 36.1226 32.6189 36.0146 32.703 35.9659L39.7369 31.9061C39.819 31.858 39.9286 31.886 39.9783 31.9708C40.0266 32.0552 39.9976 32.1632 39.9135 32.212L32.8797 36.2717C32.852 36.2877 32.8217 36.2954 32.7913 36.2954Z" fill="#373B42"/>
<path d="M24.1027 37.4654C24.042 37.4654 23.9827 37.4339 23.9496 37.3772C23.9014 37.2927 23.9303 37.1847 24.0144 37.1359L29.0748 34.2148C29.1575 34.1664 29.2659 34.1944 29.3162 34.2795C29.3645 34.3639 29.3355 34.4719 29.2514 34.5207L24.1911 37.4418C24.1634 37.4578 24.1331 37.4654 24.1027 37.4654Z" fill="#373B42"/>
<path d="M24.1027 41.3107C24.042 41.3107 23.9827 41.2792 23.9496 41.2225C23.9014 41.138 23.9303 41.03 24.0144 40.9812L29.0748 38.0602C29.1575 38.012 29.2659 38.0399 29.3162 38.1249C29.3645 38.2093 29.3355 38.3173 29.2514 38.3661L24.1911 41.2871C24.1634 41.3031 24.1331 41.3107 24.1027 41.3107Z" fill="#FF1FC7"/>
<path d="M60.2824 24.2737C60.2217 24.2737 60.1623 24.2419 60.1293 24.1854C60.0811 24.101 60.11 23.993 60.1941 23.9442L68.2495 19.2951C68.3315 19.2466 68.4406 19.2747 68.491 19.3598C68.5392 19.4443 68.5103 19.5523 68.4261 19.601L60.3707 24.2502C60.3431 24.2661 60.3128 24.2737 60.2824 24.2737Z" fill="#373B42"/>
<path d="M50.7149 29.7959C50.6542 29.7959 50.5948 29.7641 50.5618 29.7076C50.5135 29.6232 50.5425 29.5152 50.6266 29.4664L57.0727 25.7457C57.1548 25.6972 57.2638 25.7253 57.3142 25.8104C57.3624 25.8948 57.3335 26.0028 57.2494 26.0516L50.8032 29.7723C50.7756 29.7883 50.7453 29.7959 50.7149 29.7959Z" fill="#373B42"/>
<path d="M32.7913 40.1407C32.7306 40.1407 32.6713 40.1089 32.6382 40.0524C32.59 39.968 32.6189 39.86 32.703 39.8112L47.3466 31.3595C47.4288 31.3114 47.5377 31.3394 47.5881 31.4243C47.6363 31.5087 47.6074 31.6167 47.5233 31.6655L32.8797 40.117C32.852 40.1331 32.8217 40.1407 32.7913 40.1407Z" fill="#FF1FC7"/>
<path d="M24.1027 45.1559C24.042 45.1559 23.9827 45.1243 23.9496 45.0676C23.9014 44.9831 23.9303 44.8751 24.0144 44.8264L29.0748 41.9054C29.1575 41.8572 29.2659 41.8849 29.3162 41.9701C29.3645 42.0545 29.3355 42.1625 29.2514 42.2113L24.1911 45.1323C24.1634 45.1482 24.1331 45.1559 24.1027 45.1559Z" fill="#373B42"/>
<path d="M56.7795 30.1406C56.7187 30.1406 56.6594 30.1088 56.6264 30.0523C56.5781 29.9679 56.607 29.8599 56.6912 29.8111L65.1832 24.9096C65.266 24.8612 65.3743 24.8893 65.4247 24.9743C65.4729 25.0588 65.444 25.1668 65.3599 25.2156L56.8678 30.117C56.8402 30.133 56.8099 30.1406 56.7795 30.1406Z" fill="#FF1FC7"/>
<path d="M40.1134 39.7599C40.0527 39.7599 39.9934 39.7282 39.9602 39.6717C39.912 39.5872 39.9409 39.4792 40.0251 39.4304L52.847 32.03C52.9291 31.9818 53.038 32.0098 53.0884 32.0946C53.1367 32.179 53.1077 32.287 53.0236 32.3358L40.2017 39.7363C40.1741 39.7523 40.1438 39.7599 40.1134 39.7599Z" fill="#373B42"/>
<path d="M32.7913 43.9858C32.7306 43.9858 32.6713 43.9541 32.6382 43.8975C32.59 43.8131 32.6189 43.7051 32.703 43.6563L35.9134 41.8037C35.9955 41.7552 36.1045 41.7833 36.1548 41.8683C36.2031 41.9528 36.1741 42.0608 36.09 42.1095L32.8797 43.9621C32.852 43.9782 32.8217 43.9858 32.7913 43.9858Z" fill="#373B42"/>
<path d="M24.1027 49.001C24.042 49.001 23.9827 48.9695 23.9496 48.9128C23.9014 48.8283 23.9303 48.7203 24.0144 48.6715L29.0748 45.7505C29.1575 45.7021 29.2659 45.73 29.3162 45.8151C29.3645 45.8996 29.3355 46.0076 29.2514 46.0564L24.1911 48.9774C24.1634 48.9934 24.1331 49.001 24.1027 49.001Z" fill="#373B42"/>
<path d="M63.6473 30.022C63.5866 30.022 63.5272 29.9902 63.4942 29.9338C63.4459 29.8493 63.4748 29.7413 63.559 29.6925L68.2496 26.9853C68.3316 26.9372 68.4407 26.9651 68.4911 27.0499C68.5393 27.1344 68.5104 27.2424 68.4262 27.2912L63.7356 29.9984C63.708 30.0144 63.6776 30.022 63.6473 30.022Z" fill="#373B42"/>
<path d="M50.5646 37.573C50.5039 37.573 50.4446 37.5413 50.4115 37.4848C50.3633 37.4003 50.3922 37.2923 50.4764 37.2435L60.9378 31.2057C61.0198 31.1572 61.1295 31.1853 61.1792 31.2704C61.2275 31.3549 61.1986 31.4629 61.1144 31.5117L50.653 37.5495C50.6253 37.5654 50.595 37.573 50.5646 37.573Z" fill="#FF1FC7"/>
<path d="M32.7913 47.831C32.7306 47.831 32.6713 47.7992 32.6382 47.7427C32.59 47.6582 32.6189 47.5502 32.703 47.5015L47.3466 39.0498C47.4288 39.0016 47.5377 39.0294 47.5881 39.1144C47.6363 39.1989 47.6074 39.3069 47.5233 39.3557L32.8797 47.8074C32.852 47.8234 32.8217 47.831 32.7913 47.831Z" fill="#373B42"/>
<path d="M24.1027 52.8463C24.042 52.8463 23.9827 52.8147 23.9496 52.758C23.9014 52.6736 23.9303 52.5656 24.0144 52.5168L29.0748 49.5958C29.1575 49.5476 29.2659 49.5754 29.3162 49.6604C29.3645 49.7449 29.3355 49.8529 29.2514 49.9016L24.1911 52.8227C24.1634 52.8387 24.1331 52.8463 24.1027 52.8463Z" fill="#FF1FC7"/>
<path d="M61.026 35.3804C60.9653 35.3804 60.906 35.3486 60.873 35.2921C60.8247 35.2077 60.8536 35.0997 60.9378 35.0509L66.3319 31.9375C66.4147 31.8893 66.523 31.9172 66.5734 32.0022C66.6216 32.0867 66.5927 32.1947 66.5086 32.2435L61.1144 35.3568C61.0867 35.3728 61.0563 35.3804 61.026 35.3804Z" fill="#FF1FC7"/>
<path d="M46.2223 43.9247C46.1616 43.9247 46.1023 43.8929 46.0692 43.8364C46.021 43.7519 46.0499 43.6439 46.1341 43.5952L57.0494 37.2947C57.1315 37.2462 57.2411 37.2743 57.2908 37.3594C57.3391 37.4438 57.3102 37.5518 57.226 37.6006L46.3107 43.9011C46.283 43.917 46.2526 43.9247 46.2223 43.9247Z" fill="#373B42"/>
<path d="M32.7913 51.6762C32.7306 51.6762 32.6713 51.6444 32.6382 51.5879C32.59 51.5035 32.6189 51.3955 32.703 51.3467L42.0208 45.969C42.1036 45.9209 42.2119 45.9489 42.2622 46.0337C42.3105 46.1182 42.2816 46.2262 42.1974 46.275L32.8797 51.6527C32.852 51.6686 32.8217 51.6762 32.7913 51.6762Z" fill="#FF1FC7"/>
<path d="M24.1027 56.6914C24.042 56.6914 23.9827 56.6598 23.9496 56.6031C23.9014 56.5187 23.9303 56.4107 24.0144 56.3619L29.0748 53.4408C29.1575 53.3926 29.2659 53.4203 29.3162 53.5055C29.3645 53.59 29.3355 53.698 29.2514 53.7467L24.1911 56.6678C24.1634 56.6838 24.1331 56.6914 24.1027 56.6914Z" fill="#373B42"/>
<g opacity="0.1">
<path d="M172.285 153.778C183.073 160.004 183.134 170.105 172.416 176.332C161.699 182.558 144.255 182.555 133.468 176.329C122.68 170.103 122.628 160.007 133.345 153.781C144.063 147.554 161.497 147.552 172.285 153.778Z" fill="black"/>
</g>
<path d="M180.823 151.882L180.792 160.315C180.781 164.37 178.117 168.418 172.793 171.511C162.076 177.737 144.632 177.734 133.845 171.508C128.417 168.376 125.707 164.264 125.719 160.158L125.75 151.725C125.738 155.831 128.448 159.943 133.875 163.075C144.663 169.302 162.107 169.304 172.824 163.078C178.147 159.985 180.812 155.937 180.823 151.882Z" fill="#BEC4CD"/>
<path d="M151.15 167.691V176.124C152.577 176.19 154.009 176.192 155.436 176.129V167.697C154.009 167.759 152.577 167.757 151.15 167.691Z" fill="#F1F2F6"/>
<path d="M153.35 176.347C146.263 176.347 139.169 174.785 133.756 171.661C128.447 168.597 125.53 164.512 125.542 160.157L125.573 151.724C125.574 151.627 125.652 151.548 125.75 151.548H125.75C125.848 151.549 125.926 151.628 125.926 151.726V151.726C125.914 155.948 128.769 159.924 133.964 162.922C144.689 169.113 162.083 169.113 172.736 162.925C177.826 159.968 180.635 156.046 180.647 151.882V151.881C180.648 151.784 180.726 151.705 180.824 151.705H180.824C180.921 151.706 181 151.785 181 151.883V151.884C181 151.888 181 151.892 181 151.896L180.969 160.316C180.957 164.611 178.085 168.641 172.883 171.663C167.508 174.785 160.432 176.347 153.35 176.347ZM125.916 154.313L125.895 160.159C125.884 164.381 128.738 168.357 133.932 171.355C144.659 177.546 162.051 177.548 172.704 171.358C177.794 168.401 180.604 164.479 180.616 160.314L180.637 154.481C179.713 157.786 177.05 160.827 172.913 163.23C162.161 169.476 144.61 169.475 133.787 163.228C129.545 160.78 126.83 157.68 125.916 154.313Z" fill="#373B42"/>
<path d="M172.693 140.524C183.48 146.75 183.542 156.851 172.824 163.078C162.107 169.304 144.663 169.301 133.876 163.075C123.088 156.849 123.036 146.753 133.753 140.527C144.471 134.3 161.905 134.298 172.693 140.524Z" fill="#373B42"/>
<path d="M153.38 167.914C146.293 167.914 139.2 166.352 133.787 163.228C128.496 160.174 125.579 156.103 125.573 151.765C125.567 147.454 128.44 143.409 133.664 140.374C144.415 134.128 161.962 134.127 172.781 140.371C178.075 143.426 180.994 147.5 181 151.842C181.006 156.153 178.134 160.197 172.914 163.23C167.539 166.352 160.463 167.914 153.38 167.914ZM153.201 136.037C146.181 136.037 139.17 137.584 133.842 140.679C128.731 143.648 125.92 147.585 125.926 151.764C125.932 155.971 128.787 159.934 133.964 162.922C144.689 169.113 162.083 169.113 172.736 162.925C177.843 159.958 180.652 156.022 180.647 151.843C180.641 147.632 177.785 143.666 172.605 140.677C167.246 137.584 160.218 136.037 153.201 136.037Z" fill="#373B42"/>
<path d="M153.381 166.487C146.239 166.487 139.536 164.888 134.505 161.985C129.677 159.198 127.015 155.568 127.009 151.763C127.004 147.986 129.624 144.382 134.386 141.615C139.381 138.713 146.064 137.115 153.201 137.115C160.337 137.115 167.035 138.713 172.063 141.614C176.895 144.403 179.558 148.036 179.564 151.844C179.569 155.621 176.951 159.224 172.191 161.989C167.199 164.89 160.518 166.487 153.381 166.487Z" fill="#FF1FC7"/>
<path d="M153.381 166.664C146.209 166.664 139.474 165.056 134.417 162.138C129.532 159.318 126.838 155.634 126.833 151.763C126.828 147.92 129.479 144.262 134.297 141.463C139.319 138.545 146.033 136.938 153.201 136.938C160.368 136.938 167.098 138.544 172.151 141.461C177.04 144.283 179.735 147.97 179.741 151.844C179.746 155.686 177.097 159.343 172.28 162.142C167.261 165.058 160.549 166.664 153.381 166.664ZM153.201 137.291C146.094 137.291 139.443 138.881 134.475 141.768C129.77 144.501 127.181 148.051 127.186 151.762C127.191 155.502 129.822 159.078 134.593 161.832C139.598 164.72 146.27 166.311 153.381 166.311C160.488 166.311 167.137 164.722 172.102 161.837C176.805 159.104 179.393 155.556 179.387 151.845C179.382 148.102 176.749 144.523 171.975 141.767C166.974 138.881 160.307 137.291 153.201 137.291Z" fill="#373B42"/>
<path d="M174.135 131.73C174.135 137.171 169.735 141.588 164.292 141.588C164.033 141.588 163.774 141.579 163.519 141.556C158.44 141.165 154.449 136.911 154.449 131.73C154.449 128.641 152.97 122.004 152.079 121.431C151.027 122.509 149.562 123.177 147.938 123.177C144.748 123.177 142.167 120.589 142.167 117.395C142.167 116.458 142.39 115.571 142.786 114.789H142.791C143.737 112.91 145.685 111.627 147.938 111.627C149.08 111.627 150.145 111.959 151.041 112.528C152.088 111.449 153.553 110.781 155.173 110.781C157.567 110.781 159.614 112.232 160.488 114.302C160.975 114.165 161.489 114.093 162.022 114.093C164.952 114.093 167.369 116.267 167.742 119.092C169.758 119.988 171.159 122.008 171.159 124.356C171.159 124.46 171.155 124.565 171.15 124.67C172.993 126.457 174.135 128.959 174.135 131.73Z" fill="white"/>
<path d="M164.292 141.765C164.006 141.765 163.747 141.754 163.503 141.732C158.329 141.334 154.273 136.94 154.273 131.73C154.273 128.556 152.863 122.605 152.085 121.674C150.967 122.759 149.501 123.354 147.938 123.354C144.658 123.354 141.991 120.681 141.991 117.395C141.991 116.463 142.212 115.534 142.629 114.709C142.634 114.697 142.642 114.686 142.65 114.676C143.669 112.685 145.691 111.451 147.938 111.451C149.026 111.451 150.086 111.745 151.015 112.304C152.131 111.207 153.602 110.604 155.173 110.604C157.518 110.604 159.628 111.968 160.59 114.092C161.055 113.975 161.536 113.916 162.022 113.916C164.962 113.916 167.473 116.083 167.904 118.972C169.993 119.942 171.336 122.045 171.336 124.356C171.336 124.437 171.333 124.518 171.33 124.598C173.254 126.493 174.312 129.022 174.312 131.73C174.312 137.263 169.817 141.765 164.292 141.765ZM152.078 121.254C152.111 121.254 152.144 121.263 152.173 121.282C153.161 121.916 154.626 128.675 154.626 131.73C154.626 136.757 158.538 140.996 163.532 141.38C163.768 141.401 164.017 141.412 164.292 141.412C169.623 141.412 173.958 137.069 173.958 131.73C173.958 129.092 172.918 126.63 171.028 124.796C170.992 124.761 170.972 124.713 170.974 124.663C170.979 124.534 170.983 124.445 170.983 124.356C170.983 122.151 169.682 120.148 167.67 119.254C167.614 119.229 167.575 119.176 167.567 119.115C167.202 116.353 164.818 114.269 162.022 114.269C161.516 114.269 161.016 114.338 160.536 114.472C160.451 114.497 160.36 114.453 160.325 114.371C159.45 112.297 157.427 110.958 155.173 110.958C153.65 110.958 152.228 111.559 151.168 112.651C151.108 112.711 151.016 112.722 150.946 112.677C150.046 112.106 149.005 111.804 147.937 111.804C145.812 111.804 143.901 112.978 142.949 114.868C142.942 114.88 142.936 114.891 142.927 114.901C142.545 115.668 142.344 116.53 142.344 117.395C142.344 120.486 144.853 123.001 147.937 123.001C149.462 123.001 150.888 122.4 151.952 121.307C151.986 121.272 152.032 121.254 152.078 121.254Z" fill="#373B42"/>
<path d="M165.829 136.056C165.614 136.056 165.397 136.04 165.184 136.008C165.088 135.994 165.021 135.904 165.035 135.808C165.05 135.711 165.139 135.643 165.235 135.659C165.449 135.69 165.662 135.703 165.878 135.702C166.66 135.693 167.624 135.331 168.395 134.759C168.473 134.701 168.584 134.717 168.642 134.795C168.7 134.873 168.684 134.984 168.606 135.042C167.779 135.657 166.735 136.045 165.882 136.055C165.864 136.056 165.847 136.056 165.829 136.056Z" fill="#373B42"/>
<path d="M170.071 136.064C170.064 136.064 170.057 136.064 170.05 136.063C169.359 135.982 168.724 135.583 168.351 134.995C167.979 134.408 167.889 133.663 168.11 133.003C168.141 132.911 168.239 132.862 168.335 132.892C168.427 132.923 168.477 133.023 168.446 133.116C168.26 133.668 168.338 134.315 168.649 134.806C168.961 135.298 169.513 135.645 170.091 135.712C170.188 135.724 170.258 135.811 170.246 135.908C170.236 135.998 170.159 136.064 170.071 136.064Z" fill="#373B42"/>
<path d="M165.471 135.874C165.471 137.926 164.588 139.978 163.519 141.556C158.44 141.165 154.449 136.912 154.449 131.73C154.449 128.641 152.97 122.004 152.078 121.431C151.027 122.509 149.562 123.177 147.937 123.177C144.747 123.177 142.167 120.589 142.167 117.395C142.167 116.458 142.39 115.571 142.786 114.789H142.791C147.373 114.088 150.126 115.671 151.933 117.864C151.987 117.859 152.047 117.859 152.101 117.859C155.291 117.859 157.871 120.439 157.871 123.632C157.871 123.732 157.867 123.832 157.862 123.933C158.031 123.914 158.204 123.905 158.377 123.905C161.107 123.905 163.309 126.112 163.309 128.841C163.309 129.114 163.287 129.378 163.246 129.637C164.638 131.334 165.471 133.504 165.471 135.874Z" fill="#373B42"/>
<path d="M163.518 141.733C163.514 141.733 163.509 141.733 163.505 141.732C158.328 141.334 154.273 136.94 154.273 131.73C154.273 128.556 152.863 122.605 152.084 121.674C150.967 122.759 149.501 123.354 147.937 123.354C144.658 123.354 141.991 120.681 141.991 117.395C141.991 116.463 142.211 115.534 142.629 114.709C142.658 114.649 142.719 114.612 142.786 114.612C146.75 114.006 149.773 115.01 152.012 117.684C152.043 117.683 152.072 117.683 152.101 117.683C155.38 117.683 158.048 120.352 158.048 123.632C158.048 123.668 158.047 123.704 158.047 123.74C158.156 123.732 158.267 123.729 158.377 123.729C161.194 123.729 163.486 126.022 163.486 128.841C163.486 129.089 163.468 129.333 163.432 129.586C164.862 131.357 165.648 133.587 165.648 135.874C165.648 138.358 164.406 140.563 163.665 141.655C163.632 141.704 163.576 141.733 163.518 141.733ZM152.078 121.254C152.111 121.254 152.144 121.263 152.173 121.282C153.161 121.916 154.626 128.675 154.626 131.73C154.626 136.722 158.485 140.937 163.43 141.372C164.152 140.286 165.295 138.201 165.295 135.874C165.295 133.642 164.519 131.467 163.109 129.749C163.078 129.71 163.064 129.66 163.072 129.61C163.113 129.347 163.133 129.096 163.133 128.841C163.133 126.217 160.999 124.082 158.377 124.082C158.21 124.082 158.044 124.091 157.882 124.108C157.824 124.113 157.778 124.097 157.741 124.061C157.704 124.026 157.684 123.976 157.686 123.924C157.691 123.827 157.695 123.73 157.695 123.632C157.695 120.546 155.185 118.036 152.101 118.036C152.05 118.036 151.998 118.036 151.948 118.04C151.881 118.046 151.833 118.021 151.796 117.976C149.652 115.374 146.739 114.384 142.903 114.951C142.537 115.705 142.344 116.549 142.344 117.396C142.344 120.486 144.853 123.001 147.937 123.001C149.462 123.001 150.888 122.4 151.952 121.307C151.986 121.272 152.032 121.254 152.078 121.254Z" fill="#373B42"/>
<path d="M165.014 136.328C165.014 141.769 160.614 146.181 155.171 146.181C152.291 146.181 149.697 144.944 147.895 142.97C147.203 143.352 146.402 143.566 145.556 143.566C143.685 143.566 142.07 142.515 141.251 140.973C138.907 140.864 137.046 138.93 137.046 136.56C137.046 136.169 137.096 135.796 137.192 135.436C134.288 135.136 132.031 132.675 132.031 129.691C132.031 128.822 132.222 127.998 132.568 127.261C131.972 126.352 131.622 125.255 131.622 124.086C131.622 121.32 133.56 119.009 136.159 118.449C137.956 116.179 140.741 114.728 143.868 114.728C146.935 114.728 149.669 116.125 151.476 118.318C151.531 118.313 151.59 118.313 151.644 118.313C154.834 118.313 157.415 120.892 157.415 124.086C157.415 124.186 157.41 124.286 157.406 124.386C157.574 124.368 157.747 124.359 157.92 124.359C160.65 124.359 162.853 126.565 162.853 129.295C162.853 129.568 162.83 129.832 162.789 130.091C164.181 131.788 165.014 133.958 165.014 136.328Z" fill="white"/>
<path d="M155.171 146.358C152.407 146.358 149.749 145.205 147.857 143.189C147.155 143.551 146.363 143.742 145.556 143.742C143.718 143.742 142.036 142.749 141.142 141.143C138.738 140.98 136.87 138.985 136.87 136.56C136.87 136.23 136.905 135.904 136.973 135.588C134.041 135.185 131.855 132.685 131.855 129.69C131.855 128.845 132.027 128.033 132.367 127.275C131.764 126.32 131.445 125.22 131.445 124.086C131.445 121.324 133.382 118.897 136.059 118.29C137.966 115.913 140.808 114.551 143.868 114.551C146.847 114.551 149.644 115.857 151.555 118.137C151.586 118.136 151.615 118.136 151.644 118.136C154.924 118.136 157.591 120.805 157.591 124.086C157.591 124.121 157.59 124.157 157.59 124.193C157.699 124.186 157.81 124.182 157.92 124.182C160.737 124.182 163.029 126.476 163.029 129.295C163.029 129.544 163.012 129.788 162.975 130.04C164.404 131.81 165.191 134.04 165.191 136.328C165.191 141.858 160.696 146.358 155.171 146.358ZM147.895 142.793C147.943 142.793 147.99 142.813 148.025 142.851C149.855 144.855 152.46 146.005 155.171 146.005C160.501 146.005 164.837 141.664 164.837 136.328C164.837 134.095 164.061 131.92 162.652 130.203C162.62 130.164 162.606 130.113 162.614 130.063C162.656 129.802 162.676 129.551 162.676 129.295C162.676 126.67 160.543 124.535 157.92 124.535C157.753 124.535 157.587 124.544 157.425 124.562C157.367 124.567 157.321 124.55 157.284 124.514C157.247 124.479 157.227 124.429 157.229 124.377C157.234 124.28 157.238 124.183 157.238 124.086C157.238 121 154.728 118.489 151.644 118.489C151.583 118.488 151.539 118.489 151.49 118.493C151.435 118.497 151.376 118.474 151.339 118.43C149.494 116.19 146.77 114.905 143.867 114.905C140.895 114.905 138.136 116.237 136.297 118.559C136.271 118.591 136.235 118.613 136.195 118.622C133.647 119.171 131.798 121.469 131.798 124.086C131.798 125.184 132.115 126.248 132.715 127.164C132.749 127.216 132.754 127.281 132.728 127.336C132.383 128.072 132.208 128.864 132.208 129.69C132.208 132.571 134.358 134.965 137.21 135.26C137.261 135.266 137.308 135.293 137.337 135.336C137.366 135.378 137.376 135.432 137.362 135.482C137.27 135.828 137.223 136.191 137.223 136.56C137.223 138.83 138.995 140.691 141.259 140.796C141.321 140.799 141.377 140.834 141.406 140.89C142.226 142.431 143.815 143.389 145.555 143.389C146.35 143.389 147.13 143.19 147.809 142.815C147.836 142.8 147.866 142.793 147.895 142.793Z" fill="#373B42"/>
<path d="M161.972 132.29C161.937 132.29 161.902 132.28 161.871 132.258C161.791 132.203 161.771 132.092 161.827 132.012C162.384 131.213 162.678 130.272 162.678 129.293C162.678 129.195 162.757 129.116 162.854 129.116C162.952 129.116 163.031 129.195 163.031 129.293C163.031 130.345 162.715 131.355 162.117 132.214C162.082 132.263 162.028 132.29 161.972 132.29Z" fill="#373B42"/>
<path d="M156.83 126.802C156.804 126.802 156.778 126.797 156.752 126.784C156.665 126.741 156.629 126.636 156.672 126.548C157.049 125.779 157.24 124.949 157.24 124.084C157.24 120.999 154.73 118.489 151.644 118.489C150.48 118.489 149.365 118.842 148.42 119.509C148.34 119.565 148.23 119.546 148.174 119.466C148.117 119.387 148.136 119.276 148.216 119.22C149.221 118.511 150.406 118.136 151.644 118.136C154.925 118.136 157.593 120.804 157.593 124.084C157.593 125.004 157.39 125.885 156.989 126.704C156.958 126.766 156.895 126.802 156.83 126.802Z" fill="#373B42"/>
<path d="M140.149 119.185C140.121 119.185 140.092 119.178 140.065 119.164C138.649 118.395 136.891 118.283 135.392 118.857C135.297 118.892 135.198 118.846 135.164 118.756C135.129 118.664 135.174 118.562 135.265 118.528C136.862 117.916 138.728 118.036 140.233 118.853C140.319 118.9 140.35 119.007 140.304 119.093C140.272 119.152 140.212 119.185 140.149 119.185Z" fill="#373B42"/>
<path d="M137.804 135.65C134.524 135.65 131.855 132.978 131.855 129.693C131.855 128.12 132.461 126.638 133.563 125.519C133.632 125.45 133.744 125.449 133.813 125.517C133.881 125.586 133.883 125.698 133.814 125.767C132.779 126.819 132.208 128.213 132.208 129.693C132.208 132.783 134.718 135.297 137.804 135.297C139.169 135.297 140.483 134.8 141.505 133.898C141.577 133.833 141.689 133.84 141.754 133.913C141.818 133.986 141.811 134.098 141.738 134.162C140.652 135.122 139.255 135.65 137.804 135.65Z" fill="#373B42"/>
<path d="M141.458 141.153C141.256 141.153 141.051 141.139 140.849 141.112C140.753 141.1 140.685 141.011 140.698 140.914C140.711 140.818 140.791 140.748 140.896 140.762C142.246 140.941 143.584 140.47 144.52 139.49C144.588 139.419 144.7 139.417 144.77 139.484C144.84 139.551 144.843 139.663 144.776 139.733C143.902 140.649 142.723 141.153 141.458 141.153Z" fill="#373B42"/>
<path d="M145.663 143.739C145.567 143.739 145.488 143.663 145.486 143.566C145.484 143.469 145.561 143.388 145.658 143.386C148.195 143.331 150.259 141.219 150.259 138.677C150.259 138.579 150.339 138.5 150.436 138.5C150.533 138.5 150.612 138.579 150.612 138.677C150.612 141.409 148.393 143.68 145.667 143.739C145.665 143.739 145.664 143.739 145.663 143.739Z" fill="#373B42"/>
<path d="M169.218 128.853C169.17 128.853 169.121 128.833 169.087 128.794C169.022 128.722 169.028 128.61 169.101 128.545C170.294 127.482 170.979 125.955 170.979 124.356C170.979 124.258 171.059 124.179 171.156 124.179C171.253 124.179 171.333 124.258 171.333 124.356C171.333 126.056 170.605 127.678 169.336 128.809C169.302 128.839 169.26 128.853 169.218 128.853Z" fill="#373B42"/>
<path d="M153.559 116.262C153.478 116.262 153.405 116.207 153.387 116.126C152.956 114.273 151.57 112.736 149.768 112.113C149.676 112.081 149.627 111.98 149.659 111.888C149.692 111.796 149.792 111.748 149.884 111.779C151.799 112.441 153.273 114.076 153.73 116.046C153.752 116.141 153.694 116.235 153.599 116.257C153.585 116.261 153.572 116.262 153.559 116.262Z" fill="#373B42"/>
<path d="M167.408 122.107C167.388 122.107 167.366 122.104 167.345 122.096C167.254 122.061 167.208 121.959 167.243 121.868C167.492 121.219 167.618 120.545 167.618 119.864C167.618 117.367 165.939 115.154 163.535 114.481C163.441 114.455 163.386 114.358 163.412 114.264C163.439 114.169 163.537 114.114 163.63 114.141C166.186 114.856 167.971 117.21 167.971 119.864C167.971 120.588 167.837 121.305 167.573 121.994C167.546 122.064 167.479 122.107 167.408 122.107Z" fill="#373B42"/>
<path d="M160.907 117.38C160.901 117.38 160.894 117.379 160.887 117.379C160.79 117.368 160.721 117.28 160.732 117.183C160.757 116.96 160.769 116.753 160.769 116.552C160.769 114.449 159.605 112.543 157.731 111.579C157.644 111.535 157.61 111.428 157.655 111.342C157.7 111.254 157.808 111.221 157.893 111.265C159.885 112.29 161.122 114.316 161.122 116.552C161.122 116.766 161.109 116.986 161.082 117.223C161.073 117.313 160.996 117.38 160.907 117.38Z" fill="#373B42"/>
<path d="M146.768 131.812C146.488 131.812 146.194 131.732 145.924 131.575C145.463 131.307 145.144 130.874 144.917 130.527C144.841 130.411 144.768 130.293 144.695 130.175C144.522 129.897 144.36 129.634 144.159 129.395C143.535 128.649 142.545 128.212 141.569 128.254C141.467 128.259 141.389 128.182 141.385 128.085C141.381 127.987 141.457 127.905 141.554 127.901C142.638 127.855 143.735 128.34 144.43 129.168C144.646 129.426 144.824 129.712 144.995 129.989C145.067 130.105 145.138 130.22 145.213 130.334C145.418 130.648 145.705 131.039 146.102 131.27C146.483 131.491 146.932 131.519 147.246 131.339C147.331 131.29 147.438 131.32 147.486 131.404C147.535 131.489 147.506 131.597 147.421 131.645C147.226 131.756 147.002 131.812 146.768 131.812Z" fill="#373B42"/>
<path d="M144.666 129.973C144.647 129.973 144.627 129.97 144.607 129.963C144.515 129.93 144.467 129.829 144.5 129.738C144.667 129.268 144.83 128.771 144.834 128.309C144.838 127.82 144.662 127.188 144.154 126.881C144.07 126.83 144.044 126.722 144.095 126.638C144.145 126.555 144.253 126.528 144.337 126.579C144.869 126.9 145.194 127.564 145.187 128.312C145.183 128.829 145.01 129.358 144.833 129.856C144.807 129.928 144.739 129.973 144.666 129.973Z" fill="#373B42"/>
<path d="M151.103 128.488C151.013 128.488 150.938 128.421 150.928 128.332C150.791 127.171 149.863 126.152 148.72 125.908C148.624 125.888 148.563 125.794 148.584 125.698C148.604 125.604 148.697 125.542 148.793 125.563C150.027 125.826 151.039 126.892 151.255 128.131C152.137 128.108 152.764 127.959 153.273 127.656C153.941 127.258 154.34 126.533 154.246 125.894C154.212 125.668 154.123 125.453 154.03 125.225C153.97 125.079 153.911 124.933 153.864 124.783C153.608 123.956 153.771 123.012 154.291 122.319C154.802 121.639 155.641 121.221 156.491 121.221C156.507 121.221 156.522 121.222 156.538 121.222C156.636 121.223 156.714 121.304 156.711 121.402C156.709 121.498 156.631 121.575 156.535 121.575C156.525 121.574 156.506 121.575 156.491 121.575C155.75 121.575 155.018 121.939 154.574 122.531C154.121 123.135 153.978 123.958 154.201 124.678C154.245 124.818 154.301 124.955 154.357 125.091C154.454 125.328 154.555 125.574 154.595 125.842C154.73 126.754 154.119 127.563 153.454 127.959C152.691 128.413 151.797 128.48 151.105 128.488C151.104 128.488 151.104 128.488 151.103 128.488Z" fill="#373B42"/>
<path d="M154.088 123.019C154.023 123.019 153.96 122.982 153.93 122.92C153.697 122.444 153.255 122.071 152.747 121.922C152.24 121.772 151.666 121.846 151.213 122.119C151.13 122.169 151.021 122.143 150.97 122.059C150.92 121.976 150.947 121.867 151.03 121.817C151.566 121.493 152.247 121.406 152.847 121.583C153.448 121.76 153.972 122.202 154.247 122.765C154.29 122.852 154.253 122.958 154.165 123.001C154.141 123.013 154.115 123.019 154.088 123.019Z" fill="#373B42"/>
<path d="M149.405 121.032C149.404 121.032 149.403 121.032 149.402 121.032C149.304 121.03 149.227 120.949 149.229 120.852C149.238 120.421 148.987 119.987 148.589 119.746C148.217 119.521 147.719 119.465 147.259 119.598C146.876 119.708 146.529 119.941 146.279 120.252C146.218 120.328 146.107 120.34 146.031 120.279C145.954 120.218 145.943 120.107 146.003 120.031C146.298 119.663 146.71 119.389 147.161 119.258C147.712 119.099 148.316 119.168 148.772 119.444C149.276 119.749 149.593 120.304 149.582 120.859C149.58 120.955 149.501 121.032 149.405 121.032Z" fill="#373B42"/>
<path d="M139.108 122.863C139.025 122.863 138.95 122.803 138.934 122.718C138.768 121.824 138.896 120.881 139.294 120.062C139.692 119.243 140.355 118.56 141.162 118.139C141.248 118.093 141.355 118.127 141.4 118.213C141.445 118.3 141.412 118.406 141.326 118.451C140.586 118.838 139.976 119.465 139.611 120.216C139.246 120.968 139.129 121.833 139.282 122.654C139.3 122.75 139.236 122.842 139.14 122.86C139.129 122.862 139.118 122.863 139.108 122.863Z" fill="#373B42"/>
<path d="M137.92 124.407C137.907 124.407 137.895 124.406 137.882 124.403C137.786 124.382 137.726 124.288 137.747 124.193C137.903 123.483 138.414 122.862 139.08 122.573C139.747 122.284 140.548 122.335 141.173 122.707C141.257 122.757 141.284 122.866 141.235 122.95C141.184 123.034 141.075 123.06 140.993 123.011C140.464 122.696 139.785 122.653 139.221 122.897C138.656 123.142 138.224 123.667 138.092 124.269C138.074 124.351 138.001 124.407 137.92 124.407Z" fill="#373B42"/>
<path d="M137.394 132.637C137.39 132.637 137.385 132.637 137.381 132.636C137.284 132.629 137.21 132.544 137.218 132.447C137.277 131.657 137.013 130.861 136.494 130.262C135.974 129.664 135.222 129.291 134.431 129.239C134.333 129.233 134.26 129.149 134.266 129.051C134.272 128.955 134.344 128.885 134.454 128.887C135.338 128.944 136.179 129.361 136.76 130.03C137.342 130.7 137.637 131.59 137.57 132.474C137.563 132.566 137.486 132.637 137.394 132.637Z" fill="#373B42"/>
<path d="M136.726 130.384C136.678 130.384 136.629 130.364 136.594 130.325C136.53 130.252 136.536 130.14 136.609 130.075C137.121 129.619 137.427 128.854 137.368 128.171C137.359 128.074 137.431 127.988 137.528 127.98C137.626 127.969 137.711 128.044 137.719 128.141C137.788 128.942 137.445 129.805 136.843 130.339C136.81 130.369 136.768 130.384 136.726 130.384Z" fill="#373B42"/>
<path d="M152.676 135.146C152.362 135.146 152.047 135.092 151.754 134.986C151.156 134.769 150.634 134.326 150.321 133.771C150.274 133.686 150.303 133.578 150.388 133.531C150.472 133.483 150.581 133.513 150.629 133.598C150.901 134.08 151.355 134.465 151.874 134.654C152.394 134.843 152.99 134.839 153.506 134.643C153.597 134.609 153.699 134.655 153.734 134.746C153.768 134.837 153.723 134.939 153.632 134.974C153.328 135.088 153.002 135.146 152.676 135.146Z" fill="#373B42"/>
<path d="M153.955 137.99C153.239 137.99 152.525 137.662 152.069 137.107C151.547 136.468 151.387 135.553 151.662 134.776C151.694 134.684 151.794 134.636 151.887 134.668C151.979 134.701 152.027 134.802 151.994 134.893C151.76 135.557 151.897 136.338 152.343 136.883C152.788 137.428 153.527 137.716 154.224 137.618C154.32 137.604 154.411 137.672 154.424 137.769C154.438 137.865 154.371 137.954 154.274 137.968C154.168 137.983 154.061 137.99 153.955 137.99Z" fill="#373B42"/>
<path d="M156.381 143.95C155.797 143.95 155.221 143.721 154.799 143.312C154.729 143.244 154.728 143.132 154.795 143.062C154.863 142.992 154.976 142.991 155.045 143.058C155.45 143.451 156.05 143.65 156.605 143.584C157.164 143.516 157.695 143.177 157.993 142.699C158.044 142.617 158.153 142.592 158.236 142.643C158.319 142.695 158.344 142.804 158.293 142.886C157.935 143.461 157.32 143.853 156.648 143.934C156.559 143.945 156.47 143.95 156.381 143.95Z" fill="#373B42"/>
<path d="M156.716 143.917C156.669 143.917 156.623 143.899 156.588 143.862C156.087 143.337 155.816 142.62 155.845 141.895C155.874 141.17 156.2 140.477 156.741 139.993C156.814 139.928 156.925 139.933 156.991 140.006C157.056 140.079 157.05 140.191 156.977 140.256C156.514 140.67 156.222 141.288 156.198 141.909C156.174 142.529 156.415 143.169 156.843 143.618C156.911 143.689 156.908 143.801 156.838 143.868C156.803 143.901 156.76 143.917 156.716 143.917Z" fill="#373B42"/>
<path d="M159.123 134.388C159.047 134.388 158.977 134.339 158.954 134.263C158.926 134.169 158.979 134.071 159.072 134.043C160.472 133.619 161.668 132.569 162.269 131.236C162.309 131.147 162.414 131.107 162.502 131.148C162.591 131.188 162.631 131.292 162.591 131.381C161.948 132.806 160.671 133.927 159.174 134.381C159.157 134.386 159.14 134.388 159.123 134.388Z" fill="#373B42"/>
<path d="M159.136 136.737C159.118 136.737 159.1 136.735 159.082 136.729C158.989 136.699 158.938 136.6 158.967 136.507C159.187 135.825 159.174 135.079 158.933 134.405C158.691 133.73 158.226 133.146 157.624 132.759C157.542 132.706 157.518 132.597 157.571 132.515C157.624 132.432 157.735 132.409 157.815 132.461C158.482 132.89 158.997 133.538 159.265 134.285C159.533 135.032 159.547 135.86 159.304 136.615C159.28 136.69 159.21 136.737 159.136 136.737Z" fill="#373B42"/>
<path d="M169.653 130.752C169.647 130.752 169.64 130.752 169.634 130.751C169.538 130.741 169.467 130.654 169.477 130.558C169.537 129.986 169.38 129.389 169.048 128.919C168.715 128.45 168.204 128.104 167.645 127.97C167.55 127.947 167.492 127.852 167.514 127.757C167.537 127.662 167.635 127.604 167.728 127.626C168.368 127.78 168.955 128.177 169.336 128.715C169.718 129.253 169.897 129.938 169.829 130.594C169.819 130.685 169.742 130.752 169.653 130.752Z" fill="#373B42"/>
<path d="M166.127 124.069C166.081 124.069 166.036 124.052 166.001 124.017C165.933 123.947 165.934 123.836 166.002 123.767C166.919 122.862 167.501 121.605 167.599 120.317C167.607 120.221 167.677 120.146 167.789 120.155C167.886 120.162 167.959 120.247 167.951 120.344C167.846 121.715 167.226 123.055 166.251 124.018C166.216 124.053 166.171 124.069 166.127 124.069Z" fill="#373B42"/>
<path d="M167.386 122.126C167.347 122.126 167.308 122.113 167.276 122.087C166.405 121.389 165.108 121.264 164.121 121.782C164.034 121.827 163.928 121.794 163.882 121.708C163.837 121.621 163.87 121.514 163.956 121.469C165.066 120.888 166.521 121.029 167.496 121.812C167.573 121.873 167.585 121.984 167.524 122.06C167.489 122.103 167.438 122.126 167.386 122.126Z" fill="#373B42"/>
<path d="M162.701 118.538C162.651 118.538 162.6 118.517 162.565 118.475C161.749 117.496 160.33 117.082 159.12 117.468C159.028 117.498 158.928 117.447 158.898 117.353C158.868 117.261 158.92 117.161 159.012 117.132C160.357 116.703 161.931 117.162 162.837 118.249C162.899 118.324 162.889 118.435 162.814 118.497C162.781 118.525 162.741 118.538 162.701 118.538Z" fill="#373B42"/>
<path d="M159.33 119.258C159.318 119.258 159.306 119.257 159.294 119.254C159.198 119.234 159.138 119.141 159.157 119.045C159.273 118.489 159.165 117.895 158.86 117.416C158.555 116.937 158.063 116.588 157.51 116.458C157.414 116.436 157.355 116.341 157.378 116.246C157.399 116.151 157.496 116.093 157.59 116.114C158.233 116.265 158.804 116.67 159.158 117.227C159.512 117.783 159.638 118.472 159.503 119.118C159.485 119.201 159.412 119.258 159.33 119.258Z" fill="#373B42"/>
<path d="M145.427 140.018C145.133 140.018 144.838 139.933 144.594 139.769C144.21 139.512 143.959 139.065 143.938 138.603C143.934 138.506 144.009 138.423 144.107 138.419C144.204 138.415 144.286 138.49 144.291 138.588C144.306 138.94 144.498 139.28 144.791 139.476C145.084 139.672 145.471 139.72 145.802 139.601C145.896 139.567 145.995 139.615 146.029 139.707C146.062 139.798 146.014 139.9 145.923 139.933C145.764 139.99 145.596 140.018 145.427 140.018Z" fill="#373B42"/>
<path d="M179.563 93.2717V151.846C179.568 155.623 176.951 159.223 172.193 161.99C167.198 164.889 160.521 166.484 153.378 166.484C146.236 166.484 139.534 164.889 134.503 161.985C129.674 159.198 127.012 155.568 127.007 151.76V93.1909C127.002 89.414 129.624 85.8086 134.387 83.0416C139.382 80.1432 146.065 78.5426 153.202 78.5426C160.339 78.5426 167.036 80.1381 172.062 83.0416C176.896 85.8289 179.558 89.4644 179.563 93.2717Z" fill="url(#paint0_linear_369_25086)"/>
<path d="M180.825 83.6021L180.79 92.0346C180.78 96.0892 178.118 100.139 172.794 103.229C168.38 105.794 162.819 107.304 157.056 107.753C154.545 107.95 152 107.945 149.489 107.738C143.771 107.279 138.251 105.769 133.846 103.229C128.417 100.094 125.709 95.9833 125.719 91.878L125.75 83.4708C125.75 87.5658 128.457 91.666 133.877 94.7966C138.276 97.3365 143.782 98.8412 149.489 99.3057C152 99.5128 154.545 99.5179 157.056 99.3209C162.829 98.8767 168.4 97.3618 172.825 94.7967C178.148 91.7065 180.81 87.6568 180.825 83.6021Z" fill="#BEC4CD"/>
<path d="M151.175 99.4107V107.843C152.584 107.907 153.999 107.91 155.408 107.85V99.417C153.999 99.4776 152.584 99.4747 151.175 99.4107Z" fill="#F1F2F6"/>
<path d="M153.349 108.066C146.263 108.066 139.169 106.505 133.756 103.381C128.447 100.317 125.53 96.2312 125.542 91.8768L125.573 83.4437C125.574 83.3465 125.652 83.2679 125.749 83.2679H125.75C125.847 83.2682 125.926 83.3476 125.926 83.445V83.4455C125.914 87.6672 128.769 91.6436 133.964 94.6419C144.689 100.833 162.083 100.833 172.736 94.6446C177.826 91.6877 180.635 87.7658 180.647 83.601V83.6008C180.648 83.5036 180.726 83.4249 180.823 83.4249H180.824C180.921 83.4253 181 83.5047 181 83.6021V83.6033C181 83.6076 181 83.6115 181 83.616L180.969 92.0353C180.957 96.3303 178.085 100.36 172.882 103.383C167.508 106.505 160.432 108.066 153.349 108.066ZM125.916 86.0323L125.895 91.878C125.884 96.1002 128.738 100.077 133.932 103.075C144.658 109.265 162.05 109.267 172.704 103.077C177.794 100.121 180.604 96.1987 180.616 92.034L180.637 86.2007C179.713 89.5052 177.05 92.5462 172.913 94.9496C162.162 101.195 144.609 101.194 133.787 94.9475C129.545 92.4995 126.83 89.4 125.916 86.0323Z" fill="#373B42"/>
<path d="M172.693 72.2434C183.48 78.4697 183.542 88.5706 172.824 94.7971C162.107 101.023 144.663 101.021 133.875 94.7947C123.088 88.5684 123.035 78.4726 133.753 72.2463C144.47 66.0198 161.905 66.0171 172.693 72.2434Z" fill="white"/>
<path d="M153.38 99.6335C146.294 99.6338 139.2 98.072 133.787 94.9479C128.496 91.8942 125.579 87.8229 125.573 83.4844C125.567 79.1738 128.44 75.1286 133.664 72.0939C144.415 65.8483 161.962 65.8466 172.781 72.0908C178.074 75.1462 180.994 79.2199 181 83.5619C181.006 87.8725 178.134 91.9169 172.913 94.95C167.539 98.072 160.463 99.6332 153.38 99.6335ZM153.201 67.7565C146.18 67.7565 139.169 69.3039 133.842 72.3991C128.731 75.3679 125.92 79.3046 125.926 83.4839C125.932 87.6912 128.787 91.6538 133.963 94.6419C144.689 100.833 162.083 100.833 172.735 94.6446C177.843 91.6774 180.652 87.7416 180.647 83.5623C180.641 79.3517 177.785 75.3863 172.604 72.3967C167.245 69.3035 160.218 67.7565 153.201 67.7565Z" fill="#373B42"/>
<path d="M153.381 94.3756C146.963 94.3756 140.751 92.915 136.339 90.3682C132.795 88.3232 130.761 85.8111 130.758 83.4764C130.755 81.1695 132.748 78.687 136.228 76.6654C140.604 74.1233 146.79 72.6653 153.201 72.6653C159.613 72.6653 165.82 74.125 170.229 76.6699C173.776 78.7168 175.811 81.2316 175.815 83.5695C175.818 85.8765 173.826 88.358 170.349 90.378C165.976 92.9186 159.792 94.3756 153.381 94.3756Z" fill="#DBDEE4"/>
<path d="M100.911 46.9247C99.8361 47.5451 99.8304 48.5521 100.898 49.1726L114.558 57.1089C115.626 57.7294 117.364 57.7293 118.439 57.1089L132.188 49.1727C133.263 48.5522 133.269 47.5453 132.201 46.9248L118.541 38.9885C117.474 38.368 115.735 38.368 114.66 38.9885L100.911 46.9247Z" fill="white"/>
<path d="M116.496 57.7478C115.76 57.7478 115.027 57.5857 114.468 57.2615L100.809 49.3253C100.238 48.9934 99.9234 48.5412 99.9241 48.0521C99.9247 47.5604 100.244 47.1057 100.822 46.7718L114.571 38.8355C115.694 38.1876 117.515 38.1881 118.63 38.8359L132.29 46.7723C132.861 47.1041 133.175 47.5561 133.174 48.045C133.173 48.5369 132.855 48.9917 132.276 49.3257L118.527 57.262C117.966 57.5859 117.23 57.7478 116.496 57.7478ZM100.999 47.0777C100.534 47.3459 100.278 47.6922 100.277 48.0526C100.277 48.4103 100.529 48.7537 100.987 49.0201L114.647 56.9563C115.663 57.5474 117.326 57.5476 118.351 56.9561L132.1 49.0199C132.565 48.7515 132.821 48.4051 132.821 48.0445C132.822 47.687 132.57 47.3437 132.112 47.0775L118.452 39.1411C117.436 38.5503 115.774 38.5495 114.748 39.1414L100.999 47.0777Z" fill="#DBDEE4"/>
<path d="M122.055 44.8476C125.115 46.6142 125.131 49.4775 122.086 51.2471C119.045 53.0138 114.101 53.0139 111.04 51.2471C107.985 49.4833 107.969 46.6202 111.009 44.8535C114.055 43.0839 118.999 43.0838 122.055 44.8476Z" fill="white"/>
<path d="M116.57 52.7438C114.538 52.7438 112.504 52.296 110.952 51.4001C109.412 50.5115 108.564 49.319 108.562 48.0421C108.56 46.7722 109.398 45.5854 110.92 44.7008C114.009 42.9067 119.043 42.905 122.143 44.6946C123.685 45.5846 124.535 46.7781 124.537 48.0555C124.539 49.3258 123.7 50.5134 122.175 51.3995C120.632 52.2956 118.602 52.7438 116.57 52.7438ZM116.534 43.702C114.564 43.702 112.594 44.1367 111.098 45.006C109.689 45.825 108.914 46.903 108.915 48.0416C108.917 49.1872 109.703 50.2713 111.128 51.0942C114.135 52.8297 119.011 52.8295 121.997 51.0944C123.409 50.2741 124.185 49.1952 124.184 48.0559C124.182 46.91 123.394 45.8249 121.967 45.0005C120.467 44.1347 118.5 43.702 116.534 43.702Z" fill="#373B42"/>
<path d="M111.489 31.8952L111.549 47.5212C111.551 48.2624 112.039 49.0028 113.013 49.5693C114.972 50.7072 118.156 50.7072 120.127 49.5693C121.117 48.998 121.612 48.2474 121.61 47.4977L121.55 31.8717C121.553 32.6214 121.058 33.372 120.068 33.9433C118.097 35.0812 114.913 35.0812 112.954 33.9433C111.979 33.3769 111.491 32.6365 111.489 31.8952Z" fill="white"/>
<path d="M112.954 33.9435C113.927 34.5087 115.203 34.792 116.482 34.7955V50.4184C115.223 50.4062 113.971 50.126 113.014 49.5697C112.039 49.003 111.551 48.2626 111.549 47.5215L111.49 31.8953C111.492 32.6366 111.979 33.3769 112.954 33.9435Z" fill="#DBDEE4"/>
<path d="M116.566 50.5954C115.245 50.5954 113.927 50.3043 112.925 49.7221C111.926 49.1418 111.374 48.3605 111.372 47.5218L111.313 31.8985C111.313 31.8983 111.313 31.898 111.313 31.8977V31.8961V31.8958C111.313 31.7984 111.391 31.7191 111.489 31.7188H111.489C111.587 31.7188 111.665 31.7974 111.666 31.8947V31.8983C111.669 32.605 112.159 33.2769 113.044 33.7909C114.95 34.8981 118.062 34.8981 119.98 33.7906C120.881 33.2706 121.376 32.5897 121.374 31.8728V31.8726V31.8724C121.374 31.775 121.453 31.6957 121.55 31.6954H121.551C121.648 31.6954 121.727 31.774 121.727 31.8712L121.787 47.4972C121.789 48.3464 121.231 49.1365 120.216 49.7225C119.207 50.3045 117.886 50.5954 116.566 50.5954ZM111.67 33.0267L111.725 47.5208C111.727 48.2289 112.216 48.9022 113.103 49.417C115.009 50.5246 118.121 50.5242 120.039 49.4167C120.94 48.8967 121.436 48.2154 121.434 47.4985L121.378 33.0017C121.113 33.4103 120.7 33.7828 120.157 34.0966C118.14 35.2602 114.87 35.2607 112.866 34.0963C112.336 33.7891 111.933 33.4254 111.67 33.0267Z" fill="#373B42"/>
<path d="M112.974 29.8217C111.003 30.9596 110.993 32.8036 112.954 33.9434C114.913 35.0813 118.097 35.0813 120.068 33.9434C122.036 32.8074 122.046 30.9634 120.088 29.8255C118.126 28.6859 114.942 28.6858 112.974 29.8217Z" fill="white"/>
<path d="M116.506 34.9693C115.186 34.9693 113.868 34.6784 112.865 34.0962C111.863 33.5137 111.311 32.7295 111.313 31.888C111.314 31.0419 111.872 30.2539 112.886 29.6689C114.9 28.5062 118.17 28.5072 120.177 29.6733C121.178 30.2548 121.729 31.0383 121.727 31.8795C121.726 32.7254 121.169 33.5127 120.157 34.0967C119.148 34.6785 117.826 34.9693 116.506 34.9693ZM113.062 29.9749C112.163 30.4941 111.667 31.1738 111.666 31.8885C111.665 32.5988 112.154 33.2745 113.043 33.791C114.949 34.8983 118.062 34.8983 119.98 33.7907C120.878 33.2726 121.373 32.5934 121.374 31.879C121.375 31.169 120.887 30.4941 119.999 29.9785C118.092 28.8698 114.979 28.8683 113.062 29.9749Z" fill="#373B42"/>
<path d="M113.184 21.0822L113.224 31.4322C113.225 31.9251 113.55 32.4175 114.198 32.7943C115.5 33.5511 117.618 33.5511 118.929 32.7943C119.587 32.4144 119.916 31.9152 119.915 31.4166L119.875 21.0666C119.877 21.5652 119.548 22.0644 118.89 22.4444C117.579 23.2011 115.461 23.201 114.159 22.4444C113.51 22.0676 113.186 21.5752 113.184 21.0822Z" fill="white"/>
<path d="M116.482 33.3572C115.652 33.3459 114.829 33.1608 114.198 32.7941C113.55 32.4174 113.225 31.925 113.224 31.432L113.184 21.082C113.186 21.5751 113.51 22.0673 114.159 22.4441C114.8 22.8167 115.639 23.0039 116.482 23.0095V33.3572Z" fill="#DBDEE4"/>
<path d="M116.561 33.5346C115.671 33.5346 114.784 33.3387 114.109 32.9468C113.425 32.5498 113.048 32.0122 113.047 31.4328L113.007 21.083C113.007 21.0828 113.007 21.0828 113.007 21.0828C113.007 20.9854 113.086 20.9061 113.183 20.9057H113.184C113.281 20.9057 113.36 20.9843 113.361 21.0815V21.0842C113.363 21.532 113.678 21.9608 114.248 22.2916C115.498 23.0185 117.541 23.0193 118.801 22.2914C119.381 21.9565 119.7 21.522 119.698 21.0674V21.0672V21.067C119.698 20.9695 119.777 20.8902 119.874 20.8899H119.875C119.972 20.8899 120.051 20.9686 120.052 21.0658L120.091 31.4158C120.094 32.0024 119.712 32.5464 119.017 32.9471C118.338 33.3388 117.449 33.5346 116.561 33.5346ZM113.364 22.0153L113.4 31.4315C113.401 31.8804 113.716 32.3101 114.287 32.6416C115.539 33.3688 117.582 33.3685 118.84 32.6413C119.421 32.3064 119.74 31.8719 119.738 31.4173L119.702 21.999C119.524 22.2203 119.28 22.4223 118.978 22.5974C117.619 23.3809 115.418 23.3808 114.07 22.5968C113.777 22.4262 113.539 22.2299 113.364 22.0153Z" fill="#373B42"/>
<path d="M114.172 19.7033C112.861 20.46 112.854 21.6864 114.159 22.4443C115.461 23.201 117.579 23.201 118.89 22.4443C120.198 21.6888 120.205 20.4624 118.903 19.7057C117.598 18.9479 115.481 18.9479 114.172 19.7033Z" fill="#FF1FC7"/>
<path d="M116.521 23.1848C115.632 23.1848 114.744 22.9889 114.07 22.5968C113.384 22.1984 113.007 21.6589 113.007 21.0771C113.008 20.4925 113.39 19.9502 114.084 19.5503C115.44 18.7672 117.642 18.7687 118.991 19.5532C119.676 19.9509 120.052 20.4903 120.052 21.0718C120.051 21.6562 119.669 22.198 118.978 22.5974C118.299 22.9889 117.41 23.1848 116.521 23.1848ZM116.536 19.3119C115.713 19.3119 114.888 19.4932 114.26 19.8561C113.681 20.1904 113.361 20.6241 113.361 21.0775C113.36 21.528 113.675 21.959 114.248 22.2914C115.498 23.0185 117.541 23.0193 118.801 22.2914C119.379 21.9576 119.698 21.5244 119.698 21.0711C119.699 20.6209 119.385 20.1902 118.813 19.8583C118.186 19.4941 117.361 19.3119 116.536 19.3119Z" fill="#373B42"/>
<path d="M119.679 13.0928V21.0451C119.662 21.4997 119.354 21.946 118.761 22.295C117.519 23.0093 115.522 23.0093 114.288 22.295C113.696 21.946 113.395 21.4996 113.379 21.0451V13.0928H119.679Z" fill="url(#paint1_linear_369_25086)"/>
<path d="M98.412 61.6027C97.8772 61.6027 97.3595 61.4809 96.9919 61.2687C96.6966 61.0983 96.5272 60.889 96.5269 60.6944C96.5266 60.5022 96.6927 60.2954 96.9827 60.1269C97.3474 59.9151 97.8628 59.7936 98.397 59.7936C98.9313 59.7936 99.4485 59.9152 99.8159 60.1273C100.111 60.2979 100.281 60.5074 100.281 60.7022C100.282 60.8945 100.116 61.1013 99.826 61.2696C99.4615 61.4813 98.9461 61.6027 98.412 61.6027Z" fill="#373B42"/>
<path d="M151.641 49.0129C150.364 48.2755 150.356 47.0794 151.625 46.3422C152.895 45.6048 154.96 45.6052 156.238 46.3425C157.515 47.0798 157.521 48.2753 156.252 49.0126C154.983 49.7499 152.918 49.7502 151.641 49.0129Z" fill="white"/>
<path d="M153.949 49.7388C153.082 49.7388 152.215 49.5477 151.553 49.1657C150.876 48.775 150.503 48.2448 150.501 47.6728C150.501 47.1044 150.868 46.5776 151.537 46.1894C152.854 45.4243 155.001 45.425 156.326 46.1894C157.003 46.58 157.376 47.1098 157.377 47.6814C157.377 48.2498 157.01 48.7766 156.341 49.1649C155.682 49.5476 154.816 49.7388 153.949 49.7388ZM153.928 45.964C153.125 45.964 152.323 46.141 151.715 46.4948C151.159 46.8172 150.855 47.2356 150.855 47.6725C150.855 48.1131 151.166 48.5349 151.729 48.86C152.956 49.5677 154.945 49.5681 156.163 48.86C156.719 48.5375 157.024 48.1192 157.023 47.6822C157.023 47.242 156.712 46.8205 156.15 46.4956C155.535 46.1411 154.731 45.964 153.928 45.964Z" fill="#DBDEE4"/>
<path d="M153.932 46.8352C154.43 46.8352 154.912 46.9486 155.254 47.1461C155.529 47.3048 155.687 47.4997 155.687 47.6808C155.687 47.8598 155.533 48.0525 155.263 48.2093C154.923 48.4066 154.443 48.5197 153.946 48.5197C153.448 48.5197 152.966 48.4065 152.624 48.209C152.349 48.0502 152.191 47.855 152.191 47.6737C152.191 47.4946 152.345 47.3022 152.615 47.1454C152.954 46.9483 153.434 46.8352 153.932 46.8352Z" fill="#FF1FC7"/>
<path d="M144.34 41.4285C144.874 41.4285 145.392 41.5502 145.76 41.7625C146.055 41.9328 146.224 42.1422 146.225 42.3368C146.225 42.529 146.059 42.7358 145.769 42.9043C145.404 43.1161 144.889 43.2376 144.355 43.2376C143.82 43.2376 143.303 43.116 142.936 42.9039C142.64 42.7333 142.471 42.5237 142.47 42.329C142.47 42.1367 142.636 41.9299 142.926 41.7616C143.29 41.5499 143.806 41.4285 144.34 41.4285Z" fill="#373B42"/>
<defs>
<linearGradient id="paint0_linear_369_25086" x1="153.169" y1="166.207" x2="153.359" y2="94.5781" gradientUnits="userSpaceOnUse">
<stop stop-color="#FF1FB8"/>
<stop offset="1" stop-color="white"/>
</linearGradient>
<linearGradient id="paint1_linear_369_25086" x1="116.529" y1="23.1991" x2="116.529" y2="13.5406" gradientUnits="userSpaceOnUse">
<stop stop-color="#FF1FB8"/>
<stop offset="1" stop-color="white"/>
</linearGradient>
</defs>
</svg>
