<svg width="181" height="181" viewBox="0 0 181 181" fill="none" xmlns="http://www.w3.org/2000/svg">
<path d="M13.8401 114.315C13.8705 114.315 13.9015 114.307 13.9297 114.29L30.4168 104.608C30.6497 104.471 30.7882 104.228 30.7875 103.958C30.7868 103.687 30.647 103.445 30.4134 103.309L3.76394 87.8155C3.6792 87.7666 3.57171 87.7944 3.52277 87.8796C3.47383 87.9637 3.50212 88.0715 3.58611 88.1208L30.2355 103.614C30.3602 103.686 30.434 103.815 30.4347 103.959C30.4355 104.102 30.3616 104.231 30.2377 104.304L13.7506 113.987C13.6665 114.036 13.6389 114.144 13.6879 114.228C13.7209 114.284 13.7794 114.315 13.8401 114.315Z" fill="#DBDEE4"/>
<path d="M15.8131 115.349C17.0865 114.613 17.0938 113.418 15.8285 112.682C14.5633 111.945 12.504 111.945 11.2305 112.682C9.95709 113.418 9.95089 114.612 11.2161 115.349C12.4812 116.085 14.5395 116.086 15.8131 115.349Z" fill="white"/>
<path d="M13.5118 116.075C14.376 116.075 15.2408 115.884 15.901 115.502C16.5764 115.112 16.9485 114.582 16.9491 114.011C16.9498 113.443 16.5832 112.917 15.9175 112.529C14.6053 111.766 12.4622 111.765 11.1419 112.529C10.4673 112.919 10.0951 113.449 10.0944 114.02C10.0938 114.587 10.4603 115.113 11.1267 115.501C11.7828 115.883 12.6469 116.075 13.5118 116.075ZM13.5331 112.304C14.3331 112.304 15.1326 112.481 15.7396 112.834C16.293 113.156 16.5969 113.573 16.5962 114.01C16.5956 114.45 16.2861 114.872 15.7245 115.197C14.5026 115.903 12.5194 115.904 11.3045 115.197C10.7512 114.875 10.4465 114.457 10.4473 114.02C10.448 113.58 10.7574 113.159 11.3183 112.835C11.9303 112.481 12.7317 112.304 13.5331 112.304Z" fill="#DBDEE4"/>
<path d="M13.5285 113.174C13.032 113.174 12.5515 113.287 12.2102 113.485C11.9361 113.643 11.7788 113.838 11.7785 114.019C11.7783 114.198 11.9325 114.39 12.2017 114.547C12.5401 114.744 13.0187 114.857 13.5146 114.857C14.0106 114.857 14.4907 114.744 14.8317 114.546C15.106 114.388 15.2636 114.193 15.2638 114.012C15.264 113.833 15.1099 113.641 14.8409 113.484C14.5028 113.287 14.0244 113.174 13.5285 113.174Z" fill="#4C60E5"/>
<path d="M24.7398 106.783C24.2066 106.783 23.6906 106.905 23.324 107.117C23.0296 107.287 22.8607 107.496 22.8604 107.69C22.8602 107.882 23.0258 108.089 23.3149 108.257C23.6784 108.469 24.1923 108.59 24.7249 108.59C25.2576 108.59 25.7732 108.469 26.1395 108.257C26.4341 108.086 26.6033 107.877 26.6035 107.683C26.6037 107.49 26.4383 107.284 26.1495 107.116C25.7862 106.904 25.2724 106.783 24.7398 106.783Z" fill="#383C43"/>
<path d="M70.0867 107.024C70.1474 107.024 70.2066 106.993 70.2397 106.936C70.2879 106.852 70.2591 106.744 70.175 106.695L19.7752 77.5976C19.6932 77.5487 19.5836 77.577 19.534 77.6621C19.4858 77.7465 19.5147 77.8543 19.5987 77.9029L69.9986 107.001C70.0261 107.017 70.0565 107.024 70.0867 107.024Z" fill="#DBDEE4"/>
<path d="M46.8811 94.4667C46.8809 94.2747 47.0467 94.0682 47.3361 93.9C47.7 93.6885 48.2147 93.5672 48.7482 93.5672C49.2824 93.5672 49.7993 93.6888 50.1666 93.9008C50.4615 94.071 50.6308 94.2802 50.6311 94.4745C50.6313 94.6666 50.4655 94.8732 50.1759 95.0415C49.8117 95.2531 49.2968 95.3745 48.7634 95.3745C48.2297 95.3745 47.7132 95.253 47.3462 95.0411C47.0508 94.8708 46.8815 94.6613 46.8811 94.4667Z" fill="#383C43"/>
<path d="M39.3543 178.915C39.415 178.915 39.4735 178.884 39.5066 178.828C39.5555 178.744 39.5279 178.636 39.4438 178.587L22.9575 168.904C22.8334 168.832 22.7597 168.703 22.7604 168.559C22.7604 168.415 22.8348 168.287 22.9589 168.215L49.6083 152.721C49.6924 152.672 49.7206 152.564 49.6717 152.48C49.6235 152.395 49.516 152.368 49.4305 152.416L22.7811 167.909C22.5475 168.045 22.4082 168.288 22.4076 168.558C22.407 168.829 22.5454 169.072 22.7783 169.209L39.2647 178.891C39.293 178.907 39.324 178.915 39.3543 178.915Z" fill="#DBDEE4"/>
<path d="M37.3827 179.95C36.1092 179.213 36.102 178.019 37.3672 177.282C38.6324 176.546 40.6917 176.546 41.9652 177.283C43.2387 178.019 43.2449 179.213 41.9796 179.949C40.7144 180.686 38.6562 180.686 37.3827 179.95Z" fill="white"/>
<path d="M39.6841 180.675C40.5482 180.675 41.4117 180.484 42.0684 180.102C42.7348 179.714 43.1015 179.188 43.1007 178.62C43.1001 178.049 42.7279 177.52 42.0533 177.13C40.7322 176.366 38.5898 176.367 37.2784 177.129C36.6128 177.517 36.2461 178.043 36.2468 178.611C36.2474 179.183 36.6196 179.712 37.2949 180.103C37.9544 180.484 38.8199 180.675 39.6841 180.675ZM39.6627 176.904C40.4634 176.904 41.2648 177.081 41.8768 177.435C42.4377 177.759 42.7472 178.181 42.7479 178.621C42.7485 179.057 42.4439 179.475 41.8906 179.797C40.6764 180.503 38.6938 180.503 37.4713 179.797C36.9096 179.472 36.6003 179.051 36.5995 178.61C36.5989 178.174 36.9027 177.756 37.4561 177.434C38.0633 177.081 38.862 176.904 39.6627 176.904Z" fill="#DBDEE4"/>
<path d="M39.6664 177.775C40.1629 177.775 40.6434 177.888 40.9847 178.085C41.2588 178.244 41.4161 178.439 41.4164 178.619C41.4166 178.798 41.2624 178.991 40.9932 179.147C40.6548 179.344 40.1763 179.457 39.6803 179.457C39.1843 179.457 38.7042 179.344 38.3631 179.147C38.0887 178.988 37.9312 178.793 37.931 178.612C37.9308 178.433 38.0849 178.241 38.3539 178.084C38.6922 177.888 39.1706 177.775 39.6664 177.775Z" fill="#4C60E5"/>
<path d="M28.4552 171.384C28.9884 171.384 29.5043 171.505 29.871 171.717C30.1654 171.887 30.3343 172.096 30.3347 172.291C30.3349 172.483 30.1692 172.689 29.8802 172.858C29.5166 173.069 29.0027 173.191 28.4702 173.19C27.9375 173.19 27.4218 173.069 27.0555 172.857C26.7609 172.687 26.5919 172.477 26.5915 172.283C26.5913 172.091 26.7567 171.884 27.0456 171.716C27.4089 171.505 27.9227 171.384 28.4552 171.384Z" fill="#383C43"/>
<path d="M3.18661 170.905C3.21696 170.905 3.24733 170.897 3.2748 170.881L36.5667 151.661C36.6508 151.612 36.6797 151.504 36.6314 151.42C36.5825 151.335 36.4736 151.307 36.3902 151.355L3.09836 170.576C3.01426 170.625 2.9853 170.732 3.0336 170.817C3.06673 170.873 3.12603 170.905 3.18661 170.905Z" fill="#DBDEE4"/>
<path d="M6.73846 171.247C8.01427 170.511 8.02154 169.316 6.75406 168.579C5.48659 167.843 3.42354 167.843 2.14784 168.58C0.872033 169.316 0.865834 170.511 2.13341 171.247C3.40078 171.984 5.46276 171.984 6.73846 171.247Z" fill="white"/>
<path d="M4.43357 171.973C5.29978 171.973 6.16599 171.782 6.82692 171.4C7.50292 171.01 7.87576 170.48 7.8764 169.909C7.87704 169.341 7.51051 168.815 6.84338 168.427C5.52857 167.664 3.38269 167.664 2.05955 168.427C1.38355 168.817 1.01136 169.347 1.01072 169.918C1.01008 170.485 1.37734 171.012 2.04436 171.4C2.70252 171.782 3.56736 171.973 4.43357 171.973ZM4.45493 168.202C5.25703 168.202 6.05784 168.379 6.66566 168.732C7.21974 169.054 7.52429 169.472 7.52365 169.908C7.52301 170.349 7.21289 170.77 6.65048 171.095C5.42661 171.802 3.43922 171.802 2.22229 171.095C1.66758 170.773 1.36293 170.355 1.36367 169.918C1.36442 169.478 1.67379 169.057 2.23609 168.732C2.84862 168.379 3.65284 168.202 4.45493 168.202Z" fill="#DBDEE4"/>
<path d="M4.45118 169.072C3.95374 169.072 3.47245 169.185 3.1305 169.383C2.85587 169.541 2.69837 169.736 2.69805 169.917C2.69784 170.096 2.85233 170.288 3.12194 170.445C3.46101 170.642 3.9404 170.755 4.43719 170.755C4.9341 170.755 5.41506 170.642 5.7568 170.445C6.03165 170.286 6.18938 170.091 6.1897 169.91C6.18991 169.731 6.03562 169.539 5.76612 169.382C5.42715 169.185 4.94797 169.072 4.45118 169.072Z" fill="#4C60E5"/>
<path d="M17.5497 163.579C17.5499 163.387 17.3841 163.181 17.0948 163.013C16.7308 162.801 16.2162 162.68 15.6826 162.68C15.1484 162.68 14.6315 162.801 14.2642 163.013C13.9693 163.184 13.8 163.393 13.7998 163.587C13.7996 163.779 13.9655 163.986 14.2551 164.154C14.6192 164.366 15.1341 164.487 15.6676 164.487C16.2013 164.487 16.7179 164.366 17.0848 164.154C17.38 163.983 17.5494 163.774 17.5497 163.579Z" fill="#383C43"/>
<path d="M94.4272 65.615C94.4575 65.615 94.4885 65.6071 94.5167 65.5905L111.003 55.908C111.087 55.8587 111.115 55.7509 111.066 55.6668C111.017 55.5824 110.909 55.5542 110.824 55.6041L94.3375 65.2866C94.2534 65.3359 94.2258 65.4437 94.2748 65.5278C94.308 65.584 94.3666 65.615 94.4272 65.615Z" fill="#DBDEE4"/>
<path d="M96.3997 66.6489C97.6732 65.9124 97.6804 64.7178 96.4152 63.9813C95.15 63.2449 93.0907 63.2453 91.8172 63.9816C90.5438 64.7181 90.5376 65.9121 91.8028 66.6486C93.068 67.3851 95.1263 67.3854 96.3997 66.6489Z" fill="white"/>
<path d="M94.0983 67.3741C94.9624 67.3741 95.8273 67.1835 96.4874 66.8017C97.162 66.4117 97.5342 65.8821 97.5355 65.3108C97.5362 64.743 97.1696 64.2169 96.5033 63.8289C95.1912 63.0654 93.0487 63.0651 91.7284 63.8292C91.0538 64.2193 90.6816 64.7485 90.681 65.3194C90.6803 65.8868 91.0468 66.4133 91.7132 66.8013C92.37 67.1831 93.2334 67.3741 94.0983 67.3741ZM94.119 63.604C94.9197 63.604 95.7185 63.7807 96.3255 64.1339C96.8789 64.4561 97.1828 64.8737 97.1828 65.3105C97.1821 65.7506 96.872 66.1719 96.311 66.4964C95.0878 67.2028 93.1046 67.2031 91.891 66.4961C91.3377 66.1742 91.0331 65.7563 91.0338 65.3198C91.0345 64.8802 91.3439 64.4592 91.9048 64.1345C92.5168 63.7807 93.3189 63.604 94.119 63.604Z" fill="#DBDEE4"/>
<path d="M94.1164 64.4738C93.6199 64.4738 93.1395 64.5871 92.798 64.7845C92.5239 64.943 92.3666 65.1377 92.3663 65.3186C92.3661 65.4973 92.5203 65.6898 92.7895 65.8464C93.128 66.0435 93.6064 66.1564 94.1024 66.1564C94.5984 66.1564 95.0786 66.0433 95.4197 65.8461C95.694 65.6875 95.8515 65.4926 95.8517 65.3114C95.8519 65.1326 95.6978 64.9403 95.4288 64.7837C95.0906 64.5867 94.6122 64.4738 94.1164 64.4738Z" fill="#4C60E5"/>
<path d="M104.758 60.3336C104.758 60.1416 104.593 59.935 104.304 59.7669C103.941 59.5555 103.427 59.4342 102.894 59.4343C102.361 59.4343 101.845 59.5559 101.478 59.7679C101.184 59.9381 101.015 60.1472 101.015 60.3415C101.014 60.5335 101.18 60.7401 101.469 60.9084C101.833 61.12 102.347 61.2414 102.879 61.2414C103.412 61.2414 103.928 61.1199 104.294 60.9081C104.588 60.7374 104.758 60.5282 104.758 60.3336Z" fill="#383C43"/>
<path d="M158.952 76.4847C159.013 76.4847 159.072 76.4533 159.104 76.3971C159.153 76.3127 159.125 76.2049 159.041 76.156L117.463 51.9526C117.379 51.9026 117.271 51.9316 117.222 52.016C117.173 52.1004 117.201 52.2082 117.285 52.2572L158.863 76.4605C158.892 76.4771 158.922 76.4847 158.952 76.4847Z" fill="#DBDEE4"/>
<path d="M136.953 62.6028C137.486 62.6028 138.003 62.7243 138.37 62.9361C138.665 63.1061 138.834 63.315 138.834 63.5092C138.834 63.701 138.669 63.9074 138.379 64.0755C138.015 64.2869 137.501 64.4082 136.967 64.4082C136.434 64.4082 135.918 64.2868 135.551 64.0752C135.256 63.905 135.087 63.6959 135.087 63.5015C135.086 63.3097 135.252 63.1033 135.541 62.9354C135.905 62.7239 136.419 62.6028 136.953 62.6028Z" fill="#383C43"/>
<path d="M164.028 110.522C164.058 110.522 164.089 110.514 164.117 110.498L180.604 100.815C180.837 100.678 180.976 100.436 180.975 100.165C180.974 99.895 180.835 99.6521 180.602 99.5164L153.951 84.0227C153.867 83.9741 153.759 84.0021 153.71 84.0868C153.661 84.1709 153.69 84.279 153.774 84.328L180.424 99.8214C180.548 99.8934 180.622 100.022 180.622 100.166C180.622 100.31 180.549 100.438 180.425 100.511L163.938 110.194C163.854 110.243 163.826 110.351 163.875 110.435C163.909 110.491 163.967 110.522 164.028 110.522Z" fill="#DBDEE4"/>
<path d="M166.001 111.556C167.275 110.82 167.282 109.625 166.017 108.889C164.752 108.152 162.692 108.153 161.419 108.889C160.145 109.625 160.139 110.82 161.404 111.556C162.67 112.292 164.728 112.293 166.001 111.556Z" fill="white"/>
<path d="M163.7 112.281C164.564 112.281 165.429 112.091 166.089 111.709C166.765 111.318 167.137 110.789 167.137 110.218C167.138 109.65 166.771 109.124 166.106 108.736C164.793 107.972 162.65 107.973 161.33 108.736C160.655 109.126 160.283 109.656 160.283 110.226C160.282 110.794 160.649 111.32 161.315 111.708C161.972 112.09 162.835 112.281 163.7 112.281ZM163.721 108.511C164.521 108.511 165.321 108.688 165.928 109.041C166.481 109.363 166.785 109.78 166.785 110.217C166.784 110.657 166.474 111.078 165.913 111.403C164.69 112.111 162.707 112.11 161.493 111.403C160.94 111.081 160.635 110.663 160.636 110.227C160.636 109.787 160.946 109.366 161.507 109.042C162.119 108.688 162.921 108.511 163.721 108.511Z" fill="#DBDEE4"/>
<path d="M163.717 109.381C163.221 109.381 162.741 109.494 162.399 109.692C162.125 109.85 161.968 110.045 161.968 110.226C161.967 110.405 162.122 110.597 162.391 110.754C162.729 110.951 163.208 111.064 163.704 111.064C164.2 111.064 164.68 110.951 165.021 110.753C165.295 110.595 165.453 110.4 165.453 110.219C165.453 110.04 165.299 109.848 165.03 109.691C164.692 109.494 164.213 109.381 163.717 109.381Z" fill="#4C60E5"/>
<path d="M174.929 102.99C174.395 102.99 173.879 103.112 173.513 103.324C173.219 103.494 173.05 103.703 173.049 103.897C173.049 104.089 173.215 104.296 173.504 104.464C173.867 104.676 174.381 104.797 174.914 104.797C175.446 104.797 175.962 104.676 176.328 104.464C176.623 104.293 176.792 104.084 176.792 103.889C176.793 103.697 176.627 103.491 176.338 103.323C175.975 103.111 175.461 102.99 174.929 102.99Z" fill="#383C43"/>
<path d="M117.171 110.217C117.201 110.217 117.231 110.209 117.26 110.193L158.838 85.9894C158.922 85.9405 158.95 85.8326 158.902 85.7482C158.853 85.6638 158.746 85.6349 158.66 85.6849L117.082 109.888C116.998 109.937 116.97 110.045 117.018 110.129C117.051 110.186 117.11 110.217 117.171 110.217Z" fill="#DBDEE4"/>
<path d="M139.171 96.3349C138.637 96.3349 138.121 96.4564 137.754 96.6682C137.459 96.8382 137.29 97.0471 137.29 97.2413C137.289 97.4331 137.455 97.6395 137.745 97.8076C138.109 98.019 138.623 98.1403 139.156 98.1403C139.69 98.1403 140.206 98.0189 140.573 97.8072C140.868 97.6369 141.037 97.4278 141.037 97.2335C141.037 97.0417 140.872 96.8353 140.583 96.6673C140.219 96.4561 139.704 96.3349 139.171 96.3349Z" fill="#383C43"/>
<path d="M100.666 177.747C100.697 177.747 100.728 177.739 100.756 177.722L117.242 168.039C117.474 167.903 117.614 167.66 117.613 167.39C117.612 167.119 117.473 166.877 117.239 166.741L90.5899 151.247C90.5052 151.198 90.3977 151.226 90.3487 151.311C90.2998 151.395 90.3281 151.503 90.4121 151.552L117.061 167.046C117.186 167.118 117.26 167.247 117.26 167.39C117.26 167.534 117.187 167.663 117.063 167.735L100.577 177.419C100.492 177.468 100.465 177.576 100.514 177.66C100.547 177.716 100.606 177.747 100.666 177.747Z" fill="#DBDEE4"/>
<path d="M102.638 178.781C103.912 178.044 103.919 176.85 102.654 176.113C101.389 175.377 99.3292 175.377 98.0557 176.114C96.7823 176.85 96.7761 178.044 98.0413 178.781C99.3065 179.517 101.365 179.517 102.638 178.781Z" fill="white"/>
<path d="M100.338 179.506C101.202 179.506 102.067 179.315 102.727 178.933C103.402 178.543 103.774 178.014 103.775 177.442C103.776 176.875 103.409 176.349 102.743 175.961C101.431 175.198 99.2884 175.197 97.9681 175.961C97.2935 176.351 96.9213 176.88 96.9207 177.451C96.9201 178.019 97.2866 178.545 97.953 178.933C98.6097 179.315 99.4732 179.506 100.338 179.506ZM100.359 175.736C101.159 175.736 101.958 175.912 102.565 176.266C103.119 176.588 103.423 177.005 103.423 177.442C103.422 177.882 103.112 178.304 102.551 178.628C101.328 179.335 99.3443 179.335 98.1308 178.628C97.5775 178.306 97.2728 177.888 97.2736 177.451C97.2743 177.012 97.5837 176.591 98.1446 176.266C98.7565 175.913 99.5579 175.736 100.359 175.736Z" fill="#DBDEE4"/>
<path d="M100.355 176.606C99.8583 176.606 99.3779 176.719 99.0366 176.917C98.7625 177.075 98.6052 177.27 98.6048 177.451C98.6046 177.629 98.7588 177.822 99.028 177.978C99.3665 178.176 99.8451 178.288 100.341 178.288C100.837 178.288 101.317 178.175 101.658 177.978C101.932 177.819 102.09 177.625 102.09 177.443C102.09 177.265 101.936 177.072 101.667 176.916C101.329 176.719 100.851 176.606 100.355 176.606Z" fill="#4C60E5"/>
<path d="M111.566 170.215C111.033 170.215 110.517 170.336 110.15 170.548C109.856 170.718 109.687 170.928 109.686 171.122C109.686 171.314 109.852 171.52 110.141 171.689C110.504 171.9 111.018 172.022 111.551 172.022C112.084 172.022 112.599 171.9 112.966 171.688C113.26 171.518 113.429 171.309 113.43 171.114C113.43 170.922 113.264 170.715 112.976 170.547C112.612 170.336 112.098 170.215 111.566 170.215Z" fill="#383C43"/>
<path d="M153.479 163.13C153.54 163.13 153.599 163.098 153.632 163.042C153.681 162.958 153.652 162.85 153.568 162.801L120.276 143.581C120.194 143.532 120.085 143.56 120.035 143.645C119.987 143.73 120.016 143.837 120.1 143.886L153.391 163.106C153.419 163.122 153.449 163.13 153.479 163.13Z" fill="#DBDEE4"/>
<path d="M134.959 153.042C134.959 152.85 135.125 152.643 135.414 152.475C135.778 152.264 136.293 152.142 136.826 152.142C137.36 152.142 137.877 152.264 138.245 152.476C138.54 152.646 138.709 152.855 138.709 153.05C138.709 153.242 138.543 153.448 138.254 153.617C137.89 153.828 137.375 153.95 136.841 153.95C136.308 153.95 135.791 153.828 135.424 153.616C135.129 153.446 134.959 153.237 134.959 153.042Z" fill="#383C43"/>
<g opacity="0.1">
<path d="M147.162 126.804C149.481 128.142 149.494 130.309 147.19 131.648L64.29 179.823C61.9863 181.162 58.2451 181.162 55.9263 179.823L12.5128 154.759C10.1939 153.42 10.1819 151.253 12.4854 149.914L95.3852 101.739C97.689 100.401 101.43 100.401 103.749 101.739L147.162 126.804Z" fill="#010101"/>
</g>
<path d="M11.2107 148.422C11.2107 149.296 11.7955 150.182 12.9588 150.851L56.3777 175.915C57.077 176.319 57.9028 176.602 58.7828 176.759C59.3493 176.867 59.9462 176.921 60.5369 176.921C61.1276 176.921 61.7124 176.873 62.2849 176.771C63.1831 176.614 64.027 176.331 64.7322 175.915L147.634 127.741C148.785 127.078 149.358 126.21 149.358 125.342L149.382 115.227C149.382 116.101 148.809 116.975 147.664 117.632L64.7624 165.812C64.045 166.234 63.1951 166.518 62.2849 166.668C61.7123 166.771 61.1276 166.813 60.5369 166.813C59.9462 166.813 59.3554 166.759 58.7828 166.65C57.9088 166.493 57.0889 166.21 56.3957 165.812L12.989 140.749C11.8196 140.068 11.2408 139.194 11.2408 138.302L11.2107 148.422Z" fill="#BEC4CD"/>
<path d="M58.7824 166.65V176.759C59.349 176.867 59.9458 176.921 60.5365 176.921C61.1272 176.921 61.712 176.873 62.2845 176.771V166.668C61.7119 166.771 61.1272 166.813 60.5365 166.813C59.9458 166.813 59.3551 166.759 58.7824 166.65Z" fill="#F1F2F5"/>
<path d="M60.5717 177.098C62.1794 177.098 63.6879 176.733 64.8236 176.07L147.724 127.894C148.89 127.221 149.533 126.314 149.533 125.341L149.56 115.24C149.56 115.237 149.56 115.233 149.56 115.23V115.229C149.56 115.229 149.56 115.229 149.56 115.229C149.56 115.131 149.481 115.052 149.384 115.052C149.286 115.052 149.207 115.131 149.207 115.229V115.239C149.202 116.085 148.623 116.882 147.575 117.482L64.6733 165.658C63.5887 166.291 62.134 166.638 60.5725 166.638C60.5607 166.638 60.5491 166.638 60.5373 166.638C59.0095 166.633 57.5706 166.284 56.486 165.658L13.0746 140.594C12.0044 139.969 11.4145 139.155 11.4145 138.302C11.4145 138.205 11.336 138.126 11.2381 138.126C11.1409 138.126 11.0616 138.204 11.0616 138.302L11.0348 148.419C11.0348 149.408 11.6874 150.326 12.872 151.006L56.2882 176.07C57.4308 176.727 58.9392 177.092 60.5359 177.098C60.5476 177.098 60.56 177.098 60.5717 177.098ZM149.204 116.457L149.18 125.34C149.18 126.182 148.6 126.981 147.547 127.589L64.6457 175.765C63.5631 176.397 62.118 176.745 60.5724 176.745C60.5606 176.745 60.549 176.745 60.5372 176.745C59.0012 176.739 57.5547 176.391 56.4645 175.765L13.0475 150.7C11.9767 150.086 11.3875 149.276 11.3875 148.419L11.4109 139.519C11.7175 140.033 12.2205 140.504 12.8973 140.898L56.3095 165.963C57.4465 166.62 58.9481 166.985 60.5358 166.991C62.1697 167.002 63.7043 166.631 64.8511 165.963L147.751 117.788C148.409 117.411 148.9 116.957 149.204 116.457Z" fill="#383C43"/>
<path d="M15.7118 152.618C15.8089 152.618 15.8882 152.54 15.8882 152.442V142.321C15.8882 142.223 15.8089 142.144 15.7118 142.144C15.6146 142.144 15.5353 142.223 15.5353 142.321V152.442C15.5353 152.54 15.6146 152.618 15.7118 152.618Z" fill="#383C43"/>
<path d="M128.145 133.623C128.151 134.046 128.296 134.348 128.535 134.486L129.421 135.002C129.182 134.857 129.037 134.561 129.03 134.139C129.03 133.288 129.629 132.255 130.366 131.827L136.818 128.103C137.196 127.889 137.529 127.87 137.775 128.009L136.889 127.493C136.643 127.355 136.31 127.374 135.932 127.588L129.48 131.312C128.743 131.74 128.145 132.773 128.145 133.623Z" fill="#383C43"/>
<path d="M129.421 135.178C129.481 135.178 129.539 135.147 129.572 135.092C129.622 135.009 129.595 134.901 129.512 134.851C129.32 134.735 129.211 134.481 129.206 134.136C129.206 133.348 129.766 132.38 130.454 131.98L136.905 128.256C137.211 128.083 137.49 128.05 137.687 128.162C137.773 128.21 137.88 128.181 137.927 128.097C137.975 128.012 137.946 127.905 137.863 127.856L136.977 127.341C136.664 127.164 136.261 127.197 135.844 127.435L129.391 131.159C128.592 131.623 127.967 132.706 127.967 133.624C127.967 133.625 127.967 133.626 127.967 133.626C127.975 134.105 128.145 134.465 128.446 134.639L129.332 135.155C129.36 135.171 129.39 135.178 129.421 135.178ZM137.067 127.801C136.957 127.835 136.844 127.885 136.73 127.95L130.277 131.675C129.479 132.138 128.854 133.221 128.854 134.139C128.856 134.265 128.869 134.383 128.893 134.491L128.624 134.334C128.434 134.224 128.327 133.972 128.32 133.623C128.321 132.832 128.881 131.864 129.568 131.464L136.019 127.741C136.322 127.569 136.603 127.534 136.802 127.647L137.067 127.801Z" fill="#383C43"/>
<path d="M130.367 131.828C129.627 132.256 129.03 133.29 129.032 134.141C129.035 134.991 129.636 135.334 130.376 134.906L136.829 131.18C137.569 130.753 138.166 129.718 138.164 128.868C138.161 128.018 137.56 127.675 136.82 128.102L130.367 131.828Z" fill="white"/>
<path d="M129.775 135.267C129.99 135.267 130.225 135.197 130.465 135.059L136.917 131.333C137.718 130.87 138.343 129.788 138.34 128.867C138.339 128.392 138.169 128.032 137.859 127.855C137.551 127.675 137.149 127.709 136.733 127.95L130.28 131.676C129.479 132.138 128.854 133.221 128.857 134.141C128.858 134.616 129.029 134.976 129.338 135.154C129.469 135.23 129.617 135.267 129.775 135.267ZM137.421 128.094C137.519 128.094 137.607 128.116 137.684 128.16C137.879 128.273 137.987 128.524 137.987 128.868C137.99 129.66 137.431 130.629 136.741 131.027L130.289 134.753C129.985 134.928 129.71 134.962 129.513 134.848C129.318 134.736 129.21 134.484 129.209 134.14C129.207 133.348 129.766 132.379 130.456 131.981L136.909 128.255C137.094 128.149 137.269 128.094 137.421 128.094Z" fill="#383C43"/>
<path d="M116.877 140.314C116.883 140.736 117.028 141.039 117.267 141.177L118.153 141.692C117.914 141.548 117.769 141.252 117.763 140.83C117.763 139.979 118.361 138.946 119.098 138.518L125.55 134.794C125.928 134.58 126.262 134.561 126.507 134.699L125.621 134.184C125.376 134.045 125.042 134.064 124.664 134.279L118.212 138.003C117.475 138.431 116.877 139.464 116.877 140.314Z" fill="#383C43"/>
<path d="M118.154 141.869C118.214 141.869 118.272 141.838 118.305 141.783C118.355 141.699 118.328 141.592 118.245 141.541C118.054 141.425 117.945 141.171 117.94 140.827C117.94 140.039 118.499 139.07 119.188 138.67L125.639 134.947C125.944 134.774 126.221 134.74 126.421 134.853C126.505 134.9 126.613 134.872 126.661 134.787C126.709 134.703 126.68 134.596 126.597 134.547L125.711 134.032C125.398 133.855 124.996 133.888 124.577 134.125L118.125 137.85C117.326 138.314 116.701 139.396 116.701 140.314C116.701 140.315 116.701 140.316 116.701 140.317C116.708 140.796 116.878 141.155 117.18 141.33L118.065 141.845C118.093 141.861 118.123 141.869 118.154 141.869ZM125.801 134.492C125.69 134.526 125.577 134.576 125.464 134.64L119.011 138.365C118.212 138.829 117.587 139.911 117.587 140.83C117.589 140.955 117.602 141.073 117.627 141.182L117.357 141.025C117.17 140.916 117.059 140.657 117.054 140.313C117.055 139.523 117.614 138.555 118.302 138.155L124.753 134.431C125.058 134.258 125.338 134.225 125.536 134.338L125.801 134.492Z" fill="#383C43"/>
<path d="M119.1 138.519C118.36 138.946 117.763 139.981 117.765 140.831C117.767 141.681 118.369 142.024 119.109 141.597L125.561 137.871C126.301 137.444 126.899 136.409 126.896 135.559C126.894 134.708 126.293 134.366 125.553 134.793L119.1 138.519Z" fill="white"/>
<path d="M118.506 141.958C118.722 141.958 118.956 141.888 119.196 141.749L125.649 138.023C126.449 137.561 127.074 136.478 127.072 135.558C127.07 135.083 126.9 134.723 126.591 134.545C126.281 134.367 125.88 134.4 125.463 134.64L119.011 138.366C118.21 138.828 117.585 139.911 117.588 140.832C117.59 141.307 117.76 141.667 118.069 141.845C118.201 141.92 118.348 141.958 118.506 141.958ZM126.153 134.785C126.25 134.785 126.338 134.807 126.415 134.851C126.61 134.963 126.718 135.215 126.719 135.559C126.722 136.351 126.162 137.32 125.472 137.718L119.02 141.444C118.718 141.618 118.442 141.652 118.246 141.539C118.05 141.427 117.942 141.175 117.941 140.831C117.938 140.038 118.498 139.07 119.188 138.672C119.188 138.672 119.188 138.672 119.188 138.672L125.64 134.946C125.825 134.839 126 134.785 126.153 134.785Z" fill="#383C43"/>
<path d="M147.635 112.791C149.954 114.13 149.966 116.297 147.662 117.636L64.7627 165.811C62.459 167.149 58.7178 167.149 56.3991 165.811L12.9856 140.746C10.6667 139.408 10.6546 137.241 12.9582 135.902L95.858 87.7268C98.1618 86.388 101.903 86.3881 104.222 87.7268L147.635 112.791Z" fill="#383C43"/>
<path d="M60.5867 166.986C62.133 166.986 63.6773 166.645 64.8516 165.963L147.751 117.788C148.918 117.11 149.56 116.199 149.559 115.222C149.558 114.239 148.906 113.321 147.723 112.638L104.31 87.5745C101.947 86.21 98.1173 86.2108 95.7687 87.5745L12.8688 135.75C11.7021 136.428 11.0606 137.339 11.0613 138.316C11.0627 139.299 11.7146 140.217 12.897 140.899L56.3106 165.963C57.4918 166.645 59.0403 166.986 60.5867 166.986ZM147.547 112.944C148.615 113.561 149.205 114.37 149.206 115.222C149.207 116.068 148.627 116.871 147.574 117.483L64.6738 165.658C62.4238 166.966 58.7508 166.965 56.4871 165.658L13.0735 140.594C12.0047 139.977 11.4154 139.167 11.4141 138.315C11.4134 137.47 11.993 136.667 13.0467 136.055L95.9465 87.8796C98.1958 86.5721 101.869 86.5727 104.133 87.8796L147.547 112.944Z" fill="#383C43"/>
<path d="M148.574 115.224C148.574 115.823 148.094 116.448 147.257 116.934L64.3568 165.11C63.3639 165.687 62.0257 166.005 60.585 166.005C59.1496 166.005 57.806 165.687 56.8023 165.11L13.3907 140.045C12.538 139.554 12.0471 138.923 12.0471 138.313C12.0471 137.714 12.5273 137.088 13.3637 136.602L96.2641 88.4271C97.2571 87.8497 98.5953 87.5313 100.036 87.5313C101.471 87.5313 102.815 87.8497 103.819 88.4271L147.23 113.491C148.083 113.982 148.574 114.614 148.574 115.224Z" fill="white"/>
<path d="M60.5852 166.182C62.0537 166.182 63.425 165.855 64.4457 165.262L147.346 117.086C148.239 116.568 148.751 115.889 148.751 115.223C148.751 114.55 148.229 113.863 147.319 113.338L103.907 88.2743C102.876 87.6813 101.502 87.3546 100.036 87.3546C98.5665 87.3546 97.1952 87.6813 96.1753 88.2743L13.2748 136.45C12.3824 136.968 11.8704 137.647 11.8704 138.313C11.8704 138.986 12.3921 139.673 13.3024 140.198L56.7146 165.262C57.7454 165.855 59.1202 166.182 60.5852 166.182ZM100.036 87.7075C101.441 87.7075 102.753 88.0173 103.731 88.5799L147.142 113.644C147.94 114.104 148.398 114.679 148.398 115.223C148.398 115.76 147.95 116.328 147.169 116.781L64.2678 164.957C63.3003 165.519 61.9924 165.829 60.5852 165.829C59.1808 165.829 57.8687 165.519 56.8908 164.956L13.4786 139.892C12.6806 139.433 12.223 138.857 12.223 138.313C12.223 137.776 12.671 137.208 13.4517 136.755L96.3529 88.5796C97.3198 88.0173 98.6278 87.7075 100.036 87.7075Z" fill="#383C43"/>
<path d="M110.979 97.6123C111.62 97.987 127.926 107.46 128.682 107.9C129.892 108.602 131.864 108.602 133.077 107.903L135.285 106.626C134.528 106.186 114.059 94.2943 113.197 93.7935L110.989 95.0675C109.777 95.7692 109.77 96.9105 110.979 97.6123Z" fill="#383C43"/>
<path d="M130.881 108.601C131.707 108.601 132.534 108.419 133.165 108.056L135.372 106.778C135.426 106.747 135.46 106.689 135.46 106.626C135.46 106.563 135.427 106.505 135.372 106.473C134.617 106.033 114.147 94.1416 113.285 93.641C113.23 93.6093 113.163 93.6093 113.108 93.641L110.901 94.9149C110.255 95.2883 109.899 95.7959 109.899 96.3441C109.899 96.8892 110.25 97.3935 110.89 97.7647C111.356 98.0379 119.998 103.059 125.042 105.989L128.592 108.053C129.222 108.418 130.052 108.601 130.881 108.601ZM134.932 106.625L132.988 107.751C131.821 108.422 129.93 108.42 128.769 107.747L125.219 105.684C120.175 102.754 111.53 97.7309 111.067 97.46C111.067 97.46 111.067 97.4597 111.067 97.4597C110.541 97.1544 110.252 96.7582 110.252 96.3444C110.252 95.9271 110.545 95.5282 111.077 95.2201L113.196 93.9977C114.798 94.9285 132.469 105.194 134.932 106.625Z" fill="#383C43"/>
<path d="M127.43 105.201C127.933 105.201 128.403 105.09 128.752 104.888C129.068 104.706 129.241 104.478 129.242 104.247C129.242 104.018 129.073 103.794 128.766 103.615L115.048 95.6442C114.7 95.4418 114.23 95.3304 113.725 95.3304C113.219 95.3304 112.747 95.4425 112.395 95.646C112.083 95.8257 111.912 96.0514 111.912 96.2817C111.911 96.5114 112.081 96.7365 112.39 96.9161L126.107 104.887C126.456 105.09 126.926 105.201 127.43 105.201Z" fill="white"/>
<path d="M130.987 107.268C131.49 107.268 131.959 107.157 132.309 106.955C132.624 106.773 132.798 106.546 132.798 106.314C132.798 106.085 132.629 105.86 132.32 105.681C131.972 105.479 131.502 105.367 130.997 105.367C130.492 105.367 130.019 105.479 129.667 105.683C129.356 105.862 129.184 106.088 129.184 106.318C129.184 106.548 129.353 106.773 129.662 106.953C130.012 107.156 130.482 107.268 130.987 107.268Z" fill="white"/>
<path d="M130.989 106.883C131.288 106.883 131.567 106.817 131.775 106.697C131.962 106.589 132.065 106.453 132.065 106.315C132.066 106.179 131.965 106.046 131.781 105.939C131.574 105.819 131.295 105.753 130.995 105.753C130.694 105.753 130.413 105.819 130.204 105.94C130.019 106.047 129.917 106.181 129.917 106.318C129.917 106.455 130.017 106.589 130.201 106.695C130.409 106.816 130.689 106.883 130.989 106.883Z" fill="#4C60E5"/>
<path d="M52.2249 167.966C51.7468 167.69 51.3605 167.918 51.359 168.467C51.3574 169.023 51.7411 169.688 52.2192 169.964C52.7097 170.247 53.0959 170.027 53.0975 169.471C53.099 168.921 52.7154 168.249 52.2249 167.966Z" fill="#383C43"/>
<path d="M48.646 165.9C48.168 165.624 47.7816 165.852 47.7802 166.401C47.7786 166.957 48.1623 167.622 48.6404 167.898C49.1309 168.181 49.5171 167.961 49.5187 167.405C49.5202 166.855 49.1365 166.184 48.646 165.9Z" fill="#383C43"/>
<path d="M45.0689 163.834C44.5908 163.558 44.2045 163.786 44.203 164.335C44.2014 164.891 44.5851 165.556 45.0632 165.832C45.5537 166.115 45.9399 165.895 45.9415 165.339C45.943 164.789 45.5594 164.118 45.0689 163.834Z" fill="#383C43"/>
<path d="M22.6355 150.885C22.1575 150.609 21.7712 150.836 21.7697 151.385C21.7681 151.942 22.1518 152.606 22.6299 152.882C23.1204 153.165 23.5066 152.945 23.5082 152.389C23.5097 151.84 23.126 151.168 22.6355 150.885Z" fill="#383C43"/>
<path d="M19.0572 148.819C18.5791 148.543 18.1928 148.77 18.1913 149.319C18.1897 149.876 18.5734 150.54 19.0515 150.816C19.542 151.099 19.9282 150.88 19.9298 150.323C19.9313 149.774 19.5477 149.102 19.0572 148.819Z" fill="#383C43"/>
<path d="M29.1144 156.645C28.6248 156.362 28.2284 155.676 28.23 155.113C28.2316 154.551 28.6306 154.323 29.1201 154.606L38.5984 160.078C39.088 160.361 39.483 161.047 39.4814 161.609C39.4798 162.172 39.0822 162.4 38.5927 162.117L29.1144 156.645Z" fill="#383C43"/>
<path d="M70.1432 172.951C70.2403 172.951 70.3196 172.872 70.3196 172.775V162.684C70.3196 162.586 70.2403 162.507 70.1432 162.507C70.046 162.507 69.9667 162.586 69.9667 162.684V172.775C69.9667 172.872 70.046 172.951 70.1432 172.951Z" fill="#383C43"/>
<path d="M142.798 130.73C142.895 130.73 142.974 130.651 142.974 130.553V120.463C142.974 120.365 142.895 120.286 142.798 120.286C142.7 120.286 142.621 120.365 142.621 120.463V130.553C142.621 130.651 142.7 130.73 142.798 130.73Z" fill="#383C43"/>
<path d="M89.7293 154.703C88.9271 155.166 88.2796 156.288 88.2822 157.21C88.2848 158.132 88.9367 158.503 89.7389 158.04L105.32 149.042C106.122 148.579 106.77 147.458 106.767 146.536C106.765 145.614 106.113 145.243 105.31 145.706L89.7293 154.703Z" fill="#F1F2F5"/>
<path d="M89.7473 155.626C90.0954 155.425 90.3765 155.59 90.3777 155.99C90.3789 156.395 90.0995 156.879 89.7515 157.08C89.3944 157.286 89.1132 157.126 89.1121 156.721C89.111 156.321 89.3903 155.832 89.7473 155.626Z" fill="#383C43"/>
<g opacity="0.1">
<path d="M52.2509 142.213L58.8951 146.075L65.5829 142.213L58.9386 138.35L52.2509 142.213Z" fill="#383C43"/>
</g>
<g opacity="0.1">
<path d="M63.6358 135.582L70.2801 139.445L76.9679 135.582L70.3235 131.72L63.6358 135.582Z" fill="#383C43"/>
</g>
<g opacity="0.1">
<path d="M75.0993 128.886L81.7436 132.748L88.4314 128.886L81.787 125.023L75.0993 128.886Z" fill="#383C43"/>
</g>
<g opacity="0.1">
<path d="M86.6169 122.24L93.2612 126.102L99.949 122.24L93.3047 118.377L86.6169 122.24Z" fill="#383C43"/>
</g>
<path d="M86.536 80.5702L86.6388 121.486L93.2831 125.348L93.1803 84.4326L86.536 80.5702Z" fill="#F1F2F5"/>
<path d="M93.2832 125.525C93.3135 125.525 93.3438 125.517 93.3713 125.501C93.4258 125.47 93.4595 125.411 93.4595 125.348L93.3568 84.4319C93.3568 84.3692 93.323 84.3113 93.2693 84.2797L86.6248 80.4176C86.5696 80.3858 86.5029 80.3858 86.4477 80.4176C86.3933 80.4489 86.3595 80.5076 86.3595 80.5706L86.4622 121.486C86.4622 121.549 86.496 121.607 86.5498 121.639L93.1942 125.501C93.2218 125.517 93.2528 125.525 93.2832 125.525ZM93.004 84.5341L93.106 125.042L86.8151 121.384L86.7131 80.8774L93.004 84.5341Z" fill="#383C43"/>
<path d="M93.1801 84.4326L93.2829 125.348L99.9755 121.483L99.8728 80.5675L93.1801 84.4326Z" fill="#4C60E5"/>
<path d="M93.2833 125.525C93.3137 125.525 93.344 125.517 93.3715 125.501L100.064 121.636C100.119 121.605 100.152 121.546 100.152 121.483L100.05 80.5672C100.05 80.5042 100.016 80.4459 99.9615 80.4146C99.9063 80.3836 99.8402 80.3833 99.7851 80.4149L93.0924 84.2798C93.038 84.3111 93.0042 84.3697 93.0042 84.4328L93.1069 125.349C93.1069 125.412 93.1407 125.47 93.1951 125.501C93.2226 125.517 93.253 125.525 93.2833 125.525ZM99.7996 121.382L93.459 125.043L93.3571 84.5341L99.6977 80.8729L99.7996 121.382Z" fill="#383C43"/>
<path d="M86.5356 80.5703L93.1799 84.4327L99.8726 80.5676L93.2282 76.7053L86.5356 80.5703Z" fill="#383C43"/>
<path d="M93.1808 84.6088C93.2112 84.6088 93.2415 84.6009 93.2691 84.5851L99.9618 80.7202C100.016 80.6889 100.05 80.6307 100.05 80.5679C100.05 80.5049 100.017 80.4467 99.9624 80.4149L93.3179 76.5525C93.2628 76.5208 93.196 76.5208 93.1409 76.5525L86.4482 80.4177C86.3938 80.449 86.36 80.5072 86.36 80.57C86.36 80.633 86.3931 80.6912 86.4476 80.723L93.092 84.5851C93.1195 84.6009 93.1505 84.6088 93.1808 84.6088ZM99.5214 80.5673L93.1808 84.2285L86.8886 80.5707L93.2291 76.9092L99.5214 80.5673Z" fill="#383C43"/>
<path d="M87.8794 80.5723L93.2269 77.4844L98.5284 80.5658L93.1808 83.6537L87.8794 80.5723Z" fill="white"/>
<path d="M93.1807 83.8301C93.2111 83.8301 93.2413 83.8222 93.2689 83.8064L98.6172 80.7185C98.6715 80.6872 98.7053 80.6289 98.7053 80.5662C98.7053 80.5032 98.6722 80.4449 98.6178 80.4132L93.3157 77.3318C93.2606 77.3001 93.1938 77.3001 93.1386 77.3318L87.7911 80.4197C87.7367 80.451 87.703 80.5093 87.703 80.572C87.703 80.635 87.7361 80.6933 87.7905 80.725L93.0918 83.8063C93.1194 83.8222 93.1504 83.8301 93.1807 83.8301ZM98.1768 80.5655L93.1807 83.4497L88.2315 80.5727L93.2269 77.6885L98.1768 80.5655Z" fill="#383C43"/>
<path d="M75.0182 91.8336L75.121 128.101L81.7654 131.963L81.6626 95.6958L75.0182 91.8336Z" fill="#F1F2F5"/>
<path d="M81.7653 132.139C81.7957 132.139 81.8261 132.132 81.8535 132.116C81.908 132.084 81.9418 132.026 81.9418 131.963L81.8391 95.6952C81.8391 95.6324 81.8053 95.5746 81.7516 95.5429L75.1071 91.6808C75.0519 91.6491 74.985 91.6491 74.93 91.6808C74.8756 91.7121 74.8419 91.7708 74.8419 91.8338L74.9445 128.101C74.9445 128.164 74.9783 128.222 75.0321 128.254L81.6766 132.116C81.7041 132.132 81.7351 132.139 81.7653 132.139ZM81.4863 95.7973L81.5883 131.656L75.2974 127.999L75.1955 92.1406L81.4863 95.7973Z" fill="#383C43"/>
<path d="M81.6613 95.6958L81.7641 131.963L88.4567 128.098L88.3539 91.8308L81.6613 95.6958Z" fill="#4C60E5"/>
<path d="M81.7639 132.139C81.7943 132.139 81.8246 132.131 81.8521 132.115L88.5448 128.251C88.5993 128.219 88.6329 128.161 88.6329 128.098L88.5296 91.8302C88.5296 91.7671 88.4958 91.7089 88.4414 91.6776C88.3863 91.6466 88.3202 91.6463 88.265 91.6779L81.573 95.5428C81.5185 95.5741 81.4848 95.6327 81.4848 95.6958L81.5875 131.963C81.5875 132.026 81.6213 132.084 81.6758 132.116C81.7034 132.131 81.7337 132.139 81.7639 132.139ZM88.2803 127.997L81.9397 131.658L81.8378 95.7972L88.1776 92.136L88.2803 127.997Z" fill="#383C43"/>
<path d="M75.0178 91.8334L81.6622 95.6956L88.3547 91.8307L81.7104 87.9683L75.0178 91.8334Z" fill="#383C43"/>
<path d="M81.6622 95.8719C81.6925 95.8719 81.7228 95.864 81.7503 95.8481L88.4423 91.9833C88.4967 91.9519 88.5305 91.8937 88.5305 91.831C88.5305 91.7679 88.4975 91.7097 88.443 91.678L81.7993 87.8156C81.7441 87.7838 81.6773 87.7838 81.6222 87.8156L74.9295 91.6807C74.8751 91.7121 74.8414 91.7703 74.8414 91.833C74.8414 91.8961 74.8745 91.9543 74.9289 91.986L81.5733 95.8481C81.6008 95.864 81.6318 95.8719 81.6622 95.8719ZM88.002 91.8303L81.6622 95.4915L75.3699 91.8338L81.7105 88.1723L88.002 91.8303Z" fill="#383C43"/>
<path d="M76.3618 91.8351L81.7087 88.7472L87.0103 91.8285L81.6634 94.9167L76.3618 91.8351Z" fill="white"/>
<path d="M81.6646 95.0933C81.6949 95.0933 81.7253 95.0854 81.7528 95.0695L87.0997 91.9813C87.1541 91.9499 87.1879 91.8917 87.1879 91.829C87.1879 91.7659 87.1548 91.7077 87.1004 91.676L81.7982 88.5947C81.7431 88.563 81.6763 88.563 81.6212 88.5947L76.2743 91.6826C76.2199 91.7139 76.1861 91.7721 76.1861 91.8349C76.1861 91.8979 76.2193 91.9561 76.2737 91.9879L81.5757 95.0696C81.6033 95.0854 81.6343 95.0933 81.6646 95.0933ZM86.6593 91.8283L81.6647 94.7129L76.7148 91.8355L81.7094 88.9513L86.6593 91.8283Z" fill="#383C43"/>
<path d="M63.5552 106.178L63.658 134.721L70.3022 138.583L70.1996 110.04L63.5552 106.178Z" fill="#F1F2F5"/>
<path d="M70.3021 138.759C70.3324 138.759 70.3628 138.751 70.3902 138.736C70.4454 138.704 70.4784 138.646 70.4784 138.582L70.3757 110.04C70.3757 109.977 70.3419 109.919 70.2882 109.888L63.6437 106.025C63.5886 105.994 63.5218 105.994 63.4666 106.025C63.4115 106.057 63.3785 106.115 63.3785 106.179L63.4812 134.722C63.4812 134.784 63.5149 134.842 63.5687 134.873L70.2132 138.736C70.2407 138.751 70.2717 138.759 70.3021 138.759ZM70.0237 110.142L70.1244 138.276L63.8335 134.619L63.7328 106.485L70.0237 110.142Z" fill="#383C43"/>
<path d="M70.1995 110.04L70.3022 138.583L76.9948 134.718L76.8919 106.175L70.1995 110.04Z" fill="#4C60E5"/>
<path d="M70.3024 138.759C70.3327 138.759 70.3631 138.751 70.3906 138.735L77.0832 134.871C77.1384 134.839 77.1714 134.781 77.1714 134.717L77.0681 106.174C77.0681 106.112 77.0343 106.053 76.9799 106.022C76.9248 105.991 76.8586 105.991 76.8035 106.022L70.1114 109.888C70.0563 109.919 70.0232 109.978 70.0232 110.041L70.1259 138.583C70.1259 138.646 70.1596 138.704 70.214 138.736C70.2417 138.751 70.2721 138.759 70.3024 138.759ZM76.818 134.616L70.4774 138.278L70.3768 110.142L76.7166 106.48L76.818 134.616Z" fill="#383C43"/>
<path d="M63.5543 106.178L70.1987 110.04L76.8911 106.175L70.2468 102.313L63.5543 106.178Z" fill="#383C43"/>
<path d="M70.1996 110.217C70.23 110.217 70.2603 110.209 70.2878 110.193L76.9798 106.328C77.0342 106.297 77.068 106.238 77.068 106.176C77.068 106.113 77.0349 106.054 76.9805 106.023L70.3367 102.16C70.2816 102.128 70.2148 102.128 70.1597 102.16L63.467 106.025C63.4126 106.057 63.3788 106.115 63.3788 106.178C63.3788 106.241 63.4118 106.299 63.4663 106.331L70.1108 110.193C70.1383 110.209 70.1693 110.217 70.1996 110.217ZM76.5395 106.175L70.1996 109.837L63.9074 106.178L70.2479 102.517L76.5395 106.175Z" fill="#383C43"/>
<path d="M64.8982 106.18L70.2457 103.092L75.5472 106.173L70.1996 109.261L64.8982 106.18Z" fill="white"/>
<path d="M70.1999 109.438C70.2303 109.438 70.2606 109.43 70.2881 109.414L75.6356 106.326C75.6901 106.295 75.7238 106.236 75.7238 106.174C75.7238 106.11 75.6906 106.052 75.6362 106.021L70.3349 102.939C70.2797 102.908 70.213 102.908 70.1578 102.939L64.8103 106.027C64.7559 106.059 64.7221 106.117 64.7221 106.18C64.7221 106.243 64.7553 106.301 64.8097 106.333L70.111 109.414C70.1386 109.43 70.1697 109.438 70.1999 109.438ZM75.1953 106.173L70.1999 109.057L65.2507 106.18L70.2461 103.296L75.1953 106.173Z" fill="#383C43"/>
<path d="M52.0958 120.52L52.1986 141.338L58.843 145.201L58.7402 124.382L52.0958 120.52Z" fill="#F1F2F5"/>
<path d="M58.843 145.377C58.8733 145.377 58.9043 145.369 58.9311 145.354C58.9863 145.322 59.0194 145.263 59.0194 145.2L58.9161 124.381C58.9161 124.319 58.8823 124.261 58.8286 124.23L52.1848 120.367C52.1297 120.336 52.0615 120.336 52.0077 120.367C51.9526 120.399 51.9196 120.458 51.9196 120.521L52.0223 141.339C52.0223 141.402 52.0561 141.459 52.1098 141.491L58.7543 145.354C58.7816 145.369 58.8127 145.377 58.843 145.377ZM58.564 124.484L58.6653 144.893L52.3744 141.237L52.2737 120.827L58.564 124.484Z" fill="#383C43"/>
<path d="M58.74 124.383L58.8428 145.201L65.5305 141.339L65.4277 120.52L58.74 124.383Z" fill="#4C60E5"/>
<path d="M58.8432 145.377C58.8736 145.377 58.9039 145.37 58.9314 145.354L65.6192 141.491C65.6744 141.459 65.7074 141.401 65.7074 141.338L65.6041 120.519C65.6041 120.456 65.5703 120.398 65.5151 120.367C65.4614 120.336 65.3946 120.336 65.3395 120.367L58.6516 124.23C58.5965 124.262 58.5634 124.32 58.5634 124.384L58.6668 145.202C58.6668 145.265 58.7005 145.323 58.7557 145.354C58.7826 145.37 58.813 145.377 58.8432 145.377ZM65.354 141.237L59.0182 144.896L58.9169 124.484L65.2527 120.825L65.354 141.237Z" fill="#383C43"/>
<path d="M52.0956 120.52L58.74 124.382L65.4277 120.52L58.7833 116.658L52.0956 120.52Z" fill="#383C43"/>
<path d="M58.7403 124.559C58.7707 124.559 58.801 124.551 58.8285 124.535L65.5163 120.673C65.5708 120.641 65.6045 120.583 65.6045 120.52C65.6045 120.457 65.5714 120.399 65.517 120.367L58.8725 116.505C58.8173 116.474 58.7506 116.474 58.6954 116.505L52.0083 120.367C51.9539 120.399 51.9201 120.457 51.9201 120.52C51.9201 120.583 51.9532 120.641 52.0077 120.673L58.6514 124.535C58.679 124.551 58.71 124.559 58.7403 124.559ZM65.0761 120.52L58.7403 124.179L52.4487 120.521L58.7837 116.862L65.0761 120.52Z" fill="#383C43"/>
<path d="M53.4399 120.522L58.7822 117.437L64.0837 120.518L58.7414 123.604L53.4399 120.522Z" fill="white"/>
<path d="M58.7416 123.78C58.772 123.78 58.8023 123.772 58.8298 123.756L64.1717 120.671C64.2262 120.64 64.26 120.581 64.26 120.519C64.26 120.456 64.2269 120.397 64.1725 120.366L58.8711 117.284C58.816 117.252 58.7492 117.252 58.6941 117.284L53.3514 120.369C53.2969 120.401 53.2631 120.459 53.2631 120.522C53.2631 120.585 53.2962 120.643 53.3506 120.675L58.6526 123.756C58.6803 123.772 58.7114 123.78 58.7416 123.78ZM63.7316 120.518L58.7417 123.399L53.7918 120.522L58.7824 117.641L63.7316 120.518Z" fill="#383C43"/>
<path d="M45.4159 155.377C45.9185 155.377 46.3886 155.266 46.7383 155.064C47.0534 154.882 47.2271 154.654 47.2275 154.423C47.2275 154.194 47.0587 153.97 46.7517 153.791L33.0339 145.82C32.6854 145.618 32.2159 145.506 31.711 145.506C31.2052 145.506 30.7326 145.619 30.3804 145.822C30.0691 146.002 29.8974 146.227 29.8974 146.458C29.897 146.688 30.0668 146.913 30.3755 147.092L44.0929 155.063C44.4419 155.266 44.9114 155.377 45.4159 155.377Z" fill="#BEC4CD"/>
<g opacity="0.1">
<path d="M67.4751 60.9786C68.0807 61.3282 68.0838 61.8926 67.489 62.2382L7.57886 97.0473C6.98407 97.3929 6.00992 97.3928 5.40434 97.0432L2.44493 95.3346C1.84619 94.989 1.84289 94.4247 2.43778 94.0791L62.348 59.27C62.9429 58.9244 63.917 58.9243 64.5158 59.2699L67.4751 60.9786Z" fill="#010101"/>
</g>
<path d="M0.176338 41.6975L0.294762 88.1385C0.294762 89.619 0.817932 90.6554 1.65689 91.1389L5.83225 93.5672C4.99319 93.0836 4.47002 92.0372 4.47002 90.5667L4.3517 44.1258C4.34177 41.1548 6.43433 37.5324 9.02046 36.042L65.8057 3.25276C67.1086 2.50261 68.2833 2.43348 69.1321 2.92695L64.9568 0.49891C64.1079 0.00543809 62.9333 0.0745751 61.6305 0.824507L4.8452 33.6141C2.25896 35.1041 0.166405 38.7264 0.176338 41.6975Z" fill="#DBDEE4"/>
<path d="M5.83224 93.7435C5.89294 93.7435 5.95213 93.7118 5.98526 93.6557C6.03345 93.5712 6.00523 93.4634 5.92113 93.4145L5.9067 93.4062C5.10525 92.936 4.64629 91.9019 4.64629 90.5665L4.52779 44.1252C4.51817 41.2131 6.5731 37.6555 9.10837 36.1947L65.8935 3.40519C67.0954 2.71328 68.2144 2.59724 69.0428 3.07927C69.1283 3.12789 69.2358 3.1 69.284 3.01516C69.3329 2.93106 69.3046 2.82324 69.2206 2.77398L65.046 0.345942C64.1027 -0.202241 62.858 -0.0860856 61.5426 0.67122L4.75677 33.461C2.12437 34.9781 -0.00983429 38.6734 -0.000213623 41.6982L0.118286 88.1388C0.118286 89.6331 0.633797 90.7529 1.56894 91.2917L5.72773 93.7105C5.73329 93.7136 5.73874 93.7167 5.7443 93.7201C5.77165 93.7359 5.802 93.7435 5.83224 93.7435ZM67.9057 2.4331C67.2311 2.4331 66.4868 2.65676 65.7171 3.09947L8.93193 35.889C6.29889 37.406 4.16532 41.1013 4.17504 44.1261L4.29354 90.5667C4.29354 91.434 4.47694 92.1892 4.8159 92.7718L1.7459 90.986C0.92382 90.5126 0.471031 89.5013 0.471031 88.1384L0.352539 41.697V41.6967C0.342918 38.7849 2.39784 35.2274 4.93311 33.7665L61.7189 0.976729C62.9208 0.285248 64.0398 0.16909 64.8682 0.651128L67.9326 2.4331C67.9236 2.4331 67.9147 2.4331 67.9057 2.4331Z" fill="#383C43"/>
<path d="M9.0208 36.0371C6.43691 37.5288 4.34525 41.1519 4.35369 44.1207L4.46856 90.5664C4.477 93.5353 6.58236 94.7352 9.16625 93.2434L65.9537 60.4579C68.5374 58.9661 70.6229 55.3467 70.6145 52.3779L70.4996 5.93219C70.4912 2.96324 68.392 1.7598 65.8083 3.25154L9.0208 36.0371Z" fill="white"/>
<path d="M7.06716 94.0633C7.74177 94.0633 8.48669 93.8397 9.25449 93.3963L66.0417 60.6105C68.6686 59.0938 70.7993 55.4006 70.7911 52.3775L70.676 5.93174C70.6719 4.43295 70.1523 3.30976 69.213 2.76916C68.2696 2.22653 67.0292 2.34333 65.7198 3.09893L8.93263 35.8847C6.30225 37.4027 4.16879 41.0981 4.17702 44.1211L4.2921 90.5669C4.29626 92.0637 4.81584 93.1855 5.75514 93.7261C6.14722 93.9513 6.5896 94.0633 7.06716 94.0633ZM67.9029 2.78572C68.3185 2.78572 68.7009 2.88189 69.0372 3.07509C69.8628 3.55019 70.319 4.56492 70.3231 5.93249L70.4382 52.3783C70.4464 55.2887 68.395 58.8448 65.8652 60.3054L9.07797 93.0911C7.88103 93.7816 6.76392 93.8991 5.93083 93.4201C5.10522 92.9451 4.64902 91.9314 4.64495 90.5663L4.52988 44.1205C4.52164 41.2097 6.57584 37.6522 9.10907 36.19L65.8963 3.40422C66.6081 2.99346 67.291 2.78572 67.9029 2.78572Z" fill="#383C43"/>
<path d="M28.6667 52.318L28.7365 76.9324L37.7881 71.7066L37.7183 47.0922L28.6667 52.318Z" fill="#BEC4CD"/>
<path d="M40.9296 37.9041L41.0202 69.8402L50.0718 64.6144L49.9812 32.6783L40.9296 37.9041Z" fill="#4C60E5"/>
<path d="M53.2407 40.1474L53.3047 62.7481L62.3484 57.5268L62.2844 34.9261L53.2407 40.1474Z" fill="#BEC4CD"/>
<path d="M12.6195 43.6701L32.4195 45.5256L45.1966 25.8331L60.8595 29.1062" fill="white"/>
<path d="M32.4197 45.7022C32.479 45.7022 32.5348 45.6722 32.5678 45.6219L45.2786 26.0304L60.8237 29.2788C60.9194 29.3008 61.0125 29.2374 61.0325 29.1423C61.0525 29.0469 60.9911 28.9535 60.8954 28.9335L45.2325 25.6604C45.1622 25.6459 45.0878 25.6759 45.0485 25.7369L32.3302 45.34L12.636 43.4943C12.5409 43.4847 12.4534 43.5567 12.4438 43.6535C12.4348 43.7506 12.5058 43.8364 12.603 43.8457L32.4034 45.7014C32.4087 45.7019 32.4142 45.7022 32.4197 45.7022Z" fill="#383C43"/>
<path d="M16.3672 53.9949L16.4524 84.0246L25.5039 78.7988L25.4188 48.7691L16.3672 53.9949Z" fill="#4C60E5"/>
<path d="M14.5361 42.5852C14.5361 43.8043 13.6846 45.2824 12.6229 45.8938C11.565 46.5016 10.7059 46.0177 10.7022 44.7984C10.6984 43.5793 11.5538 42.1012 12.6117 41.4898C13.6695 40.8783 14.5323 41.366 14.5361 42.5852Z" fill="#4C60E5"/>
<path d="M34.6541 44.0974C34.6541 45.3166 33.8025 46.7946 32.7408 47.4061C31.6829 48.0139 30.8239 47.5299 30.8201 46.3107C30.8164 45.0915 31.6717 43.6135 32.7296 43.002C33.7875 42.3905 34.6503 42.8782 34.6541 44.0974Z" fill="#4C60E5"/>
<path d="M47.4181 25.0523C47.4181 26.2714 46.5665 27.7495 45.5049 28.3609C44.4469 28.9687 43.5879 28.4848 43.5841 27.2655C43.5804 26.0464 44.4357 24.5683 45.4936 23.9569C46.5516 23.3453 47.4144 23.833 47.4181 25.0523Z" fill="#4C60E5"/>
<path d="M62.061 27.8427C62.061 29.0618 61.2095 30.5399 60.1478 31.1514C59.0899 31.7592 58.2308 31.2752 58.2271 30.056C58.2234 28.8367 59.0787 27.3587 60.1366 26.7473C61.1945 26.1358 62.0573 26.6236 62.061 27.8427Z" fill="#4C60E5"/>
<g opacity="0.1">
<path d="M142.109 86.3519C139.968 87.5882 139.956 89.5885 142.079 90.8224L156.736 99.3405C158.859 100.575 162.312 100.574 164.453 99.3381L179.202 90.8226C181.339 89.5886 181.35 87.5886 179.227 86.3546L164.57 77.8365C162.447 76.6026 158.994 76.6025 156.857 77.8365L142.109 86.3519Z" fill="#010101"/>
</g>
<path d="M140.483 79.331L140.501 86.4842C140.51 87.2836 141.037 88.0875 142.087 88.6938L156.744 97.2201C157.385 97.5935 158.15 97.8526 158.962 97.9976C160.052 98.1952 161.229 98.1908 162.314 97.9756C163.1 97.8306 163.838 97.5715 164.466 97.2113L179.211 88.6938C180.292 88.0743 180.823 87.2662 180.823 86.449L180.797 79.3091C180.797 80.1216 180.257 80.9388 179.19 81.5493L164.44 90.0625C163.82 90.4227 163.091 90.6775 162.314 90.8225C161.229 91.0377 160.052 91.0465 158.962 90.8489C158.145 90.7039 157.372 90.4403 156.727 90.067L142.069 81.5494C141.015 80.9387 140.483 80.1349 140.483 79.331Z" fill="#BEC4CD"/>
<path d="M158.963 90.8489V97.9976C160.052 98.1952 161.229 98.1908 162.314 97.9756V90.8225C161.229 91.0377 160.052 91.0466 158.963 90.8489Z" fill="#DBDEE4"/>
<path d="M160.592 98.3106C162.025 98.3106 163.459 97.9956 164.554 97.3661L179.299 88.8485C180.396 88.2179 181 87.3655 181 86.4483L180.973 79.31C180.972 79.2128 180.894 79.1343 180.797 79.1343C180.699 79.1346 180.62 79.2136 180.62 79.3107C180.62 80.0821 180.067 80.8433 179.102 81.3983L164.35 89.909C162.265 91.1194 158.884 91.1228 156.814 89.9159L142.157 81.3986C141.195 80.8377 140.664 80.1069 140.659 79.3406V79.3306C140.659 79.2331 140.579 79.1545 140.482 79.1545C140.384 79.1545 140.306 79.2338 140.306 79.3309V79.3312C140.306 79.3351 140.306 79.3385 140.306 79.3416L140.326 86.4824C140.333 87.39 140.928 88.23 142 88.8485L156.657 97.3723C157.74 97.998 159.165 98.3106 160.592 98.3106ZM180.624 80.4697L180.647 86.4491C180.647 87.2339 180.106 87.9779 179.123 88.5428L164.378 97.0605C162.289 98.2616 158.906 98.2641 156.833 97.067L142.176 88.5432C141.217 87.9894 140.685 87.257 140.678 86.4807L140.662 80.5055C140.944 80.9517 141.389 81.3593 141.979 81.7035L156.636 90.2207C158.803 91.4842 162.343 91.4818 164.527 90.2142L179.278 81.7038C179.879 81.3583 180.337 80.9338 180.624 80.4697Z" fill="#383C43"/>
<path d="M142.095 77.0784C139.954 78.3148 139.943 80.315 142.066 81.5489L156.723 90.0671C158.846 91.3011 162.299 91.3009 164.44 90.0646L179.188 81.5491C181.325 80.3152 181.337 78.315 179.213 77.081L164.557 68.5629C162.434 67.329 158.981 67.3289 156.844 68.5629L142.095 77.0784Z" fill="#383C43"/>
<path d="M160.572 91.1641C162.002 91.1641 163.435 90.8486 164.528 90.2169L179.276 81.7014C180.371 81.0698 180.974 80.2195 180.975 79.3071C180.976 78.4006 180.382 77.5561 179.302 76.9283L164.646 68.41C162.476 67.1504 158.937 67.1496 156.755 68.41L142.007 76.9256C140.911 77.5582 140.306 78.4099 140.305 79.3229C140.303 80.2291 140.897 81.0736 141.977 81.7014L156.633 90.2194C157.717 90.8489 159.144 91.1641 160.572 91.1641ZM160.705 67.8126C162.07 67.8126 163.433 68.1134 164.468 68.7153L179.125 77.2336C180.092 77.7953 180.623 78.5315 180.622 79.3068C180.621 80.0879 180.08 80.8301 179.1 81.3961L164.351 89.9116C162.266 91.1166 158.882 91.1183 156.811 89.9141L142.154 81.3961C141.188 80.8344 140.657 80.0985 140.658 79.3237C140.659 78.5416 141.201 77.7984 142.183 77.2309L156.932 68.7153C157.974 68.1137 159.341 67.8126 160.705 67.8126Z" fill="#383C43"/>
<path d="M160.572 90.4366C161.934 90.4366 163.209 90.1333 164.162 89.583L178.91 81.0674C179.769 80.572 180.242 79.9469 180.243 79.3065C180.243 78.6722 179.779 78.0524 178.934 77.5614L164.277 69.0429C163.334 68.4949 162.066 68.1932 160.705 68.1932C159.345 68.1932 158.072 68.4949 157.121 69.0441L142.373 77.5598C141.512 78.0562 141.038 78.6831 141.037 79.3239C141.036 79.9582 141.5 80.5774 142.345 81.0685L157.002 89.5869C157.945 90.135 159.213 90.4366 160.572 90.4366Z" fill="white"/>
<path d="M160.573 90.6132C161.965 90.6132 163.271 90.3017 164.251 89.7356L178.999 81.2201C179.913 80.6922 180.418 80.0128 180.42 79.3068C180.42 78.6067 179.924 77.9327 179.023 77.4087L164.367 68.8903C163.397 68.327 162.097 68.0169 160.705 68.0169C159.313 68.0169 158.009 68.3273 157.033 68.8913L142.285 77.4072C141.367 77.9368 140.862 78.6172 140.861 79.3236C140.86 80.023 141.355 80.6969 142.256 81.2211L156.913 89.7394C157.883 90.3027 159.182 90.6132 160.573 90.6132ZM160.706 68.3697C162.036 68.3697 163.273 68.6629 164.189 69.1956L178.845 77.714C179.634 78.1718 180.068 78.7375 180.067 79.3061C180.066 79.8811 179.624 80.4524 178.823 80.9149L164.075 89.4305C163.147 89.9655 161.904 90.2605 160.573 90.2605C159.243 90.2605 158.007 89.9673 157.091 89.4343L142.435 80.916C141.646 80.4581 141.213 79.893 141.214 79.3245C141.215 78.7491 141.658 78.1769 142.461 77.7127L157.21 69.1968C158.132 68.6633 159.374 68.3697 160.706 68.3697Z" fill="#383C43"/>
<g opacity="0.1">
<path d="M164.836 78.7526C167.142 80.0841 167.154 82.2496 164.855 83.5862C162.564 84.9176 158.825 84.9176 156.519 83.5862C154.204 82.2497 154.192 80.0842 156.483 78.7526C158.783 77.4162 162.521 77.4162 164.836 78.7526Z" fill="#010101"/>
</g>
<path d="M154.984 79.9286C154.984 80.789 155.551 81.6494 156.686 82.3059C158.936 83.6061 162.581 83.6061 164.818 82.3059C165.933 81.6557 166.494 80.8082 166.494 79.9605L166.57 56.602C166.57 56.6721 166.564 56.7359 166.558 56.8059C166.475 57.5899 165.92 58.3547 164.894 58.9475C162.664 60.2476 159.012 60.2476 156.762 58.9475C155.628 58.291 155.061 57.4306 155.061 56.5702L154.997 76.8058L154.984 79.9286Z" fill="#383C43"/>
<path d="M160.757 83.4543C162.261 83.4543 163.764 83.1225 164.907 82.4586C166.044 81.7953 166.67 80.9081 166.67 79.9606L166.747 56.6104C166.747 56.6076 166.747 56.6053 166.747 56.6028C166.747 56.6025 166.747 56.6025 166.747 56.602C166.747 56.5049 166.668 56.4256 166.57 56.4256C166.473 56.4256 166.394 56.5042 166.394 56.6013V56.6019C166.394 56.603 166.394 56.6036 166.394 56.6047V56.6061C166.394 56.664 166.388 56.717 166.383 56.7743C166.302 57.5409 165.743 58.2538 164.806 58.7948C162.621 60.0679 159.053 60.0673 156.85 58.7948C155.81 58.1929 155.237 57.4024 155.237 56.57C155.237 56.4729 155.158 56.3936 155.061 56.3936C154.963 56.3936 154.884 56.4721 154.884 56.5692L154.808 79.9277C154.808 79.9281 154.808 79.9281 154.808 79.9284C154.808 80.8921 155.443 81.7907 156.597 82.4585C157.746 83.1224 159.252 83.4543 160.757 83.4543ZM166.39 57.8052L166.317 79.9598C166.317 80.7774 165.753 81.5561 164.729 82.1535C162.542 83.4246 158.973 83.4243 156.774 82.1532C155.734 81.5512 155.161 80.7616 155.161 79.9291L155.234 57.7735C155.533 58.2697 156.021 58.7221 156.674 59.1001C158.976 60.4294 162.704 60.429 164.983 59.0998C165.614 58.7352 166.092 58.2924 166.39 57.8052Z" fill="#383C43"/>
<path d="M154.997 76.8056C155.073 77.6023 155.634 78.3862 156.685 78.9916C158.935 80.2918 162.58 80.2918 164.818 78.9916C165.933 78.3415 166.494 77.4939 166.494 76.6463L166.557 56.8058C166.474 57.5898 165.92 58.3546 164.894 58.9473C162.663 60.2475 159.012 60.2475 156.762 58.9473C155.628 58.2909 155.061 57.4305 155.061 56.5701L154.997 76.8056Z" fill="white"/>
<path d="M160.756 80.14C162.261 80.14 163.764 79.8082 164.906 79.1443C166.043 78.481 166.67 77.5937 166.67 76.6462L166.734 56.8064C166.734 56.7123 166.661 56.6347 166.567 56.6296C166.456 56.6107 166.391 56.6941 166.382 56.7871C166.302 57.541 165.742 58.2539 164.806 58.7948C162.62 60.0679 159.053 60.0673 156.85 58.7948C155.809 58.1929 155.237 57.4024 155.237 56.57C155.237 56.4729 155.158 56.3936 155.06 56.3936C154.963 56.3936 154.884 56.4721 154.884 56.5692L154.82 76.805C154.82 76.8109 154.82 76.8168 154.821 76.8225C154.907 77.7094 155.537 78.5343 156.597 79.1445C157.746 79.8082 159.251 80.14 160.756 80.14ZM166.377 57.8245L166.317 76.6456C166.317 77.4632 165.752 78.2419 164.728 78.8394C162.542 80.1105 158.972 80.11 156.773 78.8391C155.818 78.2892 155.25 77.5646 155.173 76.7976L155.233 57.7736C155.532 58.2698 156.02 58.7222 156.673 59.1002C158.975 60.4295 162.703 60.4291 164.983 59.0999C165.606 58.74 166.079 58.3038 166.377 57.8245Z" fill="#383C43"/>
<path d="M164.878 54.2348C167.127 55.5336 167.139 57.6461 164.896 58.9498C162.661 60.2486 159.014 60.2486 156.764 58.9498C154.507 57.646 154.495 55.5335 156.729 54.2347C158.973 52.9311 162.619 52.931 164.878 54.2348Z" fill="#383C43"/>
<path d="M160.836 60.0978C162.341 60.0978 163.843 59.766 164.985 59.1024C166.123 58.4405 166.75 57.5505 166.748 56.5958C166.747 55.6373 166.114 54.7445 164.966 54.082C162.662 52.7517 158.928 52.7531 156.641 54.082C155.508 54.7408 154.884 55.628 154.886 56.58C154.887 57.541 155.523 58.4368 156.677 59.1025C157.826 59.766 159.332 60.0978 160.836 60.0978ZM164.79 54.3873C165.824 54.9847 166.394 55.7693 166.396 56.5966C166.396 57.4197 165.832 58.2015 164.807 58.7972C162.623 60.0679 159.054 60.0679 156.853 58.7972C155.814 58.1967 155.24 57.4093 155.239 56.5797C155.238 55.7586 155.799 54.9799 156.819 54.3873C159.008 53.1148 162.584 53.1142 164.79 54.3873Z" fill="#383C43"/>
<path d="M164.878 54.2348C167.127 55.5336 167.139 57.6461 164.896 58.9498C162.661 60.2486 159.014 60.2486 156.764 58.9498C154.507 57.646 154.495 55.5335 156.729 54.2347C158.973 52.9311 162.619 52.931 164.878 54.2348Z" fill="#383C43"/>
<path d="M160.836 60.0978C162.341 60.0978 163.843 59.766 164.985 59.1024C166.123 58.4405 166.75 57.5505 166.748 56.5958C166.747 55.6373 166.114 54.7445 164.966 54.082C162.662 52.7517 158.928 52.7531 156.641 54.082C155.508 54.7408 154.884 55.628 154.886 56.58C154.887 57.541 155.523 58.4368 156.677 59.1025C157.826 59.766 159.332 60.0978 160.836 60.0978ZM164.79 54.3873C165.824 54.9847 166.394 55.7693 166.396 56.5966C166.396 57.4197 165.832 58.2015 164.807 58.7972C162.623 60.0679 159.054 60.0679 156.853 58.7972C155.814 58.1967 155.24 57.4093 155.239 56.5797C155.238 55.7586 155.799 54.9799 156.819 54.3873C159.008 53.1148 162.584 53.1142 164.79 54.3873Z" fill="#383C43"/>
<path d="M163.494 44.6773L163.458 56.1658C163.457 56.5636 163.195 56.9612 162.673 57.2652C161.625 57.874 159.916 57.874 158.861 57.2652C158.328 56.9573 158.062 56.5534 158.063 56.1504L158.099 44.6621C158.098 45.065 158.364 45.4691 158.897 45.7768C159.952 46.3856 161.661 46.3856 162.709 45.7768C163.231 45.4728 163.493 45.0752 163.494 44.6773Z" fill="white"/>
<path d="M160.77 57.8952C161.492 57.8952 162.213 57.736 162.762 57.4176C163.323 57.0906 163.634 56.6462 163.634 56.1662L163.671 44.6779C163.671 44.5804 163.592 44.5011 163.495 44.5008H163.494C163.397 44.5008 163.318 44.5793 163.318 44.6765C163.317 45.0269 163.069 45.3635 162.62 45.624C161.622 46.2042 159.992 46.2042 158.985 45.624C158.527 45.359 158.274 45.0176 158.276 44.6627C158.276 44.5652 158.197 44.4859 158.1 44.4856H158.099C158.002 44.4856 157.923 44.5642 157.923 44.6613C157.923 44.6616 157.923 44.6616 157.923 44.662L157.887 56.1496C157.886 56.6368 158.2 57.0871 158.773 57.4176C159.325 57.736 160.047 57.8952 160.77 57.8952ZM163.315 45.522L163.281 56.1652C163.281 56.515 163.033 56.8513 162.584 57.1124C161.586 57.6927 159.954 57.6927 158.95 57.1124C158.491 56.8475 158.239 56.506 158.24 56.1511L158.273 45.5076C158.413 45.6623 158.593 45.8046 158.809 45.9294C159.912 46.5668 161.701 46.5662 162.798 45.9294C163.006 45.8083 163.179 45.6712 163.315 45.522Z" fill="#383C43"/>
<path d="M162.699 43.5663C163.754 44.1751 163.759 45.1653 162.708 45.7764C161.66 46.3853 159.951 46.3853 158.897 45.7764C157.838 45.1653 157.833 44.1752 158.88 43.5663C159.932 42.9552 161.641 42.9552 162.699 43.5663Z" fill="white"/>
<path d="M160.805 46.4072C161.528 46.4072 162.249 46.2476 162.798 45.9293C163.361 45.6012 163.671 45.1554 163.671 44.6731C163.67 44.189 163.356 43.7418 162.788 43.4137C161.684 42.7757 159.892 42.776 158.792 43.4141C158.231 43.7403 157.922 44.1848 157.923 44.6661C157.923 45.1513 158.238 45.5998 158.809 45.9292C159.36 46.2476 160.083 46.4072 160.805 46.4072ZM160.788 43.2828C161.448 43.2828 162.108 43.4283 162.612 43.719C163.066 43.9816 163.317 44.3206 163.318 44.6738C163.319 45.025 163.071 45.3622 162.62 45.6241C161.622 46.2043 159.992 46.2043 158.985 45.6241C158.528 45.3598 158.276 45.0194 158.276 44.6656C158.275 44.3158 158.522 43.9796 158.97 43.7195C159.47 43.4282 160.129 43.2828 160.788 43.2828Z" fill="#383C43"/>
<path d="M141.072 16.7491C141.047 26.4303 148.146 38.7246 156.578 43.5938C158.713 44.8238 160.758 45.474 162.504 45.474C165.627 45.474 167.106 43.3707 167.794 41.121C166.367 40.8914 164.792 40.286 163.167 39.3492C154.736 34.4798 147.636 22.192 147.662 12.5107C147.662 11.4591 147.764 9.84661 148.235 8.29791C147.789 8.2214 147.35 8.18314 146.935 8.18314C141.665 8.18325 141.079 14.1743 141.072 16.7491Z" fill="#383C43"/>
<path d="M162.505 45.6506C165.179 45.6506 167.067 44.1022 167.963 41.1728C167.978 41.1238 167.971 41.0711 167.944 41.0278C167.917 40.9847 167.873 40.9551 167.823 40.9468C166.415 40.7208 164.878 40.1315 163.256 39.1961C154.874 34.3558 147.813 22.1353 147.838 12.511C147.838 11.4601 147.937 9.88516 148.405 8.34917C148.419 8.30098 148.412 8.24819 148.386 8.20513C148.359 8.16206 148.316 8.13246 148.266 8.12381C147.812 8.04634 147.364 8.00669 146.936 8.00669C141.504 8.00669 140.902 14.1197 140.896 16.7487C140.871 26.487 148.011 38.8505 156.49 43.7467C158.651 44.9922 160.731 45.6506 162.505 45.6506ZM167.565 41.2607C166.688 43.94 164.986 45.2978 162.505 45.2978C160.793 45.2978 158.774 44.6559 156.666 43.4411C148.284 38.6005 141.224 26.3771 141.249 16.7494C141.255 14.2269 141.822 8.35965 146.936 8.35965C147.282 8.35965 147.643 8.38689 148.01 8.44064C147.579 9.95525 147.486 11.4802 147.486 12.5109C147.46 22.2455 154.602 34.6062 163.08 39.5019C164.663 40.4148 166.171 41.0061 167.565 41.2607Z" fill="#383C43"/>
<path d="M141.072 16.7491C141.047 26.4303 148.146 38.7246 156.578 43.5938C158.713 44.8238 160.758 45.474 162.504 45.474C165.627 45.474 167.106 43.3707 167.794 41.121C166.367 40.8914 164.792 40.286 163.167 39.3492C154.736 34.4798 147.636 22.192 147.662 12.5107C147.662 11.4591 147.764 9.84661 148.235 8.29791C147.789 8.2214 147.35 8.18314 146.935 8.18314C141.665 8.18325 141.079 14.1743 141.072 16.7491Z" fill="#383C43"/>
<path d="M162.505 45.6506C165.179 45.6506 167.067 44.1022 167.963 41.1728C167.978 41.1238 167.971 41.0711 167.944 41.0278C167.917 40.9847 167.873 40.9551 167.823 40.9468C166.415 40.7208 164.878 40.1315 163.256 39.1961C154.874 34.3558 147.813 22.1353 147.838 12.511C147.838 11.4601 147.937 9.88516 148.405 8.34917C148.419 8.30098 148.412 8.24819 148.386 8.20513C148.359 8.16206 148.316 8.13246 148.266 8.12381C147.812 8.04634 147.364 8.00669 146.936 8.00669C141.504 8.00669 140.902 14.1197 140.896 16.7487C140.871 26.487 148.011 38.8505 156.49 43.7467C158.651 44.9922 160.731 45.6506 162.505 45.6506ZM167.565 41.2607C166.688 43.94 164.986 45.2978 162.505 45.2978C160.793 45.2978 158.774 44.6559 156.666 43.4411C148.284 38.6005 141.224 26.3771 141.249 16.7494C141.255 14.2269 141.822 8.35965 146.936 8.35965C147.282 8.35965 147.643 8.38689 148.01 8.44064C147.579 9.95525 147.486 11.4802 147.486 12.5109C147.46 22.2455 154.602 34.6062 163.08 39.5019C164.663 40.4148 166.171 41.0061 167.565 41.2607Z" fill="#383C43"/>
<g opacity="0.63">
<path d="M166.328 42.7974C171.598 42.7974 172.184 36.8036 172.191 34.2269C172.219 24.5467 165.121 12.2574 156.692 7.39017C154.556 6.1566 152.505 5.50487 150.762 5.50487C145.493 5.50487 144.907 11.4974 144.899 14.0741C144.871 23.7543 151.971 36.0449 160.402 40.9134C162.537 42.1458 164.586 42.7974 166.328 42.7974Z" fill="#4C60E5"/>
</g>
<path d="M142.347 5.53838C145.521 3.69015 149.924 3.95142 154.781 6.75571C164.429 12.326 172.223 25.8313 172.191 36.9146C172.172 42.4212 170.228 46.2962 167.093 48.1191L174.282 43.9445C177.417 42.1217 179.361 38.2467 179.38 32.7399C179.406 21.6503 171.611 8.15149 161.969 2.58107C157.107 -0.223214 152.709 -0.484483 149.536 1.36374L142.347 5.53838Z" fill="#BEC4CD"/>
<path d="M167.193 20.2322C168.128 21.7838 168.973 23.3937 169.706 25.0356L177.006 20.7953C176.273 19.1536 175.428 17.5382 174.493 15.9866L167.193 20.2322Z" fill="#DBDEE4"/>
<path d="M154.78 6.75564C164.429 12.326 172.223 25.8313 172.191 36.9145C172.159 48.0043 164.314 52.472 154.665 46.9017C145.017 41.3314 137.216 27.8261 137.248 16.7428C137.28 5.65297 145.125 1.18522 154.78 6.75564ZM156.577 43.5938C158.712 44.8238 160.758 45.474 162.504 45.474C167.775 45.474 168.361 39.483 168.367 36.9017C168.393 27.2269 161.294 14.9326 152.868 10.0696C150.733 8.83329 148.681 8.18317 146.935 8.18317C141.665 8.18317 141.085 14.1742 141.072 16.749C141.047 26.4303 148.146 38.7246 156.577 43.5938Z" fill="white"/>
<path d="M162.506 49.4823C164.202 49.4823 165.771 49.0872 167.155 48.2908C170.501 46.3648 172.353 42.3249 172.368 36.9148C172.4 25.7897 164.55 12.1916 154.869 6.60303C150.125 3.86553 145.655 3.42731 142.285 5.36743C138.939 7.29344 137.088 11.3333 137.073 16.7424C137.041 27.8655 144.894 41.4636 154.578 47.0542C157.372 48.6674 160.071 49.4823 162.506 49.4823ZM154.693 6.90822C164.276 12.441 172.047 25.9012 172.016 36.9141C172 42.1925 170.211 46.1243 166.978 47.9848C163.724 49.8588 159.381 49.4195 154.755 46.7489C145.168 41.2144 137.394 27.7538 137.425 16.743C137.441 11.4652 139.229 7.53387 142.461 5.67336C145.72 3.798 150.062 4.23697 154.693 6.90822ZM162.505 45.6505C167.937 45.6505 168.538 39.5323 168.545 36.902C168.57 27.166 161.432 14.8084 152.957 9.91714C150.8 8.66711 148.717 8.00661 146.936 8.00661C141.523 8.00661 140.909 14.1197 140.897 16.7482C140.871 26.4869 148.012 38.8504 156.49 43.7465V43.7468C158.652 44.9921 160.731 45.6505 162.505 45.6505ZM146.936 8.35946C148.655 8.35946 150.676 9.00382 152.781 10.2224C161.16 15.0585 168.217 27.276 168.192 36.9013C168.185 39.4259 167.62 45.2976 162.505 45.2976C160.793 45.2976 158.774 44.6557 156.666 43.4409C148.284 38.6003 141.224 26.377 141.249 16.7492C141.262 14.2272 141.84 8.35946 146.936 8.35946Z" fill="#383C43"/>
<path d="M167.092 48.2953C167.123 48.2953 167.153 48.2877 167.181 48.2716L174.37 44.0971C177.696 42.1638 179.538 38.1305 179.556 32.7407C179.582 21.6154 171.731 8.01748 162.057 2.42847C157.294 -0.318326 152.816 -0.750675 149.446 1.21157L142.275 5.37584C142.269 5.37926 142.263 5.38235 142.257 5.3862C142.173 5.43514 142.145 5.54296 142.194 5.62706C142.243 5.71148 142.35 5.73937 142.435 5.69118V5.69086C142.436 5.69054 142.437 5.68979 142.438 5.68915L142.449 5.68295C145.705 3.79519 150.052 4.22925 154.691 6.90851C164.275 12.4413 172.046 25.9015 172.014 36.9143C171.996 42.1729 170.217 46.098 167.005 47.9659L167.003 47.9665C167.004 47.9665 167.003 47.9668 167.003 47.9665C166.919 48.0154 166.891 48.1236 166.94 48.2077C166.972 48.2639 167.032 48.2953 167.092 48.2953ZM154.127 0.353171C156.498 0.353171 159.138 1.15215 161.88 2.73398C171.458 8.26679 179.229 21.727 179.203 32.7395C179.185 37.9987 177.405 41.9242 174.192 43.7916L169.12 46.7375C171.215 44.5379 172.352 41.1441 172.367 36.9151C172.399 25.7895 164.549 12.1915 154.868 6.60289C151.126 4.44254 147.559 3.7128 144.565 4.45397L149.624 1.51632C150.958 0.739037 152.478 0.353171 154.127 0.353171Z" fill="#383C43"/>
<path d="M133.384 50.1141C134.457 50.7339 134.463 51.7399 133.397 52.3598L119.754 60.2883C118.688 60.9081 116.951 60.9081 115.878 60.2883L102.147 52.36C101.073 51.7402 101.067 50.7341 102.134 50.1143L115.776 42.1858C116.842 41.566 118.579 41.566 119.653 42.1858L133.384 50.1141Z" fill="white"/>
<path d="M117.818 60.9266C118.553 60.9266 119.285 60.765 119.843 60.4411L133.485 52.5123C134.055 52.1805 134.369 51.7291 134.369 51.2409C134.368 50.7496 134.05 50.2951 133.472 49.9616L119.74 42.0331C118.62 41.3854 116.802 41.3854 115.687 42.0331L102.044 49.9616C101.474 50.2934 101.16 50.7451 101.161 51.2336C101.161 51.725 101.48 52.1791 102.058 52.5126L115.789 60.4411C116.35 60.765 117.085 60.9266 117.818 60.9266ZM133.296 50.2669C133.76 50.535 134.015 50.8809 134.016 51.2412C134.017 51.5986 133.765 51.9414 133.308 52.207L119.665 60.1358C118.649 60.7278 116.989 60.7257 115.966 60.1358L102.235 52.2073C101.77 51.9392 101.514 51.5933 101.514 51.2329C101.513 50.8756 101.765 50.5324 102.222 50.2668L115.865 42.3383C116.88 41.7471 118.541 41.7478 119.564 42.3383L133.296 50.2669Z" fill="#DBDEE4"/>
<path d="M112.267 48.0391C109.21 49.8041 109.194 52.6645 112.236 54.4323C115.273 56.1973 120.211 56.1973 123.268 54.4323C126.319 52.6703 126.335 49.81 123.298 48.045C120.257 46.2771 115.319 46.2771 112.267 48.0391Z" fill="white"/>
<path d="M117.744 55.9276C119.773 55.9276 121.805 55.4801 123.355 54.5849C124.893 53.6973 125.74 52.5059 125.742 51.2304C125.744 49.9618 124.907 48.7765 123.387 47.8924C120.304 46.1011 115.275 46.0979 112.178 47.8865C110.638 48.7754 109.789 49.9675 109.788 51.2438C109.786 52.5127 110.624 53.6994 112.147 54.5849C113.687 55.4799 115.714 55.9276 117.744 55.9276ZM117.78 46.8944C119.748 46.8944 121.714 47.3286 123.209 48.1975C124.617 49.0155 125.391 50.0922 125.389 51.2295C125.387 52.3741 124.602 53.457 123.179 54.2795C120.175 56.0133 115.307 56.0133 112.324 54.2795C110.914 53.4601 110.139 52.382 110.141 51.244C110.142 50.099 110.928 49.0151 112.355 48.1916C113.853 47.3269 115.818 46.8944 117.78 46.8944Z" fill="#383C43"/>
<path d="M122.819 35.0995L122.76 50.7102C122.758 51.4507 122.27 52.1904 121.297 52.7563C119.341 53.8931 116.161 53.8931 114.192 52.7563C113.203 52.1855 112.709 51.4356 112.711 50.6867L112.771 35.076C112.769 35.825 113.263 36.5748 114.251 37.1457C116.22 38.2824 119.4 38.2823 121.356 37.1457C122.33 36.5798 122.817 35.8401 122.819 35.0995Z" fill="white"/>
<path d="M121.356 37.1458C120.384 37.7104 119.111 37.9935 117.833 37.997V53.6044C119.091 53.5922 120.34 53.3124 121.297 52.7565C122.27 52.1903 122.758 51.4507 122.76 50.7104L122.819 35.0996C122.817 35.8402 122.33 36.5798 121.356 37.1458Z" fill="#DBDEE4"/>
<path d="M117.749 53.7811C119.068 53.7811 120.384 53.4907 121.385 52.9091C122.382 52.3288 122.933 51.5481 122.936 50.7104L122.995 35.1026C122.995 35.1023 122.995 35.1023 122.995 35.102V35.1003C122.995 35.1003 122.995 35.1002 122.995 35.0999C122.995 35.0028 122.916 34.9235 122.819 34.9232H122.819C122.721 34.9232 122.643 35.0017 122.642 35.0989V35.1023C122.639 35.8083 122.15 36.4798 121.267 36.9928C119.363 38.0996 116.256 38.0996 114.339 36.9928C113.44 36.4733 112.945 35.7931 112.947 35.0772V35.0768C112.947 35.0768 112.947 35.0768 112.947 35.0765C112.947 34.9794 112.868 34.9001 112.771 34.8998H112.771C112.673 34.8998 112.595 34.9783 112.594 35.0755L112.535 50.686C112.533 51.5339 113.09 52.3236 114.103 52.9091C115.11 53.4907 116.43 53.7811 117.749 53.7811ZM122.638 36.2297L122.583 50.7095C122.581 51.4169 122.092 52.0895 121.207 52.6039C119.304 53.7106 116.197 53.7099 114.28 52.6039C113.38 52.0839 112.885 51.4034 112.888 50.6872L112.943 36.2049C113.208 36.6129 113.619 36.985 114.162 37.2982C116.177 38.4618 119.444 38.4611 121.444 37.2982C121.972 36.9912 122.375 36.628 122.638 36.2297Z" fill="#383C43"/>
<path d="M121.336 33.0281C123.305 34.1649 123.315 36.0071 121.356 37.1457C119.4 38.2825 116.22 38.2825 114.251 37.1457C112.285 36.0109 112.275 34.1686 114.231 33.0319C116.19 31.8933 119.37 31.8933 121.336 33.0281Z" fill="white"/>
<path d="M117.808 38.1705C119.126 38.1705 120.443 37.8797 121.444 37.2981C122.445 36.7162 122.996 35.933 122.995 35.0923C122.993 34.2472 122.435 33.4595 121.423 32.8756C119.412 31.7134 116.146 31.7151 114.141 32.8793C113.142 33.4606 112.592 34.243 112.594 35.0838C112.595 35.9286 113.152 36.7152 114.162 37.2982C115.169 37.8796 116.489 38.1705 117.808 38.1705ZM117.784 32.3527C119.037 32.3527 120.29 32.6287 121.247 33.1806C122.145 33.6996 122.641 34.3783 122.642 35.0926C122.642 35.802 122.154 36.477 121.266 36.9927C119.363 38.0994 116.256 38.0994 114.338 36.9927C113.442 36.4749 112.947 35.7968 112.947 35.0828C112.945 34.3737 113.433 33.6994 114.319 33.1844C115.273 32.6301 116.528 32.3527 117.784 32.3527Z" fill="#383C43"/>
<path d="M121.126 24.2969L121.087 34.6366C121.086 35.1292 120.762 35.621 120.114 35.9974C118.813 36.7533 116.698 36.7534 115.389 35.9974C114.731 35.6178 114.403 35.1191 114.404 34.621L114.444 24.2813C114.442 24.7794 114.771 25.2781 115.428 25.6577C116.738 26.4137 118.853 26.4136 120.153 25.6577C120.801 25.2813 121.125 24.7893 121.126 24.2969Z" fill="white"/>
<path d="M120.153 25.6577C119.513 26.0299 118.675 26.2169 117.833 26.2225V36.56C118.662 36.5487 119.484 36.3638 120.114 35.9975C120.762 35.6211 121.086 35.1293 121.087 34.6368L121.126 24.2969C121.125 24.7894 120.801 25.2813 120.153 25.6577Z" fill="#DBDEE4"/>
<path d="M117.754 36.7373C118.642 36.7373 119.529 36.5416 120.203 36.1498C120.885 35.753 121.263 35.2158 121.264 34.6369L121.303 24.2976C121.303 24.2976 121.303 24.2976 121.303 24.2973C121.303 24.2002 121.225 24.1209 121.128 24.1206H121.127C121.03 24.1206 120.951 24.1991 120.95 24.2962V24.2987C120.948 24.7467 120.634 25.1748 120.065 25.505C118.816 26.2313 116.775 26.2313 115.517 25.505C114.938 25.1705 114.62 24.7363 114.621 24.2826V24.2822C114.621 24.2822 114.621 24.2822 114.621 24.2819C114.621 24.1848 114.542 24.1055 114.445 24.1052H114.445C114.347 24.1052 114.269 24.1837 114.268 24.2809L114.228 34.6205C114.227 35.2066 114.608 35.7499 115.301 36.1503C115.978 36.5417 116.867 36.7373 117.754 36.7373ZM120.947 25.2298L120.911 34.636C120.91 35.0842 120.595 35.5135 120.025 35.8447C118.775 36.572 116.734 36.5713 115.477 35.845C114.898 35.5101 114.579 35.0759 114.581 34.6214L114.617 25.2131C114.795 25.434 115.038 25.6355 115.34 25.8102C116.696 26.5931 118.895 26.5931 120.243 25.8102C120.535 25.6401 120.772 25.4437 120.947 25.2298Z" fill="#383C43"/>
<path d="M120.14 22.9194C121.449 23.6753 121.456 24.9005 120.153 25.6577C118.853 26.4137 116.738 26.4137 115.428 25.6577C114.121 24.903 114.114 23.6778 115.415 22.9219C116.718 22.1646 118.833 22.1646 120.14 22.9194Z" fill="#4C60E5"/>
<path d="M117.794 26.3974C118.682 26.3974 119.569 26.2016 120.243 25.8103C120.928 25.412 121.304 24.8728 121.303 24.2918C121.303 23.7079 120.921 23.1662 120.229 22.7669C118.875 21.9844 116.675 21.9862 115.327 22.7693C114.643 23.1669 114.267 23.7055 114.268 24.2864C114.269 24.8704 114.65 25.4117 115.34 25.8103C116.018 26.2017 116.907 26.3974 117.794 26.3974ZM117.778 22.5285C118.601 22.5285 119.425 22.7097 120.053 23.0722C120.631 23.4064 120.95 23.8395 120.95 24.2926C120.951 24.7423 120.637 25.1729 120.065 25.5051C118.816 26.2314 116.775 26.2314 115.517 25.5051C114.94 25.1716 114.622 24.7388 114.621 24.2861C114.62 23.8364 114.934 23.4061 115.504 23.0746C116.13 22.7108 116.954 22.5285 117.778 22.5285Z" fill="#383C43"/>
<path d="M114.64 16.3155V24.26C114.656 24.7142 114.965 25.1601 115.556 25.5087C116.797 26.2223 118.791 26.2223 120.024 25.5087C120.615 25.1601 120.915 24.7141 120.932 24.26V16.3155H114.64Z" fill="url(#paint0_linear_369_25871)"/>
<path d="M179.852 168.375C181.108 169.101 181.115 170.278 179.867 171.004L163.9 180.283C162.652 181.008 160.62 181.008 159.363 180.283L143.293 171.004C142.036 170.278 142.03 169.101 143.278 168.376L159.244 159.096C160.492 158.371 162.525 158.371 163.781 159.096L179.852 168.375Z" fill="white"/>
<path d="M161.635 181C162.489 181 163.341 180.812 163.989 180.436L179.956 171.157C180.614 170.774 180.976 170.255 180.975 169.694C180.975 169.13 180.607 168.608 179.94 168.223L163.869 158.944C162.565 158.19 160.451 158.191 159.156 158.944L143.189 168.223C142.531 168.606 142.169 169.125 142.17 169.686C142.171 170.249 142.538 170.772 143.205 171.157L159.276 180.436C159.928 180.812 160.782 181 161.635 181ZM179.764 168.528C180.316 168.848 180.622 169.262 180.622 169.694C180.623 170.124 180.323 170.534 179.778 170.851L163.811 180.13C162.614 180.826 160.658 180.826 159.452 180.13L143.381 170.851C142.828 170.532 142.523 170.117 142.523 169.685C142.522 169.255 142.822 168.845 143.367 168.528L159.333 159.249C160.533 158.552 162.488 158.552 163.693 159.249L179.764 168.528Z" fill="#DBDEE4"/>
<path d="M155.138 165.947C151.56 168.012 151.542 171.36 155.102 173.429C158.656 175.495 164.435 175.495 168.013 173.429C171.584 171.367 171.603 168.019 168.049 165.954C164.489 163.885 158.71 163.884 155.138 165.947Z" fill="white"/>
<path d="M161.548 175.15C163.918 175.15 166.291 174.627 168.101 173.582C169.891 172.549 170.877 171.164 170.879 169.682C170.881 168.208 169.908 166.83 168.137 165.801C164.537 163.709 158.666 163.706 155.05 165.794C153.257 166.829 152.268 168.215 152.266 169.698C152.264 171.172 153.239 172.551 155.013 173.582C156.811 174.627 159.178 175.15 161.548 175.15ZM161.591 164.577C163.9 164.577 166.207 165.087 167.96 166.106C169.617 167.069 170.529 168.339 170.527 169.681C170.525 171.032 169.6 172.309 167.924 173.277C164.402 175.31 158.69 175.31 155.19 173.277C153.53 172.312 152.617 171.041 152.619 169.698C152.621 168.347 153.548 167.069 155.226 166.099C156.983 165.085 159.289 164.577 161.591 164.577Z" fill="#383C43"/>
<path d="M167.488 150.803L167.418 169.073C167.416 169.94 166.846 170.806 165.706 171.468C163.417 172.798 159.695 172.798 157.391 171.468C156.233 170.8 155.655 169.922 155.658 169.046L155.727 150.776C155.725 151.652 156.303 152.53 157.46 153.198C159.764 154.528 163.486 154.528 165.775 153.198C166.915 152.535 167.485 151.67 167.488 150.803Z" fill="white"/>
<path d="M165.775 153.198C164.638 153.859 163.147 154.19 161.652 154.194V172.46C163.123 172.446 164.586 172.118 165.705 171.468C166.845 170.805 167.415 169.94 167.418 169.073L167.487 150.803C167.485 151.67 166.914 152.535 165.775 153.198Z" fill="#DBDEE4"/>
<path d="M161.554 172.638C163.092 172.638 164.628 172.299 165.795 171.621C166.953 170.947 167.592 170.043 167.595 169.074L167.664 150.809C167.664 150.807 167.664 150.806 167.664 150.805V150.804V150.804C167.664 150.706 167.585 150.627 167.488 150.627H167.488C167.39 150.627 167.312 150.705 167.311 150.803V150.808C167.306 151.645 166.73 152.439 165.686 153.045C163.451 154.345 159.8 154.345 157.549 153.045C156.486 152.432 155.902 151.626 155.904 150.776C155.904 150.776 155.904 150.776 155.904 150.776C155.904 150.679 155.825 150.6 155.728 150.599H155.727C155.63 150.599 155.552 150.678 155.551 150.775V150.775C155.551 150.776 155.551 150.777 155.551 150.778L155.482 169.045C155.479 170.026 156.125 170.941 157.302 171.621C158.477 172.299 160.016 172.638 161.554 172.638ZM167.306 152.022L167.242 169.073C167.239 169.911 166.663 170.708 165.617 171.315C163.381 172.615 159.73 172.615 157.479 171.315C156.416 170.701 155.832 169.896 155.835 169.047L155.899 151.992C156.203 152.5 156.702 152.964 157.372 153.351C159.721 154.707 163.529 154.707 165.864 153.351C166.517 152.971 167.005 152.518 167.306 152.022Z" fill="#383C43"/>
<path d="M165.752 148.379C168.056 149.709 168.068 151.865 165.775 153.198C163.486 154.528 159.764 154.528 157.46 153.198C155.16 151.87 155.148 149.714 157.437 148.383C159.73 147.051 163.452 147.051 165.752 148.379Z" fill="white"/>
<path d="M161.623 154.368C163.161 154.368 164.697 154.028 165.864 153.35C167.026 152.675 167.665 151.767 167.664 150.794C167.663 149.816 167.015 148.904 165.841 148.226C163.493 146.87 159.683 146.873 157.348 148.23C156.188 148.904 155.55 149.811 155.551 150.784C155.552 151.762 156.199 152.673 157.372 153.35C158.546 154.028 160.086 154.367 161.623 154.368ZM165.752 148.379L165.664 148.531C166.725 149.144 167.31 149.948 167.311 150.795C167.312 151.637 166.735 152.435 165.686 153.045C163.451 154.345 159.8 154.345 157.548 153.045C156.489 152.433 155.905 151.63 155.904 150.783C155.903 149.942 156.478 149.144 157.526 148.535C159.765 147.234 163.415 147.233 165.664 148.531L165.752 148.379Z" fill="#383C43"/>
<path d="M165.507 138.16L165.46 150.261C165.459 150.838 165.08 151.413 164.322 151.854C162.799 152.739 160.324 152.739 158.792 151.854C158.022 151.409 157.638 150.826 157.64 150.243L157.686 138.142C157.684 138.725 158.068 139.308 158.838 139.752C160.37 140.637 162.846 140.637 164.368 139.752C165.126 139.312 165.505 138.736 165.507 138.16Z" fill="white"/>
<path d="M164.368 139.752C163.618 140.188 162.638 140.407 161.653 140.413V152.512C162.622 152.499 163.584 152.282 164.322 151.853C165.08 151.413 165.459 150.837 165.46 150.261L165.507 138.16C165.505 138.736 165.126 139.312 164.368 139.752Z" fill="#DBDEE4"/>
<path d="M161.56 152.69C162.593 152.69 163.626 152.462 164.41 152.006C165.199 151.547 165.634 150.928 165.636 150.262L165.682 138.163C165.682 138.163 165.682 138.162 165.682 138.162V138.161V138.16C165.682 138.063 165.603 137.984 165.506 137.984H165.506C165.409 137.984 165.33 138.062 165.329 138.159V138.163C165.326 138.698 164.953 139.208 164.278 139.6C162.808 140.455 160.407 140.455 158.925 139.6C158.238 139.203 157.859 138.685 157.861 138.142C157.861 138.045 157.783 137.966 157.686 137.965H157.685C157.588 137.965 157.509 138.044 157.509 138.141L157.462 150.242C157.46 150.917 157.901 151.544 158.703 152.006C159.492 152.462 160.527 152.69 161.56 152.69ZM165.325 139.164L165.283 150.26C165.282 150.796 164.909 151.308 164.232 151.701C162.762 152.556 160.361 152.556 158.879 151.701C158.191 151.304 157.813 150.786 157.815 150.244L157.857 139.145C158.067 139.427 158.366 139.685 158.749 139.905C160.328 140.817 162.888 140.816 164.456 139.905C164.826 139.689 165.119 139.438 165.325 139.164Z" fill="#383C43"/>
<path d="M164.352 136.548C165.885 137.432 165.893 138.866 164.368 139.753C162.846 140.637 160.37 140.637 158.838 139.753C157.308 138.869 157.3 137.435 158.822 136.551C160.347 135.664 162.823 135.664 164.352 136.548Z" fill="#4C60E5"/>
<path d="M161.606 140.589C162.64 140.589 163.672 140.361 164.456 139.905C165.248 139.445 165.683 138.823 165.682 138.154C165.681 137.482 165.24 136.857 164.44 136.395C162.863 135.484 160.303 135.486 158.732 136.398C157.942 136.858 157.507 137.479 157.508 138.148C157.509 138.82 157.949 139.444 158.749 139.905C159.538 140.361 160.573 140.589 161.606 140.589ZM161.587 136.061C162.555 136.061 163.524 136.274 164.263 136.701C164.949 137.097 165.329 137.614 165.329 138.155C165.33 138.692 164.957 139.206 164.278 139.6C162.808 140.455 160.407 140.455 158.925 139.6C158.239 139.204 157.862 138.688 157.861 138.147C157.86 137.609 158.233 137.097 158.91 136.703C159.647 136.275 160.617 136.061 161.587 136.061Z" fill="#383C43"/>
<path d="M157.915 128.819V138.117C157.934 138.648 158.295 139.17 158.987 139.578C160.439 140.413 162.773 140.413 164.216 139.578C164.908 139.17 165.259 138.648 165.278 138.117V128.819H157.915Z" fill="url(#paint1_linear_369_25871)"/>
<defs>
<linearGradient id="paint0_linear_369_25871" x1="117.786" y1="26.4118" x2="117.786" y2="16.7628" gradientUnits="userSpaceOnUse">
<stop stop-color="#4CB1E5"/>
<stop offset="1" stop-color="white"/>
</linearGradient>
<linearGradient id="paint1_linear_369_25871" x1="161.597" y1="140.635" x2="161.597" y2="129.342" gradientUnits="userSpaceOnUse">
<stop stop-color="#4CB1E5"/>
<stop offset="1" stop-color="white"/>
</linearGradient>
</defs>
</svg>
