<svg width="181" height="181" viewBox="0 0 181 181" fill="none" xmlns="http://www.w3.org/2000/svg">
<path d="M133.626 163.301C133.759 163.221 133.936 163.268 134.017 163.403C134.096 163.539 134.05 163.711 133.913 163.79L104.745 180.547C104.652 180.6 104.544 180.596 104.459 180.547L87.9788 171.141L73.0315 179.727C72.9449 179.777 72.8338 179.779 72.7444 179.728L58.4397 171.565L45.679 178.893C45.591 178.944 45.4807 178.945 45.3928 178.894L25.4231 167.496C25.0949 167.309 25.3807 166.821 25.7083 167.006L45.5354 178.321L58.2952 170.993C58.3832 170.944 58.4957 170.944 58.5823 170.993L72.887 179.155L87.8352 170.569C87.9245 170.52 88.0348 170.519 88.1213 170.568L104.602 179.976L133.626 163.301Z" fill="#B2C6FA"/>
<path d="M133.626 163.301C133.759 163.221 133.936 163.268 134.017 163.403C134.096 163.539 134.05 163.711 133.913 163.79L104.745 180.547C104.652 180.6 104.544 180.596 104.459 180.547L87.9788 171.141L73.0315 179.727C72.9449 179.777 72.8338 179.779 72.7444 179.728L58.4397 171.565L45.679 178.893C45.591 178.944 45.4807 178.945 45.3928 178.894L25.4231 167.496C25.0949 167.309 25.3807 166.821 25.7083 167.006L45.5354 178.321L58.2952 170.993C58.3832 170.944 58.4957 170.944 58.5823 170.993L72.887 179.155L87.8352 170.569C87.9245 170.52 88.0348 170.519 88.1213 170.568L104.602 179.976L133.626 163.301Z" stroke="black"/>
<g opacity="0.7">
<path d="M23.563 73.295C24.3773 72.8273 25.7042 72.8274 26.5239 73.295L44.1274 83.3419C44.9469 83.8097 44.9515 84.5694 44.1372 85.0372L26.6509 95.0821C25.8341 95.5513 24.5096 95.5498 23.6899 95.0821L6.08643 85.0352C5.26714 84.5674 5.26094 83.8091 6.07764 83.3399L23.563 73.295Z" fill="url(#paint0_linear_369_24287)"/>
<path d="M23.563 73.295C24.3773 72.8273 25.7042 72.8274 26.5239 73.295L44.1274 83.3419C44.9469 83.8097 44.9515 84.5694 44.1372 85.0372L26.6509 95.0821C25.8341 95.5513 24.5096 95.5498 23.6899 95.0821L6.08643 85.0352C5.26714 84.5674 5.26094 83.8091 6.07764 83.3399L23.563 73.295Z" stroke="black"/>
</g>
<path d="M5.52039 39.5709C5.52039 39.8877 5.73902 40.2156 6.17175 40.4586L23.6063 50.4088L23.5106 91.1578L6.07019 81.2017C5.63757 80.9535 5.41882 80.6307 5.41882 80.3033L5.52039 39.5709Z" fill="#FF9955"/>
<path d="M5.52039 39.5709C5.52039 39.8877 5.73902 40.2156 6.17175 40.4586L23.6063 50.4088L23.5106 91.1578L6.07019 81.2017C5.63757 80.9535 5.41882 80.6307 5.41882 80.3033L5.52039 39.5709Z" stroke="black"/>
<path d="M44.5991 80.3141C44.5938 80.6362 44.3805 80.9589 43.9585 81.2018L26.6304 91.1579C25.7701 91.6488 24.3704 91.6489 23.5103 91.1579L23.6069 50.4088C24.4724 50.905 25.8665 50.9051 26.7319 50.4088L44.0542 40.4586C44.4816 40.2156 44.6958 39.8931 44.6958 39.5709L44.5991 80.3141Z" fill="#FF9955"/>
<path d="M44.5991 80.3141C44.5938 80.6362 44.3805 80.9589 43.9585 81.2018L26.6304 91.1579C25.7701 91.6488 24.3704 91.6489 23.5103 91.1579L23.6069 50.4088C24.4724 50.905 25.8665 50.9051 26.7319 50.4088L44.0542 40.4586C44.4816 40.2156 44.6958 39.8931 44.6958 39.5709L44.5991 80.3141Z" stroke="black"/>
<path d="M23.4849 28.7178C24.3422 28.2254 25.7429 28.2256 26.606 28.7178L44.0454 38.671C44.9082 39.1636 44.9125 39.9656 44.0552 40.4581L26.73 50.4102C25.8692 50.9047 24.472 50.9027 23.6089 50.4102L6.16943 40.4581C5.30649 39.9655 5.29884 39.1655 6.15967 38.671L23.4849 28.7178Z" fill="#E9EDF6"/>
<path d="M23.4849 28.7178C24.3422 28.2254 25.7429 28.2256 26.606 28.7178L44.0454 38.671C44.9082 39.1636 44.9125 39.9656 44.0552 40.4581L26.73 50.4102C25.8692 50.9047 24.472 50.9027 23.6089 50.4102L6.16943 40.4581C5.30649 39.9655 5.29884 39.1655 6.15967 38.671L23.4849 28.7178Z" stroke="black"/>
<path d="M7.10034 46.2172C7.10268 45.4042 7.68725 45.0753 8.40308 45.4838L20.5691 52.435C21.2883 52.8455 21.8692 53.8398 21.8669 54.6528L21.8562 78.0805C21.8539 78.8974 21.2697 79.2262 20.5505 78.8159L8.38354 71.8647C7.66773 71.4562 7.08727 70.4619 7.0896 69.645L7.10034 46.2172Z" fill="url(#paint1_linear_369_24287)"/>
<path d="M7.10034 46.2172C7.10268 45.4042 7.68725 45.0753 8.40308 45.4838L20.5691 52.435C21.2883 52.8455 21.8692 53.8398 21.8669 54.6528L21.8562 78.0805C21.8539 78.8974 21.2697 79.2262 20.5505 78.8159L8.38354 71.8647C7.66773 71.4562 7.08727 70.4619 7.0896 69.645L7.10034 46.2172Z" stroke="black"/>
<path d="M30.9976 56.7584C31.5346 56.4548 31.7423 56.8213 32.0679 56.9527C31.9066 56.8604 31.684 56.8737 31.439 57.0123C30.6905 57.4404 30.2328 58.7567 30.8149 59.0885L30.3745 58.8356C29.8052 58.5111 30.2385 57.1938 30.9976 56.7584Z" fill="white"/>
<path d="M30.9976 56.7584C31.5346 56.4548 31.7423 56.8213 32.0679 56.9527C31.9066 56.8604 31.684 56.8737 31.439 57.0123C30.6905 57.4404 30.2328 58.7567 30.8149 59.0885L30.3745 58.8356C29.8052 58.5111 30.2385 57.1938 30.9976 56.7584Z" stroke="black"/>
<path d="M31.4377 57.0135C31.9302 56.7326 32.3239 56.9626 32.3254 57.5145C32.3269 58.0739 31.936 58.748 31.4436 59.0291C30.9577 59.3064 30.5567 59.0844 30.5549 58.5252C30.5534 57.9732 30.9517 57.2909 31.4377 57.0135Z" fill="#FFFEFA"/>
<path d="M31.4377 57.0135C31.9302 56.7326 32.3239 56.9626 32.3254 57.5145C32.3269 58.0739 31.936 58.748 31.4436 59.0291C30.9577 59.3064 30.5567 59.0844 30.5549 58.5252C30.5534 57.9732 30.9517 57.2909 31.4377 57.0135Z" stroke="black"/>
<path d="M35.6173 54.1675C36.1543 53.8639 36.362 54.2304 36.6876 54.3618C36.5264 54.2695 36.3037 54.2828 36.0587 54.4214C35.3102 54.8495 34.8525 56.1658 35.4347 56.4976L34.9943 56.2447C34.4249 55.9203 34.8582 54.603 35.6173 54.1675Z" fill="white"/>
<path d="M35.6173 54.1675C36.1543 53.8639 36.362 54.2304 36.6876 54.3618C36.5264 54.2695 36.3037 54.2828 36.0587 54.4214C35.3102 54.8495 34.8525 56.1658 35.4347 56.4976L34.9943 56.2447C34.4249 55.9203 34.8582 54.603 35.6173 54.1675Z" stroke="black"/>
<path d="M36.0574 54.4227C36.5498 54.1418 36.9435 54.3718 36.9451 54.9236C36.9465 55.4831 36.5557 56.1572 36.0632 56.4383C35.5774 56.7156 35.1764 56.4935 35.1746 55.9344C35.173 55.3824 35.5714 54.7 36.0574 54.4227Z" fill="#FFFEFA"/>
<path d="M36.0574 54.4227C36.5498 54.1418 36.9435 54.3718 36.9451 54.9236C36.9465 55.4831 36.5557 56.1572 36.0632 56.4383C35.5774 56.7156 35.1764 56.4935 35.1746 55.9344C35.173 55.3824 35.5714 54.7 36.0574 54.4227Z" stroke="black"/>
<path d="M31.5264 58.3438C31.1977 58.1565 31.4853 57.6667 31.8105 57.8535L34.2109 59.2237C35.2181 59.7981 36.0037 61.1428 36.001 62.2862L35.9473 97.5098C35.9431 98.8119 36.9058 100.463 38.0498 101.115L40.7852 102.678C41.113 102.865 40.8271 103.355 40.5 103.168L37.7646 101.605C36.4419 100.851 35.3709 99.0138 35.375 97.5088L35.4277 62.2852C35.4305 61.3572 34.7416 60.18 33.9258 59.7139L31.5264 58.3438Z" fill="#8B9DFF"/>
<path d="M31.5264 58.3438C31.1977 58.1565 31.4853 57.6667 31.8105 57.8535L34.2109 59.2237C35.2181 59.7981 36.0037 61.1428 36.001 62.2862L35.9473 97.5098C35.9431 98.8119 36.9058 100.463 38.0498 101.115L40.7852 102.678C41.113 102.865 40.8271 103.355 40.5 103.168L37.7646 101.605C36.4419 100.851 35.3709 99.0138 35.375 97.5088L35.4277 62.2852C35.4305 61.3572 34.7416 60.18 33.9258 59.7139L31.5264 58.3438Z" stroke="black"/>
<path d="M36.1125 55.7099C35.7835 55.5224 36.0722 55.0339 36.3977 55.2197L38.7961 56.5889C39.8034 57.1633 40.588 58.5089 40.5852 59.6523L40.5325 94.876C40.5283 96.1782 41.4908 97.8289 42.635 98.4814L45.3713 100.043C45.5081 100.121 45.556 100.294 45.4768 100.43C45.4237 100.52 45.3279 100.571 45.2288 100.571C45.18 100.571 45.1308 100.559 45.0862 100.533L42.3499 98.9717C41.027 98.2177 39.9552 96.3801 39.9592 94.875L40.0129 59.6504C40.0155 58.7225 39.3267 57.5451 38.511 57.0791L36.1125 55.7099Z" fill="#8B9DFF"/>
<path d="M36.1125 55.7099C35.7835 55.5224 36.0722 55.0339 36.3977 55.2197L38.7961 56.5889C39.8034 57.1633 40.588 58.5089 40.5852 59.6523L40.5325 94.876C40.5283 96.1782 41.4908 97.8289 42.635 98.4814L45.3713 100.043C45.5081 100.121 45.556 100.294 45.4768 100.43C45.4237 100.52 45.3279 100.571 45.2288 100.571C45.18 100.571 45.1308 100.559 45.0862 100.533L42.3499 98.9717C41.027 98.2177 39.9552 96.3801 39.9592 94.875L40.0129 59.6504C40.0155 58.7225 39.3267 57.5451 38.511 57.0791L36.1125 55.7099Z" stroke="black"/>
<path d="M19.0315 65.2044C19.0326 64.8718 19.2688 64.7356 19.5618 64.9027L20.1936 65.264C20.4868 65.4313 20.7238 65.8372 20.7229 66.1702L20.6858 70.2132C20.6848 70.5462 20.4458 70.6803 20.1526 70.513L19.5208 70.1527C19.2277 69.9853 18.9934 69.5804 18.9944 69.2474L19.0315 65.2044Z" fill="url(#paint2_linear_369_24287)"/>
<path d="M19.0315 65.2044C19.0326 64.8718 19.2688 64.7356 19.5618 64.9027L20.1936 65.264C20.4868 65.4313 20.7238 65.8372 20.7229 66.1702L20.6858 70.2132C20.6848 70.5462 20.4458 70.6803 20.1526 70.513L19.5208 70.1527C19.2277 69.9853 18.9934 69.5804 18.9944 69.2474L19.0315 65.2044Z" stroke="black"/>
<path d="M16.2406 59.8021C16.2416 59.4691 16.4806 59.3349 16.7738 59.5023L17.4027 59.8607C17.6959 60.028 17.9339 60.4348 17.933 60.7679L17.8949 66.2933C17.8939 66.6263 17.6549 66.7614 17.3617 66.5941L16.7328 66.2347C16.4396 66.0672 16.2026 65.6605 16.2035 65.3275L16.2406 59.8021Z" fill="url(#paint3_linear_369_24287)"/>
<path d="M16.2406 59.8021C16.2416 59.4691 16.4806 59.3349 16.7738 59.5023L17.4027 59.8607C17.6959 60.028 17.9339 60.4348 17.933 60.7679L17.8949 66.2933C17.8939 66.6263 17.6549 66.7614 17.3617 66.5941L16.7328 66.2347C16.4396 66.0672 16.2026 65.6605 16.2035 65.3275L16.2406 59.8021Z" stroke="black"/>
<path d="M13.4497 61.1666C13.4507 60.8336 13.6898 60.6995 13.9829 60.8668L14.6147 61.2271C14.9079 61.3945 15.143 61.7994 15.1421 62.1324L15.104 66.4693C15.103 66.8023 14.8669 66.9384 14.5737 66.7711L13.9419 66.4107C13.6487 66.2434 13.4117 65.8366 13.4126 65.5035L13.4497 61.1666Z" fill="url(#paint4_linear_369_24287)"/>
<path d="M13.4497 61.1666C13.4507 60.8336 13.6898 60.6995 13.9829 60.8668L14.6147 61.2271C14.9079 61.3945 15.143 61.7994 15.1421 62.1324L15.104 66.4693C15.103 66.8023 14.8669 66.9384 14.5737 66.7711L13.9419 66.4107C13.6487 66.2434 13.4117 65.8366 13.4126 65.5035L13.4497 61.1666Z" stroke="black"/>
<path d="M10.6589 56.1369C10.66 55.8039 10.899 55.6698 11.1921 55.8371L11.824 56.1974C12.1171 56.3647 12.355 56.7707 12.3542 57.1037L12.3162 63.1095C12.3151 63.4425 12.0762 63.5767 11.783 63.4093L11.1511 63.049C10.8581 62.8817 10.6211 62.4757 10.6218 62.1427L10.6589 56.1369Z" fill="url(#paint5_linear_369_24287)"/>
<path d="M10.6589 56.1369C10.66 55.8039 10.899 55.6698 11.1921 55.8371L11.824 56.1974C12.1171 56.3647 12.355 56.7707 12.3542 57.1037L12.3162 63.1095C12.3151 63.4425 12.0762 63.5767 11.783 63.4093L11.1511 63.049C10.8581 62.8817 10.6211 62.4757 10.6218 62.1427L10.6589 56.1369Z" stroke="black"/>
<path d="M7.87097 59.6257C7.87212 59.2931 8.10828 59.1569 8.40125 59.324L9.03308 59.6853C9.32625 59.8526 9.56328 60.2585 9.56238 60.5916L9.52527 66.4705C9.52429 66.8035 9.28525 66.9376 8.99207 66.7703L8.36023 66.4099C8.06716 66.2425 7.83293 65.8376 7.83386 65.5046L7.87097 59.6257Z" fill="url(#paint6_linear_369_24287)"/>
<path d="M7.87097 59.6257C7.87212 59.2931 8.10828 59.1569 8.40125 59.324L9.03308 59.6853C9.32625 59.8526 9.56328 60.2585 9.56238 60.5916L9.52527 66.4705C9.52429 66.8035 9.28525 66.9376 8.99207 66.7703L8.36023 66.4099C8.06716 66.2425 7.83293 65.8376 7.83386 65.5046L7.87097 59.6257Z" stroke="black"/>
<path d="M24.2554 33.4048C24.7455 33.1251 25.5408 33.1251 26.0278 33.4048L35.8677 39.0571C36.3565 39.338 36.3519 39.7921 35.8618 40.0718L25.9575 45.7241C25.4673 46.0038 24.6739 46.0049 24.1851 45.7241L14.3452 40.0718C13.8586 39.7921 13.8612 39.3368 14.3511 39.0571L24.2554 33.4048Z" fill="#FF9955"/>
<path d="M24.2554 33.4048C24.7455 33.1251 25.5408 33.1251 26.0278 33.4048L35.8677 39.0571C36.3565 39.338 36.3519 39.7921 35.8618 40.0718L25.9575 45.7241C25.4673 46.0038 24.6739 46.0049 24.1851 45.7241L14.3452 40.0718C13.8586 39.7921 13.8612 39.3368 14.3511 39.0571L24.2554 33.4048Z" stroke="black"/>
<path d="M37.6079 51.1087C42.3192 48.4859 42.5351 48.1404 42.8101 48.3079C43.1048 48.4535 42.9476 49.2039 42.4575 49.4944L37.6138 52.2581C37.2422 52.4657 37.0218 52.1564 37.1362 51.7796C37.1992 51.5126 37.3819 51.2328 37.6079 51.1087Z" fill="#E9EDF6"/>
<path d="M37.6079 51.1087C42.3192 48.4859 42.5351 48.1404 42.8101 48.3079C43.1048 48.4535 42.9476 49.2039 42.4575 49.4944L37.6138 52.2581C37.2422 52.4657 37.0218 52.1564 37.1362 51.7796C37.1992 51.5126 37.3819 51.2328 37.6079 51.1087Z" stroke="black"/>
<path d="M37.6079 48.8793C42.3192 46.2565 42.5351 45.911 42.8101 46.0785C43.123 46.2332 42.9221 46.9895 42.4575 47.265L37.6138 50.0287C37.2422 50.2363 37.0218 49.927 37.1362 49.5502C37.1992 49.2832 37.3819 49.0034 37.6079 48.8793Z" fill="#E9EDF6"/>
<path d="M37.6079 48.8793C42.3192 46.2565 42.5351 45.911 42.8101 46.0785C43.123 46.2332 42.9221 46.9895 42.4575 47.265L37.6138 50.0287C37.2422 50.2363 37.0218 49.927 37.1362 49.5502C37.1992 49.2832 37.3819 49.0034 37.6079 48.8793Z" stroke="black"/>
<path d="M37.6073 46.6499C42.3169 44.0281 42.5346 43.6822 42.8094 43.8492C43.1226 44.0037 42.9225 44.7602 42.4579 45.0357C37.6814 47.6981 37.5272 48.0033 37.2557 47.8306C36.9611 47.6754 37.1357 46.9091 37.6073 46.6499Z" fill="#E9EDF6"/>
<path d="M37.6073 46.6499C42.3169 44.0281 42.5346 43.6822 42.8094 43.8492C43.1226 44.0037 42.9225 44.7602 42.4579 45.0357C37.6814 47.6981 37.5272 48.0033 37.2557 47.8306C36.9611 47.6754 37.1357 46.9091 37.6073 46.6499Z" stroke="black"/>
<g opacity="0.7">
<path d="M72.8699 44.9463C73.6841 44.4786 75.0111 44.4788 75.8308 44.9463L93.4343 54.9932C94.2538 55.461 94.2584 56.2207 93.4441 56.6885L75.9578 66.7334C75.141 67.2026 73.8165 67.2011 72.9968 66.7334L55.3933 56.6865C54.574 56.2187 54.5678 55.4604 55.3845 54.9912L72.8699 44.9463Z" fill="url(#paint7_linear_369_24287)"/>
<path d="M72.8699 44.9463C73.6841 44.4786 75.0111 44.4788 75.8308 44.9463L93.4343 54.9932C94.2538 55.461 94.2584 56.2207 93.4441 56.6885L75.9578 66.7334C75.141 67.2026 73.8165 67.2011 72.9968 66.7334L55.3933 56.6865C54.574 56.2187 54.5678 55.4604 55.3845 54.9912L72.8699 44.9463Z" stroke="black"/>
</g>
<path d="M54.8767 11.2222C54.8767 11.5391 55.0953 11.8669 55.5281 12.1099L72.9626 22.0601L72.8669 62.8091L55.4265 52.8531C54.9939 52.6049 54.7751 52.282 54.7751 51.9546L54.8767 11.2222Z" fill="#FF9955"/>
<path d="M54.8767 11.2222C54.8767 11.5391 55.0953 11.8669 55.5281 12.1099L72.9626 22.0601L72.8669 62.8091L55.4265 52.8531C54.9939 52.6049 54.7751 52.282 54.7751 51.9546L54.8767 11.2222Z" stroke="black"/>
<path d="M93.9556 51.9654C93.9502 52.2875 93.7369 52.6102 93.3149 52.8531L75.9868 62.8091C75.1265 63.3 73.7269 63.3001 72.8667 62.8091L72.9634 22.0601C73.8288 22.5563 75.223 22.5564 76.0884 22.0601L93.4106 12.1099C93.838 11.867 94.0522 11.5444 94.0522 11.2222L93.9556 51.9654Z" fill="#FF9955"/>
<path d="M93.9556 51.9654C93.9502 52.2875 93.7369 52.6102 93.3149 52.8531L75.9868 62.8091C75.1265 63.3 73.7269 63.3001 72.8667 62.8091L72.9634 22.0601C73.8288 22.5563 75.223 22.5564 76.0884 22.0601L93.4106 12.1099C93.838 11.867 94.0522 11.5444 94.0522 11.2222L93.9556 51.9654Z" stroke="black"/>
<path d="M72.8412 0.369141C73.6985 -0.123335 75.0992 -0.123142 75.9623 0.369141L93.4017 10.3223C94.2646 10.8148 94.2689 11.6168 93.4115 12.1094L76.0863 22.0615C75.2255 22.556 73.8283 22.554 72.9652 22.0615L55.5258 12.1094C54.6628 11.6168 54.6552 10.8168 55.516 10.3223L72.8412 0.369141Z" fill="#E9EDF6"/>
<path d="M72.8412 0.369141C73.6985 -0.123335 75.0992 -0.123142 75.9623 0.369141L93.4017 10.3223C94.2646 10.8148 94.2689 11.6168 93.4115 12.1094L76.0863 22.0615C75.2255 22.556 73.8283 22.554 72.9652 22.0615L55.5258 12.1094C54.6628 11.6168 54.6552 10.8168 55.516 10.3223L72.8412 0.369141Z" stroke="black"/>
<path d="M73.5424 5.05606C74.0293 4.77636 74.8247 4.77637 75.3148 5.05606L85.2191 10.7084C85.7089 10.9881 85.7116 11.4433 85.225 11.7231L75.3851 17.3754C74.8963 17.6562 74.1029 17.655 73.6127 17.3754L63.7084 11.7231C63.2183 11.4434 63.2137 10.9892 63.7025 10.7084L73.5424 5.05606Z" fill="#FF9955"/>
<path d="M73.5424 5.05606C74.0293 4.77636 74.8247 4.77637 75.3148 5.05606L85.2191 10.7084C85.7089 10.9881 85.7116 11.4433 85.225 11.7231L75.3851 17.3754C74.8963 17.6562 74.1029 17.655 73.6127 17.3754L63.7084 11.7231C63.2183 11.4434 63.2137 10.9892 63.7025 10.7084L73.5424 5.05606Z" stroke="black"/>
<path d="M56.4565 17.8685C56.4589 17.0555 57.0435 16.7266 57.7593 17.1351L69.9253 24.0863C70.6445 24.4968 71.2254 25.4911 71.2231 26.3041L71.2124 37.8177C71.2101 38.6347 70.6259 38.9635 69.9067 38.5531L57.7397 31.6019C57.0239 31.1934 56.4435 30.1991 56.4458 29.3822L56.4565 17.8685Z" fill="url(#paint8_linear_369_24287)"/>
<path d="M56.4565 17.8685C56.4589 17.0555 57.0435 16.7266 57.7593 17.1351L69.9253 24.0863C70.6445 24.4968 71.2254 25.4911 71.2231 26.3041L71.2124 37.8177C71.2101 38.6347 70.6259 38.9635 69.9067 38.5531L57.7397 31.6019C57.0239 31.1934 56.4435 30.1991 56.4458 29.3822L56.4565 17.8685Z" stroke="black"/>
<path d="M56.4565 35.3614C56.4589 34.5484 57.0435 34.2195 57.7593 34.628L69.9253 41.5802C70.6445 41.9906 71.2254 42.984 71.2231 43.797L71.2124 53.0362C71.2101 53.853 70.6258 54.1826 69.9067 53.7726L57.7397 46.8204C57.0239 46.4119 56.4435 45.4176 56.4458 44.6007L56.4565 35.3614Z" fill="#FFFEFA"/>
<path d="M56.4565 35.3614C56.4589 34.5484 57.0435 34.2195 57.7593 34.628L69.9253 41.5802C70.6445 41.9906 71.2254 42.984 71.2231 43.797L71.2124 53.0362C71.2101 53.853 70.6258 54.1826 69.9067 53.7726L57.7397 46.8204C57.0239 46.4119 56.4435 45.4176 56.4458 44.6007L56.4565 35.3614Z" stroke="black"/>
<path d="M80.4585 28.3683C80.7036 28.2297 80.9265 28.2173 81.0894 28.3097L81.5298 28.5626C81.3686 28.4702 81.1459 28.4836 80.9009 28.6222C80.4075 28.9043 80.0164 29.5784 80.0181 30.1378C80.0181 30.4119 80.1173 30.6076 80.2769 30.6984L79.8364 30.4455C79.6768 30.3546 79.5783 30.1581 79.5767 29.8839C79.5751 29.3246 79.9668 28.6505 80.4585 28.3683Z" fill="white"/>
<path d="M80.4585 28.3683C80.7036 28.2297 80.9265 28.2173 81.0894 28.3097L81.5298 28.5626C81.3686 28.4702 81.1459 28.4836 80.9009 28.6222C80.4075 28.9043 80.0164 29.5784 80.0181 30.1378C80.0181 30.4119 80.1173 30.6076 80.2769 30.6984L79.8364 30.4455C79.6768 30.3546 79.5783 30.1581 79.5767 29.8839C79.5751 29.3246 79.9668 28.6505 80.4585 28.3683Z" stroke="black"/>
<path d="M80.8992 28.6233C81.3916 28.3424 81.7853 28.5724 81.7869 29.1243C81.7883 29.6837 81.3974 30.3578 80.905 30.6389C80.4192 30.9163 80.0182 30.6942 80.0164 30.135C80.0148 29.583 80.4132 28.9007 80.8992 28.6233Z" fill="#FFFEFA"/>
<path d="M80.8992 28.6233C81.3916 28.3424 81.7853 28.5724 81.7869 29.1243C81.7883 29.6837 81.3974 30.3578 80.905 30.6389C80.4192 30.9163 80.0182 30.6942 80.0164 30.135C80.0148 29.583 80.4132 28.9007 80.8992 28.6233Z" stroke="black"/>
<path d="M85.0781 25.7773C85.6155 25.4733 85.8237 25.8402 86.1494 25.9716C85.9882 25.8792 85.7656 25.8926 85.5205 26.0312C84.7718 26.4593 84.3139 27.7758 84.8965 28.1074L84.4561 27.8544C83.8864 27.5303 84.5863 26.0596 85.0781 25.7773Z" fill="white"/>
<path d="M85.0781 25.7773C85.6155 25.4733 85.8237 25.8402 86.1494 25.9716C85.9882 25.8792 85.7656 25.8926 85.5205 26.0312C84.7718 26.4593 84.3139 27.7758 84.8965 28.1074L84.4561 27.8544C83.8864 27.5303 84.5863 26.0596 85.0781 25.7773Z" stroke="black"/>
<path d="M85.5188 26.0325C86.0112 25.7516 86.4049 25.9815 86.4065 26.5334C86.4079 27.0928 86.0171 27.7669 85.5247 28.0481C85.0388 28.3254 84.6378 28.1033 84.636 27.5442C84.6344 26.9922 85.0328 26.3098 85.5188 26.0325Z" fill="#FFFEFA"/>
<path d="M85.5188 26.0325C86.0112 25.7516 86.4049 25.9815 86.4065 26.5334C86.4079 27.0928 86.0171 27.7669 85.5247 28.0481C85.0388 28.3254 84.6378 28.1033 84.636 27.5442C84.6344 26.9922 85.0328 26.3098 85.5188 26.0325Z" stroke="black"/>
<path d="M80.7789 29.6089C80.8586 29.4744 81.0332 29.4288 81.1686 29.5053L83.568 30.8745C84.5737 31.4496 85.3587 32.7944 85.3561 33.937L85.3033 69.1616C85.2993 70.4637 86.2618 72.1146 87.4059 72.7671L90.1422 74.3286C90.4701 74.5154 90.185 75.0053 89.858 74.8188L87.1207 73.2573C85.7978 72.5033 84.7269 70.6648 84.7311 69.1596L84.7838 33.936C84.7866 33.0087 84.0991 31.8308 83.2819 31.3647L80.8834 29.9956C80.7465 29.9175 80.6993 29.7442 80.7789 29.6089Z" fill="#8B9DFF"/>
<path d="M80.7789 29.6089C80.8586 29.4744 81.0332 29.4288 81.1686 29.5053L83.568 30.8745C84.5737 31.4496 85.3587 32.7944 85.3561 33.937L85.3033 69.1616C85.2993 70.4637 86.2618 72.1146 87.4059 72.7671L90.1422 74.3286C90.4701 74.5154 90.185 75.0053 89.858 74.8188L87.1207 73.2573C85.7978 72.5033 84.7269 70.6648 84.7311 69.1596L84.7838 33.936C84.7866 33.0087 84.0991 31.8308 83.2819 31.3647L80.8834 29.9956C80.7465 29.9175 80.6993 29.7442 80.7789 29.6089Z" stroke="black"/>
<path d="M85.4684 27.361C85.1395 27.1734 85.4277 26.6848 85.7535 26.8708L88.153 28.2409C89.1602 28.8153 89.9453 30.1616 89.941 31.3044L89.8883 66.528C89.8842 67.8295 90.8481 69.4803 91.9908 70.1335L94.7272 71.695C94.8639 71.7729 94.9119 71.9455 94.8326 72.0807C94.7527 72.217 94.5788 72.2624 94.443 72.1852L91.7057 70.6237C90.3827 69.869 89.3109 68.0305 89.3151 66.526L89.3688 31.3024C89.3729 30.3751 88.6851 29.1972 87.8678 28.7311L85.4684 27.361Z" fill="#8B9DFF"/>
<path d="M85.4684 27.361C85.1395 27.1734 85.4277 26.6848 85.7535 26.8708L88.153 28.2409C89.1602 28.8153 89.9453 30.1616 89.941 31.3044L89.8883 66.528C89.8842 67.8295 90.8481 69.4803 91.9908 70.1335L94.7272 71.695C94.8639 71.7729 94.9119 71.9455 94.8326 72.0807C94.7527 72.217 94.5788 72.2624 94.443 72.1852L91.7057 70.6237C90.3827 69.869 89.3109 68.0305 89.3151 66.526L89.3688 31.3024C89.3729 30.3751 88.6851 29.1972 87.8678 28.7311L85.4684 27.361Z" stroke="black"/>
<path d="M59.0361 41.3302C59.9388 41.3807 59.3015 43.6001 59.9619 44.7433C60.6307 45.8861 60.4993 42.5916 61.5518 42.2131C62.6042 41.8264 61.7757 45.4319 62.8066 45.8185C63.8372 46.1964 63.3804 43.4656 64.4326 44.0197C65.7097 44.7006 65.0242 47.3151 65.8301 47.8615C66.6355 48.3992 67.1731 43.7762 68.417 44.4904C69.1238 44.9001 69.5539 46.5925 69.79 47.9406C70.1127 49.7822 69.9635 51.1749 69.9639 51.6447C69.9463 51.9387 69.6271 52.1069 69.3682 51.964L57.7256 45.3732C57.1998 45.0776 57.4331 44.4896 57.4043 44.1711C57.4339 43.381 57.6165 42.5989 58.0498 41.9601C58.3032 41.582 58.6191 41.3134 59.0361 41.3302Z" fill="url(#paint9_linear_369_24287)"/>
<path d="M59.0361 41.3302C59.9388 41.3807 59.3015 43.6001 59.9619 44.7433C60.6307 45.8861 60.4993 42.5916 61.5518 42.2131C62.6042 41.8264 61.7757 45.4319 62.8066 45.8185C63.8372 46.1964 63.3804 43.4656 64.4326 44.0197C65.7097 44.7006 65.0242 47.3151 65.8301 47.8615C66.6355 48.3992 67.1731 43.7762 68.417 44.4904C69.1238 44.9001 69.5539 46.5925 69.79 47.9406C70.1127 49.7822 69.9635 51.1749 69.9639 51.6447C69.9463 51.9387 69.6271 52.1069 69.3682 51.964L57.7256 45.3732C57.1998 45.0776 57.4331 44.4896 57.4043 44.1711C57.4339 43.381 57.6165 42.5989 58.0498 41.9601C58.3032 41.582 58.6191 41.3134 59.0361 41.3302Z" stroke="black"/>
<path d="M57.5345 23.2571C57.5388 21.7656 58.608 21.1645 59.9203 21.9134L59.9125 24.6136L57.5345 23.2571Z" fill="#FFFEFA"/>
<path d="M57.5345 23.2571C57.5388 21.7656 58.608 21.1645 59.9203 21.9134L59.9125 24.6136L57.5345 23.2571Z" stroke="black"/>
<path d="M60.5364 22.9682C61.8494 23.7177 62.9107 25.5343 62.9065 27.0248C62.9022 28.5173 61.8339 29.1178 60.5208 28.3686C59.2076 27.6191 58.1464 25.8035 58.1506 24.3109L60.5286 25.6674L60.5364 22.9682Z" fill="#FFFEFA"/>
<path d="M60.5364 22.9682C61.8494 23.7177 62.9107 25.5343 62.9065 27.0248C62.9022 28.5173 61.8339 29.1178 60.5208 28.3686C59.2076 27.6191 58.1464 25.8035 58.1506 24.3109L60.5286 25.6674L60.5364 22.9682Z" stroke="black"/>
<path d="M63.7323 23.9803C63.8482 23.7766 64.1151 23.705 64.3163 23.8182L70.1962 27.0789C70.4029 27.1936 70.4772 27.4527 70.3612 27.6571C70.2469 27.8588 69.9857 27.9353 69.7772 27.8192L63.8973 24.5584C63.6906 24.4438 63.6164 24.1847 63.7323 23.9803Z" fill="#FF9955"/>
<path d="M63.7323 23.9803C63.8482 23.7766 64.1151 23.705 64.3163 23.8182L70.1962 27.0789C70.4029 27.1936 70.4772 27.4527 70.3612 27.6571C70.2469 27.8588 69.9857 27.9353 69.7772 27.8192L63.8973 24.5584C63.6906 24.4438 63.6164 24.1847 63.7323 23.9803Z" stroke="black"/>
<path d="M63.7323 26.7352C63.8482 26.5315 64.1151 26.4599 64.3163 26.5731L70.1962 29.8338C70.4029 29.9484 70.4772 30.2076 70.3612 30.4119C70.2469 30.6137 69.9857 30.6902 69.7772 30.5741L63.8973 27.3133C63.6906 27.1987 63.6164 26.9395 63.7323 26.7352Z" fill="#FF9955"/>
<path d="M63.7323 26.7352C63.8482 26.5315 64.1151 26.4599 64.3163 26.5731L70.1962 29.8338C70.4029 29.9484 70.4772 30.2076 70.3612 30.4119C70.2469 30.6137 69.9857 30.6902 69.7772 30.5741L63.8973 27.3133C63.6906 27.1987 63.6164 26.9395 63.7323 26.7352Z" stroke="black"/>
<path d="M63.7323 29.4892C63.8483 29.2864 64.1152 29.2154 64.3163 29.3271L70.1962 32.5888C70.4029 32.7034 70.4772 32.9626 70.3612 33.1669C70.2469 33.3687 69.9857 33.4453 69.7772 33.329L63.8973 30.0673C63.6906 29.9527 63.6163 29.6936 63.7323 29.4892Z" fill="#FF9955"/>
<path d="M63.7323 29.4892C63.8483 29.2864 64.1152 29.2154 64.3163 29.3271L70.1962 32.5888C70.4029 32.7034 70.4772 32.9626 70.3612 33.1669C70.2469 33.3687 69.9857 33.4453 69.7772 33.329L63.8973 30.0673C63.6906 29.9527 63.6163 29.6936 63.7323 29.4892Z" stroke="black"/>
<path d="M61.4749 30.9925C61.5908 30.7889 61.8563 30.7193 62.0588 30.8304L70.1965 35.3431C70.4032 35.4577 70.4775 35.7169 70.3616 35.9212C70.2473 36.1229 69.986 36.1994 69.7776 36.0833L61.6399 31.5706C61.4332 31.456 61.3589 31.1969 61.4749 30.9925Z" fill="#FF9955"/>
<path d="M61.4749 30.9925C61.5908 30.7889 61.8563 30.7193 62.0588 30.8304L70.1965 35.3431C70.4032 35.4577 70.4775 35.7169 70.3616 35.9212C70.2473 36.1229 69.986 36.1994 69.7776 36.0833L61.6399 31.5706C61.4332 31.456 61.3589 31.1969 61.4749 30.9925Z" stroke="black"/>
<path d="M92.4211 19.9907C92.6194 19.884 92.8215 19.9041 92.8987 20.1148C92.9992 20.3793 92.8023 20.92 92.4211 21.146C87.6448 23.8084 87.4905 24.1136 87.219 23.9409C87.0558 23.8548 87.0524 23.5874 87.0999 23.4312C87.1627 23.1641 87.3454 22.8845 87.5715 22.7603L92.4211 19.9907Z" fill="#E9EDF6"/>
<path d="M92.4211 19.9907C92.6194 19.884 92.8215 19.9041 92.8987 20.1148C92.9992 20.3793 92.8023 20.92 92.4211 21.146C87.6448 23.8084 87.4905 24.1136 87.219 23.9409C87.0558 23.8548 87.0524 23.5874 87.0999 23.4312C87.1627 23.1641 87.3454 22.8845 87.5715 22.7603L92.4211 19.9907Z" stroke="black"/>
<path d="M87.5709 20.5306C92.2806 17.9088 92.4982 17.5628 92.7731 17.7298C93.068 17.8754 92.9116 18.6258 92.4215 18.9163C87.6451 21.5787 87.4908 21.8839 87.2194 21.7113C86.9248 21.5561 87.0994 20.7897 87.5709 20.5306Z" fill="#E9EDF6"/>
<path d="M87.5709 20.5306C92.2806 17.9088 92.4982 17.5628 92.7731 17.7298C93.068 17.8754 92.9116 18.6258 92.4215 18.9163C87.6451 21.5787 87.4908 21.8839 87.2194 21.7113C86.9248 21.5561 87.0994 20.7897 87.5709 20.5306Z" stroke="black"/>
<path d="M87.5713 18.3013C92.2823 15.6787 92.4985 15.3331 92.7734 15.5005C93.0865 15.655 92.8863 16.4114 92.4219 16.687L87.5771 19.4507C87.2021 19.6602 86.9855 19.348 87.0996 18.9722C87.1626 18.7052 87.3452 18.4255 87.5713 18.3013Z" fill="#E9EDF6"/>
<path d="M87.5713 18.3013C92.2823 15.6787 92.4985 15.3331 92.7734 15.5005C93.0865 15.655 92.8863 16.4114 92.4219 16.687L87.5771 19.4507C87.2021 19.6602 86.9855 19.348 87.0996 18.9722C87.1626 18.7052 87.3452 18.4255 87.5713 18.3013Z" stroke="black"/>
<path d="M109.582 76.7264C112.671 74.952 117.703 74.9522 120.819 76.7303L169.677 104.614C172.793 106.392 172.809 109.273 169.72 111.048L85.2322 159.582C82.1364 161.36 77.1041 161.36 73.988 159.582L25.1306 131.699C22.0147 129.921 21.9987 127.039 25.0945 125.261L109.582 76.7264Z" fill="url(#paint10_linear_369_24287)"/>
<path d="M109.582 76.7264C112.671 74.952 117.703 74.9522 120.819 76.7303L169.677 104.614C172.793 106.392 172.809 109.273 169.72 111.048L85.2322 159.582C82.1364 161.36 77.1041 161.36 73.988 159.582L25.1306 131.699C22.0147 129.921 21.9987 127.039 25.0945 125.261L109.582 76.7264Z" stroke="black"/>
<path d="M171.95 101.258C171.95 102.418 171.188 103.569 169.654 104.454L85.1609 152.983C82.0616 154.764 77.0366 154.764 73.9167 152.983L25.0603 125.106C23.4953 124.21 22.7127 123.029 22.7126 121.859L22.7849 108.909C22.7849 110.07 23.5778 111.241 25.1326 112.126L73.989 140.014C77.1089 141.795 82.1339 141.795 85.2332 140.014L169.716 91.4748C171.25 90.5994 172.022 89.4394 172.022 88.2893L171.95 101.258Z" fill="#FF9955"/>
<path d="M171.95 101.258C171.95 102.418 171.188 103.569 169.654 104.454L85.1609 152.983C82.0616 154.764 77.0366 154.764 73.9167 152.983L25.0603 125.106C23.4953 124.21 22.7127 123.029 22.7126 121.859L22.7849 108.909C22.7849 110.07 23.5778 111.241 25.1326 112.126L73.989 140.014C77.1089 141.795 82.1339 141.795 85.2332 140.014L169.716 91.4748C171.25 90.5994 172.022 89.4394 172.022 88.2893L171.95 101.258Z" stroke="black"/>
<path d="M22.785 108.91C22.785 110.07 23.5782 111.241 25.1327 112.127L73.9891 140.013C75.2568 140.737 76.8413 141.151 78.4813 141.287V154.259C76.8158 154.131 75.2031 153.716 73.9169 152.982L25.0604 125.105C23.4953 124.209 22.7128 123.029 22.7128 121.858L22.785 108.91Z" fill="#FFDEA1"/>
<path d="M22.785 108.91C22.785 110.07 23.5782 111.241 25.1327 112.127L73.9891 140.013C75.2568 140.737 76.8413 141.151 78.4813 141.287V154.259C76.8158 154.131 75.2031 153.716 73.9169 152.982L25.0604 125.105C23.4953 124.209 22.7128 123.029 22.7128 121.858L22.785 108.91Z" stroke="black"/>
<path d="M115.19 56.3264C117.037 56.3268 118.864 56.7063 120.292 57.4426L120.572 57.595L169.43 85.4778C170.898 86.316 171.519 87.3442 171.525 88.2659C171.531 89.1283 170.998 90.0822 169.734 90.886L169.472 91.0442L84.9833 139.578C83.5293 140.414 81.5887 140.846 79.618 140.846C77.7707 140.846 75.9445 140.466 74.5165 139.73L74.2362 139.577L25.3788 111.695C23.9101 110.856 23.2883 109.828 23.2831 108.906C23.2784 108.044 23.8128 107.089 25.08 106.283L25.3436 106.124L109.831 57.5901C111.281 56.7569 113.22 56.326 115.19 56.3264Z" fill="white" stroke="#737373"/>
<path d="M124.493 72.7018L124.482 76.5514L119.487 73.569L119.498 69.7193L124.493 72.7018Z" fill="#FF9955"/>
<path d="M124.493 72.7018L124.482 76.5514L119.487 73.569L119.498 69.7193L124.493 72.7018Z" stroke="black"/>
<path d="M122.693 72.6798L122.682 76.5294L117.712 73.5606L117.722 69.711L122.693 72.6798Z" fill="#FFFEFA"/>
<path d="M122.693 72.6798L122.682 76.5294L117.712 73.5606L117.722 69.711L122.693 72.6798Z" stroke="black"/>
<path d="M122.682 76.5294L118.652 78.7521L118.663 74.9025L122.693 72.6798L122.682 76.5294Z" fill="#FF9955"/>
<path d="M122.682 76.5294L118.652 78.7521L118.663 74.9025L122.693 72.6798L122.682 76.5294Z" stroke="black"/>
<path d="M124.482 76.5514L120.375 78.816L120.386 74.9664L124.494 72.7018L124.482 76.5514Z" fill="#FFFEFA"/>
<path d="M124.482 76.5514L120.375 78.816L120.386 74.9664L124.494 72.7018L124.482 76.5514Z" stroke="black"/>
<path d="M119.498 69.7196L124.493 72.702L120.387 74.9667C119.816 74.9278 119.241 74.9067 118.663 74.9032L122.693 72.6796L117.723 69.7108C118.314 69.7016 118.908 69.7057 119.498 69.7196Z" fill="#FFFEFA"/>
<path d="M119.498 69.7196L124.493 72.702L120.387 74.9667C119.816 74.9278 119.241 74.9067 118.663 74.9032L122.693 72.6796L117.723 69.7108C118.314 69.7016 118.908 69.7057 119.498 69.7196Z" stroke="black"/>
<path d="M118.663 74.9029C119.24 74.9064 119.816 74.9275 120.386 74.9664L120.376 78.816C119.805 78.7771 119.23 78.756 118.652 78.7525L118.663 74.9029Z" fill="#FFFEFA"/>
<path d="M118.663 74.9029C119.24 74.9064 119.816 74.9275 120.386 74.9664L120.376 78.816C119.805 78.7771 119.23 78.756 118.652 78.7525L118.663 74.9029Z" stroke="black"/>
<path d="M119.498 69.7193C125.774 69.8701 131.98 71.3134 136.774 74.0493L130.375 77.7241C127.575 76.1263 124.035 75.206 120.387 74.9663L124.493 72.7017L119.498 69.7193Z" fill="#FF9955"/>
<path d="M119.498 69.7193C125.774 69.8701 131.98 71.3134 136.774 74.0493L130.375 77.7241C127.575 76.1263 124.035 75.206 120.387 74.9663L124.493 72.7017L119.498 69.7193Z" stroke="black"/>
<path d="M120.386 74.9666C124.035 75.2062 127.575 76.1264 130.375 77.7244L130.365 81.574C127.565 79.976 124.024 79.0558 120.375 78.8162L120.386 74.9666Z" fill="#FF9955"/>
<path d="M120.386 74.9666C124.035 75.2062 127.575 76.1264 130.375 77.7244L130.365 81.574C127.565 79.976 124.024 79.0558 120.375 78.8162L120.386 74.9666Z" stroke="black"/>
<path d="M136.763 77.8987L130.364 81.5745L130.375 77.7249L136.774 74.0491L136.763 77.8987Z" fill="#FF9955"/>
<path d="M136.763 77.8987L130.364 81.5745L130.375 77.7249L136.774 74.0491L136.763 77.8987Z" stroke="black"/>
<path d="M97.9025 84.3032L93.7052 86.3823L93.7159 82.5327L97.9132 80.4536L97.9025 84.3032Z" fill="#FF9955"/>
<path d="M97.9025 84.3032L93.7052 86.3823L93.7159 82.5327L97.9132 80.4536L97.9025 84.3032Z" stroke="black"/>
<path d="M122.693 72.6797L118.664 74.9024C114.27 74.867 109.862 75.8092 106.527 77.7247C105.627 78.2418 103.788 79.7237 102.634 83.5606L97.9138 80.4532L93.7166 82.5323C94.9114 78.6093 97.0189 75.8117 100.088 74.0489C104.955 71.2527 111.311 69.8068 117.722 69.711L122.693 72.6797Z" fill="#FF9955"/>
<path d="M122.693 72.6797L118.664 74.9024C114.27 74.867 109.862 75.8092 106.527 77.7247C105.627 78.2418 103.788 79.7237 102.634 83.5606L97.9138 80.4532L93.7166 82.5323C94.9114 78.6093 97.0189 75.8117 100.088 74.0489C104.955 71.2527 111.311 69.8068 117.722 69.711L122.693 72.6797Z" stroke="black"/>
<path d="M118.653 78.7525C114.259 78.7171 109.85 79.6583 106.516 81.5737C105.616 82.0908 103.777 83.5726 102.622 87.4097L102.633 83.5601C103.788 79.723 105.628 78.2421 106.528 77.7251C109.862 75.8098 114.27 74.8675 118.663 74.9028L118.653 78.7525Z" fill="#FF9955"/>
<path d="M118.653 78.7525C114.259 78.7171 109.85 79.6583 106.516 81.5737C105.616 82.0908 103.777 83.5726 102.622 87.4097L102.633 83.5601C103.788 79.723 105.628 78.2421 106.528 77.7251C109.862 75.8098 114.27 74.8675 118.663 74.9028L118.653 78.7525Z" stroke="black"/>
<path d="M102.634 83.5601L102.622 87.4097L97.9023 84.3032L97.9131 80.4536L102.634 83.5601Z" fill="#FF9955"/>
<path d="M102.634 83.5601L102.622 87.4097L97.9023 84.3032L97.9131 80.4536L102.634 83.5601Z" stroke="black"/>
<path d="M97.7783 85.3304L93.3955 87.5013L93.4062 83.6516L97.7891 81.4807L97.7783 85.3304Z" fill="#FFFEFA"/>
<path d="M97.7783 85.3304L93.3955 87.5013L93.4062 83.6516L97.7891 81.4807L97.7783 85.3304Z" stroke="black"/>
<path d="M102.622 87.41C102.533 87.7081 102.447 88.0215 102.365 88.3504L102.376 84.5008C102.458 84.1718 102.544 83.8586 102.634 83.5604L102.622 87.41Z" fill="#FFFEFA"/>
<path d="M102.622 87.41C102.533 87.7081 102.447 88.0215 102.365 88.3504L102.376 84.5008C102.458 84.1718 102.544 83.8586 102.634 83.5604L102.622 87.41Z" stroke="black"/>
<path d="M102.633 83.5602C102.544 83.8583 102.459 84.1718 102.376 84.5006L97.7894 81.4811L93.4066 83.652C93.5017 83.269 93.6037 82.8955 93.7162 82.5328L97.9135 80.4537L102.633 83.5602Z" fill="#FFFEFA"/>
<path d="M102.633 83.5602C102.544 83.8583 102.459 84.1718 102.376 84.5006L97.7894 81.4811L93.4066 83.652C93.5017 83.269 93.6037 82.8955 93.7162 82.5328L97.9135 80.4537L102.633 83.5602Z" stroke="black"/>
<path d="M102.376 84.5013L102.365 88.3509L97.7786 85.3304L97.7893 81.4807L102.376 84.5013Z" fill="#FFFEFA"/>
<path d="M102.376 84.5013L102.365 88.3509L97.7786 85.3304L97.7893 81.4807L102.376 84.5013Z" stroke="black"/>
<path d="M130.375 77.7246C133.694 79.6186 135.353 82.1103 135.346 84.5977L135.334 88.4473C135.341 85.9598 133.683 83.4682 130.364 81.5742L130.375 77.7246Z" fill="#FF9955"/>
<path d="M130.375 77.7246C133.694 79.6186 135.353 82.1103 135.346 84.5977L135.334 88.4473C135.341 85.9598 133.683 83.4682 130.364 81.5742L130.375 77.7246Z" stroke="black"/>
<path d="M144.407 88.4745C144.406 88.6724 144.399 88.8705 144.385 89.0683L144.396 85.2186C144.41 85.0209 144.417 84.8229 144.418 84.6249L144.407 88.4745Z" fill="#FF9955"/>
<path d="M144.407 88.4745C144.406 88.6724 144.399 88.8705 144.385 89.0683L144.396 85.2186C144.41 85.0209 144.417 84.8229 144.418 84.6249L144.407 88.4745Z" stroke="black"/>
<path d="M144.385 89.0682L138.974 92.0057L138.985 88.1561L144.396 85.2186L144.385 89.0682Z" fill="#FF9955"/>
<path d="M144.385 89.0682L138.974 92.0057L138.985 88.1561L144.396 85.2186L144.385 89.0682Z" stroke="black"/>
<path d="M144.385 89.0682C144.36 89.4309 144.31 89.7927 144.239 90.1542L144.249 86.3046C144.321 85.9431 144.371 85.5813 144.396 85.2186L144.385 89.0682Z" fill="#FFFEFA"/>
<path d="M144.385 89.0682C144.36 89.4309 144.31 89.7927 144.239 90.1542L144.249 86.3046C144.321 85.9431 144.371 85.5813 144.396 85.2186L144.385 89.0682Z" stroke="black"/>
<path d="M136.774 74.0491C142.143 77.1135 144.686 81.1973 144.396 85.2191L138.985 88.1556L135.194 85.8763C135.873 82.9838 134.264 79.9444 130.375 77.7249L136.774 74.0491Z" fill="#FF9955"/>
<path d="M136.774 74.0491C142.143 77.1135 144.686 81.1973 144.396 85.2191L138.985 88.1556L135.194 85.8763C135.873 82.9838 134.264 79.9444 130.375 77.7249L136.774 74.0491Z" stroke="black"/>
<path d="M138.985 88.1561L138.974 92.0057L135.183 89.7264L135.194 85.8768L138.985 88.1561Z" fill="#FF9955"/>
<path d="M138.985 88.1561L138.974 92.0057L135.183 89.7264L135.194 85.8768L138.985 88.1561Z" stroke="black"/>
<path d="M138.943 89.1858L138.932 93.0345L134.903 90.6136L134.914 86.764L138.943 89.1858Z" fill="#FFFEFA"/>
<path d="M138.943 89.1858L138.932 93.0345L134.903 90.6136L134.914 86.764L138.943 89.1858Z" stroke="black"/>
<path d="M144.397 85.2186C144.371 85.5813 144.321 85.9431 144.249 86.3046L138.943 89.1854L134.914 86.7635C135.032 86.4701 135.125 86.1743 135.193 85.8768L138.984 88.1561L144.397 85.2186Z" fill="#FFFEFA"/>
<path d="M144.397 85.2186C144.371 85.5813 144.321 85.9431 144.249 86.3046L138.943 89.1854L134.914 86.7635C135.032 86.4701 135.125 86.1743 135.193 85.8768L138.984 88.1561L144.397 85.2186Z" stroke="black"/>
<path d="M144.239 90.1539L138.931 93.0348L138.942 89.1852L144.25 86.3043L144.239 90.1539Z" fill="#FFFEFA"/>
<path d="M144.239 90.1539L138.931 93.0348L138.942 89.1852L144.25 86.3043L144.239 90.1539Z" stroke="black"/>
<path d="M102.365 88.3507C101.823 90.5465 101.613 92.9742 101.606 95.252C101.64 91.6118 101.453 88.2421 102.376 84.5011L102.365 88.3507Z" fill="#FF9955"/>
<path d="M102.365 88.3507C101.823 90.5465 101.613 92.9742 101.606 95.252C101.64 91.6118 101.453 88.2421 102.376 84.5011L102.365 88.3507Z" stroke="black"/>
<path d="M114.405 97.8983L110.087 100.042L110.098 96.1922L114.416 94.0487L114.405 97.8983Z" fill="#FF9955"/>
<path d="M114.405 97.8983L110.087 100.042L110.098 96.1922L114.416 94.0487L114.405 97.8983Z" stroke="black"/>
<path d="M116.598 97.7769L111.883 100.118L111.893 96.2681L116.609 93.9273L116.598 97.7769Z" fill="#FFFEFA"/>
<path d="M116.598 97.7769L111.883 100.118L111.893 96.2681L116.609 93.9273L116.598 97.7769Z" stroke="black"/>
<path d="M101.707 94.1921C101.81 95.7216 101.965 96.6644 101.943 96.5222C101.94 97.8054 101.934 99.4022 101.931 100.362C101.823 99.6118 101.746 98.7823 101.696 98.0417L101.707 94.1921Z" fill="#FF9955"/>
<path d="M101.707 94.1921C101.81 95.7216 101.965 96.6644 101.943 96.5222C101.94 97.8054 101.934 99.4022 101.931 100.362C101.823 99.6118 101.746 98.7823 101.696 98.0417L101.707 94.1921Z" stroke="black"/>
<path d="M76.649 98.1107L72.2321 100.306L72.2428 96.4564L76.6608 94.2611L76.649 98.1107Z" fill="#FF9955"/>
<path d="M76.649 98.1107L72.2321 100.306L72.2428 96.4564L76.6608 94.2611L76.649 98.1107Z" stroke="black"/>
<path d="M78.8611 97.9802L74.0261 100.382L74.0369 96.5319L78.8718 94.1306L78.8611 97.9802Z" fill="#FFFEFA"/>
<path d="M78.8611 97.9802L74.0261 100.382L74.0369 96.5319L78.8718 94.1306L78.8611 97.9802Z" stroke="black"/>
<path d="M92.5403 91.3833C92.5343 93.4679 92.6946 95.5814 92.8879 96.8775L92.8772 100.727C92.8637 100.637 92.6945 99.501 92.5969 97.7701C92.4858 95.799 92.5398 91.2485 92.5403 91.3833Z" fill="#FFD475"/>
<path d="M92.5403 91.3833C92.5343 93.4679 92.6946 95.5814 92.8879 96.8775L92.8772 100.727C92.8637 100.637 92.6945 99.501 92.5969 97.7701C92.4858 95.799 92.5398 91.2485 92.5403 91.3833Z" stroke="black"/>
<path d="M101.943 96.5225C102.106 97.6656 102.072 97.3706 102.06 101.451C101.907 99.9363 101.929 101.365 101.943 96.5225Z" fill="#FF9955"/>
<path d="M101.943 96.5225C102.106 97.6656 102.072 97.3706 102.06 101.451C101.907 99.9363 101.929 101.365 101.943 96.5225Z" stroke="black"/>
<path d="M144.239 90.154C143.599 93.3541 141.147 96.4542 136.882 98.904C133.006 101.13 126.244 102.485 116.27 103.023L116.281 99.1736C126.255 98.6356 133.017 97.2809 136.893 95.0544C141.158 92.6045 143.61 89.5045 144.25 86.3044L144.239 90.154Z" fill="#C5CDE2"/>
<path d="M144.239 90.154C143.599 93.3541 141.147 96.4542 136.882 98.904C133.006 101.13 126.244 102.485 116.27 103.023L116.281 99.1736C126.255 98.6356 133.017 97.2809 136.893 95.0544C141.158 92.6045 143.61 89.5045 144.25 86.3044L144.239 90.154Z" stroke="black"/>
<path d="M116.281 99.1734L116.27 103.023L111.883 100.118L111.893 96.2682L116.281 99.1734Z" fill="#FF9955"/>
<path d="M116.281 99.1734L116.27 103.023L111.883 100.118L111.893 96.2682L116.281 99.1734Z" stroke="black"/>
<path d="M144.249 86.3043C143.609 89.5043 141.158 92.6045 136.893 95.0543C133.018 97.2808 126.255 98.6355 116.281 99.1735L111.893 96.2682L116.609 93.9274C126.075 93.318 129.406 91.9813 130.454 91.3795C132.747 90.0624 134.232 88.4562 134.914 86.7643L138.942 89.1852L144.249 86.3043Z" fill="#FF9955"/>
<path d="M144.249 86.3043C143.609 89.5043 141.158 92.6045 136.893 95.0543C133.018 97.2808 126.255 98.6355 116.281 99.1735L111.893 96.2682L116.609 93.9274C126.075 93.318 129.406 91.9813 130.454 91.3795C132.747 90.0624 134.232 88.4562 134.914 86.7643L138.942 89.1852L144.249 86.3043Z" stroke="black"/>
<path d="M102.072 97.602C102.231 99.1773 102.2 98.8309 102.188 103.012C102.03 100.482 102.056 103.117 102.072 97.602Z" fill="#FF9955"/>
<path d="M102.072 97.602C102.231 99.1773 102.2 98.8309 102.188 103.012C102.03 100.482 102.056 103.117 102.072 97.602Z" stroke="black"/>
<path d="M116.27 103.023C115.758 103.051 115.236 103.077 114.704 103.099L114.714 99.2498C115.246 99.2272 115.768 99.2015 116.281 99.1737L116.27 103.023Z" fill="#F3F1FC"/>
<path d="M116.27 103.023C115.758 103.051 115.236 103.077 114.704 103.099L114.714 99.2498C115.246 99.2272 115.768 99.2015 116.281 99.1737L116.27 103.023Z" stroke="black"/>
<path d="M111.893 96.2681L116.281 99.1734C115.768 99.2013 115.246 99.2269 114.715 99.2496L110.098 96.192L114.416 94.0484C115.182 94.0125 115.912 93.9714 116.609 93.9273L111.893 96.2681Z" fill="#FFFEFA"/>
<path d="M111.893 96.2681L116.281 99.1734C115.768 99.2013 115.246 99.2269 114.715 99.2496L110.098 96.192L114.416 94.0484C115.182 94.0125 115.912 93.9714 116.609 93.9273L111.893 96.2681Z" stroke="black"/>
<path d="M114.714 99.2498L114.704 103.099L110.087 100.042L110.098 96.1921L114.714 99.2498Z" fill="#FFFEFA"/>
<path d="M114.714 99.2498L114.704 103.099L110.087 100.042L110.098 96.1921L114.714 99.2498Z" stroke="black"/>
<path d="M102.2 99.1626C102.22 99.5007 102.204 103.109 102.203 103.251C102.179 102.835 102.189 103.071 102.2 99.1626Z" fill="#FF9955"/>
<path d="M102.2 99.1626C102.22 99.5007 102.204 103.109 102.203 103.251C102.179 102.835 102.189 103.071 102.2 99.1626Z" stroke="black"/>
<path d="M110.098 96.1922L114.714 99.2499C110.624 99.4333 106.308 99.4699 102.214 99.4022C102.061 96.7137 101.866 96.5597 101.708 94.1922C105.839 94.2759 110.416 94.2429 114.416 94.0487L110.098 96.1922Z" fill="#FF9955"/>
<path d="M110.098 96.1922L114.714 99.2499C110.624 99.4333 106.308 99.4699 102.214 99.4022C102.061 96.7137 101.866 96.5597 101.708 94.1922C105.839 94.2759 110.416 94.2429 114.416 94.0487L110.098 96.1922Z" stroke="black"/>
<path d="M114.704 103.1C110.613 103.283 106.297 103.32 102.203 103.252L102.214 99.4025C106.308 99.4703 110.624 99.4336 114.715 99.2502L114.704 103.1Z" fill="#C5CDE2"/>
<path d="M114.704 103.1C110.613 103.283 106.297 103.32 102.203 103.252L102.214 99.4025C106.308 99.4703 110.624 99.4336 114.715 99.2502L114.704 103.1Z" stroke="black"/>
<path d="M92.8876 96.878C92.8923 96.9064 93.2103 99.0513 93.202 101.941L93.1913 105.79C93.1996 102.903 92.882 100.759 92.8768 100.728L92.8876 96.878Z" fill="#FFD475"/>
<path d="M92.8876 96.878C92.8923 96.9064 93.2103 99.0513 93.202 101.941L93.1913 105.79C93.1996 102.903 92.882 100.759 92.8768 100.728L92.8876 96.878Z" stroke="black"/>
<path d="M82.5757 99.1859C86.6164 99.0512 90.4209 99.0766 93.1108 99.1312C93.1052 100.158 93.1004 101.957 93.1001 102.981C90.4101 102.926 86.6048 102.901 82.564 103.035C81.0341 103.087 79.629 103.154 78.3364 103.237L78.3472 99.387C79.6398 99.3046 81.0456 99.2369 82.5757 99.1859Z" fill="#C5CDE2"/>
<path d="M82.5757 99.1859C86.6164 99.0512 90.4209 99.0766 93.1108 99.1312C93.1052 100.158 93.1004 101.957 93.1001 102.981C90.4101 102.926 86.6048 102.901 82.564 103.035C81.0341 103.087 79.629 103.154 78.3364 103.237L78.3472 99.387C79.6398 99.3046 81.0456 99.2369 82.5757 99.1859Z" stroke="black"/>
<path d="M82.1304 93.9936C86.1 93.8636 89.8025 93.8745 92.6089 93.9203C92.7543 96.5012 92.9581 96.8325 93.1108 99.1313C90.4209 99.0767 86.6164 99.0513 82.5757 99.1859C81.0458 99.237 79.6407 99.3048 78.3481 99.3871L74.0376 96.5316L78.8726 94.1303C79.925 94.0763 81.0079 94.0307 82.1304 93.9936Z" fill="#FF9955"/>
<path d="M82.1304 93.9936C86.1 93.8636 89.8025 93.8745 92.6089 93.9203C92.7543 96.5012 92.9581 96.8325 93.1108 99.1313C90.4209 99.0767 86.6164 99.0513 82.5757 99.1859C81.0458 99.237 79.6407 99.3048 78.3481 99.3871L74.0376 96.5316L78.8726 94.1303C79.925 94.0763 81.0079 94.0307 82.1304 93.9936Z" stroke="black"/>
<path d="M78.3474 99.3872L78.3367 103.237L74.0261 100.381L74.0369 96.5317L78.3474 99.3872Z" fill="#FF9955"/>
<path d="M78.3474 99.3872L78.3367 103.237L74.0261 100.381L74.0369 96.5317L78.3474 99.3872Z" stroke="black"/>
<path d="M74.037 96.5319L78.3475 99.3874C77.8218 99.4204 77.3142 99.4556 76.826 99.4939L72.243 96.4567L76.66 94.2614C77.3803 94.2145 78.1162 94.1701 78.8719 94.1306L74.037 96.5319Z" fill="#FFFEFA"/>
<path d="M74.037 96.5319L78.3475 99.3874C77.8218 99.4204 77.3142 99.4556 76.826 99.4939L72.243 96.4567L76.66 94.2614C77.3803 94.2145 78.1162 94.1701 78.8719 94.1306L74.037 96.5319Z" stroke="black"/>
<path d="M78.3363 103.237C77.8106 103.27 77.303 103.305 76.8148 103.343L76.8256 99.4936C77.3137 99.4554 77.8214 99.4203 78.347 99.3872L78.3363 103.237Z" fill="#F3F1FC"/>
<path d="M78.3363 103.237C77.8106 103.27 77.303 103.305 76.8148 103.343L76.8256 99.4936C77.3137 99.4554 77.8214 99.4203 78.347 99.3872L78.3363 103.237Z" stroke="black"/>
<path d="M76.8258 99.4944L76.8151 103.344L72.2321 100.306L72.2428 96.4563L76.8258 99.4944Z" fill="#FFFEFA"/>
<path d="M76.8258 99.4944L76.8151 103.344L72.2321 100.306L72.2428 96.4563L76.8258 99.4944Z" stroke="black"/>
<path d="M76.8152 103.344C68.4043 103.987 65.3502 105.222 64.3562 105.793C61.3441 107.523 59.7223 109.753 59.4919 112.024L59.5027 108.175C59.733 105.904 61.355 103.674 64.3669 101.943C65.3609 101.372 68.415 100.138 76.8259 99.494L76.8152 103.344Z" fill="#C5CDE2"/>
<path d="M76.8152 103.344C68.4043 103.987 65.3502 105.222 64.3562 105.793C61.3441 107.523 59.7223 109.753 59.4919 112.024L59.5027 108.175C59.733 105.904 61.355 103.674 64.3669 101.943C65.3609 101.372 68.415 100.138 76.8259 99.494L76.8152 103.344Z" stroke="black"/>
<path d="M59.4922 112.024L54.5957 114.45L54.6064 110.601L59.5029 108.175L59.4922 112.024Z" fill="#FF9955"/>
<path d="M59.4922 112.024L54.5957 114.45L54.6064 110.601L59.5029 108.175L59.4922 112.024Z" stroke="black"/>
<path d="M59.4915 112.024C59.4732 112.204 59.4636 112.384 59.4631 112.564C59.4825 108.628 59.4545 108.645 59.5022 108.175L59.4915 112.024Z" fill="#FFFEFA"/>
<path d="M59.4915 112.024C59.4732 112.204 59.4636 112.384 59.4631 112.564C59.4825 108.628 59.4545 108.645 59.5022 108.175L59.4915 112.024Z" stroke="black"/>
<path d="M96.7368 110.586L92.4224 112.719L92.4331 108.869L96.7476 106.736L96.7368 110.586Z" fill="#FFD475"/>
<path d="M96.7368 110.586L92.4224 112.719L92.4331 108.869L96.7476 106.736L96.7368 110.586Z" stroke="black"/>
<path d="M50.4006 108.68C50.4002 108.823 50.3933 113.065 50.3937 112.795C50.3879 112.565 50.4009 108.538 50.4006 108.68Z" fill="#FFFEFA"/>
<path d="M102.377 84.5013C102.112 85.573 101.9 86.8031 101.767 88.2171C101.338 92.7517 101.952 96.4218 102.072 97.6019C102.467 101.487 102.349 105.99 101.385 109.793L96.7478 106.737L92.4333 108.868C92.6999 107.802 92.9137 106.574 93.0486 105.163C93.735 98.0278 91.9932 95.4544 92.7019 87.9202C92.8462 86.3821 93.0821 84.9595 93.407 83.6517L97.7898 81.4808L102.377 84.5013Z" fill="#E9EDF6"/>
<path d="M102.377 84.5013C102.112 85.573 101.9 86.8031 101.767 88.2171C101.338 92.7517 101.952 96.4218 102.072 97.6019C102.467 101.487 102.349 105.99 101.385 109.793L96.7478 106.737L92.4333 108.868C92.6999 107.802 92.9137 106.574 93.0486 105.163C93.735 98.0278 91.9932 95.4544 92.7019 87.9202C92.8462 86.3821 93.0821 84.9595 93.407 83.6517L97.7898 81.4808L102.377 84.5013Z" stroke="black"/>
<path d="M101.384 109.793L101.373 113.642L96.7366 110.586L96.7473 106.736L101.384 109.793Z" fill="#FFD475"/>
<path d="M101.384 109.793L101.373 113.642L96.7366 110.586L96.7473 106.736L101.384 109.793Z" stroke="black"/>
<path d="M102.282 101.941C102.244 105.822 102.447 109.408 101.374 113.643L101.384 109.793C102.023 107.272 102.274 104.521 102.282 101.941Z" fill="#FF9955"/>
<path d="M102.282 101.941C102.244 105.822 102.447 109.408 101.374 113.643L101.384 109.793C102.023 107.272 102.274 104.521 102.282 101.941Z" stroke="black"/>
<path d="M96.6094 111.613L92.1055 113.84L92.1162 109.99L96.6211 107.764L96.6094 111.613Z" fill="#FFFEFA"/>
<path d="M96.6094 111.613L92.1055 113.84L92.1162 109.99L96.6211 107.764L96.6094 111.613Z" stroke="black"/>
<path d="M54.6071 110.601L54.5953 114.45L50.4342 111.712L50.4449 107.863L54.6071 110.601Z" fill="#FF9955"/>
<path d="M54.6071 110.601L54.5953 114.45L50.4342 111.712L50.4449 107.863L54.6071 110.601Z" stroke="black"/>
<path d="M72.2432 96.4565L76.8262 99.4936C68.4153 100.137 65.3612 101.373 64.3672 101.944C61.3553 103.674 59.7332 105.904 59.5029 108.175L54.6064 110.601L50.4453 107.863C50.7963 104.367 53.2892 100.933 57.9277 98.268C61.5552 96.1843 67.7112 94.8647 76.6602 94.2612L72.2432 96.4565Z" fill="#FF9955"/>
<path d="M72.2432 96.4565L76.8262 99.4936C68.4153 100.137 65.3612 101.373 64.3672 101.944C61.3553 103.674 59.7332 105.904 59.5029 108.175L54.6064 110.601L50.4453 107.863C50.7963 104.367 53.2892 100.933 57.9277 98.268C61.5552 96.1843 67.7112 94.8647 76.6602 94.2612L72.2432 96.4565Z" stroke="black"/>
<path d="M101.384 109.793C101.303 110.113 101.216 110.426 101.125 110.732L96.6207 107.764L92.1168 109.99C92.2293 109.638 92.3362 109.264 92.4342 108.869L96.7477 106.736L101.384 109.793Z" fill="#FFFEFA"/>
<path d="M101.384 109.793C101.303 110.113 101.216 110.426 101.125 110.732L96.6207 107.764L92.1168 109.99C92.2293 109.638 92.3362 109.264 92.4342 108.869L96.7477 106.736L101.384 109.793Z" stroke="black"/>
<path d="M101.124 110.732L101.113 114.581L96.6096 111.613L96.6204 107.764L101.124 110.732Z" fill="#FFFEFA"/>
<path d="M101.124 110.732L101.113 114.581L96.6096 111.613L96.6204 107.764L101.124 110.732Z" stroke="black"/>
<path d="M101.373 113.643C101.292 113.963 101.204 114.275 101.113 114.581L101.124 110.731C101.215 110.425 101.303 110.113 101.385 109.793L101.373 113.643Z" fill="#FFFEFA"/>
<path d="M101.373 113.643C101.292 113.963 101.204 114.275 101.113 114.581L101.124 110.731C101.215 110.425 101.303 110.113 101.385 109.793L101.373 113.643Z" stroke="black"/>
<path d="M59.4795 112.997L54.4707 115.478L54.4814 111.629L59.4902 109.147L59.4795 112.997Z" fill="#FFFEFA"/>
<path d="M59.4795 112.997L54.4707 115.478L54.4814 111.629L59.4902 109.147L59.4795 112.997Z" stroke="black"/>
<path d="M54.6061 110.601L59.5026 108.175C59.469 108.498 59.4647 108.824 59.4899 109.148L54.4811 111.628L50.4039 108.946C50.3938 108.586 50.4065 108.224 50.4449 107.863L54.6061 110.601Z" fill="#FFFEFA"/>
<path d="M54.6061 110.601L59.5026 108.175C59.469 108.498 59.4647 108.824 59.4899 109.148L54.4811 111.628L50.4039 108.946C50.3938 108.586 50.4065 108.224 50.4449 107.863L54.6061 110.601Z" stroke="black"/>
<path d="M54.4813 111.629L54.4706 115.478L50.3934 112.795L50.4042 108.945L54.4813 111.629Z" fill="#FFFEFA"/>
<path d="M54.4813 111.629L54.4706 115.478L50.3934 112.795L50.4042 108.945L54.4813 111.629Z" stroke="black"/>
<path d="M54.4814 111.629L59.4902 109.148C59.6618 111.493 61.3121 113.812 64.4434 115.599L58.0469 119.274C53.0516 116.423 50.5027 112.692 50.4043 108.945L54.4814 111.629Z" fill="#E9EDF6"/>
<path d="M54.4814 111.629L59.4902 109.148C59.6618 111.493 61.3121 113.812 64.4434 115.599L58.0469 119.274C53.0516 116.423 50.5027 112.692 50.4043 108.945L54.4814 111.629Z" stroke="black"/>
<path d="M64.4333 119.448L58.0359 123.123L58.0466 119.274L64.4441 115.599L64.4333 119.448Z" fill="#E9EDF6"/>
<path d="M64.4333 119.448L58.0359 123.123L58.0466 119.274L64.4441 115.599L64.4333 119.448Z" stroke="black"/>
<path d="M79.7704 121.403L79.7596 125.252L75.3641 122.254L75.3749 118.405L79.7704 121.403Z" fill="#FFD06C"/>
<path d="M79.7704 121.403L79.7596 125.252L75.3641 122.254L75.3749 118.405L79.7704 121.403Z" stroke="black"/>
<path d="M77.9768 121.313L77.9651 125.161L73.5256 122.134L73.5364 118.285L77.9768 121.313Z" fill="#FFFEFA"/>
<path d="M77.9768 121.313L77.9651 125.161L73.5256 122.134L73.5364 118.285L77.9768 121.313Z" stroke="black"/>
<path d="M64.4445 115.599C67.0147 117.066 70.2084 117.961 73.5372 118.284L77.9767 121.313L73.4083 123.518C67.7969 123.147 62.3538 121.731 58.047 119.274L64.4445 115.599Z" fill="#E9EDF6"/>
<path d="M64.4445 115.599C67.0147 117.066 70.2084 117.961 73.5372 118.284L77.9767 121.313L73.4083 123.518C67.7969 123.147 62.3538 121.731 58.047 119.274L64.4445 115.599Z" stroke="black"/>
<path d="M50.4037 108.946C50.5024 112.692 53.0523 116.423 58.0463 119.274C62.3538 121.731 67.7968 123.147 73.4086 123.518L73.3978 127.367C67.7861 126.997 62.3431 125.581 58.0355 123.123C53.0415 120.272 50.4917 116.541 50.3929 112.794L50.4037 108.946Z" fill="#FF9955"/>
<path d="M50.4037 108.946C50.5024 112.692 53.0523 116.423 58.0463 119.274C62.3538 121.731 67.7968 123.147 73.4086 123.518L73.3978 127.367C67.7861 126.997 62.3431 125.581 58.0355 123.123C53.0415 120.272 50.4917 116.541 50.3929 112.794L50.4037 108.946Z" stroke="black"/>
<path d="M77.9657 125.162L73.3973 127.367L73.4081 123.518L77.9764 121.313L77.9657 125.162Z" fill="#E9EDF6"/>
<path d="M77.9657 125.162L73.3973 127.367L73.4081 123.518L77.9764 121.313L77.9657 125.162Z" stroke="black"/>
<path d="M73.5365 118.285C74.1459 118.344 74.7591 118.384 75.3754 118.405L79.7699 121.403L75.2152 123.601C74.6131 123.585 74.0098 123.557 73.4086 123.517L77.9769 121.312L73.5365 118.285Z" fill="#FFFEFA"/>
<path d="M73.5365 118.285C74.1459 118.344 74.7591 118.384 75.3754 118.405L79.7699 121.403L75.2152 123.601C74.6131 123.585 74.0098 123.557 73.4086 123.517L77.9769 121.312L73.5365 118.285Z" stroke="black"/>
<path d="M73.4082 123.517C74.0094 123.557 74.6127 123.585 75.2148 123.601L75.2041 127.45C74.602 127.434 73.9986 127.407 73.3975 127.367L73.4082 123.517Z" fill="#F3F1FC"/>
<path d="M73.4082 123.517C74.0094 123.557 74.6127 123.585 75.2148 123.601L75.2041 127.45C74.602 127.434 73.9986 127.407 73.3975 127.367L73.4082 123.517Z" stroke="black"/>
<path d="M79.7585 125.252L75.2039 127.45L75.2146 123.601L79.7703 121.402L79.7585 125.252Z" fill="#FFFEFA"/>
<path d="M79.7585 125.252L75.2039 127.45L75.2146 123.601L79.7703 121.402L79.7585 125.252Z" stroke="black"/>
<path d="M101.124 110.732C99.9314 114.686 97.8173 117.502 94.7334 119.274C89.3898 122.343 82.2531 123.785 75.2148 123.601L79.7695 121.403L75.375 118.404C80.0243 118.563 84.7606 117.628 88.2939 115.599C89.1748 115.093 90.9585 113.661 92.1162 109.99L96.6201 107.764L101.124 110.732Z" fill="#E9EDF6"/>
<path d="M101.124 110.732C99.9314 114.686 97.8173 117.502 94.7334 119.274C89.3898 122.343 82.2531 123.785 75.2148 123.601L79.7695 121.403L75.375 118.404C80.0243 118.563 84.7606 117.628 88.2939 115.599C89.1748 115.093 90.9585 113.661 92.1162 109.99L96.6201 107.764L101.124 110.732Z" stroke="black"/>
<path d="M101.113 114.581C99.9205 118.536 97.8061 121.351 94.7224 123.123C89.3788 126.192 82.2422 127.635 75.2039 127.451L75.2146 123.601C82.2528 123.786 89.3896 122.343 94.7332 119.274C97.817 117.502 99.9312 114.686 101.124 110.732L101.113 114.581Z" fill="#FF9955"/>
<path d="M101.113 114.581C99.9205 118.536 97.8061 121.351 94.7224 123.123C89.3788 126.192 82.2422 127.635 75.2039 127.451L75.2146 123.601C82.2528 123.786 89.3896 122.343 94.7332 119.274C97.817 117.502 99.9312 114.686 101.124 110.732L101.113 114.581Z" stroke="black"/>
<path d="M156.649 136.669C158.763 135.443 162.199 135.443 164.333 136.669L179.398 145.26C180.943 146.144 181.38 147.43 180.668 148.535C180.414 148.947 179.998 149.329 179.418 149.661L133.556 176.016C131.442 177.231 127.996 177.221 125.872 176.016L110.807 167.415C110.218 167.083 109.791 166.691 109.527 166.269C108.826 165.174 109.242 163.898 110.777 163.014L156.649 136.669Z" fill="white"/>
<path d="M156.649 136.669C158.763 135.443 162.199 135.443 164.333 136.669L179.398 145.26C180.943 146.144 181.38 147.43 180.668 148.535C180.414 148.947 179.998 149.329 179.418 149.661L133.556 176.016C131.442 177.231 127.996 177.221 125.872 176.016L110.807 167.415C110.218 167.083 109.791 166.691 109.527 166.269C108.826 165.174 109.242 163.898 110.777 163.014L156.649 136.669Z" stroke="black"/>
<path d="M156.65 138.78C158.764 137.564 162.199 137.564 164.333 138.78L179.398 147.38C179.987 147.722 180.414 148.113 180.668 148.535C180.414 148.947 179.998 149.329 179.418 149.66L133.556 176.016C131.442 177.231 127.996 177.221 125.872 176.016L110.807 167.414C110.218 167.083 109.791 166.691 109.527 166.27C109.781 165.858 110.198 165.466 110.777 165.134L156.65 138.78Z" fill="#E9EDF6"/>
<path d="M156.65 138.78C158.764 137.564 162.199 137.564 164.333 138.78L179.398 147.38C179.987 147.722 180.414 148.113 180.668 148.535C180.414 148.947 179.998 149.329 179.418 149.66L133.556 176.016C131.442 177.231 127.996 177.221 125.872 176.016L110.807 167.414C110.218 167.083 109.791 166.691 109.527 166.27C109.781 165.858 110.198 165.466 110.777 165.134L156.65 138.78Z" stroke="black"/>
<path d="M158.908 113.141L158.854 151.316L157.165 147.748L157.22 109.573L158.908 113.141Z" fill="#FF9955"/>
<path d="M158.908 113.141L158.854 151.316L157.165 147.748L157.22 109.573L158.908 113.141Z" stroke="black"/>
<path d="M165.142 114.094L165.087 152.269L158.854 151.316L158.909 113.141L165.142 114.094Z" fill="#F2A001"/>
<path d="M165.142 114.094L165.087 152.269L158.854 151.316L158.909 113.141L165.142 114.094Z" stroke="black"/>
<path d="M169.629 149.66L165.087 152.27L165.142 114.095L169.684 111.486L169.629 149.66Z" fill="#FF9955"/>
<path d="M169.629 149.66L165.087 152.27L165.142 114.095L169.684 111.486L169.629 149.66Z" stroke="black"/>
<path d="M167.998 107.919L169.684 111.486L165.142 114.094L158.908 113.141L157.22 109.574L161.762 106.964L167.998 107.919Z" fill="#FFD100"/>
<path d="M167.998 107.919L169.684 111.486L165.142 114.094L158.908 113.141L157.22 109.574L161.762 106.964L167.998 107.919Z" stroke="black"/>
<path d="M147.588 126.469L147.534 157.819L145.845 154.251L145.9 122.902L147.588 126.469Z" fill="#FF9955"/>
<path d="M147.588 126.469L147.534 157.819L145.845 154.251L145.9 122.902L147.588 126.469Z" stroke="black"/>
<path d="M153.822 127.423L153.767 158.772L147.534 157.819L147.588 126.47L153.822 127.423Z" fill="#FF9955"/>
<path d="M153.822 127.423L153.767 158.772L147.534 157.819L147.588 126.47L153.822 127.423Z" stroke="black"/>
<path d="M158.309 156.163L153.767 158.772L153.822 127.423L158.364 124.814L158.309 156.163Z" fill="#FF9955"/>
<path d="M158.309 156.163L153.767 158.772L153.822 127.423L158.364 124.814L158.309 156.163Z" stroke="black"/>
<path d="M156.678 121.248L158.364 124.814L153.822 127.423L147.588 126.469L145.9 122.902L150.442 120.293L156.678 121.248Z" fill="#E9EDF6"/>
<path d="M156.678 121.248L158.364 124.814L153.822 127.423L147.588 126.469L145.9 122.902L150.442 120.293L156.678 121.248Z" stroke="black"/>
<path d="M136.268 139.806L136.213 164.322L134.525 160.753L134.58 136.239L136.268 139.806Z" fill="#FF9955"/>
<path d="M136.268 139.806L136.213 164.322L134.525 160.753L134.58 136.239L136.268 139.806Z" stroke="black"/>
<path d="M142.502 140.76L142.447 165.275L136.214 164.321L136.268 139.806L142.502 140.76Z" fill="#F2A001"/>
<path d="M142.502 140.76L142.447 165.275L136.214 164.321L136.268 139.806L142.502 140.76Z" stroke="black"/>
<path d="M146.989 162.665L142.447 165.275L142.501 140.76L147.043 138.151L146.989 162.665Z" fill="#FF9955"/>
<path d="M146.989 162.665L142.447 165.275L142.501 140.76L147.043 138.151L146.989 162.665Z" stroke="black"/>
<path d="M145.358 134.585L147.043 138.151L142.501 140.76L136.268 139.806L134.58 136.239L139.122 133.63L145.358 134.585Z" fill="#FFD100"/>
<path d="M145.358 134.585L147.043 138.151L142.501 140.76L136.268 139.806L134.58 136.239L139.122 133.63L145.358 134.585Z" stroke="black"/>
<path d="M124.948 152.099L124.894 170.825L123.205 167.256L123.26 148.532L124.948 152.099Z" fill="#FF9955"/>
<path d="M124.948 152.099L124.894 170.825L123.205 167.256L123.26 148.532L124.948 152.099Z" stroke="black"/>
<path d="M131.182 153.052L131.127 171.778L124.894 170.824L124.948 152.099L131.182 153.052Z" fill="#FF9955"/>
<path d="M131.182 153.052L131.127 171.778L124.894 170.824L124.948 152.099L131.182 153.052Z" stroke="black"/>
<path d="M135.669 169.168L131.127 171.778L131.182 153.053L135.724 150.444L135.669 169.168Z" fill="#FF9955"/>
<path d="M135.669 169.168L131.127 171.778L131.182 153.053L135.724 150.444L135.669 169.168Z" stroke="black"/>
<path d="M134.038 146.878L135.724 150.444L131.182 153.052L124.948 152.099L123.26 148.532L127.802 145.922L134.038 146.878Z" fill="#E9EDF6"/>
<path d="M134.038 146.878L135.724 150.444L131.182 153.052L124.948 152.099L123.26 148.532L127.802 145.922L134.038 146.878Z" stroke="black"/>
<path d="M34.7778 157.554C34.7774 157.723 34.6985 157.893 34.5376 158.045L34.5493 154C34.7102 153.848 34.789 153.679 34.7896 153.509L34.7778 157.554Z" fill="white"/>
<path d="M34.7778 157.554C34.7774 157.723 34.6985 157.893 34.5376 158.045L34.5493 154C34.7102 153.848 34.789 153.679 34.7896 153.509L34.7778 157.554Z" stroke="black"/>
<path d="M3.67017 153.496C3.66966 153.67 3.7518 153.846 3.92114 154.003L3.90942 158.048C3.74018 157.891 3.65794 157.715 3.65845 157.541L3.67017 153.496Z" fill="white"/>
<path d="M3.67017 153.496C3.66966 153.67 3.7518 153.846 3.92114 154.003L3.90942 158.048C3.74018 157.891 3.65794 157.715 3.65845 157.541L3.67017 153.496Z" stroke="black"/>
<path d="M34.5378 158.046L33.1042 159.387L33.116 155.342L34.5486 154.001L34.5378 158.046Z" fill="white"/>
<path d="M34.5378 158.046L33.1042 159.387L33.116 155.342L34.5486 154.001L34.5378 158.046Z" stroke="black"/>
<path d="M5.36682 155.342L5.3551 159.387L3.90979 158.048L3.92151 154.003L5.36682 155.342Z" fill="white"/>
<path d="M5.36682 155.342L5.3551 159.387L3.90979 158.048L3.92151 154.003L5.36682 155.342Z" stroke="black"/>
<path d="M33.1039 159.387C32.9454 159.536 32.8633 159.708 32.8627 159.88L32.8744 155.835C32.875 155.663 32.9571 155.491 33.1156 155.342L33.1039 159.387Z" fill="white"/>
<path d="M33.1039 159.387C32.9454 159.536 32.8633 159.708 32.8627 159.88L32.8744 155.835C32.875 155.663 32.9571 155.491 33.1156 155.342L33.1039 159.387Z" stroke="black"/>
<path d="M5.3667 155.342C5.53241 155.495 5.61613 155.668 5.61572 155.842L5.604 159.887C5.60437 159.713 5.5207 159.54 5.35498 159.387L5.3667 155.342Z" fill="white"/>
<path d="M5.3667 155.342C5.53241 155.495 5.61613 155.668 5.61572 155.842L5.604 159.887C5.60437 159.713 5.5207 159.54 5.35498 159.387L5.3667 155.342Z" stroke="black"/>
<path d="M12.6541 156.012C18.4491 152.683 28.6028 155.039 28.5896 159.813L28.5779 163.858C28.5816 162.483 27.6628 161.106 25.824 160.056C20.0437 156.758 9.94316 159.042 9.92944 163.809L9.94116 159.763C9.94528 158.405 10.8495 157.048 12.6541 156.012Z" fill="white"/>
<path d="M12.6541 156.012C18.4491 152.683 28.6028 155.039 28.5896 159.813L28.5779 163.858C28.5816 162.483 27.6628 161.106 25.824 160.056C20.0437 156.758 9.94316 159.042 9.92944 163.809L9.94116 159.763C9.94528 158.405 10.8495 157.048 12.6541 156.012Z" stroke="black"/>
<path d="M0.0107422 158.605C0.00863353 170.222 0.000540184 162.455 0 162.65L0.0107422 158.605Z" fill="white"/>
<path d="M0.0107422 158.605C0.00863353 170.222 0.000540184 162.455 0 162.65L0.0107422 158.605Z" stroke="black"/>
<path d="M38.5127 165.011C38.5184 165.452 37.9874 165.835 37.2373 165.939L37.249 161.894C37.9992 161.79 38.5302 161.407 38.5244 160.966L38.5127 165.011Z" fill="white"/>
<path d="M38.5127 165.011C38.5184 165.452 37.9874 165.835 37.2373 165.939L37.249 161.894C37.9992 161.79 38.5302 161.407 38.5244 160.966L38.5127 165.011Z" stroke="black"/>
<path d="M0.0218506 160.967C0.0290058 161.513 0.752668 161.817 1.30798 161.894L1.29626 165.939C0.735941 165.861 0.0171998 165.555 0.0101318 165.012L0.0218506 160.967Z" fill="white"/>
<path d="M0.0218506 160.967C0.0290058 161.513 0.752668 161.817 1.30798 161.894L1.29626 165.939C0.735941 165.861 0.0171998 165.555 0.0101318 165.012L0.0218506 160.967Z" stroke="black"/>
<path d="M37.2372 165.939L34.5682 166.305L34.58 162.26L37.2489 161.894L37.2372 165.939Z" fill="white"/>
<path d="M37.2372 165.939L34.5682 166.305L34.58 162.26L37.2489 161.894L37.2372 165.939Z" stroke="black"/>
<path d="M3.98413 162.261L3.97241 166.307L1.29663 165.939L1.30835 161.894L3.98413 162.261Z" fill="white"/>
<path d="M3.98413 162.261L3.97241 166.307L1.29663 165.939L1.30835 161.894L3.98413 162.261Z" stroke="black"/>
<path d="M34.569 166.305C34.0361 166.38 33.5992 166.597 33.4059 166.891C33.2983 167.06 33.1777 167.232 33.0446 167.396L33.0563 163.351C33.1894 163.187 33.31 163.015 33.4176 162.847C33.6109 162.552 34.047 162.335 34.5797 162.26L34.569 166.305Z" fill="#FF9955"/>
<path d="M34.569 166.305C34.0361 166.38 33.5992 166.597 33.4059 166.891C33.2983 167.06 33.1777 167.232 33.0446 167.396L33.0563 163.351C33.1894 163.187 33.31 163.015 33.4176 162.847C33.6109 162.552 34.047 162.335 34.5797 162.26L34.569 166.305Z" stroke="black"/>
<path d="M33.0442 167.397C32.953 167.518 32.9069 167.648 32.9065 167.777C32.9631 163.551 32.8152 163.671 33.0549 163.352L33.0442 167.397Z" fill="white"/>
<path d="M33.0442 167.397C32.953 167.518 32.9069 167.648 32.9065 167.777C32.9631 163.551 32.8152 163.671 33.0549 163.352L33.0442 167.397Z" stroke="black"/>
<path d="M3.98438 162.262C4.40894 162.32 4.91887 162.5 5.15039 162.847C5.49812 163.381 5.6619 163.443 5.66113 163.738L5.64941 167.783C5.65012 167.489 5.47668 167.412 5.13867 166.893C4.90723 166.546 4.39746 166.365 3.97266 166.307L3.98438 162.262Z" fill="#FF9955"/>
<path d="M3.98438 162.262C4.40894 162.32 4.91887 162.5 5.15039 162.847C5.49812 163.381 5.6619 163.443 5.66113 163.738L5.64941 167.783C5.65012 167.489 5.47668 167.412 5.13867 166.893C4.90723 166.546 4.39746 166.365 3.97266 166.307L3.98438 162.262Z" stroke="black"/>
<path d="M34.8474 170.121C34.8467 170.366 34.6804 170.609 34.3611 170.792L34.3728 166.746C34.6919 166.563 34.8584 166.321 34.8591 166.076L34.8474 170.121Z" fill="white"/>
<path d="M34.8474 170.121C34.8467 170.366 34.6804 170.609 34.3611 170.792L34.3728 166.746C34.6919 166.563 34.8584 166.321 34.8591 166.076L34.8474 170.121Z" stroke="black"/>
<path d="M3.74622 166.067C3.74549 166.316 3.91489 166.561 4.24036 166.747L4.22864 170.792C3.90318 170.606 3.73377 170.36 3.7345 170.112L3.74622 166.067Z" fill="white"/>
<path d="M3.74622 166.067C3.74549 166.316 3.91489 166.561 4.24036 166.747L4.22864 170.792C3.90318 170.606 3.73377 170.36 3.7345 170.112L3.74622 166.067Z" stroke="black"/>
<path d="M34.3608 170.792L31.4565 172.46L31.4683 168.415L34.3726 166.747L34.3608 170.792Z" fill="white"/>
<path d="M34.3608 170.792L31.4565 172.46L31.4683 168.415L34.3726 166.747L34.3608 170.792Z" stroke="black"/>
<path d="M7.16296 168.415L7.15125 172.46L4.22839 170.792L4.24011 166.747L7.16296 168.415Z" fill="white"/>
<path d="M7.16296 168.415L7.15125 172.46L4.22839 170.792L4.24011 166.747L7.16296 168.415Z" stroke="black"/>
<path d="M29.418 168.554L29.4072 172.599L27.0635 171.776L27.0752 167.731L29.418 168.554Z" fill="white"/>
<path d="M29.418 168.554L29.4072 172.599L27.0635 171.776L27.0752 167.731L29.418 168.554Z" stroke="black"/>
<path d="M25.5381 167.67C26.0325 167.544 26.6079 167.566 27.0752 167.731L27.0635 171.776C26.1494 171.454 25.4691 171.751 24.6426 171.926C24.1323 172.036 23.7503 172.288 23.624 172.591L23.6357 168.546C23.8845 167.948 24.7509 167.876 25.5381 167.67Z" fill="#FF9955"/>
<path d="M25.5381 167.67C26.0325 167.544 26.6079 167.566 27.0752 167.731L27.0635 171.776C26.1494 171.454 25.4691 171.751 24.6426 171.926C24.1323 172.036 23.7503 172.288 23.624 172.591L23.6357 168.546C23.8845 167.948 24.7509 167.876 25.5381 167.67Z" stroke="black"/>
<path d="M11.5488 167.731C12.4461 167.414 13.0868 167.692 13.9678 167.879C14.3646 167.965 14.837 168.176 14.9941 168.545L14.9824 172.59C14.8253 172.221 14.3531 172.01 13.9561 171.924C13.0762 171.738 12.435 171.459 11.5371 171.776L11.5488 167.731Z" fill="#FF9955"/>
<path d="M11.5488 167.731C12.4461 167.414 13.0868 167.692 13.9678 167.879C14.3646 167.965 14.837 168.176 14.9941 168.545L14.9824 172.59C14.8253 172.221 14.3531 172.01 13.9561 171.924C13.0762 171.738 12.435 171.459 11.5371 171.776L11.5488 167.731Z" stroke="black"/>
<path d="M11.5371 171.776L9.20312 172.599L9.21484 168.554L11.5488 167.731L11.5371 171.776Z" fill="white"/>
<path d="M11.5371 171.776L9.20312 172.599L9.21484 168.554L11.5488 167.731L11.5371 171.776Z" stroke="black"/>
<path d="M31.4563 172.46C30.9118 172.772 30.069 172.832 29.4065 172.599L29.4182 168.553C30.0807 168.786 30.9235 168.728 31.468 168.415L31.4563 172.46Z" fill="white"/>
<path d="M31.4563 172.46C30.9118 172.772 30.069 172.832 29.4065 172.599L29.4182 168.553C30.0807 168.786 30.9235 168.728 31.468 168.415L31.4563 172.46Z" stroke="black"/>
<path d="M7.16309 168.415C7.71113 168.728 8.55804 168.784 9.21484 168.554L9.20312 172.599C8.54628 172.829 7.69937 172.773 7.15137 172.46L7.16309 168.415Z" fill="white"/>
<path d="M7.16309 168.415C7.71113 168.728 8.55804 168.784 9.21484 168.554L9.20312 172.599C8.54628 172.829 7.69937 172.773 7.15137 172.46L7.16309 168.415Z" stroke="black"/>
<path d="M23.6238 172.592L22.9939 174.121L23.0056 170.076L23.6355 168.547L23.6238 172.592Z" fill="white"/>
<path d="M23.6238 172.592L22.9939 174.121L23.0056 170.076L23.6355 168.547L23.6238 172.592Z" stroke="black"/>
<path d="M15.6445 170.076L15.6338 174.121L14.9824 172.59L14.9941 168.545L15.6445 170.076Z" fill="white"/>
<path d="M15.6445 170.076L15.6338 174.121L14.9824 172.59L14.9941 168.545L15.6445 170.076Z" stroke="black"/>
<path d="M22.9937 174.121C22.8172 174.549 22.1514 174.85 21.3813 174.852L21.3931 170.807C22.163 170.805 22.829 170.504 23.0054 170.076L22.9937 174.121Z" fill="white"/>
<path d="M22.9937 174.121C22.8172 174.549 22.1514 174.85 21.3813 174.852L21.3931 170.807C22.163 170.805 22.829 170.504 23.0054 170.076L22.9937 174.121Z" stroke="black"/>
<path d="M21.382 174.852H17.254L17.2657 170.808H21.3927L21.382 174.852Z" fill="white"/>
<path d="M21.382 174.852H17.254L17.2657 170.808H21.3927L21.382 174.852Z" stroke="black"/>
<path d="M21.2645 148.764C21.8644 148.763 22.6747 148.98 22.8915 149.495L23.5419 151.027C23.7988 151.629 24.7394 151.723 25.4481 151.899C25.9472 152.03 26.522 152.005 26.9843 151.842L29.3251 151.019C29.9786 150.79 30.8252 150.848 31.37 151.159L34.2968 152.828C34.8446 153.141 34.9458 153.626 34.5487 154.001L33.1161 155.342C32.8365 155.606 32.7932 155.938 33.0184 156.22C33.4401 156.764 33.4244 156.864 33.7645 157.058C33.9785 157.18 34.2502 157.268 34.5516 157.31L37.2284 157.678C37.7899 157.754 38.5083 158.06 38.5077 158.605L38.5243 160.966C38.53 161.407 37.999 161.79 37.2489 161.894L34.58 162.26C34.0471 162.335 33.6111 162.553 33.4178 162.847C33.3102 163.015 33.1897 163.187 33.0565 163.352C32.8409 163.637 32.8778 163.969 33.1669 164.236L34.6083 165.573C35.0161 165.951 34.9164 166.434 34.3719 166.746L31.4686 168.415C30.9241 168.728 30.0804 168.786 29.4178 168.554L27.0751 167.731C26.161 167.409 25.4807 167.706 24.6542 167.881C24.1439 167.991 23.7619 168.243 23.6356 168.546L23.0057 170.076C22.8293 170.503 22.1633 170.806 21.3934 170.808H17.2655C16.6732 170.807 15.8664 170.593 15.6444 170.076C14.9992 168.712 15.1051 168.41 14.5507 168.094C14.3877 168.001 14.1899 167.927 13.9677 167.879C13.0877 167.693 12.4466 167.413 11.5487 167.731L9.21472 168.554C8.55792 168.784 7.71096 168.728 7.16296 168.415L4.24011 166.746C3.69214 166.434 3.5868 165.951 3.99011 165.573L5.41687 164.232C5.70289 163.965 5.73976 163.632 5.51453 163.35C5.11037 162.84 5.13353 162.72 4.77234 162.514C4.55765 162.392 4.28575 162.304 3.98425 162.262C1.63324 161.901 1.07462 161.959 0.515503 161.64C0.210353 161.466 0.0257452 161.226 0.0223389 160.966L0.0115967 158.605C0.0125762 158.164 0.537523 157.782 1.28113 157.678L3.95007 157.312C4.48294 157.241 4.91928 157.019 5.10925 156.727C5.22007 156.561 5.34359 156.39 5.47351 156.22C5.69547 155.938 5.65573 155.609 5.36707 155.342L3.92175 154.003C3.51381 153.625 3.60966 153.139 4.15417 152.826L7.05847 151.159C7.60298 150.846 8.44953 150.788 9.11218 151.021L11.452 151.842C11.9162 152.005 12.4976 152.027 12.9921 151.901C13.805 151.691 14.6516 151.617 14.8944 151.025L15.5214 149.497C15.7042 149.069 16.3699 148.764 17.1395 148.766L21.2645 148.764ZM25.8358 156.011C22.182 153.926 16.2811 153.928 12.6542 156.011C9.0241 158.096 9.03745 161.477 12.6913 163.562C16.3451 165.647 22.2517 165.645 25.8817 163.56C29.5086 161.476 29.4896 158.096 25.8358 156.011Z" fill="#C8D4F1"/>
<path d="M21.2645 148.764C21.8644 148.763 22.6747 148.98 22.8915 149.495L23.5419 151.027C23.7988 151.629 24.7394 151.723 25.4481 151.899C25.9472 152.03 26.522 152.005 26.9843 151.842L29.3251 151.019C29.9786 150.79 30.8252 150.848 31.37 151.159L34.2968 152.828C34.8446 153.141 34.9458 153.626 34.5487 154.001L33.1161 155.342C32.8365 155.606 32.7932 155.938 33.0184 156.22C33.4401 156.764 33.4244 156.864 33.7645 157.058C33.9785 157.18 34.2502 157.268 34.5516 157.31L37.2284 157.678C37.7899 157.754 38.5083 158.06 38.5077 158.605L38.5243 160.966C38.53 161.407 37.999 161.79 37.2489 161.894L34.58 162.26C34.0471 162.335 33.6111 162.553 33.4178 162.847C33.3102 163.015 33.1897 163.187 33.0565 163.352C32.8409 163.637 32.8778 163.969 33.1669 164.236L34.6083 165.573C35.0161 165.951 34.9164 166.434 34.3719 166.746L31.4686 168.415C30.9241 168.728 30.0804 168.786 29.4178 168.554L27.0751 167.731C26.161 167.409 25.4807 167.706 24.6542 167.881C24.1439 167.991 23.7619 168.243 23.6356 168.546L23.0057 170.076C22.8293 170.503 22.1633 170.806 21.3934 170.808H17.2655C16.6732 170.807 15.8664 170.593 15.6444 170.076C14.9992 168.712 15.1051 168.41 14.5507 168.094C14.3877 168.001 14.1899 167.927 13.9677 167.879C13.0877 167.693 12.4466 167.413 11.5487 167.731L9.21472 168.554C8.55792 168.784 7.71096 168.728 7.16296 168.415L4.24011 166.746C3.69214 166.434 3.5868 165.951 3.99011 165.573L5.41687 164.232C5.70289 163.965 5.73976 163.632 5.51453 163.35C5.11037 162.84 5.13353 162.72 4.77234 162.514C4.55765 162.392 4.28575 162.304 3.98425 162.262C1.63324 161.901 1.07462 161.959 0.515503 161.64C0.210353 161.466 0.0257452 161.226 0.0223389 160.966L0.0115967 158.605C0.0125762 158.164 0.537523 157.782 1.28113 157.678L3.95007 157.312C4.48294 157.241 4.91928 157.019 5.10925 156.727C5.22007 156.561 5.34359 156.39 5.47351 156.22C5.69547 155.938 5.65573 155.609 5.36707 155.342L3.92175 154.003C3.51381 153.625 3.60966 153.139 4.15417 152.826L7.05847 151.159C7.60298 150.846 8.44953 150.788 9.11218 151.021L11.452 151.842C11.9162 152.005 12.4976 152.027 12.9921 151.901C13.805 151.691 14.6516 151.617 14.8944 151.025L15.5214 149.497C15.7042 149.069 16.3699 148.764 17.1395 148.766L21.2645 148.764ZM25.8358 156.011C22.182 153.926 16.2811 153.928 12.6542 156.011C9.0241 158.096 9.03745 161.477 12.6913 163.562C16.3451 165.647 22.2517 165.645 25.8817 163.56C29.5086 161.476 29.4896 158.096 25.8358 156.011Z" stroke="black"/>
<path d="M15.645 170.076C15.8655 170.59 16.6653 170.806 17.2651 170.807L17.2544 174.852C16.6621 174.851 15.8553 174.639 15.6333 174.121L15.645 170.076Z" fill="white"/>
<path d="M15.645 170.076C15.8655 170.59 16.6653 170.806 17.2651 170.807L17.2544 174.852C16.6621 174.851 15.8553 174.639 15.6333 174.121L15.645 170.076Z" stroke="black"/>
<g opacity="0.7">
<path d="M111.378 60.2137C113.344 59.0858 117.021 59.073 119.031 60.2215L164.857 86.3748C166.338 87.22 166.34 89.3325 164.863 90.1805L83.4358 136.956C81.4554 138.093 77.7829 138.096 75.7756 136.951L29.9514 110.799C28.4705 109.952 28.4681 107.842 29.9456 106.993L111.378 60.2137ZM118.746 60.7117C116.913 59.6644 113.455 59.6748 111.666 60.7019L30.2336 107.481C29.1357 108.112 29.1366 109.679 30.2366 110.308L76.0608 136.461C77.8934 137.506 81.3466 137.5 83.1477 136.467L164.574 89.6912C165.672 89.0607 165.672 87.493 164.572 86.865L118.746 60.7117Z" fill="#FFFEFA"/>
<path d="M111.378 60.2137C113.344 59.0858 117.021 59.073 119.031 60.2215L164.857 86.3748C166.338 87.22 166.34 89.3325 164.863 90.1805L83.4358 136.956C81.4554 138.093 77.7829 138.096 75.7756 136.951L29.9514 110.799C28.4705 109.952 28.4681 107.842 29.9456 106.993L111.378 60.2137ZM118.746 60.7117C116.913 59.6644 113.455 59.6748 111.666 60.7019L30.2336 107.481C29.1357 108.112 29.1366 109.679 30.2366 110.308L76.0608 136.461C77.8934 137.506 81.3466 137.5 83.1477 136.467L164.574 89.6912C165.672 89.0607 165.672 87.493 164.572 86.865L118.746 60.7117Z" stroke="black"/>
</g>
<path d="M71.2983 178.485C72.1636 177.988 73.5689 177.985 74.4399 178.482C75.3107 178.98 75.315 179.787 74.4497 180.284C73.5844 180.781 72.174 180.781 71.3032 180.284C70.4325 179.787 70.4331 178.982 71.2983 178.485Z" fill="url(#paint11_linear_369_24287)"/>
<path d="M71.2983 178.485C72.1636 177.988 73.5689 177.985 74.4399 178.482C75.3107 178.98 75.315 179.787 74.4497 180.284C73.5844 180.781 72.174 180.781 71.3032 180.284C70.4325 179.787 70.4331 178.982 71.2983 178.485Z" stroke="black"/>
<path d="M86.14 169.925C87.0053 169.428 88.4106 169.425 89.2816 169.922C90.1524 170.419 90.1566 171.227 89.2914 171.724C88.426 172.221 87.0157 172.221 86.1449 171.724C85.2741 171.227 85.2748 170.422 86.14 169.925Z" fill="url(#paint12_linear_369_24287)"/>
<path d="M86.14 169.925C87.0053 169.428 88.4106 169.425 89.2816 169.922C90.1524 170.419 90.1566 171.227 89.2914 171.724C88.426 172.221 87.0157 172.221 86.1449 171.724C85.2741 171.227 85.2748 170.422 86.14 169.925Z" stroke="black"/>
<path d="M57.291 169.925C58.1563 169.428 59.5616 169.425 60.4326 169.922C61.3034 170.42 61.3077 171.227 60.4424 171.724C59.577 172.221 58.1667 172.221 57.2959 171.724C56.4251 171.227 56.4258 170.422 57.291 169.925Z" fill="url(#paint13_linear_369_24287)"/>
<path d="M57.291 169.925C58.1563 169.428 59.5616 169.425 60.4326 169.922C61.3034 170.42 61.3077 171.227 60.4424 171.724C59.577 172.221 58.1667 172.221 57.2959 171.724C56.4251 171.227 56.4258 170.422 57.291 169.925Z" stroke="black"/>
<path d="M44.2638 177.297C45.1291 176.8 46.5344 176.797 47.4054 177.295C48.2762 177.792 48.2804 178.599 47.4152 179.096C46.5499 179.593 45.1395 179.593 44.2687 179.096C43.3979 178.599 43.3986 177.795 44.2638 177.297Z" fill="url(#paint14_linear_369_24287)"/>
<path d="M44.2638 177.297C45.1291 176.8 46.5344 176.797 47.4054 177.295C48.2762 177.792 48.2804 178.599 47.4152 179.096C46.5499 179.593 45.1395 179.593 44.2687 179.096C43.3979 178.599 43.3986 177.795 44.2638 177.297Z" stroke="black"/>
<path d="M103.2 178.828C104.065 178.331 105.47 178.328 106.341 178.825C107.212 179.323 107.216 180.13 106.351 180.627C105.486 181.124 104.076 181.124 103.205 180.627C102.334 180.13 102.335 179.325 103.2 178.828Z" fill="url(#paint15_linear_369_24287)"/>
<path d="M103.2 178.828C104.065 178.331 105.47 178.328 106.341 178.825C107.212 179.323 107.216 180.13 106.351 180.627C105.486 181.124 104.076 181.124 103.205 180.627C102.334 180.13 102.335 179.325 103.2 178.828Z" stroke="black"/>
<defs>
<linearGradient id="paint0_linear_369_24287" x1="4.30016" y1="84.1888" x2="43.577" y2="84.1888" gradientUnits="userSpaceOnUse">
<stop stop-color="#CFD9F1"/>
<stop offset="0.039" stop-color="#C8D4F0"/>
<stop offset="0.5065" stop-color="#7796E8"/>
<stop offset="0.8378" stop-color="#4470E2"/>
<stop offset="1" stop-color="#3061E0"/>
</linearGradient>
<linearGradient id="paint1_linear_369_24287" x1="4.08873" y1="38.1292" x2="26.4139" y2="90.9552" gradientUnits="userSpaceOnUse">
<stop offset="0.1338" stop-color="#556BFC"/>
<stop offset="0.2477" stop-color="#5267F3"/>
<stop offset="0.4313" stop-color="#4B5CDC"/>
<stop offset="0.6615" stop-color="#404BB5"/>
<stop offset="0.927" stop-color="#303380"/>
<stop offset="1" stop-color="#2B2C70"/>
</linearGradient>
<linearGradient id="paint2_linear_369_24287" x1="20.7234" y1="67.7083" x2="18.9944" y2="67.7083" gradientUnits="userSpaceOnUse">
<stop offset="1.1e-07" stop-color="#0CDDE9"/>
<stop offset="1" stop-color="#0FF0B4"/>
</linearGradient>
<linearGradient id="paint3_linear_369_24287" x1="17.9326" y1="63.0478" x2="16.2035" y2="63.0478" gradientUnits="userSpaceOnUse">
<stop offset="1.1e-07" stop-color="#0CDDE9"/>
<stop offset="1" stop-color="#0FF0B4"/>
</linearGradient>
<linearGradient id="paint4_linear_369_24287" x1="15.1417" y1="63.8186" x2="13.4126" y2="63.8186" gradientUnits="userSpaceOnUse">
<stop offset="1.1e-07" stop-color="#0CDDE9"/>
<stop offset="1" stop-color="#0FF0B4"/>
</linearGradient>
<linearGradient id="paint5_linear_369_24287" x1="12.3539" y1="59.6232" x2="10.6218" y2="59.6232" gradientUnits="userSpaceOnUse">
<stop offset="1.1e-07" stop-color="#0CDDE9"/>
<stop offset="1" stop-color="#0FF0B4"/>
</linearGradient>
<linearGradient id="paint6_linear_369_24287" x1="9.56288" y1="63.0477" x2="7.83387" y2="63.0477" gradientUnits="userSpaceOnUse">
<stop offset="1.1e-07" stop-color="#0CDDE9"/>
<stop offset="1" stop-color="#0FF0B4"/>
</linearGradient>
<linearGradient id="paint7_linear_369_24287" x1="53.607" y1="55.8401" x2="92.8838" y2="55.8401" gradientUnits="userSpaceOnUse">
<stop stop-color="#CFD9F1"/>
<stop offset="0.039" stop-color="#C8D4F0"/>
<stop offset="0.5065" stop-color="#7796E8"/>
<stop offset="0.8378" stop-color="#4470E2"/>
<stop offset="1" stop-color="#3061E0"/>
</linearGradient>
<linearGradient id="paint8_linear_369_24287" x1="71.2233" y1="27.8448" x2="56.4458" y2="27.8448" gradientUnits="userSpaceOnUse">
<stop offset="1.1e-07" stop-color="#0CDDE9"/>
<stop offset="1" stop-color="#0FF0B4"/>
</linearGradient>
<linearGradient id="paint9_linear_369_24287" x1="69.9976" y1="46.6724" x2="57.377" y2="46.6724" gradientUnits="userSpaceOnUse">
<stop offset="4.4e-07" stop-color="#449EFC"/>
<stop offset="1" stop-color="#A251FF"/>
</linearGradient>
<linearGradient id="paint10_linear_369_24287" x1="22.783" y1="118.156" x2="172.026" y2="118.156" gradientUnits="userSpaceOnUse">
<stop stop-color="#CFD9F1"/>
<stop offset="0.039" stop-color="#C8D4F0"/>
<stop offset="0.5065" stop-color="#7796E8"/>
<stop offset="0.8378" stop-color="#4470E2"/>
<stop offset="1" stop-color="#3061E0"/>
</linearGradient>
<linearGradient id="paint11_linear_369_24287" x1="70.6499" y1="179.384" x2="75.0958" y2="179.384" gradientUnits="userSpaceOnUse">
<stop offset="1.1e-07" stop-color="#FF7755"/>
<stop offset="1" stop-color="#FF4400"/>
</linearGradient>
<linearGradient id="paint12_linear_369_24287" x1="85.4916" y1="170.824" x2="89.9375" y2="170.824" gradientUnits="userSpaceOnUse">
<stop offset="1.1e-07" stop-color="#FF7755"/>
<stop offset="1" stop-color="#FF4400"/>
</linearGradient>
<linearGradient id="paint13_linear_369_24287" x1="56.6426" y1="170.824" x2="61.0885" y2="170.824" gradientUnits="userSpaceOnUse">
<stop offset="1.1e-07" stop-color="#FF7755"/>
<stop offset="1" stop-color="#FF4400"/>
</linearGradient>
<linearGradient id="paint14_linear_369_24287" x1="43.6153" y1="178.196" x2="48.0613" y2="178.196" gradientUnits="userSpaceOnUse">
<stop offset="1.1e-07" stop-color="#FF7755"/>
<stop offset="1" stop-color="#FF4400"/>
</linearGradient>
<linearGradient id="paint15_linear_369_24287" x1="102.551" y1="179.727" x2="106.997" y2="179.727" gradientUnits="userSpaceOnUse">
<stop offset="1.1e-07" stop-color="#FF7755"/>
<stop offset="1" stop-color="#FF4400"/>
</linearGradient>
</defs>
</svg>
