<svg width="181" height="168" viewBox="0 0 181 168" fill="none" xmlns="http://www.w3.org/2000/svg">
<path d="M135.436 131.453C135.472 131.453 135.506 131.435 135.526 131.402C135.555 131.353 135.539 131.289 135.489 131.259L112.73 117.645C112.466 117.492 112.322 117.295 112.322 117.09C112.322 116.883 112.47 116.685 112.736 116.531L120.65 111.962C120.7 111.933 120.717 111.869 120.688 111.819C120.659 111.769 120.595 111.753 120.546 111.781L112.632 116.35C112.298 116.543 112.114 116.806 112.114 117.09C112.113 117.372 112.295 117.633 112.624 117.824L135.383 131.438C135.4 131.448 135.418 131.453 135.436 131.453Z" fill="#DD9E4A"/>
<path d="M134.753 132.147C134.001 131.712 133.996 131.007 134.744 130.573C135.492 130.138 136.709 130.138 137.462 130.573C138.214 131.007 138.218 131.712 137.47 132.147C136.722 132.581 135.506 132.581 134.753 132.147Z" fill="white"/>
<path d="M136.114 132.575C136.624 132.575 137.135 132.462 137.523 132.236C137.917 132.007 138.133 131.697 138.133 131.362C138.132 131.025 137.912 130.713 137.514 130.482C136.734 130.032 135.468 130.032 134.691 130.482C134.298 130.711 134.082 131.022 134.082 131.357C134.082 131.694 134.302 132.006 134.701 132.237C135.091 132.462 135.602 132.575 136.114 132.575ZM136.1 130.349C136.574 130.349 137.048 130.454 137.41 130.663C137.741 130.854 137.924 131.103 137.924 131.362C137.925 131.62 137.745 131.866 137.418 132.057C136.699 132.474 135.528 132.474 134.805 132.056C134.474 131.865 134.291 131.616 134.29 131.356C134.29 131.099 134.469 130.852 134.796 130.662C135.155 130.454 135.627 130.349 136.1 130.349Z" fill="#DD9E4A"/>
<path d="M136.103 130.863C136.396 130.863 136.68 130.93 136.882 131.046C137.044 131.14 137.137 131.255 137.137 131.362C137.137 131.467 137.046 131.581 136.887 131.673C136.687 131.789 136.404 131.856 136.111 131.856C135.818 131.856 135.534 131.789 135.333 131.673C135.17 131.579 135.077 131.464 135.077 131.357C135.077 131.252 135.168 131.138 135.327 131.046C135.527 130.93 135.81 130.863 136.103 130.863Z" fill="#22366D"/>
<path d="M128.694 126.684C129.01 126.684 129.315 126.756 129.531 126.881C129.705 126.981 129.805 127.105 129.805 127.22C129.805 127.333 129.707 127.455 129.537 127.554C129.322 127.679 129.018 127.75 128.703 127.75C128.388 127.75 128.084 127.679 127.867 127.554C127.693 127.453 127.593 127.33 127.593 127.215C127.593 127.102 127.691 126.98 127.861 126.88C128.076 126.756 128.38 126.684 128.694 126.684Z" fill="#383C43"/>
<path d="M68.8913 136.056C69.2207 136.056 69.5504 135.971 69.8443 135.802L114.924 109.775C114.974 109.746 114.991 109.682 114.962 109.633C114.933 109.582 114.869 109.566 114.82 109.594L69.7402 135.621C69.2153 135.924 68.5628 135.923 68.0387 135.619L47.3371 123.588C47.2871 123.559 47.2237 123.576 47.1948 123.626C47.1659 123.676 47.1826 123.739 47.2322 123.768L67.9338 135.799C68.2291 135.97 68.5604 136.056 68.8913 136.056Z" fill="#DD9E4A"/>
<path d="M93.048 84.6653C93.0834 84.6653 93.1179 84.6473 93.1374 84.6149C93.1667 84.5653 93.1509 84.5015 93.1016 84.4717L67.9263 69.3672C67.4823 69.1094 67.2071 68.6314 67.2071 68.1195V42.1976C67.2071 42.1403 67.1603 42.0936 67.103 42.0936C67.0456 42.0936 66.9989 42.1403 66.9989 42.1976V68.1195C66.9989 68.7053 67.3136 69.2521 67.8202 69.5465L92.9944 84.6506C93.0114 84.6603 93.0297 84.6653 93.048 84.6653Z" fill="#DD9E4A"/>
<g opacity="0.1">
<path d="M90.7044 94.1598C89.9984 94.5674 89.9986 95.2297 90.7 95.6374L134.202 120.918C134.903 121.325 136.043 121.325 136.749 120.918L142.468 117.616C143.174 117.208 143.178 116.548 142.476 116.141L98.9746 90.8601C98.2732 90.4525 97.1296 90.4503 96.4237 90.8579L90.7044 94.1598Z" fill="#010101"/>
</g>
<path d="M88.6062 90.3808L88.6193 92.9472C88.6193 93.2131 88.7936 93.4745 89.1422 93.6793L132.645 118.964C132.754 119.03 132.876 119.082 133.002 119.126C133.569 119.317 134.279 119.317 134.841 119.121C134.968 119.082 135.085 119.026 135.194 118.964L140.915 115.662C141.268 115.457 141.447 115.187 141.447 114.917L141.438 112.355C141.438 112.62 141.264 112.89 140.902 113.095L135.19 116.394C135.081 116.455 134.968 116.507 134.841 116.551C134.279 116.747 133.569 116.751 133.002 116.559C132.872 116.516 132.75 116.459 132.641 116.394L89.1378 91.1129C88.7892 90.9167 88.6149 90.6466 88.6062 90.3808Z" fill="#BAB9F3"/>
<path d="M133.002 116.559V119.126C133.569 119.317 134.279 119.317 134.841 119.121V116.551C134.279 116.747 133.569 116.751 133.002 116.559Z" fill="#DD9E4A"/>
<path d="M133.92 119.371C134.4 119.371 134.88 119.265 135.246 119.052L140.965 115.751C141.344 115.533 141.552 115.236 141.552 114.915L141.54 112.354C141.54 112.297 141.494 112.25 141.436 112.25C141.436 112.25 141.436 112.25 141.436 112.25C141.378 112.25 141.332 112.297 141.332 112.354C141.332 112.597 141.161 112.827 140.85 113.003L135.136 116.305C134.456 116.697 133.36 116.697 132.692 116.306L89.1891 91.0233C88.8908 90.8538 88.7175 90.6188 88.7122 90.3777C88.711 90.3212 88.6647 90.2761 88.6082 90.2761C88.6077 90.2761 88.6074 90.2761 88.6069 90.2761C88.5496 90.2769 88.5037 90.3237 88.504 90.3806L88.5159 92.9476C88.5159 93.2602 88.7199 93.5525 89.0899 93.77L132.593 119.052C132.959 119.265 133.44 119.371 133.92 119.371ZM141.335 112.878L141.344 114.916C141.344 115.158 141.173 115.391 140.861 115.57L135.142 118.872C134.468 119.264 133.372 119.263 132.698 118.872L89.1953 93.5904C88.8916 93.4119 88.7241 93.1835 88.7241 92.9472L88.7148 90.9035C88.8095 91.0161 88.9343 91.1181 89.0856 91.2039L132.588 116.485C133.313 116.911 134.502 116.91 135.24 116.486L140.953 113.184C141.111 113.095 141.239 112.992 141.335 112.878Z" fill="#383C43"/>
<path d="M89.1408 89.6385C88.4348 90.0461 88.435 90.7085 89.1364 91.1161L132.638 116.397C133.34 116.804 134.479 116.804 135.185 116.397L140.904 113.095C141.61 112.687 141.614 112.027 140.913 111.619L97.4109 86.3389C96.7095 85.9312 95.5659 85.929 94.86 86.3366L89.1408 89.6385Z" fill="white"/>
<path d="M133.91 116.804C134.39 116.804 134.871 116.698 135.237 116.487L140.956 113.185C141.333 112.967 141.54 112.673 141.541 112.354C141.541 112.038 141.336 111.745 140.965 111.529L97.4633 86.2487C96.7323 85.8234 95.5416 85.8226 94.8081 86.2463L89.0891 89.548C88.7142 89.7647 88.5073 90.059 88.5069 90.3773C88.5065 90.6953 88.7114 90.9892 89.0842 91.2059L132.586 116.486C132.95 116.698 133.43 116.804 133.91 116.804ZM96.1339 86.1344C96.5774 86.1344 97.0214 86.2324 97.3584 86.4284L140.86 111.709C141.165 111.886 141.333 112.115 141.332 112.354C141.332 112.595 141.162 112.826 140.852 113.004L135.133 116.306C134.457 116.696 133.361 116.697 132.691 116.306L89.189 91.0261C88.8828 90.848 88.7145 90.6179 88.715 90.3777C88.7154 90.1366 88.8849 89.906 89.1931 89.7284L94.9121 86.4267C95.2492 86.232 95.6915 86.1344 96.1339 86.1344Z" fill="#383C43"/>
<path d="M93.0477 33.067C93.5458 32.7749 94.2355 32.818 94.9971 33.2538L132.628 54.9839C132.978 55.1851 133.308 55.4533 133.615 55.7694C134.386 56.5597 134.99 57.6469 135.234 58.7054C135.315 59.0455 135.358 59.3856 135.358 59.7112L135.272 111.624C135.272 112.491 134.961 113.095 134.472 113.382L137.533 111.61C138.021 111.322 138.328 110.714 138.333 109.847L138.419 57.9296C138.419 57.6086 138.381 57.2734 138.299 56.9333C138.055 55.8748 137.456 54.7924 136.68 53.9973C136.379 53.6812 136.039 53.4082 135.689 53.2071L98.0576 31.4818C97.296 31.0411 96.6064 31.0028 96.1082 31.2854L93.0477 33.067Z" fill="#BAB9F3"/>
<path d="M133.615 55.7694C134.386 56.5597 134.99 57.6469 135.234 58.7054L138.299 56.9333C138.055 55.8748 137.456 54.7923 136.68 53.9973L133.615 55.7694Z" fill="#F1F2F5"/>
<path d="M134.472 113.486C134.49 113.486 134.508 113.481 134.524 113.472L134.525 113.472C134.525 113.472 134.525 113.472 134.525 113.471L137.585 111.7C138.13 111.379 138.432 110.722 138.437 109.848L138.523 57.9294C138.523 57.5919 138.482 57.2484 138.401 56.9089C138.151 55.8291 137.551 54.7411 136.755 53.9243C136.444 53.5991 136.093 53.3194 135.741 53.1165L98.1097 31.3915C97.3433 30.9492 96.6135 30.8789 96.0569 31.1948L93.0024 32.9731C93.0004 32.9743 92.9988 32.9751 92.9971 32.9763L92.9955 32.9771C92.9955 32.9771 92.9955 32.9771 92.9952 32.9771C92.946 33.0064 92.9293 33.0698 92.9581 33.1194C92.9874 33.169 93.0508 33.1861 93.1005 33.1568H93.1008L93.1077 33.1523C93.5908 32.8738 94.2425 32.9413 94.9454 33.3438L132.576 55.074C132.905 55.2635 133.229 55.5216 133.54 55.8416C134.3 56.6197 134.895 57.6992 135.133 58.7289C135.214 59.0664 135.255 59.3961 135.255 59.7108L135.168 111.624C135.168 112.416 134.902 113.008 134.42 113.292C134.37 113.321 134.354 113.384 134.382 113.434C134.402 113.468 134.437 113.486 134.472 113.486ZM96.8249 31.2078C97.1855 31.2078 97.5876 31.3302 98.0055 31.5721L135.637 53.2971C135.973 53.4902 136.307 53.7573 136.605 54.0692C137.365 54.8481 137.96 55.9275 138.198 56.957C138.275 57.2814 138.315 57.6083 138.315 57.9294L138.229 109.847C138.224 110.644 137.958 111.239 137.48 111.52L135.072 112.914C135.271 112.575 135.376 112.137 135.376 111.624L135.463 59.711C135.463 59.3801 135.42 59.0337 135.335 58.6812C135.089 57.6168 134.474 56.5008 133.689 55.6966C133.366 55.3629 133.026 55.0929 132.68 54.8937L95.049 33.1634C94.5981 32.9056 94.1627 32.7751 93.7687 32.7751C93.7647 32.7751 93.7602 32.7756 93.7557 32.7756L96.1605 31.3754C96.3578 31.2635 96.5818 31.2078 96.8249 31.2078Z" fill="#383C43"/>
<path d="M135.344 65.2556C135.362 65.2556 135.38 65.2511 135.396 65.2418L138.457 63.4696C138.507 63.4407 138.523 63.3769 138.495 63.3273C138.466 63.2769 138.402 63.261 138.353 63.2891L135.292 65.0613C135.242 65.0901 135.225 65.154 135.254 65.2035C135.273 65.2369 135.308 65.2556 135.344 65.2556Z" fill="#383C43"/>
<path d="M135.277 109.459C135.295 109.459 135.313 109.455 135.33 109.445L138.39 107.668C138.44 107.64 138.456 107.576 138.427 107.526C138.399 107.477 138.335 107.459 138.285 107.489L135.225 109.265C135.175 109.294 135.158 109.358 135.187 109.408C135.206 109.441 135.241 109.459 135.277 109.459Z" fill="#383C43"/>
<path d="M97.0229 34.5258C97.0408 34.5258 97.0587 34.5214 97.075 34.5116L100.131 32.7398C100.181 32.7113 100.197 32.6475 100.168 32.5979C100.14 32.5475 100.076 32.5304 100.027 32.5601L96.9709 34.3319C96.9209 34.3603 96.9042 34.4242 96.9331 34.4738C96.9521 34.5071 96.9871 34.5258 97.0229 34.5258Z" fill="#383C43"/>
<path d="M92.2475 34.8205C92.2524 33.0841 93.4858 32.3852 94.997 33.2577L132.627 54.9833C134.142 55.8578 135.364 57.9743 135.359 59.7108L135.343 65.143L92.2321 40.2528L92.2475 34.8205Z" fill="#22366D"/>
<path d="M135.344 65.2471C135.361 65.2471 135.379 65.2426 135.396 65.2333C135.428 65.2145 135.448 65.1804 135.448 65.1434L135.463 59.7113C135.468 57.9436 134.219 55.7823 132.679 54.8932L95.0494 33.1674C94.2806 32.7238 93.5533 32.6559 92.9991 32.9742C92.4498 33.2902 92.1462 33.9459 92.1437 34.82L92.1283 40.2524C92.1283 40.2898 92.1482 40.3244 92.1803 40.3431L135.291 65.2333C135.308 65.2426 135.326 65.2471 135.344 65.2471ZM93.7683 32.9849C94.1273 32.9849 94.5278 33.1069 94.9453 33.348L132.575 55.0737C134.058 55.9295 135.26 58.0095 135.255 59.7106L135.24 64.9629L92.3364 40.1928L92.3518 34.8209C92.3542 34.0241 92.621 33.4321 93.1031 33.1549C93.3 33.0414 93.5244 32.9849 93.7683 32.9849Z" fill="#383C43"/>
<path d="M135.344 65.1431L135.271 111.626C135.266 113.367 134.036 114.068 132.521 113.193L94.891 91.4675C93.3799 90.5949 92.1544 88.4765 92.1593 86.7359L92.2324 40.2529L135.344 65.1431Z" fill="white"/>
<path d="M133.752 113.675C134.031 113.675 134.29 113.609 134.518 113.478C135.068 113.161 135.372 112.504 135.374 111.627L135.448 65.143C135.448 65.106 135.428 65.0715 135.395 65.0528L92.2842 40.1628C92.2517 40.144 92.2127 40.144 92.1801 40.1628C92.148 40.1815 92.1281 40.2156 92.1281 40.253L92.0549 86.7358C92.05 88.5052 93.2986 90.6684 94.8386 91.5576L132.469 113.283C132.919 113.544 133.356 113.675 133.752 113.675ZM135.239 65.2032L135.166 111.626C135.164 112.426 134.897 113.019 134.414 113.297C133.929 113.576 133.275 113.508 132.573 113.103L94.9427 91.3771C93.4603 90.5213 92.2581 88.4393 92.2631 86.7362L92.3358 40.4331L135.239 65.2032Z" fill="#383C43"/>
<path d="M131.047 57.5002C130.541 57.208 130.134 57.4399 130.132 58.0214C130.13 58.5979 130.535 59.3034 131.041 59.5956C131.547 59.8877 131.954 59.6508 131.956 59.0742C131.957 58.4927 131.553 57.7923 131.047 57.5002Z" fill="white"/>
<path d="M127.239 55.3021C126.738 55.0125 126.326 55.2419 126.325 55.8234C126.323 56.4 126.732 57.108 127.233 57.3977C127.739 57.6898 128.147 57.4529 128.148 56.8763C128.15 56.2948 127.745 55.5943 127.239 55.3021Z" fill="white"/>
<path d="M123.432 53.1015C122.929 52.8112 122.521 53.0437 122.519 53.6265C122.518 54.2045 122.923 54.9116 123.426 55.202C123.933 55.4949 124.341 55.2574 124.343 54.6794C124.345 54.0965 123.939 53.3944 123.432 53.1015Z" fill="white"/>
<path d="M127.034 88.0554C127.03 87.7066 126.905 87.4602 126.701 87.3578C126.693 87.3464 126.682 87.3427 126.67 87.3389L123.706 85.6289C122.25 84.7873 120.976 82.5847 120.98 80.9127C120.98 80.5601 121.044 80.2568 121.15 80.0825L118.557 78.5092C118.155 79.1726 117.951 79.9763 117.947 80.9013C117.939 83.6499 119.805 86.8799 122.189 88.2561L125.184 89.985V89.9812C125.378 90.1025 125.654 90.0874 125.958 89.913C126.557 89.5718 127.034 88.7378 127.034 88.0554Z" fill="#22366D"/>
<path d="M105.137 75.4152C105.133 75.0664 105.008 74.82 104.803 74.7176C104.796 74.7062 104.784 74.7025 104.773 74.6987L101.808 72.9887C100.353 72.1471 99.0787 69.9444 99.0825 68.2725C99.0825 67.9199 99.1469 67.6166 99.2531 67.4422L96.66 65.8689C96.2582 66.5324 96.0534 67.3361 96.0496 68.2611C96.042 71.0097 97.9072 74.2397 100.292 75.6159L103.287 77.3448V77.341C103.48 77.4623 103.757 77.4472 104.06 77.2728C104.659 76.9316 105.137 76.0976 105.137 75.4152Z" fill="#22366D"/>
<path d="M100.71 75.3309C100.71 75.6722 100.831 75.911 101.028 76.0209L101.062 76.0399L106.328 79.0804C107.166 79.5657 107.955 79.7704 108.656 79.7704C109.934 79.7704 110.938 79.0917 111.5 78.1667C111.042 76.9206 110.173 76.4051 108.906 76.5935C108.705 76.927 107.985 76.5366 107.845 76.4532L102.613 73.4354L102.545 73.3937C102.348 73.2799 102.079 73.2989 101.783 73.4695C101.188 73.8144 100.706 74.6447 100.71 75.3309Z" fill="#22366D"/>
<path d="M110.297 78.9741L116.367 82.5109C117.814 83.3513 120.36 83.35 121.817 82.5089C122.328 82.2138 122.514 81.9199 122.514 81.7941C122.514 81.672 122.334 81.3852 121.836 81.0961L114.262 76.6853L113.506 73.6196C113.741 73.4841 114.002 73.4163 114.264 73.4163C114.527 73.4163 114.791 73.4848 115.026 73.6216L123.36 78.4737C124.752 79.2825 125.548 80.4943 125.547 81.7986C125.545 83.1081 124.738 84.3243 123.333 85.1352C120.946 86.5136 117.217 86.5119 114.844 85.1332L106.51 80.281C106.042 80.0091 105.754 79.5087 105.755 78.9677C105.756 78.4268 106.045 77.9271 106.513 77.6567L110.297 78.9741Z" fill="#DD9E4A"/>
<path d="M119.923 79.9642L113.852 76.4276C112.406 75.5871 109.86 75.5885 108.403 76.4296C107.892 76.7247 107.706 77.0186 107.706 77.1444C107.706 77.2665 107.886 77.5533 108.384 77.8424L115.958 82.2532L116.714 85.3189C116.479 85.4544 116.218 85.5221 115.956 85.5221C115.693 85.5221 115.429 85.4536 115.194 85.3168L106.86 80.4648C105.468 79.656 104.672 78.4443 104.673 77.1399C104.675 75.8304 105.482 74.6142 106.887 73.8033C109.274 72.4249 113.003 72.4266 115.376 73.8053L123.71 78.6574C124.178 78.9294 124.466 79.4297 124.465 79.9708C124.464 80.5117 124.175 81.0113 123.707 81.2818L119.923 79.9642Z" fill="#DD9E4A"/>
<path d="M100.718 67.2898C100.721 67.6386 100.846 67.885 101.051 67.9874C101.059 67.9988 101.07 68.0025 101.081 68.0063L106.351 71.0468C107.807 71.8885 109.081 74.0911 109.077 75.7631C109.077 76.1156 109.013 76.4189 108.906 76.5933L111.499 78.1665C111.901 77.5031 112.106 76.6994 112.11 75.7744C112.117 73.0258 110.252 69.7958 107.868 68.4196L102.568 65.3601V65.3639C102.374 65.2426 102.097 65.2577 101.794 65.4322C101.195 65.7734 100.718 66.6074 100.718 67.2898Z" fill="#22366D"/>
<path d="M105.145 67.3742C105.145 67.033 105.023 66.7942 104.826 66.6842L104.792 66.6652L101.831 64.9552C100.993 64.47 100.205 64.2653 99.5032 64.2653C98.2256 64.2653 97.221 64.9439 96.6599 65.869C97.1173 67.1151 97.9867 67.6306 99.253 67.4423C99.4539 67.1087 100.174 67.4991 100.315 67.5825L103.241 69.2698L103.31 69.3115C103.507 69.4253 103.776 69.4063 104.072 69.2357C104.667 68.8907 105.148 68.0604 105.145 67.3742Z" fill="#22366D"/>
<path d="M122.607 87.9709C122.607 88.3121 122.729 88.5509 122.926 88.6609L122.96 88.6799L128.226 91.7204C129.064 92.2056 129.852 92.4104 130.554 92.4104C131.831 92.4104 132.836 91.7317 133.397 90.8067C132.94 89.5606 132.07 89.045 130.804 89.2334C130.603 89.567 129.883 89.1766 129.742 89.0932L124.511 86.0754L124.442 86.0337C124.245 85.92 123.976 85.9389 123.68 86.1096C123.085 86.4544 122.604 87.2847 122.607 87.9709Z" fill="#22366D"/>
<path d="M122.615 79.9299C122.619 80.2787 122.744 80.5251 122.949 80.6275C122.956 80.6389 122.968 80.6426 122.979 80.6464L128.249 83.6869C129.704 84.5285 130.978 86.7312 130.974 88.4031C130.974 88.7557 130.91 89.059 130.804 89.2334L133.397 90.8066C133.799 90.1432 134.003 89.3395 134.007 88.4145C134.015 85.6659 132.15 82.4359 129.765 81.0596L124.465 78.0002V78.004C124.272 77.8827 123.995 77.8978 123.692 78.0722C123.093 78.4134 122.615 79.2475 122.615 79.9299Z" fill="#22366D"/>
<path d="M117.946 80.902C117.946 81.4292 118.015 81.971 118.139 82.5164C119.022 82.0547 120 81.7456 121.051 81.6328C121.004 81.3856 120.978 81.1456 120.978 80.9129C120.978 80.5602 121.044 80.2584 121.149 80.0838C121.349 79.7493 122.073 80.1384 122.211 80.222L125.138 81.9092L125.207 81.9528C125.404 82.0655 125.673 82.0474 125.967 81.8764C126.564 81.531 127.044 80.702 127.04 80.0147C127.04 79.6729 126.92 79.4329 126.724 79.3238L126.687 79.3057L123.727 77.5967C122.891 77.1094 122.102 76.9058 121.4 76.9058C120.124 76.9058 119.117 77.5857 118.557 78.5093C118.157 79.1711 117.95 79.9747 117.946 80.902Z" fill="#22366D"/>
<path d="M132.587 67.4752C132.794 67.595 132.962 67.4994 132.963 67.2622C132.964 67.0237 132.797 66.7348 132.589 66.615L120.063 59.4254C119.856 59.3062 119.687 59.4013 119.687 59.6397C119.686 59.877 119.854 60.1665 120.06 60.2857L132.587 67.4752Z" fill="#DD9E4A"/>
<path d="M132.587 70.2323C132.794 70.3521 132.962 70.2564 132.963 70.0192C132.964 69.7807 132.797 69.4919 132.589 69.3721L120.063 62.1824C119.856 62.0633 119.687 62.1583 119.687 62.3968C119.686 62.634 119.854 62.9235 120.06 63.0427L132.587 70.2323Z" fill="#DD9E4A"/>
<path d="M132.587 72.9893C132.794 73.1091 132.962 73.0135 132.963 72.7763C132.964 72.5378 132.797 72.2489 132.589 72.1291L120.063 64.9395C119.856 64.8203 119.687 64.9154 119.687 65.1538C119.686 65.3911 119.854 65.6806 120.06 65.7998L132.587 72.9893Z" fill="#DD9E4A"/>
<path d="M132.587 75.7463C132.794 75.8661 132.962 75.7705 132.963 75.5333C132.964 75.2948 132.797 75.0059 132.589 74.8861L120.063 67.6965C119.856 67.5773 119.687 67.6724 119.687 67.9108C119.686 68.148 119.854 68.4375 120.06 68.5567L132.587 75.7463Z" fill="#DD9E4A"/>
<path d="M108.949 87.4886C109.157 87.6084 109.325 87.5127 109.326 87.2755C109.326 87.037 109.16 86.7482 108.952 86.6284L96.4257 79.4388C96.2191 79.3196 96.0501 79.4146 96.0494 79.6531C96.0488 79.8904 96.2166 80.1798 96.4232 80.299L108.949 87.4886Z" fill="#DD9E4A"/>
<path d="M108.949 90.2457C109.157 90.3655 109.325 90.2698 109.326 90.0326C109.326 89.7941 109.16 89.5053 108.952 89.3854L96.4257 82.1958C96.2191 82.0767 96.0501 82.1717 96.0494 82.4102C96.0488 82.6474 96.2166 82.9369 96.4232 83.0561L108.949 90.2457Z" fill="#DD9E4A"/>
<path d="M108.949 93.0027C109.157 93.1225 109.325 93.0269 109.326 92.7897C109.326 92.5512 109.16 92.2623 108.952 92.1425L96.4257 84.9529C96.2191 84.8337 96.0501 84.9288 96.0494 85.1672C96.0488 85.4045 96.2166 85.694 96.4232 85.8132L108.949 93.0027Z" fill="#DD9E4A"/>
<path d="M108.949 95.7597C109.157 95.8795 109.325 95.7839 109.326 95.5467C109.326 95.3082 109.16 95.0193 108.952 94.8995L96.4257 87.7099C96.2191 87.5907 96.0501 87.6858 96.0494 87.9243C96.0488 88.1615 96.2166 88.451 96.4232 88.5702L108.949 95.7597Z" fill="#DD9E4A"/>
<g opacity="0.1">
<path d="M51.889 98.2765L67.3552 107.206L51.889 98.2765L36.4228 107.206L51.889 116.135L67.3552 107.206L51.889 98.2765Z" fill="#383C43"/>
</g>
<path d="M36.4229 87.6153V105.387L51.8892 114.317V96.5447L36.4229 87.6153Z" fill="#BAB9F3"/>
<path d="M51.889 114.421C51.9069 114.421 51.9248 114.416 51.9411 114.407C51.9732 114.388 51.9932 114.354 51.9932 114.317V96.5445C51.9932 96.5075 51.9733 96.473 51.9411 96.4543L36.4747 87.525C36.4422 87.5063 36.4032 87.5063 36.3707 87.525C36.3386 87.5437 36.3186 87.5782 36.3186 87.6153V105.387C36.3186 105.424 36.3385 105.459 36.3707 105.477L51.837 114.407C51.8533 114.416 51.8712 114.421 51.889 114.421ZM51.785 96.6047V114.136L36.5267 105.327V87.7953L51.785 96.6047Z" fill="#383C43"/>
<path d="M67.3552 87.6154V105.387L51.8891 114.317V96.5447L67.3552 87.6154Z" fill="#F1F2F5"/>
<path d="M51.8889 114.421C51.9068 114.421 51.9247 114.416 51.941 114.407L67.4069 105.478C67.439 105.459 67.459 105.424 67.459 105.387V87.6154C67.459 87.5784 67.4391 87.5439 67.4069 87.5252C67.3744 87.5064 67.3354 87.5064 67.3029 87.5252L51.8369 96.4544C51.8048 96.4731 51.7849 96.5077 51.7849 96.5447V114.317C51.7849 114.354 51.8048 114.388 51.8369 114.407C51.8532 114.416 51.8711 114.421 51.8889 114.421ZM67.2508 105.327L51.9931 114.136V96.6048L67.2508 87.7954V105.327Z" fill="#383C43"/>
<path d="M51.889 78.6858L67.3552 87.6152L51.889 78.6858L36.4228 87.6152L51.889 96.5446L67.3552 87.6152L51.889 78.6858Z" fill="#F1F2F5"/>
<path d="M51.8889 96.6487C51.9068 96.6487 51.9247 96.6442 51.941 96.6348L67.4053 87.7064C67.4215 87.6974 67.4354 87.6844 67.4452 87.6674C67.4545 87.6512 67.459 87.6328 67.459 87.6153C67.459 87.6092 67.4585 87.6036 67.4574 87.5979C67.4566 87.5918 67.4549 87.5857 67.4529 87.5799C67.4529 87.5799 67.4529 87.5799 67.4529 87.5795C67.4529 87.5795 67.4529 87.5795 67.4525 87.5795C67.4448 87.5575 67.4293 87.5384 67.4078 87.5254H67.4074L67.407 87.525L51.9411 78.5958C51.9406 78.5958 51.9406 78.5958 51.9403 78.5953C51.9399 78.5953 51.9399 78.5953 51.9399 78.5953C51.9187 78.5831 51.8939 78.5786 51.8708 78.5836H51.8703C51.8646 78.5848 51.8593 78.586 51.8541 78.588C51.8476 78.5905 51.8411 78.5933 51.8354 78.597L36.3706 87.5251C36.3385 87.5438 36.3186 87.5783 36.3186 87.6153C36.3186 87.6523 36.3385 87.6869 36.3706 87.7056L51.837 96.6348C51.8532 96.6442 51.8711 96.6487 51.8889 96.6487ZM67.1467 87.6153L51.8889 96.4243L36.6308 87.6153L51.8889 78.8064L67.1467 87.6153Z" fill="#383C43"/>
<path d="M62.2241 87.6155L51.889 81.6483L41.5534 87.6155L51.889 93.5826L62.2241 87.6155Z" fill="#BAB9F3"/>
<path d="M59.8943 103.306C60.8897 102.732 61.6974 103.192 61.7007 104.346C61.7039 105.49 60.9015 106.889 59.9062 107.464C58.902 108.044 58.0944 107.574 58.0911 106.43C58.0879 105.276 58.8902 103.886 59.8943 103.306Z" fill="#383C43"/>
<path d="M59.0933 107.818C59.3609 107.818 59.6548 107.729 59.9581 107.555C60.9798 106.964 61.808 105.525 61.8047 104.345C61.8031 103.75 61.5961 103.304 61.2225 103.088C60.8493 102.873 60.359 102.918 59.8422 103.216C58.7982 103.819 57.9834 105.231 57.9867 106.43C57.9883 107.022 58.1956 107.468 58.5701 107.683C58.7266 107.773 58.9031 107.818 59.0933 107.818ZM60.7017 103.163C60.855 103.163 60.9956 103.198 61.1188 103.269C61.4254 103.445 61.5949 103.828 61.5965 104.346C61.5998 105.459 60.818 106.817 59.854 107.374C59.4015 107.636 58.9827 107.681 58.6742 107.503C58.3664 107.326 58.1965 106.944 58.1949 106.429C58.1916 105.316 58.9775 103.956 59.9463 103.397C60.2154 103.241 60.4724 103.163 60.7017 103.163Z" fill="#383C43"/>
<path d="M58.6951 106.026C58.6951 106.392 58.8254 106.649 59.037 106.767L59.0737 106.787L64.7277 110.052C65.6273 110.573 66.474 110.792 67.2271 110.792C68.5989 110.792 69.6775 110.064 70.28 109.071C69.7889 107.733 68.8554 107.179 67.4957 107.381C67.28 107.74 66.5066 107.32 66.356 107.231L60.7386 103.991L60.6653 103.946C60.4536 103.824 60.1646 103.844 59.8471 104.027C59.208 104.398 58.691 105.289 58.6951 106.026Z" fill="#22366D"/>
<path d="M68.9886 109.938L75.5064 113.735C77.0591 114.637 79.7928 114.636 81.3575 113.733C81.906 113.416 82.1056 113.1 82.1056 112.965C82.1059 112.834 81.9124 112.526 81.3781 112.216L73.2452 107.48L72.4339 104.188C72.6859 104.043 72.9669 103.97 73.248 103.97C73.5306 103.97 73.8132 104.044 74.0661 104.191L83.0143 109.4C84.5086 110.269 85.364 111.57 85.3621 112.97C85.3601 114.376 84.4939 115.682 82.9857 116.553C80.4229 118.033 76.4187 118.031 73.8702 116.551L64.922 111.341C64.4199 111.049 64.111 110.512 64.1118 109.931C64.1126 109.35 64.4227 108.813 64.9259 108.523L68.9886 109.938Z" fill="#DD9E4A"/>
<path d="M79.3237 111.001L72.8059 107.203C71.2532 106.301 68.5195 106.302 66.9549 107.205C66.4063 107.522 66.2067 107.838 66.2067 107.973C66.2064 108.104 66.3999 108.412 66.9342 108.722L75.0671 113.458L75.8784 116.75C75.6264 116.895 75.3453 116.968 75.0643 116.968C74.7816 116.968 74.499 116.895 74.2462 116.748L65.298 111.538C63.8038 110.67 62.9483 109.368 62.9503 107.968C62.9523 106.562 63.8184 105.256 65.3266 104.385C67.8894 102.905 71.8936 102.907 74.4421 104.388L83.3903 109.597C83.8923 109.889 84.2012 110.427 84.2004 111.008C84.1996 111.588 83.8896 112.125 83.3863 112.415L79.3237 111.001Z" fill="#BAB9F3"/>
<path d="M59.8941 94.6026C60.8895 94.0279 61.6971 94.4881 61.7004 95.6418C61.7037 96.7859 60.9012 98.1856 59.9059 98.7603C58.9018 99.34 58.0942 98.8698 58.0909 97.7258C58.0876 96.572 58.89 95.1824 59.8941 94.6026Z" fill="#383C43"/>
<path d="M59.0931 99.1135C59.3606 99.1135 59.6546 99.0253 59.9579 98.8505C60.9795 98.2602 61.8077 96.821 61.8044 95.6415C61.8028 95.0459 61.5959 94.5995 61.2223 94.3844C60.8478 94.169 60.3588 94.2145 59.842 94.5125C58.7979 95.1155 57.9832 96.527 57.9864 97.7264C57.9881 98.3188 58.1954 98.7635 58.5698 98.979C58.7264 99.0688 58.9028 99.1135 59.0931 99.1135ZM60.7014 94.4588C60.8547 94.4588 60.9953 94.4942 61.1181 94.5649C61.4251 94.7414 61.5946 95.1239 61.5962 95.6423C61.5995 96.755 60.8177 98.1134 59.8537 98.6699C59.4012 98.9317 58.9821 98.9769 58.6735 98.7983C58.3661 98.6215 58.1962 98.2406 58.1946 97.7255C58.1913 96.6127 58.9772 95.2524 59.946 94.6929C60.2152 94.5377 60.4725 94.4588 60.7014 94.4588Z" fill="#383C43"/>
<path d="M58.703 97.3922C58.7071 97.7667 58.8414 98.0313 59.0612 98.1412C59.0693 98.1534 59.0815 98.1574 59.0937 98.1615L64.7518 101.426C66.3149 102.33 67.6827 104.695 67.6786 106.49C67.6786 106.869 67.6094 107.194 67.4954 107.381L70.2797 109.071C70.7112 108.358 70.9309 107.495 70.935 106.502C70.9432 103.551 68.9404 100.083 66.3801 98.6052L60.6894 95.3203V95.3244C60.4818 95.1942 60.1846 95.2104 59.859 95.3977C59.2158 95.7639 58.703 96.6594 58.703 97.3922Z" fill="#22366D"/>
<g opacity="0.1">
<path d="M89.4935 119.824L104.96 128.753L89.4935 119.824L74.0274 128.753L89.4935 137.682L104.96 128.753L89.4935 119.824Z" fill="#383C43"/>
</g>
<path d="M74.0275 109.326V127.098L89.4937 136.027V118.256L74.0275 109.326Z" fill="#BAB9F3"/>
<path d="M89.4933 136.132C89.5112 136.132 89.5291 136.127 89.5454 136.118C89.5775 136.099 89.5974 136.065 89.5974 136.028V118.256C89.5974 118.219 89.5775 118.184 89.5454 118.166L74.0794 109.236C74.0469 109.218 74.0079 109.218 73.9754 109.236C73.9433 109.255 73.9233 109.289 73.9233 109.327V127.098C73.9233 127.135 73.9432 127.17 73.9754 127.189L89.4413 136.118C89.4575 136.127 89.4754 136.132 89.4933 136.132ZM89.3892 118.316V135.848L74.1314 127.038V109.507L89.3892 118.316Z" fill="#383C43"/>
<path d="M104.96 109.326V127.098L89.4935 136.027V118.256L104.96 109.326Z" fill="#F1F2F5"/>
<path d="M89.4935 136.132C89.5114 136.132 89.5293 136.127 89.5455 136.118L105.012 127.189C105.044 127.17 105.064 127.135 105.064 127.098V109.327C105.064 109.289 105.044 109.255 105.012 109.236C104.979 109.218 104.94 109.218 104.908 109.236L89.4415 118.166C89.4094 118.184 89.3894 118.219 89.3894 118.256V136.028C89.3894 136.065 89.4093 136.099 89.4415 136.118C89.4576 136.127 89.4756 136.132 89.4935 136.132ZM104.856 127.038L89.5975 135.848V118.316L104.856 109.507V127.038Z" fill="#383C43"/>
<path d="M89.4935 100.397L104.96 109.326L89.4935 100.397L74.0274 109.326L89.4935 118.256L104.96 109.326L89.4935 100.397Z" fill="#F1F2F5"/>
<path d="M89.4935 118.36C89.5114 118.36 89.5292 118.355 89.5455 118.346L105.01 109.417C105.027 109.409 105.04 109.396 105.05 109.378C105.059 109.362 105.064 109.344 105.064 109.326C105.064 109.317 105.063 109.308 105.06 109.3C105.06 109.3 105.06 109.3 105.06 109.299C105.053 109.274 105.037 109.251 105.013 109.237H105.012L105.012 109.236L89.5455 100.306C89.5227 100.293 89.4959 100.291 89.4723 100.295C89.4719 100.295 89.4719 100.295 89.4719 100.295C89.4719 100.295 89.4719 100.295 89.4719 100.295C89.4715 100.295 89.4715 100.295 89.4715 100.295C89.4679 100.296 89.4642 100.297 89.4605 100.298C89.4532 100.3 89.4463 100.304 89.4398 100.308L73.9755 109.236C73.9434 109.255 73.9234 109.289 73.9234 109.326C73.9234 109.363 73.9433 109.398 73.9755 109.417L89.4414 118.346C89.4576 118.355 89.4756 118.36 89.4935 118.36ZM104.752 109.326L89.4934 118.135L74.2356 109.326L89.4934 100.517L104.752 109.326Z" fill="#383C43"/>
<path d="M99.8289 109.326L89.4933 103.359L79.1582 109.326L89.4933 115.294L99.8289 109.326Z" fill="#BAB9F3"/>
<path d="M41.96 65.9056L40.3005 64.9392L40.2928 62.2125L41.9522 63.1789L41.96 65.9056Z" fill="#383C43"/>
<path d="M41.9602 66.0098C41.9781 66.0098 41.9959 66.0053 42.0122 65.996C42.0443 65.9772 42.0642 65.9427 42.0642 65.9053L42.0565 63.1785C42.0565 63.1414 42.0366 63.1073 42.0049 63.089L40.3453 62.1226C40.3132 62.1043 40.2737 62.1031 40.2408 62.1222C40.2087 62.1409 40.1887 62.1754 40.1887 62.2129L40.1964 64.9397C40.1964 64.9767 40.2163 65.0108 40.248 65.0291L41.9077 65.9955C41.924 66.0049 41.9419 66.0098 41.9602 66.0098ZM41.8484 63.2387L41.8556 65.7244L40.4046 64.8795L40.3973 62.3938L41.8484 63.2387Z" fill="#383C43"/>
<path d="M63.5322 32.176C63.2583 32.0147 62.8757 32.0365 62.4583 32.2805L41.1979 44.5811C40.3587 45.0648 39.6848 46.2413 39.6892 47.1998L39.7326 62.716C39.7326 63.1953 39.9022 63.5309 40.1761 63.6922L38.5161 62.7246C38.2422 62.5634 38.0726 62.2279 38.0726 61.7486L38.0291 46.2367C38.0248 45.2737 38.7031 44.0972 39.5378 43.6137L60.7983 31.3131C61.2157 31.0691 61.5983 31.0472 61.8722 31.2085L63.5322 32.176Z" fill="#F1F2F5"/>
<path d="M40.1761 63.7961C40.2119 63.7961 40.2464 63.7778 40.266 63.7445C40.2948 63.6952 40.2786 63.6314 40.229 63.6021H40.2285C39.976 63.4533 39.837 63.1386 39.837 62.7162L39.7935 47.1995C39.7891 46.2709 40.4428 45.137 41.2502 44.6715L62.5105 32.371C62.8752 32.1572 63.2264 32.119 63.4765 32.2637L63.4794 32.2653C63.4794 32.2653 63.4798 32.2653 63.4798 32.2657H63.4802C63.5306 32.2946 63.5933 32.2779 63.6226 32.2283C63.6514 32.1788 63.6347 32.1153 63.5855 32.0861C63.5835 32.0853 63.5819 32.084 63.5803 32.0832L61.9251 31.1189C61.6088 30.9318 61.1787 30.9704 60.7461 31.2234L39.4859 43.5234C38.6207 44.0251 37.921 45.2424 37.9255 46.2373L37.969 61.7491C37.969 62.248 38.1446 62.6265 38.4634 62.8143L40.1238 63.782C40.1403 63.7917 40.1582 63.7961 40.1761 63.7961ZM62.9886 31.9795C62.802 32.0039 62.604 32.0751 62.406 32.1909L41.1462 44.491C40.2811 44.9899 39.5809 46.2055 39.5854 47.2004L39.6289 62.7167C39.6289 62.9428 39.6651 63.144 39.7338 63.3139L38.5686 62.635C38.3161 62.4862 38.1771 62.1711 38.1771 61.7487L38.1336 46.2364C38.1291 45.3078 38.7824 44.1718 39.5899 43.7035L60.8506 31.4034C61.2165 31.1896 61.5694 31.1506 61.8198 31.2986L62.9886 31.9795Z" fill="#383C43"/>
<path d="M62.4569 32.2792C63.2924 31.7958 63.972 32.1871 63.9747 33.1493L64.0185 48.6629C64.0213 49.6251 63.3462 50.8002 62.5106 51.2836L44.6866 61.5968L41.96 65.9057L41.9523 63.1789L41.2501 63.5853C40.4145 64.0687 39.735 63.6774 39.7323 62.7153L39.6884 47.2017C39.6856 46.2395 40.3607 45.0644 41.1963 44.5809L62.4569 32.2792Z" fill="#22366D"/>
<path d="M41.9602 66.0099C41.9951 66.0099 42.0288 65.9921 42.048 65.9615L44.7609 61.6743L62.5626 51.3741C63.4257 50.874 64.1254 49.6576 64.1225 48.6623L64.0786 33.1488C64.0774 32.6451 63.9005 32.2661 63.5806 32.0824C63.2595 31.8974 62.8415 31.9368 62.4049 32.1889L41.1442 44.4906C40.2815 44.9898 39.5817 46.2058 39.5842 47.2019L39.6281 62.7154C39.6297 63.2196 39.8066 63.5985 40.1265 63.7826C40.4469 63.9672 40.8644 63.9282 41.3023 63.6757L41.8487 63.359L41.856 65.9061C41.856 65.9525 41.8869 65.9927 41.9312 66.0057C41.9411 66.0087 41.9504 66.0099 41.9602 66.0099ZM63.1335 32.1756C63.2595 32.1756 63.3754 32.2044 63.4766 32.2626C63.7294 32.4082 63.8693 32.7232 63.8705 33.1497L63.9144 48.6632C63.9173 49.5922 63.2639 50.7273 62.4585 51.1936L44.6345 61.5069C44.6199 61.5154 44.6077 61.5272 44.5988 61.5415L42.0635 65.5485L42.0566 63.1786C42.0566 63.1416 42.0367 63.1075 42.0045 63.0888C41.972 63.0701 41.9322 63.0701 41.9005 63.0888L41.1983 63.4954C40.8271 63.7101 40.484 63.7471 40.2307 63.6023C39.9774 63.4568 39.8376 63.1417 39.8363 62.7148L39.7924 47.2013C39.79 46.2719 40.4433 45.1368 41.2483 44.6713L62.509 32.3696C62.7314 32.2406 62.944 32.1756 63.1335 32.1756Z" fill="#383C43"/>
<path d="M53.4929 44.6189C53.8371 44.4197 54.1156 44.5788 54.1167 44.9752C54.1178 45.3715 53.8411 45.855 53.4969 46.0542L44.519 51.249C44.1748 51.4481 43.8935 51.2875 43.8925 50.8911C43.8914 50.4947 44.1708 50.0128 44.515 49.8136L53.4929 44.6189Z" fill="white"/>
<path d="M48.2145 51.4478C48.5588 51.2486 48.8373 51.4078 48.8384 51.8041C48.8395 52.2005 48.5628 52.6839 48.2186 52.8831L44.5193 55.0235C44.1751 55.2227 43.8938 55.0621 43.8928 54.6657C43.8916 54.2693 44.1711 53.7874 44.5153 53.5882L48.2145 51.4478Z" fill="white"/>
<path d="M75.7463 38.5647C75.4725 38.4034 75.0898 38.4252 74.6681 38.6692L53.412 50.9698C52.5772 51.4534 51.8989 52.6256 51.8989 53.5885L51.9424 69.1047C51.9468 69.584 52.112 69.9196 52.3859 70.0764L50.7258 69.1089C50.4563 68.9521 50.2867 68.6166 50.2824 68.1372L50.2389 52.6211C50.2389 51.658 50.9172 50.4859 51.7519 50.0022L73.008 37.7017C73.4298 37.4578 73.8124 37.4359 74.0862 37.5972L75.7463 38.5647Z" fill="#F1F2F5"/>
<path d="M52.3859 70.1804C52.4217 70.1804 52.4566 70.1616 52.4761 70.1283C52.5046 70.0787 52.488 70.0153 52.4383 69.9864L52.4294 69.9811C52.1858 69.8364 52.0501 69.5254 52.0464 69.1037L52.0029 53.5878C52.0029 52.6608 52.6583 51.5266 53.4637 51.0594L74.7198 38.7593C75.0926 38.5434 75.4358 38.5065 75.687 38.6508L75.6936 38.6545C75.7436 38.6833 75.807 38.6667 75.8358 38.6171C75.8647 38.5679 75.8485 38.5041 75.7988 38.4748C75.7964 38.4735 75.794 38.4719 75.7915 38.4707L74.1384 37.5072C73.8184 37.3185 73.3981 37.356 72.9557 37.6113L51.6995 49.9118C50.8364 50.4123 50.1347 51.6275 50.1347 52.6211L50.1782 68.1375C50.1822 68.6391 50.3583 69.016 50.6737 69.1986L52.3236 70.1605C52.3272 70.1626 52.3305 70.1646 52.3341 70.1666C52.3506 70.1759 52.3684 70.1804 52.3859 70.1804ZM75.1992 38.3663C75.0143 38.3915 74.8175 38.4626 74.6158 38.5789L53.3596 50.8794C52.4965 51.3799 51.7948 52.5947 51.7948 53.5883L51.8383 69.1051C51.8403 69.3303 51.8765 69.5299 51.9439 69.6982L50.7783 69.0188C50.5291 68.8741 50.39 68.5611 50.3864 68.1362L50.3429 52.6206C50.3429 51.6932 50.9983 50.5589 51.8037 50.0918L73.0599 37.7917C73.436 37.5738 73.7807 37.538 74.0332 37.6864L75.1992 38.3663Z" fill="#383C43"/>
<path d="M74.6682 38.6695C75.5037 38.186 76.186 38.5725 76.1887 39.5347L76.2327 55.0515C76.2354 56.0138 75.5575 57.1872 74.722 57.6708L74.0224 58.0755L74.0301 60.8023L71.2854 59.6591L53.4642 69.9708C52.6287 70.4542 51.9464 70.0677 51.9437 69.1055L51.8997 53.5888C51.897 52.6265 52.5749 51.4531 53.4105 50.9696L74.6682 38.6695Z" fill="white"/>
<path d="M52.7836 70.284C53.0109 70.284 53.2601 70.2091 53.5162 70.0608L71.2931 59.7748L73.9902 60.8981C74.0219 60.9124 74.0593 60.9079 74.0878 60.8888C74.1171 60.8693 74.1342 60.8367 74.1342 60.8018L74.1264 58.1352L74.7741 57.7607C75.6389 57.2602 76.3398 56.0446 76.3369 55.051L76.293 39.5342C76.2914 39.0321 76.1149 38.6548 75.7958 38.4714C75.4746 38.2869 75.0554 38.3255 74.6164 38.5792L53.3585 50.8792C52.4938 51.3797 51.7929 52.5953 51.7957 53.5889L51.8396 69.1058C51.8413 69.6079 52.0177 69.9856 52.3369 70.1689C52.4705 70.2458 52.6214 70.284 52.7836 70.284ZM71.2853 59.5548C71.2674 59.5548 71.2491 59.5597 71.2332 59.5686L53.4121 69.8803C53.0397 70.0957 52.6949 70.1344 52.4404 69.9884C52.1884 69.8436 52.0489 69.5298 52.0477 69.1049L52.0037 53.5881C52.0009 52.6607 52.6555 51.5265 53.4625 51.0598L74.7203 38.7597C75.0923 38.5438 75.4374 38.5052 75.692 38.6519C75.944 38.7967 76.0835 39.1101 76.0847 39.535L76.1286 55.0517C76.1315 55.9791 75.4769 57.1134 74.6699 57.5801L73.9702 57.9851C73.9377 58.0038 73.9182 58.0383 73.9182 58.0758L73.9255 60.646L71.3252 59.5629C71.3125 59.5577 71.2987 59.5548 71.2853 59.5548Z" fill="#383C43"/>
<path d="M71.8947 47.0246C72.2846 46.7995 72.6001 46.9793 72.6013 47.4272C72.6026 47.8751 72.2892 48.4215 71.8993 48.6466L55.1727 58.303C54.7828 58.528 54.4642 58.3465 54.4629 57.8986C54.4616 57.4506 54.7782 56.906 55.1681 56.6809L71.8947 47.0246Z" fill="#DD9E4A"/>
<path d="M66.3532 54.4894C66.7431 54.2643 67.0586 54.4441 67.0598 54.8921C67.0611 55.34 66.7477 55.8864 66.3578 56.1114L55.1728 62.5686C54.7829 62.7937 54.4643 62.6122 54.463 62.1642C54.4617 61.7163 54.7783 61.1716 55.1682 60.9466L66.3532 54.4894Z" fill="white"/>
<path d="M54.8563 62.7699C54.9717 62.7699 55.0969 62.7325 55.225 62.6589L66.4103 56.2019C66.8343 55.9568 67.1652 55.3814 67.1641 54.8916C67.1633 54.637 67.0714 54.4443 66.9055 54.3488C66.738 54.2532 66.5233 54.2707 66.3013 54.3992L55.1164 60.8562C54.6903 61.1025 54.3578 61.677 54.359 62.1645C54.3598 62.4194 54.4524 62.6125 54.6195 62.7085C54.6908 62.7496 54.7709 62.7699 54.8563 62.7699ZM66.6697 54.4964C66.7189 54.4964 66.7632 54.5074 66.8018 54.5293C66.9006 54.5862 66.9555 54.7151 66.9559 54.8924C66.9571 55.3075 66.6656 55.8141 66.3062 56.0214L55.1209 62.4784C54.9652 62.5686 54.8245 62.5853 54.7233 62.5279C54.6233 62.4706 54.568 62.3413 54.5671 62.1637C54.5659 61.751 54.8591 61.2452 55.2205 61.0367L66.4054 54.5797C66.5013 54.5244 66.5912 54.4964 66.6697 54.4964Z" fill="#383C43"/>
<path d="M48.8427 122.883C49.5953 123.318 49.5996 124.023 48.8518 124.457C48.104 124.892 46.8869 124.892 46.1342 124.457C45.3816 124.023 45.3779 123.318 46.1257 122.883C46.8735 122.449 48.09 122.449 48.8427 122.883Z" fill="white"/>
<path d="M47.4952 124.885C48.0062 124.885 48.5164 124.773 48.9043 124.547C49.2979 124.318 49.5146 124.008 49.5142 123.673C49.5134 123.336 49.2934 123.023 48.8946 122.793C48.1143 122.343 46.8495 122.342 46.0734 122.794C45.6795 123.023 45.4628 123.333 45.4632 123.668C45.4636 124.005 45.6835 124.317 46.0823 124.548C46.4727 124.773 46.9845 124.885 47.4952 124.885ZM47.483 122.66C47.9558 122.66 48.4295 122.765 48.7905 122.973C49.1222 123.165 49.3056 123.413 49.306 123.673C49.3065 123.931 49.1263 124.177 48.7994 124.367C48.0823 124.785 46.9101 124.785 46.1865 124.367C45.8547 124.176 45.6718 123.927 45.6714 123.668C45.6709 123.41 45.8511 123.164 46.1783 122.973C46.5373 122.765 47.0097 122.66 47.483 122.66Z" fill="#DD9E4A"/>
<path d="M47.4929 124.167C47.1995 124.167 46.9155 124.1 46.7137 123.983C46.5517 123.89 46.4587 123.775 46.4586 123.668C46.4584 123.563 46.5496 123.449 46.7087 123.357C46.9087 123.24 47.1916 123.174 47.4847 123.174C47.7778 123.174 48.0616 123.24 48.2632 123.357C48.4253 123.45 48.5184 123.565 48.5186 123.672C48.5187 123.778 48.4276 123.891 48.2686 123.984C48.0687 124.1 47.786 124.167 47.4929 124.167Z" fill="#22366D"/>
<path d="M54.1192 127.938C53.8041 127.938 53.4991 127.866 53.2824 127.741C53.1085 127.641 53.0086 127.518 53.0084 127.403C53.0083 127.29 53.1062 127.168 53.277 127.068C53.4919 126.943 53.7956 126.872 54.1104 126.872C54.4253 126.872 54.73 126.944 54.9465 127.069C55.1206 127.169 55.2205 127.293 55.2207 127.407C55.2208 127.521 55.123 127.643 54.9524 127.742C54.7376 127.867 54.434 127.938 54.1192 127.938Z" fill="#383C43"/>
<path d="M73.0391 134.134C72.724 134.134 72.419 134.062 72.2024 133.937C72.0284 133.836 71.9285 133.713 71.9284 133.598C71.9282 133.485 72.0261 133.363 72.197 133.264C72.4118 133.139 72.7155 133.067 73.0303 133.067C73.3452 133.067 73.6499 133.139 73.8664 133.264C74.0405 133.365 74.1404 133.488 74.1406 133.603C74.1407 133.716 74.043 133.838 73.8723 133.937C73.6576 134.062 73.3539 134.134 73.0391 134.134Z" fill="#383C43"/>
<path d="M110.017 113.009C109.702 113.009 109.397 112.937 109.18 112.812C109.006 112.712 108.906 112.588 108.906 112.474C108.906 112.36 109.004 112.238 109.175 112.139C109.39 112.014 109.693 111.943 110.008 111.943C110.323 111.943 110.628 112.014 110.844 112.139C111.018 112.24 111.118 112.363 111.118 112.478C111.119 112.592 111.021 112.713 110.85 112.813C110.635 112.937 110.332 113.009 110.017 113.009Z" fill="#383C43"/>
<path d="M79.1893 76.7186C78.8741 76.7186 78.5692 76.6469 78.3525 76.5218C78.1785 76.4214 78.0787 76.298 78.0785 76.1833C78.0784 76.07 78.1762 75.9481 78.3471 75.8488C78.562 75.7239 78.8657 75.6523 79.1804 75.6523C79.4953 75.6523 79.8001 75.7241 80.0165 75.849C80.1906 75.9496 80.2906 76.0731 80.2908 76.1879C80.2909 76.3013 80.1931 76.4231 80.0224 76.5223C79.8077 76.647 79.504 76.7186 79.1893 76.7186Z" fill="#383C43"/>
</svg>
