<svg width="192" height="192" viewBox="0 0 192 192" fill="none" xmlns="http://www.w3.org/2000/svg">
<path d="M159.852 140.955C159.788 140.955 159.725 140.919 159.69 140.854C159.639 140.758 159.669 140.634 159.758 140.577L188.98 122.222C189.261 122.046 189.428 121.732 189.427 121.381C189.427 121.031 189.259 120.717 188.978 120.542L159.557 102.182C159.467 102.126 159.437 102.002 159.488 101.906C159.54 101.809 159.655 101.776 159.744 101.832L189.165 120.192C189.563 120.44 189.8 120.884 189.801 121.381C189.802 121.877 189.566 122.322 189.169 122.572L159.946 140.928C159.916 140.946 159.884 140.955 159.852 140.955Z" fill="#DBDEE4"/>
<path d="M162.083 142.076C163.436 141.231 163.444 139.861 162.099 139.017C160.755 138.172 158.567 138.173 157.213 139.017C155.86 139.862 155.853 141.231 157.198 142.076C158.542 142.92 160.73 142.921 162.083 142.076Z" fill="white"/>
<path d="M159.637 142.908C158.719 142.908 157.801 142.689 157.103 142.251C156.396 141.806 156.006 141.202 156.007 140.551C156.008 139.896 156.403 139.29 157.119 138.842C158.523 137.966 160.799 137.967 162.194 138.842C162.902 139.286 163.29 139.89 163.29 140.541C163.289 141.196 162.893 141.803 162.176 142.251C161.475 142.689 160.556 142.908 159.637 142.908ZM159.66 138.584C158.809 138.584 157.957 138.787 157.307 139.192C156.71 139.565 156.382 140.047 156.381 140.552C156.38 141.052 156.704 141.531 157.292 141.9C158.583 142.712 160.689 142.711 161.989 141.901C162.586 141.528 162.915 141.045 162.915 140.54C162.916 140.039 162.593 139.561 162.005 139.192C161.36 138.787 160.51 138.584 159.66 138.584Z" fill="#DBDEE4"/>
<path d="M159.656 139.582C159.128 139.582 158.618 139.711 158.255 139.938C157.964 140.12 157.797 140.343 157.796 140.55C157.796 140.755 157.96 140.976 158.246 141.156C158.606 141.382 159.114 141.511 159.641 141.511C160.168 141.511 160.679 141.382 161.041 141.155C161.333 140.974 161.5 140.75 161.5 140.542C161.5 140.337 161.337 140.117 161.051 139.937C160.691 139.711 160.183 139.582 159.656 139.582Z" fill="#FF1FC7"/>
<path d="M171.57 132.252C171.003 132.252 170.455 132.392 170.065 132.635C169.752 132.83 169.573 133.07 169.572 133.293C169.572 133.513 169.748 133.75 170.055 133.943C170.442 134.185 170.988 134.325 171.554 134.324C172.12 134.324 172.668 134.185 173.057 133.942C173.37 133.747 173.55 133.507 173.55 133.284C173.55 133.063 173.374 132.827 173.067 132.634C172.682 132.391 172.136 132.252 171.57 132.252Z" fill="#373B42"/>
<path d="M29.3526 188.658C28.74 188.658 28.1272 188.487 27.5804 188.146L1.1771 171.669C1.08787 171.614 1.05721 171.49 1.10837 171.393C1.16095 171.296 1.27582 171.264 1.36428 171.319L27.7676 187.796C28.7487 188.408 29.9667 188.406 30.9448 187.791L57.1683 171.319C57.2575 171.263 57.3723 171.295 57.4242 171.392C57.4761 171.489 57.4461 171.613 57.3569 171.669L31.1334 188.141C30.5844 188.485 29.9689 188.658 29.3526 188.658Z" fill="#DBDEE4"/>
<path d="M6.07593 171.454C7.42919 172.298 7.43694 173.668 6.0924 174.513C4.74786 175.357 2.55957 175.357 1.20619 174.512C-0.147183 173.668 -0.153727 172.298 1.19081 171.454C2.53546 170.609 4.72266 170.609 6.07593 171.454Z" fill="white"/>
<path d="M3.65326 175.345C2.73425 175.345 1.81457 175.126 1.11274 174.688C0.39553 174.241 0.000764692 173.633 1.12015e-06 172.978C-0.000762452 172.328 0.388875 171.724 1.0966 171.279C2.49142 170.403 4.7673 170.403 6.16944 171.279C6.88665 171.726 7.28219 172.334 7.28284 172.989C7.2836 173.64 6.89396 174.243 6.18624 174.688C5.48899 175.126 4.57151 175.345 3.65326 175.345ZM3.63057 171.021C2.78039 171.021 1.93086 171.223 1.28531 171.629C0.696817 171.998 0.373716 172.477 0.37437 172.978C0.375134 173.482 0.703359 173.965 1.29993 174.338C2.59833 175.148 4.70677 175.149 5.99775 174.338C6.58624 173.969 6.90935 173.49 6.90869 172.989C6.90793 172.484 6.57894 172.001 5.98237 171.629C5.33322 171.223 4.48151 171.021 3.63057 171.021Z" fill="#DBDEE4"/>
<path d="M3.64916 173.948C3.12154 173.948 2.61092 173.818 2.24823 173.592C1.95698 173.41 1.78976 173.187 1.78943 172.979C1.78921 172.774 1.95305 172.554 2.23906 172.374C2.59882 172.148 3.10724 172.018 3.63422 172.018C4.1613 172.018 4.67159 172.148 5.03396 172.374C5.32553 172.556 5.49286 172.78 5.49308 172.988C5.4933 173.193 5.32956 173.413 5.04377 173.593C4.68456 173.819 4.17614 173.948 3.64916 173.948Z" fill="#FF1FC7"/>
<path d="M15.563 181.277C14.9964 181.277 14.448 181.138 14.0584 180.895C13.7456 180.7 13.566 180.46 13.5657 180.237C13.5653 180.017 13.7414 179.78 14.0486 179.587C14.4348 179.344 14.981 179.205 15.5469 179.205C16.1131 179.205 16.661 179.344 17.0502 179.587C17.3632 179.783 17.543 180.023 17.5432 180.246C17.5434 180.466 17.3676 180.703 17.0606 180.896C16.6749 181.138 16.129 181.277 15.563 181.277Z" fill="#373B42"/>
<path d="M117.511 187.912C117.479 187.912 117.447 187.903 117.417 187.885L68.6535 157.255C68.5643 157.199 68.5344 157.075 68.5862 156.978C68.6374 156.881 68.7515 156.849 68.8421 156.905L117.605 187.535C117.694 187.591 117.724 187.715 117.673 187.811C117.638 187.876 117.575 187.912 117.511 187.912Z" fill="#DBDEE4"/>
<path d="M115.222 189.239C113.869 188.395 113.861 187.025 115.206 186.18C116.55 185.336 118.739 185.336 120.092 186.18C121.445 187.025 121.452 188.394 120.107 189.239C118.763 190.083 116.575 190.084 115.222 189.239Z" fill="white"/>
<path d="M117.668 190.071C116.75 190.071 115.83 189.852 115.129 189.414C114.412 188.967 114.016 188.36 114.015 187.705C114.014 187.054 114.404 186.45 115.111 186.005C116.507 185.129 118.783 185.13 120.186 186.006C120.902 186.453 121.298 187.06 121.299 187.714C121.299 188.366 120.91 188.969 120.202 189.414C119.504 189.852 118.586 190.071 117.668 190.071ZM117.645 185.747C116.794 185.747 115.945 185.95 115.3 186.355C114.712 186.724 114.389 187.203 114.389 187.704C114.39 188.209 114.72 188.692 115.316 189.064C116.617 189.875 118.723 189.875 120.013 189.064C120.602 188.695 120.925 188.215 120.924 187.715C120.923 187.211 120.595 186.728 119.999 186.356C119.348 185.95 118.496 185.747 117.645 185.747Z" fill="#DBDEE4"/>
<path d="M117.649 186.745C118.177 186.745 118.687 186.875 119.05 187.101C119.341 187.283 119.508 187.506 119.509 187.714C119.509 187.919 119.345 188.139 119.059 188.319C118.699 188.545 118.191 188.675 117.664 188.675C117.137 188.675 116.627 188.545 116.264 188.319C115.973 188.137 115.805 187.913 115.805 187.705C115.805 187.5 115.969 187.28 116.254 187.1C116.614 186.874 117.122 186.745 117.649 186.745Z" fill="#FF1FC7"/>
<path d="M105.735 179.415C106.302 179.415 106.85 179.555 107.24 179.798C107.553 179.993 107.732 180.233 107.732 180.456C107.733 180.676 107.557 180.913 107.25 181.106C106.863 181.349 106.317 181.488 105.751 181.488C105.185 181.488 104.637 181.348 104.248 181.105C103.935 180.91 103.755 180.67 103.755 180.447C103.755 180.227 103.93 179.99 104.237 179.797C104.623 179.555 105.169 179.415 105.735 179.415Z" fill="#373B42"/>
<path d="M126.075 173.677C125.695 173.677 125.316 173.572 124.976 173.36L102.75 159.49C102.661 159.435 102.631 159.311 102.682 159.214C102.734 159.117 102.849 159.084 102.938 159.14L125.164 173.01C125.729 173.363 126.428 173.36 126.99 173.007L149.067 159.14C149.157 159.084 149.271 159.116 149.323 159.214C149.375 159.31 149.345 159.434 149.255 159.49L127.179 173.357C126.838 173.571 126.456 173.677 126.075 173.677Z" fill="#DBDEE4"/>
<path d="M145.306 158.698C143.953 159.542 143.945 160.912 145.289 161.757C146.634 162.601 148.822 162.601 150.176 161.756C151.529 160.912 151.536 159.542 150.191 158.698C148.847 157.854 146.659 157.853 145.306 158.698Z" fill="white"/>
<path d="M147.729 162.589C146.81 162.589 145.892 162.369 145.195 161.932C144.487 161.487 144.098 160.884 144.099 160.233C144.1 159.578 144.495 158.97 145.212 158.523C146.614 157.647 148.89 157.648 150.285 158.523C150.993 158.968 151.383 159.572 151.382 160.223C151.381 160.877 150.986 161.484 150.269 161.931C149.567 162.369 148.648 162.589 147.729 162.589ZM147.751 158.265C146.901 158.265 146.049 158.467 145.399 158.873C144.803 159.245 144.474 159.728 144.473 160.233C144.472 160.734 144.796 161.213 145.383 161.582C146.673 162.392 148.782 162.393 150.082 161.581C150.678 161.209 151.007 160.726 151.007 160.222C151.008 159.721 150.685 159.242 150.097 158.873C149.452 158.467 148.601 158.265 147.751 158.265Z" fill="#DBDEE4"/>
<path d="M147.733 161.192C148.26 161.192 148.771 161.062 149.134 160.836C149.425 160.654 149.592 160.431 149.593 160.223C149.593 160.018 149.429 159.798 149.143 159.618C148.783 159.392 148.275 159.262 147.748 159.262C147.221 159.262 146.711 159.392 146.348 159.618C146.056 159.8 145.889 160.024 145.889 160.232C145.889 160.437 146.052 160.657 146.338 160.837C146.698 161.063 147.206 161.192 147.733 161.192Z" fill="#FF1FC7"/>
<path d="M135.819 168.522C136.386 168.522 136.934 168.382 137.323 168.139C137.636 167.944 137.816 167.704 137.816 167.481C137.816 167.261 137.64 167.024 137.333 166.831C136.947 166.588 136.401 166.449 135.835 166.449C135.269 166.449 134.721 166.588 134.332 166.831C134.018 167.027 133.839 167.267 133.839 167.49C133.838 167.71 134.014 167.947 134.321 168.14C134.707 168.382 135.253 168.522 135.819 168.522Z" fill="#373B42"/>
<path d="M93.3658 133.687C93.3015 133.687 93.2386 133.651 93.2043 133.587C93.1524 133.49 93.1824 133.366 93.2716 133.31L142.035 102.68C142.124 102.624 142.239 102.656 142.291 102.754C142.343 102.85 142.313 102.974 142.223 103.03L93.4602 133.66C93.4301 133.679 93.3979 133.687 93.3658 133.687Z" fill="#DBDEE4"/>
<path d="M111.969 120.853C111.402 120.853 110.854 120.992 110.464 121.235C110.151 121.431 109.972 121.67 109.971 121.893C109.971 122.113 110.147 122.35 110.454 122.543C110.841 122.786 111.387 122.925 111.953 122.925C112.519 122.925 113.067 122.786 113.456 122.543C113.769 122.348 113.949 122.107 113.949 121.884C113.949 121.664 113.773 121.427 113.466 121.234C113.081 120.992 112.535 120.853 111.969 120.853Z" fill="#373B42"/>
<path d="M75.1473 51.5036C74.6144 51.1649 73.8778 51.2071 73.0551 51.7238L11.637 90.0574C11.6291 90.0659 11.6213 90.0659 11.6134 90.0744C10.7671 90.6079 10.0148 91.5227 9.48991 92.5729C9.01191 93.5215 8.70626 94.5718 8.71412 95.5287V96.0116L8.83945 151.56C8.83945 152.552 9.16866 153.254 9.69367 153.585L5.14093 150.73C4.62377 150.4 4.29467 149.697 4.29467 148.698L4.16138 93.2928V92.6661C4.16138 91.709 4.45928 90.6672 4.93717 89.7187C5.47003 88.6769 6.21451 87.7537 7.04506 87.22C7.06076 87.2118 7.06862 87.2031 7.08422 87.1948L68.5103 48.861C69.3251 48.3529 70.0617 48.3106 70.5946 48.641L75.1473 51.5036Z" fill="#BEC4CD"/>
<path d="M9.69338 153.787C9.6612 153.787 9.62902 153.779 9.59979 153.76L5.04737 150.905C4.44055 150.518 4.1072 149.734 4.1072 148.698L3.97412 92.6662C3.97412 91.7259 4.25773 90.6451 4.77249 89.6219C5.35226 88.4901 6.12499 87.5756 6.94965 87.0466C6.95402 87.0438 6.99645 87.0166 7.00081 87.0142L68.4165 48.686C69.2609 48.1591 70.068 48.0808 70.6873 48.4656L75.2287 51.321C75.2338 51.3237 75.2382 51.3266 75.2425 51.3297C75.331 51.3862 75.361 51.5099 75.3091 51.6063C75.2564 51.7023 75.1424 51.7343 75.0532 51.679L75.0415 51.6715C74.545 51.3626 73.8732 51.4432 73.1495 51.899L11.7308 90.2327C10.9135 90.7498 10.1846 91.6095 9.65455 92.6691C9.16183 93.6477 8.89425 94.6625 8.90156 95.5269V96.012L9.02656 151.56C9.02656 152.444 9.29709 153.101 9.78763 153.411C9.87686 153.467 9.90675 153.59 9.85482 153.687C9.82057 153.751 9.75774 153.787 9.69338 153.787ZM69.8225 48.6297C69.4518 48.6297 69.0365 48.766 68.6038 49.0362L7.17785 87.3699C7.1749 87.3722 7.13247 87.3991 7.12887 87.4011C6.37217 87.8874 5.64776 88.7474 5.10094 89.8165C4.61618 90.78 4.34871 91.7921 4.34871 92.666V93.2929L4.48179 148.697C4.48179 149.585 4.75013 150.245 5.2363 150.556L8.86829 152.834C8.72648 152.474 8.65264 152.045 8.65264 151.56L8.52763 95.5286C8.51956 94.5982 8.80327 93.5134 9.32599 92.4761C9.88667 91.3541 10.6645 90.4403 11.5148 89.9023C11.5251 89.8947 11.5353 89.8885 11.5441 89.8841L72.9619 51.5488C73.3656 51.2947 73.7603 51.1438 74.1294 51.0973L70.5004 48.8158C70.2998 48.6913 70.0711 48.6297 69.8225 48.6297Z" fill="#373B42"/>
<path d="M11.6133 90.0744C10.767 90.6079 10.0147 91.5227 9.48978 92.5729C9.01179 93.5215 8.70614 94.5718 8.714 95.5287V96.0116C8.70614 96.0456 8.69829 96.0879 8.69043 96.1218L4.16125 93.2929V92.6662C4.16125 91.7091 4.45916 90.6673 4.93704 89.7188C5.46991 88.677 6.21439 87.7538 7.04494 87.2202L11.6133 90.0744Z" fill="#F0F2F5"/>
<g opacity="0.1">
<path d="M11.7806 163.148C10.1628 164.158 10.1542 165.798 11.7615 166.808L50.6629 191.243C52.2701 192.252 54.8905 192.252 56.5081 191.243L117.934 152.91C119.557 151.898 119.561 150.26 117.954 149.251L79.0522 124.815C77.445 123.806 74.8291 123.803 73.2069 124.815L11.7806 163.148Z" fill="black"/>
</g>
<path d="M11.7808 153.369C10.163 154.378 10.1543 156.019 11.7617 157.028L50.663 181.464C52.2702 182.473 54.8906 182.473 56.5083 181.464L117.935 143.131C119.557 142.119 119.561 140.481 117.954 139.472L79.0523 115.036C77.4451 114.027 74.8292 114.024 73.207 115.036L11.7808 153.369Z" fill="white"/>
<path d="M53.5816 182.42C52.4893 182.42 51.3979 182.159 50.5688 181.639L11.6671 157.204C10.8322 156.679 10.3731 155.969 10.3746 155.204C10.3754 154.435 10.8418 153.721 11.6869 153.194L73.1136 114.861C74.7819 113.82 77.4883 113.82 79.1464 114.861L118.048 139.297C118.884 139.822 119.343 140.532 119.342 141.296C119.341 142.064 118.874 142.778 118.028 143.306L56.6016 181.639C55.7674 182.159 54.6738 182.42 53.5816 182.42ZM11.874 153.544C11.1494 153.996 10.7496 154.586 10.7489 155.205C10.7481 155.819 11.1407 156.405 11.8557 156.854L50.7574 181.289C52.3116 182.265 54.8485 182.265 56.4144 181.289L117.841 142.956C118.567 142.503 118.967 141.913 118.968 141.295C118.968 140.681 118.575 140.096 117.859 139.647L78.9578 115.211C77.4036 114.235 74.8667 114.235 73.3008 115.211L11.874 153.544Z" fill="#373B42"/>
<path d="M57.1604 131.673C56.7873 131.906 56.7886 132.282 57.1559 132.513L60.7438 134.766C61.1145 134.999 61.712 134.999 62.0851 134.766L66.2951 132.139C66.6681 131.906 66.67 131.532 66.2994 131.3L62.7115 129.046C62.3442 128.815 61.7434 128.813 61.3704 129.046L57.1604 131.673Z" fill="#DBDEE4"/>
<path d="M64.8111 126.899C64.4381 127.131 64.4394 127.508 64.8066 127.738L68.3946 129.992C68.7652 130.225 69.3628 130.225 69.7358 129.992L73.9458 127.365C74.3189 127.132 74.3209 126.758 73.9502 126.525L70.3623 124.272C69.995 124.041 69.3942 124.039 69.0211 124.272L64.8111 126.899Z" fill="#DBDEE4"/>
<path d="M79.4382 126.507C79.0651 126.739 79.0664 127.116 79.4337 127.346L83.0216 129.6C83.3923 129.833 83.9899 129.833 84.3629 129.6L88.5729 126.973C88.946 126.74 88.9479 126.366 88.5773 126.133L84.9894 123.879C84.6221 123.649 84.0211 123.646 83.6482 123.879L79.4382 126.507Z" fill="#DBDEE4"/>
<path d="M72.4616 122.124C72.0886 122.357 72.0899 122.733 72.4572 122.964L76.0451 125.218C76.4157 125.451 77.0133 125.451 77.3863 125.218L81.5964 122.591C81.9694 122.358 81.9714 121.984 81.6007 121.751L78.0128 119.497C77.6455 119.266 77.0446 119.264 76.6716 119.497L72.4616 122.124Z" fill="#DBDEE4"/>
<path d="M71.7875 131.281C71.4145 131.514 71.4158 131.89 71.7832 132.121L75.3711 134.374C75.7417 134.607 76.3394 134.607 76.7124 134.374L80.9224 131.747C81.2954 131.514 81.2974 131.14 80.9267 130.907L77.3388 128.654C76.9715 128.423 76.3707 128.421 75.9977 128.654L71.7875 131.281Z" fill="#DBDEE4"/>
<path d="M71.1133 140.437C70.7402 140.67 70.7417 141.046 71.1089 141.277L74.6969 143.531C75.0641 143.761 75.665 143.763 76.038 143.531L80.248 140.903C80.6211 140.671 80.6198 140.294 80.2525 140.064L76.6646 137.81C76.2973 137.579 75.6964 137.577 75.3233 137.81L71.1133 140.437Z" fill="#DBDEE4"/>
<path d="M64.1369 136.055C63.7638 136.288 63.7652 136.664 64.1325 136.895L67.7205 139.149C68.0911 139.381 68.6887 139.381 69.0617 139.149L73.2717 136.521C73.6448 136.289 73.6468 135.915 73.2761 135.682L69.6882 133.428C69.3209 133.197 68.7201 133.195 68.347 133.428L64.1369 136.055Z" fill="#DBDEE4"/>
<path d="M26.5546 150.772C26.1849 151.003 26.1828 151.381 26.5501 151.612L30.138 153.866C30.5087 154.099 31.1096 154.096 31.4793 153.866L35.6927 151.236C36.0658 151.004 36.0676 150.63 35.6971 150.397L32.1092 148.143C31.7419 147.912 31.141 147.91 30.768 148.143L26.5546 150.772Z" fill="#DBDEE4"/>
<path d="M18.9041 155.547C18.5344 155.777 18.5323 156.156 18.8996 156.386L22.4875 158.64C22.8582 158.873 23.4591 158.871 23.8288 158.64L28.0422 156.011C28.4152 155.778 28.4172 155.404 28.0465 155.171L24.4586 152.917C24.0914 152.687 23.4905 152.685 23.1175 152.917L18.9041 155.547Z" fill="#DBDEE4"/>
<path d="M33.5313 155.154C33.1616 155.385 33.1595 155.763 33.5269 155.994L37.1148 158.248C37.4855 158.481 38.0864 158.479 38.4561 158.248L42.6695 155.619C43.0425 155.386 43.0444 155.012 42.6738 154.779L39.0859 152.525C38.7186 152.294 38.1178 152.292 37.7448 152.525L33.5313 155.154Z" fill="#DBDEE4"/>
<path d="M25.8805 159.929C25.5108 160.159 25.5088 160.538 25.8761 160.768L29.464 163.022C29.8346 163.255 30.4356 163.253 30.8052 163.022L35.0186 160.393C35.3917 160.16 35.3937 159.786 35.023 159.553L31.4351 157.299C31.0678 157.069 30.467 157.067 30.0939 157.299L25.8805 159.929Z" fill="#DBDEE4"/>
<path d="M34.2052 145.998C33.8356 146.229 33.8335 146.607 34.2008 146.838L37.7887 149.091C38.1593 149.324 38.7603 149.322 39.1299 149.091L43.3433 146.462C43.7164 146.229 43.7184 145.855 43.3477 145.622L39.7598 143.369C39.3925 143.138 38.7916 143.136 38.4186 143.369L34.2052 145.998Z" fill="#DBDEE4"/>
<path d="M32.8568 164.311C32.4871 164.542 32.4852 164.92 32.8524 165.151L36.4403 167.404C36.8076 167.635 37.4118 167.635 37.7815 167.404L41.9949 164.775C42.3679 164.542 42.3666 164.166 41.9994 163.935L38.4115 161.682C38.0442 161.451 37.4432 161.449 37.0702 161.682L32.8568 164.311Z" fill="#DBDEE4"/>
<path d="M40.5073 159.537C40.1376 159.767 40.1357 160.146 40.5029 160.376L44.0908 162.63C44.4581 162.861 45.0623 162.861 45.432 162.63L49.6454 160.001C50.0185 159.768 50.0172 159.392 49.6499 159.161L46.062 156.907C45.6947 156.677 45.0938 156.674 44.7207 156.907L40.5073 159.537Z" fill="#DBDEE4"/>
<path d="M48.1579 154.762C47.7883 154.993 47.7863 155.371 48.1536 155.602L51.7415 157.856C52.1088 158.086 52.713 158.086 53.0826 157.856L72.5973 145.678C72.9703 145.445 72.969 145.069 72.6016 144.838L69.0137 142.584C68.6464 142.354 68.0455 142.351 67.6724 142.584L48.1579 154.762Z" fill="#DBDEE4"/>
<path d="M48.8321 145.606C48.4624 145.837 48.4603 146.215 48.8277 146.446L52.4156 148.699C52.7863 148.932 53.3872 148.93 53.7569 148.699L57.9703 146.07C58.3433 145.837 58.3453 145.463 57.9746 145.23L54.3867 142.977C54.0194 142.746 53.4185 142.744 53.0455 142.977L48.8321 145.606Z" fill="#DBDEE4"/>
<path d="M41.1813 150.38C40.8116 150.611 40.8095 150.989 41.1769 151.22L44.7648 153.474C45.1355 153.706 45.7364 153.704 46.1061 153.474L50.3195 150.844C50.6926 150.612 50.6945 150.237 50.3239 150.005L46.736 147.751C46.3687 147.52 45.7678 147.518 45.3948 147.751L41.1813 150.38Z" fill="#DBDEE4"/>
<path d="M56.4863 140.829C56.1132 141.062 56.1145 141.438 56.4818 141.669L60.0697 143.923C60.4404 144.156 61.0379 144.156 61.411 143.923L65.621 141.296C65.9941 141.063 65.996 140.689 65.6254 140.456L62.0375 138.202C61.6702 137.972 61.0692 137.97 60.6963 138.202L56.4863 140.829Z" fill="#DBDEE4"/>
<path d="M49.5097 136.447C49.1367 136.68 49.138 137.056 49.5052 137.287L53.0932 139.541C53.4638 139.774 54.0614 139.774 54.4344 139.541L58.6444 136.914C59.0175 136.681 59.0194 136.307 58.6488 136.074L55.0609 133.82C54.6936 133.589 54.0927 133.587 53.7197 133.82L49.5097 136.447Z" fill="#DBDEE4"/>
<path d="M41.8559 141.224C41.4862 141.454 41.4841 141.833 41.8514 142.063L45.4393 144.317C45.81 144.55 46.4109 144.548 46.7806 144.317L50.994 141.688C51.367 141.455 51.369 141.081 50.9983 140.848L47.4104 138.594C47.0431 138.364 46.4422 138.362 46.0693 138.594L41.8559 141.224Z" fill="#DBDEE4"/>
<path d="M86.4146 130.889C86.0415 131.121 86.0429 131.498 86.4102 131.728L89.9981 133.982C90.3654 134.213 90.9663 134.215 91.3393 133.982L95.5493 131.355C95.9224 131.122 95.921 130.746 95.5538 130.515L91.9659 128.261C91.5986 128.031 90.9976 128.029 90.6246 128.261L86.4146 130.889Z" fill="#DBDEE4"/>
<path d="M78.7641 135.663C78.391 135.896 78.3924 136.272 78.7597 136.503L82.3476 138.756C82.7149 138.987 83.3158 138.989 83.6888 138.756L87.8988 136.129C88.2718 135.896 88.2705 135.52 87.9032 135.289L84.3153 133.036C83.9481 132.805 83.3471 132.803 82.9741 133.036L78.7641 135.663Z" fill="#DBDEE4"/>
<path d="M11.6342 90.0546C10.0164 91.0641 8.70622 93.517 8.71156 95.5262L8.83908 151.557C8.84432 153.566 10.1631 154.378 11.7808 153.369L73.2071 115.036C74.8292 114.024 76.1349 111.574 76.1297 109.565L76.0022 53.5341C75.9969 51.5249 74.6826 50.7099 73.0605 51.7221L11.6342 90.0546Z" fill="#373B42"/>
<path d="M10.4659 154.007C10.1538 154.007 9.86349 153.927 9.60617 153.767C8.9928 153.386 8.65432 152.601 8.65138 151.558L8.52418 95.5266C8.51906 93.4542 9.87233 90.9206 11.5406 89.8796L72.9666 51.5471C73.8139 51.0178 74.6202 50.9392 75.235 51.3219C75.8476 51.7032 76.1861 52.4886 76.1891 53.5335L76.3162 109.564C76.3221 111.637 74.9696 114.17 73.3006 115.211L11.8739 153.544C11.3813 153.852 10.9024 154.007 10.4659 154.007ZM11.7278 90.2297C10.1626 91.2063 8.89343 93.5817 8.89855 95.5258L9.02574 151.557C9.02793 152.45 9.30063 153.11 9.7927 153.416C10.2884 153.726 10.9616 153.646 11.6869 153.194L73.1136 114.861C74.6788 113.885 75.948 111.509 75.9421 109.566L75.8149 53.5343C75.8127 52.6398 75.54 51.9786 75.048 51.6728C74.5523 51.3631 73.8797 51.4436 73.1538 51.8971L11.7278 90.2297Z" fill="#373B42"/>
<path d="M20.6138 145.256L66.9875 116.127C68.1583 116.858 69.1043 118.63 69.1005 120.085L22.7267 149.214C22.7304 147.759 21.7844 145.987 20.6138 145.256Z" fill="white"/>
<path d="M22.7263 149.416C22.6941 149.416 22.6619 149.407 22.6327 149.389C22.575 149.353 22.5391 149.286 22.5391 149.214C22.5428 147.825 21.637 146.129 20.5199 145.431C20.4622 145.395 20.4263 145.328 20.4263 145.256C20.4263 145.184 20.4614 145.117 20.5191 145.081L66.8931 115.952C66.9516 115.916 67.0225 115.916 67.0809 115.952C68.3011 116.714 69.2909 118.568 69.2873 120.086C69.2873 120.157 69.2516 120.224 69.1945 120.26L22.8205 149.389C22.7913 149.407 22.7583 149.416 22.7263 149.416ZM20.9709 145.265C21.9791 146.045 22.7796 147.543 22.8981 148.872L68.9117 119.97C68.8678 118.643 68.0299 117.073 66.986 116.363L20.9709 145.265Z" fill="#373B42"/>
<path d="M20.6133 145.256C21.7841 145.987 22.73 147.759 22.7262 149.214L20.6064 147.891L20.6133 145.256Z" fill="white"/>
<path d="M22.7263 149.416C22.6942 149.416 22.662 149.407 22.6327 149.389L20.5134 148.066C20.4557 148.03 20.4198 147.963 20.4198 147.891L20.4263 145.256C20.4263 145.183 20.4621 145.117 20.5199 145.081C20.5784 145.045 20.6487 145.045 20.7071 145.081C21.9273 145.843 22.9171 147.698 22.9135 149.215C22.9135 149.287 22.8777 149.354 22.8199 149.389C22.7906 149.407 22.7584 149.416 22.7263 149.416ZM20.7941 147.775L22.5208 148.852C22.3988 147.665 21.6925 146.342 20.7998 145.63L20.7941 147.775Z" fill="#373B42"/>
<path d="M10.4667 149.516C10.1853 149.516 10.1621 148.887 10.1614 148.695L10.0336 95.5223C10.0297 94.0234 11.0865 92.0465 12.2951 91.2922L73.7215 52.9598C74.0739 52.7401 74.2973 52.7162 74.3767 52.7162C74.6634 52.7162 74.6795 53.4008 74.6802 53.5379L74.8074 106.711C74.8113 108.21 73.7544 110.187 72.5459 110.941L11.1195 149.273C10.7689 149.492 10.5462 149.516 10.4667 149.516Z" fill="white"/>
<path d="M10.467 149.718C10.1519 149.718 9.97646 149.355 9.97428 148.696L9.84632 95.5227C9.84261 93.9615 10.9429 91.9029 12.2018 91.117L73.6278 52.7849C74.005 52.549 74.2595 52.5138 74.3772 52.5138C74.6857 52.5138 74.8641 52.8867 74.8677 53.5367L74.9949 106.711C74.9986 108.272 73.8983 110.33 72.6394 111.116L11.2134 149.448C10.8369 149.683 10.5839 149.718 10.467 149.718ZM74.3728 52.9168C74.3268 52.9183 74.1367 52.9342 73.815 53.1349L12.389 91.4671C11.2302 92.1908 10.217 94.0855 10.2207 95.5219L10.3486 148.695C10.3501 149.081 10.4261 149.287 10.4671 149.313C10.5175 149.313 10.7061 149.298 11.0264 149.098L72.4523 110.766C73.6111 110.043 74.6244 108.148 74.6207 106.711L74.4935 53.5383C74.4912 53.1863 74.421 52.9472 74.3728 52.9168Z" fill="#373B42"/>
<path d="M74.8094 106.713C74.8094 108.21 73.7547 110.189 72.5481 110.938L11.1194 149.274C10.7679 149.489 10.5476 149.518 10.4687 149.518C10.1856 149.518 10.1592 148.888 10.1592 148.696L10.0491 100.862L10.0335 95.5199C10.0281 94.0227 11.088 92.0436 12.2948 91.2893L73.7235 52.9589C74.075 52.7378 74.2953 52.715 74.374 52.715C74.6625 52.715 74.6783 53.4012 74.6783 53.5373L74.6994 60.5183L74.8094 106.713Z" fill="white"/>
<path d="M10.4691 149.72C10.1533 149.72 9.97198 149.347 9.97198 148.696L9.84621 95.5207C9.84108 93.9607 10.9414 91.9021 12.2017 91.1147L73.6299 52.7842C74.0049 52.5479 74.2571 52.5128 74.3741 52.5128C74.6863 52.5128 74.8654 52.8861 74.8654 53.5376L74.8866 60.5178L74.997 106.713V106.713C74.997 108.279 73.8967 110.335 72.6415 111.114L11.2133 149.449C10.8142 149.694 10.5597 149.72 10.4691 149.72ZM74.3704 52.9161C74.3244 52.9173 74.1372 52.9331 73.8177 53.1337L12.3888 91.4647C11.2286 92.1896 10.2153 94.0844 10.2205 95.5191L10.2365 100.861L10.3461 148.695C10.3461 149.065 10.4251 149.293 10.469 149.316C10.5026 149.316 10.689 149.305 11.0275 149.098L72.4549 110.763C73.61 110.046 74.6226 108.154 74.6226 106.713L74.4911 53.5383C74.4911 53.1851 74.4194 52.946 74.3704 52.9161Z" fill="#373B42"/>
<path d="M9.69338 153.787C9.6612 153.787 9.62902 153.779 9.59979 153.76L5.04737 150.905C4.44055 150.518 4.1072 149.734 4.1072 148.698L3.97412 92.6662C3.97412 91.7259 4.25773 90.6451 4.77249 89.6219C5.35226 88.4901 6.12499 87.5756 6.94965 87.0466C6.95402 87.0438 6.99645 87.0166 7.00081 87.0142L68.4165 48.686C69.2609 48.1591 70.068 48.0808 70.6873 48.4656L75.2287 51.321C75.2338 51.3237 75.2382 51.3266 75.2425 51.3297C75.331 51.3862 75.361 51.5099 75.3091 51.6063C75.2564 51.7023 75.1424 51.7343 75.0532 51.679L75.0415 51.6715C74.545 51.3626 73.8732 51.4432 73.1495 51.899L11.7308 90.2327C10.9135 90.7498 10.1846 91.6095 9.65455 92.6691C9.16183 93.6477 8.89425 94.6625 8.90156 95.5269V96.012L9.02656 151.56C9.02656 152.444 9.29709 153.101 9.78763 153.411C9.87686 153.467 9.90675 153.59 9.85482 153.687C9.82057 153.751 9.75774 153.787 9.69338 153.787ZM69.8225 48.6297C69.4518 48.6297 69.0365 48.766 68.6038 49.0362L7.17785 87.3699C7.1749 87.3722 7.13247 87.3991 7.12887 87.4011C6.37217 87.8874 5.64776 88.7474 5.10094 89.8165C4.61618 90.78 4.34871 91.7921 4.34871 92.666V93.2929L4.48179 148.697C4.48179 149.585 4.75013 150.245 5.2363 150.556L8.86829 152.834C8.72648 152.474 8.65264 152.045 8.65264 151.56L8.52763 95.5286C8.51956 94.5982 8.80327 93.5134 9.32599 92.4761C9.88667 91.3541 10.6645 90.4403 11.5148 89.9023C11.5251 89.8947 11.5353 89.8885 11.5441 89.8841L72.9619 51.5488C73.3656 51.2947 73.7603 51.1438 74.1294 51.0973L70.5004 48.8158C70.2998 48.6913 70.0711 48.6297 69.8225 48.6297Z" fill="#373B42"/>
<path d="M8.72096 103.723C8.68878 103.723 8.6566 103.714 8.6266 103.695L4.07135 100.823C3.98212 100.767 3.95223 100.643 4.00405 100.547C4.05521 100.45 4.16996 100.417 4.25995 100.474L8.8152 103.346C8.90443 103.402 8.93443 103.526 8.88251 103.623C8.84815 103.687 8.7852 103.723 8.72096 103.723Z" fill="#373B42"/>
<path d="M8.82623 147.843C8.79405 147.843 8.76187 147.834 8.73264 147.816L4.1847 144.965C4.09481 144.909 4.06482 144.785 4.11674 144.688C4.1679 144.591 4.28418 144.559 4.37188 144.615L8.91982 147.466C9.00971 147.522 9.0397 147.646 8.98778 147.743C8.95342 147.807 8.89059 147.843 8.82623 147.843Z" fill="#373B42"/>
<path d="M61.5033 157.41C60.4261 158.082 60.4204 159.171 61.4906 159.843L71.0934 165.875C72.1636 166.547 73.9026 166.547 74.9799 165.875L92.9705 154.648C94.0536 153.972 94.0591 152.883 92.9889 152.211L83.3861 146.179C82.3159 145.507 80.5769 145.507 79.4939 146.183L61.5033 157.41Z" fill="#DBDEE4"/>
<path d="M119.174 147.534C119.181 148.198 118.777 148.863 117.958 149.37L56.5299 187.705C56.2721 187.87 55.9878 187.998 55.6903 188.106C55.0094 188.356 54.2358 188.47 53.4625 188.456H53.4558C52.7155 188.442 51.9882 188.306 51.3536 188.049C51.1156 187.949 50.8909 187.834 50.6859 187.706L11.7878 163.275C10.9879 162.768 10.5847 162.111 10.5847 161.446L10.5582 155.215C10.5649 155.866 10.968 156.523 11.7613 157.03L50.6594 181.461C50.871 181.596 51.1025 181.711 51.3536 181.811C51.9882 182.068 52.7221 182.204 53.4558 182.218V182.211C54.2294 182.225 55.0094 182.111 55.6903 181.854C55.9811 181.746 56.2588 181.618 56.5101 181.46L117.938 143.125C118.744 142.625 119.154 141.946 119.154 141.289L119.174 147.534Z" fill="#BEC4CD"/>
<path d="M13.9895 164.857C13.8865 164.857 13.8024 164.766 13.8024 164.654V158.431C13.8024 158.319 13.8865 158.228 13.9895 158.228C14.0926 158.228 14.1767 158.319 14.1767 158.431V164.654C14.1767 164.766 14.0926 164.857 13.9895 164.857Z" fill="#373B42"/>
<path d="M59.0285 186.35C58.9254 186.35 58.8413 186.26 58.8413 186.148V179.888C58.8413 179.777 58.9254 179.686 59.0285 179.686C59.1316 179.686 59.2157 179.776 59.2157 179.888V186.148C59.2157 186.26 59.1316 186.35 59.0285 186.35Z" fill="#373B42"/>
<path d="M114.699 151.609C114.596 151.609 114.512 151.519 114.512 151.407V145.147C114.512 145.036 114.596 144.945 114.699 144.945C114.802 144.945 114.886 145.035 114.886 145.147V151.407C114.886 151.519 114.802 151.609 114.699 151.609Z" fill="#373B42"/>
<path d="M55.6901 181.853V188.106C55.0093 188.356 54.2357 188.47 53.4623 188.456H53.4556C52.7153 188.441 51.988 188.306 51.3534 188.048V181.81C51.988 182.068 52.7219 182.204 53.4556 182.218V182.211C54.2292 182.225 55.0093 182.111 55.6901 181.853Z" fill="#DBDEE4"/>
<path d="M53.6021 188.659C53.5545 188.659 53.5071 188.659 53.4588 188.658C52.3622 188.635 51.3467 188.359 50.5915 187.88L11.6942 163.45C10.8579 162.92 10.398 162.209 10.398 161.446L10.3717 155.218C10.3717 155.218 10.3717 155.218 10.3717 155.218V155.216C10.3709 155.105 10.4543 155.014 10.5574 155.013C10.5581 155.013 10.5581 155.013 10.5588 155.013C10.6611 155.013 10.7444 155.102 10.746 155.213C10.7519 155.819 11.1466 156.402 11.8564 156.856L50.7537 181.286C51.4585 181.728 52.4015 181.986 53.4134 182.014C53.428 182.01 53.4243 182.01 53.4594 182.009C54.5757 182.025 55.635 181.773 56.4166 181.286L117.845 142.95C118.558 142.508 118.967 141.902 118.967 141.289C118.967 141.178 119.05 141.087 119.154 141.087C119.257 141.087 119.341 141.177 119.341 141.288L119.361 147.533C119.369 148.303 118.904 149.018 118.051 149.546L56.6236 187.881C55.8237 188.385 54.755 188.659 53.6021 188.659ZM10.7511 156.353L10.7723 161.445C10.7723 162.059 11.167 162.647 11.8827 163.101L50.7808 187.53C51.4819 187.975 52.4331 188.232 53.4594 188.253C54.5963 188.269 55.6599 188.019 56.4356 187.531L117.864 149.195C118.595 148.743 118.993 148.154 118.987 147.536C118.987 147.536 118.987 147.535 118.987 147.535L118.971 142.429C118.748 142.756 118.43 143.053 118.031 143.3L56.6039 181.635C55.7976 182.139 54.7316 182.414 53.5904 182.414C53.5604 182.414 53.5298 182.414 53.499 182.414C53.4844 182.418 53.4676 182.42 53.4522 182.42C52.3607 182.397 51.335 182.119 50.5653 181.635L11.6672 157.205C11.2775 156.956 10.9689 156.667 10.7511 156.353Z" fill="#373B42"/>
<path d="M18.3185 162.661C18.456 162.747 18.5682 162.957 18.5678 163.131L18.5638 164.984C18.5634 165.157 18.4504 165.224 18.313 165.138L18.1148 165.015L18.1137 165.525C18.1132 165.699 18.0002 165.768 17.8628 165.683L16.6801 164.945C16.5427 164.859 16.4304 164.649 16.4309 164.475L16.432 163.965L16.2338 163.841C16.0963 163.755 15.9841 163.548 15.9845 163.375L15.9884 161.521C15.9889 161.348 16.1019 161.278 16.2393 161.364L18.3185 162.661Z" fill="#373B42"/>
<path d="M69.3029 54.2703C69.2707 54.2703 69.2385 54.2616 69.2085 54.2431L64.6533 51.3848C64.564 51.3287 64.5341 51.2047 64.586 51.1083C64.6371 51.0111 64.7512 50.9791 64.8419 51.0348L69.3971 53.8931C69.4863 53.9492 69.5162 54.0732 69.4644 54.1696C69.43 54.2344 69.3672 54.2703 69.3029 54.2703Z" fill="#373B42"/>
<path d="M23.7147 91.9531C24.2209 91.6373 24.6305 91.8896 24.6321 92.5182C24.6337 93.1468 24.2269 93.9135 23.7207 94.2295L14.9114 99.7268C14.4053 100.043 13.9916 99.7879 13.99 99.1593C13.9884 98.5307 14.3993 97.7663 14.9054 97.4505L23.7147 91.9531Z" fill="#DBDEE4"/>
<path d="M29.6311 93.8011C30.1373 93.4853 30.5469 93.7375 30.5485 94.3661C30.5502 94.9947 30.1433 95.7615 29.6371 96.0774L14.9118 105.267C14.4056 105.583 13.992 105.328 13.9904 104.7C13.9887 104.071 14.3996 103.307 14.9058 102.991L29.6311 93.8011Z" fill="white"/>
<path d="M14.5004 105.606C14.3798 105.606 14.2672 105.574 14.1663 105.512C13.9331 105.366 13.8037 105.078 13.803 104.7C13.8016 103.998 14.2445 103.17 14.8119 102.816L29.5371 93.6261C29.842 93.4345 30.1395 93.4097 30.3742 93.555C30.606 93.6996 30.7346 93.9876 30.7354 94.3656C30.7368 95.0712 30.2953 95.9 29.7302 96.2524L15.005 105.442C14.831 105.551 14.6592 105.606 14.5004 105.606ZM29.7243 93.976L14.9991 103.166C14.5524 103.445 14.1758 104.147 14.1773 104.699C14.1781 104.923 14.2417 105.092 14.3535 105.161C14.4647 105.231 14.6343 105.206 14.8178 105.092L29.543 95.9023C29.9875 95.6246 30.3626 94.9214 30.3611 94.3663C30.3604 94.142 30.2975 93.974 30.1872 93.9057C30.0767 93.8362 29.9078 93.8614 29.7243 93.976Z" fill="#373B42"/>
<path d="M46.8098 88.382C47.7446 87.7987 48.6586 87.4914 49.4721 87.5902C50.9489 87.7709 51.8298 89.2349 53.183 89.7142C54.2288 90.0861 55.544 89.7557 56.8638 88.9321C57.9455 88.257 59.0302 87.2508 59.9721 86.0285C61.1024 84.5609 61.552 82.8691 62.6556 81.4619C63.4979 80.3894 64.4498 79.5054 65.4019 78.9114C65.8887 78.6076 66.3755 78.3796 66.848 78.2407C66.9391 78.2147 67.0324 78.19 67.1235 78.1691C69.3822 77.6687 70.8631 79.4485 70.8709 82.3948L70.9076 106.919L14.0021 142.43L13.99 127.326C13.9786 122.971 16.293 117.605 19.6913 114.418C20.2796 113.867 20.8837 113.393 21.49 113.014C21.8004 112.821 22.1113 112.652 22.4212 112.511C25.2466 111.229 27.7667 112.062 30.6153 110.285C33.1224 108.691 35.3181 105.472 37.1012 102.271C38.8884 99.0698 40.4573 95.67 42.5189 92.7379C43.7846 90.9362 45.3232 89.3097 46.8098 88.382Z" fill="#F0F2F5"/>
<path d="M14.0016 142.633C13.9695 142.633 13.9373 142.624 13.908 142.606C13.8502 142.569 13.8145 142.503 13.8145 142.43L13.8028 127.326C13.7903 122.831 16.1612 117.46 19.568 114.265C20.1748 113.697 20.7896 113.217 21.3964 112.839C21.7137 112.641 22.0339 112.468 22.3475 112.324C23.6356 111.74 24.8689 111.586 26.062 111.437C27.5622 111.249 28.9797 111.072 30.5216 110.11C32.5993 108.789 34.6997 106.191 36.9412 102.167C37.4829 101.196 38.0137 100.19 38.5269 99.2167C39.7068 96.9803 40.927 94.6673 42.3694 92.6153C43.7387 90.6669 45.2828 89.1014 46.7163 88.2069C47.7434 87.5654 48.6749 87.2904 49.4929 87.3891C50.3746 87.497 51.05 88.0322 51.7029 88.5494C52.2044 88.9473 52.6788 89.3229 53.241 89.5216C54.187 89.8586 55.4401 89.5856 56.7699 88.7568C57.8476 88.0848 58.9054 87.0964 59.828 85.899C60.38 85.1823 60.7748 84.3938 61.1563 83.631C61.5453 82.8547 61.9466 82.0519 62.5124 81.3309C63.3693 80.2398 64.3357 79.3426 65.3081 78.7363C65.8154 78.4194 66.317 78.1871 66.7988 78.0453C66.8946 78.0181 66.9903 77.9927 67.0846 77.971C68.0949 77.7471 68.9963 77.9521 69.6916 78.5632C70.5682 79.3336 71.0536 80.6937 71.058 82.3937L71.0945 106.918C71.0945 106.991 71.0588 107.058 71.0009 107.094L14.0952 142.605C14.066 142.623 14.0338 142.633 14.0016 142.633ZM49.1611 87.7741C48.4951 87.7741 47.7369 88.0368 46.9035 88.5572C45.5115 89.4254 44.0077 90.9535 42.6676 92.8605C41.2399 94.8911 40.0256 97.1923 38.8522 99.4176C38.3375 100.393 37.8053 101.401 37.2613 102.375C34.987 106.459 32.8442 109.103 30.7102 110.459C29.0996 111.464 27.5768 111.654 26.1045 111.839C24.9376 111.985 23.7314 112.136 22.493 112.697C22.194 112.834 21.8877 113 21.5836 113.189C20.9973 113.555 20.4015 114.02 19.8136 114.571C16.4828 117.694 14.1654 122.939 14.177 127.326L14.1887 142.08L70.7202 106.802L70.6836 82.3951C70.6793 80.8189 70.2435 79.5698 69.4554 78.8772C68.8508 78.3458 68.0583 78.1684 67.1605 78.3675C67.0736 78.3872 66.9836 78.411 66.8951 78.4362C66.4462 78.5686 65.9747 78.7874 65.4952 79.0865C64.5594 79.67 63.6266 80.5368 62.7975 81.5928C62.2572 82.2817 61.8829 83.0308 61.486 83.8236C61.0956 84.6038 60.6913 85.4105 60.1159 86.1584C59.1648 87.3922 58.0726 88.4118 56.957 89.1071C55.5336 89.996 54.1702 90.278 53.124 89.9063C52.5055 89.6875 51.985 89.275 51.4813 88.8761C50.8395 88.3676 50.2334 87.8872 49.4505 87.7916C49.3562 87.78 49.2598 87.7741 49.1611 87.7741Z" fill="#373B42"/>
<path d="M66.8369 109.661C66.7338 109.661 66.6497 109.57 66.6497 109.459L66.6313 78.2513L67.0057 78.2449L67.0239 109.459C67.0239 109.57 66.9406 109.661 66.8369 109.661Z" fill="#373B42"/>
<path d="M62.7773 112.191C62.6742 112.191 62.5901 112.101 62.5901 111.989L62.5725 81.3322C62.5725 81.2208 62.6558 81.1299 62.7597 81.1299C62.8628 81.1299 62.9469 81.2203 62.9469 81.3322L62.9644 111.989C62.9644 112.1 62.8811 112.191 62.7773 112.191Z" fill="#373B42"/>
<path d="M58.7118 114.727C58.6087 114.727 58.5246 114.637 58.5246 114.525L58.5129 87.4624C58.5129 87.3507 58.5963 87.2601 58.7001 87.2601C58.8032 87.2601 58.8873 87.3505 58.8873 87.4624L58.899 114.525C58.899 114.637 58.8156 114.727 58.7118 114.727Z" fill="#373B42"/>
<path d="M54.6522 117.264C54.5491 117.264 54.465 117.174 54.465 117.062L54.4534 89.826C54.4534 89.7143 54.5367 89.6237 54.6405 89.6237C54.7436 89.6237 54.8277 89.7141 54.8277 89.826L54.8394 117.062C54.8394 117.174 54.7561 117.264 54.6522 117.264Z" fill="#373B42"/>
<path d="M50.5933 119.794C50.4902 119.794 50.4061 119.704 50.4061 119.592L50.3878 87.981C50.3878 87.8696 50.4711 87.7787 50.575 87.7787C50.6781 87.7787 50.7622 87.8691 50.7622 87.981L50.7804 119.592C50.7805 119.704 50.6972 119.794 50.5933 119.794Z" fill="#373B42"/>
<path d="M46.5337 122.331C46.4306 122.331 46.3465 122.24 46.3465 122.128L46.329 88.5768C46.329 88.4654 46.4123 88.3745 46.5162 88.3745C46.6192 88.3745 46.7033 88.465 46.7033 88.5768L46.7209 122.128C46.7208 122.24 46.6375 122.331 46.5337 122.331Z" fill="#373B42"/>
<path d="M42.4739 124.861C42.3708 124.861 42.2867 124.771 42.2867 124.659L42.2692 92.8367C42.2692 92.7253 42.3525 92.6344 42.4563 92.6344C42.5594 92.6344 42.6435 92.7248 42.6435 92.8367L42.6611 124.659C42.6611 124.77 42.5778 124.861 42.4739 124.861Z" fill="#373B42"/>
<path d="M38.4143 127.398C38.3113 127.398 38.2272 127.307 38.2272 127.195L38.2096 99.8631C38.2096 99.7517 38.2929 99.6608 38.3968 99.6608C38.4999 99.6608 38.584 99.7513 38.584 99.8631L38.6015 127.195C38.6014 127.307 38.5181 127.398 38.4143 127.398Z" fill="#373B42"/>
<path d="M34.3496 129.934C34.2466 129.934 34.1625 129.844 34.1625 129.732L34.15 106.608C34.15 106.497 34.2334 106.406 34.3372 106.406C34.4403 106.406 34.5244 106.496 34.5244 106.608L34.5368 129.732C34.5368 129.843 34.4535 129.934 34.3496 129.934Z" fill="#373B42"/>
<path d="M30.2902 132.464C30.1871 132.464 30.103 132.374 30.103 132.262L30.0913 110.483C30.0913 110.372 30.1746 110.281 30.2785 110.281C30.3816 110.281 30.4657 110.372 30.4657 110.483L30.4773 132.262C30.4773 132.373 30.394 132.464 30.2902 132.464Z" fill="#373B42"/>
<path d="M26.2303 135.001C26.1273 135.001 26.0432 134.91 26.0432 134.799L26.0315 111.624C26.0315 111.512 26.1148 111.421 26.2187 111.421C26.3218 111.421 26.4059 111.512 26.4059 111.624L26.4175 134.799C26.4175 134.91 26.3342 135.001 26.2303 135.001Z" fill="#373B42"/>
<path d="M22.1649 137.537C22.0618 137.537 21.9777 137.447 21.9777 137.335L21.9718 112.642C21.9718 112.53 22.0559 112.44 22.159 112.44C22.2621 112.44 22.3462 112.53 22.3462 112.642L22.3521 137.335C22.3521 137.447 22.268 137.537 22.1649 137.537Z" fill="#373B42"/>
<path d="M18.106 140.067C18.003 140.067 17.9189 139.977 17.9189 139.865L17.913 116.171C17.913 116.06 17.9971 115.969 18.1001 115.969C18.2032 115.969 18.2873 116.059 18.2873 116.171L18.2932 139.865C18.2931 139.977 18.2091 140.067 18.106 140.067Z" fill="#373B42"/>
<g opacity="0.1">
<path d="M181.973 88.0876C195.032 96.2372 195.101 109.448 182.126 117.598C169.161 125.742 148.059 125.742 135 117.593C121.95 109.449 121.881 96.2375 134.846 88.0936C147.821 79.9439 168.922 79.9438 181.973 88.0876Z" fill="black"/>
</g>
<path d="M191.812 86.0284L191.728 99.0008C191.714 104.307 188.487 109.605 182.042 113.653C169.076 121.797 147.975 121.797 134.915 113.648C128.348 109.55 125.069 104.168 125.083 98.7952L125.167 85.8228C125.153 91.1959 128.433 96.5771 135 100.675C148.059 108.825 169.161 108.825 182.126 100.681C188.571 96.632 191.798 91.3341 191.812 86.0284Z" fill="#FF1FC7"/>
<path d="M158.519 119.951C149.95 119.951 141.368 117.908 134.822 113.823C128.407 109.819 124.881 104.482 124.896 98.7949L124.98 85.8214C124.981 85.7103 125.064 85.6207 125.167 85.6207H125.168C125.271 85.6211 125.355 85.7119 125.355 85.8234C125.355 85.8237 125.355 85.8242 125.355 85.8245V85.8249C125.341 91.3605 128.799 96.5724 135.094 100.5C148.078 108.603 169.135 108.607 182.032 100.506C188.165 96.6534 191.568 91.5517 191.625 86.1307L191.625 86.0268C191.626 85.9158 191.71 85.8262 191.813 85.8262H191.813C191.916 85.8265 192 85.9174 192 86.0288C192 86.0644 192 86.0999 191.999 86.1351L191.916 99.0024C191.901 104.61 188.428 109.876 182.137 113.828C175.638 117.91 167.084 119.951 158.519 119.951ZM125.334 88.9489L125.27 98.7968C125.256 104.332 128.715 109.544 135.01 113.473C147.993 121.576 169.05 121.579 181.948 113.478C188.12 109.601 191.527 104.46 191.541 99.0002L191.604 89.2507C190.529 93.6334 187.29 97.6709 182.221 100.856C169.22 109.021 147.995 109.018 134.907 100.85C129.682 97.5904 126.375 93.4463 125.334 88.9489Z" fill="#373B42"/>
<path d="M181.972 71.1701C195.032 79.3197 195.1 92.531 182.126 100.681C169.161 108.825 148.059 108.825 135 100.675C121.95 92.5314 121.881 79.32 134.846 71.1762C147.821 63.0265 168.922 63.0264 181.972 71.1701Z" fill="white"/>
<path d="M158.602 106.978C150.033 106.978 141.452 104.936 134.906 100.85C128.512 96.8603 124.987 91.542 124.98 85.875C124.973 80.2467 128.443 74.9644 134.752 71.0012C147.757 62.8327 168.981 62.8299 182.066 70.9953C188.464 74.9877 191.992 80.3084 191.999 85.9762C192.007 91.6057 188.534 96.8899 182.22 100.856C175.722 104.938 167.168 106.978 158.602 106.978ZM158.386 65.2717C149.884 65.2717 141.393 67.2976 134.941 71.3513C128.751 75.2386 125.347 80.3964 125.354 85.8742C125.362 91.3911 128.82 96.5853 135.094 100.5C148.077 108.603 169.134 108.606 182.032 100.506C188.226 96.6157 191.632 91.4555 191.625 85.977C191.618 80.4592 188.157 75.2631 181.879 71.3454C175.391 67.2969 166.883 65.2717 158.386 65.2717Z" fill="#373B42"/>
<path d="M185.94 54.4385L185.871 84.0925C185.859 88.4645 183.2 92.83 177.889 96.1661C167.206 102.877 149.819 102.877 139.058 96.1615C133.646 92.7847 130.944 88.3505 130.955 83.9231L131.025 54.2691C131.013 58.6965 133.716 63.1306 139.127 66.5075C149.888 73.2226 167.275 73.2226 177.959 66.5121C183.27 63.1759 185.928 58.8105 185.94 54.4385Z" fill="#373B42"/>
<path d="M158.506 101.39C151.439 101.39 144.363 99.7055 138.964 96.3364C133.666 93.0307 130.756 88.6218 130.768 83.9226L130.837 54.2754C130.837 54.273 130.837 54.2706 130.837 54.2686C130.837 54.1569 130.921 54.0668 131.025 54.0668C131.025 54.0668 131.025 54.0668 131.025 54.0668C131.128 54.0672 131.212 54.1581 131.212 54.2695C131.2 58.8182 134.044 63.1017 139.221 66.3325C149.912 73.0038 167.248 73.0062 177.864 66.3369C182.94 63.1492 185.741 58.9237 185.752 54.4383C185.752 54.3265 185.837 54.2365 185.94 54.2365C185.94 54.2365 185.94 54.2365 185.94 54.2365C186.043 54.2368 186.127 54.3277 186.127 54.4391L186.057 84.0931C186.046 88.7283 183.178 93.0778 177.983 96.3414C172.624 99.707 165.57 101.39 158.506 101.39ZM131.205 57.1585L131.142 83.9235C131.131 88.4722 133.974 92.7557 139.151 95.9864C149.845 102.659 167.18 102.66 177.795 95.9911C182.871 92.803 185.672 88.5771 185.683 84.0921L185.746 57.3168C184.806 60.855 182.155 64.1093 178.053 66.6867C167.332 73.4212 149.829 73.4183 139.033 66.6823C134.838 64.0649 132.14 60.7559 131.205 57.1585Z" fill="#373B42"/>
<path d="M191.812 64.4041L191.728 77.3765C191.714 82.6825 188.487 87.9802 182.042 92.029C169.076 100.173 147.975 100.173 134.915 92.0234C128.348 87.9253 125.069 82.5441 125.083 77.1709L125.167 64.1985C125.153 69.5715 128.433 74.9528 135 79.051C148.059 87.2005 169.161 87.2005 182.126 79.0565C188.571 75.0078 191.798 69.7099 191.812 64.4041Z" fill="#FF1FC7"/>
<path d="M158.519 98.3264C149.95 98.3264 141.368 96.2836 134.822 92.1983C128.407 88.1944 124.881 82.8576 124.896 77.1705L124.98 64.1968C124.981 64.0858 125.064 63.9962 125.167 63.9962H125.168C125.271 63.9965 125.355 64.0874 125.355 64.1988C125.355 64.1992 125.355 64.1996 125.355 64.2V64.2003C125.341 69.7358 128.799 74.9477 135.094 78.8759C148.078 86.9792 169.135 86.9815 182.032 78.8814C188.165 75.0292 191.568 69.9275 191.625 64.5061L191.625 64.4023C191.626 64.2912 191.71 64.2016 191.813 64.2016H191.813C191.916 64.202 192 64.2929 192 64.4043C192 64.4399 192 64.4754 191.999 64.5105L191.916 77.3782C191.901 82.9864 188.428 88.2517 182.137 92.2038C175.638 96.2855 167.084 98.3264 158.519 98.3264ZM125.334 67.3244L125.27 77.1723C125.256 82.7074 128.715 87.9198 135.01 91.8482C147.993 99.952 169.05 99.9544 181.948 91.8537C188.12 87.977 191.527 82.8355 191.541 77.3762L191.604 67.6266C190.529 72.0093 187.29 76.0468 182.221 79.2313C169.22 87.3963 147.995 87.3943 134.907 79.2258C129.682 75.966 126.375 71.8217 125.334 67.3244Z" fill="#373B42"/>
<path d="M166.542 91.0192C155.614 92.6924 143.574 90.8547 135 85.5044C132.782 84.1201 130.939 82.5894 129.471 80.962" fill="#FF1FC7"/>
<path d="M158.508 91.8309C149.759 91.8309 141.317 89.6802 134.906 85.6794C132.717 84.313 130.842 82.7731 129.337 81.1032C129.265 81.0233 129.266 80.8953 129.34 80.8172C129.415 80.7389 129.534 80.7417 129.605 80.821C131.087 82.4644 132.933 83.9811 135.094 85.3294C143.393 90.5082 155.139 92.5613 166.516 90.8188C166.617 90.8057 166.712 90.88 166.727 90.9907C166.742 91.1012 166.671 91.2036 166.568 91.2194C163.887 91.6299 161.183 91.8309 158.508 91.8309Z" fill="#373B42"/>
<path d="M187.476 79.5503C188.23 79.0793 188.84 79.4672 188.843 80.4043C188.845 81.3539 188.239 82.4876 187.485 82.9585C186.71 83.4416 186.101 83.0664 186.099 82.1168C186.096 81.1796 186.702 80.0334 187.476 79.5503Z" fill="white"/>
<path d="M182.862 83.4711C183.616 83.0001 184.226 83.388 184.228 84.3251C184.231 85.2747 183.625 86.4084 182.87 86.8793C182.096 87.3625 181.487 86.9872 181.484 86.0376C181.482 85.1005 182.087 83.9542 182.862 83.4711Z" fill="white"/>
<path d="M177.741 86.3364C178.496 85.8654 179.105 86.2532 179.108 87.1904C179.11 88.14 178.505 89.2736 177.75 89.7446C176.976 90.2277 176.366 89.8524 176.364 88.9028C176.361 87.9657 176.967 86.8195 177.741 86.3364Z" fill="white"/>
<path d="M181.972 49.5458C195.032 57.6954 195.1 70.9067 182.126 79.0564C169.161 87.2003 148.059 87.2005 135 79.0509C121.95 70.9071 121.881 57.6958 134.846 49.5519C147.821 41.4022 168.922 41.402 181.972 49.5458Z" fill="white"/>
<path d="M158.602 85.354C150.034 85.354 141.452 83.3111 134.906 79.2259C128.512 75.2359 124.987 69.9176 124.98 64.2506C124.973 58.6222 128.443 53.3399 134.752 49.3768C147.757 41.2082 168.981 41.2054 182.066 49.3709C188.465 53.3632 191.992 58.6839 191.999 64.3522C192.007 69.9814 188.534 75.2656 182.22 79.2315C175.722 83.3131 167.168 85.354 158.602 85.354ZM158.386 43.6473C149.884 43.6473 141.393 45.6735 134.941 49.7268C128.751 53.6141 125.347 58.772 125.354 64.2497C125.362 69.7667 128.82 74.9608 135.094 78.8759C148.077 86.9792 169.134 86.9816 182.032 78.8814C188.226 74.9912 191.632 69.8315 191.625 64.3524C191.618 58.8347 188.157 53.6385 181.879 49.7208C175.391 45.6724 166.883 43.6473 158.386 43.6473Z" fill="#373B42"/>
<path d="M185.94 32.7113L185.871 62.3653C185.859 66.7372 183.2 71.1027 177.889 74.4388C167.206 81.1494 149.819 81.1494 139.058 74.4342C133.646 71.0575 130.944 66.6232 130.955 62.1959L131.025 32.5419C131.013 36.9692 133.716 41.4033 139.127 44.7802C149.888 51.4954 167.275 51.4954 177.959 44.7848C183.27 41.4487 185.928 37.0834 185.94 32.7113Z" fill="#373B42"/>
<path d="M158.506 79.6632C151.439 79.6632 144.363 77.9783 138.964 74.6093C133.666 71.3035 130.756 66.8946 130.768 62.1955L130.837 32.5482C130.837 32.5458 130.837 32.5435 130.837 32.5415C130.837 32.4297 130.921 32.3397 131.025 32.3397C131.025 32.3397 131.025 32.3397 131.025 32.3397C131.128 32.34 131.212 32.4309 131.212 32.5423C131.2 37.091 134.044 41.3746 139.221 44.6054C149.912 51.2767 167.248 51.279 177.864 44.6097C182.94 41.4221 185.741 37.1965 185.752 32.7111C185.752 32.5994 185.837 32.5093 185.94 32.5093C185.94 32.5093 185.94 32.5093 185.94 32.5093C186.043 32.5097 186.127 32.6006 186.127 32.712L186.057 62.366C186.046 67.0012 183.178 71.3506 177.983 74.6142C172.624 77.9799 165.57 79.6632 158.506 79.6632ZM131.205 35.4313L131.142 62.1963C131.131 66.745 133.974 71.0286 139.151 74.2592C149.845 80.9317 167.18 80.9333 177.795 74.264C182.871 71.0758 185.672 66.8499 185.683 62.3649L185.746 35.5897C184.806 39.1278 182.155 42.3822 178.053 44.9595C167.332 51.694 149.829 51.6912 139.033 44.9551C134.838 42.3376 132.14 39.0287 131.205 35.4313Z" fill="#373B42"/>
<path d="M191.812 42.7796L191.728 55.7521C191.714 61.058 188.487 66.3557 182.042 70.4045C169.076 78.5484 147.975 78.5485 134.915 70.3989C128.348 66.3008 125.069 60.9196 125.083 55.5465L125.167 42.574C125.153 47.947 128.433 53.3283 135 57.4265C148.059 65.576 169.161 65.576 182.126 57.432C188.571 53.3834 191.798 48.0855 191.812 42.7796Z" fill="#FF1FC7"/>
<path d="M158.519 76.702C149.95 76.702 141.368 74.6591 134.822 70.5739C128.407 66.5704 124.881 61.2336 124.896 55.546L124.98 42.5724C124.981 42.4613 125.064 42.3717 125.167 42.3717H125.168C125.271 42.3721 125.355 42.463 125.355 42.5744C125.355 42.5747 125.355 42.5752 125.355 42.5755V42.5759C125.341 48.1118 128.799 53.3233 135.094 57.2514C148.078 65.3547 169.135 65.3571 182.032 57.2569C188.165 53.4047 191.568 48.3034 191.625 42.8821L191.625 42.7782C191.626 42.6671 191.71 42.5775 191.813 42.5775H191.813C191.916 42.5779 192 42.6688 192 42.7802C192 42.8158 192 42.8513 191.999 42.8864L191.916 55.7537C191.901 61.3619 188.428 66.6271 182.137 70.5793C175.638 74.661 167.084 76.702 158.519 76.702ZM125.334 45.7L125.27 55.5479C125.256 61.0833 128.715 66.2957 135.01 70.2237C147.993 78.3271 169.05 78.3299 181.948 70.2293C188.12 66.3527 191.527 61.211 191.541 55.7517L191.604 46.0021C190.529 50.3849 187.29 54.4224 182.221 57.6068C169.22 65.7718 147.995 65.7698 134.907 57.6013C129.682 54.3419 126.375 50.1976 125.334 45.7Z" fill="#373B42"/>
<path d="M166.542 69.4977C155.614 71.1709 143.574 69.3332 135 63.9829C132.782 62.5986 130.939 61.0679 129.471 59.4405" fill="#FF1FC7"/>
<path d="M158.51 70.3096C149.76 70.3096 141.316 68.1581 134.906 64.1578C132.715 62.7908 130.842 61.251 129.337 59.5815C129.265 59.5017 129.266 59.3737 129.34 59.2955C129.415 59.2172 129.534 59.2204 129.605 59.2995C131.086 60.9422 132.933 62.4592 135.094 63.8079C143.393 68.9871 155.142 71.0393 166.516 69.2976C166.617 69.2806 166.712 69.3588 166.727 69.4695C166.742 69.58 166.671 69.6824 166.568 69.6982C163.887 70.1084 161.183 70.3096 158.51 70.3096Z" fill="#373B42"/>
<path d="M187.476 58.0288C188.23 57.5578 188.84 57.9457 188.843 58.8828C188.845 59.8324 188.239 60.966 187.485 61.437C186.71 61.9201 186.101 61.5449 186.099 60.5953C186.096 59.658 186.702 58.5119 187.476 58.0288Z" fill="white"/>
<path d="M182.862 61.9496C183.616 61.4786 184.226 61.8665 184.228 62.8036C184.231 63.7532 183.625 64.8868 182.87 65.3578C182.096 65.8409 181.487 65.4657 181.484 64.516C181.482 63.5788 182.087 62.4327 182.862 61.9496Z" fill="white"/>
<path d="M177.741 64.8148C178.496 64.3438 179.105 64.7317 179.108 65.6688C179.11 66.6184 178.505 67.752 177.75 68.223C176.976 68.7061 176.366 68.3309 176.364 67.3813C176.361 66.4441 176.967 65.2979 177.741 64.8148Z" fill="white"/>
<path d="M181.972 27.9215C195.032 36.071 195.1 49.2823 182.126 57.432C169.161 65.5759 148.059 65.576 135 57.4265C121.95 49.2827 121.881 36.0714 134.846 27.9275C147.821 19.7778 168.922 19.7777 181.972 27.9215Z" fill="white"/>
<path d="M158.602 63.7295C150.034 63.7295 141.452 61.6867 134.906 57.6014C128.512 53.6118 124.987 48.2936 124.98 42.6261C124.973 36.9978 128.443 31.7155 134.752 27.7523C147.757 19.5838 168.981 19.581 182.066 27.7464C188.465 31.7388 191.992 37.0594 191.999 42.7278C192.007 48.3569 188.534 53.6411 182.22 57.6071C175.722 61.6887 167.168 63.7295 158.602 63.7295ZM158.386 22.0228C149.884 22.0228 141.393 24.049 134.941 28.1023C128.751 31.9897 125.347 37.1475 125.354 42.6258C125.362 48.1427 128.82 53.3369 135.094 57.2514C148.077 65.3548 169.134 65.3571 182.032 57.257C188.226 53.3669 191.632 48.2071 191.625 42.728C191.618 37.2102 188.157 32.0141 181.879 28.0963C175.391 24.0478 166.883 22.0228 158.386 22.0228Z" fill="#373B42"/>
<path d="M185.94 10.9841L185.871 40.6381C185.859 45.0101 183.2 49.3756 177.889 52.7117C167.206 59.4222 149.819 59.4222 139.058 52.7071C133.646 49.3303 130.944 44.8961 130.955 40.4687L131.025 10.8147C131.013 15.2421 133.716 19.6762 139.127 23.0531C149.888 29.7682 167.275 29.7682 177.959 23.0577C183.27 19.7215 185.928 15.3561 185.94 10.9841Z" fill="#373B42"/>
<path d="M158.506 57.936C151.439 57.936 144.363 56.2511 138.964 52.882C133.666 49.5763 130.756 45.1674 130.768 40.4682L130.837 10.821C130.837 10.8186 130.837 10.8162 130.837 10.8142C130.837 10.7025 130.921 10.6124 131.025 10.6124C131.025 10.6124 131.025 10.6124 131.025 10.6124C131.128 10.6128 131.212 10.7037 131.212 10.8151C131.2 15.3638 134.044 19.6473 139.221 22.8781C149.912 29.5494 167.248 29.5518 177.864 22.8825C182.94 19.6948 185.741 15.4693 185.752 10.9839C185.752 10.8721 185.837 10.7821 185.94 10.7821C185.94 10.7821 185.94 10.7821 185.94 10.7821C186.043 10.7824 186.127 10.8733 186.127 10.9847L186.057 40.6387C186.046 45.2739 183.178 49.6234 177.983 52.887C172.624 56.2528 165.57 57.936 158.506 57.936ZM131.205 13.7041L131.142 40.4691C131.131 45.0178 133.974 49.3013 139.151 52.532C149.845 59.2045 167.18 59.2057 177.795 52.5367C182.871 49.3486 185.672 45.1227 185.683 40.6377L185.746 13.8624C184.806 17.4006 182.155 20.6551 178.053 23.2324C167.332 29.9665 149.829 29.9645 139.033 23.228C134.838 20.6105 132.14 17.3015 131.205 13.7041Z" fill="#373B42"/>
<path d="M191.812 21.1552L191.728 34.1277C191.714 39.4336 188.487 44.7314 182.042 48.7801C169.076 56.924 147.975 56.9241 134.915 48.7746C128.348 44.6765 125.069 39.2952 125.083 33.9221L125.167 20.9496C125.153 26.3226 128.433 31.704 135 35.8021C148.059 43.9517 169.161 43.9517 182.126 35.8077C188.571 31.7589 191.798 26.4612 191.812 21.1552Z" fill="#FF1FC7"/>
<path d="M158.519 55.0774C149.949 55.0774 141.368 53.0349 134.822 48.9496C128.407 44.9457 124.881 39.6089 124.896 33.9218L124.98 20.9481C124.981 20.8371 125.064 20.7475 125.167 20.7475H125.168C125.271 20.7478 125.355 20.8387 125.355 20.9501C125.355 20.9505 125.355 20.9509 125.355 20.9513V20.9517C125.341 26.4876 128.799 31.6987 135.094 35.6267C148.078 43.73 169.135 43.7332 182.032 35.6326C188.165 31.78 191.568 26.6783 191.625 21.2573L191.625 21.1535C191.626 21.0424 191.71 20.9528 191.813 20.9528H191.813C191.916 20.9532 192 21.0441 192 21.1555C192 21.1911 192 21.2266 191.999 21.2617L191.916 34.129C191.901 39.7368 188.428 45.0025 182.137 48.955C175.638 53.0369 167.084 55.0774 158.519 55.0774ZM125.334 24.0759L125.27 33.9238C125.256 39.4589 128.715 44.6713 135.01 48.5996C147.993 56.7021 169.05 56.7058 181.948 48.6052C188.12 44.7281 191.527 39.5865 191.541 34.1272L191.604 24.3777C190.529 28.7604 187.29 32.7979 182.221 35.9828C169.221 44.1474 147.995 44.1455 134.907 35.977C129.682 32.7173 126.375 28.5732 125.334 24.0759Z" fill="#373B42"/>
<path d="M166.542 47.9761C155.614 49.6493 143.574 47.8116 135 42.4613C132.782 41.077 130.939 39.5463 129.471 37.9189" fill="#FF1FC7"/>
<path d="M158.508 48.7878C149.759 48.7878 141.317 46.6371 134.906 42.6363C132.717 41.2699 130.842 39.7299 129.337 38.0601C129.265 37.9803 129.266 37.8522 129.34 37.7741C129.415 37.6958 129.534 37.6986 129.605 37.7781C131.087 39.4215 132.933 40.9381 135.094 42.2864C143.393 47.4653 155.139 49.5183 166.516 47.7757C166.617 47.7599 166.712 47.8373 166.727 47.9476C166.742 48.0581 166.671 48.1605 166.568 48.1763C163.887 48.5866 161.183 48.7878 158.508 48.7878Z" fill="#373B42"/>
<path d="M187.476 36.5072C188.23 36.0362 188.84 36.4241 188.843 37.3612C188.845 38.3108 188.239 39.4445 187.485 39.9154C186.71 40.3985 186.101 40.0233 186.099 39.0737C186.096 38.1365 186.702 36.9903 187.476 36.5072Z" fill="white"/>
<path d="M182.862 40.428C183.616 39.9571 184.226 40.3449 184.228 41.282C184.231 42.2316 183.625 43.3653 182.87 43.8362C182.096 44.3194 181.487 43.9441 181.484 42.9945C181.482 42.0573 182.087 40.9111 182.862 40.428Z" fill="white"/>
<path d="M177.741 43.2932C178.496 42.8222 179.105 43.2101 179.108 44.1472C179.11 45.0968 178.505 46.2305 177.75 46.7014C176.976 47.1845 176.366 46.8093 176.364 45.8597C176.361 44.9226 176.967 43.7763 177.741 43.2932Z" fill="white"/>
<path d="M181.972 6.29703C195.032 14.4466 195.1 27.6579 182.126 35.8077C169.161 43.9516 148.059 43.9517 135 35.8021C121.95 27.6584 121.881 14.4471 134.846 6.30316C147.821 -1.84663 168.922 -1.84674 181.972 6.29703Z" fill="white"/>
<path d="M158.603 42.105C150.033 42.105 141.453 40.0626 134.906 35.977C128.512 31.9873 124.987 26.6691 124.98 21.0016C124.973 15.3733 128.443 10.0911 134.752 6.1282C147.757 -2.04034 168.981 -2.04316 182.066 6.1223C188.464 10.1147 191.992 15.4353 191.999 21.1031C192.007 26.7327 188.534 32.0169 182.22 35.9828C175.723 40.0638 167.168 42.105 158.603 42.105ZM158.386 0.398353C149.884 0.398353 141.393 2.42454 134.941 6.47821C128.751 10.3655 125.347 15.523 125.354 21.0012C125.362 26.5181 128.82 31.7122 135.094 35.6269C148.077 43.7303 169.134 43.7335 182.032 35.6328C188.226 31.7427 191.632 26.5825 191.625 21.1039C191.618 15.5861 188.157 10.3899 181.879 6.4722C175.391 2.42336 166.883 0.398353 158.386 0.398353Z" fill="#373B42"/>
<path d="M170.87 13.2734C177.754 17.5699 177.791 24.5349 170.951 28.8314C164.115 33.1249 152.991 33.125 146.106 28.8285C139.226 24.535 139.189 17.57 146.025 13.2766C152.865 8.97994 163.989 8.97994 170.87 13.2734Z" fill="white"/>
<path d="M158.55 32.2456C154.016 32.2456 149.476 31.1648 146.012 29.0034C142.612 26.8823 140.738 24.049 140.734 21.0256C140.731 18.0228 142.576 15.2089 145.93 13.1016C152.811 8.78004 164.042 8.77815 170.963 13.0984C174.365 15.221 176.24 18.0551 176.244 21.0789C176.248 24.0825 174.402 26.8976 171.045 29.0064C167.607 31.166 163.081 32.2456 158.55 32.2456ZM158.435 10.258C153.968 10.258 149.509 11.3224 146.119 13.4517C142.884 15.4831 141.105 18.1726 141.109 21.0249C141.112 23.8981 142.92 26.607 146.199 28.6534C153.021 32.91 164.083 32.9124 170.857 28.6565C174.093 26.6236 175.874 23.9329 175.87 21.0798C175.866 18.2062 174.057 15.4962 170.776 13.4485C167.368 11.322 162.898 10.258 158.435 10.258Z" fill="#373B42"/>
<path d="M175.418 24.0229C174.64 22.234 173.121 20.5472 170.871 19.1404C163.992 14.8498 152.866 14.8498 146.023 19.1467C143.82 20.5282 142.336 22.1896 141.565 23.9466C139.933 20.2672 141.423 16.1675 146.023 13.2775C152.867 8.98065 163.992 8.98065 170.871 13.2712C175.535 16.1801 177.055 20.318 175.418 24.0229Z" fill="#373B42"/>
<path d="M175.417 24.2252H175.417C175.344 24.2249 175.278 24.1799 175.248 24.1091C174.468 22.3148 172.922 20.6572 170.777 19.3156C163.957 15.0624 152.895 15.0648 146.117 19.3219C144.027 20.6319 142.511 22.2612 141.733 24.0333C141.703 24.104 141.637 24.1491 141.565 24.1491C141.564 24.1491 141.564 24.1491 141.564 24.1491C141.493 24.1491 141.427 24.1044 141.396 24.0341C139.667 20.1346 141.403 15.9458 145.928 13.1026C152.811 8.78108 164.042 8.77837 170.964 13.0962C175.553 15.958 177.324 20.1784 175.586 24.1104C175.555 24.1806 175.49 24.2252 175.417 24.2252ZM158.439 15.7287C162.97 15.7287 167.505 16.8077 170.964 18.9654C173.023 20.2526 174.55 21.8308 175.406 23.5504C176.773 19.9373 175.029 16.0986 170.777 13.4461C163.957 9.19299 152.895 9.1957 146.117 13.4525C141.925 16.0856 140.215 19.8938 141.575 23.4766C142.427 21.7795 143.924 20.2289 145.929 18.9718C149.372 16.81 153.904 15.7287 158.439 15.7287Z" fill="#373B42"/>
</svg>
