<svg width="266" height="208" viewBox="0 0 266 208" fill="none" xmlns="http://www.w3.org/2000/svg">
<rect width="265.056" height="207.105" rx="16" fill="#F0FFF1"/>
<path opacity="0.18" d="M49.0283 143.983L117.669 115.238L215.235 155.785L146.549 184.552L49.0283 143.983Z" fill="url(#paint0_linear_2026_11628)"/>
<path d="M49.0283 134.072L117.669 105.327L215.235 145.873L146.549 174.641L49.0283 134.072Z" fill="url(#paint1_linear_2026_11628)"/>
<path d="M215.235 145.874L215.243 148.718L146.556 177.485L146.549 174.641L215.235 145.874Z" fill="url(#paint2_linear_2026_11628)"/>
<path d="M49.0459 133.904V136.748L146.463 177.514V174.67L49.0459 133.904Z" fill="url(#paint3_linear_2026_11628)"/>
<path d="M212.571 60.5189L122.254 22.8133C121.288 22.4101 120.257 22.4985 119.436 22.9116L115.948 24.248L117.865 26.6655V99.6592C117.865 101.345 118.959 102.878 120.673 103.594L207.664 139.911L210.759 143.815L214.522 142.348C215.357 142.165 216.028 141.503 216.028 140.645V65.3635C216.028 63.2882 214.681 61.4 212.571 60.5189Z" fill="url(#paint4_linear_2026_11628)"/>
<path d="M208.45 62.0962L118.134 24.3906C116.091 23.5376 113.745 24.8659 113.745 26.8759V101.237C113.745 102.922 114.839 104.456 116.553 105.172L209.104 143.81C210.409 144.355 211.908 143.506 211.908 142.222V66.9414C211.908 64.8655 210.56 62.9773 208.45 62.0962Z" fill="url(#paint5_linear_2026_11628)"/>
<path d="M209.234 66.4214V141L116.9 102.453C116.606 102.332 116.416 102.066 116.416 101.777V26.5378L208.082 64.8075C208.783 65.097 209.234 65.7329 209.234 66.4214Z" fill="white"/>
<path d="M209.235 66.4214V71.5047L116.417 32.7363V26.5378L208.083 64.8075C208.783 65.097 209.235 65.7329 209.235 66.4214Z" fill="url(#paint6_linear_2026_11628)"/>
<path d="M116.416 32.7367L209.234 71.5053V76.5443L116.416 37.7755V32.7367Z" fill="url(#paint7_linear_2026_11628)"/>
<path d="M116.416 37.5527L209.234 76.3215V81.3599L116.416 42.5915V37.5527Z" fill="url(#paint8_linear_2026_11628)"/>
<path d="M116.416 42.9503L209.234 81.7189V88.3943L116.416 49.6255V42.9503Z" fill="url(#paint9_linear_2026_11628)"/>
<path d="M121.123 31.8819C121.123 32.2623 120.777 32.4293 120.35 32.2547C119.922 32.08 119.576 31.6302 119.576 31.2498C119.576 30.8694 119.922 30.7024 120.35 30.877C120.777 31.0516 121.123 31.5014 121.123 31.8819Z" fill="#E0DADA"/>
<path d="M124.001 33.0587C124.001 33.4391 123.655 33.6061 123.227 33.4315C122.801 33.2569 122.454 32.8071 122.454 32.4266C122.454 32.0462 122.8 31.8793 123.227 32.0538C123.655 32.2283 124.001 32.6782 124.001 33.0587Z" fill="#E0DADA"/>
<path d="M126.716 34.5916C126.983 34.4027 126.927 33.9468 126.593 33.5731C126.259 33.1996 125.773 33.0498 125.506 33.2386C125.24 33.4275 125.295 33.8834 125.63 34.257C125.964 34.6306 126.45 34.7804 126.716 34.5916Z" fill="#E0DADA"/>
<path d="M132.48 42.8693L125.435 39.9121C125.008 39.733 124.659 39.2756 124.659 38.8955C124.659 38.5155 125.008 38.351 125.435 38.5301L132.48 41.4873C132.907 41.6664 133.256 42.1238 133.256 42.5038C133.256 42.8839 132.907 43.0483 132.48 42.8693Z" fill="url(#paint10_linear_2026_11628)"/>
<path d="M143.457 47.4758L136.412 44.5186C135.985 44.3396 135.636 43.8821 135.636 43.5021C135.636 43.1221 135.985 42.9576 136.412 43.1367L143.457 46.0939C143.883 46.2728 144.233 46.7304 144.233 47.1102C144.233 47.4906 143.883 47.6548 143.457 47.4758Z" fill="url(#paint11_linear_2026_11628)"/>
<path d="M154.431 52.0823L147.386 49.1253C146.96 48.9463 146.61 48.4888 146.61 48.1084C146.61 47.7286 146.96 47.5644 147.386 47.7433L154.431 50.7004C154.858 50.8793 155.207 51.3369 155.207 51.7167C155.207 52.0971 154.858 52.2613 154.431 52.0823Z" fill="url(#paint12_linear_2026_11628)"/>
<path d="M165.406 56.6889L158.361 53.7318C157.934 53.5529 157.585 53.0953 157.585 52.715C157.585 52.3351 157.934 52.1709 158.361 52.3499L165.406 55.3069C165.833 55.4859 166.182 55.9434 166.182 56.3233C166.182 56.7036 165.833 56.8678 165.406 56.6889Z" fill="url(#paint13_linear_2026_11628)"/>
<path d="M176.382 61.2954L169.336 58.3384C168.91 58.1594 168.561 57.7019 168.561 57.3215C168.561 56.9417 168.91 56.7775 169.336 56.9565L176.382 59.9135C176.809 60.0925 177.158 60.55 177.158 60.9298C177.158 61.3102 176.809 61.4744 176.382 61.2954Z" fill="url(#paint14_linear_2026_11628)"/>
<path d="M128.182 57.9236L121.137 54.9666C120.711 54.7871 120.361 54.3301 120.361 53.9497C120.361 53.5699 120.711 53.4051 121.137 53.5846L128.182 56.5417C128.61 56.7206 128.958 57.1782 128.958 57.558C128.958 57.9384 128.61 58.1026 128.182 57.9236Z" fill="#D7DADD"/>
<path d="M128.182 62.5401L121.137 59.583C120.711 59.4041 120.361 58.9465 120.361 58.5667C120.361 58.1863 120.711 58.0221 121.137 58.2011L128.182 61.1581C128.61 61.3376 128.958 61.7946 128.958 62.175C128.958 62.5548 128.61 62.7196 128.182 62.5401Z" fill="#D7DADD"/>
<path d="M128.182 67.1559L121.137 64.1989C120.711 64.0199 120.361 63.5624 120.361 63.182C120.361 62.8022 120.711 62.638 121.137 62.817L128.182 65.774C128.61 65.953 128.958 66.4105 128.958 66.7903C128.958 67.1707 128.61 67.3349 128.182 67.1559Z" fill="#D7DADD"/>
<path d="M128.182 71.7729L121.137 68.8153C120.711 68.6364 120.361 68.1788 120.361 67.799C120.361 67.4192 120.711 67.2545 121.137 67.4334L128.182 70.391C128.61 70.57 128.958 71.0275 128.958 71.4073C128.958 71.7872 128.61 71.9519 128.182 71.7729Z" fill="#D7DADD"/>
<path d="M128.182 76.3893L121.137 73.4323C120.711 73.2533 120.361 72.7958 120.361 72.4154C120.361 72.0356 120.711 71.8714 121.137 72.0504L128.182 75.0074C128.61 75.1864 128.958 75.6439 128.958 76.0243C128.958 76.4041 128.61 76.5683 128.182 76.3893Z" fill="#D7DADD"/>
<path d="M128.182 81.0057L121.137 78.0481C120.711 77.8692 120.361 77.4116 120.361 77.0318C120.361 76.652 120.711 76.4873 121.137 76.6662L128.182 79.6238C128.61 79.8028 128.958 80.2603 128.958 80.6401C128.958 81.0205 128.61 81.1847 128.182 81.0057Z" fill="#D7DADD"/>
<path d="M128.182 85.6217L121.137 82.6647C120.711 82.4857 120.361 82.0282 120.361 81.6484C120.361 81.268 120.711 81.1038 121.137 81.2828L128.182 84.2398C128.61 84.4188 128.958 84.8763 128.958 85.2567C128.958 85.6365 128.61 85.8012 128.182 85.6217Z" fill="#D7DADD"/>
<path d="M128.182 90.2381L121.137 87.281C120.711 87.1015 120.361 86.6445 120.361 86.2641C120.361 85.8843 120.711 85.7196 121.137 85.8991L128.182 88.8561C128.61 89.0351 128.958 89.4926 128.958 89.8725C128.958 90.2528 128.61 90.417 128.182 90.2381Z" fill="#D7DADD"/>
<path d="M128.182 94.8551L121.137 91.8975C120.711 91.7185 120.361 91.261 120.361 90.8811C120.361 90.5008 120.711 90.3366 121.137 90.5155L128.182 93.4726C128.61 93.6521 128.958 94.1091 128.958 94.4895C128.958 94.8693 128.61 95.034 128.182 94.8551Z" fill="#D7DADD"/>
<path d="M128.182 99.4716L121.137 96.5145C120.711 96.335 120.361 95.8775 120.361 95.4977C120.361 95.1178 120.711 94.9531 121.137 95.1326L128.182 98.0897C128.61 98.2686 128.958 98.7262 128.958 99.106C128.958 99.4864 128.61 99.6505 128.182 99.4716Z" fill="#D7DADD"/>
<path d="M128.182 104.087L121.137 101.13C120.711 100.951 120.361 100.493 120.361 100.113C120.361 99.7331 120.711 99.5689 121.137 99.7478L128.182 102.705C128.61 102.884 128.958 103.342 128.958 103.722C128.958 104.102 128.61 104.266 128.182 104.087Z" fill="#D7DADD"/>
<path d="M121.566 43.757L118.39 42.4303V39.6013L121.566 40.928V43.757Z" fill="url(#paint15_linear_2026_11628)"/>
<path d="M126.247 45.7132L123.071 44.3864V41.5575L126.247 42.8841V45.7132Z" fill="url(#paint16_linear_2026_11628)"/>
<path d="M130.931 47.6695L127.755 46.3429V43.5137L130.931 44.8404V47.6695Z" fill="url(#paint17_linear_2026_11628)"/>
<path d="M135.615 49.6261L132.438 48.2994V45.4703L135.615 46.7971V49.6261Z" fill="url(#paint18_linear_2026_11628)"/>
<path d="M140.297 51.5816L137.121 50.255V47.426L140.297 48.7527V51.5816Z" fill="url(#paint19_linear_2026_11628)"/>
<path d="M144.98 53.5382L141.805 52.2115V49.3826L144.98 50.7092V53.5382Z" fill="white"/>
<path d="M149.664 55.4953L146.488 54.1686V51.3391L149.664 52.6663V55.4953Z" fill="white"/>
<path d="M160.825 59.3838L153.78 56.4268C153.353 56.2473 153.004 55.7903 153.004 55.4099C153.004 55.0301 153.353 54.8653 153.78 55.0449L160.825 58.0019C161.252 58.1809 161.601 58.6384 161.601 59.0182C161.601 59.3986 161.252 59.5628 160.825 59.3838Z" fill="white"/>
<path d="M163.423 66.4745L156.377 63.5175C155.951 63.338 155.602 62.881 155.602 62.5006C155.602 62.1208 155.951 61.956 156.377 62.1355L163.423 65.0926C163.85 65.2715 164.198 65.7291 164.198 66.1089C164.198 66.4893 163.85 66.6535 163.423 66.4745Z" fill="white"/>
<path d="M204.717 67.0241L197.671 64.067C197.244 63.8875 196.896 63.4305 196.896 63.0502C196.896 62.6703 197.244 62.5056 197.671 62.6851L204.717 65.6421C205.143 65.8211 205.492 66.2786 205.492 66.6585C205.492 67.0388 205.143 67.203 204.717 67.0241Z" fill="white"/>
<path d="M174.534 70.9591L167.489 68.0021C167.061 67.8231 166.713 67.3656 166.713 66.9858C166.713 66.6054 167.061 66.4412 167.489 66.6202L174.534 69.5772C174.961 69.7562 175.31 70.2137 175.31 70.5941C175.31 70.9739 174.961 71.1381 174.534 70.9591Z" fill="url(#paint20_linear_2026_11628)"/>
<path d="M173.467 64.7824L166.421 61.8253C165.995 61.6464 165.646 61.1888 165.646 60.8085C165.646 60.4286 165.995 60.2645 166.421 60.4434L173.467 63.4005C173.894 63.5794 174.243 64.037 174.243 64.4168C174.243 64.7972 173.894 64.9613 173.467 64.7824Z" fill="url(#paint21_linear_2026_11628)"/>
<path d="M118.981 46.1058L153.351 60.4614V62.9336L118.981 48.5775V46.1058Z" fill="white"/>
<path d="M177.538 70.1014L201.193 80.0239V82.4955L177.538 72.573V70.1014Z" fill="white"/>
<path d="M121.563 39.2033L117.586 37.4321V33.8895L121.563 35.6607V39.2033Z" fill="url(#paint22_linear_2026_11628)"/>
<path d="M120.213 38.0313L119.868 37.3469C119.728 37.0814 119.64 36.9105 119.557 36.7341L119.548 36.7304C119.472 36.8356 119.396 36.9301 119.256 37.0778L118.932 37.4609L118.532 37.2828L119.357 36.4345L118.564 34.8948L118.969 35.0748L119.325 35.7967C119.425 35.998 119.501 36.1531 119.573 36.3134L119.584 36.3187C119.66 36.21 119.728 36.1298 119.828 36.0211L120.197 35.6218L120.597 35.8L119.776 36.6038L120.617 38.2112L120.213 38.0313Z" fill="white"/>
<path d="M209.234 93.4086L116.416 54.6404" stroke="#66B097" stroke-miterlimit="10"/>
<path d="M209.234 97.8947L116.416 59.126" stroke="#66B097" stroke-miterlimit="10"/>
<path d="M209.234 102.38L116.416 63.6117" stroke="#66B097" stroke-miterlimit="10"/>
<path d="M209.234 106.865L116.416 68.0973" stroke="#66B097" stroke-miterlimit="10"/>
<path d="M209.234 111.352L116.416 72.5829" stroke="#66B097" stroke-miterlimit="10"/>
<path d="M209.234 115.837L116.416 77.0685" stroke="#66B097" stroke-miterlimit="10"/>
<path d="M209.234 120.323L116.416 81.5542" stroke="#66B097" stroke-miterlimit="10"/>
<path d="M209.234 124.808L116.416 86.0403" stroke="#66B097" stroke-miterlimit="10"/>
<path d="M209.234 129.295L116.416 90.526" stroke="#66B097" stroke-miterlimit="10"/>
<path d="M209.234 133.78L116.416 95.0116" stroke="#66B097" stroke-miterlimit="10"/>
<path d="M209.234 138.266L116.416 99.4978" stroke="#66B097" stroke-miterlimit="10"/>
<path d="M130.467 55.4952V108.118" stroke="#66B097" stroke-miterlimit="10"/>
<path d="M119.87 51.0511V103.674" stroke="#66B097" stroke-miterlimit="10"/>
<path d="M142.289 60.3706V112.993" stroke="#66B097" stroke-miterlimit="10"/>
<path d="M154.109 65.2463V117.868" stroke="#66B097" stroke-miterlimit="10"/>
<path d="M165.933 70.1211V122.743" stroke="#66B097" stroke-miterlimit="10"/>
<path d="M177.753 74.9965V127.619" stroke="#66B097" stroke-miterlimit="10"/>
<path d="M189.573 79.8718V132.494" stroke="#66B097" stroke-miterlimit="10"/>
<path d="M201.396 84.7471V137.37" stroke="#66B097" stroke-miterlimit="10"/>
<path d="M193.901 107.637L172.359 98.6434C171.872 98.4404 171.312 98.7567 171.312 99.2362V116.972C171.312 117.375 171.573 117.74 171.982 117.911L194.057 127.127C194.368 127.257 194.726 127.054 194.726 126.748V108.792C194.726 108.297 194.404 107.847 193.901 107.637Z" fill="url(#paint23_linear_2026_11628)"/>
<path d="M172.462 116.999C172.451 116.994 172.443 116.983 172.443 116.972V99.7906L193.421 108.548C193.527 108.593 193.595 108.689 193.595 108.792V125.821L172.462 116.999Z" fill="white"/>
<path d="M188.717 111.878L184.869 115.425L178.944 106.492L172.443 112.367V116.972C172.443 116.983 172.451 116.994 172.462 116.999L193.595 125.821V117.613L188.717 111.878Z" fill="url(#paint24_linear_2026_11628)"/>
<path d="M189.585 108.314C189.206 107.912 188.713 107.593 188.173 107.436C186.979 107.088 186.01 107.669 186.01 108.733C186.01 109.797 186.979 110.942 188.173 111.289C189.183 111.583 190.031 111.214 190.269 110.451C190.313 110.311 190.337 110.157 190.337 109.992C190.337 109.409 190.045 108.801 189.585 108.314Z" fill="url(#paint25_linear_2026_11628)"/>
<path d="M101.71 121.877C101.71 121.877 102.513 123.204 104.175 123.987C105.837 124.77 106.122 124.918 106.027 125.341C105.932 125.764 104.578 126.716 103.082 126.462C101.586 126.209 100.304 124.204 99.4486 124.191C98.5937 124.178 97.6675 123.839 97.7626 122.993C97.8578 122.147 97.913 121.955 97.913 121.955L101.71 121.877Z" fill="url(#paint26_linear_2026_11628)"/>
<path d="M102.554 95.5436C102.554 95.5436 103.487 107.372 103.446 108.823C103.405 110.275 102.399 112.892 102.364 115.989C102.327 119.086 101.971 121.16 101.971 121.16C101.971 121.16 102.73 122.381 100.326 122.352C98.1821 122.327 97.9133 121.955 97.9133 121.955C97.9133 121.955 96.9883 115.936 97.1706 113.751C97.3529 111.566 97.9538 109.439 97.9538 109.439L94.7383 97.753L102.554 95.5436Z" fill="url(#paint27_linear_2026_11628)"/>
<path d="M93.7056 125.165C93.7056 125.165 93.7264 125.914 94.7477 126.76C95.7684 127.606 98.3333 129.214 98.1197 129.679C97.9062 130.145 97.0512 131.372 95.5788 131.245C94.1064 131.118 93.3465 129.214 92.4204 129.024C91.4942 128.833 90.1402 128.537 89.9979 127.586C89.8555 126.633 89.9979 125.703 89.9979 125.703L93.7056 125.165Z" fill="url(#paint28_linear_2026_11628)"/>
<path d="M88.3169 98.3818C88.3169 98.3818 88.0609 101.168 88.3169 102.228C88.5722 103.288 88.752 103.479 88.752 103.479L90.6492 111.717C90.6492 111.717 88.7612 114.375 88.752 118.551C88.7428 122.727 89.6082 125.619 89.6082 125.619C89.6082 125.619 89.9446 126.224 91.7729 126.222C93.602 126.22 93.7051 125.165 93.7051 125.165C93.7051 125.165 94.8792 116.842 95.9263 112.302C96.9733 107.762 98.0174 97.4312 98.0174 97.4312L88.3169 98.3818Z" fill="url(#paint29_linear_2026_11628)"/>
<path d="M99.1141 72.7689L105.924 76.1901L115.071 76.1961C115.071 76.1961 116.182 76.0992 116.369 77.4921C116.556 78.8849 116.272 78.984 116.272 78.984C116.272 78.984 108.451 79.9368 104.867 79.3813C101.283 78.8258 97.7031 77.4921 97.7031 77.4921L99.1141 72.7689Z" fill="url(#paint30_linear_2026_11628)"/>
<path d="M88.9782 76.0412C88.9782 76.0412 84.1019 77.5293 83.4298 79.1345C82.7578 80.7403 82.2594 89.7438 82.2594 89.7438C82.2594 89.7438 82.1563 90.6261 84.6371 90.4383C87.1185 90.2501 87.5838 89.6053 87.5838 89.6053L87.8428 98.1826C87.8428 98.1826 91.7862 100.146 96.4379 98.1826C101.09 96.2189 102.722 93.4879 102.722 93.4879C102.722 93.4879 101.676 74.1585 99.511 72.7689C98.4111 72.0629 88.9782 76.0412 88.9782 76.0412Z" fill="url(#paint31_linear_2026_11628)"/>
<path d="M101.35 97.3092L92.883 93.7764C92.5571 93.6401 92.5589 93.2258 92.8861 93.0923L105.198 88.061C105.591 87.9007 106.043 87.9023 106.434 88.0654L115.112 91.6863L101.35 97.3092Z" fill="url(#paint32_linear_2026_11628)"/>
<path d="M101.35 96.8385L92.883 93.3052C92.5571 93.1694 92.5589 92.7551 92.8861 92.621L105.198 87.5903C105.591 87.43 106.043 87.4316 106.434 87.5947L115.112 91.215L101.35 96.8385Z" fill="url(#paint33_linear_2026_11628)"/>
<path d="M115.112 91.6857V91.2145L101.351 96.8379V97.3086L115.112 91.6857Z" fill="#D6D3CE"/>
<path d="M104.209 90.2326L104.583 90.0778L104.925 90.2151L104.551 90.37L104.209 90.2326Z" fill="#B2B1AF"/>
<path d="M104.009 90.613L103.667 90.4751L104.042 90.3202L104.383 90.4576L104.009 90.613Z" fill="#B2B1AF"/>
<path d="M103.468 90.8559L103.126 90.7185L103.501 90.5631L103.842 90.701L103.468 90.8559Z" fill="#B2B1AF"/>
<path d="M102.927 91.0979L102.585 90.9606L102.96 90.8057L103.302 90.943L102.927 91.0979Z" fill="#B2B1AF"/>
<path d="M102.384 91.3409L102.043 91.203L102.417 91.0481L102.759 91.1855L102.384 91.3409Z" fill="#B2B1AF"/>
<path d="M101.843 91.5833L101.502 91.446L101.876 91.2905L102.218 91.4284L101.843 91.5833Z" fill="#B2B1AF"/>
<path d="M101.303 91.8269L100.961 91.6889L101.335 91.5341L101.677 91.6714L101.303 91.8269Z" fill="#B2B1AF"/>
<path d="M100.762 92.0693L100.42 91.9314L100.794 91.7765L101.136 91.9139L100.762 92.0693Z" fill="#B2B1AF"/>
<path d="M100.22 92.3118L99.8779 92.1744L100.253 92.0195L100.594 92.1569L100.22 92.3118Z" fill="#B2B1AF"/>
<path d="M99.6778 92.5543L99.3359 92.4164L99.7109 92.2615L100.053 92.3988L99.6778 92.5543Z" fill="#B2B1AF"/>
<path d="M99.1371 92.7973L98.7959 92.6599L99.1703 92.5045L99.5122 92.6424L99.1371 92.7973Z" fill="#B2B1AF"/>
<path d="M98.5952 93.0397L98.2539 92.9023L98.6283 92.7474L98.9702 92.8848L98.5952 93.0397Z" fill="#B2B1AF"/>
<path d="M98.0548 93.2827L97.7129 93.1448L98.0873 92.9899L98.4291 93.1272L98.0548 93.2827Z" fill="#B2B1AF"/>
<path d="M97.5459 93.2323L97.8872 93.3702L97.5128 93.5251L97.1709 93.3877L97.5459 93.2323Z" fill="#B2B1AF"/>
<path d="M104.742 90.451L105.117 90.2955L105.458 90.4329L105.084 90.5883L104.742 90.451Z" fill="#B2B1AF"/>
<path d="M104.918 90.676L104.543 90.8309L104.201 90.6935L104.576 90.5381L104.918 90.676Z" fill="#B2B1AF"/>
<path d="M104.376 90.9179L104.001 91.0733L103.659 90.9354L104.034 90.7805L104.376 90.9179Z" fill="#B2B1AF"/>
<path d="M103.835 91.1614L103.46 91.3162L103.118 91.1783L103.493 91.0234L103.835 91.1614Z" fill="#B2B1AF"/>
<path d="M103.292 91.4039L102.918 91.5587L102.576 91.4214L102.951 91.2665L103.292 91.4039Z" fill="#B2B1AF"/>
<path d="M102.752 91.6463L102.378 91.8017L102.036 91.6638L102.411 91.5089L102.752 91.6463Z" fill="#B2B1AF"/>
<path d="M102.21 91.8893L101.836 92.0441L101.494 91.9068L101.869 91.7513L102.21 91.8893Z" fill="#B2B1AF"/>
<path d="M101.669 92.1318L101.294 92.2866L100.952 92.1493L101.327 91.9944L101.669 92.1318Z" fill="#B2B1AF"/>
<path d="M101.128 92.3742L100.753 92.5296L100.411 92.3917L100.786 92.2368L101.128 92.3742Z" fill="#B2B1AF"/>
<path d="M100.586 92.6172L100.211 92.7721L99.8701 92.6347L100.245 92.4792L100.586 92.6172Z" fill="#B2B1AF"/>
<path d="M100.045 92.8597L99.6704 93.0145L99.3291 92.8772L99.7035 92.7223L100.045 92.8597Z" fill="#B2B1AF"/>
<path d="M98.7871 93.1202L99.1615 92.9653L99.5034 93.1027L99.129 93.2581L98.7871 93.1202Z" fill="#B2B1AF"/>
<path d="M98.2471 93.3626L98.6215 93.2072L98.9633 93.3451L98.5889 93.5L98.2471 93.3626Z" fill="#B2B1AF"/>
<path d="M98.4214 93.5876L98.0469 93.743L97.7051 93.6051L98.0801 93.4502L98.4214 93.5876Z" fill="#B2B1AF"/>
<path d="M105.452 90.8933L105.077 91.0487L104.735 90.9108L104.911 90.838L104.9 90.8336L105.652 90.5134L105.994 90.6508L105.437 90.8878L105.452 90.8933Z" fill="#B2B1AF"/>
<path d="M104.535 91.2911L104.193 91.1537L104.568 90.9983L104.91 91.1362L104.535 91.2911Z" fill="#B2B1AF"/>
<path d="M104.37 91.3786L103.995 91.5335L103.653 91.3961L104.028 91.2412L104.37 91.3786Z" fill="#B2B1AF"/>
<path d="M103.828 91.6216L103.453 91.7771L103.111 91.6391L103.486 91.4843L103.828 91.6216Z" fill="#B2B1AF"/>
<path d="M103.287 91.8641L102.912 92.019L102.57 91.8816L102.945 91.7262L103.287 91.8641Z" fill="#B2B1AF"/>
<path d="M102.745 92.1066L102.37 92.2615L102.028 92.1241L102.403 91.9692L102.745 92.1066Z" fill="#B2B1AF"/>
<path d="M102.202 92.349L101.827 92.5045L101.485 92.3666L101.86 92.2117L102.202 92.349Z" fill="#B2B1AF"/>
<path d="M101.663 92.5925L101.288 92.7474L100.946 92.61L101.321 92.4546L101.663 92.5925Z" fill="#B2B1AF"/>
<path d="M100.403 92.8525L100.778 92.6976L101.12 92.835L100.745 92.9899L100.403 92.8525Z" fill="#B2B1AF"/>
<path d="M100.238 92.9396L100.58 93.0769L100.024 93.3139L100.038 93.3199L99.6633 93.4748L99.3214 93.3375L99.3276 93.3353L99.3184 93.3314L100.238 92.9396Z" fill="#B2B1AF"/>
<path d="M98.7793 93.5804L99.1543 93.4255L99.4962 93.5629L99.1212 93.7183L98.7793 93.5804Z" fill="#B2B1AF"/>
<path d="M98.9552 93.8059L98.5801 93.9608L98.2383 93.8229L98.6133 93.668L98.9552 93.8059Z" fill="#B2B1AF"/>
<path d="M105.81 90.8856L106.185 90.7307L106.526 90.8681L106.151 91.0235L105.81 90.8856Z" fill="#B2B1AF"/>
<path d="M105.985 91.1116L105.61 91.2664L105.269 91.1291L105.644 90.9736L105.985 91.1116Z" fill="#B2B1AF"/>
<path d="M105.444 91.354L105.069 91.5095L104.728 91.3716L105.102 91.2167L105.444 91.354Z" fill="#B2B1AF"/>
<path d="M104.903 91.596L104.528 91.7514L104.187 91.6141L104.561 91.4586L104.903 91.596Z" fill="#B2B1AF"/>
<path d="M103.645 91.8565L104.019 91.701L104.361 91.839L103.986 91.9939L103.645 91.8565Z" fill="#B2B1AF"/>
<path d="M103.104 92.0995L103.478 91.9446L103.82 92.082L103.445 92.2374L103.104 92.0995Z" fill="#B2B1AF"/>
<path d="M102.562 92.3424L102.938 92.187L103.279 92.3249L102.904 92.4798L102.562 92.3424Z" fill="#B2B1AF"/>
<path d="M102.021 92.5849L102.396 92.4301L102.737 92.5674L102.362 92.7223L102.021 92.5849Z" fill="#B2B1AF"/>
<path d="M101.479 92.8268L101.854 92.6719L102.196 92.8092L101.821 92.9647L101.479 92.8268Z" fill="#B2B1AF"/>
<path d="M100.938 93.0699L101.312 92.9144L101.654 93.0523L101.279 93.2072L100.938 93.0699Z" fill="#B2B1AF"/>
<path d="M100.397 93.3128L100.772 93.158L101.114 93.2953L100.739 93.4502L100.397 93.3128Z" fill="#B2B1AF"/>
<path d="M99.8555 93.5553L100.23 93.4004L100.572 93.5378L100.197 93.6932L99.8555 93.5553Z" fill="#B2B1AF"/>
<path d="M99.3135 93.7983L99.6885 93.6428L100.03 93.7807L99.6553 93.9356L99.3135 93.7983Z" fill="#B2B1AF"/>
<path d="M99.4893 94.0237L99.1143 94.1786L98.7725 94.0412L99.1475 93.8864L99.4893 94.0237Z" fill="#B2B1AF"/>
<path d="M106.343 91.1039L106.718 90.9485L107.06 91.0864L106.685 91.2413L106.343 91.1039Z" fill="#B2B1AF"/>
<path d="M106.519 91.3283L106.144 91.4837L105.803 91.3458L106.177 91.1909L106.519 91.3283Z" fill="#B2B1AF"/>
<path d="M105.261 91.5882L105.635 91.4333L105.977 91.5713L105.603 91.7261L105.261 91.5882Z" fill="#B2B1AF"/>
<path d="M104.72 91.8319L105.094 91.677L105.436 91.8144L105.062 91.9693L104.72 91.8319Z" fill="#B2B1AF"/>
<path d="M104.178 92.0742L104.553 91.9193L104.894 92.0567L104.52 92.2121L104.178 92.0742Z" fill="#B2B1AF"/>
<path d="M103.636 92.3173L104.011 92.1619L104.353 92.2998L103.978 92.4547L103.636 92.3173Z" fill="#B2B1AF"/>
<path d="M103.096 92.5603L103.471 92.4054L103.813 92.5428L103.438 92.6976L103.096 92.5603Z" fill="#B2B1AF"/>
<path d="M102.554 92.8022L102.928 92.6473L103.27 92.7847L102.896 92.9401L102.554 92.8022Z" fill="#B2B1AF"/>
<path d="M102.013 93.0452L102.387 92.8898L102.729 93.0277L102.354 93.1826L102.013 93.0452Z" fill="#B2B1AF"/>
<path d="M101.472 93.2876L101.846 93.1327L102.188 93.2701L101.814 93.4249L101.472 93.2876Z" fill="#B2B1AF"/>
<path d="M100.931 93.5301L101.305 93.3752L101.647 93.5126L101.273 93.668L100.931 93.5301Z" fill="#B2B1AF"/>
<path d="M100.389 93.7736L100.764 93.6182L101.105 93.7561L100.731 93.911L100.389 93.7736Z" fill="#B2B1AF"/>
<path d="M99.8467 94.0156L100.222 93.8607L100.564 93.9981L100.189 94.153L99.8467 94.0156Z" fill="#B2B1AF"/>
<path d="M100.023 94.2409L99.6479 94.3958L99.3066 94.2585L99.681 94.103L100.023 94.2409Z" fill="#B2B1AF"/>
<path d="M107.253 91.1663L107.595 91.3036L107.22 91.4591L106.878 91.3211L107.253 91.1663Z" fill="#B2B1AF"/>
<path d="M106.711 91.4088L107.053 91.5467L106.678 91.7016L106.337 91.5642L106.711 91.4088Z" fill="#B2B1AF"/>
<path d="M103.681 92.7562L104.176 92.5367L104.172 92.5345L104.304 92.4798L104.721 92.2948L104.713 92.2921L104.926 92.2039L105.265 92.0534L105.255 92.0491L105.548 91.9276L106.17 91.6517L106.512 91.7891L105.968 92.0305L105.971 92.0315L105.89 92.0649L105.424 92.2724L105.429 92.2745L105.267 92.3413L104.879 92.5137L104.888 92.517L104.646 92.6177L104.335 92.7551L104.347 92.76L104.023 92.8935L103.976 92.9149L103.974 92.9138L103.972 92.9149L103.63 92.7775L103.681 92.7562Z" fill="#B2B1AF"/>
<path d="M103.462 92.8645L103.804 93.0024L103.429 93.1573L103.088 93.0199L103.462 92.8645Z" fill="#B2B1AF"/>
<path d="M102.922 93.1082L103.264 93.2455L102.89 93.4004L102.548 93.263L102.922 93.1082Z" fill="#B2B1AF"/>
<path d="M102.38 93.3506L102.722 93.4885L102.348 93.6434L102.006 93.506L102.38 93.3506Z" fill="#B2B1AF"/>
<path d="M101.84 93.593L102.181 93.7304L101.807 93.8853L101.465 93.7479L101.84 93.593Z" fill="#B2B1AF"/>
<path d="M101.299 93.8354L101.641 93.9728L101.266 94.1277L100.924 93.9903L101.299 93.8354Z" fill="#B2B1AF"/>
<path d="M100.756 94.0785L101.098 94.2164L100.723 94.3713L100.382 94.2334L100.756 94.0785Z" fill="#B2B1AF"/>
<path d="M100.557 94.4588L100.182 94.6137L99.8408 94.4763L100.215 94.3214L100.557 94.4588Z" fill="#B2B1AF"/>
<path d="M116.829 79.4679C113.906 80.6419 106.236 83.9371 104.071 84.8697C103.704 85.0273 103.438 85.3218 103.343 85.6737L100.555 95.9262C100.446 96.3285 100.909 96.6639 101.328 96.4839C104.162 95.2645 111.917 91.938 114.149 91.0728C114.531 90.925 114.814 90.6273 114.912 90.2666L117.677 80.0962C117.798 79.6535 117.295 79.2802 116.829 79.4679Z" fill="url(#paint34_linear_2026_11628)"/>
<path d="M117.39 79.7722C114.467 80.9461 106.798 84.2419 104.632 85.1745C104.266 85.3321 104 85.6266 103.904 85.9785L101.117 96.231C101.008 96.6332 101.471 96.9687 101.89 96.7881C104.723 95.5693 112.479 92.2423 114.711 91.3776C115.093 91.2298 115.376 90.9321 115.474 90.5714L118.239 80.401C118.36 79.9577 117.857 79.585 117.39 79.7722Z" fill="url(#paint35_linear_2026_11628)"/>
<path d="M86.9642 89.9825V90.6678C86.9642 90.6678 93.8831 94.8671 94.4766 94.7331C95.0701 94.599 96.0067 94.1256 96.8187 94.0982C97.6307 94.0703 98.1309 94.0424 98.1309 94.0424C98.1309 94.0424 98.2555 94.3483 97.5061 94.5711C96.7567 94.7933 96.6315 95.2919 97.3809 95.6405C98.1309 95.9897 98.8803 96.1013 98.8803 96.1013C98.8803 96.1013 97.7559 97.1308 96.0067 96.908C94.2581 96.6853 92.9226 96.0455 92.9226 96.0455C92.9226 96.0455 82.8575 92.7349 82.5764 92.2341C82.2953 91.7333 82.4739 90.1292 82.4739 90.1292C82.4739 90.1292 84.6368 90.8188 86.9642 89.9825Z" fill="url(#paint36_linear_2026_11628)"/>
<path d="M94.5398 66.0132C94.5398 66.0132 95.5721 67.3267 95.3873 67.9178C95.2032 68.5088 94.9743 68.6566 94.9743 68.6566C94.9743 68.6566 95.793 68.9686 95.8299 69.8224C95.8667 70.6761 95.8851 73.1723 95.4058 73.8619C94.9264 74.5515 93.9868 74.3709 93.9868 74.3709V75.3889C93.9868 75.3889 94.1261 76.6115 92.2823 76.8086C90.4392 77.0056 88.9772 76.0418 88.9772 76.0418C88.9772 76.0418 89.2491 73.238 88.3641 72.2529C87.479 71.2672 86.2258 69.8223 87.7374 68.2954C89.2491 66.7684 93.0096 65.5534 93.0649 65.5699C93.1201 65.5863 94.5398 66.0132 94.5398 66.0132Z" fill="url(#paint37_linear_2026_11628)"/>
<path d="M95.1299 63.8947C95.1299 63.8947 95.6093 65.0111 94.4106 66.5053C93.2126 67.9994 91.8856 68.3113 90.9453 68.3606C90.0051 68.4098 89.8025 68.3606 89.8025 68.3606C89.8025 68.3606 90.9821 69.4776 90.6685 69.7567C90.3555 70.0359 89.9498 70.2 90.0787 70.6269C90.2082 71.0538 90.558 71.8419 90.3003 72.0061C90.0419 72.1703 89.2311 70.6598 88.6229 70.6598C88.014 70.6598 88.1251 71.6449 88.6229 72.0882C89.12 72.5315 89.4521 73.0898 88.5302 73.1062C87.6089 73.1226 85.249 71.5956 85.249 69.8224C85.249 68.0486 86.0236 67.4247 86.0236 67.4247C86.0236 67.4247 84.8617 64.8634 88.7518 64.4201C92.6412 63.9768 95.1299 63.8947 95.1299 63.8947Z" fill="url(#paint38_linear_2026_11628)"/>
<path d="M84.0493 78.8172C84.0493 78.8172 88.5843 78.6749 88.3327 83.033C88.0804 87.3911 86.9646 90.6678 86.9646 90.6678L94.3095 94.3713C94.3095 94.3713 93.8756 95.0587 93.6865 95.8818C93.4975 96.705 93.3717 97.5467 93.3717 97.5467C93.3717 97.5467 82.3485 93.847 81.7814 92.5548C81.2149 91.2627 82.0969 79.7257 84.0493 78.8172Z" fill="url(#paint39_linear_2026_11628)"/>
<path d="M115.869 76.4643C115.682 76.3203 119.092 76.0002 120.031 76.1627C120.972 76.3247 121.531 77.4915 122.374 77.8451C123.217 78.1992 124.518 77.786 124.93 78.3201C125.343 78.8549 122.526 78.6983 121.74 78.8176C120.955 78.9375 120.497 79.7683 119.433 79.7229C118.369 79.678 116.273 78.9846 116.273 78.9846C116.273 78.9846 116.879 77.2414 115.869 76.4643Z" fill="url(#paint40_linear_2026_11628)"/>
<path d="M177.937 97.3092L180.899 96.5983C180.421 96.9923 179.885 97.3037 179.299 97.5243H179.298C179.212 97.5571 179.123 97.5883 179.034 97.6168L175.846 98.7327C176.037 98.6583 176.223 98.574 176.404 98.4804C176.432 98.4645 176.462 98.4498 176.49 98.4333C176.499 98.4295 176.506 98.4251 176.513 98.4213C176.543 98.4049 176.571 98.3896 176.6 98.3731C176.645 98.3469 176.69 98.3206 176.734 98.2932C176.77 98.2724 176.804 98.2506 176.838 98.2287C176.966 98.1471 177.09 98.0606 177.211 97.9681C177.243 97.9435 177.274 97.9194 177.305 97.8943L177.306 97.8932C177.333 97.8729 177.358 97.8527 177.383 97.8313C177.578 97.671 177.762 97.4969 177.937 97.3092Z" fill="url(#paint41_linear_2026_11628)"/>
<path d="M175.854 81.2345C175.814 81.1836 175.773 81.1332 175.732 81.0834C175.692 81.0331 175.651 80.9833 175.609 80.9335C175.301 80.5624 174.98 80.2045 174.647 79.863C174.579 79.7918 174.51 79.7218 174.44 79.6528C174.367 79.5795 174.293 79.5078 174.219 79.4366C174.183 79.4021 174.146 79.3671 174.11 79.3332C174.04 79.2664 173.97 79.2018 173.9 79.1372C173.816 79.0612 173.733 78.9867 173.649 78.9118C173.618 78.8849 173.586 78.8581 173.555 78.8313C173.517 78.7985 173.48 78.7667 173.442 78.7344C173.178 78.5095 172.908 78.2944 172.633 78.0908C172.596 78.0624 172.558 78.035 172.521 78.0076C172.362 77.8911 172.2 77.7789 172.038 77.67C171.998 77.6426 171.958 77.6163 171.917 77.5895C171.783 77.5014 171.648 77.416 171.513 77.3339C171.461 77.3016 171.409 77.2704 171.356 77.2398C171.303 77.2086 171.251 77.1779 171.199 77.1484C170.78 76.9076 170.351 76.6925 169.918 76.5053C167.906 75.6378 166.036 75.489 164.472 75.946L167.604 74.8421C169.24 74.2379 171.254 74.3342 173.433 75.2728C176.891 76.7647 179.936 80.0239 181.711 83.7411L178.222 85.0283C178.195 84.9703 178.168 84.9118 178.138 84.8532C178.11 84.7952 178.082 84.7372 178.052 84.6792C178.024 84.6212 177.995 84.5626 177.965 84.5051C177.903 84.3842 177.839 84.2627 177.774 84.1417C177.747 84.0914 177.72 84.0405 177.691 83.9896C177.659 83.9327 177.628 83.8757 177.596 83.8194C177.564 83.7624 177.532 83.7061 177.499 83.6502C177.435 83.5375 177.369 83.4248 177.301 83.3142C177.268 83.2578 177.234 83.202 177.199 83.1473C177.131 83.0362 177.062 82.9256 176.991 82.8173C176.921 82.7067 176.849 82.5978 176.776 82.4905C176.771 82.4845 176.768 82.4779 176.763 82.4719C176.732 82.4243 176.699 82.3767 176.666 82.3296C176.593 82.2224 176.517 82.1162 176.441 82.01C176.328 81.8524 176.212 81.6959 176.093 81.541C176.055 81.4895 176.015 81.4381 175.975 81.3872C175.935 81.3357 175.895 81.2854 175.854 81.2345Z" fill="url(#paint42_linear_2026_11628)"/>
<path d="M179.84 91.7005C179.84 91.7864 179.839 91.8702 179.838 91.9544C179.836 92.0185 179.834 92.082 179.831 92.1454C179.829 92.2062 179.827 92.2675 179.823 92.3288C179.815 92.4848 179.804 92.6391 179.789 92.7907C179.782 92.858 179.776 92.9253 179.768 92.9927C179.761 93.0452 179.755 93.0977 179.748 93.1497C179.743 93.1891 179.738 93.2285 179.732 93.2674C179.723 93.3293 179.714 93.3894 179.704 93.4497C179.688 93.5498 179.67 93.6489 179.652 93.7463C179.646 93.7769 179.639 93.8076 179.633 93.8382C179.623 93.8924 179.611 93.9471 179.598 94.0008C179.57 94.1288 179.539 94.2547 179.504 94.379C179.491 94.4282 179.478 94.4769 179.464 94.5251C179.458 94.5481 179.451 94.5705 179.444 94.5935C179.428 94.6444 179.412 94.6947 179.397 94.7451C179.377 94.8053 179.358 94.865 179.337 94.9241C179.317 94.9826 179.296 95.0401 179.275 95.0981C179.255 95.1496 179.236 95.2004 179.216 95.2508C179.211 95.2639 179.205 95.2771 179.2 95.2897C179.18 95.3395 179.159 95.3887 179.139 95.4374C179.115 95.4933 179.091 95.5485 179.066 95.6027C179.05 95.6372 179.034 95.6711 179.017 95.7045C179.011 95.7182 179.005 95.7308 178.999 95.7434C178.987 95.768 178.975 95.7926 178.962 95.8167C178.945 95.8517 178.927 95.8873 178.909 95.9218C178.883 95.9738 178.855 96.0252 178.826 96.0767C178.793 96.1369 178.759 96.1965 178.724 96.2556C178.702 96.2912 178.681 96.3262 178.659 96.3613C178.655 96.3689 178.65 96.3766 178.644 96.3848C178.616 96.4302 178.587 96.4751 178.558 96.5189C178.528 96.566 178.496 96.6114 178.464 96.6568C178.427 96.7115 178.388 96.7641 178.349 96.8172C178.32 96.8549 178.291 96.8932 178.261 96.9304C178.233 96.9671 178.205 97.0027 178.176 97.0377C178.098 97.1308 178.02 97.2216 177.939 97.3086C177.764 97.4964 177.579 97.6709 177.384 97.8313C177.359 97.8526 177.334 97.8729 177.308 97.8931L177.306 97.8942C177.275 97.9189 177.244 97.9435 177.212 97.9681C177.092 98.0606 176.968 98.1471 176.839 98.2281C176.805 98.2505 176.77 98.2724 176.736 98.2932C176.691 98.3206 176.646 98.3468 176.601 98.3731C176.573 98.3895 176.544 98.4049 176.515 98.4213C176.507 98.4251 176.5 98.4295 176.491 98.4333C176.463 98.4497 176.434 98.4645 176.405 98.4804C176.224 98.574 176.038 98.6583 175.847 98.7327L175.457 98.869C175.454 98.8701 175.453 98.8706 175.45 98.8712C173.87 99.3599 171.966 99.2225 169.917 98.3392C164.437 95.976 159.994 89.1731 159.994 83.143C159.994 79.3262 161.775 76.7347 164.472 75.9455C166.035 75.4885 167.907 75.6379 169.917 76.5048C170.352 76.692 170.78 76.9077 171.199 77.1479C171.252 77.1786 171.305 77.2087 171.357 77.2399C171.409 77.2705 171.461 77.3017 171.513 77.3335C171.648 77.4156 171.784 77.5015 171.917 77.589C171.958 77.6159 171.998 77.6421 172.038 77.6695C172.201 77.7784 172.362 77.8911 172.521 78.0072C172.558 78.0345 172.596 78.0625 172.634 78.0904C172.908 78.294 173.178 78.5096 173.442 78.7345C173.48 78.7663 173.518 78.7986 173.556 78.8314C173.586 78.8582 173.618 78.885 173.649 78.9118C173.734 78.9863 173.817 79.0607 173.9 79.1368C173.971 79.2014 174.041 79.2665 174.11 79.3327C174.147 79.3672 174.183 79.4022 174.219 79.4362C174.294 79.5079 174.367 79.5796 174.44 79.6523C174.51 79.7219 174.58 79.7919 174.647 79.8625C174.98 80.2046 175.301 80.5619 175.609 80.933C175.651 80.9823 175.692 81.0321 175.733 81.083C175.773 81.1328 175.814 81.1837 175.854 81.234C175.895 81.2849 175.935 81.3353 175.975 81.3873C176.015 81.4376 176.054 81.4891 176.093 81.5405C176.212 81.6954 176.328 81.8519 176.441 82.0101C176.517 82.1157 176.592 82.2224 176.666 82.3297C176.699 82.3762 176.731 82.4244 176.763 82.472C176.768 82.478 176.772 82.4846 176.776 82.4906C176.849 82.5984 176.92 82.7073 176.991 82.8168C177.061 82.9257 177.131 83.0357 177.199 83.1468C177.233 83.2021 177.267 83.2579 177.301 83.3138C177.368 83.4249 177.434 83.5365 177.5 83.6498C177.532 83.7056 177.564 83.7625 177.596 83.8189C177.627 83.8758 177.659 83.9322 177.691 83.9897C177.719 84.04 177.747 84.0909 177.774 84.1418C177.839 84.2622 177.902 84.3837 177.964 84.5052C177.994 84.5632 178.023 84.6207 178.052 84.6787C178.082 84.7367 178.11 84.7953 178.139 84.8533C178.166 84.9113 178.195 84.9704 178.222 85.0284C178.254 85.0952 178.285 85.1631 178.317 85.2309C178.379 85.3667 178.439 85.5024 178.498 85.6387C178.522 85.695 178.547 85.7509 178.57 85.8078C178.614 85.9107 178.656 86.0136 178.695 86.1153C178.734 86.2117 178.771 86.3069 178.808 86.4032C178.819 86.4322 178.829 86.4612 178.84 86.4897C178.858 86.5373 178.875 86.5849 178.892 86.6325C178.947 86.7836 179 86.9357 179.05 87.0873C179.064 87.1278 179.078 87.1683 179.09 87.2094C179.106 87.2576 179.122 87.3068 179.137 87.3561C179.15 87.3955 179.161 87.4343 179.173 87.4737C179.196 87.5454 179.216 87.6171 179.237 87.6877C179.264 87.7769 179.289 87.8667 179.313 87.9559C179.334 88.032 179.354 88.1086 179.374 88.1847C179.384 88.2235 179.394 88.2629 179.404 88.3023C179.421 88.3746 179.439 88.4479 179.456 88.5202C179.459 88.5317 179.462 88.5448 179.465 88.5574C179.484 88.6389 179.502 88.721 179.52 88.8031C179.529 88.848 179.539 88.8923 179.548 88.9372C179.561 89.0007 179.574 89.0636 179.585 89.1266C179.603 89.2136 179.619 89.3017 179.634 89.3887C179.638 89.4155 179.643 89.4424 179.647 89.4692C179.659 89.5354 179.669 89.6011 179.679 89.6673C179.684 89.6914 179.687 89.7149 179.69 89.739C179.703 89.8222 179.714 89.9059 179.725 89.9886C179.736 90.0728 179.747 90.1571 179.756 90.2409C179.756 90.2425 179.756 90.2447 179.757 90.2463C179.763 90.3016 179.769 90.3569 179.774 90.4116C179.776 90.4319 179.778 90.4521 179.78 90.4729C179.785 90.5167 179.789 90.561 179.792 90.6048C179.799 90.6858 179.806 90.7674 179.811 90.8484C179.816 90.9151 179.82 90.9824 179.822 91.0498C179.823 91.0591 179.824 91.0684 179.824 91.0777C179.827 91.1209 179.828 91.1641 179.83 91.2074C179.833 91.2709 179.835 91.3349 179.836 91.3984C179.836 91.4093 179.836 91.4203 179.836 91.4312C179.839 91.521 179.84 91.6113 179.84 91.7005Z" fill="url(#paint43_linear_2026_11628)"/>
<path d="M175.847 98.7327C175.72 98.7825 175.589 98.8279 175.457 98.8689L175.847 98.7327Z" fill="url(#paint44_linear_2026_11628)"/>
<path d="M179.839 91.701C179.839 91.7869 179.839 91.8712 179.837 91.9555C179.836 92.0195 179.834 92.0825 179.831 92.146C179.829 92.2073 179.826 92.268 179.823 92.3293C179.814 92.4858 179.804 92.6402 179.788 92.7912C179.782 92.8591 179.775 92.9259 179.767 92.9932C179.761 93.0463 179.755 93.0983 179.747 93.1502C179.742 93.1897 179.737 93.2296 179.731 93.2679C179.723 93.3298 179.714 93.3905 179.704 93.4507C179.688 93.5503 179.669 93.6494 179.651 93.7473C179.645 93.778 179.639 93.8081 179.633 93.8387C179.622 93.8935 179.61 93.9477 179.597 94.0013C179.569 94.1294 179.539 94.2552 179.504 94.38C179.491 94.4287 179.477 94.4774 179.463 94.5261C179.457 94.5491 179.451 94.5716 179.443 94.5946C179.428 94.6449 179.412 94.6958 179.396 94.7456C179.377 94.8064 179.357 94.8655 179.337 94.9246C179.316 94.9837 179.296 95.0406 179.274 95.0992C179.255 95.1506 179.235 95.201 179.216 95.2519C179.21 95.2644 179.205 95.2776 179.2 95.2907C179.18 95.3405 179.159 95.3898 179.138 95.4379C179.114 95.4938 179.09 95.549 179.065 95.6032C179.049 95.6377 179.033 95.6722 179.016 95.7056C179.011 95.7187 179.005 95.7318 178.998 95.7444C178.986 95.7691 178.975 95.7931 178.962 95.8172C178.944 95.8522 178.927 95.8884 178.909 95.9223C178.882 95.9743 178.854 96.0257 178.826 96.0772C178.792 96.1379 178.758 96.197 178.723 96.2561C178.702 96.2917 178.68 96.3267 178.658 96.3618C178.654 96.3694 178.649 96.3776 178.643 96.3859C178.615 96.4313 178.587 96.4762 178.557 96.5199C178.527 96.567 178.495 96.6124 178.463 96.6579C178.426 96.712 178.387 96.7651 178.348 96.8177C178.32 96.856 178.29 96.8937 178.261 96.931C178.232 96.9676 178.204 97.0032 178.175 97.0382C178.098 97.1318 178.019 97.2227 177.938 97.3097L169.916 87.6494L178.222 85.0289C178.253 85.0962 178.285 85.1636 178.317 85.2314C178.378 85.3672 178.439 85.5029 178.498 85.6392C178.522 85.6961 178.546 85.7519 178.569 85.8083C178.613 85.9112 178.655 86.0141 178.695 86.1159C178.734 86.2122 178.771 86.3074 178.807 86.4037C178.818 86.4327 178.829 86.4617 178.84 86.4902C178.857 86.5378 178.875 86.5854 178.892 86.6331C178.947 86.7847 179 86.9363 179.05 87.0879C179.064 87.1289 179.078 87.1689 179.09 87.2099C179.106 87.2586 179.122 87.3079 179.137 87.3566C179.149 87.396 179.161 87.4348 179.173 87.4742C179.195 87.5459 179.216 87.6176 179.237 87.6882C179.263 87.778 179.288 87.8672 179.313 87.9564C179.334 88.0325 179.353 88.1091 179.373 88.1852C179.384 88.224 179.394 88.2635 179.404 88.3029C179.421 88.3751 179.439 88.4484 179.456 88.5207C179.459 88.5327 179.461 88.5453 179.465 88.5579C179.484 88.64 179.502 88.7221 179.52 88.8036C179.529 88.8485 179.539 88.8934 179.548 88.9377C179.561 89.0012 179.574 89.0647 179.585 89.1271C179.602 89.2141 179.618 89.3022 179.634 89.3892C179.638 89.4161 179.643 89.4429 179.647 89.4697C179.659 89.5365 179.669 89.6016 179.679 89.6678C179.683 89.6919 179.686 89.716 179.69 89.7395C179.702 89.8232 179.714 89.9064 179.725 89.9891C179.736 90.0734 179.747 90.1576 179.756 90.2419C179.756 90.2436 179.756 90.2458 179.756 90.2468C179.763 90.3021 179.769 90.3574 179.774 90.4127C179.776 90.4324 179.778 90.4526 179.779 90.4734C179.784 90.5178 179.788 90.5615 179.792 90.6053C179.799 90.6869 179.806 90.7679 179.81 90.8489C179.815 90.9162 179.82 90.983 179.822 91.0503C179.823 91.0601 179.824 91.0689 179.824 91.0787C179.826 91.122 179.828 91.1652 179.829 91.2079C179.832 91.2714 179.834 91.3354 179.836 91.3989C179.836 91.4098 179.836 91.4213 179.836 91.4317C179.839 91.5215 179.839 91.6118 179.839 91.701Z" fill="url(#paint45_linear_2026_11628)"/>
<path d="M183.355 90.469C183.355 92.2762 182.956 93.808 182.249 95.0044C181.879 95.6311 181.425 96.1647 180.9 96.5981L177.938 97.3091C178.019 97.2221 178.097 97.1312 178.174 97.0382C178.203 97.0021 178.232 96.9665 178.26 96.9309C178.29 96.8931 178.319 96.8554 178.347 96.8176C178.387 96.7645 178.425 96.7114 178.463 96.6573C178.494 96.6118 178.526 96.5664 178.556 96.5193C178.586 96.4756 178.615 96.4307 178.643 96.3852C178.648 96.377 178.653 96.3688 178.657 96.3617C178.68 96.3267 178.701 96.2917 178.722 96.2555C178.757 96.197 178.791 96.1373 178.825 96.0771C178.853 96.0262 178.881 95.9742 178.908 95.9217C178.926 95.8878 178.945 95.8516 178.961 95.8166C178.974 95.7931 178.986 95.7684 178.997 95.7438C179.004 95.7312 179.01 95.7186 179.016 95.705C179.032 95.6716 179.048 95.6371 179.064 95.6032C179.089 95.5484 179.113 95.4937 179.137 95.4373C179.159 95.3892 179.179 95.3399 179.199 95.2901C179.204 95.2775 179.21 95.2638 179.215 95.2513C179.235 95.2004 179.254 95.15 179.273 95.0986C179.295 95.0411 179.316 94.9831 179.336 94.924C179.357 94.8654 179.376 94.8058 179.395 94.745C179.412 94.6952 179.427 94.6449 179.442 94.594C179.45 94.571 179.457 94.5485 179.462 94.5255C179.476 94.4768 179.491 94.4287 179.503 94.3794C179.538 94.2557 179.568 94.1288 179.597 94.0007C179.609 93.9471 179.621 93.8929 179.632 93.8381C179.638 93.808 179.644 93.7774 179.651 93.7467C179.67 93.6493 179.687 93.5503 179.703 93.4501C179.713 93.3899 179.722 93.3292 179.731 93.2679C179.736 93.229 179.741 93.1896 179.747 93.1496C179.754 93.0977 179.76 93.0457 179.766 92.9926C179.774 92.9258 179.781 92.8585 179.787 92.7906C179.803 92.6396 179.814 92.4852 179.822 92.3287C179.825 92.2685 179.828 92.2072 179.83 92.1454C179.833 92.0824 179.835 92.0189 179.836 91.9549C179.838 91.8706 179.839 91.7863 179.839 91.701C179.839 91.6112 179.838 91.5209 179.835 91.4311C179.835 91.4207 179.835 91.4092 179.835 91.3983C179.833 91.3348 179.831 91.2713 179.828 91.2073C179.827 91.1646 179.825 91.1214 179.823 91.0781C179.823 91.0683 179.822 91.0595 179.821 91.0497C179.819 90.9824 179.814 90.9156 179.809 90.8483C179.805 90.7673 179.798 90.6863 179.791 90.6047C179.787 90.5609 179.784 90.5166 179.778 90.4728C179.777 90.452 179.775 90.4318 179.773 90.4121C179.768 90.3568 179.762 90.3015 179.756 90.2462C179.755 90.2451 179.755 90.2424 179.755 90.2413C179.746 90.157 179.735 90.0728 179.724 89.9885C179.713 89.9058 179.701 89.8226 179.689 89.7389C179.685 89.7154 179.682 89.6913 179.678 89.6672C179.668 89.6021 179.658 89.5359 179.646 89.4691C179.642 89.4423 179.637 89.4154 179.633 89.3886C179.618 89.3016 179.601 89.2135 179.584 89.1265C179.573 89.0641 179.56 89.0006 179.547 88.9371C179.538 88.8922 179.528 88.8479 179.519 88.803C179.501 88.7209 179.483 88.6394 179.464 88.5573C179.46 88.5447 179.458 88.5321 179.455 88.5201C179.438 88.4478 179.42 88.3745 179.403 88.3022C179.393 88.2628 179.383 88.2234 179.372 88.1846C179.353 88.1085 179.333 88.0319 179.312 87.9558C179.288 87.8666 179.263 87.7774 179.236 87.6876C179.215 87.617 179.194 87.5453 179.172 87.4736C179.161 87.4342 179.148 87.3959 179.136 87.356C179.121 87.3073 179.105 87.2586 179.089 87.2093C179.077 87.1683 179.063 87.1283 179.049 87.0873C178.999 86.9356 178.946 86.7841 178.891 86.6325C178.875 86.5848 178.858 86.5372 178.839 86.4896C178.828 86.4611 178.817 86.4321 178.807 86.4031C178.77 86.3068 178.734 86.211 178.694 86.1153C178.654 86.0135 178.613 85.9106 178.569 85.8077C178.546 85.7513 178.522 85.6944 178.497 85.6386C178.439 85.5023 178.378 85.3666 178.316 85.2308C178.285 85.1635 178.254 85.0956 178.221 85.0283L181.71 83.7411C182.749 85.9144 183.355 88.2442 183.355 90.469Z" fill="url(#paint46_linear_2026_11628)"/>
<path d="M158.271 153.882C158.271 153.882 160.182 152.978 161.367 153.557C162.553 154.135 162.264 155.567 160.618 156.367C158.972 157.168 158.411 158.582 157.38 158.901C156.348 159.221 153.795 158.978 153.804 157.982C153.813 156.986 154.078 155.266 154.078 155.266L158.271 153.882Z" fill="url(#paint47_linear_2026_11628)"/>
<path d="M162.715 158.993C162.715 158.993 161.743 161.263 162.877 161.753C164.011 162.243 165.593 162.652 166.803 161.902C168.012 161.151 169.412 160.091 170.529 159.556C171.646 159.021 172.617 158.252 171.422 157.523C170.228 156.794 169.684 156.759 168.095 157.376C166.505 157.993 162.715 158.993 162.715 158.993Z" fill="url(#paint48_linear_2026_11628)"/>
<path d="M154.528 125.567C154.528 125.567 153.899 126.656 154.025 128.637C154.2 131.366 155.034 133.276 155.034 133.276L154.931 140.033C154.931 140.033 153.397 143.673 153.658 148.096C153.917 152.52 154.079 155.265 154.079 155.265C154.079 155.265 153.925 155.782 156.017 155.736C158.11 155.689 158.431 154.349 158.431 154.349C158.431 154.349 159.282 144.469 159.869 142.76C160.455 141.05 160.835 134.752 160.85 134.955C161.022 137.3 162.404 143.05 162.404 143.05C162.404 143.05 162.163 145.763 161.969 150.258C161.775 154.754 162.239 158.759 162.239 158.759C162.239 158.759 163.194 159.429 164.84 159.199C166.487 158.97 166.842 158.188 166.842 158.188C166.842 158.188 167.669 145.965 168.514 142.816C169.359 139.666 168.553 125.914 168.553 125.914L154.528 125.567Z" fill="url(#paint49_linear_2026_11628)"/>
<path d="M165.46 99.321L166.734 98.4683C166.734 98.4683 167.603 98.2976 168.277 98.8082C168.951 99.3188 169.098 100.334 169.098 100.334L163.316 105.951L160.675 102.764L165.46 99.321Z" fill="url(#paint50_linear_2026_11628)"/>
<path d="M175.489 100.42C175.489 100.42 174.949 99.4551 174.893 98.5C174.837 97.545 175.012 96.4296 175.012 96.4296C175.012 96.4296 175.675 96.3399 175.796 96.9309C175.918 97.522 175.889 97.9604 176.342 97.7656C176.794 97.5707 178.615 96.3295 178.615 96.3295C178.615 96.3295 178.925 98.2143 178.78 99.1349C178.636 100.055 178.027 101.252 178.027 101.252C178.027 101.252 176.133 100.099 175.489 100.42Z" fill="url(#paint51_linear_2026_11628)"/>
<path d="M168.932 99.7375L170.325 98.0463C170.325 98.0463 167.686 97.105 167.4 96.9107C167.114 96.7164 167.737 95.8834 167.32 95.5435C166.904 95.2042 166.904 95.2042 166.904 95.2042C166.904 95.2042 166.483 96.3596 166.649 97.1022C166.815 97.8449 166.941 98.4595 166.941 98.4595C166.941 98.4595 168.745 98.7447 168.932 99.7375Z" fill="url(#paint52_linear_2026_11628)"/>
<path d="M154.971 107.376C154.971 107.376 152.809 109.724 152.809 112.376C152.809 115.027 156.064 112.098 158.285 111.192C160.506 110.286 164.4 107.194 164.925 106.689C165.45 106.184 169.631 99.9334 169.631 99.9334C169.631 99.9334 169.033 98.3589 167.735 98.4185C166.437 98.4782 166.179 98.8618 166.179 98.8618C166.179 98.8618 161.838 104.445 161.032 105.039C160.226 105.633 154.971 107.376 154.971 107.376Z" fill="url(#paint53_linear_2026_11628)"/>
<path d="M166.937 104.597C166.845 105.34 166.786 106.996 166.257 107.227C165.725 107.456 163.988 107.448 163.988 107.448L163.958 109.056C162.598 108.532 160.163 107.967 160.163 107.967C160.163 107.967 160.151 108.425 159.724 108.625C159.477 108.743 158.76 108.838 157.999 109.13L157.621 109.07L157.922 102.201C157.922 102.201 162.258 101.469 162.535 101.449C162.811 101.429 166.478 102.446 166.478 102.446C166.478 102.446 167.034 103.856 166.937 104.597Z" fill="url(#paint54_linear_2026_11628)"/>
<path d="M158.986 107.412C158.986 107.412 156.583 109.235 155.271 109.045C153.959 108.855 152.436 111.191 153.628 114.727C154.819 118.262 154.456 117.945 155.008 121.139C155.559 124.334 153.628 127.988 153.628 127.988C153.628 127.988 153.066 129.936 159.36 131.312C165.655 132.687 168.75 130.078 168.75 130.078C168.75 130.078 168.845 113.035 167.905 111.86C166.964 110.686 165.92 110.312 164.887 109.788C163.855 109.265 164.476 108.296 164.476 108.296L158.986 107.412Z" fill="url(#paint55_linear_2026_11628)"/>
<path d="M167.391 100.185C167.447 101.383 167.644 102.745 165.918 103.917C164.193 105.088 163.185 104.65 163.185 104.65C163.185 104.65 163.45 103.775 162.899 103.679C162.347 103.582 161.859 104.349 162.137 104.963C162.415 105.578 162.701 107.188 160.721 107.399C158.741 107.611 156.179 105.202 156.217 103.185C156.255 101.168 157.788 100.197 157.788 100.197C157.788 100.197 158.07 98.2516 162.449 98.0759C166.828 97.9002 167.391 100.185 167.391 100.185Z" fill="url(#paint56_linear_2026_11628)"/>
<path d="M158.51 99.1754C158.51 99.1754 159.66 99.3079 159.887 100.483C160.114 101.66 159.666 102.16 159.666 102.16C159.666 102.16 160.191 102.541 159.92 102.83C159.648 103.12 158.901 104.369 159.605 105.347C160.311 106.325 161.66 110.089 159.048 111.793C156.436 113.498 153.924 112.674 153.924 112.674C153.924 112.674 155.432 112.786 155.44 111.073C155.447 109.36 153.903 103.848 154.455 101.516C155.008 99.1847 156.517 99.1579 157.47 99.414C158.423 99.6702 158.51 99.1754 158.51 99.1754Z" fill="url(#paint57_linear_2026_11628)"/>
<path d="M166.72 110.745C166.72 110.745 164.242 111.169 164.559 113.806C164.887 116.533 167.803 116.098 170.024 115.192C172.245 114.287 176.148 110.564 176.673 110.058C177.198 109.553 178.818 101.252 178.818 101.252C178.818 101.252 178.22 99.6772 176.923 99.7369C175.625 99.7965 175.367 100.18 175.367 100.18C175.367 100.18 173.585 107.816 172.779 108.409C171.974 109.003 166.72 110.745 166.72 110.745Z" fill="url(#paint58_linear_2026_11628)"/>
<path d="M126.127 146.886L157.82 133.862L131.424 122.852L99.7305 135.876L126.127 146.886Z" fill="#32BC7E"/>
<path opacity="0.18" d="M126.127 155.442L157.82 142.417L131.424 131.407L99.7305 144.432L126.127 155.442Z" fill="url(#paint59_linear_2026_11628)"/>
<path d="M103.65 135.886L131.418 124.475L153.9 133.852L126.131 145.263L103.65 135.886Z" fill="white"/>
<path d="M126.127 146.886V149.894L157.821 136.87V133.862L126.127 146.886Z" fill="#1E8B5A"/>
<path d="M99.7305 135.877V138.885L126.127 149.895V146.887L99.7305 135.877Z" fill="#2BA770"/>
<path d="M132.768 129.274L141.432 125.71L129.242 120.626L120.579 124.19L132.768 129.274Z" fill="url(#paint60_linear_2026_11628)"/>
<path d="M132.767 129.275V130.035L141.43 126.471V125.71L132.767 129.275Z" fill="url(#paint61_linear_2026_11628)"/>
<path d="M120.579 124.191V124.95L132.768 130.035V129.275L120.579 124.191Z" fill="url(#paint62_linear_2026_11628)"/>
<path d="M123.67 128.604L125.758 127.8L131.72 130.286L129.632 131.09L123.67 128.604Z" fill="#E6E6E6"/>
<path d="M130.73 131.592L132.818 130.788L138.781 133.275L136.693 134.079L130.73 131.592Z" fill="#E6E6E6"/>
<path d="M137.791 134.58L139.879 133.776L145.841 136.263L143.752 137.067L137.791 134.58Z" fill="#E6E6E6"/>
<path d="M120.297 129.98L122.385 129.177L128.347 131.663L126.259 132.467L120.297 129.98Z" fill="#E6E6E6"/>
<path d="M127.357 132.969L129.445 132.165L135.408 134.652L133.32 135.456L127.357 132.969Z" fill="#E6E6E6"/>
<path d="M134.418 135.958L136.505 135.154L142.468 137.64L140.379 138.445L134.418 135.958Z" fill="#E6E6E6"/>
<path d="M116.921 131.357L119.009 130.553L124.971 133.04L122.883 133.844L116.921 131.357Z" fill="#E6E6E6"/>
<path d="M123.981 134.346L126.069 133.542L132.032 136.029L129.943 136.833L123.981 134.346Z" fill="#E6E6E6"/>
<path d="M131.042 137.335L133.129 136.531L139.092 139.017L137.003 139.821L131.042 137.335Z" fill="#E6E6E6"/>
<path d="M113.548 132.735L115.636 131.931L121.598 134.417L119.509 135.221L113.548 132.735Z" fill="#E6E6E6"/>
<path d="M120.608 135.723L122.696 134.919L128.658 137.406L126.57 138.21L120.608 135.723Z" fill="#E6E6E6"/>
<path d="M127.669 138.712L129.757 137.908L135.72 140.395L133.631 141.199L127.669 138.712Z" fill="#E6E6E6"/>
<path d="M110.173 134.111L112.261 133.307L118.223 135.794L116.134 136.598L110.173 134.111Z" fill="#E6E6E6"/>
<path d="M117.233 137.1L119.321 136.296L125.283 138.783L123.195 139.587L117.233 137.1Z" fill="#E6E6E6"/>
<path d="M124.294 140.089L126.382 139.285L132.344 141.771L130.256 142.576L124.294 140.089Z" fill="#E6E6E6"/>
<path d="M106.799 135.489L108.886 134.686L114.849 137.172L112.76 137.976L106.799 135.489Z" fill="#E6E6E6"/>
<path d="M113.859 138.478L115.948 137.674L121.91 140.161L119.821 140.965L113.859 138.478Z" fill="#E6E6E6"/>
<path d="M120.92 141.466L123.008 140.662L128.97 143.149L126.882 143.953L120.92 141.466Z" fill="#E6E6E6"/>
<path d="M136.948 128.668L137.66 128.425L150.643 133.871L149.931 134.114L136.948 128.668Z" fill="#E6E6E6"/>
<path d="M135.62 129.293L136.331 129.05L149.315 134.496L148.603 134.739L135.62 129.293Z" fill="#E6E6E6"/>
<path d="M134.291 129.918L135.002 129.675L143.295 133.168L142.584 133.411L134.291 129.918Z" fill="#E6E6E6"/>
<defs>
<linearGradient id="paint0_linear_2026_11628" x1="106.651" y1="161.662" x2="165.9" y2="127.145" gradientUnits="userSpaceOnUse">
<stop stop-color="#004861"/>
<stop offset="0.9953" stop-color="#004861"/>
</linearGradient>
<linearGradient id="paint1_linear_2026_11628" x1="123.26" y1="172.73" x2="132.154" y2="131.34" gradientUnits="userSpaceOnUse">
<stop stop-color="white"/>
<stop offset="1" stop-color="#EEF0EE"/>
</linearGradient>
<linearGradient id="paint2_linear_2026_11628" x1="222.546" y1="148.202" x2="159.723" y2="173.824" gradientUnits="userSpaceOnUse">
<stop stop-color="white"/>
<stop offset="1" stop-color="#EEF0EE"/>
</linearGradient>
<linearGradient id="paint3_linear_2026_11628" x1="157.569" y1="157.428" x2="76.3911" y2="154.488" gradientUnits="userSpaceOnUse">
<stop stop-color="#B0B2B4"/>
<stop offset="1" stop-color="#EEF0EE"/>
</linearGradient>
<linearGradient id="paint4_linear_2026_11628" x1="191.032" y1="114.392" x2="153.468" y2="51.4249" gradientUnits="userSpaceOnUse">
<stop stop-color="#151929"/>
<stop offset="1" stop-color="#6A6A71"/>
</linearGradient>
<linearGradient id="paint5_linear_2026_11628" x1="113.745" y1="84.0525" x2="211.908" y2="84.0525" gradientUnits="userSpaceOnUse">
<stop stop-color="#151929"/>
<stop offset="1" stop-color="#6A6A71"/>
</linearGradient>
<linearGradient id="paint6_linear_2026_11628" x1="116.417" y1="49.0213" x2="209.235" y2="49.0213" gradientUnits="userSpaceOnUse">
<stop stop-color="#178E55"/>
<stop offset="1" stop-color="#57DDA9"/>
</linearGradient>
<linearGradient id="paint7_linear_2026_11628" x1="116.416" y1="54.6404" x2="209.234" y2="54.6404" gradientUnits="userSpaceOnUse">
<stop stop-color="#3C3B63"/>
<stop offset="1" stop-color="#111623"/>
</linearGradient>
<linearGradient id="paint8_linear_2026_11628" x1="126.193" y1="41.9125" x2="214.033" y2="77.0949" gradientUnits="userSpaceOnUse">
<stop stop-color="#2B9765"/>
<stop offset="1" stop-color="#25A068"/>
</linearGradient>
<linearGradient id="paint9_linear_2026_11628" x1="116.416" y1="65.6722" x2="209.234" y2="65.6722" gradientUnits="userSpaceOnUse">
<stop stop-color="#66B097"/>
<stop offset="1" stop-color="#1D955D"/>
</linearGradient>
<linearGradient id="paint10_linear_2026_11628" x1="124.659" y1="40.6997" x2="133.256" y2="40.6997" gradientUnits="userSpaceOnUse">
<stop stop-color="#ECECEC"/>
<stop offset="1" stop-color="#F5F5F5"/>
</linearGradient>
<linearGradient id="paint11_linear_2026_11628" x1="135.636" y1="45.3063" x2="144.233" y2="45.3063" gradientUnits="userSpaceOnUse">
<stop stop-color="#ECECEC"/>
<stop offset="1" stop-color="#F5F5F5"/>
</linearGradient>
<linearGradient id="paint12_linear_2026_11628" x1="146.61" y1="49.9128" x2="155.207" y2="49.9128" gradientUnits="userSpaceOnUse">
<stop stop-color="#ECECEC"/>
<stop offset="1" stop-color="#F5F5F5"/>
</linearGradient>
<linearGradient id="paint13_linear_2026_11628" x1="157.585" y1="54.5194" x2="166.182" y2="54.5194" gradientUnits="userSpaceOnUse">
<stop stop-color="#ECECEC"/>
<stop offset="1" stop-color="#F5F5F5"/>
</linearGradient>
<linearGradient id="paint14_linear_2026_11628" x1="168.561" y1="59.126" x2="177.158" y2="59.126" gradientUnits="userSpaceOnUse">
<stop stop-color="#ECECEC"/>
<stop offset="1" stop-color="#F5F5F5"/>
</linearGradient>
<linearGradient id="paint15_linear_2026_11628" x1="118.39" y1="41.6792" x2="121.566" y2="41.6792" gradientUnits="userSpaceOnUse">
<stop stop-color="#ECECEC"/>
<stop offset="1" stop-color="#F5F5F5"/>
</linearGradient>
<linearGradient id="paint16_linear_2026_11628" x1="123.071" y1="43.6353" x2="126.247" y2="43.6353" gradientUnits="userSpaceOnUse">
<stop stop-color="#ECECEC"/>
<stop offset="1" stop-color="#F5F5F5"/>
</linearGradient>
<linearGradient id="paint17_linear_2026_11628" x1="127.755" y1="45.5915" x2="130.931" y2="45.5915" gradientUnits="userSpaceOnUse">
<stop stop-color="#ECECEC"/>
<stop offset="1" stop-color="#F5F5F5"/>
</linearGradient>
<linearGradient id="paint18_linear_2026_11628" x1="132.438" y1="47.548" x2="135.615" y2="47.548" gradientUnits="userSpaceOnUse">
<stop stop-color="#ECECEC"/>
<stop offset="1" stop-color="#F5F5F5"/>
</linearGradient>
<linearGradient id="paint19_linear_2026_11628" x1="137.121" y1="49.5041" x2="140.297" y2="49.5041" gradientUnits="userSpaceOnUse">
<stop stop-color="#ECECEC"/>
<stop offset="1" stop-color="#F5F5F5"/>
</linearGradient>
<linearGradient id="paint20_linear_2026_11628" x1="166.713" y1="68.7896" x2="175.31" y2="68.7896" gradientUnits="userSpaceOnUse">
<stop stop-color="#ECECEC"/>
<stop offset="1" stop-color="#F5F5F5"/>
</linearGradient>
<linearGradient id="paint21_linear_2026_11628" x1="165.646" y1="62.6129" x2="174.243" y2="62.6129" gradientUnits="userSpaceOnUse">
<stop stop-color="#ECECEC"/>
<stop offset="1" stop-color="#F5F5F5"/>
</linearGradient>
<linearGradient id="paint22_linear_2026_11628" x1="117.586" y1="36.5464" x2="121.563" y2="36.5464" gradientUnits="userSpaceOnUse">
<stop stop-color="#178E55"/>
<stop offset="1" stop-color="#57DDA9"/>
</linearGradient>
<linearGradient id="paint23_linear_2026_11628" x1="171.312" y1="112.874" x2="194.726" y2="112.874" gradientUnits="userSpaceOnUse">
<stop stop-color="#134F89"/>
<stop offset="1" stop-color="#0F88CC"/>
</linearGradient>
<linearGradient id="paint24_linear_2026_11628" x1="172.443" y1="116.156" x2="193.595" y2="116.156" gradientUnits="userSpaceOnUse">
<stop stop-color="#134F89"/>
<stop offset="1" stop-color="#0F88CC"/>
</linearGradient>
<linearGradient id="paint25_linear_2026_11628" x1="186.01" y1="109.363" x2="190.337" y2="109.363" gradientUnits="userSpaceOnUse">
<stop stop-color="#134F89"/>
<stop offset="1" stop-color="#0F88CC"/>
</linearGradient>
<linearGradient id="paint26_linear_2026_11628" x1="97.7559" y1="124.191" x2="106.043" y2="124.191" gradientUnits="userSpaceOnUse">
<stop stop-color="#3C3B63"/>
<stop offset="1" stop-color="#111623"/>
</linearGradient>
<linearGradient id="paint27_linear_2026_11628" x1="104.281" y1="108.608" x2="96.9227" y2="109.809" gradientUnits="userSpaceOnUse">
<stop stop-color="#3060AB"/>
<stop offset="1" stop-color="#131E60"/>
</linearGradient>
<linearGradient id="paint28_linear_2026_11628" x1="89.9346" y1="128.21" x2="98.1326" y2="128.21" gradientUnits="userSpaceOnUse">
<stop stop-color="#3C3B63"/>
<stop offset="1" stop-color="#111623"/>
</linearGradient>
<linearGradient id="paint29_linear_2026_11628" x1="96.9506" y1="111.793" x2="89.4812" y2="111.948" gradientUnits="userSpaceOnUse">
<stop stop-color="#3060AB"/>
<stop offset="1" stop-color="#131E60"/>
</linearGradient>
<linearGradient id="paint30_linear_2026_11628" x1="106.844" y1="79.4919" x2="107.252" y2="76.0601" gradientUnits="userSpaceOnUse">
<stop stop-color="#178E55"/>
<stop offset="1" stop-color="#57DDA9"/>
</linearGradient>
<linearGradient id="paint31_linear_2026_11628" x1="82.2588" y1="85.8701" x2="102.722" y2="85.8701" gradientUnits="userSpaceOnUse">
<stop stop-color="#178E55"/>
<stop offset="1" stop-color="#57DDA9"/>
</linearGradient>
<linearGradient id="paint32_linear_2026_11628" x1="92.6393" y1="92.6255" x2="115.112" y2="92.6255" gradientUnits="userSpaceOnUse">
<stop stop-color="#E2E2E2"/>
<stop offset="1" stop-color="#9B999A"/>
</linearGradient>
<linearGradient id="paint33_linear_2026_11628" x1="100.731" y1="96.2392" x2="105.696" y2="87.8655" gradientUnits="userSpaceOnUse">
<stop stop-color="#F3F1EE"/>
<stop offset="1" stop-color="#FDFDFD"/>
</linearGradient>
<linearGradient id="paint34_linear_2026_11628" x1="100.539" y1="87.9762" x2="117.696" y2="87.9762" gradientUnits="userSpaceOnUse">
<stop stop-color="#E2E2E2"/>
<stop offset="1" stop-color="#9B999A"/>
</linearGradient>
<linearGradient id="paint35_linear_2026_11628" x1="104.302" y1="95.4812" x2="113.015" y2="80.7876" gradientUnits="userSpaceOnUse">
<stop stop-color="#F3F1EE"/>
<stop offset="1" stop-color="#FDFDFD"/>
</linearGradient>
<linearGradient id="paint36_linear_2026_11628" x1="82.418" y1="93.4611" x2="98.8803" y2="93.4611" gradientUnits="userSpaceOnUse">
<stop stop-color="#FFD4D4"/>
<stop offset="1" stop-color="#EF9797"/>
</linearGradient>
<linearGradient id="paint37_linear_2026_11628" x1="87.0316" y1="71.2026" x2="95.8471" y2="71.2026" gradientUnits="userSpaceOnUse">
<stop stop-color="#FFD4D4"/>
<stop offset="1" stop-color="#EF9797"/>
</linearGradient>
<linearGradient id="paint38_linear_2026_11628" x1="85.249" y1="68.5007" x2="95.2245" y2="68.5007" gradientUnits="userSpaceOnUse">
<stop stop-color="#3C3B63"/>
<stop offset="1" stop-color="#111623"/>
</linearGradient>
<linearGradient id="paint39_linear_2026_11628" x1="81.612" y1="88.182" x2="94.3095" y2="88.182" gradientUnits="userSpaceOnUse">
<stop stop-color="#178E55"/>
<stop offset="1" stop-color="#57DDA9"/>
</linearGradient>
<linearGradient id="paint40_linear_2026_11628" x1="115.861" y1="77.9212" x2="124.971" y2="77.9212" gradientUnits="userSpaceOnUse">
<stop stop-color="#FFD4D4"/>
<stop offset="1" stop-color="#EF9797"/>
</linearGradient>
<linearGradient id="paint41_linear_2026_11628" x1="175.846" y1="97.6655" x2="180.899" y2="97.6655" gradientUnits="userSpaceOnUse">
<stop stop-color="#134F89"/>
<stop offset="1" stop-color="#0F88CC"/>
</linearGradient>
<linearGradient id="paint42_linear_2026_11628" x1="177.403" y1="86.1886" x2="171.537" y2="75.0179" gradientUnits="userSpaceOnUse">
<stop stop-color="#178E55"/>
<stop offset="1" stop-color="#57DDA9"/>
</linearGradient>
<linearGradient id="paint43_linear_2026_11628" x1="159.994" y1="87.4217" x2="179.84" y2="87.4217" gradientUnits="userSpaceOnUse">
<stop stop-color="#178E55"/>
<stop offset="1" stop-color="#57DDA9"/>
</linearGradient>
<linearGradient id="paint44_linear_2026_11628" x1="175.457" y1="98.8011" x2="175.847" y2="98.8011" gradientUnits="userSpaceOnUse">
<stop stop-color="#134F89"/>
<stop offset="1" stop-color="#0F88CC"/>
</linearGradient>
<linearGradient id="paint45_linear_2026_11628" x1="177.141" y1="84.96" x2="173.605" y2="96.1927" gradientUnits="userSpaceOnUse">
<stop stop-color="#FF7F1F"/>
<stop offset="1" stop-color="#FFC166"/>
</linearGradient>
<linearGradient id="paint46_linear_2026_11628" x1="180.9" y1="96.1959" x2="180.309" y2="88.5199" gradientUnits="userSpaceOnUse">
<stop stop-color="#FF7F1F"/>
<stop offset="1" stop-color="#FFC166"/>
</linearGradient>
<linearGradient id="paint47_linear_2026_11628" x1="153.71" y1="156.416" x2="162.17" y2="155.919" gradientUnits="userSpaceOnUse">
<stop stop-color="#3C3B63"/>
<stop offset="1" stop-color="#111623"/>
</linearGradient>
<linearGradient id="paint48_linear_2026_11628" x1="162.275" y1="159.874" x2="172.034" y2="159.302" gradientUnits="userSpaceOnUse">
<stop stop-color="#3C3B63"/>
<stop offset="1" stop-color="#111623"/>
</linearGradient>
<linearGradient id="paint49_linear_2026_11628" x1="153.628" y1="142.407" x2="168.9" y2="142.407" gradientUnits="userSpaceOnUse">
<stop stop-color="#3060AB"/>
<stop offset="1" stop-color="#131E60"/>
</linearGradient>
<linearGradient id="paint50_linear_2026_11628" x1="160.654" y1="102.406" x2="169.19" y2="101.905" gradientUnits="userSpaceOnUse">
<stop stop-color="#134F89"/>
<stop offset="1" stop-color="#0F88CC"/>
</linearGradient>
<linearGradient id="paint51_linear_2026_11628" x1="174.917" y1="98.9143" x2="178.842" y2="98.6839" gradientUnits="userSpaceOnUse">
<stop stop-color="#FFD4D4"/>
<stop offset="1" stop-color="#EF9797"/>
</linearGradient>
<linearGradient id="paint52_linear_2026_11628" x1="166.655" y1="97.5297" x2="170.282" y2="97.3165" gradientUnits="userSpaceOnUse">
<stop stop-color="#FFD4D4"/>
<stop offset="1" stop-color="#EF9797"/>
</linearGradient>
<linearGradient id="paint53_linear_2026_11628" x1="152.809" y1="105.939" x2="169.631" y2="105.939" gradientUnits="userSpaceOnUse">
<stop stop-color="#FF7F1F"/>
<stop offset="1" stop-color="#FFC166"/>
</linearGradient>
<linearGradient id="paint54_linear_2026_11628" x1="166.554" y1="105.812" x2="160.664" y2="105.194" gradientUnits="userSpaceOnUse">
<stop stop-color="#FFD4D4"/>
<stop offset="1" stop-color="#EF9797"/>
</linearGradient>
<linearGradient id="paint55_linear_2026_11628" x1="168.262" y1="119.842" x2="154.999" y2="119.214" gradientUnits="userSpaceOnUse">
<stop stop-color="#FF7F1F"/>
<stop offset="1" stop-color="#FFC166"/>
</linearGradient>
<linearGradient id="paint56_linear_2026_11628" x1="156.227" y1="102.656" x2="167.395" y2="102.868" gradientUnits="userSpaceOnUse">
<stop stop-color="#3C3B63"/>
<stop offset="1" stop-color="#111623"/>
</linearGradient>
<linearGradient id="paint57_linear_2026_11628" x1="154.051" y1="105.98" x2="160.638" y2="106.106" gradientUnits="userSpaceOnUse">
<stop stop-color="#3C3B63"/>
<stop offset="1" stop-color="#111623"/>
</linearGradient>
<linearGradient id="paint58_linear_2026_11628" x1="175.404" y1="111.904" x2="172.093" y2="107.257" gradientUnits="userSpaceOnUse">
<stop stop-color="#FF7F1F"/>
<stop offset="1" stop-color="#FFC166"/>
</linearGradient>
<linearGradient id="paint59_linear_2026_11628" x1="99.7305" y1="143.425" x2="157.82" y2="143.425" gradientUnits="userSpaceOnUse">
<stop stop-color="#004861"/>
<stop offset="0.9953" stop-color="#004861"/>
</linearGradient>
<linearGradient id="paint60_linear_2026_11628" x1="120.579" y1="124.95" x2="141.432" y2="124.95" gradientUnits="userSpaceOnUse">
<stop stop-color="#134F89"/>
<stop offset="1" stop-color="#0F88CC"/>
</linearGradient>
<linearGradient id="paint61_linear_2026_11628" x1="132.767" y1="127.873" x2="141.43" y2="127.873" gradientUnits="userSpaceOnUse">
<stop stop-color="#134F89"/>
<stop offset="1" stop-color="#0F88CC"/>
</linearGradient>
<linearGradient id="paint62_linear_2026_11628" x1="120.579" y1="127.113" x2="132.768" y2="127.113" gradientUnits="userSpaceOnUse">
<stop stop-color="#134F89"/>
<stop offset="1" stop-color="#0F88CC"/>
</linearGradient>
</defs>
</svg>
