<?xml version="1.0" encoding="UTF-8"?>
<svg version="1.1" xmlns="http://www.w3.org/2000/svg" width="768" height="512">
<path d="M0 0 C253.44 0 506.88 0 768 0 C768 168.96 768 337.92 768 512 C514.56 512 261.12 512 0 512 C0 343.04 0 174.08 0 0 Z " fill="#FEFEFE" transform="translate(0,0)"/>
<path d="M0 0 C6.07299837 5.39543243 6.76954956 12.41341116 7.39453125 20.2265625 C8.17680566 35.56718136 3.55884876 47.99504547 -6 60 C-9.06037733 63.36399213 -12.23747438 66.58911382 -15.48803711 69.76928711 C-16.9393773 71.18933683 -18.37965362 72.6198959 -19.81835938 74.05273438 C-24.48436984 78.66729331 -29.22257043 83.12321574 -34.19702148 87.40161133 C-42.84721756 95.07024148 -50.37784955 103.89619248 -56 114 C-56.43054688 114.71800781 -56.86109375 115.43601562 -57.3046875 116.17578125 C-61.17509928 123.04909872 -60.54217574 128.60622981 -58.5 136 C-54.64313259 147.70593091 -48.74354537 158.43150558 -41.79418945 168.57202148 C-39 172.70012357 -39 172.70012357 -39 176 C-46.21814462 169.02470885 -52.76830508 161.8815703 -59 154 C-59.90529149 152.91737651 -60.81294287 151.83672301 -61.72265625 150.7578125 C-66.74444942 144.72006462 -71.0856056 138.61971003 -74.6875 131.625 C-75.026604 130.98344971 -75.36570801 130.34189941 -75.71508789 129.6809082 C-78.4062456 124.15672777 -78.78423191 119.4568117 -77.40625 113.3828125 C-70.34825579 95.79867175 -53.30577279 83.10424702 -39 71.4609375 C-34.62759097 67.87419572 -30.30812213 64.22741224 -26.0078125 60.5546875 C-24.24869082 59.06057636 -22.47779294 57.57977277 -20.6796875 56.1328125 C-10.15038831 47.5029163 -2.98258621 35.24854142 0 22 C0.22839528 18.18273937 0.18965739 14.38474623 0.125 10.5625 C0.11597656 9.54478516 0.10695313 8.52707031 0.09765625 7.47851562 C0.07424698 4.98542844 0.041457 2.49284141 0 0 Z " fill="#E7252C" transform="translate(417,62)"/>
<path d="M0 0 C-2.78507783 2.78507783 -5.81881874 2.79088554 -9.5625 3.375 C-17.19939057 4.68491222 -24.54625047 6.09316974 -30 12 C-29.40040409 13.99156354 -29.40040409 13.99156354 -28 16 C-17.1597216 21.06220548 -3.75474786 21.69554788 8 23 C8.66525696 23.08365814 9.33051392 23.16731628 10.01593018 23.25350952 C17.79861166 24.15349877 25.56457168 24.18069538 33.390625 24.203125 C34.88765495 24.21009348 36.38468457 24.21713451 37.88171387 24.22424316 C42.67114591 24.24364546 47.46053299 24.2484219 52.25 24.25 C53.06285965 24.25058914 53.8757193 24.25117828 54.71321106 24.25178528 C79.25997682 24.26437391 103.60050144 23.96419299 128 21 C129.34062897 20.8430174 130.68128684 20.68628151 132.02197266 20.52978516 C154.58803817 18.88049695 154.58803817 18.88049695 174 9 C174.41809201 5.83151973 174.41809201 5.83151973 174 3 C176.59204492 4.53902667 177.81408163 5.37463822 178.6875 8.3125 C177.59467035 12.58447044 174.58965711 14.6291285 171 17 C134.85106155 37.1839631 85.67238356 34.22376057 45.75 34.25 C44.73902126 34.25132557 44.73902126 34.25132557 43.70761871 34.25267792 C26.72973389 34.27235349 9.79784682 34.14715095 -7.125 32.625 C-7.82709595 32.56187622 -8.52919189 32.49875244 -9.25256348 32.43371582 C-37.17822485 29.82700905 -37.17822485 29.82700905 -49.3125 23.1875 C-51 21 -51 21 -51.3125 17.625 C-49.43256677 12.43280346 -46.81975371 10.54004539 -42 8 C-28.87700187 2.46545001 -14.25076508 -0.67860786 0 0 Z " fill="#148AC5" transform="translate(312,342)"/>
<path d="M0 0 C-0.93457031 0.55945313 -1.86914062 1.11890625 -2.83203125 1.6953125 C-32.45458433 18.53979011 -32.45458433 18.53979011 -52 45 C-53.89721425 54.8595386 -49.68058452 62.3618497 -44.40625 70.44140625 C-43.40147501 71.91524711 -42.3950195 73.38794398 -41.38671875 74.859375 C-37.190055 81.33760524 -34.50673162 88.18169625 -35 96 C-37.73343188 106.8258289 -47.44835388 115.45376503 -56 122 C-58.30078125 122.75390625 -58.30078125 122.75390625 -60 123 C-59.50628906 122.16855469 -59.01257813 121.33710938 -58.50390625 120.48046875 C-57.86324219 119.39378906 -57.22257812 118.30710937 -56.5625 117.1875 C-55.92441406 116.10855469 -55.28632813 115.02960938 -54.62890625 113.91796875 C-52.06411606 109.32348848 -51.1143877 105.20189746 -52 100 C-54.48536283 93.93791576 -58.14376624 88.71258513 -62.0625 83.5 C-69.8043404 73.1478839 -73.14355353 62.9012166 -72 50 C-70.24386716 43.00557376 -66.68493348 37.39809666 -62 32 C-61.45988281 31.36578125 -60.91976563 30.7315625 -60.36328125 30.078125 C-47.75847338 16.40696679 -29.39878818 8.08649013 -12.1875 1.9375 C-11.3210083 1.62594971 -10.4545166 1.31439941 -9.56176758 0.9934082 C-8.34589966 0.5770813 -8.34589966 0.5770813 -7.10546875 0.15234375 C-6.38512451 -0.09523682 -5.66478027 -0.34281738 -4.92260742 -0.59790039 C-3 -1 -3 -1 0 0 Z " fill="#EA242B" transform="translate(456,130)"/>
<path d="M0 0 C0 1.98 0 3.96 0 6 C6.18433079 9.27453568 11.50497321 9.43866176 18.42578125 9.3984375 C20.07818062 9.40274277 20.07818062 9.40274277 21.76396179 9.40713501 C24.09468093 9.40917209 26.4254173 9.40366722 28.75610352 9.39111328 C32.26293952 9.37522455 35.76859295 9.39088677 39.27539062 9.41015625 C50.20365941 9.41811078 60.79168164 9.21008005 71.51911926 6.96029663 C77.08389027 5.80206091 80.8075463 6.12935145 85.76953125 8.84765625 C86.43017578 9.20537109 87.09082031 9.56308594 87.77148438 9.93164062 C88.78178711 10.49141602 88.78178711 10.49141602 89.8125 11.0625 C90.85180664 11.62807617 90.85180664 11.62807617 91.91210938 12.20507812 C93.61128985 13.13083852 95.30609425 14.06462312 97 15 C84.97613536 27.02386464 54.482212 26.43357367 38.6875 26.4375 C2.37154602 26.27186342 2.37154602 26.27186342 -10.625 16.5625 C-13 14 -13 14 -14.125 11.5 C-13.93913267 7.7826533 -12.68346631 6.55256551 -10 4 C-3.41558442 0 -3.41558442 0 0 0 Z " fill="#178BC6" transform="translate(337,318)"/>
<path d="M0 0 C-0.66 0.66 -1.32 1.32 -2 2 C-2.58350505 4.45709375 -2.58350505 4.45709375 -2 7 C2.42083281 10.53666625 7.19865591 11.11363255 12.71313477 11.16113281 C13.62435593 11.17061447 14.53557709 11.18009613 15.47441101 11.18986511 C16.45351944 11.19424088 17.43262787 11.19861664 18.44140625 11.203125 C19.46929764 11.20995804 20.49718903 11.21679108 21.55622864 11.22383118 C24.89168556 11.24094751 28.22700165 11.24716597 31.5625 11.25 C33.25780853 11.25300613 33.25780853 11.25300613 34.98736572 11.256073 C51.26716106 11.26316817 67.07299727 10.60154432 83.20825195 8.37475586 C86.28400342 7.96187624 89.35647328 7.56528099 92.44140625 7.2265625 C93.87528687 7.05954834 93.87528687 7.05954834 95.33813477 6.88916016 C100.03114447 7.08457668 102.73853646 9.89571543 106 13 C106.99 13.66 107.98 14.32 109 15 C80.52321673 27.91730375 45.30889045 26.84111529 14.8125 23.75 C13.71010986 23.64091309 12.60771973 23.53182617 11.47192383 23.41943359 C1.87490056 22.30293916 -8.75393893 20.86580846 -16 14 C-16.625 11.0625 -16.625 11.0625 -16 8 C-12.41318123 3.29230036 -6.06814282 -2.02271427 0 0 Z " fill="#1B8CC5" transform="translate(330,283)"/>
<path d="M0 0 C-3.28604891 2.19069927 -6.52528344 3.21711573 -10.25 4.375 C-15.57975476 6.07815303 -20.26028797 8.02390175 -25 11 C-25.66 11 -26.32 11 -27 11 C-27 12.32 -27 13.64 -27 15 C-23.27721979 17.29915143 -19.37844235 17.66123688 -15.1171875 18.10546875 C-13.93441727 18.23129585 -13.93441727 18.23129585 -12.72775269 18.35966492 C-2.87235698 19.31820735 6.98150926 19.34754286 16.875 19.3125 C18.36220551 19.31126129 18.36220551 19.31126129 19.87945557 19.30999756 C48.0991038 19.25636199 76.03159571 16.67208142 103.9140625 12.3671875 C106.97495167 12.00298043 109.92079643 11.935272 113 12 C106.12462974 17.83364749 100.2133663 20.60255174 91.4375 22.0625 C90.50147949 22.22532471 89.56545898 22.38814941 88.60107422 22.5559082 C64.19862794 26.58746228 39.34086815 28.21846325 14.625 28.1875 C13.39074783 28.18709213 13.39074783 28.18709213 12.13156128 28.18667603 C-36.90462762 28.11263276 -36.90462762 28.11263276 -52 20 C-51.94921875 17.75390625 -51.94921875 17.75390625 -51 15 C-48.57580761 13.36252665 -46.43828547 12.15146892 -43.8125 10.9375 C-42.73198364 10.41990112 -42.73198364 10.41990112 -41.62963867 9.8918457 C-34.9522697 6.79108877 -28.15705111 4.70877691 -21 3 C-19.85144531 2.70222656 -18.70289063 2.40445313 -17.51953125 2.09765625 C-11.5296518 0.6019096 -6.17224964 -0.36307351 0 0 Z " fill="#1A8BC3" transform="translate(339,244)"/>
<path d="M0 0 C0.99 0.495 0.99 0.495 2 1 C-4.54281616 12.05510317 -17.00728737 17.53377225 -29 21 C-45.40120605 25.03656626 -62.22371473 27.2236959 -79 29 C-80.24046082 29.13269287 -80.24046082 29.13269287 -81.50598145 29.26806641 C-88.41178707 29.95421912 -95.25408088 30.17543436 -102.19140625 30.203125 C-103.90673805 30.21167511 -103.90673805 30.21167511 -105.65672302 30.22039795 C-108.07118828 30.22979479 -110.48566605 30.23636062 -112.90014648 30.24023438 C-116.50073292 30.2498353 -120.10072145 30.28086724 -123.70117188 30.3125 C-143.96794296 30.4057235 -164.21399403 29.08354733 -184 24.4375 C-184.96292969 24.22931641 -185.92585938 24.02113281 -186.91796875 23.80664062 C-193.72461471 22.27538529 -193.72461471 22.27538529 -196 20 C-195.31075439 20.05534912 -194.62150879 20.11069824 -193.91137695 20.16772461 C-190.71176902 20.42453771 -187.51213464 20.68101991 -184.3125 20.9375 C-183.22904297 21.02451172 -182.14558594 21.11152344 -181.02929688 21.20117188 C-179.94326172 21.28818359 -178.85722656 21.37519531 -177.73828125 21.46484375 C-176.75899658 21.543396 -175.77971191 21.62194824 -174.77075195 21.70288086 C-173.52640381 21.80093018 -172.28205566 21.89897949 -171 22 C-170.08616547 22.08216766 -169.17233093 22.16433533 -168.23080444 22.24899292 C-159.62726044 22.98440562 -151.06906226 23.17981855 -142.4375 23.203125 C-141.71333893 23.20595238 -140.98917786 23.20877975 -140.24307251 23.21169281 C-136.39707089 23.22657502 -132.5511056 23.23586886 -128.70507812 23.24023438 C-125.59688332 23.24458128 -122.48897202 23.25834048 -119.38085938 23.28125 C-80.16228836 23.56415697 -35.92205632 23.07736779 -1.99609375 1.0390625 C-1.33738281 0.69617188 -0.67867187 0.35328125 0 0 Z " fill="#1E8AC1" transform="translate(503,363)"/>
<path d="M0 0 C5.82834741 3.391581 11.32465022 7.70213979 13.2890625 14.33203125 C14.28545967 23.96807474 13.24407487 30.13950972 7.44140625 37.7578125 C-1.57590439 48.54258149 -12.80562912 54.28280975 -25.7109375 59.33203125 C-26.97744141 59.86183594 -26.97744141 59.86183594 -28.26953125 60.40234375 C-33.32370587 62.46110846 -33.32370587 62.46110846 -36.7109375 61.33203125 C-36.03289062 60.91953125 -35.35484375 60.50703125 -34.65625 60.08203125 C-20.99378468 51.60449044 -6.02939676 41.28740902 -0.7109375 25.33203125 C-0.02214919 18.24089917 -0.12201098 12.95346623 -4.7109375 7.33203125 C-10.59590346 3.31452839 -16.47166681 2.18457016 -23.5234375 2.26953125 C-24.49925781 2.27855469 -25.47507812 2.28757813 -26.48046875 2.296875 C-27.21652344 2.30847656 -27.95257813 2.32007813 -28.7109375 2.33203125 C-21.80202986 -5.66775655 -8.71737676 -4.01794401 0 0 Z " fill="#148AC5" transform="translate(491.7109375,242.66796875)"/>
<path d="M0 0 C0.68924561 0.05534912 1.37849121 0.11069824 2.08862305 0.16772461 C5.28823098 0.42453771 8.48786536 0.68101991 11.6875 0.9375 C12.77095703 1.02451172 13.85441406 1.11152344 14.97070312 1.20117188 C16.05673828 1.28818359 17.14277344 1.37519531 18.26171875 1.46484375 C19.24100342 1.543396 20.22028809 1.62194824 21.22924805 1.70288086 C22.47359619 1.80093018 23.71794434 1.89897949 25 2 C26.3707518 2.1232515 26.3707518 2.1232515 27.76919556 2.24899292 C36.37273956 2.98440562 44.93093774 3.17981855 53.5625 3.203125 C54.28666107 3.20595238 55.01082214 3.20877975 55.75692749 3.21169281 C59.60292911 3.22657502 63.4488944 3.23586886 67.29492188 3.24023438 C70.40311668 3.24458128 73.51102798 3.25834048 76.61914062 3.28125 C94.9779565 3.41398595 112.90208923 2.88155092 131.140625 0.64746094 C135.8098204 0.08262089 140.30068761 -0.13610813 145 0 C134.8405072 5.84048137 120.3368778 4.23136485 109 4 C109 4.66 109 5.32 109 6 C87.88 6 66.76 6 45 6 C45 6.66 45 7.32 45 8 C53.79716782 7.91561192 62.59414178 7.82073465 71.39104843 7.71247292 C75.47583369 7.66253177 79.56059336 7.6162016 83.64550781 7.578125 C87.58784316 7.54124453 91.52996332 7.49487718 95.47211456 7.44193649 C96.97595697 7.4234072 98.47984549 7.4082938 99.98375702 7.39665604 C102.09063237 7.37976826 104.19701648 7.35072805 106.30371094 7.31884766 C107.50284119 7.30552399 108.70197144 7.29220032 109.93743896 7.2784729 C112.91928831 7.00733896 114.42074556 6.38332417 117 5 C119.80458415 5.01689509 122.4677163 5.12921522 125.25 5.375 C125.99507813 5.43171875 126.74015625 5.4884375 127.5078125 5.546875 C129.33935108 5.68776258 131.16981352 5.84251884 133 6 C133 6.33 133 6.66 133 7 C115.92245704 9.25433219 99.11932066 10.48611907 81.89282227 10.39111328 C78.43400789 10.37498372 74.97635849 10.39111575 71.51757812 10.41015625 C51.54334845 10.42964941 31.4955973 9.01535507 12 4.4375 C11.03707031 4.22931641 10.07414062 4.02113281 9.08203125 3.80664062 C2.27538529 2.27538529 2.27538529 2.27538529 0 0 Z " fill="#328EBB" transform="translate(307,383)"/>
<path d="M0 0 C-7.18691553 6.09798894 -13.26414315 8.67269225 -22.4375 10.1875 C-23.3980127 10.35475586 -24.35852539 10.52201172 -25.34814453 10.69433594 C-33.55362597 12.06123409 -41.68699538 12.76180503 -50 13 C-46.51856576 10.67904384 -44.11096446 10.50485528 -40 10 C-38.66082739 9.69096017 -37.32346746 9.37057089 -36 9 C-36 8.34 -36 7.68 -36 7 C-36.92296875 7.0721875 -37.8459375 7.144375 -38.796875 7.21875 C-49.87869566 8.00717993 -60.89321266 8.10241915 -72 8 C-72 7.67 -72 7.34 -72 7 C-70.99324219 6.91959473 -69.98648437 6.83918945 -68.94921875 6.75634766 C-65.13186801 6.45051144 -61.31491262 6.13995064 -57.49804688 5.828125 C-55.86142874 5.69504581 -54.2247126 5.56316534 -52.58789062 5.43261719 C-38.00230278 4.26792037 -23.54948631 2.60027698 -9.0859375 0.3671875 C-6.02504833 0.00298043 -3.07920357 -0.064728 0 0 Z " fill="#3892BF" transform="translate(452,256)"/>
<path d="M0 0 C2.59204492 1.53902667 3.81408163 2.37463822 4.6875 5.3125 C3.59467035 9.58447044 0.58965711 11.6291285 -3 14 C-8.55824549 17.13397209 -14.2944706 19.2977963 -20.375 21.1875 C-21.20555908 21.44869629 -22.03611816 21.70989258 -22.8918457 21.97900391 C-28.62096089 23.72257453 -33.99032471 24.80296147 -40 25 C-37.80202597 22.80202597 -36.82453855 22.54102483 -33.875 21.875 C-32.59625 21.58625 -31.3175 21.2975 -30 21 C-30.66 20.34 -31.32 19.68 -32 19 C-33.67225729 19.30404678 -35.33753959 19.64628502 -37 20 C-40.00188475 20.09569767 -42.99750402 20.05887247 -46 20 C-46 19.34 -46 18.68 -46 18 C-45.21987549 17.89977539 -44.43975098 17.79955078 -43.63598633 17.69628906 C-40.02653723 17.22580445 -36.41962243 16.73799031 -32.8125 16.25 C-31.58595703 16.09273438 -30.35941406 15.93546875 -29.09570312 15.7734375 C-13.33087596 13.84602763 -13.33087596 13.84602763 0 6 C0.41809201 2.83151973 0.41809201 2.83151973 0 0 Z " fill="#248BBC" transform="translate(486,345)"/>
<path d="M0 0 C-0.33 0.66 -0.66 1.32 -1 2 C-1.55985596 1.98952637 -2.11971191 1.97905273 -2.6965332 1.96826172 C-5.23514307 1.92666674 -7.7736812 1.90066315 -10.3125 1.875 C-11.19357422 1.85824219 -12.07464844 1.84148437 -12.98242188 1.82421875 C-14.25375977 1.81455078 -14.25375977 1.81455078 -15.55078125 1.8046875 C-16.72120972 1.78897705 -16.72120972 1.78897705 -17.9152832 1.77294922 C-20.3065848 1.87119141 -20.3065848 1.87119141 -23 4 C-25.94230652 4.24050903 -25.94230652 4.24050903 -29.58276367 4.22705078 C-30.24644455 4.22734283 -30.91012543 4.22763489 -31.59391785 4.22793579 C-33.78540161 4.22654357 -35.97654445 4.21098779 -38.16796875 4.1953125 C-39.68825596 4.19158198 -41.20854558 4.18873519 -42.72883606 4.18673706 C-46.72869514 4.17910366 -50.72840879 4.15945774 -54.72821045 4.1373291 C-58.81032341 4.11686434 -62.89245989 4.107734 -66.97460938 4.09765625 C-74.98313963 4.07621152 -82.99155172 4.04207917 -91 4 C-91 3.34 -91 2.68 -91 2 C-69.88 2 -48.76 2 -27 2 C-27 1.34 -27 0.68 -27 0 C-7.99544419 -1.33257403 -7.99544419 -1.33257403 0 0 Z " fill="#0F89C5" transform="translate(443,387)"/>
<path d="M0 0 C3.81248426 -0.02887236 7.6249407 -0.04675492 11.4375 -0.0625 C12.52611328 -0.07087891 13.61472656 -0.07925781 14.73632812 -0.08789062 C15.77080078 -0.09111328 16.80527344 -0.09433594 17.87109375 -0.09765625 C18.82943115 -0.10289307 19.78776855 -0.10812988 20.77514648 -0.11352539 C23 0 23 0 24 1 C25.55477761 1.11764399 27.11476342 1.16729983 28.67382812 1.18945312 C29.67418091 1.20617065 30.67453369 1.22288818 31.7052002 1.2401123 C32.80279663 1.25368774 33.90039307 1.26726318 35.03125 1.28125 C36.16912964 1.29965942 37.30700928 1.31806885 38.47937012 1.33703613 C42.15285876 1.39598115 45.82640004 1.44849644 49.5 1.5 C67.34758892 1.7591873 85.16821321 2.18844402 103 3 C103 3.33 103 3.66 103 4 C94.44309846 4.0709291 85.88632867 4.1235088 77.3292017 4.15543652 C73.35160175 4.17079495 69.37420909 4.19145114 65.39672852 4.22631836 C43.40919822 4.41401003 21.86043383 3.43947373 0 1 C0 0.67 0 0.34 0 0 Z " fill="#D4F4FB" transform="translate(312,383)"/>
<path d="M0 0 C-3.65188082 1.07174763 -6.26432828 0.76411467 -10 0 C-8.41456814 1.74397505 -7.28301486 2.89044586 -5.0625 3.75 C-1.86566356 5.68747663 -0.42301635 8.64696566 1 12 C1.6173609 14.91892269 1.78147608 17.77282197 1.875 20.75 C1.92140625 21.50410156 1.9678125 22.25820313 2.015625 23.03515625 C2.19587712 26.93830784 2.2193709 28.67094364 0 32 C-0.66 32 -1.32 32 -2 32 C-1.835 31.071875 -1.67 30.14375 -1.5 29.1875 C-0.13584027 19.42042014 -0.13584027 19.42042014 -2.5 10.0625 C-6.64013586 4.99083357 -11.60474773 2.98609429 -18 2 C-19.93651019 1.93466565 -21.87502861 1.91415697 -23.8125 1.9375 C-24.78832031 1.94652344 -25.76414062 1.95554688 -26.76953125 1.96484375 C-27.50558594 1.97644531 -28.24164063 1.98804688 -29 2 C-21.90833431 -6.21140238 -8.81035881 -4.14605121 0 0 Z " fill="#2B8CBA" transform="translate(492,243)"/>
<path d="M0 0 C-6.13519766 5.20562226 -12.09271029 9.15648064 -20.328125 9.09765625 C-21.12734375 9.09443359 -21.9265625 9.09121094 -22.75 9.08789062 C-23.575 9.07951172 -24.4 9.07113281 -25.25 9.0625 C-26.09046875 9.05798828 -26.9309375 9.05347656 -27.796875 9.04882812 C-29.86461401 9.03707961 -31.93231624 9.01914522 -34 9 C-34 8.01 -34 7.02 -34 6 C-31.12186296 5.04062099 -28.8196685 4.73751966 -25.8125 4.5 C-21.18734011 4.11251985 -16.60104109 3.60768467 -12 3 C-12 2.34 -12 1.68 -12 1 C-7.93631321 0.22596442 -4.13574827 -0.0984702 0 0 Z " fill="#1589C3" transform="translate(452,256)"/>
<path d="M0 0 C1.33158261 2.52404465 2.47004015 5.09553443 3.55859375 7.73046875 C7.42717751 16.97057688 11.80021785 25.34613432 17.49389648 33.60424805 C21 38.72426239 21 38.72426239 21 42 C13.77754063 35.02053926 7.20010845 27.91470634 1 20 C1.66 19.67 2.32 19.34 3 19 C3.66 19.33 4.32 19.66 5 20 C5.33 19.01 5.66 18.02 6 17 C5.34 17 4.68 17 4 17 C2.50178941 13.62902617 2 11.79557881 2 8 C1.34 8 0.68 8 0 8 C0 5.36 0 2.72 0 0 Z " fill="#D73438" transform="translate(357,196)"/>
<path d="M0 0 C-1.10859375 0.68707031 -2.2171875 1.37414062 -3.359375 2.08203125 C-4.82297656 2.99209119 -6.28651491 3.90225278 -7.75 4.8125 C-8.47960937 5.26431641 -9.20921875 5.71613281 -9.9609375 6.18164062 C-12.85298785 7.98259925 -15.68038903 9.75611385 -18.390625 11.82421875 C-20 13 -20 13 -22 13 C-22 11.68 -22 10.36 -22 9 C-25.5842599 10.23461342 -25.5842599 10.23461342 -28.5 12.5625 C-30.54416706 14.52149343 -32.22715463 14.60387923 -35 15 C-35.928125 15.185625 -36.85625 15.37125 -37.8125 15.5625 C-38.534375 15.706875 -39.25625 15.85125 -40 16 C-33.54447349 8.58396262 -21.31790822 5.2048874 -12.3125 2 C-11.43924072 1.68514648 -10.56598145 1.37029297 -9.66625977 1.04589844 C-8.4334729 0.62099121 -8.4334729 0.62099121 -7.17578125 0.1875 C-6.44270752 -0.06644531 -5.70963379 -0.32039062 -4.9543457 -0.58203125 C-3 -1 -3 -1 0 0 Z " fill="#DB353A" transform="translate(456,130)"/>
<path d="M0 0 C1.01707031 0.680625 1.01707031 0.680625 2.0546875 1.375 C27.40034137 15.35880903 67.04909829 10.67446669 95 11 C95 11.33 95 11.66 95 12 C88.53028232 12.02579604 82.06057833 12.04304919 75.59082031 12.05493164 C73.39940902 12.05989611 71.20800093 12.06666988 69.01660156 12.07543945 C54.97500763 12.1301386 41.01608619 11.87036323 27 11 C27 10.34 27 9.68 27 9 C26.46375 9.05800781 25.9275 9.11601562 25.375 9.17578125 C19.35166612 9.52251922 14.16080669 8.4704444 8.4375 6.75 C7.72271484 6.54544189 7.00792969 6.34088379 6.27148438 6.13012695 C4.24609375 5.484375 4.24609375 5.484375 1 4 C0.03515625 1.828125 0.03515625 1.828125 0 0 Z " fill="#3691BA" transform="translate(281,356)"/>
<path d="M0 0 C0.33 0.66 0.66 1.32 1 2 C3.97 2 6.94 2 10 2 C2.97233211 9.02766789 -8.54377314 13.26517755 -18 16 C-18.99 15.67 -19.98 15.34 -21 15 C-20.32195312 14.5875 -19.64390625 14.175 -18.9453125 13.75 C-12.23866134 9.58853224 -6.05645012 5.0579898 0 0 Z " fill="#2C8FC0" transform="translate(476,289)"/>
<path d="M0 0 C0.62003906 0.06058594 1.24007813 0.12117188 1.87890625 0.18359375 C27.21697284 2.58093629 52.7151555 3.40372907 78 0 C73.25115825 4.74884175 66.30834978 4.24781774 60.00228882 4.30354309 C58.28025742 4.30217598 58.28025742 4.30217598 56.5234375 4.30078125 C55.32119537 4.30506638 54.11895325 4.3093515 52.88027954 4.31376648 C50.34027738 4.31949726 47.80025881 4.32001929 45.26025391 4.31567383 C41.40888815 4.31252768 37.55830141 4.33594218 33.70703125 4.36132812 C31.22916763 4.36360287 28.75130196 4.3643038 26.2734375 4.36328125 C24.56962418 4.37709587 24.56962418 4.37709587 22.83139038 4.39118958 C14.87737258 4.34605061 7.6715982 3.07668833 0 1 C0 0.67 0 0.34 0 0 Z " fill="#DDFAFE" transform="translate(334,305)"/>
<path d="M0 0 C-3.28604891 2.19069927 -6.52528344 3.21711573 -10.25 4.375 C-15.57975476 6.07815303 -20.26028797 8.02390175 -25 11 C-25.66 11 -26.32 11 -27 11 C-27.66 9.02 -28.32 7.04 -29 5 C-25.67037957 4.15134403 -22.33581652 3.32393332 -19 2.5 C-18.06542969 2.26152344 -17.13085938 2.02304688 -16.16796875 1.77734375 C-10.61709565 0.41873845 -5.71350121 -0.26950477 0 0 Z " fill="#318EBB" transform="translate(339,244)"/>
<path d="M0 0 C1.85546875 0.22265625 1.85546875 0.22265625 4 1 C7.73769562 6.55603403 8.4218983 12.27993227 7.5546875 18.7734375 C6.98258904 21.06988908 6.14162731 22.93374892 5 25 C6.32 25.33 7.64 25.66 9 26 C7.75803878 27.15454162 6.50607155 28.29832562 5.25 29.4375 C4.55390625 30.07558594 3.8578125 30.71367187 3.140625 31.37109375 C1.01207275 32.99081325 -0.39023405 33.58267256 -3 34 C-2.50628906 33.16855469 -2.01257813 32.33710938 -1.50390625 31.48046875 C-0.54291016 29.85044922 -0.54291016 29.85044922 0.4375 28.1875 C1.07558594 27.10855469 1.71367187 26.02960938 2.37109375 24.91796875 C4.92181439 20.34869221 5.83979479 16.18171254 5 11 C3.85870251 8.49393418 2.55615229 6.21453171 1.09375 3.8828125 C0 2 0 2 0 0 Z " fill="#D5353B" transform="translate(399,219)"/>
<path d="M0 0 C-2.78491825 2.78491825 -5.81886056 2.79131656 -9.5625 3.375 C-17.180826 4.67407134 -23.52071559 6.68047706 -30 11 C-30 10.01 -30 9.02 -30 8 C-29.01 7.34 -28.02 6.68 -27 6 C-27.99 5.34 -28.98 4.68 -30 4 C-26.87842248 3.31661534 -23.75232892 2.65651728 -20.625 2 C-19.31982422 1.71382813 -19.31982422 1.71382813 -17.98828125 1.421875 C-11.91346811 0.16191376 -6.19789808 -0.24024154 0 0 Z " fill="#3991BC" transform="translate(312,342)"/>
<path d="M0 0 C-0.33 1.98 -0.66 3.96 -1 6 C-1.33 5.01 -1.66 4.02 -2 3 C-3.87880872 3.04768403 -3.87880872 3.04768403 -6 4 C-8.46625981 7.17090547 -10.38242733 9.98577764 -11 14 C-10.34 14 -9.68 14 -9 14 C-8.67 14.66 -8.34 15.32 -8 16 C-6.35636866 16.72159424 -4.68949614 17.39351421 -3 18 C-3 18.66 -3 19.32 -3 20 C-8.6466306 18.68683009 -10.92604931 16.75065107 -14 12 C-14.3125 9.5 -14.3125 9.5 -13 7 C-9.30361607 3.62325902 -5.24435132 0 0 0 Z " fill="#3A92BB" transform="translate(337,318)"/>
<path d="M0 0 C4.14612814 0.13813025 8.29181162 0.28678859 12.4375 0.4375 C13.62150391 0.47681641 14.80550781 0.51613281 16.02539062 0.55664062 C17.71245117 0.61948242 17.71245117 0.61948242 19.43359375 0.68359375 C20.47572021 0.72025146 21.51784668 0.75690918 22.59155273 0.79467773 C25 1 25 1 26 2 C29.5900518 2.28593333 33.18014845 2.44910171 36.77734375 2.62109375 C40 3 40 3 42 5 C27.83796746 4.55455646 14.00562408 3.13539564 0 1 C0 0.67 0 0.34 0 0 Z " fill="#3792BC" transform="translate(278,370)"/>
<path d="M0 0 C4.12671248 0.24795888 8.25071317 0.52721436 12.375 0.8125 C13.550625 0.88275391 14.72625 0.95300781 15.9375 1.02539062 C17.05898438 1.10595703 18.18046875 1.18652344 19.3359375 1.26953125 C20.37282715 1.33760986 21.4097168 1.40568848 22.47802734 1.47583008 C25 2 25 2 27 5 C20.82326573 6.09948671 16.16957888 5.75166734 10.125 4.1875 C9.36703125 4.00896484 8.6090625 3.83042969 7.828125 3.64648438 C2.27893484 2.27893484 2.27893484 2.27893484 0 0 Z " fill="#4595B9" transform="translate(307,383)"/>
<path d="M0 0 C0.66 0.33 1.32 0.66 2 1 C-1.46941158 6.46695158 -4.18619408 9.15009514 -10 12 C-10 11.34 -10 10.68 -10 10 C-14.455 10.495 -14.455 10.495 -19 11 C-15.15336769 8.43557846 -11.06608468 6.54874735 -6.91015625 4.53515625 C-4.37589377 3.19829027 -2.22296804 1.79444408 0 0 Z " fill="#358EB8" transform="translate(503,363)"/>
<path d="M0 0 C6.60800753 6.60800753 7.13446847 14.21273888 7.20214844 23.27294922 C7.18098933 26.85095349 7.10729493 30.42350249 7 34 C6.67 34 6.34 34 6 34 C5.34 26.08 4.68 18.16 4 10 C3.34 10 2.68 10 2 10 C2 12.64 2 15.28 2 18 C1.67 18 1.34 18 1 18 C0.67 12.06 0.34 6.12 0 0 Z " fill="#D8555C" transform="translate(417,62)"/>
<path d="M0 0 C2.59204492 1.53902667 3.81408163 2.37463822 4.6875 5.3125 C3.60637671 9.53870921 0.4943833 11.57807987 -3 14 C-4.31920822 14.69419873 -5.64921829 15.36943597 -7 16 C-7.33 14.35 -7.66 12.7 -8 11 C-7.05125 10.54625 -6.1025 10.0925 -5.125 9.625 C-1.99686321 8.19761746 -1.99686321 8.19761746 0 6 C0.16681109 2.91652174 0.16681109 2.91652174 0 0 Z " fill="#3490BC" transform="translate(486,345)"/>
<path d="M0 0 C-0.66 0.99 -1.32 1.98 -2 3 C-4.48340903 3.26727014 -6.71472068 3.34866334 -9.1953125 3.29296875 C-9.90275604 3.28872391 -10.61019958 3.28447906 -11.33908081 3.28010559 C-13.60143905 3.26329547 -15.86291048 3.22564128 -18.125 3.1875 C-19.65753923 3.17245607 -21.1900924 3.15876716 -22.72265625 3.14648438 C-26.48211318 3.11338462 -30.24090618 3.06158825 -34 3 C-34 2.67 -34 2.34 -34 2 C-29.83373537 1.6615135 -25.66693347 1.33014248 -21.5 1 C-19.74042969 0.85691406 -19.74042969 0.85691406 -17.9453125 0.7109375 C-11.94254224 0.2388095 -6.02127983 -0.11923326 0 0 Z " fill="#2F8CBB" transform="translate(436,364)"/>
<path d="M0 0 C3.29437661 2.99488782 4.82674252 5.47694587 5.3359375 9.953125 C5.42117744 17.14737555 4.99970726 21.94330044 1 28 C0.01 28.66 -0.98 29.32 -2 30 C-2 28.35 -2 26.7 -2 25 C-1.01 24.67 -0.02 24.34 1 24 C2.585869 20.828262 2.37866445 17.36486178 2.5625 13.875 C2.62727539 12.74384766 2.62727539 12.74384766 2.69335938 11.58984375 C2.7994832 9.72678112 2.90025001 7.86341476 3 6 C2.34 6 1.68 6 1 6 C0.67 4.02 0.34 2.04 0 0 Z " fill="#308DBA" transform="translate(500,250)"/>
<path d="M0 0 C-2.84376793 1.58215005 -5.14648627 2.31553257 -8.37890625 2.6328125 C-9.21325195 2.7167627 -10.04759766 2.80071289 -10.90722656 2.88720703 C-11.7834668 2.96567871 -12.65970703 3.04415039 -13.5625 3.125 C-14.90199707 3.25237549 -14.90199707 3.25237549 -16.26855469 3.38232422 C-22.52131977 3.94673109 -28.72067709 4.2592381 -35 4 C-35 3.67 -35 3.34 -35 3 C-23.60395569 0.19769402 -11.70336553 -0.11325838 0 0 Z " fill="#D5F1F9" transform="translate(432,258)"/>
<path d="M0 0 C0 3 0 3 -1.28515625 4.32421875 C-1.87167969 4.77410156 -2.45820313 5.22398437 -3.0625 5.6875 C-6.59410756 8.55290167 -9.49266058 11.69808157 -12.421875 15.16796875 C-13.88104785 16.86190951 -15.39822318 18.44164484 -17 20 C-17.66 19.67 -18.32 19.34 -19 19 C-12.98348207 12.26459665 -7.02537494 5.71692402 0 0 Z " fill="#FBCECD" transform="translate(390,142)"/>
<path d="M0 0 C1.65322266 0.01740234 1.65322266 0.01740234 3.33984375 0.03515625 C4.44457031 0.04417969 5.54929687 0.05320312 6.6875 0.0625 C7.54214844 0.07410156 8.39679688 0.08570313 9.27734375 0.09765625 C9.27734375 0.42765625 9.27734375 0.75765625 9.27734375 1.09765625 C-1.09547428 2.92049456 -11.14339083 4.6677963 -21.72265625 4.09765625 C-18.07877945 1.8305591 -14.76538948 1.74118833 -10.53515625 1.53515625 C-6.60407045 1.33678014 -3.57272325 0.12814646 0 0 Z " fill="#DEF8FD" transform="translate(445.72265625,380.90234375)"/>
<path d="M0 0 C3.22494532 2.83878682 5.38615313 6.41768015 7.6875 10 C8.10322266 10.6290625 8.51894531 11.258125 8.94726562 11.90625 C12 16.63823892 12 16.63823892 12 20 C8.37 16.37 4.74 12.74 1 9 C1.66 8.67 2.32 8.34 3 8 C2.505 7.05125 2.01 6.1025 1.5 5.125 C0 2 0 2 0 0 Z " fill="#CE4A52" transform="translate(366,218)"/>
<path d="M0 0 C3.72910066 -0.0582462 7.45808364 -0.09367917 11.1875 -0.125 C12.24259766 -0.14175781 13.29769531 -0.15851563 14.38476562 -0.17578125 C15.91713867 -0.18544922 15.91713867 -0.18544922 17.48046875 -0.1953125 C18.41785889 -0.20578613 19.35524902 -0.21625977 20.32104492 -0.22705078 C23.21630812 0.01833287 25.37062697 0.79478381 28 2 C28 2.33 28 2.66 28 3 C25.02063784 2.8575483 22.0415558 2.71112006 19.0625 2.5625 C18.23169922 2.52318359 17.40089844 2.48386719 16.54492188 2.44335938 C10.99634986 2.16269231 5.51628363 1.66239935 0 1 C0 0.67 0 0.34 0 0 Z " fill="#D2F0F8" transform="translate(312,383)"/>
<path d="M0 0 C2.27024968 -0.08097324 4.54132075 -0.13917704 6.8125 -0.1875 C8.07707031 -0.22230469 9.34164063 -0.25710938 10.64453125 -0.29296875 C14 0 14 0 17 3 C11.06 3 5.12 3 -1 3 C-0.67 2.01 -0.34 1.02 0 0 Z " fill="#1C88BC" transform="translate(331,386)"/>
<path d="M0 0 C1.27351308 2.54702616 0.80191925 3.4282945 0.0625 6.125 C-0.13214844 6.84945313 -0.32679688 7.57390625 -0.52734375 8.3203125 C-0.68332031 8.87460937 -0.83929688 9.42890625 -1 10 C-0.01 10.33 0.98 10.66 2 11 C3.37839903 11.46929928 4.75327262 11.94904357 6.125 12.4375 C6.82882812 12.68371094 7.53265625 12.92992187 8.2578125 13.18359375 C10 14 10 14 11 16 C0.69776962 14.29418408 0.69776962 14.29418408 -3 10 C-3.60024477 6.39853135 -3.45562482 4.72140596 -1.5 1.625 C-1.005 1.08875 -0.51 0.5525 0 0 Z " fill="#2E8BBB" transform="translate(317,287)"/>
<path d="M0 0 C0.33 0 0.66 0 1 0 C1.01417969 0.67804688 1.02835937 1.35609375 1.04296875 2.0546875 C1.3810064 8.65098975 2.72644807 13.28461337 6.0390625 19.00390625 C6.35617187 19.66261719 6.67328125 20.32132813 7 21 C6.67 21.66 6.34 22.32 6 23 C5.01 22.34 4.02 21.68 3 21 C3 19.68 3 18.36 3 17 C2.34 17 1.68 17 1 17 C-1.55311917 12.21290155 -1.40253336 7.28910111 -1 2 C-0.67 1.34 -0.34 0.68 0 0 Z " fill="#D84047" transform="translate(402,175)"/>
<path d="M0 0 C2.23239026 3.34858539 2.0554966 4.91487326 1.93359375 8.80859375 C2.00358054 11.11815778 2.43613237 13.03075047 3.0625 15.25 C3.94680186 18.78720743 4.02880551 19.74811124 3 23 C-1.68637804 9.27560718 -1.68637804 9.27560718 -1 2 C-0.67 1.34 -0.34 0.68 0 0 Z " fill="#FAD4D0" transform="translate(357,182)"/>
<path d="M0 0 C3.95087809 1.16730489 6.78425284 2.44837454 10 5 C8.06643218 5.69848264 6.12797702 6.38344814 4.1875 7.0625 C3.10855469 7.44535156 2.02960938 7.82820313 0.91796875 8.22265625 C-2 9 -2 9 -5 8 C-4.05125 7.566875 -3.1025 7.13375 -2.125 6.6875 C1.20041937 5.20697799 1.20041937 5.20697799 3 2 C2.01 2 1.02 2 0 2 C0 1.34 0 0.68 0 0 Z " fill="#2A8BB8" transform="translate(424,329)"/>
<path d="M0 0 C0.74362793 0.05236816 1.48725586 0.10473633 2.25341797 0.15869141 C3.05908203 0.21025391 3.86474609 0.26181641 4.69482422 0.31494141 C5.95746094 0.41162109 5.95746094 0.41162109 7.24560547 0.51025391 C8.09509766 0.56697266 8.94458984 0.62369141 9.81982422 0.68212891 C11.92073997 0.82376368 14.02077881 0.97829717 16.12060547 1.13525391 C16.12060547 1.46525391 16.12060547 1.79525391 16.12060547 2.13525391 C13.60040575 2.47410429 11.07962031 2.80645726 8.55810547 3.13525391 C7.85363281 3.23064453 7.14916016 3.32603516 6.42333984 3.42431641 C1.94692691 4.00191807 -2.36600691 4.23014773 -6.87939453 4.13525391 C-5.88939453 3.47525391 -4.89939453 2.81525391 -3.87939453 2.13525391 C-1.87939453 0.13525391 -1.87939453 0.13525391 0 0 Z " fill="#318FBF" transform="translate(423.87939453125,387.86474609375)"/>
<path d="M0 0 C0 0.33 0 0.66 0 1 C-7.47941368 2.94210433 -14.25847464 4.39363688 -22 4 C-22 3.34 -22 2.68 -22 2 C-7.40318907 -0.29612756 -7.40318907 -0.29612756 0 0 Z " fill="#3B92BB" transform="translate(462,361)"/>
<path d="M0 0 C7.93285519 -0.36801906 14.5345605 0.22523488 22 3 C21.67 3.66 21.34 4.32 21 5 C20.34 5 19.68 5 19 5 C19 4.34 19 3.68 19 3 C12.73 2.67 6.46 2.34 0 2 C0 1.34 0 0.68 0 0 Z " fill="#D7F1F7" transform="translate(462,244)"/>
<path d="M0 0 C0.33 1.32 0.66 2.64 1 4 C0.34 4 -0.32 4 -1 4 C-1.13277344 4.71027344 -1.26554687 5.42054688 -1.40234375 6.15234375 C-1.66724609 7.53099609 -1.66724609 7.53099609 -1.9375 8.9375 C-2.11152344 9.85402344 -2.28554688 10.77054688 -2.46484375 11.71484375 C-3 14 -3 14 -4 15 C-4.23287008 16.68183948 -4.41264166 18.3712416 -4.5625 20.0625 C-4.64628906 20.98160156 -4.73007812 21.90070313 -4.81640625 22.84765625 C-4.87699219 23.55792969 -4.93757813 24.26820313 -5 25 C-5.33 25 -5.66 25 -6 25 C-6.59495688 15.38153041 -5.39126556 8.08689834 0 0 Z " fill="#D44048" transform="translate(390,167)"/>
<path d="M0 0 C-0.99 1.485 -0.99 1.485 -2 3 C-2.66 3 -3.32 3 -4 3 C-4.33 4.98 -4.66 6.96 -5 9 C-5.66 8.67 -6.32 8.34 -7 8 C-7 7.34 -7 6.68 -7 6 C-6.34 6 -5.68 6 -5 6 C-5 4.68 -5 3.36 -5 2 C-6.0725 2.350625 -7.145 2.70125 -8.25 3.0625 C-11.78720743 3.94680186 -12.74811124 4.02880551 -16 3 C-10.28264895 0.54970669 -6.20970773 -0.33266291 0 0 Z " fill="#2C8EC1" transform="translate(286,347)"/>
<path d="M0 0 C-6.78743178 2.81552726 -12.68889006 3.3689719 -20 3 C-20 2.34 -20 1.68 -20 1 C-17.41765641 0.63667026 -14.83460218 0.28405133 -12.25 -0.0625 C-11.52039063 -0.16626953 -10.79078125 -0.27003906 -10.0390625 -0.37695312 C-6.3892704 -0.85806208 -3.52327086 -1.04532842 0 0 Z " fill="#D1F3FB" transform="translate(412,306)"/>
<path d="M0 0 C-0.66 1.32 -1.32 2.64 -2 4 C-3.134375 3.979375 -4.26875 3.95875 -5.4375 3.9375 C-8.81575674 3.58422523 -8.81575674 3.58422523 -10 5 C-11.51928038 5.07179964 -13.04167482 5.08392007 -14.5625 5.0625 C-15.38878906 5.05347656 -16.21507812 5.04445313 -17.06640625 5.03515625 C-17.70449219 5.02355469 -18.34257812 5.01195312 -19 5 C-19 4.67 -19 4.34 -19 4 C-18.16855469 3.79503906 -17.33710938 3.59007812 -16.48046875 3.37890625 C-15.39378906 3.10949219 -14.30710937 2.84007812 -13.1875 2.5625 C-11.56908203 2.16224609 -11.56908203 2.16224609 -9.91796875 1.75390625 C-3.12953368 0 -3.12953368 0 0 0 Z " fill="#D1F0F9" transform="translate(429,336)"/>
<path d="M0 0 C1.74216797 0.02707031 1.74216797 0.02707031 3.51953125 0.0546875 C4.39996094 0.07789063 5.28039062 0.10109375 6.1875 0.125 C6.1875 0.455 6.1875 0.785 6.1875 1.125 C2.2275 1.125 -1.7325 1.125 -5.8125 1.125 C-5.4825 2.115 -5.1525 3.105 -4.8125 4.125 C-8.1125 4.455 -11.4125 4.785 -14.8125 5.125 C-10.10756349 0.42006349 -6.54958261 -0.1323148 0 0 Z " fill="#57A1C1" transform="translate(477.8125,239.875)"/>
<path d="M0 0 C-0.66 0.66 -1.32 1.32 -2 2 C-2.6425235 4.06874034 -2.6425235 4.06874034 -3 6 C-3.99 6 -4.98 6 -6 6 C-6 5.01 -6 4.02 -6 3 C-7.65 3.33 -9.3 3.66 -11 4 C-7.84441727 0.34616736 -4.73375145 -1.57791715 0 0 Z " fill="#3C93BB" transform="translate(330,283)"/>
<path d="M0 0 C-2.77042109 2.77042109 -4.76533805 2.39796106 -8.625 2.625 C-9.81351562 2.69976562 -11.00203125 2.77453125 -12.2265625 2.8515625 C-13.59941406 2.92503906 -13.59941406 2.92503906 -15 3 C-15.33 2.34 -15.66 1.68 -16 1 C-10.63904667 -0.12862175 -5.44693314 -0.09688221 0 0 Z " fill="#6DA6BE" transform="translate(312,342)"/>
<path d="M0 0 C0.66 0.33 1.32 0.66 2 1 C0.8758824 2.29243468 -0.24932592 3.58392075 -1.375 4.875 C-2.00148438 5.59429687 -2.62796875 6.31359375 -3.2734375 7.0546875 C-4.47426834 8.4076598 -5.7208345 9.7208345 -7 11 C-7.99 10.67 -8.98 10.34 -10 10 C-6.7 6.7 -3.4 3.4 0 0 Z " fill="#FEE4E2" transform="translate(422,152)"/>
<path d="M0 0 C-3.63 1.98 -7.26 3.96 -11 6 C-11 5.34 -11 4.68 -11 4 C-11.99 3.67 -12.98 3.34 -14 3 C-12.23358317 2.3012307 -10.46167336 1.61633417 -8.6875 0.9375 C-7.20830078 0.36322266 -7.20830078 0.36322266 -5.69921875 -0.22265625 C-3 -1 -3 -1 0 0 Z " fill="#CC5960" transform="translate(456,130)"/>
<path d="M0 0 C2.92824652 0.97608217 4.61426621 2.10786631 7 4 C2.545 5.485 2.545 5.485 -2 7 C-2 6.34 -2 5.68 -2 5 C-1.34 4.67 -0.68 4.34 0 4 C0 3.34 0 2.68 0 2 C-0.66 1.67 -1.32 1.34 -2 1 C-1.34 0.67 -0.68 0.34 0 0 Z " fill="#308DBC" transform="translate(482,374)"/>
<path d="M0 0 C0 1.65 0 3.3 0 5 C-0.99 5.495 -0.99 5.495 -2 6 C-2 5.34 -2 4.68 -2 4 C-6.455 4.495 -6.455 4.495 -11 5 C-3.5 0 -3.5 0 0 0 Z " fill="#3A93C4" transform="translate(495,369)"/>
<path d="M0 0 C0.66 0.33 1.32 0.66 2 1 C-0.1293893 4.19408396 -1.76812741 5.09402386 -5 7 C-5.33 7.66 -5.66 8.32 -6 9 C-7.32 8.67 -8.64 8.34 -10 8 C-6.7 5.36 -3.4 2.72 0 0 Z " fill="#FEE2E2" transform="translate(434,143)"/>
<path d="M0 0 C-2.03819846 2.03819846 -3.29417798 2.67841059 -5.9375 3.6875 C-6.62714844 3.95949219 -7.31679688 4.23148437 -8.02734375 4.51171875 C-10 5 -10 5 -13 4 C-8.38987758 1.04952165 -5.63470383 -0.5497272 0 0 Z " fill="#5294B6" transform="translate(468,300)"/>
<path d="M0 0 C0.33 0 0.66 0 1 0 C1.05441656 1.89551022 1.09298035 3.7914792 1.125 5.6875 C1.14820313 6.74324219 1.17140625 7.79898437 1.1953125 8.88671875 C0.99858729 12.02251859 0.33057654 14.17645373 -1 17 C-1.66 17 -2.32 17 -3 17 C-2.690625 16.05125 -2.38125 15.1025 -2.0625 14.125 C-0.72071729 9.49061575 -0.36657993 4.79447959 0 0 Z " fill="#C5EDFB" transform="translate(505,260)"/>
<path d="M0 0 C1.98 0 3.96 0 6 0 C5.67 1.65 5.34 3.3 5 5 C4.01 5.33 3.02 5.66 2 6 C1.34 4.02 0.68 2.04 0 0 Z " fill="#298DBE" transform="translate(310,249)"/>
<path d="M0 0 C0.33 0.66 0.66 1.32 1 2 C1.66 2 2.32 2 3 2 C3 2.66 3 3.32 3 4 C1.03852126 5.38938077 -0.96166576 6.7260411 -3 8 C-3.66 7.67 -4.32 7.34 -5 7 C-3.35 4.69 -1.7 2.38 0 0 Z " fill="#CD4E53" transform="translate(401,245)"/>
<path d="M0 0 C0.99 0.33 1.98 0.66 3 1 C1.02 4.63 -0.96 8.26 -3 12 C-4.07156762 7.71372952 -4.0365854 7.33924618 -2.0625 3.75 C-1.68222656 3.04359375 -1.30195313 2.3371875 -0.91015625 1.609375 C-0.60980469 1.07828125 -0.30945313 0.5471875 0 0 Z " fill="#FEE4E3" transform="translate(389,164)"/>
<path d="M0 0 C0.8125 1.6875 0.8125 1.6875 1 4 C-1.375 6.625 -1.375 6.625 -4 9 C-4.33 9.66 -4.66 10.32 -5 11 C-5.66 10.67 -6.32 10.34 -7 10 C-6.02223933 8.51990357 -5.0427506 7.04094856 -4.0625 5.5625 C-3.51722656 4.73878906 -2.97195313 3.91507813 -2.41015625 3.06640625 C-1 1 -1 1 0 0 Z " fill="#FDDCDC" transform="translate(411,163)"/>
<path d="M0 0 C1.1446875 0.12375 1.1446875 0.12375 2.3125 0.25 C-0.54026137 3.18200474 -3.33829784 5.89315404 -6.6875 8.25 C-5.9168107 3.93413993 -4.72992724 0.43999323 0 0 Z " fill="#FDDFDD" transform="translate(363.6875,143.75)"/>
<path d="M0 0 C0 0.66 0 1.32 0 2 C-4.36200187 4.44697666 -8.02693484 5.50269348 -13 6 C-11.59719304 3.19438607 -9.9490995 2.99319493 -7.0625 1.875 C-6.16660156 1.52179688 -5.27070313 1.16859375 -4.34765625 0.8046875 C-2 0 -2 0 0 0 Z " fill="#D64446" transform="translate(441,134)"/>
<path d="M0 0 C0 0.66 0 1.32 0 2 C-5.36439644 4.68219822 -9.01006953 5.3152595 -15 5 C-15 4.67 -15 4.34 -15 4 C-12.87607494 3.3299166 -10.75082476 2.66403203 -8.625 2 C-7.44164062 1.62875 -6.25828125 1.2575 -5.0390625 0.875 C-2 0 -2 0 0 0 Z " fill="#CEEEF8" transform="translate(484,380)"/>
<path d="M0 0 C0.33 0.99 0.66 1.98 1 3 C-0.06893218 4.03590338 -1.15578488 5.05333942 -2.25 6.0625 C-3.15492188 6.91521484 -3.15492188 6.91521484 -4.078125 7.78515625 C-6 9 -6 9 -8.234375 8.68359375 C-8.81703125 8.45800781 -9.3996875 8.23242188 -10 8 C-8.87926138 7.16094435 -7.75325453 6.32892169 -6.625 5.5 C-5.99851562 5.0359375 -5.37203125 4.571875 -4.7265625 4.09375 C-3 3 -3 3 -1 3 C-0.67 2.01 -0.34 1.02 0 0 Z " fill="#D1F0F9" transform="translate(501,368)"/>
<path d="M0 0 C1.32 0.66 2.64 1.32 4 2 C4 2.99 4 3.98 4 5 C2.02 5.33 0.04 5.66 -2 6 C-1.34 4.02 -0.68 2.04 0 0 Z " fill="#1387BF" transform="translate(475,291)"/>
<path d="M0 0 C1.32 0.33 2.64 0.66 4 1 C4 2.32 4 3.64 4 5 C4.66 5 5.32 5 6 5 C6 5.99 6 6.98 6 8 C6.66 8 7.32 8 8 8 C7.67 8.99 7.34 9.98 7 11 C5.83051998 9.35616456 4.6644855 7.70987731 3.5 6.0625 C2.8503125 5.14597656 2.200625 4.22945312 1.53125 3.28515625 C0 1 0 1 0 0 Z " fill="#D23A40" transform="translate(391,208)"/>
<path d="M0 0 C1.50560497 2.85410334 2.63216796 5.68124642 3.625 8.75 C3.88539063 9.54921875 4.14578125 10.3484375 4.4140625 11.171875 C4.60742188 11.77515625 4.80078125 12.3784375 5 13 C4.01 12.67 3.02 12.34 2 12 C2 10.68 2 9.36 2 8 C1.34 8 0.68 8 0 8 C0 5.36 0 2.72 0 0 Z " fill="#D5464B" transform="translate(357,196)"/>
<path d="M0 0 C0.33 0.99 0.66 1.98 1 3 C0.01 3.33 -0.98 3.66 -2 4 C-3.20882096 6.00016466 -3.20882096 6.00016466 -4 8 C-5.32 7.67 -6.64 7.34 -8 7 C-5.36 4.69 -2.72 2.38 0 0 Z " fill="#DA3840" transform="translate(400,115)"/>
<path d="M0 0 C-3.68734758 2.45823172 -6.69699971 3.01242616 -11 4 C-11.33 3.01 -11.66 2.02 -12 1 C-8.0186217 -0.3271261 -4.14954773 -0.06915913 0 0 Z " fill="#5799B9" transform="translate(339,244)"/>
<path d="M0 0 C0.33 0.66 0.66 1.32 1 2 C0 5 0 5 -2 6 C-2.33 6.66 -2.66 7.32 -3 8 C-4.32 7.67 -5.64 7.34 -7 7 C-4.69 4.69 -2.38 2.38 0 0 Z " fill="#D9383E" transform="translate(357,152)"/>
<path d="M0 0 C0.33 0.66 0.66 1.32 1 2 C-0.3125 4.625 -0.3125 4.625 -2 7 C-2.66 7 -3.32 7 -4 7 C-4.33 8.32 -4.66 9.64 -5 11 C-5.99 10.67 -6.98 10.34 -8 10 C-5.36 6.7 -2.72 3.4 0 0 Z " fill="#D33E3F" transform="translate(409,104)"/>
<path d="M0 0 C2 1.1875 2 1.1875 4 3 C4.25 5.6875 4.25 5.6875 4 8 C3.01 8 2.02 8 1 8 C0.67 5.36 0.34 2.72 0 0 Z " fill="#4492B7" transform="translate(486,345)"/>
<path d="M0 0 C-4.75 4 -4.75 4 -7 4 C-7 3.34 -7 2.68 -7 2 C-8.65 2 -10.3 2 -12 2 C-12 1.67 -12 1.34 -12 1 C-7.93631321 0.22596442 -4.13574827 -0.0984702 0 0 Z " fill="#4897B9" transform="translate(452,256)"/>
<path d="M0 0 C0.33 0.66 0.66 1.32 1 2 C-1.65654657 5.73884332 -3.58110387 7.64978174 -8 9 C-7.04270084 7.87411986 -6.08412105 6.7493285 -5.125 5.625 C-4.59132813 4.99851562 -4.05765625 4.37203125 -3.5078125 3.7265625 C-2.38567993 2.44163349 -1.20628025 1.20628025 0 0 Z " fill="#FDCBCA" transform="translate(409,123)"/>
<path d="M0 0 C-3.00440021 2.00293347 -4.70993945 2.49271626 -8.1875 3.125 C-9.53908203 3.37636719 -9.53908203 3.37636719 -10.91796875 3.6328125 C-11.60503906 3.75398438 -12.29210937 3.87515625 -13 4 C-12 2 -12 2 -9.3125 0.875 C-6.0420565 0.01110926 -3.36293818 -0.16013991 0 0 Z " fill="#328CB9" transform="translate(479,381)"/>
<path d="M0 0 C0.99 0.680625 0.99 0.680625 2 1.375 C5.65206954 3.35320433 8.95052557 4.10774292 13 5 C13 5.33 13 5.66 13 6 C11.58249437 5.88490339 10.16598831 5.75746342 8.75 5.625 C7.96109375 5.55539062 7.1721875 5.48578125 6.359375 5.4140625 C3.914123 4.98492887 2.15163097 4.21399362 0 3 C0 2.01 0 1.02 0 0 Z " fill="#3692C2" transform="translate(281,356)"/>
<path d="M0 0 C0.33 0.99 0.66 1.98 1 3 C0.01 3.99 -0.98 4.98 -2 6 C-2.66 5.67 -3.32 5.34 -4 5 C-4.33 5.66 -4.66 6.32 -5 7 C-5.99 6.67 -6.98 6.34 -8 6 C-5.36 4.02 -2.72 2.04 0 0 Z " fill="#D2F0F9" transform="translate(488,354)"/>
<path d="M0 0 C1.99097846 2.98646769 2.94124926 5.59687262 4 9 C2.0625 8.3125 2.0625 8.3125 0 7 C-0.93580311 4.12060581 -1.37245106 2.74490212 0 0 Z " fill="#D9292F" transform="translate(365,217)"/>
<path d="M0 0 C3.8063457 0.67170806 7.35206816 1.72746564 11 3 C8.83032311 3.95465783 7.43671207 4.14401212 5.17578125 3.3984375 C3.4315257 2.64129615 1.71372869 1.82390802 0 1 C0 0.67 0 0.34 0 0 Z " fill="#2689B7" transform="translate(265,365)"/>
<path d="M0 0 C0 0.99 0 1.98 0 3 C-1.32 3.33 -2.64 3.66 -4 4 C-4 3.34 -4 2.68 -4 2 C-4.99 1.67 -5.98 1.34 -7 1 C-4.53721199 -0.231394 -2.7204945 -0.07159196 0 0 Z " fill="#1A86B8" transform="translate(445,258)"/>
<path d="M0 0 C0 3 0 3 -1.3125 4.38671875 C-2.875 5.59114583 -4.4375 6.79557292 -6 8 C-5.65120368 4.74456771 -4.97866739 3.98126893 -2.4375 1.75 C-1.633125 1.1725 -0.82875 0.595 0 0 Z " fill="#FCD6D7" transform="translate(390,142)"/>
<path d="M0 0 C1.32 0 2.64 0 4 0 C4 0.99 4 1.98 4 3 C2.35 3.66 0.7 4.32 -1 5 C-0.67 3.35 -0.34 1.7 0 0 Z " fill="#D9363F" transform="translate(441,134)"/>
<path d="M0 0 C-3.50538557 1.96301592 -7.13351728 2.95902388 -11 4 C-10.67 3.01 -10.34 2.02 -10 1 C-6.59437148 0.22157062 -3.49234244 -0.09978121 0 0 Z " fill="#D8F7FD" transform="translate(282,346)"/>
<path d="M0 0 C0.66 0 1.32 0 2 0 C2.33 0.66 2.66 1.32 3 2 C4.64363134 2.72159424 6.31050386 3.39351421 8 4 C8 4.66 8 5.32 8 6 C2.33846154 4.52307692 2.33846154 4.52307692 0.625 1.875 C0.41875 1.25625 0.2125 0.6375 0 0 Z " fill="#3790BE" transform="translate(326,332)"/>
<path d="M0 0 C0.66 0 1.32 0 2 0 C2.625 1.8125 2.625 1.8125 3 4 C2.01 5.485 2.01 5.485 1 7 C0.34 7 -0.32 7 -1 7 C-0.67 4.69 -0.34 2.38 0 0 Z " fill="#238ABD" transform="translate(491,268)"/>
<path d="M0 0 C0.66 0.33 1.32 0.66 2 1 C0.02 3.97 0.02 3.97 -2 7 C-2.66 6.67 -3.32 6.34 -4 6 C-3.6875 4.125 -3.6875 4.125 -3 2 C-2.01 1.34 -1.02 0.68 0 0 Z " fill="#D1F2FC" transform="translate(315,253)"/>
<path d="M0 0 C0 0.99 0 1.98 0 3 C-2.97 2.67 -5.94 2.34 -9 2 C-5.23312136 0.11656068 -3.97041037 -0.22057835 0 0 Z " fill="#DAECF0" transform="translate(342,242)"/>
<path d="M0 0 C0.99 0.33 1.98 0.66 3 1 C3.33 4.3 3.66 7.6 4 11 C1.6870518 8.6870518 1.50419025 7.52095125 0.875 4.375 C0.70742188 3.55773437 0.53984375 2.74046875 0.3671875 1.8984375 C0.24601562 1.27195313 0.12484375 0.64546875 0 0 Z " fill="#FDDEDE" transform="translate(357,194)"/>
</svg>
