<svg width="181" height="181" viewBox="0 0 181 181" fill="none" xmlns="http://www.w3.org/2000/svg">
<path d="M126.932 20.8933C125.881 20.2872 124.933 20.2292 124.247 20.6289L66.5524 54.1567C65.8658 54.5468 65.4435 55.3881 65.4403 56.584L65.3306 95.1566L43.0787 108.086C43.1237 108.06 43.1722 108.038 43.2205 108.012C42.7306 108.276 42.2857 108.621 41.9022 109.053C41.367 109.65 40.9416 110.404 40.6482 111.31C40.3548 112.212 40.1969 113.263 40.1936 114.433L40.184 117.734L32.1317 122.415C31.4353 122.802 31.0034 123.643 31.0001 124.852C30.9937 127.244 32.6764 130.161 34.7621 131.366L38.1371 133.313C39.4425 134.068 40.7094 134.49 41.8539 134.596C43.1175 134.709 44.2359 134.442 45.1482 133.836C45.0774 133.884 45.0031 133.932 44.9258 133.978L52.4043 129.632L52.3688 141.659C52.3657 143.264 52.646 144.979 53.1587 146.678C53.9258 149.228 55.2088 151.749 56.827 153.944C57.6362 155.043 58.5323 156.062 59.4897 156.958C60.447 157.854 61.4688 158.628 62.5133 159.23C63.9058 160.036 65.2565 160.484 66.4782 160.597C67.7547 160.713 68.8894 160.465 69.837 159.888C69.8112 159.907 69.7823 159.924 69.7533 159.94L127.461 126.405C127.906 126.144 128.312 125.812 128.67 125.413C129.221 124.797 129.659 124.017 129.962 123.088C130.262 122.16 130.426 121.077 130.43 119.875L130.691 27.4049C130.697 25.0129 129.014 22.0956 126.932 20.8933ZM71.133 158.753C71.2942 158.55 71.4489 158.328 71.5876 158.096C71.4489 158.328 71.2974 158.55 71.133 158.753Z" fill="#1C8200"/>
<path d="M97.2917 91.2432L39.5844 124.781C39.4909 124.835 39.3877 124.874 39.2781 124.894C39.117 124.926 38.9397 124.923 38.7559 124.881C38.5689 124.842 38.3756 124.765 38.1595 124.639L34.7877 122.692C33.7369 122.086 32.7859 122.031 32.1027 122.431L89.8067 88.8933C90.4933 88.4968 91.4443 88.5516 92.4951 89.1576L95.8669 91.1047C96.0797 91.2272 96.2763 91.3045 96.4632 91.3464C96.6469 91.3883 96.821 91.3916 96.9822 91.3593C97.0951 91.3367 97.195 91.298 97.2917 91.2432Z" fill="#C5C5D1"/>
<path d="M106.131 83.7485C105.918 83.871 105.747 84.0612 105.631 84.3094C105.512 84.5608 105.447 84.867 105.444 85.2539L105.418 94.3184C105.418 95.4434 105.264 96.4588 104.983 97.3324C104.699 98.2027 104.287 98.9345 103.771 99.5115C103.433 99.8886 103.052 100.198 102.633 100.443L44.9258 133.977C45.3448 133.732 45.7252 133.423 46.0636 133.049C46.5794 132.469 46.992 131.74 47.2757 130.867C47.5561 129.996 47.711 128.981 47.711 127.853L47.7368 118.788C47.7399 118.405 47.8044 118.098 47.9236 117.847C48.0396 117.599 48.2105 117.405 48.4233 117.283L106.131 83.7485Z" fill="#EAEAEF"/>
<path d="M122.114 117.208L64.4069 150.743C64.2847 150.814 64.1506 150.865 64.0067 150.893C63.7963 150.935 63.5654 150.929 63.3203 150.875C63.0772 150.823 62.8176 150.72 62.5378 150.559C62.1632 150.343 61.828 150.064 61.5156 149.734C61.049 149.237 60.6406 148.611 60.3579 147.964C60.2166 147.639 60.1062 147.312 60.0308 146.987C59.9555 146.661 59.9152 146.342 59.9162 146.018L117.623 112.482C117.622 112.806 117.662 113.126 117.738 113.451C117.813 113.776 117.923 114.103 118.065 114.429C118.347 115.075 118.756 115.702 119.222 116.199C119.535 116.528 119.87 116.807 120.245 117.023C120.524 117.185 120.784 117.287 121.027 117.34C121.272 117.394 121.503 117.399 121.713 117.357C121.857 117.329 121.991 117.279 122.114 117.208Z" fill="#1C8200"/>
<path d="M59.9734 125.852L117.68 92.3167L117.623 112.482L59.9163 146.018L59.9734 125.852Z" fill="#C5C5D1"/>
<path d="M43.0797 108.087L100.786 74.5514C101.689 74.027 102.766 73.8037 103.968 73.9108C105.155 74.0206 106.467 74.4582 107.821 75.2401C108.838 75.8271 109.829 76.5796 110.761 77.4489C111.692 78.3206 112.561 79.3105 113.35 80.3793C114.921 82.5133 116.165 84.961 116.915 87.4427C117.411 89.0913 117.685 90.7582 117.68 92.3167L59.9735 125.852C59.9779 124.294 59.7043 122.627 59.208 120.978C58.4586 118.497 57.2142 116.049 55.6432 113.915C54.8546 112.846 53.9854 111.856 53.0541 110.984C52.1227 110.115 51.1312 109.363 50.1144 108.776C48.7602 107.994 47.4483 107.556 46.2612 107.446C45.0597 107.339 43.9821 107.563 43.0797 108.087Z" fill="#1C8200"/>
<path d="M130.691 27.4047L130.43 119.874C130.426 121.077 130.262 122.16 129.962 123.088C129.659 124.017 129.221 124.797 128.67 125.412C128.312 125.812 127.905 126.144 127.461 126.405L69.7533 159.94C70.2013 159.682 70.6042 159.35 70.9653 158.95C71.5133 158.334 71.955 157.554 72.2547 156.623C72.5578 155.694 72.719 154.611 72.7221 153.412L72.9833 60.9389L130.691 27.4047Z" fill="#EAEAEF"/>
<path d="M130.691 27.4047L72.9832 60.9389C72.9897 58.5471 71.3069 55.6298 69.2245 54.4274C68.1737 53.8214 67.226 53.7666 66.5393 54.1631L124.247 20.6289C124.933 20.2291 125.881 20.2872 126.932 20.8932C129.014 22.0956 130.697 25.0128 130.691 27.4047Z" fill="#1C8200"/>
<path d="M69.2237 54.4274C71.3065 55.6299 72.9906 58.547 72.9838 60.9403L72.7217 153.411C72.7183 154.612 72.5565 155.694 72.255 156.624C71.9534 157.554 71.5141 158.333 70.964 158.948C69.8618 160.179 68.312 160.764 66.4777 160.598C65.2556 160.485 63.9066 160.035 62.5133 159.231C61.4677 158.627 60.4475 157.853 59.4894 156.957C58.5312 156.06 57.6353 155.043 56.8263 153.944C55.208 151.749 53.9267 149.228 53.1589 146.679C52.6462 144.978 52.3645 143.264 52.3691 141.661L52.4262 121.495C52.427 121.206 52.3908 120.92 52.3236 120.63C52.2585 120.344 52.1582 120.049 52.0333 119.761C51.7814 119.183 51.4161 118.626 51.0009 118.182C50.7234 117.889 50.4252 117.642 50.0897 117.448C49.8407 117.304 49.6101 117.214 49.3917 117.166C49.1754 117.117 48.9692 117.114 48.7815 117.15C48.4041 117.223 48.1003 117.469 47.9241 117.846C47.8058 118.098 47.7411 118.404 47.7379 118.788L47.7122 127.853C47.7111 128.98 47.5577 129.995 47.2748 130.867C46.9921 131.739 46.5797 132.47 46.0627 133.047C45.0287 134.201 43.5759 134.75 41.855 134.595C40.7091 134.49 39.4425 134.067 38.1356 133.313L34.7624 131.365C32.6775 130.161 30.9932 127.244 31 124.851C31.0068 122.455 32.7021 121.489 34.787 122.693L38.1602 124.64C38.3742 124.764 38.5698 124.841 38.7553 124.882C38.9406 124.923 39.1158 124.927 39.2767 124.894C39.5985 124.831 39.8588 124.622 40.0082 124.3C40.1098 124.087 40.1662 123.825 40.1672 123.497L40.1929 114.432C40.1962 113.264 40.3537 112.213 40.647 111.309C40.9402 110.405 41.367 109.65 41.9026 109.052C42.9718 107.855 44.4803 107.288 46.261 107.446C47.4481 107.556 48.76 107.994 50.1142 108.776C51.131 109.363 52.1224 110.115 53.0538 110.985C53.9851 111.856 54.8543 112.846 55.643 113.915C57.214 116.049 58.4583 118.497 59.2078 120.978C59.7041 122.627 59.9777 124.294 59.9733 125.852L59.9161 146.018C59.9152 146.342 59.9554 146.661 60.0308 146.987C60.1061 147.312 60.2165 147.639 60.3578 147.964C60.6405 148.611 61.049 149.237 61.5155 149.734C61.828 150.064 62.1632 150.343 62.5378 150.559C62.8176 150.72 63.0771 150.823 63.3202 150.876C63.5653 150.929 63.7962 150.935 64.0067 150.893C64.4294 150.81 64.7683 150.534 64.9675 150.112C65.1001 149.828 65.1733 149.484 65.1766 149.055L65.4387 56.5844C65.4457 54.191 67.1388 53.2237 69.2237 54.4274Z" fill="#D7D7E2"/>
<path d="M122.338 98.9797C122.071 98.9797 121.811 98.8417 121.668 98.5944C121.453 98.2246 121.579 97.751 121.948 97.5362L124.99 95.7774C125.36 95.5627 125.834 95.6886 126.048 96.0577C126.263 96.4274 126.137 96.901 125.767 97.1159L122.726 98.8747C122.604 98.9457 122.47 98.9797 122.338 98.9797Z" fill="#252728"/>
<path d="M78.3534 124.539C78.0864 124.539 77.8269 124.401 77.6835 124.154C77.4684 123.784 77.5941 123.31 77.9638 123.095L117.389 100.186C117.759 99.9713 118.233 100.097 118.446 100.467C118.661 100.836 118.536 101.31 118.166 101.525L78.7412 124.434C78.619 124.505 78.4851 124.539 78.3534 124.539Z" fill="#252728"/>
<path d="M87.5252 125.588C87.2583 125.588 86.9987 125.45 86.8553 125.203C86.6402 124.833 86.7659 124.359 87.1356 124.144L124.99 102.156C125.36 101.942 125.834 102.068 126.048 102.437C126.263 102.806 126.137 103.28 125.767 103.495L87.9131 125.483C87.7909 125.554 87.657 125.588 87.5252 125.588Z" fill="#252728"/>
<path d="M78.3534 130.918C78.0864 130.918 77.8269 130.78 77.6835 130.533C77.4684 130.163 77.5941 129.69 77.9638 129.475L82.7317 126.704C83.1019 126.489 83.5757 126.615 83.7895 126.984C84.0046 127.354 83.8789 127.827 83.5092 128.042L78.7412 130.813C78.619 130.884 78.4851 130.918 78.3534 130.918Z" fill="#252728"/>
<path d="M87.5252 139.06C87.2583 139.06 86.9987 138.922 86.8553 138.675C86.6402 138.305 86.7659 137.831 87.1356 137.616L124.99 115.628C125.36 115.414 125.834 115.54 126.048 115.909C126.263 116.278 126.137 116.752 125.767 116.967L87.9131 138.955C87.7909 139.026 87.657 139.06 87.5252 139.06Z" fill="#252728"/>
<path d="M78.3534 144.39C78.0864 144.39 77.8269 144.252 77.6835 144.005C77.4684 143.635 77.5941 143.162 77.9638 142.947L82.7317 140.176C83.1019 139.961 83.5757 140.087 83.7895 140.456C84.0046 140.826 83.8789 141.299 83.5092 141.514L78.7412 144.285C78.619 144.356 78.4851 144.39 78.3534 144.39Z" fill="#252728"/>
<path d="M122.338 112.217C122.071 112.217 121.811 112.079 121.668 111.832C121.453 111.462 121.579 110.989 121.948 110.774L124.99 109.015C125.36 108.8 125.834 108.926 126.048 109.295C126.263 109.665 126.137 110.139 125.767 110.353L122.726 112.112C122.604 112.183 122.47 112.217 122.338 112.217Z" fill="#252728"/>
<path d="M78.3534 137.777C78.0864 137.777 77.8269 137.639 77.6835 137.391C77.4684 137.022 77.5941 136.548 77.9638 136.333L117.389 113.424C117.759 113.209 118.233 113.335 118.446 113.704C118.661 114.074 118.536 114.547 118.166 114.762L78.7412 137.672C78.619 137.743 78.4851 137.777 78.3534 137.777Z" fill="#252728"/>
<g opacity="0.3">
<path d="M104.52 32.0908L100.268 45.086L72.7881 129.106L72.832 116.68L95.2942 47.9787L99.5454 34.9834L104.52 32.0908Z" fill="white"/>
<path d="M130.686 27.4011L130.576 64.6775L106.404 138.66L69.7637 159.939C70.2018 159.676 70.5967 159.347 70.9691 158.953C71.5169 158.339 71.9551 157.55 72.2617 156.63C72.5468 155.688 72.7223 154.614 72.7223 153.409L72.7442 148.565L108.048 40.5497L112.299 27.5765L124.243 20.6295C124.944 20.2351 125.886 20.279 126.938 20.8925C129.02 22.0979 130.708 25.0124 130.686 27.4011Z" fill="white"/>
</g>
<path d="M149.998 62.4614C150.011 66.069 147.472 70.4676 144.329 72.2783L94.884 100.827C93.3021 101.736 91.8731 101.826 90.8392 101.223C90.8324 101.223 90.8324 101.216 90.8255 101.216L87.1712 99.0913C86.1445 98.4946 85.513 97.2389 85.5061 95.442L85.4507 79.174L85.3604 72.0229C85.3535 70.5243 85.7906 68.8939 86.5259 67.3676C87.5598 65.2169 89.1901 63.2743 91.0287 62.2129L123.081 43.7098L140.474 33.664C142.056 32.7482 143.492 32.6649 144.526 33.2685L148.166 35.3792C148.166 35.3861 148.173 35.3861 148.18 35.3931L148.187 35.4C149.207 35.9897 149.845 37.2455 149.852 39.0423L149.998 62.4614Z" fill="#FFC239"/>
<path d="M144.145 35.7959C147.285 33.9827 149.84 35.4338 149.85 39.0425L150 62.4605C150.01 66.0692 147.472 70.4664 144.331 72.2796L94.8842 100.828C91.7437 102.641 89.1884 101.185 89.1782 97.576L89.0287 74.158C89.0185 70.5493 91.5572 66.1572 94.6977 64.344L144.145 35.7959Z" fill="#1C8200"/>
<path d="M144.142 35.7954C145.724 34.8796 147.16 34.7964 148.194 35.4L144.526 33.2685C143.492 32.6649 142.056 32.7482 140.474 33.664L123.081 43.7064L126.749 45.8378L144.142 35.7954Z" fill="#01B016"/>
<path d="M85.5062 95.442C85.5132 97.2389 86.1446 98.4946 87.1714 99.0913L90.8393 101.223C89.8196 100.633 89.1813 99.3704 89.1813 97.5735L89.1223 81.3111L85.4498 79.1772L85.5062 95.442Z" fill="#60A74C"/>
<path d="M94.6967 64.3443L126.749 45.8378L123.081 43.7064L91.0287 62.2129C89.1896 63.2724 87.562 65.2172 86.527 67.37L90.198 69.5031C91.2323 67.3489 92.8577 65.4039 94.6967 64.3443Z" fill="#60A74C"/>
<path d="M90.1979 69.5031L86.5269 67.37C85.7932 68.8962 85.3546 70.5262 85.3604 72.0228L85.4497 79.1771L89.1222 81.311L89.0285 74.1612C89.0256 72.6618 89.4645 71.0303 90.1979 69.5031Z" fill="#01B016"/>
<path d="M101.576 81.9699C101.581 84.0514 101.181 85.7593 100.373 87.0953C99.567 88.4278 98.5477 89.449 97.3166 90.1606C96.3061 90.7441 95.3845 91.0039 94.5537 90.9434C94.4594 90.9345 94.3812 90.906 94.3171 90.8633C94.3224 90.8669 94.326 90.874 94.3331 90.8776L93.2639 90.2567C93.1056 90.1642 93.0255 89.9791 93.0255 89.7052C93.0238 89.4508 93.0967 89.1804 93.2408 88.8975C93.3867 88.6164 93.5752 88.4083 93.8118 88.2713C93.9506 88.1912 94.0751 88.1521 94.1855 88.1503H94.1873C94.8241 88.1325 95.4664 87.9368 96.1157 87.5615C96.8647 87.1292 97.4678 86.535 97.9321 85.7735C98.3928 85.0139 98.6223 83.9482 98.6171 82.582L98.5886 72.2547C98.5867 71.954 98.6775 71.6427 98.8554 71.3243C99.0351 71.0058 99.2557 70.771 99.5207 70.618C99.7823 70.4668 100.006 70.4454 100.195 70.5522C100.197 70.5522 100.199 70.554 100.202 70.5557L101.253 71.1677C101.257 71.1695 101.261 71.1713 101.262 71.173C101.453 71.278 101.545 71.4844 101.547 71.785L101.576 81.9699Z" fill="white"/>
<path d="M145.898 60.4401L140.566 49.1362C140.474 48.9583 140.357 48.8302 140.207 48.7519L139.165 48.1453C139.122 48.1204 139.076 48.099 139.028 48.083C138.827 48.0154 138.581 48.067 138.289 48.2342L138.083 48.3534C137.791 48.5206 137.546 48.7555 137.346 49.0544C137.145 49.3532 136.992 49.6752 136.882 50.0257L131.63 67.4389C131.561 67.6701 131.527 67.8498 131.527 67.9761C131.529 68.2785 131.614 68.4831 131.789 68.5899C131.792 68.5917 131.794 68.5935 131.798 68.5952L132.854 69.209C132.856 69.209 132.856 69.2108 132.856 69.2108C133.031 69.3175 133.257 69.2908 133.532 69.1308C133.726 69.0187 133.904 68.8586 134.062 68.6469C134.221 68.4369 134.34 68.2039 134.424 67.9495L135.763 63.4485L142.201 59.7304L143.111 61.6944C143.162 61.794 143.23 61.8687 143.313 61.9168L144.381 62.5377C144.374 62.5341 144.37 62.527 144.363 62.5235C144.416 62.559 144.477 62.5839 144.544 62.5964C144.703 62.6231 144.879 62.5804 145.073 62.4683C145.349 62.3082 145.574 62.0751 145.747 61.7691C145.92 61.4632 146.003 61.1589 146.003 60.8565C146.003 60.7301 145.968 60.5913 145.898 60.4401ZM136.927 59.556L138.956 52.7156L141.018 57.1934L136.927 59.556Z" fill="white"/>
<path d="M131.933 54.242C131.933 54.3861 131.912 54.532 131.871 54.6849L126.784 71.9291C126.496 72.8275 126.067 73.4412 125.5 73.7686L125.045 74.0319C124.68 74.2418 124.374 74.2685 124.123 74.1119C124.128 74.1155 124.134 74.1208 124.141 74.1244L123.073 73.5035C122.924 73.4163 122.796 73.2686 122.686 73.057L117.519 61.7317C117.477 61.6285 117.455 61.5057 117.455 61.3634C117.455 61.0272 117.537 60.7141 117.702 60.4187C117.868 60.1252 118.096 59.8939 118.386 59.7249C118.58 59.6146 118.757 59.579 118.916 59.6235C118.96 59.636 119.003 59.652 119.042 59.6751L120.102 60.2924C120.204 60.3494 120.287 60.4419 120.348 60.57L124.513 70.0184L129.035 54.3167C129.118 54.0463 129.238 53.799 129.398 53.5713C129.554 53.3453 129.732 53.1746 129.926 53.0625C130.211 52.8988 130.437 52.865 130.602 52.9611L131.671 53.582C131.675 53.5838 131.677 53.5855 131.68 53.5873C131.848 53.6905 131.931 53.9075 131.933 54.242Z" fill="white"/>
<path d="M117.838 76.64L112.504 65.3378C112.421 65.1688 112.31 65.0478 112.175 64.9677L111.106 64.3469C111.061 64.3219 111.015 64.3006 110.967 64.2846C110.766 64.217 110.519 64.2668 110.229 64.4358L110.021 64.555C109.731 64.7222 109.485 64.9571 109.284 65.2559C109.085 65.5531 108.93 65.8768 108.822 66.2273L103.568 83.6404C103.501 83.8717 103.467 84.0496 103.467 84.1777C103.467 84.4801 103.554 84.6847 103.727 84.7915C103.73 84.7933 103.734 84.7951 103.737 84.7968L104.796 85.4124C104.97 85.5191 105.196 85.4924 105.472 85.3323C105.666 85.2202 105.842 85.0601 106.002 84.8484C106.16 84.6367 106.281 84.4037 106.363 84.1492L107.701 79.6501L114.141 75.9319L115.048 77.896C115.102 77.9956 115.169 78.0703 115.251 78.1183L116.32 78.7392C116.313 78.7357 116.31 78.7286 116.303 78.725C116.356 78.7606 116.415 78.7855 116.482 78.7962C116.642 78.8246 116.818 78.7819 117.012 78.6698C117.288 78.5097 117.514 78.2767 117.687 77.9707C117.857 77.6647 117.945 77.3587 117.943 77.058C117.943 76.93 117.909 76.7912 117.838 76.64ZM108.864 75.7576L110.894 68.9172L112.956 73.395L108.864 75.7576Z" fill="white"/>
<path d="M95.2539 88.7722L94.1852 88.1512C94.8224 88.1335 95.466 87.937 96.116 87.5617C96.8642 87.1297 97.4679 86.5344 97.9312 85.7735C98.3931 85.0134 98.6214 83.9488 98.6176 82.5821L99.6862 83.2031C99.6901 84.5698 99.4617 85.6345 98.9999 86.3946C98.5366 87.1555 97.9329 87.7508 97.1847 88.1827C96.5347 88.558 95.8911 88.7545 95.2539 88.7722Z" fill="#1D1E1E"/>
<path d="M95.2547 88.773C95.1426 88.773 95.0181 88.8121 94.8811 88.8922C94.6445 89.0292 94.4542 89.2373 94.3101 89.5202C94.166 89.8013 94.093 90.0717 94.093 90.3261C94.0947 90.6 94.1748 90.7851 94.3331 90.8776L93.2639 90.2567C93.1056 90.1642 93.0255 89.9791 93.0255 89.7052C93.0238 89.4508 93.0967 89.1803 93.2408 88.8975C93.3867 88.6164 93.5752 88.4082 93.8118 88.2713C93.9506 88.1912 94.0751 88.1521 94.1855 88.1503L95.2547 88.773Z" fill="#303335"/>
<path d="M99.6864 83.2031L98.6177 82.5821L98.5884 72.2555L99.6571 72.8766L99.6864 83.2031Z" fill="#303335"/>
<path d="M101.262 71.173C101.076 71.0663 100.852 71.0876 100.588 71.2389C100.325 71.3919 100.104 71.6267 99.9246 71.9451C99.7449 72.2636 99.6559 72.5749 99.6578 72.8774L98.5885 72.2547C98.5867 71.954 98.6775 71.6427 98.8554 71.3243C99.0351 71.0058 99.2556 70.771 99.5207 70.618C99.7822 70.4668 100.006 70.4454 100.195 70.5522C100.197 70.5522 100.199 70.554 100.202 70.5557L101.262 71.173Z" fill="#1D1E1E"/>
<path d="M100.589 71.2387C100.852 71.087 101.076 71.0657 101.263 71.1724C101.452 71.2784 101.545 71.4839 101.546 71.7859L101.575 81.9693C101.581 84.0512 101.18 85.7599 100.373 87.0947C99.5668 88.4279 98.5474 89.4495 97.3164 90.1601C96.3055 90.7438 95.385 91.0046 94.5537 90.9434C94.2475 90.9132 94.0945 90.7071 94.0934 90.3257C94.0927 90.0714 94.1653 89.8018 94.31 89.5194C94.4547 89.2368 94.6439 89.0289 94.8804 88.8924C95.0187 88.8125 95.1432 88.7724 95.254 88.7721C95.8912 88.7545 96.5348 88.5579 97.1848 88.1827C97.933 87.7507 98.5367 87.1554 99 86.3945C99.4619 85.6344 99.6903 84.5697 99.6864 83.203L99.6571 72.8765C99.6563 72.5746 99.7454 72.2637 99.9246 71.9453C100.104 71.627 100.325 71.3912 100.589 71.2387Z" fill="white"/>
<path d="M144.381 62.5376L143.313 61.9167C143.23 61.8686 143.162 61.7939 143.111 61.6943L141.75 58.7535L142.819 59.3744L144.178 62.3169C144.231 62.4166 144.299 62.4895 144.381 62.5376Z" fill="#1D1E1E"/>
<path d="M136.483 61.0497L135.414 60.4286L141.018 57.1931L142.087 57.8142L136.483 61.0497Z" fill="#303335"/>
<path d="M142.087 57.8142L141.018 57.1931L138.194 51.0604L139.263 51.6815L142.087 57.8142Z" fill="#1D1E1E"/>
<path d="M132.858 69.2107L131.798 68.5951C131.794 68.5933 131.792 68.5916 131.789 68.5898C131.614 68.4831 131.529 68.2785 131.527 67.976C131.527 67.8497 131.561 67.67 131.63 67.4388L136.882 50.0256L137.951 50.6465L132.698 68.0615C132.63 68.2909 132.596 68.4706 132.596 68.597C132.596 68.8993 132.684 69.1039 132.858 69.2107Z" fill="#303335"/>
<path d="M140.234 48.7661C140.191 48.7411 140.145 48.7198 140.097 48.7038C139.896 48.638 139.649 48.6878 139.359 48.855L139.15 48.9742C138.861 49.1414 138.615 49.3763 138.416 49.6751C138.215 49.974 138.06 50.296 137.951 50.6465L136.882 50.0256C136.993 49.6751 137.145 49.3531 137.347 49.0542C137.546 48.7553 137.791 48.5205 138.083 48.3533L138.289 48.2341C138.581 48.0669 138.827 48.0153 139.028 48.0829C139.076 48.0989 139.122 48.1203 139.165 48.1451L140.234 48.7661Z" fill="#1D1E1E"/>
<path d="M145.898 60.44C145.968 60.5907 146.003 60.7298 146.003 60.8569C146.004 61.1588 145.919 61.4626 145.747 61.769C145.575 62.0754 145.349 62.3089 145.073 62.4686C144.879 62.5804 144.702 62.6237 144.544 62.5956C144.383 62.569 144.262 62.4748 144.179 62.3161L142.818 59.3752L135.762 63.449L134.423 67.9486C134.341 68.2031 134.221 68.4363 134.062 68.6473C133.903 68.8583 133.727 69.0193 133.533 69.1311C133.256 69.2908 133.031 69.3177 132.857 69.2109C132.684 69.1041 132.597 68.8993 132.596 68.5974C132.596 68.4703 132.63 68.2914 132.699 68.0608L137.951 50.6467C138.061 50.2968 138.215 49.9737 138.415 49.6752C138.615 49.3767 138.861 49.1424 139.151 48.9747L139.359 48.8549C139.649 48.6872 139.896 48.6373 140.097 48.7042C140.298 48.7712 140.453 48.9154 140.566 49.1368L145.898 60.44ZM136.483 61.0497L142.087 57.8142L139.263 51.6815L136.483 61.0497Z" fill="white"/>
<path d="M125.266 71.7311L124.198 71.1101L129.036 54.317L130.104 54.9381L125.266 71.7311Z" fill="#303335"/>
<path d="M131.671 53.5819C131.506 53.4858 131.28 53.5196 130.994 53.6833C130.801 53.7954 130.624 53.9662 130.467 54.1921C130.307 54.4198 130.186 54.6671 130.104 54.9375L129.035 54.3166C129.118 54.0462 129.238 53.7989 129.398 53.5712C129.554 53.3452 129.732 53.1745 129.926 53.0624C130.211 52.8987 130.437 52.8649 130.602 52.961L131.671 53.5819Z" fill="#1D1E1E"/>
<path d="M124.141 74.1244L123.073 73.5035C122.924 73.4163 122.796 73.2686 122.685 73.0569L117.519 61.7316L118.587 62.3525L123.755 73.6778C123.865 73.8895 123.993 74.0372 124.141 74.1244Z" fill="#303335"/>
<path d="M120.11 60.296C120.072 60.2728 120.029 60.2568 119.985 60.2444C119.825 60.2017 119.649 60.2355 119.455 60.3458C119.165 60.5148 118.935 60.7461 118.77 61.0414C118.606 61.3349 118.523 61.648 118.524 61.9843C118.524 62.1266 118.546 62.2494 118.587 62.3526L117.519 61.7317C117.477 61.6285 117.455 61.5057 117.455 61.3634C117.455 61.0272 117.537 60.7141 117.703 60.4187C117.868 60.1252 118.096 59.8939 118.386 59.7249C118.58 59.6146 118.758 59.579 118.916 59.6235C118.96 59.636 119.003 59.652 119.042 59.6751L120.11 60.296Z" fill="#1D1E1E"/>
<path d="M130.994 53.684C131.285 53.5164 131.513 53.4847 131.68 53.5876C131.848 53.6896 131.931 53.9071 131.932 54.2424C131.933 54.3854 131.912 54.5325 131.87 54.6844L126.785 71.9287C126.497 72.8274 126.067 73.4413 125.5 73.7686L125.044 74.0321C124.477 74.3595 124.047 74.2416 123.755 73.6782L118.587 62.353C118.546 62.2499 118.524 62.1267 118.524 61.9837C118.523 61.6484 118.605 61.3351 118.771 61.0406C118.936 60.7462 119.164 60.5143 119.454 60.3466C119.648 60.2348 119.825 60.2009 119.985 60.2442C120.144 60.2874 120.265 60.396 120.349 60.5706L125.266 71.7312L130.104 54.9381C130.187 54.6677 130.307 54.4203 130.467 54.1925C130.624 53.9664 130.801 53.7958 130.994 53.684Z" fill="white"/>
<path d="M116.32 78.7393L115.251 78.1184C115.169 78.0703 115.102 77.9956 115.048 77.896L113.691 74.9552L114.758 75.5761L116.117 78.5169C116.171 78.6165 116.237 78.6912 116.32 78.7393Z" fill="#1D1E1E"/>
<path d="M104.806 85.4178L103.737 84.7967C103.734 84.7949 103.731 84.793 103.727 84.791C103.554 84.6842 103.467 84.4795 103.467 84.1775C103.466 84.0504 103.5 83.8715 103.569 83.6409L104.638 84.2619C104.569 84.4926 104.535 84.6714 104.535 84.7986C104.536 85.1005 104.623 85.3053 104.796 85.4121C104.799 85.414 104.802 85.4159 104.806 85.4178Z" fill="white"/>
<path d="M108.422 77.2509L107.353 76.6298L112.957 73.3944L114.025 74.0155L108.422 77.2509Z" fill="#303335"/>
<path d="M114.026 74.0155L112.957 73.3944L110.133 67.2617L111.202 67.8827L114.026 74.0155Z" fill="#1D1E1E"/>
<path d="M104.638 84.2619L103.569 83.6409L108.821 66.2268L109.89 66.8479L104.638 84.2619Z" fill="#303335"/>
<path d="M112.175 64.9678C112.131 64.9429 112.084 64.9215 112.036 64.9055C111.835 64.8379 111.588 64.8877 111.298 65.0567L111.09 65.1759C110.8 65.3431 110.554 65.578 110.353 65.8768C110.154 66.1757 109.999 66.4977 109.889 66.8482L108.822 66.2273C108.93 65.8768 109.085 65.553 109.284 65.2559C109.485 64.9571 109.731 64.7222 110.021 64.555L110.229 64.4358C110.519 64.2668 110.766 64.2169 110.967 64.2846C111.015 64.3006 111.061 64.3219 111.106 64.3468L112.175 64.9678Z" fill="#1D1E1E"/>
<path d="M117.838 76.6404C117.908 76.7912 117.943 76.9302 117.943 77.0573C117.944 77.3593 117.858 77.6638 117.686 77.9702C117.513 78.2766 117.288 78.5101 117.011 78.6698C116.818 78.7816 116.642 78.8242 116.483 78.7968C116.322 78.7703 116.201 78.676 116.118 78.5174L114.759 75.5756L107.701 79.6503L106.363 84.149C106.281 84.4036 106.16 84.6375 106.001 84.8485C105.842 85.0595 105.665 85.2205 105.472 85.3323C105.195 85.492 104.969 85.5189 104.796 85.4121C104.622 85.3053 104.536 85.1005 104.535 84.7986C104.535 84.6715 104.569 84.4926 104.637 84.2619L109.89 66.8479C109.999 66.498 110.154 66.1749 110.354 65.8764C110.554 65.5778 110.8 65.3435 111.09 65.1758L111.297 65.0561C111.588 64.8884 111.834 64.8385 112.035 64.9054C112.236 64.9724 112.393 65.1158 112.505 65.338L117.838 76.6404ZM108.422 77.2509L114.025 74.0155L111.202 67.8827L108.422 77.2509Z" fill="white"/>
</svg>
