<svg width="181" height="181" viewBox="0 0 181 181" fill="none" xmlns="http://www.w3.org/2000/svg">
<g clip-path="url(#clip0_1254_17978)">
<path d="M145.808 42.0123L179.205 90.1913L145.443 109.811L145.47 42.2083L145.808 42.0123Z" fill="#FF9955"/>
<path d="M145.47 42.2083L145.443 109.811L111.461 90.1913L145.13 42.0123L145.47 42.2083Z" fill="#FFDEA1"/>
<path d="M145.808 42.0123L145.47 42.2084L145.13 42.0123L145.468 41.8163L145.808 42.0123Z" fill="#E93F57"/>
<path d="M42.8701 80.6907L42.7333 128.87L29.9806 136.28L30.1174 88.102L42.8701 80.6907Z" fill="#FFDEA1"/>
<path d="M12.0285 88.102L11.8922 136.28L-0.940796 128.872L-0.804456 80.6928L12.0285 88.102Z" fill="#FFDEA1"/>
<path d="M30.1174 88.102L29.9806 136.28H11.8921L12.0284 88.102H30.1174Z" fill="#FF9955"/>
<path d="M42.811 70.2126L42.8701 80.6907L30.1175 88.102H12.0285L-0.804482 80.6928L-0.863647 70.2147L11.889 62.8039H29.978L42.811 70.2126Z" fill="#FF9955"/>
<path d="M119.239 156.456C118.628 155.95 117.784 155.582 117.373 155.589C117.063 155.594 116.783 155.765 116.521 155.93C116.267 156.09 116.286 156.263 116.302 156.532C116.346 157.278 117.228 157.844 117.608 157.99C118.016 158.146 118.28 158.099 118.685 158.525C118.774 158.619 118.847 158.744 118.964 158.803C119.879 159.267 120.994 158.976 120.549 157.466C120.354 156.804 120.396 156.683 119.725 156.28C119.57 156.188 119.499 156.672 119.239 156.456Z" fill="#322A89"/>
<path d="M116.289 145.866C116.402 145.716 116.609 145.682 116.794 145.648C117.608 145.503 118.403 145.181 119.204 144.986C119.563 144.899 119.924 144.839 120.289 144.831L121.082 144.116C121.098 144.227 121.109 144.338 121.119 144.45C121.335 147.052 120.291 149.582 120.424 155.69C120.444 156.615 120.305 157.147 119.928 157.464C119.278 158.009 118.575 157.392 118.448 156.943C118.207 156.092 117.958 151.411 117.64 150.826C117.225 150.065 116.869 149.247 116.808 148.798C116.721 148.159 116.674 148.755 116.609 148.114C116.548 147.528 116.334 146.988 116.229 146.408C116.196 146.224 116.175 146.015 116.289 145.866Z" fill="#E7A07D"/>
<path d="M118.262 155.68C118.325 156.262 118.388 156.727 118.449 156.943C118.576 157.392 119.278 158.008 119.928 157.464C120.305 157.147 120.445 156.615 120.424 155.69C120.424 155.663 120.423 155.636 120.423 155.608C119.803 155.927 118.999 155.895 118.262 155.68Z" fill="#E9DFD8"/>
<path d="M114.643 155.707C114.622 156.578 114.447 158.919 115.233 159.217C115.623 159.365 116.67 159.058 116.746 158.631C117.204 156.054 117.794 150.924 117.77 150.842C117.618 150.325 116.934 150.618 116.599 150.734C114.485 151.462 114.792 149.521 114.643 155.707Z" fill="#F3B69A"/>
<path d="M114.718 156.37C114.687 156.349 114.655 156.328 114.623 156.304C114.59 157.359 114.589 158.973 115.233 159.217C115.623 159.365 116.67 159.059 116.746 158.631C116.837 158.119 116.934 157.505 117.029 156.851C116.256 157.021 115.417 156.853 114.718 156.37Z" fill="#E9DFD8"/>
<path d="M114.679 158.102C114.125 158.385 112.548 157.671 111.93 157.921C111.496 158.096 111.371 158.797 111.526 159.188C111.757 159.771 112.724 159.993 113.278 159.951C114.76 159.841 115.575 161.187 116.556 160.293C117.006 159.883 116.811 159.204 116.746 158.631C116.34 159.05 115.268 159.167 114.679 158.102Z" fill="#322A89"/>
<path d="M121.864 145.08C121.798 144.407 121.768 143.73 121.725 143.056C121.61 141.266 121.496 139.476 121.331 137.69C121.264 136.958 121.194 136.222 121.079 135.495C120.975 134.842 120.758 134.088 119.969 134.123C119.053 134.163 118.142 134.325 117.252 134.538C116.598 134.695 115.941 134.887 115.37 135.242C114.812 135.589 114.133 136.264 114.11 136.972C114.102 137.204 114.192 137.453 114.197 137.691C114.206 138.162 114.12 138.629 114.124 139.099C114.135 140.601 114.221 143.688 113.593 148.035C113.302 150.051 113.058 151.368 115.975 152.12C117.669 152.556 121.258 152.51 122.045 150.956C122.73 149.605 121.872 145.156 121.864 145.08Z" fill="#F37874"/>
<path d="M116.438 133.191C116.408 132.757 119.173 130.982 119.146 131.634C119.066 133.541 119.389 133.985 119.404 134.683C119.418 135.327 118.85 135.949 117.108 135.711C115.792 135.532 116.536 134.573 116.438 133.191Z" fill="#F3B69A"/>
<path d="M114.958 128.744C114.774 128.967 114.631 129.219 114.587 129.513C114.489 130.17 114.754 130.844 114.611 131.496C114.473 132.127 114.744 133.561 115.988 133.928C116.618 134.114 117.86 133.896 118.261 133.705C118.797 133.448 119.152 132.928 119.469 132.425C122.069 128.296 116.721 126.598 114.958 128.744Z" fill="#F3B69A"/>
<path d="M119.535 127.38C119.063 126.365 115.435 126.001 114.45 128.415C114.373 128.603 114.358 128.802 114.304 128.993C114.256 129.161 114.297 129.302 114.41 129.43C114.543 129.58 114.596 129.67 114.652 129.882C114.768 130.32 114.807 130.779 114.765 131.231C114.743 131.455 114.73 131.736 114.927 131.846C115.058 131.918 115.218 131.873 115.368 131.871C115.623 131.868 115.866 132.003 116.039 132.19C116.256 132.423 116.317 132.745 116.546 132.96C116.777 133.179 117.062 133.303 117.379 133.339C117.734 133.38 118.061 133.293 118.411 133.262C118.617 133.244 118.81 133.213 119.005 133.134C119.433 132.963 119.711 132.579 119.968 132.214C120.508 131.445 120.564 131.222 120.654 130.575C121.063 127.621 119.742 127.826 119.535 127.38Z" fill="#322A89"/>
<path d="M115.713 130.968C116.202 130.862 116.418 131.457 116.149 131.98C116.07 132.133 115.913 132.281 115.801 132.41C115.027 133.295 114.685 132.512 114.928 132.214C115.493 131.522 115.098 131.102 115.713 130.968Z" fill="#F3B69A"/>
<path d="M115.614 132.035C115.663 131.975 116.177 131.559 115.76 131.39C115.645 131.343 115.54 131.453 115.541 131.568C115.541 131.628 115.568 131.685 115.568 131.744C115.568 131.927 115.336 132.013 115.399 132.153C115.444 132.254 115.586 132.069 115.614 132.035Z" fill="#E7A07D"/>
<path d="M121.424 137.279C121.45 136.912 121.38 136.533 121.281 136.176C121.131 135.638 120.916 135.113 120.862 134.558C120.793 133.855 120.988 133.156 121.152 132.469C121.317 131.782 121.453 131.058 121.27 130.375C121.11 129.776 120.645 129.227 120.021 129.099C119.628 129.019 119.279 128.975 119.013 129.327C118.603 129.871 118.52 130.91 118.702 131.553C118.83 132.005 119.039 132.432 119.156 132.887C119.224 133.15 119.259 133.429 119.226 133.7C119.199 133.928 119.103 134.131 119.102 134.362C119.099 134.904 119.382 135.354 119.637 135.809C119.917 136.307 119.956 136.816 119.866 137.376C119.777 137.928 119.604 138.474 119.631 139.032C119.657 139.591 119.948 140.191 120.482 140.356C120.218 139.859 120.362 139.247 120.66 138.806C120.88 138.479 121.157 138.184 121.304 137.818C121.374 137.645 121.411 137.464 121.424 137.279Z" fill="#322A89"/>
<path d="M116.394 136.347C116.313 136.074 116.156 135.785 115.886 135.666C115.626 135.551 115.309 135.527 115.044 135.637C114.826 135.728 114.631 135.871 114.461 136.035C114.23 136.257 114.107 136.581 113.984 136.873C113.624 137.722 113.452 138.714 113.24 139.61C113.198 139.787 110.788 142.129 110.409 142.375C110.383 142.392 110.355 142.406 110.327 142.42C109.611 142.652 108.735 143.128 108.553 143.578C108.305 144.192 108.185 144.243 108.244 144.435C108.397 144.925 108.654 144.538 108.772 144.579C108.905 144.624 108.828 144.719 109.062 144.981C109.252 145.194 109.307 144.975 109.408 145C109.49 145.02 109.483 145.128 109.581 145.125C109.616 145.125 109.644 145.093 109.683 145.097C109.776 145.106 109.733 145.195 110 145.185C110.255 145.176 110.004 144.594 110.459 144.255C110.573 144.17 110.701 144.107 110.822 144.032C110.969 143.941 111.104 143.832 111.224 143.709C111.27 143.661 111.334 143.591 111.395 143.523C112.08 142.986 112.831 142.56 113.539 142.061C113.88 141.82 114.221 141.579 114.553 141.326C114.84 141.106 115.211 140.883 115.373 140.555C115.705 139.882 115.977 139.179 116.166 138.453C116.261 138.087 116.335 137.715 116.385 137.34C116.431 137.004 116.493 136.678 116.394 136.347Z" fill="#F3B69A"/>
<path d="M41.3926 139.519L43.1434 138.502L51.3094 143.216L49.5586 144.233L41.3926 139.519Z" fill="#E6E6F0"/>
<path d="M51.6177 145.422L53.368 144.405L61.5345 149.12L59.7837 150.137L51.6177 145.422Z" fill="#E6E6F0"/>
<path d="M59.7835 150.137L61.5344 149.12L61.5272 151.486L59.7769 152.504L59.7835 150.137Z" fill="#ACAFF1"/>
<path d="M51.7031 115.346L53.4534 114.329L53.368 144.405L51.6177 145.422L51.7031 115.346Z" fill="#E6E6F0"/>
<path d="M49.6439 114.157L51.3947 113.14L53.4532 114.329L51.7029 115.346L49.6439 114.157Z" fill="#E6E6F0"/>
<path d="M51.7028 115.346L51.6174 145.422L59.7834 150.137L59.7767 152.504L41.3857 141.886L41.3924 139.519L49.5584 144.233L49.6438 114.157L51.7028 115.346Z" fill="#C5C8EE"/>
<path d="M113.215 98.0656L114.965 97.0479L123.132 101.763L121.381 102.78L113.215 98.0656Z" fill="#E6E6F0"/>
<path d="M123.439 103.968L125.19 102.951L133.356 107.666L131.605 108.683L123.439 103.968Z" fill="#E6E6F0"/>
<path d="M131.605 108.683L133.356 107.666L133.349 110.033L131.599 111.05L131.605 108.683Z" fill="#ACAFF1"/>
<path d="M123.525 73.8922L125.275 72.8751L125.19 102.951L123.439 103.968L123.525 73.8922Z" fill="#E6E6F0"/>
<path d="M121.466 72.7037L123.217 71.6861L125.275 72.8751L123.525 73.8922L121.466 72.7037Z" fill="#E6E6F0"/>
<path d="M123.525 73.8922L123.439 103.968L131.605 108.683L131.599 111.05L113.208 100.432L113.215 98.0656L121.381 102.78L121.466 72.7038L123.525 73.8922Z" fill="#C5C8EE"/>
<path d="M124.977 75.8134L121.776 73.9535L121.632 16.3917L124.833 18.2521L124.977 75.8134Z" fill="#D1D2EC"/>
<path d="M51.1329 118.448L47.9318 116.587L121.776 73.9535L124.977 75.8134L51.1329 118.448Z" fill="#E6E6F0"/>
<path d="M50.9884 60.8864L47.7872 59.026L121.632 16.3917L124.833 18.2521L50.9884 60.8864Z" fill="#0F0A3A"/>
<path d="M51.133 118.448L47.9318 116.587L47.7872 59.026L50.9884 60.8864L51.133 118.448Z" fill="#0B082E"/>
<path d="M50.1797 60.4254L125.636 16.8604L125.786 76.2748L50.3294 119.84L50.1797 60.4254ZM124.977 75.8133L124.833 18.2521L50.9885 60.8859L51.133 118.448L124.977 75.8133Z" fill="#C5C8EE"/>
<path d="M123.163 18.2521L123.305 74.6604L51.1299 116.331L50.9884 59.9223L123.163 18.2521Z" fill="#FF9955"/>
<path d="M50.3293 119.839L47.1281 117.979L46.9784 58.565L50.1796 60.4254L50.3293 119.839Z" fill="#D1D2EC"/>
<path d="M50.1796 60.4254L46.9784 58.565L122.435 15L125.636 16.8604L50.1796 60.4254Z" fill="#E6E6F0"/>
<path d="M97.8499 66.693C97.8499 65.789 98.3139 65.2565 98.919 64.8974C99.4875 64.5553 100.135 64.2692 100.447 64.1956V64.882C100.101 65.0461 99.3229 65.469 99.1268 65.5822C98.7965 65.7643 98.6057 65.9012 98.6057 66.3256V66.5484C98.6057 66.9101 98.7255 66.9188 99.0317 66.7419L99.6557 66.3817C100.431 65.9346 100.59 66.5474 100.59 67.0516V67.3556C100.59 68.3918 100.031 68.9068 99.4963 69.2155C98.8218 69.605 98.3798 69.8123 97.9713 69.9091V69.2227C98.1874 69.1229 98.8459 68.7864 99.3481 68.4963C99.5755 68.3651 99.8343 68.1721 99.8343 67.8228V67.5774C99.8343 67.3176 99.7664 67.191 99.4777 67.3572L98.8701 67.7081C97.9168 68.2586 97.8494 67.4848 97.8494 67.0876L97.8499 66.693Z" fill="#D1D2EC"/>
<path d="M100.93 65.1145L103.236 63.7835V64.5192L100.93 65.8502V65.1145ZM100.93 66.4522L103.236 65.1212V65.8569L100.93 67.1879V66.4522Z" fill="#D1D2EC"/>
<path d="M103.425 63.587L106.483 61.8208V62.6249L105.995 62.9074V64.2419C105.995 64.652 106.107 64.6731 106.367 64.5229L106.743 64.3057V64.8197C106.607 65.0039 106.391 65.2164 106.07 65.4016C105.541 65.7072 105.239 65.5354 105.239 64.7122V63.3436L104.586 63.7208V66.2274L103.83 66.6637V64.1571L103.425 64.3906V63.587Z" fill="#D1D2EC"/>
<path d="M107.074 61.4807L107.711 61.1128L107.829 61.4621C108.028 61.1257 108.296 60.7413 108.652 60.5355C108.776 60.464 108.894 60.4007 108.971 60.391V61.2337C108.894 61.2692 108.719 61.3618 108.557 61.456C108.244 61.6365 108.016 61.8269 107.829 62.2447V64.3556L107.074 64.7919V61.4807Z" fill="#D1D2EC"/>
<path d="M109.206 59.0379C109.539 58.7791 109.812 58.5707 110.29 58.2949C110.857 57.9672 111.087 58.2167 111.087 58.741C111.087 59.3934 110.383 60.4424 110.142 60.8041L111.085 60.2603V60.8833L109.226 61.9561V61.3613C109.552 60.9116 110.496 59.6177 110.496 59.1459C110.496 58.8804 110.383 58.8645 110.076 59.0415L109.207 59.5436C109.202 59.5462 109.204 59.0363 109.206 59.0379Z" fill="#D1D2EC"/>
<path d="M98.6543 79.3402C97.3155 79.3402 96.0736 79.0248 94.9736 78.3899C92.3306 76.864 90.8746 73.7019 90.8746 69.4872C90.8746 61.0809 96.7969 50.823 104.077 46.6201C107.727 44.5128 111.193 44.1928 113.837 45.7182C116.48 47.2447 117.936 50.4063 117.936 54.6215C117.936 63.0278 112.014 73.2852 104.733 77.4886C102.602 78.7192 100.533 79.3402 98.6543 79.3402ZM110.152 46.0815C108.505 46.0815 106.66 46.6438 104.733 47.7561C97.8146 51.7501 92.1866 61.4987 92.1866 69.4867C92.1866 73.2131 93.4095 75.9713 95.6296 77.2534C97.8501 78.5355 100.85 78.2145 104.077 76.3515C110.995 72.3575 116.623 62.609 116.623 54.621C116.623 50.8945 115.4 48.1363 113.18 46.8547C112.286 46.3382 111.264 46.0815 110.152 46.0815Z" fill="#E6E6F0"/>
<path d="M76.2375 52.352L73.8729 53.7211L66.7076 57.8638L64.343 59.2328L59.2223 62.1845V106.474L64.272 103.558L66.6366 102.189L73.7844 98.064L76.149 96.713L76.167 96.695L81.6613 93.5123V49.2224L76.2375 52.352ZM80.3447 92.7663L79.7402 93.1218L79.7222 93.1399L77.3576 94.4914L70.2278 98.6166L70.1923 98.6346L67.8632 99.9682L60.6978 104.111L60.5378 104.2V62.9325L60.7688 62.7905L63.1335 61.439L70.2813 57.3138L72.6284 55.9627L72.6639 55.9447L79.7937 51.8195L80.0782 51.6415L80.3447 51.4995V92.7663Z" fill="#E6E6F0"/>
<path d="M81.6603 90.1882V91.2013L80.3447 92.4993L79.7402 93.1218L79.7222 93.1393L76.1661 96.6955L76.1486 96.7135L73.7834 98.0646L81.6603 90.1882Z" fill="white"/>
<path d="M81.6601 86.1695V87.1831L70.2276 98.6156L70.1921 98.6336L66.636 102.19L64.2714 103.559L81.6601 86.1695Z" fill="white"/>
<path d="M81.6602 82.1339V83.1469L80.3446 84.463L60.6972 104.11L59.2217 105.585V104.59L60.5372 103.274L80.3446 83.4494L81.6602 82.1339Z" fill="white"/>
<path d="M81.6602 78.1152V79.1287L80.3446 80.4448L60.5372 100.252L59.2217 101.567V100.572L60.5372 99.2556L80.3446 79.4312L81.6602 78.1152Z" fill="white"/>
<path d="M81.6602 74.097V75.0926L80.3446 76.4086L60.5372 96.233L59.2217 97.5491V96.5175L60.5372 95.202L80.3446 75.4131L81.6602 74.097Z" fill="white"/>
<path d="M81.6602 70.0788V71.0744L80.3446 72.3904L60.5372 92.2148L59.2217 93.5309V92.4993L60.5372 91.1838L80.3446 71.3944L81.6602 70.0788Z" fill="white"/>
<path d="M81.6602 66.0426V67.0562L80.3446 68.3718L60.5372 88.1611L59.2217 89.4767V88.4811L81.6602 66.0426Z" fill="white"/>
<path d="M81.6602 62.0245V63.038L80.3446 64.3536L60.5372 84.143L59.2217 85.4585V84.463L60.5372 83.1469L80.3446 63.34L81.6602 62.0245Z" fill="white"/>
<path d="M81.6602 57.9883V59.0019L59.2217 81.4404V80.4448L60.5372 79.1287L80.3446 59.3039L81.6602 57.9883Z" fill="white"/>
<path d="M81.6602 53.9701V54.9837L59.2217 77.4222V76.4261L60.5372 75.1106L80.3446 55.2857L81.6602 53.9701Z" fill="white"/>
<path d="M80.5221 52.0856L80.3446 52.263L60.5372 72.0879L59.2217 73.4035V72.3724L60.5372 71.0569L79.7931 51.8185L80.0241 51.5875L80.0776 51.641L80.5221 52.0856Z" fill="white"/>
<path d="M76.2374 52.3521L72.6633 55.9437L72.6278 55.9612L59.2217 69.3678V68.3718L73.8723 53.7211L76.2374 52.3521Z" fill="white"/>
<path d="M66.707 57.8638L63.1334 61.4374L60.5372 64.0336L59.2217 65.3491V64.3536L60.5372 63.038L60.7688 62.789L64.3424 59.2329L66.707 57.8638Z" fill="white"/>
<path d="M180.619 119.543L182.013 119.173C182.12 119.203 182.148 119.231 182.17 119.264C182.203 119.33 182.208 119.345 182.211 119.361C182.215 119.438 182.201 119.466 182.18 119.478L181.218 120.434C181.177 120.384 181.187 120.36 181.187 120.325C181.187 120.268 181.175 120.209 181.16 120.15C181.154 120.13 181.148 120.11 181.141 120.09C181.126 120.048 181.107 120.007 181.086 119.966C181.074 119.945 181.064 119.922 181.051 119.9C181.026 119.859 180.997 119.824 180.967 119.788C180.953 119.77 180.94 119.751 180.924 119.735C180.877 119.688 180.826 119.644 180.772 119.614C180.718 119.583 180.666 119.568 180.618 119.562L180.619 119.543Z" fill="#322A89"/>
<path d="M180.613 119.547L175.861 120.824C176.094 120.686 176.42 120.704 176.778 120.908L180.888 119.573C180.78 119.511 180.684 119.507 180.613 119.547Z" fill="#C5C8EE"/>
<mask id="mask0_1254_17978" style="mask-type:luminance" maskUnits="userSpaceOnUse" x="175" y="119" width="6" height="2">
<path d="M180.613 119.547L175.861 120.824C176.094 120.686 176.42 120.704 176.778 120.908L180.888 119.573C180.78 119.511 180.684 119.507 180.613 119.547Z" fill="white"/>
</mask>
<g mask="url(#mask0_1254_17978)">
<path d="M176.778 120.908L180.888 119.573C180.879 119.568 176.746 120.891 176.746 120.891L176.778 120.908Z" fill="#C5C8EE"/>
<path d="M176.746 120.891L180.879 119.568C180.833 119.541 180.788 119.528 180.746 119.523L176.306 120.742C176.443 120.758 176.592 120.807 176.746 120.891Z" fill="#C5C8EE"/>
<path d="M176.307 120.742L180.747 119.523C180.711 119.518 180.676 119.521 180.646 119.532L175.971 120.773C176.071 120.738 176.184 120.726 176.307 120.742Z" fill="#C5C8EE"/>
<path d="M175.971 120.773L180.646 119.532C180.613 119.547 175.861 120.824 175.861 120.824C175.895 120.804 175.932 120.786 175.971 120.773Z" fill="#C5C8EE"/>
</g>
<path d="M177.703 123.949L181.166 120.485C181.235 120.445 181.277 120.358 181.277 120.238C181.276 119.992 181.102 119.695 180.889 119.573L176.779 120.908C177.49 121.315 178.071 122.306 178.073 123.125C178.074 123.529 177.933 123.814 177.703 123.949Z" fill="#C5C8EE"/>
<mask id="mask1_1254_17978" style="mask-type:luminance" maskUnits="userSpaceOnUse" x="176" y="119" width="6" height="5">
<path d="M177.703 123.949L181.166 120.485C181.235 120.445 181.277 120.358 181.277 120.238C181.276 119.992 181.102 119.695 180.889 119.573L176.779 120.908C177.49 121.315 178.071 122.306 178.073 123.125C178.074 123.529 177.933 123.814 177.703 123.949Z" fill="white"/>
</mask>
<g mask="url(#mask1_1254_17978)">
<path d="M177.703 123.949L181.166 120.485C181.235 120.445 181.277 120.358 181.277 120.238C181.277 120.199 181.272 120.159 181.264 120.12L178.031 122.73C178.058 122.864 178.073 122.997 178.073 123.125C178.074 123.529 177.933 123.814 177.703 123.949Z" fill="#C5C8EE"/>
<path d="M178.031 122.73L181.265 120.12C181.255 120.07 181.238 120.02 181.219 119.972L177.879 122.238C177.946 122.4 177.999 122.566 178.031 122.73Z" fill="#D1D2EC"/>
<path d="M177.879 122.238L181.219 119.972C181.195 119.917 181.167 119.864 181.135 119.815L177.6 121.717C177.71 121.881 177.803 122.058 177.879 122.238Z" fill="#D1D2EC"/>
<path d="M177.601 121.716L181.136 119.814C181.068 119.713 180.982 119.626 180.889 119.572L176.779 120.908C177.09 121.086 177.376 121.377 177.601 121.716Z" fill="#E6E6F0"/>
</g>
<path d="M176.778 120.908C176.066 120.502 175.487 120.833 175.49 121.652C175.491 122.467 176.073 123.459 176.785 123.864C177.496 124.27 178.075 123.941 178.073 123.125C178.071 122.306 177.489 121.314 176.778 120.908Z" fill="#DED0C8"/>
<path d="M175.871 120.823L143.333 139.962C143.566 139.825 143.889 139.842 144.246 140.045L176.784 120.906C176.427 120.703 176.104 120.686 175.871 120.823Z" fill="#4D4BCF"/>
<mask id="mask2_1254_17978" style="mask-type:luminance" maskUnits="userSpaceOnUse" x="143" y="120" width="34" height="21">
<path d="M175.871 120.823L143.333 139.962C143.566 139.825 143.889 139.842 144.246 140.045L176.784 120.906C176.427 120.703 176.104 120.686 175.871 120.823Z" fill="white"/>
</mask>
<g mask="url(#mask2_1254_17978)">
<path d="M144.246 140.045L176.784 120.906C176.753 120.888 144.215 140.028 144.215 140.028L144.246 140.045Z" fill="#7977ED"/>
<path d="M144.215 140.028L176.753 120.888C176.599 120.805 176.451 120.756 176.316 120.74L143.778 139.879C143.914 139.895 144.061 139.944 144.215 140.028Z" fill="#4D4BCF"/>
<path d="M143.778 139.879L176.316 120.74C176.194 120.726 176.082 120.737 175.981 120.772L143.444 139.911C143.544 139.875 143.657 139.864 143.778 139.879Z" fill="#4D4BCF"/>
<path d="M143.443 139.91L175.981 120.771C175.942 120.785 175.905 120.802 175.871 120.822L143.333 139.961C143.369 139.941 143.405 139.924 143.443 139.91Z" fill="#4D4BCF"/>
</g>
<path d="M145.171 143.089L177.708 123.951C177.938 123.815 178.08 123.528 178.079 123.122C178.077 122.307 177.5 121.314 176.784 120.906L144.246 140.045C144.962 140.453 145.54 141.446 145.542 142.261C145.543 142.667 145.401 142.954 145.171 143.089Z" fill="#4D4BCF"/>
<mask id="mask3_1254_17978" style="mask-type:luminance" maskUnits="userSpaceOnUse" x="144" y="120" width="35" height="24">
<path d="M145.171 143.089L177.708 123.951C177.938 123.815 178.08 123.528 178.079 123.122C178.077 122.307 177.5 121.314 176.784 120.906L144.246 140.045C144.962 140.453 145.54 141.446 145.542 142.261C145.543 142.667 145.401 142.954 145.171 143.089Z" fill="white"/>
</mask>
<g mask="url(#mask3_1254_17978)">
<path d="M145.171 143.089L177.708 123.951C177.938 123.815 178.08 123.528 178.079 123.122C178.079 122.994 178.064 122.863 178.037 122.728L145.5 141.868C145.527 142.002 145.541 142.134 145.542 142.261C145.544 142.667 145.402 142.954 145.171 143.089Z" fill="#322A89"/>
<path d="M145.5 141.868L178.037 122.728C178.004 122.564 177.952 122.398 177.884 122.235L145.348 141.374C145.415 141.538 145.467 141.704 145.5 141.868Z" fill="#322A89"/>
<path d="M145.348 141.374L177.885 122.235C177.81 122.055 177.716 121.878 177.607 121.713L145.07 140.853C145.178 141.018 145.273 141.194 145.348 141.374Z" fill="#4D4BCF"/>
<path d="M145.07 140.852L177.607 121.713C177.383 121.375 177.097 121.084 176.784 120.906L144.246 140.045C144.56 140.224 144.845 140.514 145.07 140.852Z" fill="#7977ED"/>
</g>
<path d="M144.247 140.045C143.535 139.639 142.96 139.975 142.961 140.79C142.964 141.606 143.543 142.599 144.254 143.005C144.969 143.413 145.544 143.077 145.542 142.261C145.54 141.446 144.962 140.453 144.247 140.045Z" fill="#7977ED"/>
<path d="M143.329 139.961L139.352 142.3C139.585 142.163 139.91 142.181 140.27 142.386L144.246 140.047C143.887 139.842 143.562 139.824 143.329 139.961Z" fill="#322A89"/>
<mask id="mask4_1254_17978" style="mask-type:luminance" maskUnits="userSpaceOnUse" x="139" y="139" width="6" height="4">
<path d="M143.329 139.961L139.352 142.3C139.585 142.163 139.91 142.181 140.27 142.386L144.246 140.047C143.887 139.842 143.562 139.824 143.329 139.961Z" fill="white"/>
</mask>
<g mask="url(#mask4_1254_17978)">
<path d="M140.27 142.386L144.246 140.047C144.215 140.03 140.238 142.369 140.238 142.369L140.27 142.386Z" fill="#322A89"/>
<path d="M140.237 142.369L144.214 140.03C144.059 139.945 143.91 139.895 143.773 139.879L139.797 142.219C139.933 142.235 140.083 142.285 140.237 142.369Z" fill="#322A89"/>
<path d="M139.797 142.219L143.773 139.879C143.652 139.864 143.539 139.876 143.438 139.911L139.462 142.25C139.562 142.215 139.675 142.204 139.797 142.219Z" fill="#322A89"/>
<path d="M139.462 142.25L143.438 139.911C143.4 139.925 143.364 139.941 143.329 139.961L139.352 142.3C139.386 142.28 139.423 142.263 139.462 142.25Z" fill="#322A89"/>
</g>
<path d="M141.194 145.427L145.171 143.088C145.401 142.953 145.543 142.667 145.542 142.263C145.54 141.444 144.958 140.452 144.246 140.047L140.27 142.386C140.982 142.792 141.563 143.783 141.564 144.602C141.566 145.007 141.424 145.292 141.194 145.427Z" fill="#322A89"/>
<mask id="mask5_1254_17978" style="mask-type:luminance" maskUnits="userSpaceOnUse" x="140" y="140" width="6" height="6">
<path d="M141.194 145.427L145.171 143.088C145.401 142.953 145.543 142.667 145.542 142.263C145.54 141.444 144.958 140.452 144.246 140.047L140.27 142.386C140.982 142.792 141.563 143.783 141.564 144.602C141.566 145.007 141.424 145.292 141.194 145.427Z" fill="white"/>
</mask>
<g mask="url(#mask5_1254_17978)">
<path d="M141.194 145.427L145.171 143.088C145.401 142.953 145.543 142.667 145.542 142.263C145.541 142.135 145.527 142.003 145.5 141.869L141.523 144.208C141.55 144.342 141.565 144.475 141.565 144.603C141.566 145.007 141.424 145.292 141.194 145.427Z" fill="#322A89"/>
<path d="M141.523 144.208L145.5 141.869C145.467 141.705 145.415 141.539 145.348 141.377L141.371 143.716C141.438 143.878 141.49 144.044 141.523 144.208Z" fill="#322A89"/>
<path d="M141.37 143.716L145.347 141.377C145.272 141.196 145.179 141.02 145.07 140.855L141.093 143.194C141.202 143.359 141.297 143.536 141.37 143.716Z" fill="#322A89"/>
<path d="M141.093 143.194L145.07 140.855C144.845 140.516 144.559 140.225 144.246 140.047L140.27 142.386C140.582 142.564 140.869 142.855 141.093 143.194Z" fill="#6462DC"/>
</g>
<path d="M140.27 142.386C139.555 141.978 138.98 142.311 138.982 143.13C138.983 143.945 139.562 144.934 140.277 145.342C140.989 145.748 141.567 145.419 141.564 144.603C141.563 143.784 140.982 142.792 140.27 142.386Z" fill="#322A89"/>
<path d="M139.307 142.554L137.91 143.377C138.117 143.255 138.404 143.272 138.723 143.453L140.12 142.629C139.802 142.448 139.514 142.432 139.307 142.554Z" fill="#F37874"/>
<mask id="mask6_1254_17978" style="mask-type:luminance" maskUnits="userSpaceOnUse" x="137" y="142" width="4" height="2">
<path d="M139.307 142.554L137.91 143.377C138.117 143.255 138.404 143.272 138.723 143.453L140.12 142.629C139.802 142.448 139.514 142.432 139.307 142.554Z" fill="white"/>
</mask>
<g mask="url(#mask6_1254_17978)">
<path d="M138.723 143.453L140.121 142.629C140.092 142.613 138.695 143.438 138.695 143.438L138.723 143.453Z" fill="#F37874"/>
<path d="M138.695 143.438L140.092 142.613C139.954 142.539 139.823 142.496 139.701 142.481L138.304 143.304C138.425 143.319 138.557 143.362 138.695 143.438Z" fill="#F37874"/>
<path d="M138.304 143.304L139.701 142.481C139.593 142.467 139.492 142.478 139.404 142.508L138.007 143.332C138.096 143.301 138.196 143.291 138.304 143.304Z" fill="#F37874"/>
<path d="M138.007 143.332L139.404 142.509C139.37 142.521 139.338 142.536 139.307 142.554L137.91 143.377C137.941 143.359 137.973 143.344 138.007 143.332Z" fill="#F37874"/>
</g>
<path d="M139.543 146.148L140.94 145.324C141.143 145.204 141.269 144.952 141.268 144.594C141.266 143.868 140.751 142.99 140.121 142.629L138.723 143.453C139.354 143.813 139.87 144.691 139.872 145.417C139.872 145.776 139.747 146.029 139.543 146.148Z" fill="#F37874"/>
<mask id="mask7_1254_17978" style="mask-type:luminance" maskUnits="userSpaceOnUse" x="138" y="142" width="4" height="5">
<path d="M139.543 146.148L140.94 145.324C141.143 145.204 141.269 144.952 141.268 144.594C141.266 143.868 140.751 142.99 140.121 142.629L138.723 143.453C139.354 143.813 139.87 144.691 139.872 145.417C139.872 145.776 139.747 146.029 139.543 146.148Z" fill="white"/>
</mask>
<g mask="url(#mask7_1254_17978)">
<path d="M139.543 146.148L140.94 145.324C141.144 145.204 141.269 144.952 141.268 144.594C141.268 144.48 141.255 144.363 141.231 144.244L139.835 145.068C139.858 145.187 139.871 145.304 139.872 145.417C139.872 145.776 139.747 146.029 139.543 146.148Z" fill="#F37874"/>
<path d="M139.835 145.068L141.231 144.244C141.202 144.1 141.156 143.953 141.096 143.808L139.699 144.632C139.759 144.776 139.805 144.923 139.835 145.068Z" fill="#F37874"/>
<path d="M139.7 144.632L141.097 143.809C141.031 143.649 140.947 143.493 140.85 143.347L139.454 144.17C139.55 144.315 139.633 144.472 139.7 144.632Z" fill="#F37874"/>
<path d="M139.453 144.17L140.85 143.346C140.652 143.045 140.397 142.787 140.121 142.63L138.723 143.454C139 143.611 139.255 143.869 139.453 144.17Z" fill="#F37874"/>
</g>
<path d="M138.723 143.453C138.09 143.091 137.58 143.386 137.582 144.112C137.584 144.834 138.096 145.711 138.73 146.072C139.36 146.433 139.873 146.14 139.872 145.417C139.87 144.692 139.354 143.813 138.723 143.453Z" fill="#E93F57"/>
<path d="M107.787 161.382C107.107 160.818 106.166 160.408 105.709 160.415C105.364 160.421 105.052 160.612 104.76 160.796C104.476 160.974 104.498 161.167 104.516 161.467C104.565 162.298 105.548 162.929 105.971 163.091C106.425 163.264 106.719 163.213 107.171 163.687C107.27 163.791 107.351 163.931 107.482 163.997C108.501 164.514 109.743 164.19 109.248 162.507C109.03 161.769 109.077 161.634 108.329 161.186C108.157 161.083 108.077 161.622 107.787 161.382Z" fill="#322A89"/>
<path d="M104.5 149.583C104.626 149.415 104.857 149.377 105.064 149.34C105.97 149.178 106.856 148.819 107.748 148.602C108.149 148.505 108.552 148.438 108.957 148.43L109.84 147.633C109.858 147.756 109.871 147.88 109.881 148.005C110.122 150.904 108.96 153.723 109.107 160.528C109.13 161.558 108.974 162.151 108.554 162.504C107.831 163.112 107.048 162.424 106.906 161.925C106.637 160.977 106.36 155.761 106.005 155.109C105.543 154.261 105.147 153.349 105.078 152.849C104.981 152.138 104.929 152.802 104.855 152.088C104.789 151.435 104.55 150.832 104.434 150.187C104.398 149.981 104.374 149.749 104.5 149.583Z" fill="#E7A07D"/>
<path d="M106.699 160.517C106.77 161.165 106.839 161.683 106.907 161.924C107.049 162.423 107.831 163.111 108.555 162.504C108.976 162.151 109.13 161.558 109.108 160.528C109.108 160.497 109.107 160.467 109.107 160.436C108.416 160.792 107.521 160.757 106.699 160.517Z" fill="#E9DFD8"/>
<path d="M109.38 155.421C109.646 155.224 110.047 149.984 109.882 148.004C109.872 147.88 109.858 147.756 109.841 147.632L108.957 148.429C108.552 148.437 108.149 148.504 107.748 148.601C106.856 148.818 105.97 149.178 105.064 149.339C104.857 149.376 104.627 149.415 104.5 149.582C104.374 149.748 104.398 149.98 104.435 150.186C104.551 150.831 104.79 151.433 104.856 152.087C104.929 152.801 104.982 152.136 105.079 152.848C105.148 153.349 105.544 154.26 106.006 155.108C106.042 155.173 106.073 155.287 106.099 155.438C107.108 155.916 108.973 155.723 109.38 155.421Z" fill="#181060"/>
<path d="M102.666 160.547C102.643 161.518 102.448 164.125 103.324 164.458C103.758 164.622 104.925 164.281 105.01 163.805C105.52 160.933 106.177 155.218 106.15 155.127C105.981 154.551 105.219 154.877 104.846 155.006C102.491 155.817 102.833 153.655 102.666 160.547Z" fill="#F3B69A"/>
<path d="M102.751 161.285C102.716 161.263 102.68 161.238 102.645 161.212C102.608 162.388 102.607 164.186 103.325 164.458C103.759 164.623 104.926 164.282 105.01 163.806C105.112 163.235 105.219 162.551 105.325 161.822C104.463 162.011 103.529 161.824 102.751 161.285Z" fill="#E9DFD8"/>
<path d="M105.175 148.547C105.7 148.578 106.227 148.583 106.752 148.579C106.985 148.577 107.284 148.621 107.51 148.565C107.706 148.518 107.861 148.365 108.066 148.316C108.227 148.277 108.68 147.943 108.807 148.049C109.002 148.211 108.732 148.86 108.678 149.107C108.198 151.3 106.804 151.764 106.374 153.961C106.082 155.456 105.518 157.167 105.246 157.828C105.051 158.303 105.393 157.889 104.278 158.087C104.017 158.133 103.751 158.151 103.485 158.141C103.284 158.132 103.028 158.037 102.844 158.138C102.73 157.355 102.813 156.546 102.65 155.777C102.479 154.968 102.515 154.092 102.487 153.261C102.275 146.896 102.016 148.362 105.175 148.547Z" fill="#F3B69A"/>
<path d="M106.788 153.939C107.217 151.742 108.198 151.3 108.679 149.106C108.733 148.859 109.002 148.21 108.808 148.049C108.68 147.942 102.561 147.051 102.374 147.965C102.256 148.542 102.197 153.008 102.191 153.62C102.179 154.686 101.75 155.456 104.792 155.591C106.894 155.685 106.637 154.708 106.788 153.939Z" fill="#322A89"/>
<path d="M101.744 139.198C101.727 139.407 101.762 139.813 101.966 139.95C102.134 140.062 102.501 140.021 102.692 140.039C103.29 140.094 103.888 140.133 104.487 140.172C104.758 140.189 105.03 140.207 105.301 140.215C106.095 140.24 106.887 140.189 107.661 140.06C107.962 140.01 108.461 139.938 108.7 139.738C108.938 139.54 108.96 139.22 108.92 138.9C108.849 138.33 108.567 137.771 108.025 137.553C107.482 137.335 106.943 137.428 106.404 137.497C105.157 137.657 103.925 137.895 102.717 138.212C102.502 138.269 102.284 138.33 102.104 138.459C101.898 138.607 101.768 138.896 101.744 139.198Z" fill="white"/>
<path d="M102.154 137.463C102.346 137.174 104.028 136.171 105.506 135.639C106.887 135.141 108.633 133.965 109.946 135.267C110.424 135.742 110.676 136.409 110.758 137.077C110.853 137.858 110.716 138.596 110.596 139.356C110.478 140.097 110.375 140.842 110.313 141.591C109.801 147.673 110.876 148.316 108.297 148.646C106.06 148.932 103.102 149.555 102.341 148.297C102.106 147.908 102.209 147.438 102.234 147.013C102.551 141.438 101.519 138.418 102.154 137.463Z" fill="#C5C8EE"/>
<path d="M105.134 134.426C105.08 134.057 108.057 132.683 108.057 133.233C108.056 134.843 108.333 134.607 108.382 135.198C108.428 135.743 107.925 136.741 105.987 136.461C104.524 136.248 105.305 135.599 105.134 134.426Z" fill="#F3B69A"/>
<path d="M103.488 129.456C103.283 129.705 103.123 129.985 103.074 130.313C102.965 131.044 103.26 131.796 103.101 132.522C102.947 133.225 103.248 134.822 104.635 135.232C105.337 135.439 106.722 135.196 107.167 134.983C107.765 134.697 108.16 134.118 108.513 133.557C111.41 128.957 105.452 127.065 103.488 129.456Z" fill="#F3B69A"/>
<path d="M108.588 127.936C108.061 126.805 104.019 126.4 102.921 129.089C102.835 129.298 102.818 129.52 102.758 129.733C102.631 130.181 103.055 130.342 103.15 130.406C103.444 130.604 103.499 131.062 103.626 131.372C103.706 131.567 103.865 131.674 103.91 131.885C103.961 132.118 103.97 132.966 104.355 132.728C104.665 132.536 104.606 131.868 104.826 131.912C105.886 132.119 104.549 135.141 107.509 134.486C108.194 134.334 108.457 134.193 109.069 133.322C109.67 132.464 109.733 132.216 109.833 131.495C110.29 128.204 108.818 128.432 108.588 127.936Z" fill="#322A89"/>
<path d="M105.056 131.473C105.6 131.355 105.841 132.016 105.541 132.6C105.454 132.771 105.279 132.936 105.153 133.08C104.292 134.065 103.909 133.194 104.18 132.861C104.81 132.09 104.37 131.622 105.056 131.473Z" fill="#F3B69A"/>
<path d="M105.043 132.535C105.097 132.468 105.669 132.005 105.205 131.816C105.077 131.764 104.96 131.887 104.961 132.015C104.961 132.081 104.991 132.144 104.991 132.211C104.991 132.414 104.733 132.51 104.803 132.666C104.853 132.779 105.011 132.574 105.043 132.535Z" fill="#E7A07D"/>
<path d="M102.707 163.215C102.09 163.53 100.333 162.736 99.6447 163.014C99.1611 163.209 99.0211 163.99 99.1945 164.426C99.4517 165.075 100.53 165.322 101.146 165.276C102.797 165.153 103.706 166.652 104.799 165.657C105.3 165.2 105.083 164.443 105.011 163.805C104.558 164.271 103.363 164.401 102.707 163.215Z" fill="#322A89"/>
<path d="M93.9575 129.292C94.0141 129.253 94.0949 129.256 94.1613 129.282C94.2271 129.309 94.2812 129.355 94.3331 129.401C94.8286 129.84 95.3662 130.408 95.7927 130.903L95.7572 130.881C95.819 130.95 95.8781 131.021 95.9332 131.095C95.944 131.109 95.9527 131.124 95.963 131.138C96.1606 131.191 96.3597 131.259 96.4914 131.403C96.5835 131.503 96.6319 131.631 96.6668 131.758C96.7255 131.97 96.7847 132.605 96.7764 132.823C96.7744 132.881 96.6416 133.045 96.5531 133.061C96.5444 133.063 96.5357 133.056 96.5285 133.042L96.5228 133.06C96.3726 133.176 96.2455 133.318 96.1508 133.477C96.0726 133.609 95.9234 133.58 95.768 133.626C95.1903 132.918 94.4617 132.545 94.0337 131.753C93.9802 131.655 93.9323 131.546 93.9539 131.439C93.9755 131.332 94.097 131.238 94.2086 131.277C94.1572 131.175 94.1813 131.047 94.2662 130.97C94.3506 130.893 94.4895 130.872 94.5996 130.919C94.5724 130.822 94.6315 130.716 94.7257 130.667C94.7699 130.644 94.8198 130.632 94.8708 130.631C94.5996 130.368 94.3532 130.11 94.0893 129.776C94.0028 129.667 93.8593 129.528 93.8901 129.398C93.8999 129.357 93.9215 129.317 93.9575 129.292Z" fill="#F3BDA5"/>
<path d="M102.939 136.839C102.321 136.604 101.703 136.369 101.085 136.135C100.736 136.003 100.317 135.913 99.995 135.713C99.7728 135.576 99.5567 135.361 99.3514 135.19C98.4325 134.424 97.6191 133.443 96.9364 132.415C96.7651 132.157 95.3502 133.177 95.3456 133.406C95.342 133.595 96.4456 135.521 96.6179 135.804C97.0599 136.529 97.5239 137.203 98.1779 137.686C98.8745 138.2 99.5742 138.716 100.326 139.124C100.95 139.462 101.599 139.76 102.279 139.923C102.743 140.034 103.248 139.996 103.663 139.737C104.018 139.516 104.292 139.135 104.41 138.699C104.506 138.345 104.494 137.938 104.309 137.632C104.102 137.291 103.73 137.138 103.381 137.006C103.234 136.95 103.087 136.894 102.939 136.839Z" fill="#DCDDF0"/>
<path d="M56.0476 132.702L55.9771 153.322L38.5477 163.451L38.6182 142.831L56.0476 132.702Z" fill="#FFDEA1"/>
<path d="M38.6182 142.831L38.5478 163.451L21.0046 153.322L21.0751 132.702L38.6182 142.831Z" fill="#FFDEA1"/>
<path d="M56.0477 132.702L38.6183 142.831L21.0752 132.702L38.5046 122.573L56.0477 132.702Z" fill="#FFB119"/>
<path d="M177.379 115.41L177.384 117.201L175.22 118.474L175.216 116.682L177.379 115.41Z" fill="#E9C13F"/>
<path d="M175.216 116.682L175.22 118.474L170.172 121.444L170.167 119.652L175.216 116.682Z" fill="#E9C13F"/>
<path d="M136.607 128.698L136.603 126.906C136.597 124.401 138.337 121.882 141.688 119.911C147.456 116.517 156.105 115.864 162.698 118.398L162.702 120.19C156.109 117.656 147.461 118.309 141.692 121.703C138.341 123.673 136.601 126.192 136.607 128.698Z" fill="#E9C13F"/>
<mask id="mask8_1254_17978" style="mask-type:luminance" maskUnits="userSpaceOnUse" x="136" y="116" width="27" height="13">
<path d="M136.607 128.698L136.603 126.906C136.597 124.401 138.337 121.882 141.688 119.911C147.456 116.517 156.105 115.864 162.698 118.398L162.702 120.19C156.109 117.656 147.461 118.309 141.692 121.703C138.341 123.673 136.601 126.192 136.607 128.698Z" fill="white"/>
</mask>
<g mask="url(#mask8_1254_17978)">
<path d="M162.698 118.398L162.702 120.189C156.109 117.656 147.461 118.309 141.692 121.702C138.341 123.673 136.601 126.192 136.607 128.698L136.603 126.906C136.597 124.401 138.337 121.882 141.688 119.911C147.456 116.517 156.105 115.864 162.698 118.398Z" fill="#E9C13F"/>
</g>
<path d="M128.47 129.889L128.466 128.098C128.473 130.925 129.773 133.747 132.362 136.243L132.367 138.034C129.777 135.539 128.477 132.716 128.47 129.889Z" fill="#E9C13F"/>
<mask id="mask9_1254_17978" style="mask-type:luminance" maskUnits="userSpaceOnUse" x="128" y="128" width="5" height="11">
<path d="M128.47 129.889L128.466 128.098C128.473 130.925 129.773 133.747 132.362 136.243L132.367 138.034C129.777 135.539 128.477 132.716 128.47 129.889Z" fill="white"/>
</mask>
<g mask="url(#mask9_1254_17978)">
<path d="M132.362 136.242L132.366 138.034C129.777 135.538 128.477 132.716 128.471 129.889L128.467 128.098C128.473 130.924 129.772 133.747 132.362 136.242Z" fill="#E9C13F"/>
</g>
<path d="M170.168 119.652L170.172 121.444L141.683 138.201L141.679 136.41L170.168 119.652Z" fill="#E9C13F"/>
<path d="M141.679 136.41L141.683 138.201L136.635 141.17L136.631 139.379L141.679 136.41Z" fill="#E9C13F"/>
<path d="M136.631 139.379L136.635 141.17L134.471 142.444L134.467 140.652L136.631 139.379Z" fill="#E9C13F"/>
<path d="M172.504 112.629L177.379 115.41L175.216 116.682L170.168 119.652L141.679 136.409L136.631 139.378L134.467 140.651L129.592 137.871L132.362 136.242C126.068 130.176 127.393 122.177 136.387 116.887C145.38 111.597 159.166 110.707 169.736 114.257L172.504 112.629ZM139.399 132.103L162.698 118.398C156.105 115.864 147.456 116.517 141.687 119.91C135.917 123.305 134.923 128.324 139.399 132.103Z" fill="#FF9955"/>
<path d="M134.466 140.652L134.471 142.444L129.596 139.663L129.592 137.871L134.466 140.652Z" fill="#E9C13F"/>
<path d="M71.623 140.484C71.7465 141.968 72.3263 143.379 72.5115 144.856C72.6062 145.611 72.598 146.382 72.7955 147.117C72.9931 147.851 73.4489 148.572 74.1646 148.829C74.4182 148.921 74.7388 148.934 74.923 148.736C75.1128 148.532 75.0691 148.211 75.0187 147.937C74.2979 144.049 74.659 139.965 76.0518 136.264C76.2864 135.64 76.5513 134.947 76.2982 134.33C76.0656 133.764 75.4354 133.437 74.8237 133.406C74.3004 133.38 73.4639 133.482 73.1536 133.946C72.8058 134.465 72.6247 135.301 72.4128 135.893C71.8854 137.361 71.4929 138.913 71.623 140.484Z" fill="#E7A07D"/>
<path d="M72.1595 147.658C72.284 148.234 72.6318 148.733 72.8644 149.275C73.1797 150.01 73.2888 150.821 73.651 151.537C73.8007 151.833 74.0009 152.103 74.2432 152.329C74.4737 152.545 74.7978 152.682 75.0962 152.778C75.3926 152.873 75.7007 152.944 76.012 152.934C76.3228 152.924 76.6392 152.825 76.8691 152.616C77.0245 152.474 77.1346 152.276 77.1655 152.068C77.1984 151.845 77.1413 151.641 77.0641 151.434C76.8902 150.968 76.6495 150.53 76.3994 150.101C76.2672 149.873 76.1319 149.647 76.0012 149.418C75.7846 149.04 75.5783 148.65 75.4193 148.244C75.2485 147.806 74.8441 146.967 74.7736 146.247C74.7736 146.247 73.8738 145.684 73.0912 145.976C72.4306 146.222 72.0103 146.966 72.1595 147.658Z" fill="#E7A07D"/>
<path d="M77.2347 152C77.2172 151.923 77.1971 151.847 77.1755 151.771C77.0253 151.251 76.7809 150.771 76.5144 150.301C76.3122 150.526 76.0704 150.713 75.8075 150.862C75.4962 151.037 75.1541 151.157 74.8032 151.221C74.6246 151.254 74.4435 151.273 74.2619 151.276C74.1384 151.279 74.0145 151.293 73.9085 151.222C73.8215 151.163 73.7541 151.079 73.7042 150.988C73.6384 150.867 73.6008 150.734 73.5638 150.601C73.4732 150.278 73.3827 149.955 73.2921 149.632C73.2041 149.317 73.1336 148.989 73.0169 148.684C72.9407 148.485 72.8466 148.291 72.7272 148.113C72.6233 147.959 72.4936 147.825 72.4283 147.647C72.3429 147.413 72.3583 147.158 72.4118 146.919C72.4391 146.799 72.4761 146.68 72.5178 146.565C72.5379 146.509 72.559 146.454 72.5806 146.399C72.5929 146.367 72.6135 146.27 72.6403 146.251C72.0661 146.67 71.9874 147.21 72.0903 147.688C72.2148 148.264 72.5878 148.758 72.8203 149.3C73.0884 149.924 73.2299 150.619 73.4814 151.248C73.5262 151.36 73.5746 151.47 73.6296 151.579C73.998 152.307 74.6812 152.811 75.4854 152.984C75.879 153.069 76.323 153.1 76.713 152.983C76.8838 152.932 77.0829 152.834 77.2007 152.695C77.3514 152.519 77.282 152.207 77.2347 152Z" fill="#322A89"/>
<path d="M77.3375 138.634C77.5315 139.632 77.9199 140.593 78.0069 141.606C78.0763 142.416 77.9508 143.236 78.0686 144.04C78.1864 144.844 78.6361 145.683 79.4161 145.909C79.6759 145.985 79.9877 145.973 80.178 145.781C80.4214 145.534 80.356 145.131 80.301 144.789C79.8971 142.287 80.9719 139.782 81.0002 137.247C81.0079 136.564 80.941 135.867 81.1262 135.209C81.315 134.538 81.7642 133.869 81.5594 133.202C81.4066 132.706 80.8978 132.371 80.3802 132.327C79.8626 132.283 79.3487 132.489 78.9278 132.794C77.1929 134.051 76.9568 136.678 77.3375 138.634Z" fill="#E7A07D"/>
<path d="M82.2695 146.026C82.4614 146.186 82.6544 146.345 82.8427 146.51C83.14 146.769 83.386 147.067 83.6381 147.37C83.9277 147.718 84.2344 148.143 84.0327 148.606C83.9658 148.759 83.8351 148.878 83.6864 148.956C83.5383 149.034 83.3726 149.072 83.2069 149.096C82.6847 149.174 82.143 149.114 81.6496 148.927C81.0888 148.713 80.6216 148.343 80.2635 147.866C80.0973 147.644 79.9512 147.407 79.8288 147.159C79.694 146.886 79.5432 146.751 79.2793 146.588C78.9562 146.389 78.6048 146.238 78.2843 146.034C78.0404 145.877 77.8027 145.686 77.6648 145.426C77.4904 145.098 77.4621 144.709 77.5748 144.357C77.655 144.106 77.8048 143.913 77.9324 143.688C77.9879 143.589 78.0337 143.193 78.0219 142.767C78.0183 142.635 78.4679 142.283 78.8235 142.155C79.02 142.085 79.2464 142.069 79.4316 142.165C79.6811 142.295 80.0413 142.037 80.3247 142.077C80.2573 142.816 80.2815 143.771 80.6628 144.369C81.044 144.967 81.5796 145.447 82.1224 145.902C82.1702 145.943 82.2196 145.984 82.2695 146.026Z" fill="#E7A07D"/>
<path d="M84.1061 148.089C84.032 147.808 83.8612 147.563 83.6781 147.344C83.426 147.041 83.1399 146.769 82.8425 146.51C82.6069 146.941 82.3363 147.29 81.881 147.514C81.5512 147.677 81.0706 147.848 80.7666 147.562C80.5916 147.398 80.4589 147.201 80.2696 147.046C80.072 146.886 79.8621 146.673 79.6532 146.529C79.184 146.204 78.632 145.754 78.2306 145.426C77.6657 144.861 77.9168 144.38 77.9451 143.657C77.7609 143.855 77.6019 144.148 77.5325 144.365C77.4198 144.717 77.4687 145.107 77.6431 145.435C77.7815 145.695 78.0197 145.903 78.2636 146.059C78.5841 146.264 78.9391 146.412 79.2622 146.611C79.5261 146.775 79.6769 146.91 79.8112 147.182C79.8971 147.356 79.9954 147.524 80.1029 147.686C80.1487 147.754 80.196 147.822 80.2459 147.888C80.5613 148.309 80.9976 148.728 81.4683 148.975C81.9705 149.239 82.5791 149.235 83.1301 149.208C83.3246 149.198 83.5222 149.185 83.7064 149.12C83.8906 149.056 84.0624 148.933 84.1452 148.757C84.2399 148.555 84.1602 148.295 84.1061 148.089Z" fill="#322A89"/>
<path d="M72.172 96.9455C72.1339 97.4256 72.1354 97.9102 72.1385 98.4082C72.1447 99.3853 72.3706 100.364 72.2188 101.339C72.0876 102.186 71.6786 102.954 71.2222 103.666C71.0051 104.004 70.8183 104.263 70.719 104.646C70.6125 105.056 70.4191 105.463 70.2195 105.836C69.7667 106.68 69.1174 107.502 69.1498 108.459C70.0199 108.834 71.0231 108.658 71.8237 108.196C72.7204 107.677 73.2987 106.705 73.9104 105.892C74.3519 105.304 74.7671 104.688 75.0284 104.001C75.2316 103.467 75.3392 102.896 75.3433 102.325C75.3453 102.025 75.3196 101.726 75.2939 101.428C75.1751 100.051 75.0557 98.6732 74.9368 97.2959C74.9317 97.3469 75.0207 97.3551 75.0459 97.3108C75.0711 97.2666 75.0521 97.2105 75.0331 97.1632C74.8072 97.1462 74.7918 97.0541 74.8015 96.8282C74.8113 96.5998 74.8941 96.3801 74.8988 96.1507C74.9044 95.8379 74.7593 95.5333 74.5417 95.3084C74.3236 95.0836 74.038 94.9339 73.7401 94.8377C73.4464 94.743 73.1042 94.7044 72.8465 94.8742C72.6252 95.0193 72.5172 95.2827 72.4369 95.5348C72.2857 96.0076 72.2095 96.4748 72.172 96.9455Z" fill="#E93F57"/>
<path d="M89.266 114.344C89.4384 114.303 89.5979 114.213 89.7676 114.159C89.995 114.086 90.2348 114.078 90.472 114.071C91.148 114.048 91.8235 114.027 92.4996 114.004C92.6107 114.001 92.7496 114.016 92.7882 114.13C92.8052 114.18 92.7959 114.237 92.7774 114.286C92.7203 114.439 92.5814 114.54 92.4373 114.587C92.2928 114.634 92.1394 114.637 91.9892 114.65C91.7392 114.672 91.4907 114.725 91.2504 114.806C91.2293 114.813 91.2056 114.822 91.1933 114.842C91.1701 114.881 91.1989 114.931 91.2278 114.965C91.3584 115.119 91.5164 115.242 91.6851 115.342C91.7726 115.394 91.8632 115.439 91.9547 115.481C92.0391 115.519 92.1096 115.581 92.1945 115.611C92.656 115.772 93.1473 115.846 93.5785 116.088C93.723 116.169 93.9078 116.414 93.6505 116.49C93.4375 116.553 93.2132 116.489 92.9986 116.433C92.7378 116.365 92.4739 116.308 92.2089 116.265C92.1466 116.254 92.0818 116.25 92.0201 116.233C91.9913 116.226 91.9439 116.193 91.9136 116.204C91.7423 116.268 92.123 116.519 92.1672 116.554C92.3416 116.694 92.516 116.834 92.6905 116.974C92.887 117.132 93.0974 117.314 93.1448 117.576C93.1602 117.661 93.1643 117.734 93.0933 117.773C93.0403 117.801 92.9462 117.799 92.8891 117.786C92.7625 117.757 92.6596 117.661 92.5588 117.571C92.3123 117.352 92.0499 117.156 91.7747 116.984C91.6471 116.904 91.503 116.804 91.3641 116.75C91.1815 116.68 91.2494 116.875 91.3343 116.961C91.521 117.152 91.717 117.339 91.8606 117.572C91.9198 117.669 92.0026 117.809 92.0227 117.924C92.0474 118.068 91.9053 118.114 91.8014 118.078C91.6985 118.042 91.6157 117.958 91.5375 117.876C91.3471 117.678 91.1568 117.48 90.9664 117.283C90.8877 117.201 90.8023 117.075 90.7061 117.019C90.6346 116.979 90.5512 116.987 90.5651 117.095C90.5836 117.242 90.6742 117.365 90.7266 117.501C90.7637 117.596 90.7822 117.699 90.7817 117.802C90.7817 117.85 90.7709 117.907 90.7297 117.923C90.6968 117.936 90.6618 117.915 90.633 117.895C90.4745 117.78 90.3171 117.642 90.2219 117.459C90.1201 117.263 89.9554 117.081 89.8206 116.911C89.5433 116.562 89.2274 116.237 88.8426 116.035C88.6769 115.947 88.6095 115.866 88.6085 115.653C88.6075 115.399 88.6075 115.142 88.6738 114.899C88.7181 114.739 88.7952 114.581 88.9084 114.467C89.0365 114.339 89.1127 114.38 89.266 114.344Z" fill="#F3BDA5"/>
<path d="M77.7248 101.372C77.7432 101.372 77.7611 101.373 77.7795 101.374C77.6195 101.325 77.528 101.366 77.7248 101.372Z" fill="#F3645F"/>
<path d="M86.9651 115.75C85.6171 115.321 83.9831 114.58 81.8958 113.723C81.334 113.493 80.8009 113.163 80.3415 112.747C79.8779 112.328 79.6238 111.804 79.4087 111.175C79.3115 110.891 79.2348 110.551 79.3871 110.271C79.5255 110.017 79.7905 109.536 80.0503 109.569C83.5946 110.023 85.2945 111.177 87.3947 112.62C87.9035 112.97 88.4087 113.325 88.9098 113.686C89.0786 113.808 89.2571 113.943 89.3225 114.14C89.3888 114.339 89.3255 114.557 89.254 114.754C89.1259 115.107 88.9582 115.813 88.5528 115.898C88.0337 116.005 87.4626 115.909 86.9651 115.75Z" fill="#E6E6F0"/>
<path d="M80.0869 111.682C79.4737 110.254 78.8944 108.37 78.0887 106.027C77.8716 105.396 77.7481 104.721 77.7388 104.049C77.7296 103.371 77.9431 102.798 78.261 102.185C78.4051 101.908 78.6052 101.61 78.9175 101.546C79.202 101.488 79.4752 101.647 79.699 101.817C81.048 102.837 81.7915 104.535 82.1022 106.146C82.3908 107.644 82.8884 109.099 83.1646 110.605C83.2171 110.891 83.2917 111.195 83.285 111.49C83.2516 112.89 82.3358 113.746 81.3932 113.322C80.9312 113.114 80.4198 112.458 80.0869 111.682Z" fill="#E6E6F0"/>
<path d="M81.8532 107.213C81.6762 106.675 81.3171 106.167 81.0943 105.634C80.8854 105.135 80.7604 104.608 80.6359 104.083C80.4512 103.303 80.2603 102.545 79.6702 101.97C79.3795 101.686 78.7585 101.645 78.3665 101.588C77.8664 101.516 77.3586 101.493 76.8544 101.521C76.4783 101.543 76.1053 101.611 75.7318 101.613C75.491 101.613 75.2234 101.433 74.9858 101.487C74.1296 101.68 73.4294 102.053 72.705 102.537C71.905 103.072 71.1379 103.663 70.4649 104.352C70.3574 104.462 70.2524 104.575 70.1501 104.69C69.9633 104.9 69.7827 105.123 69.6772 105.384C69.6103 105.55 69.5754 105.733 69.5929 105.911C69.6124 106.112 69.7385 106.222 69.7904 106.408C69.8959 106.786 70.0245 107.157 70.1681 107.523C70.9511 109.521 72.1802 111.37 72.5363 113.484C72.6757 114.312 72.6747 115.154 72.6284 115.99C72.6057 116.386 72.5363 116.794 72.5563 117.189C72.562 117.296 72.5388 117.491 72.5574 117.582C72.5867 117.727 72.6613 117.779 72.7971 117.885C73.5184 118.447 74.4594 118.511 75.2625 118.923C78.7878 120.73 80.7244 118.22 80.9945 118.015C81.1972 117.862 81.1097 117.909 80.9389 116.447C80.2382 110.455 82.8847 110.346 81.8532 107.213Z" fill="#D1D2EC"/>
<path d="M80.9867 116.842C82.8605 120.288 82.0126 126.572 82.4576 130.174C82.6114 131.421 83.8622 136.222 79.9078 136.626C79.5976 136.658 79.2811 136.649 78.9786 136.723C77.9424 136.979 76.8929 138.542 74.4069 138.153C73.6068 138.027 72.6602 137.928 72.0057 137.418C71.1954 136.788 70.3974 135.808 70.5569 134.729C70.2601 131.222 69.9709 131.615 69.9298 127.504C69.8629 120.71 71.0817 119.507 72.5629 116.739C72.4291 116.989 72.9117 117.728 73.596 118.134C75.1688 119.066 77.7202 119.211 79.1052 118.668C80.2191 118.233 80.8802 117.282 80.9867 116.842Z" fill="#322A89"/>
<path d="M73.4125 102.631C73.415 102.805 73.4588 102.969 73.5699 103.099C73.8951 103.481 74.2732 103.809 74.745 103.995C75.3758 104.245 76.1033 104.236 76.7278 103.972C76.9553 103.876 77.1708 103.746 77.3386 103.565C77.6328 103.248 77.6596 102.819 77.728 102.413C77.7903 102.04 77.8551 101.668 77.9138 101.295C77.9832 100.854 78.0825 100.376 78.0187 99.928C77.9395 99.3739 77.4502 99.1795 76.9763 99.0123C76.6003 98.879 74.8808 98.5585 74.4831 98.5508C73.0328 98.5219 73.8956 99.2803 73.9501 99.8324C74.0155 100.496 73.9239 101.104 73.6533 101.71C73.5432 101.957 73.4078 102.312 73.4125 102.631Z" fill="#E7A07D"/>
<path d="M74.8415 101.214C74.7536 101.158 74.6671 101.099 74.5853 101.034C74.3898 100.878 74.1861 100.671 74.0997 100.431C74.0168 100.201 73.8656 100.005 73.7488 99.7876C73.6798 99.6584 73.5769 99.5653 73.5023 99.4388C72.6128 97.9298 72.5696 95.9068 73.8368 94.5928C74.7356 93.6605 76.1622 93.2752 77.4078 93.6291C77.7448 93.7253 78.0664 93.8699 78.3787 94.0299C78.6478 94.1683 78.9158 94.3232 79.1206 94.5459C79.2554 94.6926 79.3593 94.8644 79.454 95.0393C79.561 95.2359 79.6582 95.4401 79.7122 95.6573C79.9191 96.4882 79.5008 97.3206 79.5713 98.1577C79.6052 98.5621 79.7642 98.9361 79.7699 99.3518C79.7786 99.9769 79.5481 100.581 79.3819 101.176C79.2976 101.478 79.2122 101.783 79.0593 102.057C78.9498 102.253 78.8026 102.436 78.603 102.545C78.3957 102.658 78.213 102.642 77.9861 102.604C77.4691 102.517 76.9823 102.319 76.5054 102.107C76.1633 101.956 75.8268 101.791 75.5063 101.598C75.2871 101.465 75.0576 101.35 74.8415 101.214Z" fill="#F3B69A"/>
<path d="M71.8581 96.4877C72.0232 93.8792 73.4463 93.5268 73.4463 93.5268C73.4463 93.5268 73.8713 92.6814 76.0177 92.6639C76.9953 92.6557 78.1436 93.1532 78.8325 93.8982C79.3455 94.4534 79.666 95.0882 79.771 95.8332C79.7982 96.0272 79.8718 96.8396 79.6197 96.8617C79.4036 96.8807 79.1284 96.6147 78.9647 96.4995C78.8968 96.4516 78.298 95.9989 78.3396 95.9274C78.1256 96.2952 77.7711 96.5581 77.4089 96.7819C77.0467 97.0057 76.6645 97.2033 76.3475 97.4873C76.0234 97.7775 75.7816 98.1464 75.5526 98.5168C75.4477 98.6866 75.3427 98.8605 75.1976 98.9984C75.0526 99.1357 74.8591 99.2355 74.6595 99.2232C74.5525 99.2165 74.446 99.1718 74.3667 99.0992C74.3024 99.0406 74.2808 98.9485 74.2165 98.8939C74.0668 98.7668 73.7895 98.7879 73.6341 98.8842C73.3635 99.0519 73.969 99.1795 74.0328 99.4336C74.0457 99.4815 73.9541 100.581 73.9541 100.581C73.9541 100.581 71.6945 99.0719 71.8581 96.4877Z" fill="#E93F57"/>
<path d="M73.4757 98.0671C72.8274 98.0234 72.6628 98.8286 73.1078 99.4506C73.238 99.6322 73.4674 99.7933 73.6377 99.9378C74.7995 100.928 75.0917 99.8565 74.7223 99.5196C73.8646 98.737 74.2917 98.1222 73.4757 98.0671Z" fill="#F3B69A"/>
<path d="M73.8002 99.5427C73.7256 99.4743 72.9863 99.038 73.4899 98.7406C73.6294 98.6583 73.7847 98.7802 73.8058 98.9279C73.8172 99.0045 73.793 99.0833 73.8048 99.1599C73.8115 99.2047 73.8305 99.2474 73.8542 99.287C73.9195 99.394 74.1439 99.4964 74.1001 99.6528C74.061 99.7912 73.8429 99.5818 73.8002 99.5427Z" fill="#E7A07D"/>
<path d="M70.0204 104.536C70.3368 104.116 70.8961 103.98 71.4028 104.23C71.8844 104.467 72.1946 104.951 72.4092 105.443C72.9942 106.787 72.9998 108.349 72.6052 109.736C72.2461 110.998 71.8798 112.266 71.4322 113.499C71.3833 113.634 71.3416 113.785 71.266 113.908C70.5493 115.067 69.3402 114.9 68.7043 114.248C68.425 113.961 68.2608 113.703 68.25 113.314C68.2392 112.913 68.3457 112.482 68.4003 112.087C68.5191 111.227 68.6503 110.369 68.7933 109.513C68.9508 108.569 69.12 107.627 69.3274 106.694C69.4725 106.04 69.6078 105.34 69.901 104.733C69.935 104.662 69.9751 104.596 70.0204 104.536Z" fill="#E6E6F0"/>
<path d="M73.4526 121.756C73.6141 121.88 73.7803 122.008 73.8791 122.186C73.9511 122.315 73.983 122.462 74.0314 122.602C74.1456 122.931 74.3529 123.22 74.496 123.538C74.5304 123.614 74.5613 123.693 74.5634 123.777C74.5649 123.86 74.5325 123.949 74.4625 123.994C74.3632 124.059 74.229 124.019 74.1281 123.956C73.7546 123.723 73.6049 123.264 73.3512 122.904C73.1645 123.065 73.1032 123.334 73.1346 123.578C73.166 123.823 73.2756 124.048 73.3836 124.269C73.5102 124.527 73.6368 124.786 73.7639 125.044C73.7978 125.114 73.8328 125.191 73.8148 125.266C73.7412 125.573 73.4233 125.265 73.273 125.362C73.1434 125.446 73.2056 125.631 73.1099 125.737C73.0266 125.83 72.8686 125.814 72.7709 125.737C72.6294 125.626 72.58 125.404 72.4951 125.249C72.4972 125.302 72.4992 125.357 72.4823 125.408C72.4653 125.458 72.4251 125.504 72.3727 125.513C72.225 125.536 72.1617 125.38 72.0537 125.324C71.941 125.266 71.799 125.319 71.6755 125.251C71.5428 125.178 71.4543 125.047 71.3766 124.917C71.2279 124.669 71.0988 124.41 70.9902 124.143C70.8873 123.887 70.8611 123.604 70.841 123.331C70.8395 122.866 70.9233 122.421 70.9506 121.962C70.9635 121.75 70.8462 121.519 70.7829 121.318C70.7037 121.067 70.6244 120.817 70.5452 120.566C70.5112 120.458 70.4768 120.342 70.5102 120.233C70.5699 120.039 70.8055 119.971 71.0051 119.934C71.283 119.881 71.5603 119.828 71.8376 119.776C72.0017 119.745 72.1859 119.717 72.3228 119.813C72.474 119.918 72.5028 120.124 72.5404 120.304C72.6587 120.869 72.9988 121.41 73.4526 121.756Z" fill="#F3BDA5"/>
<path d="M71.2018 121.771C70.6497 121.556 70.3416 120.894 70.1286 120.358C69.4849 118.741 66.5318 112.322 69.4736 111.808C69.9212 111.73 70.4157 112.325 70.7264 112.732C71.1128 113.237 72.7813 117.976 72.9269 120.423C72.9459 120.746 72.947 121.09 72.789 121.357C72.5343 121.783 71.6293 121.937 71.2018 121.771Z" fill="#E6E6F0"/>
</g>
<defs>
<clipPath id="clip0_1254_17978">
<rect width="181" height="181" fill="white"/>
</clipPath>
</defs>
</svg>
