<svg width="42" height="42" viewBox="0 0 42 42" fill="none" xmlns="http://www.w3.org/2000/svg">
<path d="M20.8493 2.75643C11.5306 2.75643 12.1199 6.7858 12.1199 6.7858V10.9727H20.9819V12.2852H8.59056C8.59056 12.2852 2.62524 11.5502 2.62524 21.0067C2.62524 30.4633 7.89231 30.0787 7.89231 30.0787H10.9334V25.6674C10.9334 25.6674 10.7627 20.4004 16.0521 20.4004H24.9272C24.9272 20.4004 29.878 20.4791 29.878 15.6071V7.61268C29.878 7.61268 30.6287 2.74068 20.8979 2.74068L20.8493 2.75643ZM15.9511 5.56124C16.2661 5.55329 16.5764 5.63895 16.8428 5.80738C17.1092 5.97581 17.3196 6.21945 17.4475 6.50748C17.5754 6.79552 17.615 7.11501 17.5613 7.42556C17.5076 7.7361 17.3631 8.02375 17.1459 8.25213C16.9287 8.4805 16.6487 8.63935 16.3412 8.70857C16.0338 8.77779 15.7127 8.75429 15.4186 8.64102C15.1245 8.52776 14.8706 8.32982 14.689 8.07225C14.5074 7.81468 14.4063 7.50904 14.3984 7.19399V7.16774C14.3984 6.74515 14.5662 6.33987 14.8651 6.04105C15.1639 5.74224 15.5692 5.57436 15.9917 5.57436L15.9511 5.56124Z" fill="url(#paint0_linear_369_28492)"/>
<path d="M21.112 39.2572C30.4307 39.2572 29.8414 35.2147 29.8414 35.2147V31.041H20.9807V29.7285H33.4101C33.4101 29.7285 39.3754 30.3952 39.3754 20.9938C39.3754 11.5923 34.1084 11.9218 34.1084 11.9218H31.0279V16.2753C31.0279 16.2753 31.1986 21.5424 25.9092 21.5424H17.0301C17.0301 21.5424 12.0754 21.4676 12.0754 26.3396V34.3878C12.0754 34.3878 11.3247 39.2598 21.0556 39.2598H21.1081L21.112 39.2572ZM26.0102 36.4393C25.6952 36.4472 25.3849 36.3616 25.1185 36.1931C24.8521 36.0247 24.6417 35.7811 24.5138 35.493C24.3859 35.205 24.3463 34.8855 24.4 34.575C24.4537 34.2644 24.5982 33.9768 24.8154 33.7484C25.0326 33.52 25.3126 33.3612 25.6201 33.292C25.9275 33.2227 26.2486 33.2462 26.5427 33.3595C26.8368 33.4728 27.0907 33.6707 27.2723 33.9283C27.4539 34.1858 27.555 34.4915 27.5629 34.8065V34.8459C27.5629 35.2685 27.3951 35.6738 27.0962 35.9726C26.7974 36.2714 26.3921 36.4393 25.9696 36.4393H26.0102Z" fill="url(#paint1_linear_369_28492)"/>
<defs>
<linearGradient id="paint0_linear_369_28492" x1="6.25714" y1="6.33023" x2="23.6959" y2="23.7295" gradientUnits="userSpaceOnUse">
<stop stop-color="#387EB8"/>
<stop offset="1" stop-color="#366994"/>
</linearGradient>
<linearGradient id="paint1_linear_369_28492" x1="16.574" y1="17.6647" x2="36.498" y2="35.0587" gradientUnits="userSpaceOnUse">
<stop stop-color="#FFE052"/>
<stop offset="1" stop-color="#FFC331"/>
</linearGradient>
</defs>
</svg>
