<svg width="266" height="208" viewBox="0 0 266 208" fill="none" xmlns="http://www.w3.org/2000/svg">
<rect width="265.056" height="207.105" rx="16" fill="#D5F4FF"/>
<path d="M81.3419 169.076L81.3225 175.417C81.3163 177.71 79.7603 180.002 76.6546 181.752C73.7959 183.362 70.1114 184.24 66.3547 184.373C64.9354 184.43 63.5092 184.373 62.1094 184.215C59.1147 183.88 56.2561 183.053 53.9318 181.752C50.7678 179.977 49.1855 177.646 49.1924 175.322L49.2118 169.013C49.2118 171.331 50.7935 173.643 53.9513 175.411C56.2755 176.712 59.121 177.533 62.1094 177.874C63.5092 178.032 64.9417 178.089 66.3547 178.032C70.1176 177.906 73.8091 177.034 76.674 175.417C79.7797 173.662 81.3357 171.375 81.3419 169.076Z" fill="#BEC4CD"/>
<path d="M65.2762 184.552C64.2227 184.552 63.1553 184.492 62.09 184.372C58.9822 184.024 56.1326 183.166 53.8506 181.888C50.7345 180.141 49.0224 177.809 49.0293 175.322L49.0494 169.012C49.0494 168.925 49.1223 168.855 49.2118 168.855C49.3021 168.855 49.3749 168.926 49.3749 169.013C49.3749 171.368 51.0295 173.592 54.0325 175.275C56.2637 176.523 59.0634 177.368 62.1288 177.718C63.5439 177.877 64.9625 177.931 66.3478 177.874C70.2218 177.744 73.8591 176.823 76.5921 175.281C79.5437 173.612 81.1726 171.409 81.1795 169.077V169.076C81.1795 168.989 81.2524 168.918 81.3419 168.918H81.3426C81.4322 168.919 81.505 168.989 81.505 169.076L81.4856 175.417C81.478 177.869 79.7915 180.167 76.7365 181.888C73.9569 183.454 70.2724 184.393 66.3602 184.531C66.0014 184.545 65.6392 184.552 65.2762 184.552ZM49.3687 170.843L49.3548 175.323C49.3486 177.692 51.0031 179.927 54.0137 181.615C56.2575 182.871 59.0634 183.716 62.1274 184.058C63.5432 184.218 64.9646 184.271 66.3478 184.215C70.2086 184.079 73.839 183.155 76.572 181.615C79.5236 179.953 81.1532 177.751 81.1601 175.417L81.1733 170.924C80.5431 172.667 79.0281 174.269 76.7559 175.553C73.9771 177.121 70.2849 178.058 66.3602 178.19C64.9597 178.246 63.5231 178.192 62.09 178.031C58.9808 177.676 56.1388 176.818 53.8701 175.548C51.543 174.245 49.9982 172.617 49.3687 170.843Z" fill="#383C43"/>
<path d="M66.3549 178.032V184.373C64.9357 184.43 63.5102 184.373 62.1104 184.215V177.874C63.5102 178.032 64.9426 178.089 66.3549 178.032Z" fill="#DBDEE4"/>
<path d="M94.4796 159.804C94.4518 159.804 94.4241 159.797 94.3984 159.783L60.391 140.742C59.8691 140.45 59.5817 140.052 59.5811 139.621C59.5804 139.193 59.8642 138.796 60.3792 138.505L72.675 131.574C72.7535 131.53 72.8527 131.556 72.8978 131.632C72.9429 131.706 72.9165 131.803 72.8395 131.847L60.5436 138.779C60.1328 139.01 59.9065 139.309 59.9072 139.62C59.9072 139.934 60.1369 140.235 60.554 140.469L94.5615 159.51C94.6385 159.553 94.6656 159.65 94.6211 159.725C94.5906 159.775 94.5358 159.804 94.4796 159.804Z" fill="#DBDEE4"/>
<path d="M134.112 84.6022C134.056 84.6022 134.002 84.5746 133.972 84.5241C133.926 84.4494 133.951 84.3525 134.029 84.308L156.609 71.4075C157.614 70.8407 159.255 70.84 160.266 71.4069L172.643 78.3385C172.721 78.3822 172.747 78.4785 172.702 78.5539C172.657 78.63 172.555 78.6549 172.48 78.6118L160.104 71.6802C159.182 71.1645 157.688 71.1638 156.773 71.6802L134.194 84.58C134.169 84.5948 134.14 84.6022 134.112 84.6022Z" fill="#DBDEE4"/>
<path d="M215.865 51.5842L215.731 99.5097C215.724 100.733 215.28 101.594 214.561 101.997L210.94 104.048C211.025 103.993 211.109 103.938 211.187 103.87L211.194 103.863C211.251 103.822 211.299 103.775 211.349 103.719L211.356 103.713C211.419 103.645 211.476 103.576 211.532 103.494L211.539 103.487C211.603 103.406 211.659 103.316 211.701 103.221C211.743 103.153 211.779 103.077 211.807 102.995C211.842 102.92 211.87 102.838 211.899 102.749C211.927 102.667 211.948 102.572 211.969 102.483C211.983 102.428 211.991 102.374 211.997 102.318C211.997 102.312 212.004 102.298 212.004 102.292C212.011 102.244 212.018 102.189 212.025 102.141C212.033 102.073 212.04 102.004 212.047 101.936C212.054 101.82 212.061 101.704 212.061 101.587L212.195 53.6618C212.201 51.2018 210.426 48.2087 208.214 46.9712L169.555 25.3196C168.787 24.889 168.068 24.7319 167.463 24.807C167.379 24.8139 167.294 24.8343 167.216 24.8548C167.209 24.8548 167.202 24.8548 167.202 24.8548C167.125 24.8753 167.047 24.9027 166.97 24.9301C166.955 24.9369 166.948 24.9369 166.934 24.9437C166.864 24.9711 166.8 25.0053 166.737 25.0393L170.379 22.9753C171.105 22.5654 172.112 22.6201 173.226 23.242L211.885 44.8937C214.089 46.1311 215.872 49.1243 215.865 51.5842Z" fill="#F1F2F5"/>
<path d="M210.94 104.206C210.886 104.206 210.833 104.179 210.802 104.131C210.756 104.059 210.777 103.964 210.85 103.917C210.929 103.866 211.006 103.816 211.078 103.753C211.14 103.706 211.18 103.668 211.226 103.616C211.294 103.544 211.346 103.482 211.397 103.407C211.47 103.314 211.518 103.235 211.552 103.159C211.598 103.082 211.628 103.017 211.652 102.946C211.692 102.86 211.718 102.785 211.743 102.703C211.768 102.632 211.786 102.555 211.802 102.482C211.822 102.401 211.829 102.356 211.834 102.312C211.836 102.302 211.843 102.265 211.847 102.256L211.885 101.921C211.891 101.813 211.898 101.7 211.898 101.587L212.032 53.6618C212.039 51.2543 210.29 48.3143 208.132 47.1086L169.474 25.4563C168.768 25.06 168.08 24.8894 167.483 24.9638C167.402 24.9706 167.328 24.9893 167.259 25.0073C167.245 25.0109 167.231 25.0128 167.216 25.0128C167.175 25.0258 167.105 25.0505 167.035 25.0752C167.031 25.0773 166.999 25.0893 166.995 25.0909C166.931 25.1155 166.874 25.1467 166.816 25.1779C166.739 25.2195 166.64 25.1933 166.596 25.1178C166.551 25.0429 166.578 24.947 166.655 24.9035L170.297 22.8394C171.109 22.38 172.178 22.4749 173.307 23.1056L211.966 44.757C214.213 46.0179 216.035 49.0811 216.028 51.5849L215.894 99.5103C215.887 100.754 215.442 101.686 214.644 102.135L211.022 104.184C210.997 104.199 210.968 104.206 210.94 104.206ZM167.781 24.631C168.358 24.6351 168.994 24.8226 169.637 25.1831L208.295 46.8352C210.542 48.0915 212.364 51.154 212.358 53.6625L212.224 101.588C212.224 101.706 212.217 101.826 212.21 101.945L212.165 102.314C212.164 102.323 212.158 102.346 212.156 102.354C212.149 102.41 212.142 102.466 212.126 102.521C212.1 102.636 212.079 102.724 212.052 102.8C212.024 102.891 211.993 102.98 211.955 103.062C211.929 103.139 211.889 103.225 211.841 103.303C211.831 103.326 211.82 103.35 211.806 103.375L214.48 101.861C215.175 101.471 215.562 100.636 215.568 99.509L215.702 51.5842C215.709 49.1808 213.959 46.2408 211.803 45.0303L173.144 23.379C172.121 22.8079 171.169 22.7126 170.461 23.112L167.781 24.631Z" fill="#383C43"/>
<path d="M210.94 104.206C210.886 104.206 210.833 104.179 210.802 104.131C210.756 104.059 210.777 103.964 210.85 103.917C210.929 103.866 211.006 103.816 211.078 103.753C211.14 103.706 211.18 103.668 211.226 103.616C211.294 103.544 211.346 103.482 211.397 103.407C211.47 103.314 211.518 103.235 211.552 103.159C211.598 103.082 211.628 103.017 211.652 102.946C211.692 102.86 211.718 102.785 211.743 102.703C211.768 102.632 211.786 102.555 211.802 102.482C211.822 102.401 211.829 102.356 211.834 102.312C211.836 102.302 211.843 102.265 211.847 102.256L211.885 101.921C211.891 101.813 211.898 101.7 211.898 101.587L212.032 53.6618C212.039 51.2543 210.29 48.3143 208.132 47.1086L169.474 25.4563C168.768 25.06 168.08 24.8894 167.483 24.9638C167.402 24.9706 167.328 24.9893 167.259 25.0073C167.245 25.0109 167.231 25.0128 167.216 25.0128C167.175 25.0258 167.105 25.0505 167.035 25.0752C167.031 25.0773 166.999 25.0893 166.995 25.0909C166.931 25.1155 166.874 25.1467 166.816 25.1779C166.739 25.2195 166.64 25.1933 166.596 25.1178C166.551 25.0429 166.578 24.947 166.655 24.9035L170.297 22.8394C171.109 22.38 172.178 22.4749 173.307 23.1056L211.966 44.757C214.213 46.0179 216.035 49.0811 216.028 51.5849L215.894 99.5103C215.887 100.754 215.442 101.686 214.644 102.135L211.022 104.184C210.997 104.199 210.968 104.206 210.94 104.206ZM167.781 24.631C168.358 24.6351 168.994 24.8226 169.637 25.1831L208.295 46.8352C210.542 48.0915 212.364 51.154 212.358 53.6625L212.224 101.588C212.224 101.706 212.217 101.826 212.21 101.945L212.165 102.314C212.164 102.323 212.158 102.346 212.156 102.354C212.149 102.41 212.142 102.466 212.126 102.521C212.1 102.636 212.079 102.724 212.052 102.8C212.024 102.891 211.993 102.98 211.955 103.062C211.929 103.139 211.889 103.225 211.841 103.303C211.831 103.326 211.82 103.35 211.806 103.375L214.48 101.861C215.175 101.471 215.562 100.636 215.568 99.509L215.702 51.5842C215.709 49.1808 213.959 46.2408 211.803 45.0303L173.144 23.379C172.121 22.8079 171.169 22.7126 170.461 23.112L167.781 24.631Z" fill="#383C43"/>
<path d="M212.195 53.6631C212.202 51.2025 210.427 48.2093 208.214 46.9725L169.556 25.3205C168.787 24.8899 168.069 24.7327 167.463 24.8079C167.378 24.8147 167.294 24.8353 167.216 24.8557C167.209 24.8557 167.202 24.8557 167.202 24.8557C167.125 24.8762 167.047 24.9035 166.97 24.9309C166.956 24.9378 166.949 24.9378 166.935 24.9446C166.864 24.9719 166.801 25.006 166.737 25.0402C166.005 25.4434 165.554 26.3046 165.547 27.5415L165.525 33.9529L212.173 60.176L212.195 53.6631Z" fill="#42C3F1"/>
<path d="M212.173 60.3335C212.145 60.3335 212.116 60.3261 212.092 60.312L165.444 34.0889C165.393 34.0606 165.362 34.0087 165.362 33.9522L165.384 27.5405C165.391 26.287 165.843 25.35 166.657 24.9027C166.727 24.8644 166.798 24.827 166.875 24.7975C166.881 24.7941 166.907 24.7842 166.914 24.7817C167.003 24.7509 167.081 24.7238 167.159 24.7028C167.173 24.6991 167.188 24.6973 167.202 24.6973C167.26 24.6799 167.355 24.6581 167.449 24.6501C168.111 24.569 168.868 24.7521 169.637 25.1836L208.295 46.8352C210.543 48.0914 212.364 51.1546 212.358 53.6624V53.6631L212.335 60.176C212.335 60.2325 212.304 60.2844 212.253 60.3126C212.228 60.3261 212.201 60.3335 212.173 60.3335ZM165.688 33.862L212.011 59.902L212.032 53.6618C212.04 51.2543 210.29 48.3143 208.133 47.1085L169.474 25.4567C168.768 25.0605 168.081 24.8895 167.484 24.9639C167.402 24.9707 167.328 24.9895 167.259 25.0074C167.245 25.011 167.231 25.013 167.217 25.013C167.175 25.0259 167.105 25.0506 167.036 25.0753C167.031 25.0774 166.999 25.0894 166.995 25.091C166.931 25.1157 166.874 25.1468 166.816 25.178C166.11 25.5669 165.716 26.4067 165.709 27.5421L165.688 33.862Z" fill="#383C43"/>
<path d="M165.525 33.9529L165.413 75.4597C165.405 77.9197 167.188 80.9203 169.4 82.1571L208.06 103.802C209.187 104.438 210.208 104.486 210.934 104.055L210.941 104.048C211.025 103.993 211.11 103.939 211.188 103.871L211.194 103.863C211.251 103.822 211.3 103.775 211.349 103.72L211.356 103.713C211.42 103.645 211.476 103.577 211.532 103.495L211.539 103.488C211.596 103.406 211.653 103.317 211.702 103.221C211.744 103.153 211.78 103.078 211.807 102.996C211.843 102.921 211.871 102.838 211.899 102.75C211.927 102.668 211.948 102.572 211.97 102.483C211.984 102.428 211.991 102.374 211.997 102.319C211.997 102.312 212.005 102.298 212.005 102.291C212.012 102.244 212.019 102.189 212.026 102.141C212.033 102.073 212.04 102.005 212.047 101.937C212.054 101.82 212.061 101.704 212.061 101.588L212.173 60.1753L165.525 33.9529Z" fill="#BEC4CD"/>
<path d="M209.849 104.49C209.265 104.49 208.625 104.304 207.978 103.939L169.319 82.2937C167.068 81.0355 165.243 77.9696 165.25 75.4597L165.362 33.9522C165.362 33.8963 165.394 33.8438 165.444 33.8155C165.495 33.7879 165.557 33.7879 165.607 33.8162L212.254 60.0393C212.306 60.0676 212.336 60.1194 212.336 60.176L212.224 101.589C212.224 101.707 212.217 101.826 212.21 101.945L212.166 102.314C212.165 102.323 212.159 102.346 212.156 102.355C212.15 102.409 212.142 102.465 212.127 102.522C212.101 102.637 212.079 102.724 212.053 102.8C212.025 102.892 211.994 102.98 211.956 103.062C211.93 103.139 211.889 103.226 211.841 103.303C211.795 103.394 211.735 103.488 211.675 103.575C211.668 103.584 211.655 103.599 211.648 103.606C211.607 103.671 211.547 103.745 211.478 103.819C211.41 103.894 211.352 103.947 211.291 103.99C211.213 104.061 211.123 104.12 211.033 104.179C210.684 104.387 210.283 104.49 209.849 104.49ZM165.687 34.2262L165.576 75.4604C165.569 77.8692 167.321 80.8119 169.482 82.0204L208.142 103.666C209.165 104.242 210.151 104.335 210.849 103.921C210.929 103.866 211.007 103.816 211.078 103.754C211.138 103.707 211.18 103.669 211.227 103.616C211.294 103.545 211.346 103.483 211.396 103.408C211.403 103.398 211.417 103.383 211.425 103.376C211.458 103.324 211.51 103.24 211.556 103.151C211.598 103.083 211.629 103.018 211.653 102.946C211.692 102.861 211.718 102.785 211.743 102.703C211.768 102.633 211.786 102.556 211.803 102.483C211.823 102.401 211.829 102.356 211.835 102.311C211.836 102.302 211.843 102.265 211.847 102.256L211.885 101.921C211.891 101.813 211.898 101.701 211.898 101.588L212.01 60.2669L165.687 34.2262Z" fill="#383C43"/>
<path d="M181.812 36.3058C181.034 35.8703 180.409 36.2163 180.406 37.0821C180.403 37.9418 181.025 38.9927 181.803 39.4276C182.58 39.8632 183.205 39.5104 183.207 38.6507C183.21 37.7849 182.589 36.7414 181.812 36.3058Z" fill="#BEC4CD"/>
<path d="M175.962 33.0306C175.191 32.5991 174.559 32.9411 174.557 33.8075C174.555 34.6666 175.182 35.7215 175.953 36.1531C176.73 36.588 177.356 36.2352 177.358 35.3762C177.36 34.5097 176.739 33.4662 175.962 33.0306Z" fill="#BEC4CD"/>
<path d="M170.114 29.7519C169.341 29.319 168.715 29.665 168.712 30.5342C168.71 31.3953 169.332 32.4489 170.105 32.8811C170.884 33.318 171.511 32.9639 171.514 32.1028C171.516 31.2344 170.893 30.1881 170.114 29.7519Z" fill="#BEC4CD"/>
<path d="M169.689 59.7687L171.524 58.7339C171.819 58.5676 172.228 58.5905 172.677 58.8423C173.015 59.0315 173.32 59.049 173.539 58.9251L171.704 59.9599C171.484 60.0837 171.18 60.0662 170.842 59.8771C170.392 59.6253 169.984 59.6024 169.689 59.7687Z" fill="#0D0D0D"/>
<path d="M171.387 60.1976C171.191 60.1976 170.978 60.1357 170.76 60.0138C170.377 59.7997 170.027 59.7607 169.771 59.9048C169.692 59.9478 169.593 59.9229 169.548 59.8475C169.503 59.7721 169.53 59.6752 169.607 59.6314L171.442 58.5967C171.802 58.3947 172.27 58.4317 172.758 58.7057C173.032 58.8586 173.281 58.8875 173.456 58.7885L173.457 58.7879C173.534 58.7441 173.634 58.7697 173.679 58.8458C173.724 58.9205 173.699 59.0174 173.621 59.0612L171.786 60.096C171.666 60.164 171.531 60.1976 171.387 60.1976ZM170.419 59.5392C170.583 59.5769 170.751 59.6442 170.923 59.7405C171.196 59.8933 171.444 59.9236 171.622 59.8233L172.889 59.1083C172.794 59.078 172.695 59.0349 172.595 58.9791C172.212 58.765 171.86 58.7259 171.606 58.8707L170.419 59.5392Z" fill="#0D0D0D"/>
<path d="M181.271 79.2878C181.265 79.7867 181.088 80.1341 180.795 80.2983L178.96 81.3338C179.253 81.1702 179.428 80.816 179.435 80.3239C179.435 79.3262 178.713 78.1069 177.814 77.6081L175.256 76.168L175.281 67.0875C175.281 65.9127 174.755 64.5231 173.869 63.38L175.705 62.3506C176.59 63.4877 177.118 64.8766 177.118 66.0514L177.085 75.1387L179.65 76.5726C180.548 77.0715 181.271 78.2901 181.271 79.2878Z" fill="#0D0D0D"/>
<path d="M178.961 81.4918C178.905 81.4918 178.85 81.4642 178.82 81.4131C178.775 81.3383 178.802 81.2414 178.879 81.1976C179.127 81.0576 179.267 80.7466 179.273 80.3218C179.273 79.3732 178.583 78.2166 177.734 77.7453L175.175 76.3053C175.125 76.2763 175.094 76.2245 175.094 76.1679L175.12 67.0867C175.12 65.9415 174.604 64.591 173.739 63.4754C173.712 63.4391 173.701 63.3933 173.71 63.3489C173.72 63.3044 173.748 63.2661 173.789 63.2439L175.624 62.2145C175.694 62.1741 175.785 62.1923 175.835 62.2555C176.74 63.4175 177.281 64.8367 177.281 66.0519L177.249 75.0476L179.732 76.4359C180.67 76.9563 181.434 78.2361 181.434 79.2877C181.434 79.2883 181.434 79.289 181.434 79.2897C181.427 79.8316 181.229 80.2383 180.878 80.4349L179.046 81.469C179.045 81.4696 179.044 81.4703 179.042 81.471C179.017 81.4851 178.989 81.4918 178.961 81.4918ZM175.42 76.0777L177.896 77.4713C178.835 77.9924 179.599 79.2722 179.599 80.3238C179.596 80.5103 179.571 80.6813 179.525 80.8327L180.715 80.1615C180.963 80.0228 181.103 79.7118 181.108 79.287C181.108 78.3364 180.419 77.1805 179.57 76.7099L177.005 75.2759C176.954 75.2476 176.923 75.1951 176.923 75.1385L176.955 66.0512C176.955 64.9417 176.474 63.6451 175.661 62.5585L174.109 63.429C174.948 64.5694 175.445 65.9247 175.445 67.0873L175.42 76.0777Z" fill="#0D0D0D"/>
<path d="M177.157 51.1547L177.13 60.2352C177.13 61.1576 176.792 61.8456 176.225 62.1681L174.39 63.2035C174.962 62.8817 175.295 62.193 175.295 61.2713L175.32 52.1901L177.157 51.1547Z" fill="#0D0D0D"/>
<path d="M174.39 63.3611C174.334 63.3611 174.28 63.3335 174.25 63.283C174.205 63.2076 174.23 63.1107 174.308 63.0669C174.839 62.7687 175.132 62.1304 175.132 61.2714L175.158 52.1895C175.158 52.1336 175.189 52.0817 175.239 52.0535L177.074 51.018C177.125 50.9898 177.187 50.9898 177.237 51.018C177.288 51.0456 177.319 51.0981 177.319 51.1547L177.293 60.2359C177.293 61.194 176.933 61.948 176.307 62.3041L174.477 63.3369C174.476 63.3375 174.474 63.3389 174.471 63.3402C174.446 63.3544 174.418 63.3611 174.39 63.3611ZM175.484 52.281L175.457 61.2714C175.457 61.7756 175.364 62.2146 175.187 62.5714L176.144 62.0315C176.667 61.7339 176.967 61.0795 176.967 60.2359L176.993 51.4301L175.484 52.281Z" fill="#0D0D0D"/>
<path d="M181.35 51.6913C181.35 52.1902 181.167 52.5376 180.874 52.7018L179.038 53.7373C179.331 53.5737 179.513 53.2263 179.513 52.7267C179.513 51.729 178.791 50.5165 177.899 50.0116L173.713 47.6688C173.264 47.4163 172.853 47.3907 172.561 47.5617L174.39 46.5256C174.69 46.3553 175.093 46.3802 175.549 46.6333L179.735 48.9762C180.626 49.4811 181.35 50.6936 181.35 51.6913Z" fill="#0D0D0D"/>
<path d="M179.038 53.8955C178.981 53.8955 178.927 53.8672 178.897 53.8167C178.852 53.7413 178.878 53.645 178.956 53.6013L178.959 53.5993C179.211 53.4559 179.35 53.1462 179.35 52.7274C179.35 51.7842 178.662 50.6269 177.816 50.1483L173.631 47.8054C173.257 47.5954 172.903 47.5543 172.657 47.6896L172.642 47.6977C172.565 47.7421 172.465 47.7172 172.42 47.6418C172.374 47.5671 172.4 47.4708 172.476 47.4264C172.483 47.423 172.488 47.4196 172.494 47.4163L174.307 46.3896C174.667 46.1849 175.136 46.2226 175.629 46.4966L179.815 48.8395C180.766 49.3781 181.511 50.6303 181.511 51.6913C181.511 52.2299 181.313 52.6379 180.955 52.8385L179.122 53.8733L179.12 53.8739C179.094 53.8888 179.065 53.8955 179.038 53.8955ZM173.288 47.3321C173.454 47.3698 173.623 47.4365 173.794 47.5321L177.98 49.8749C178.931 50.4135 179.675 51.6671 179.675 52.7274C179.675 52.9126 179.652 53.0829 179.607 53.2344L180.791 52.5652C181.045 52.4231 181.186 52.1128 181.186 51.6913C181.186 50.7481 180.498 49.5915 179.652 49.1122L175.466 46.77C175.081 46.5559 174.726 46.5162 174.472 46.6623L173.288 47.3321Z" fill="#0D0D0D"/>
<path d="M177.898 50.0142C178.791 50.5144 179.516 51.7282 179.513 52.7287C179.511 53.725 178.78 54.1283 177.887 53.6274L175.322 52.1914L175.296 61.272C175.292 62.4441 174.753 63.2419 173.87 63.3833C174.753 64.523 175.283 65.9146 175.279 67.0867L175.252 76.172L177.817 77.608C178.71 78.1089 179.436 79.3268 179.433 80.3232C179.429 81.3236 178.7 81.7221 177.806 81.2219L173.62 78.8777C172.723 78.3748 172.002 77.1637 172.005 76.1632L172.036 65.5161C172.038 64.7748 171.5 63.8653 170.831 63.491C169.937 62.9901 169.212 61.7769 169.215 60.7758C169.218 59.7801 169.948 59.3762 170.841 59.8771C171.511 60.252 172.053 59.9518 172.055 59.2105L172.086 48.5688C172.089 47.5683 172.814 47.1671 173.712 47.67L177.898 50.0142Z" fill="#42C3F1"/>
<path d="M178.534 81.5963C178.282 81.5963 178.007 81.5169 177.725 81.3587L173.539 79.0145C172.585 78.4799 171.839 77.227 171.842 76.1627L171.873 65.5162C171.875 64.8348 171.36 63.9697 170.749 63.6277C169.81 63.1013 169.048 61.8221 169.052 60.7759C169.053 60.2367 169.251 59.83 169.61 59.6301C169.97 59.4288 170.436 59.4685 170.922 59.7405C171.195 59.8926 171.441 59.9223 171.62 59.824C171.794 59.7263 171.89 59.5089 171.891 59.2106L171.922 48.5682C171.924 48.0276 172.122 47.6196 172.479 47.4203C172.839 47.2197 173.305 47.2608 173.793 47.5334L177.978 49.8769C178.917 50.4034 179.679 51.6825 179.675 52.7294C179.674 53.268 179.476 53.6746 179.118 53.8746C178.758 54.0759 178.293 54.0368 177.805 53.7642L175.484 52.4642L175.458 61.2721C175.455 62.4058 174.958 63.2278 174.144 63.481C174.963 64.6113 175.444 65.9437 175.441 67.0875L175.414 76.0812L177.898 77.4714C178.837 77.9972 179.598 79.2764 179.595 80.3232C179.593 80.8632 179.395 81.2705 179.038 81.4698C178.887 81.5546 178.717 81.5963 178.534 81.5963ZM170.116 59.8192C169.989 59.8192 169.873 59.8475 169.771 59.9041C169.519 60.0448 169.378 60.3551 169.377 60.7766C169.374 61.7225 170.062 62.8784 170.911 63.3544C171.623 63.753 172.201 64.7231 172.198 65.5168L172.167 76.1633C172.164 77.1092 172.853 78.2658 173.702 78.7411L177.887 81.0853C178.27 81.2988 178.621 81.3378 178.876 81.1964C179.128 81.055 179.268 80.7454 179.269 80.3226C179.272 79.3767 178.583 78.2201 177.735 77.7448L175.17 76.3088C175.12 76.2805 175.089 76.228 175.089 76.1714L175.115 67.0861C175.119 65.9437 174.605 64.5945 173.739 63.4783C173.706 63.4338 173.698 63.3759 173.718 63.3241C173.74 63.2729 173.787 63.2366 173.843 63.2278C174.647 63.0986 175.129 62.3674 175.132 61.2714L175.159 52.1908C175.159 52.1343 175.19 52.0825 175.24 52.0542C175.291 52.0266 175.352 52.0266 175.403 52.0548L177.967 53.4909C178.349 53.7036 178.699 53.744 178.955 53.6006C179.209 53.4592 179.348 53.1495 179.35 52.7281C179.353 51.7829 178.664 50.6262 177.816 50.1503L173.63 47.8061C173.247 47.592 172.896 47.5516 172.641 47.6936C172.389 47.8343 172.249 48.1454 172.248 48.5695L172.216 59.2113C172.215 59.6267 172.061 59.9418 171.781 60.098C171.498 60.2555 171.135 60.2245 170.759 60.0138C170.529 59.8846 170.31 59.8192 170.116 59.8192Z" fill="#0D0D0D"/>
<path d="M195.078 58.5427L186.374 84.094C186.29 84.3397 186.153 84.5107 185.97 84.6117L184.135 85.6471C184.317 85.5461 184.454 85.3758 184.539 85.1294L193.242 59.5788C193.522 58.7642 193.04 57.4629 192.175 56.6671C192.006 56.5156 191.842 56.3958 191.673 56.3009C191.231 56.0551 190.808 56.0168 190.495 56.1938L192.331 55.1584C192.643 54.9813 193.067 55.019 193.51 55.2654C193.679 55.3603 193.841 55.4802 194.011 55.6317C194.876 56.4274 195.358 57.7281 195.078 58.5427Z" fill="#0D0D0D"/>
<path d="M184.134 85.8054C184.079 85.8054 184.024 85.7764 183.993 85.726C183.949 85.6505 183.975 85.5543 184.052 85.5105L184.062 85.5051C184.209 85.421 184.315 85.2816 184.383 85.0796L193.088 59.5291C193.348 58.7724 192.888 57.5404 192.063 56.7823C191.902 56.6382 191.747 56.5251 191.592 56.4376C191.208 56.2242 190.839 56.1831 190.58 56.3292L190.578 56.3306C190.498 56.3736 190.399 56.3487 190.355 56.2733C190.31 56.1979 190.336 56.1017 190.413 56.0572C190.414 56.0572 190.415 56.0566 190.417 56.0559L192.249 55.0218C192.618 54.8144 193.094 54.8515 193.59 55.1288C193.767 55.2271 193.94 55.3537 194.121 55.5159C195.046 56.3656 195.533 57.7161 195.233 58.5926L186.529 84.1432C186.432 84.4232 186.272 84.6266 186.052 84.7491L184.227 85.7778C184.223 85.7798 184.22 85.7825 184.215 85.7845C184.19 85.7987 184.162 85.8054 184.134 85.8054ZM191.231 55.961C191.402 55.998 191.578 56.066 191.754 56.1643C191.931 56.2632 192.104 56.3898 192.285 56.5514C193.21 57.4017 193.698 58.7528 193.397 59.6287L184.705 85.1429L185.889 84.4751C186.041 84.3916 186.149 84.2502 186.22 84.0435L194.923 58.4937V58.493C195.184 57.7369 194.724 56.5042 193.898 55.7462C193.737 55.6021 193.583 55.489 193.428 55.4028C193.036 55.1847 192.676 55.1463 192.412 55.2945L191.231 55.961Z" fill="#0D0D0D"/>
<path d="M191.676 56.3029C191.841 56.3958 192.009 56.517 192.175 56.6685C193.043 57.4609 193.522 58.7643 193.245 59.5789L184.54 85.1315C184.315 85.7912 183.664 85.9292 182.964 85.5367C182.799 85.4445 182.632 85.3233 182.467 85.1725C181.599 84.3801 181.12 83.0768 181.397 82.2621L190.098 56.7069C190.322 56.0471 190.974 55.9098 191.676 56.3029Z" fill="#42C3F1"/>
<path d="M183.705 85.913C183.447 85.913 183.165 85.8315 182.882 85.6733C182.703 85.5723 182.525 85.4431 182.355 85.2875C181.431 84.444 180.943 83.0942 181.242 82.2129L189.943 56.657C190.055 56.3284 190.267 56.0982 190.556 55.9911C190.901 55.8646 191.328 55.9265 191.757 56.1668C191.938 56.2672 192.116 56.3978 192.287 56.5533C193.211 57.3968 193.699 58.7473 193.399 59.6279L184.694 85.1812C184.583 85.5104 184.37 85.7406 184.081 85.8477C183.964 85.8914 183.837 85.9123 183.705 85.913ZM190.934 56.2422C190.84 56.2422 190.753 56.2564 190.672 56.286C190.478 56.358 190.332 56.5203 190.252 56.7559L181.551 82.3119C181.293 83.0726 181.753 84.3046 182.578 85.0573C182.73 85.196 182.887 85.3118 183.044 85.4C183.388 85.5925 183.715 85.6457 183.965 85.5528C184.159 85.4808 184.305 85.3178 184.386 85.0822L193.09 59.529C193.349 58.7682 192.889 57.5369 192.064 56.7835C191.911 56.6442 191.753 56.5284 191.595 56.4402C191.361 56.3089 191.134 56.2422 190.934 56.2422Z" fill="#0D0D0D"/>
<path d="M201.348 88.7224L199.512 89.7579L196.947 88.3246C196.498 88.0714 196.094 88.0465 195.795 88.2108L197.631 87.1814C197.923 87.0111 198.334 87.036 198.783 87.2885L201.348 88.7224Z" fill="#0D0D0D"/>
<path d="M199.512 89.9161C199.484 89.9161 199.456 89.9087 199.43 89.8952L196.866 88.4619C196.484 88.2465 196.132 88.2074 195.874 88.3488C195.797 88.3906 195.698 88.3643 195.654 88.2896C195.609 88.2135 195.636 88.1179 195.713 88.0741L197.55 87.0448C197.899 86.8401 198.379 86.8792 198.864 87.1525L201.429 88.5858C201.479 88.6141 201.51 88.6659 201.51 88.7225C201.51 88.7783 201.48 88.8309 201.43 88.8591L199.594 89.8946C199.569 89.9087 199.54 89.9161 199.512 89.9161ZM196.522 87.9853C196.686 88.0237 196.856 88.091 197.029 88.1879L199.512 89.5755L201.023 88.7231L198.701 87.4258C198.321 87.2117 197.961 87.1713 197.715 87.3168L196.522 87.9853Z" fill="#0D0D0D"/>
<path d="M200.445 78.735L202.28 77.7003C202.434 77.6141 202.605 77.5535 202.792 77.5232L200.957 78.5573C200.77 78.5882 200.599 78.6482 200.445 78.735Z" fill="#42C3F1"/>
<path d="M200.446 78.8933C200.39 78.8933 200.336 78.865 200.306 78.8145C200.26 78.7391 200.286 78.6421 200.364 78.5984L202.2 77.5643C202.372 77.4674 202.563 77.4007 202.766 77.367C202.847 77.3549 202.92 77.3973 202.946 77.4694C202.973 77.5407 202.943 77.6209 202.875 77.6599L201.04 78.694C201.023 78.7034 201.004 78.7101 200.985 78.7135C200.82 78.7404 200.666 78.7936 200.528 78.8717C200.502 78.8865 200.474 78.8933 200.446 78.8933Z" fill="#0D0D0D"/>
<path d="M204.967 80.9492C204.752 81.0697 204.615 81.3283 204.615 81.7012L204.582 92.3484C204.582 92.8473 204.401 93.1947 204.114 93.3582L202.278 94.3876C202.564 94.2301 202.747 93.8766 202.747 93.3838L202.779 82.7367C202.779 82.3644 202.916 82.1052 203.137 81.9853L204.967 80.9492Z" fill="#0D0D0D"/>
<path d="M202.278 94.5452C202.221 94.5452 202.166 94.5169 202.137 94.4658C202.092 94.3904 202.119 94.2941 202.197 94.251L202.205 94.2456C202.446 94.1076 202.584 93.7946 202.584 93.3832L202.617 82.7354C202.617 82.3173 202.774 82.0009 203.058 81.8467L204.878 80.8166C204.881 80.8153 204.883 80.814 204.886 80.8119C204.964 80.7689 205.063 80.7938 205.108 80.8698C205.153 80.9452 205.126 81.0415 205.049 81.0853L205.043 81.0886C204.872 81.1876 204.778 81.4044 204.778 81.7006L204.745 92.3485C204.745 92.8844 204.551 93.291 204.197 93.4943L202.37 94.5183C202.366 94.5203 202.362 94.523 202.358 94.5244C202.332 94.5392 202.305 94.5452 202.278 94.5452ZM204.481 81.4071L203.22 82.1207C203.04 82.2183 202.942 82.4364 202.942 82.736L202.909 93.3839C202.909 93.5677 202.885 93.7387 202.84 93.8902L204.033 93.2217C204.282 93.0783 204.42 92.7679 204.42 92.3478L204.453 81.6999C204.453 81.5956 204.462 81.498 204.481 81.4071Z" fill="#0D0D0D"/>
<path d="M201.216 63.0723C202.109 63.5732 202.835 64.7864 202.832 65.7875L202.801 76.4293C202.799 77.1705 203.337 78.0753 204.002 78.4483C204.9 78.9505 205.62 80.1664 205.618 81.1628C205.615 82.1632 204.889 82.5644 203.992 82.0615C203.326 81.6892 202.784 81.9935 202.782 82.7348L202.751 93.3813C202.748 94.3824 202.018 94.7809 201.125 94.2807L196.939 91.9365C196.046 91.4356 195.32 90.2225 195.323 89.222C195.326 88.2257 196.056 87.8224 196.949 88.3226L199.514 89.7586L199.541 80.6733C199.544 79.5012 200.075 78.7035 200.958 78.558C200.083 77.427 199.555 76.0314 199.557 74.8593L199.585 65.7787L197.02 64.342C196.126 63.8418 195.401 62.6233 195.404 61.6276C195.407 60.6265 196.137 60.2279 197.031 60.7288L201.216 63.0723Z" fill="#42C3F1"/>
<path d="M201.852 94.6549C201.6 94.6549 201.325 94.5755 201.043 94.4173L196.857 92.0731C195.918 91.5466 195.157 90.2674 195.16 89.2212C195.162 88.6827 195.359 88.276 195.717 88.0754C196.076 87.8741 196.544 87.9138 197.031 88.1858L199.351 89.4858L199.377 80.6732C199.38 79.522 199.863 78.7148 200.683 78.4603C199.87 77.3346 199.391 76.0043 199.394 74.8585L199.421 65.8695L196.938 64.4786C195.999 63.9528 195.238 62.6736 195.241 61.6267C195.242 61.0868 195.44 60.6802 195.797 60.4802C196.158 60.2783 196.625 60.3193 197.111 60.592L201.296 62.9355C202.235 63.4613 202.996 64.7405 202.994 65.7873L202.963 76.4298C202.96 77.1199 203.463 77.9641 204.082 78.3115C205.021 78.8366 205.783 80.1158 205.78 81.1626C205.778 81.7039 205.58 82.1119 205.223 82.3112C204.865 82.5131 204.397 82.4714 203.91 82.1981C203.639 82.0473 203.395 82.019 203.218 82.1179C203.042 82.2156 202.945 82.435 202.944 82.7353L202.913 93.3818C202.911 93.9217 202.714 94.3291 202.356 94.529C202.205 94.6132 202.034 94.6549 201.852 94.6549ZM196.223 88.2652C196.097 88.2652 195.98 88.2929 195.88 88.3494C195.627 88.4908 195.487 88.8005 195.486 89.2219C195.482 90.1678 196.171 91.3237 197.019 91.7997L201.205 94.1439C201.587 94.3573 201.939 94.3977 202.193 94.255C202.447 94.1136 202.586 93.8039 202.587 93.3811L202.619 82.7346C202.62 82.3172 202.775 82.0008 203.056 81.8439C203.337 81.6871 203.699 81.7154 204.072 81.9247C204.456 82.1395 204.807 82.1792 205.061 82.0378C205.314 81.8971 205.453 81.5861 205.454 81.162C205.457 80.2161 204.768 79.0595 203.919 78.5842C203.21 78.1869 202.635 77.2202 202.637 76.4285L202.668 65.7867C202.671 64.8408 201.982 63.6842 201.134 63.2089L196.949 60.8646C196.567 60.6519 196.215 60.6122 195.96 60.7536C195.707 60.8949 195.568 61.2053 195.566 61.6274C195.563 62.5733 196.252 63.7299 197.101 64.2052L199.664 65.6419C199.715 65.6695 199.746 65.722 199.746 65.7786L199.72 74.8591C199.716 76.0043 200.227 77.3515 201.088 78.463C201.121 78.5067 201.129 78.5653 201.109 78.6158C201.088 78.667 201.041 78.704 200.984 78.7134C200.185 78.8454 199.706 79.5785 199.702 80.6739L199.676 89.7592C199.676 89.8157 199.645 89.8675 199.595 89.8958C199.544 89.9234 199.483 89.9241 199.432 89.8958L196.867 88.4591C196.637 88.3305 196.418 88.2652 196.223 88.2652Z" fill="#0D0D0D"/>
<path d="M207.453 80.128C207.447 80.6268 207.271 80.9742 206.978 81.1385L205.142 82.1739C205.436 82.0103 205.617 81.6629 205.617 81.1641C205.617 80.1657 204.895 78.9538 204.003 78.4482C203.333 78.0759 202.799 77.1725 202.799 76.4272L202.832 65.7867C202.832 64.789 202.108 63.5765 201.217 63.0709L197.031 60.7281C196.582 60.4756 196.172 60.4507 195.872 60.621L197.708 59.5856C198.008 59.4213 198.411 59.4402 198.867 59.6926L203.052 62.0355C203.945 62.5411 204.667 63.7536 204.667 64.7513L204.635 75.3918C204.635 76.137 205.168 77.0398 205.839 77.4128C206.731 77.9177 207.453 79.1302 207.453 80.128Z" fill="#0D0D0D"/>
<path d="M205.142 82.3314C205.086 82.3314 205.031 82.3038 205 82.2533C204.956 82.1772 204.982 82.081 205.059 82.0372L205.066 82.0345C205.317 81.8904 205.454 81.5821 205.454 81.1633C205.454 80.2208 204.767 79.0635 203.921 78.5842C203.201 78.1843 202.635 77.2364 202.635 76.4271L202.669 65.786C202.669 64.8435 201.981 63.6862 201.134 63.2069L196.949 60.8647C196.568 60.6506 196.216 60.6115 195.96 60.7543L195.953 60.7576C195.875 60.8 195.777 60.7758 195.731 60.7004C195.686 60.6257 195.712 60.5287 195.789 60.4843C195.792 60.483 195.794 60.4823 195.796 60.4809L197.626 59.4482C197.993 59.2476 198.462 59.286 198.947 59.5552L203.134 61.8988C204.085 62.4374 204.83 63.6902 204.83 64.7506L204.797 75.3917C204.797 76.0865 205.301 76.9314 205.919 77.2754C206.871 77.814 207.616 79.0669 207.616 80.1279C207.616 80.1286 207.616 80.1286 207.616 80.1293C207.609 80.6705 207.411 81.0778 207.06 81.2751L205.228 82.3078C205.227 82.3085 205.225 82.3092 205.224 82.3099V82.3105C205.198 82.3247 205.17 82.3314 205.142 82.3314ZM196.606 60.3887C196.769 60.4271 196.94 60.4944 197.112 60.5914L201.298 62.9342C202.249 63.4728 202.994 64.7257 202.994 65.7867L202.961 76.4278C202.961 77.1219 203.465 77.9668 204.084 78.3108C205.035 78.8508 205.78 80.1037 205.78 81.1633C205.78 81.3491 205.756 81.5188 205.711 81.6696L206.896 81.0018C207.145 80.8624 207.284 80.5514 207.29 80.1266C207.289 79.184 206.602 78.0274 205.756 77.5488C205.037 77.1489 204.472 76.2009 204.472 75.3917L204.504 64.7499C204.504 63.8081 203.816 62.6508 202.97 62.1714L198.785 59.8292C198.402 59.6172 198.049 59.5788 197.788 59.7222L196.606 60.3887Z" fill="#0D0D0D"/>
<g opacity="0.1">
<path d="M174.444 167.966C167.731 171.725 167.703 177.817 174.372 181.577C181.041 185.336 191.878 185.336 198.591 181.577C205.304 177.818 205.354 171.721 198.685 167.962C192.016 164.203 181.157 164.207 174.444 167.966Z" fill="#383C43"/>
</g>
<path d="M170.905 167.515L170.925 172.538C170.939 174.986 172.597 177.429 175.914 179.301C178.703 180.87 182.216 181.782 185.851 182.038C187.313 182.143 188.796 182.143 190.251 182.032C193.859 181.769 197.345 180.856 200.127 179.301C203.511 177.403 205.204 174.921 205.197 172.433L205.17 167.423C205.17 169.905 203.478 172.386 200.1 174.278C197.325 175.827 193.845 176.74 190.251 177.009C188.796 177.121 187.313 177.121 185.851 177.016C182.202 176.766 178.682 175.854 175.887 174.278C172.57 172.407 170.912 169.964 170.905 167.515Z" fill="#BEC4CD"/>
<path d="M185.851 177.016V182.039C187.313 182.144 188.795 182.144 190.251 182.032V177.009C188.795 177.121 187.313 177.121 185.851 177.016Z" fill="#DBDEE4"/>
<path d="M188.004 182.268C183.588 182.268 179.18 181.324 175.828 179.436C172.571 177.6 170.773 175.15 170.765 172.537L170.738 167.544C170.738 167.535 170.738 167.524 170.738 167.514C170.738 167.427 170.811 167.357 170.901 167.356H170.901C170.991 167.356 171.063 167.426 171.064 167.513V167.541C171.084 170.025 172.823 172.368 175.966 174.14C182.577 177.866 193.368 177.865 200.022 174.14C203.242 172.336 205.013 169.947 205.005 167.414V167.413C205.005 167.327 205.078 167.255 205.168 167.255H205.168C205.258 167.255 205.331 167.325 205.331 167.412L205.358 172.435C205.365 175.087 203.537 177.573 200.211 179.436C196.839 181.324 192.419 182.268 188.004 182.268ZM171.074 169.434L171.091 172.536C171.098 175.032 172.839 177.385 175.993 179.163C182.603 182.889 193.395 182.888 200.049 179.163C203.27 177.358 205.039 174.97 205.032 172.436L205.016 169.311C204.361 171.237 202.702 173.003 200.185 174.413C193.439 178.19 182.502 178.189 175.802 174.413C173.358 173.035 171.736 171.312 171.074 169.434Z" fill="#383C43"/>
<path d="M175.955 160.665C169.243 164.424 169.214 170.517 175.884 174.276C182.553 178.035 193.39 178.035 200.103 174.276C206.816 170.517 206.866 164.42 200.197 160.661C193.527 156.901 182.669 156.905 175.955 160.665Z" fill="white"/>
<path d="M187.977 177.245C183.562 177.245 179.152 176.301 175.802 174.412C172.533 172.57 170.735 170.111 170.738 167.489C170.742 164.853 172.566 162.38 175.874 160.528C182.626 156.747 193.573 156.746 200.279 160.524C203.541 162.363 205.335 164.818 205.331 167.437C205.327 170.079 203.499 172.556 200.184 174.412C196.812 176.301 192.392 177.245 187.977 177.245ZM188.098 158.002C183.737 158.002 179.369 158.935 176.036 160.802C172.833 162.595 171.068 164.971 171.064 167.49C171.06 169.995 172.801 172.356 175.966 174.139C182.577 177.866 193.368 177.865 200.022 174.139C203.231 172.341 205.002 169.962 205.005 167.436C205.009 164.935 203.272 162.578 200.115 160.797C196.809 158.934 192.457 158.002 188.098 158.002Z" fill="#383C43"/>
<path d="M115.84 162.519C115.784 162.519 115.731 162.492 115.7 162.443C115.654 162.367 115.679 162.271 115.756 162.226L153.094 140.471C153.507 140.238 153.734 139.939 153.733 139.628C153.733 139.315 153.502 139.013 153.085 138.779L140.709 131.848C140.632 131.804 140.605 131.708 140.649 131.632C140.695 131.556 140.795 131.531 140.872 131.574L153.248 138.506C153.77 138.799 154.058 139.197 154.058 139.628C154.059 140.057 153.775 140.452 153.26 140.743L115.924 162.497C115.897 162.512 115.868 162.519 115.84 162.519Z" fill="#DBDEE4"/>
<path d="M91.1877 159.99C90.0106 159.331 90.0044 158.261 91.1738 157.602C92.3432 156.942 94.2462 156.943 95.4232 157.602C96.6003 158.261 96.6065 159.33 95.4364 159.99C94.267 160.649 92.3647 160.649 91.1877 159.99Z" fill="white"/>
<path d="M93.3142 160.639C92.5161 160.639 91.7159 160.468 91.1065 160.127C90.4826 159.777 90.1384 159.304 90.1377 158.792C90.137 158.284 90.4757 157.812 91.0913 157.465C92.3051 156.782 94.2851 156.782 95.5052 157.466C96.1277 157.814 96.472 158.288 96.4727 158.799C96.4733 159.308 96.1354 159.779 95.5191 160.126C94.9118 160.468 94.1137 160.639 93.3142 160.639ZM93.2948 157.264C92.5549 157.264 91.8158 157.422 91.255 157.738C90.7436 158.026 90.4625 158.401 90.4625 158.791C90.4632 159.186 90.7505 159.563 91.2689 159.854C92.3981 160.486 94.2317 160.486 95.3546 159.853C95.8668 159.565 96.1479 159.19 96.1472 158.8C96.1465 158.406 95.8612 158.03 95.3421 157.739C94.7772 157.423 94.0346 157.264 93.2948 157.264Z" fill="#DBDEE4"/>
<path d="M93.2992 158.043C93.7579 158.043 94.2021 158.144 94.5179 158.321C94.7712 158.463 94.9162 158.637 94.9169 158.799C94.9169 158.959 94.7747 159.131 94.5255 159.271C94.2125 159.448 93.7704 159.549 93.3117 159.549C92.8536 159.549 92.4095 159.448 92.0944 159.271C91.8411 159.129 91.6953 158.955 91.6953 158.793C91.6946 158.632 91.8376 158.46 92.0861 158.32C92.3984 158.144 92.8411 158.043 93.2992 158.043Z" fill="#42C3F1"/>
<path d="M82.9374 152.322C83.4301 152.322 83.9076 152.431 84.2463 152.621C84.5183 152.773 84.6745 152.96 84.6745 153.134C84.6752 153.306 84.5218 153.491 84.2546 153.642C83.9187 153.831 83.4433 153.94 82.9513 153.94C82.4592 153.94 81.9824 153.831 81.6437 153.642C81.3717 153.489 81.2155 153.302 81.2148 153.127C81.2148 152.956 81.3675 152.771 81.6347 152.62C81.9706 152.431 82.4453 152.322 82.9374 152.322Z" fill="#383C43"/>
<path d="M118.161 163.148C119.338 162.489 119.345 161.419 118.176 160.76C117.006 160.101 115.103 160.101 113.926 160.76C112.749 161.419 112.743 162.489 113.912 163.148C115.082 163.807 116.984 163.807 118.161 163.148Z" fill="white"/>
<path d="M116.034 163.797C115.235 163.797 114.436 163.626 113.83 163.284C113.215 162.936 112.875 162.465 112.876 161.957C112.877 161.446 113.22 160.972 113.844 160.623C115.065 159.94 117.044 159.94 118.258 160.622C118.873 160.97 119.212 161.44 119.211 161.949C119.21 162.46 118.866 162.934 118.243 163.284C117.633 163.626 116.833 163.797 116.034 163.797ZM116.054 160.422C115.313 160.422 114.572 160.58 114.007 160.896C113.488 161.187 113.202 161.564 113.201 161.957C113.201 162.349 113.482 162.722 113.994 163.01C115.116 163.643 116.948 163.644 118.08 163.011C118.598 162.72 118.885 162.342 118.885 161.949C118.885 161.558 118.604 161.184 118.094 160.896C117.533 160.579 116.794 160.422 116.054 160.422Z" fill="#DBDEE4"/>
<path d="M116.051 161.201C115.593 161.201 115.148 161.302 114.833 161.479C114.579 161.62 114.434 161.794 114.434 161.957C114.434 162.117 114.576 162.289 114.825 162.429C115.138 162.606 115.58 162.707 116.039 162.707C116.497 162.707 116.941 162.606 117.256 162.429C117.509 162.287 117.655 162.112 117.655 161.95C117.656 161.79 117.513 161.618 117.264 161.478C116.952 161.302 116.51 161.201 116.051 161.201Z" fill="#42C3F1"/>
<path d="M116.397 161.986L102.841 170.449L81.29 172.057" stroke="#DBDEE4" stroke-width="0.5"/>
<path d="M65.2762 184.552C64.2227 184.552 63.1553 184.492 62.09 184.372C58.9822 184.024 56.1326 183.166 53.8506 181.888C50.7345 180.141 49.0224 177.809 49.0293 175.322L49.0494 169.012C49.0494 168.925 49.1223 168.855 49.2118 168.855C49.3021 168.855 49.3749 168.926 49.3749 169.013C49.3749 171.368 51.0295 173.592 54.0325 175.275C56.2637 176.523 59.0634 177.368 62.1288 177.718C63.5439 177.877 64.9625 177.931 66.3478 177.874C70.2218 177.744 73.8591 176.823 76.5921 175.281C79.5437 173.612 81.1726 171.409 81.1795 169.077V169.076C81.1795 168.989 81.2524 168.918 81.3419 168.918H81.3426C81.4322 168.919 81.505 168.989 81.505 169.076L81.4856 175.417C81.478 177.869 79.7915 180.167 76.7365 181.888C73.9569 183.454 70.2724 184.393 66.3602 184.531C66.0014 184.545 65.6392 184.552 65.2762 184.552ZM49.3687 170.843L49.3548 175.323C49.3486 177.692 51.0031 179.927 54.0137 181.615C56.2575 182.871 59.0634 183.716 62.1274 184.058C63.5432 184.218 64.9646 184.271 66.3478 184.215C70.2086 184.079 73.839 183.155 76.572 181.615C79.5236 179.953 81.1532 177.751 81.1601 175.417L81.1733 170.924C80.5431 172.667 79.0281 174.269 76.7559 175.553C73.9771 177.121 70.2849 178.058 66.3602 178.19C64.9597 178.246 63.5231 178.192 62.09 178.031C58.9808 177.676 56.1388 176.818 53.8701 175.548C51.543 174.245 49.9982 172.617 49.3687 170.843Z" fill="#383C43"/>
<path d="M76.5962 162.645C82.8909 166.171 82.9291 171.889 76.6753 175.415C70.4222 178.94 60.2459 178.937 53.9519 175.411C47.6572 171.886 47.6238 166.171 53.8776 162.645C60.1307 159.119 70.3022 159.119 76.5962 162.645Z" fill="white"/>
<path d="M65.3324 178.209C61.187 178.209 57.0368 177.323 53.8693 175.549C50.7622 173.808 49.0487 171.485 49.0459 169.007C49.0417 166.545 50.7289 164.238 53.7944 162.509C60.0828 158.965 70.348 158.963 76.6767 162.508C79.7859 164.25 81.5001 166.575 81.5029 169.055C81.507 171.516 79.8213 173.823 76.7572 175.551C73.614 177.323 69.4756 178.209 65.3324 178.209ZM65.2206 160.161C61.1363 160.161 57.0576 161.034 53.9588 162.782C50.9968 164.452 49.3672 166.662 49.3714 169.006C49.3742 171.367 51.0301 173.594 54.0324 175.275C60.2744 178.771 70.3945 178.772 76.5927 175.278C79.5534 173.609 81.1816 171.399 81.1774 169.055C81.1746 166.692 79.518 164.465 76.5143 162.782C73.3947 161.035 69.3049 160.161 65.2206 160.161Z" fill="#383C43"/>
<path d="M61.3953 164.606C61.2718 164.675 61.2024 164.749 61.1864 164.831C61.1704 164.912 61.1947 164.988 61.2586 165.062L67.3964 172.141C67.4027 172.155 67.4207 172.175 67.4519 172.2C67.4783 172.226 67.5075 172.246 67.5408 172.265C67.6761 172.342 67.8413 172.382 68.0308 172.383C68.2202 172.387 68.3875 172.346 68.5332 172.264C68.6561 172.195 68.7262 172.121 68.7421 172.04C68.7581 171.958 68.7338 171.882 68.6699 171.808L62.5321 164.729C62.5251 164.715 62.5078 164.695 62.4766 164.67C62.4495 164.645 62.421 164.624 62.3877 164.605C62.2517 164.529 62.0872 164.489 61.8978 164.487C61.7062 164.485 61.5403 164.524 61.3953 164.606Z" fill="#42C3F1"/>
<path d="M58.2555 168.962C58.191 168.999 58.1368 169.041 58.0966 169.092L55.408 173.026C55.2463 173.262 55.3073 173.462 55.5988 173.626L55.6946 173.68C55.9854 173.844 56.3421 173.88 56.762 173.79L63.7729 172.292C63.8618 172.269 63.9381 172.239 64.0026 172.203C64.1394 172.126 64.2095 172.034 64.2122 171.931C64.2102 171.826 64.1442 171.736 64.0061 171.659C63.7972 171.541 63.5342 171.515 63.2212 171.583L56.9098 172.945L59.3548 169.403C59.4763 169.228 59.4326 169.08 59.2237 168.962C59.0856 168.885 58.9252 168.847 58.7399 168.846C58.5553 168.847 58.3922 168.886 58.2555 168.962Z" fill="#42C3F1"/>
<path d="M65.9254 164.667C65.7956 164.74 65.7276 164.83 65.7227 164.935C65.72 165.042 65.7838 165.134 65.9219 165.211C66.1308 165.329 66.3939 165.354 66.7069 165.287L73.0161 163.924L70.5732 167.466C70.4517 167.642 70.4955 167.79 70.7044 167.907C70.8425 167.985 71.0049 168.021 71.1943 168.02C71.3817 168.017 71.5427 167.98 71.6725 167.907C71.7461 167.866 71.7981 167.825 71.8314 167.778L74.5201 163.844C74.6846 163.607 74.6207 163.408 74.3292 163.243L74.2341 163.189C73.9426 163.025 73.588 162.989 73.166 163.08L66.1558 164.578C66.0725 164.597 65.999 164.626 65.9254 164.667Z" fill="#42C3F1"/>
<path d="M118.866 24.7201C118.085 24.3915 117.124 24.4678 116.12 25.0311L57.0381 58.1173C54.8423 59.3493 53.2821 62.43 53.5542 65.0052L58.6358 113.444C58.7871 114.84 59.4401 115.797 60.3597 116.189L56.0228 114.376C55.1032 113.984 54.4502 113.027 54.2989 111.631L49.2235 63.1928C48.9452 60.6163 50.5061 57.5363 52.7013 56.3043L111.783 23.2181C112.787 22.6548 113.754 22.5785 114.529 22.9071L118.866 24.7201Z" fill="#BEC4CD"/>
<path d="M55.8272 59.0436L51.491 57.2306C50.2758 58.4256 49.4208 60.1868 49.2334 61.9022L53.5696 63.7152C53.757 61.9998 54.612 60.2386 55.8272 59.0436Z" fill="#F1F2F5"/>
<path d="M60.3594 116.347C60.3379 116.347 60.3164 116.343 60.2949 116.334L60.2942 116.334C60.2942 116.333 60.2935 116.334 60.2935 116.334L55.9587 114.521C54.9517 114.091 54.2882 113.044 54.1369 111.647L49.0609 63.2089C48.7777 60.586 50.3746 57.4272 52.6198 56.1675L111.701 23.0815C112.714 22.5131 113.74 22.4006 114.594 22.7626L118.915 24.5689C118.92 24.5711 118.925 24.5732 118.93 24.5754C119.013 24.6102 119.05 24.7031 119.015 24.7829C118.979 24.8631 118.883 24.8998 118.801 24.8653L118.786 24.8594C118.03 24.5464 117.112 24.6566 116.201 25.1678L57.1191 58.2539C54.9773 59.457 53.4498 62.4784 53.7163 64.9896L58.7979 113.427C58.9367 114.708 59.5294 115.663 60.4247 116.046C60.5066 116.08 60.5447 116.173 60.5086 116.253C60.4823 116.312 60.4226 116.347 60.3594 116.347ZM113.545 22.8706C113.01 22.8706 112.437 23.0338 111.864 23.3548L52.7822 56.4409C50.6383 57.6439 49.1143 60.6654 49.385 63.1766L54.461 111.614C54.5998 112.895 55.1925 113.85 56.0877 114.233L59.2872 115.57C58.8506 115.038 58.5661 114.314 58.4738 113.46L53.3922 65.0219C53.1146 62.3983 54.7136 59.2395 56.9567 57.9806L116.038 24.8944C116.575 24.5928 117.117 24.4198 117.636 24.3782L114.465 23.0521C114.178 22.9311 113.869 22.8706 113.545 22.8706Z" fill="#383C43"/>
<path d="M122.187 82.7919L63.106 115.878C60.9101 117.11 58.9079 116.019 58.6358 113.443L53.5542 65.0051C53.2822 62.4293 54.843 59.3485 57.0382 58.1165L116.12 25.0305C118.309 23.8042 120.312 24.8898 120.584 27.4654L125.665 75.9034C125.938 78.4791 124.377 81.5652 122.187 82.7919Z" fill="#383C43"/>
<path d="M61.3438 116.544C60.9239 116.544 60.5235 116.454 60.1571 116.272C59.2139 115.805 58.6157 114.806 58.4727 113.459L53.3918 65.0212C53.1135 62.3977 54.7125 59.2388 56.9563 57.9806L116.038 24.894C117.109 24.2939 118.184 24.2038 119.064 24.6399C120.005 25.1071 120.603 26.1051 120.745 27.4496L125.827 75.8879C126.104 78.5155 124.507 81.6743 122.268 82.9286L63.1864 116.015C62.5597 116.367 61.9323 116.544 61.3438 116.544ZM117.875 24.6841C117.344 24.6841 116.773 24.8463 116.2 25.1673L57.1187 58.2532C54.9769 59.4563 53.4494 62.4778 53.7159 64.9896L58.7975 113.427C58.9279 114.663 59.4637 115.574 60.3056 115.991C61.0849 116.377 62.0496 116.287 63.0233 115.742L122.105 82.6552C124.244 81.4576 125.768 78.4361 125.502 75.9195L120.42 27.4818C120.291 26.2472 119.756 25.3378 118.915 24.9212C118.596 24.7628 118.245 24.6841 117.875 24.6841Z" fill="#383C43"/>
<g opacity="0.1">
<path d="M57.8013 126.457C56.1391 127.388 56.1301 128.901 57.7818 129.832L97.7585 152.369C99.4102 153.3 102.102 153.3 103.765 152.369L166.889 117.015C168.556 116.081 168.56 114.571 166.909 113.64L126.932 91.1036C125.28 90.1725 122.592 90.1698 120.925 91.1036L57.8013 126.457Z" fill="#010101"/>
</g>
<path d="M60.5594 117.306C58.8966 118.237 58.8883 119.75 60.5393 120.681L100.516 143.217C102.168 144.148 104.861 144.148 106.523 143.217L169.647 107.864C171.314 106.931 171.318 105.42 169.667 104.489L129.69 81.9524C128.038 81.0213 125.351 81.0186 123.684 81.9524L60.5594 117.306Z" fill="white"/>
<path d="M103.516 144.071C102.399 144.071 101.283 143.831 100.435 143.354L60.4583 120.817C59.6102 120.339 59.1438 119.693 59.1445 118.999C59.1452 118.3 59.6199 117.651 60.4791 117.169L123.603 81.8157C125.309 80.8598 128.076 80.8598 129.772 81.8157L169.749 104.352C170.598 104.831 171.066 105.477 171.065 106.171C171.063 106.869 170.589 107.518 169.729 108L106.605 143.354C105.752 143.831 104.633 144.07 103.516 144.071ZM60.6415 117.443C59.8864 117.865 59.4707 118.418 59.47 119C59.4686 119.577 59.8781 120.125 60.6221 120.544L100.599 143.081C102.204 143.986 104.825 143.986 106.442 143.081L169.566 107.727C170.322 107.304 170.739 106.751 170.739 106.17C170.74 105.594 170.331 105.045 169.585 104.625L129.609 82.0891C128.004 81.1836 125.381 81.1836 123.766 82.0891L60.6415 117.443Z" fill="#383C43"/>
<path d="M170.922 111.924C170.929 112.537 170.515 113.149 169.672 113.618L106.547 148.973C106.282 149.125 105.99 149.243 105.684 149.342C104.984 149.573 104.189 149.678 103.395 149.666H103.388C102.627 149.652 101.88 149.527 101.227 149.29C100.983 149.198 100.752 149.092 100.542 148.973L60.5685 126.442C59.7461 125.974 59.3318 125.368 59.3318 124.755L59.3047 119.008C59.3116 119.608 59.726 120.214 60.5407 120.682L100.514 143.214C100.732 143.339 100.969 143.444 101.227 143.536C101.88 143.774 102.633 143.899 103.388 143.912V143.906C104.182 143.919 104.984 143.814 105.684 143.576C105.983 143.477 106.268 143.359 106.526 143.214L169.652 107.858C170.481 107.397 170.902 106.77 170.902 106.165L170.922 111.924Z" fill="#BEC4CD"/>
<path d="M62.8294 127.872C62.7399 127.872 62.667 127.801 62.667 127.714V121.974C62.667 121.887 62.7399 121.817 62.8294 121.817C62.9189 121.817 62.9925 121.887 62.9925 121.974V127.714C62.9925 127.801 62.9189 127.872 62.8294 127.872Z" fill="#383C43"/>
<path d="M66.7891 125.483C66.9307 125.562 67.0459 125.756 67.0452 125.916L67.0411 127.625C67.0411 127.785 66.9245 127.847 66.7836 127.768L66.5795 127.653L66.5789 128.124C66.5782 128.284 66.4623 128.348 66.3207 128.269L65.1055 127.589C64.9646 127.509 64.8487 127.316 64.8494 127.156L64.8508 126.685L64.6467 126.571C64.5058 126.492 64.3899 126.301 64.3906 126.141L64.3948 124.431C64.3955 124.272 64.5114 124.207 64.6523 124.287L66.7891 125.483Z" fill="#383C43"/>
<path d="M165.569 116.086C165.479 116.086 165.406 116.015 165.406 115.928V110.155C165.406 110.068 165.479 109.997 165.569 109.997C165.658 109.997 165.732 110.068 165.732 110.155V115.928C165.732 116.015 165.658 116.086 165.569 116.086Z" fill="#383C43"/>
<path d="M109.114 147.695C109.024 147.695 108.951 147.624 108.951 147.537V141.765C108.951 141.677 109.024 141.606 109.114 141.606C109.204 141.606 109.277 141.677 109.277 141.765V147.537C109.277 147.624 109.204 147.695 109.114 147.695Z" fill="#383C43"/>
<path d="M105.684 143.576V149.342C104.984 149.573 104.19 149.678 103.395 149.665H103.388C102.627 149.652 101.88 149.527 101.228 149.29V143.536C101.88 143.774 102.634 143.899 103.388 143.912V143.905C104.183 143.919 104.984 143.814 105.684 143.576Z" fill="#DBDEE4"/>
<path d="M138.773 148.858L171.698 164.353" stroke="#DBDEE4" stroke-width="0.5"/>
<path d="M103.534 149.824C103.486 149.824 103.438 149.824 103.39 149.824C102.269 149.802 101.23 149.548 100.457 149.11L60.4842 126.578C59.6348 126.095 59.167 125.447 59.167 124.755L59.1406 119.011V119.01C59.1399 118.922 59.2121 118.851 59.3016 118.85C59.3023 118.85 59.3023 118.85 59.303 118.85C59.3919 118.85 59.4654 118.92 59.4661 119.006C59.4661 119.007 59.4661 119.007 59.4661 119.008C59.4724 119.576 59.8832 120.122 60.6217 120.546L100.595 143.077C101.323 143.489 102.299 143.728 103.347 143.754C103.36 143.75 103.358 143.747 103.389 143.748C104.533 143.768 105.636 143.53 106.443 143.077L169.569 107.721C170.311 107.308 170.737 106.74 170.737 106.165C170.737 106.077 170.81 106.006 170.9 106.006C170.989 106.006 171.063 106.077 171.063 106.164L171.083 111.923C171.091 112.623 170.617 113.273 169.751 113.755L106.626 149.11C105.808 149.573 104.714 149.824 103.534 149.824ZM59.4703 119.968L59.4925 124.754C59.4925 125.33 59.9033 125.882 60.6494 126.306L100.621 148.837C101.347 149.249 102.33 149.488 103.389 149.507C104.579 149.533 105.662 149.29 106.463 148.837L169.589 113.481C170.35 113.058 170.764 112.506 170.758 111.926C170.758 111.925 170.758 111.925 170.758 111.925L170.74 107.125C170.513 107.452 170.171 107.75 169.731 107.995L106.606 143.351C105.758 143.826 104.621 144.071 103.426 144.064C103.413 144.068 103.401 144.074 103.383 144.07C102.265 144.049 101.217 143.794 100.43 143.351L60.4572 120.819C60.0269 120.571 59.6938 120.282 59.4703 119.968Z" fill="#383C43"/>
<path d="M113.919 120.853C112.966 121.387 112.961 122.251 113.907 122.784L122.396 127.569C123.342 128.103 124.879 128.103 125.831 127.569L141.735 118.663C142.692 118.126 142.697 117.263 141.751 116.729L133.262 111.944C132.316 111.41 130.779 111.41 129.821 111.947L113.919 120.853Z" fill="#DBDEE4"/>
<path d="M58.2311 109.782C58.2096 109.782 58.1881 109.778 58.1666 109.769L53.8193 107.951C53.7367 107.916 53.6985 107.824 53.7339 107.744C53.77 107.664 53.8651 107.626 53.9477 107.661L58.295 109.479C58.3783 109.513 58.4164 109.606 58.3803 109.686C58.354 109.746 58.2943 109.782 58.2311 109.782Z" fill="#383C43"/>
<path d="M54.1186 70.4818C54.0971 70.4818 54.0748 70.4778 54.054 70.4683L49.7109 68.6526C49.6283 68.6183 49.5901 68.5254 49.6255 68.4453C49.6616 68.3652 49.7567 68.3268 49.8393 68.3631L54.1824 70.1789C54.265 70.2132 54.3032 70.3061 54.2678 70.3862C54.2407 70.4461 54.181 70.4818 54.1186 70.4818Z" fill="#383C43"/>
<path d="M111.574 27.7267C111.553 27.7267 111.531 27.7226 111.51 27.7138L107.182 25.9042C107.098 25.8696 107.061 25.7767 107.096 25.6966C107.132 25.6168 107.227 25.5791 107.31 25.6143L111.639 27.4239C111.721 27.4584 111.759 27.5513 111.723 27.6314C111.697 27.6909 111.637 27.7267 111.574 27.7267Z" fill="#383C43"/>
<path d="M119.677 36.1638L56.0918 71.7752L60.3426 112.086C60.3759 112.406 60.5411 113.448 61.2469 113.448C61.4156 113.448 61.7008 113.401 62.0999 113.177L121.181 80.0909C122.755 79.2097 123.961 76.7867 123.762 74.9064L119.677 36.1638Z" fill="white"/>
<path d="M61.2464 113.606C60.4038 113.606 60.2171 112.455 60.1796 112.103L55.9295 71.7907C55.9233 71.7287 55.9545 71.6688 56.01 71.6385L119.595 36.0265C119.644 35.9996 119.701 35.9989 119.751 36.0225C119.8 36.0467 119.833 36.0938 119.839 36.147L123.923 74.8902C124.128 76.8244 122.885 79.3188 121.263 80.227L62.1812 113.313C61.7509 113.555 61.4351 113.606 61.2464 113.606ZM56.264 71.8607L60.5038 112.07C60.5253 112.274 60.662 113.29 61.2464 113.29C61.3956 113.29 61.6503 113.246 62.0188 113.04L121.1 79.9543C122.624 79.1 123.792 76.7484 123.599 74.9226L119.54 36.4224L56.264 71.8607Z" fill="#383C43"/>
<path d="M118.778 27.6457C118.745 27.3269 118.58 26.2869 117.875 26.2869C117.706 26.2869 117.423 26.3332 117.027 26.5553L57.9465 59.6408C56.3697 60.5254 55.1608 62.9484 55.3593 64.8254L56.0921 71.7752L119.676 36.1638L118.778 27.6457Z" fill="#42C3F1"/>
<path d="M56.0923 71.9327C56.0673 71.9327 56.0416 71.9273 56.018 71.9158C55.9687 71.8909 55.9361 71.8445 55.9306 71.7913L55.1977 64.8415C54.9936 62.91 56.2408 60.4163 57.8655 59.5041L116.946 26.4187C117.372 26.1793 117.687 26.129 117.876 26.129C118.717 26.129 118.903 27.2774 118.941 27.6296L119.84 36.1469C119.846 36.2095 119.814 36.2688 119.759 36.2998L56.1742 71.9118C56.1485 71.9259 56.1207 71.9327 56.0923 71.9327ZM117.876 26.4448C117.727 26.4448 117.473 26.4877 117.109 26.6919L58.0286 59.7774C56.5004 60.6345 55.3296 62.9867 55.5218 64.8098L56.2283 71.5159L119.504 36.0776L118.617 27.6617C118.596 27.4585 118.459 26.4448 117.876 26.4448Z" fill="#383C43"/>
<path d="M62.2392 61.0821C63.1573 60.5685 64.0047 61.0296 64.1345 62.1142C64.2643 63.1994 63.6272 64.4954 62.7097 65.0098C61.7915 65.5241 60.9441 65.0589 60.8137 63.9743C60.6839 62.8891 61.321 61.5965 62.2392 61.0821Z" fill="white"/>
<path d="M67.3954 58.1946C68.3129 57.6803 69.1638 58.1401 69.2935 59.2247C69.4233 60.3099 68.7834 61.6079 67.8652 62.1216C66.9478 62.6359 66.0997 62.1707 65.9699 61.0862C65.8401 60.0016 66.4772 58.7083 67.3954 58.1946Z" fill="white"/>
<path d="M72.551 55.3072C73.4692 54.7928 74.3193 55.2526 74.4491 56.3372C74.5796 57.4225 73.9397 58.7205 73.0215 59.2341C72.1033 59.7485 71.2559 59.2833 71.1262 58.1987C70.9964 57.1141 71.6335 55.8208 72.551 55.3072Z" fill="white"/>
<path d="M107.665 47.2573C107.609 47.2573 107.554 47.229 107.523 47.1785C107.479 47.1025 107.505 47.0062 107.583 46.9624L116.501 41.9677C116.578 41.9246 116.678 41.9495 116.724 42.0256C116.768 42.101 116.741 42.1979 116.664 42.241L107.746 47.2358C107.721 47.2506 107.693 47.2573 107.665 47.2573Z" fill="#42C3F1"/>
<path d="M87.8626 58.3468C87.8071 58.3468 87.7523 58.3185 87.7217 58.2673C87.6773 58.1919 87.7037 58.0957 87.7814 58.0519L102.708 49.6924C102.784 49.6486 102.884 49.6742 102.93 49.7503C102.975 49.8257 102.948 49.9226 102.871 49.9657L87.9445 58.3252C87.9189 58.3401 87.8911 58.3468 87.8626 58.3468Z" fill="#383C43"/>
<path d="M72.4222 66.9951C72.3667 66.9951 72.3118 66.9662 72.2813 66.9157C72.2369 66.8403 72.2633 66.744 72.341 66.7002L80.9697 61.8678C81.0453 61.824 81.146 61.8496 81.1918 61.9257C81.2369 62.0011 81.2098 62.0974 81.1321 62.1411L72.5041 66.9736C72.4784 66.9877 72.45 66.9951 72.4222 66.9951Z" fill="#42C3F1"/>
<path d="M59.6542 74.1456C59.598 74.1456 59.5431 74.1173 59.5126 74.0668C59.4682 73.9914 59.4952 73.8945 59.573 73.8514L67.7193 69.2889C67.795 69.2444 67.8956 69.2707 67.9421 69.3461C67.9865 69.4222 67.9595 69.5185 67.8824 69.5622L59.7354 74.1247C59.7097 74.1389 59.6819 74.1456 59.6542 74.1456Z" fill="#383C43"/>
<path d="M72.8922 71.1773C72.836 71.1773 72.7819 71.149 72.7513 71.0985C72.7062 71.0224 72.7333 70.9262 72.811 70.8824L100.258 55.5111C100.334 55.4674 100.434 55.4923 100.48 55.5684C100.524 55.6444 100.498 55.7407 100.42 55.7838L72.9734 71.1557C72.9485 71.1706 72.92 71.1773 72.8922 71.1773Z" fill="#383C43"/>
<path d="M60.1068 78.3371C60.0512 78.3371 59.9964 78.3089 59.9659 78.2584C59.9215 78.183 59.9478 78.086 60.0256 78.0429L68.1573 73.4885C68.233 73.4447 68.3343 73.4703 68.3801 73.5464C68.4245 73.6218 68.3982 73.7181 68.3204 73.7618L60.1887 78.3163C60.163 78.3304 60.1345 78.3371 60.1068 78.3371Z" fill="#42C3F1"/>
<path d="M101.971 59.3251C101.916 59.3251 101.861 59.2961 101.83 59.2456C101.786 59.1702 101.812 59.0739 101.89 59.0302L117.388 50.3509C117.464 50.3071 117.564 50.332 117.611 50.4081C117.655 50.4842 117.628 50.5804 117.551 50.6242L102.053 59.3035C102.027 59.3183 101.999 59.3251 101.971 59.3251Z" fill="#42C3F1"/>
<path d="M83.6702 69.5736C83.6147 69.5736 83.5599 69.5453 83.5294 69.4948C83.4849 69.4188 83.5113 69.3225 83.589 69.2787L96.8225 61.8678C96.8982 61.824 96.9981 61.8496 97.0446 61.9257C97.089 62.0011 97.0626 62.0974 96.9849 62.1411L83.7521 69.5521C83.7264 69.5669 83.6987 69.5736 83.6702 69.5736Z" fill="#383C43"/>
<path d="M73.2952 75.385C73.239 75.385 73.1849 75.356 73.1544 75.3055C73.1099 75.2301 73.1363 75.1339 73.214 75.0901L79.3776 71.6384C79.4532 71.5947 79.5539 71.6196 79.6004 71.6963C79.6448 71.7717 79.6177 71.868 79.54 71.9118L73.3764 75.3634C73.3515 75.3783 73.323 75.385 73.2952 75.385Z" fill="#42C3F1"/>
<path d="M60.5404 82.5287C60.4848 82.5287 60.43 82.5004 60.3995 82.4499C60.3551 82.3738 60.3814 82.2776 60.4592 82.2338L68.5986 77.6753C68.6742 77.6316 68.7749 77.6565 68.8213 77.7326C68.8658 77.8086 68.8387 77.9049 68.7617 77.9487L60.6216 82.5071C60.5966 82.5219 60.5688 82.5287 60.5404 82.5287Z" fill="#383C43"/>
<path d="M73.7757 79.5585C73.7202 79.5585 73.6654 79.5302 73.6348 79.4797C73.5904 79.4043 73.6168 79.3073 73.6945 79.2642L101.89 63.4729C101.966 63.4291 102.066 63.4547 102.112 63.5308C102.157 63.6062 102.13 63.7025 102.053 63.7462L73.8576 79.5376C73.8319 79.5517 73.8042 79.5585 73.7757 79.5585Z" fill="#383C43"/>
<path d="M60.9661 86.7323C60.9106 86.7323 60.8558 86.704 60.8253 86.6535C60.7808 86.5775 60.8072 86.4812 60.8849 86.4381L69.0403 81.8702C69.116 81.8265 69.2166 81.852 69.2631 81.9281C69.3075 82.0035 69.2811 82.0998 69.2034 82.1436L61.048 86.7108C61.0223 86.7256 60.9946 86.7323 60.9661 86.7323Z" fill="#42C3F1"/>
<path d="M116.06 60.3154C116.004 60.3154 115.95 60.2871 115.919 60.2366C115.875 60.1606 115.901 60.0643 115.979 60.0212L118.28 58.732C118.356 58.6882 118.456 58.7131 118.503 58.7892C118.547 58.8653 118.521 58.9615 118.443 59.0053L116.142 60.2939C116.116 60.3087 116.088 60.3154 116.06 60.3154Z" fill="#42C3F1"/>
<path d="M94.222 72.5467C94.1665 72.5467 94.1117 72.5177 94.0811 72.4672C94.0367 72.3918 94.0631 72.2956 94.1408 72.2518L110.31 63.1962C110.386 63.1524 110.486 63.178 110.533 63.254C110.577 63.3294 110.551 63.4257 110.473 63.4695L94.3039 72.5251C94.2782 72.54 94.2505 72.5467 94.222 72.5467Z" fill="#383C43"/>
<path d="M74.2103 83.7534C74.1548 83.7534 74.0999 83.7251 74.0694 83.6746C74.025 83.5992 74.0514 83.5023 74.1291 83.4592L89.1698 75.0357C89.2454 74.9912 89.3467 75.0175 89.3926 75.0936C89.437 75.169 89.4106 75.2652 89.3329 75.309L74.2922 83.7325C74.2665 83.7466 74.2387 83.7534 74.2103 83.7534Z" fill="#42C3F1"/>
<path d="M61.4339 90.9098C61.3784 90.9098 61.3236 90.8815 61.293 90.831C61.2486 90.7549 61.275 90.6586 61.3527 90.6156L69.4831 86.0618C69.5595 86.018 69.6601 86.043 69.7059 86.119C69.7503 86.1951 69.7239 86.2914 69.6462 86.3351L61.5158 90.8882C61.4901 90.903 61.4624 90.9098 61.4339 90.9098Z" fill="#383C43"/>
<path d="M74.6337 87.9691C74.5775 87.9691 74.5226 87.9408 74.4921 87.8903C74.4477 87.8142 74.4747 87.718 74.5518 87.6749L103.786 71.3025C103.861 71.2588 103.962 71.2837 104.008 71.3597C104.052 71.4358 104.026 71.5321 103.948 71.5759L74.7149 87.9475C74.6892 87.9624 74.6614 87.9691 74.6337 87.9691Z" fill="#383C43"/>
<path d="M61.89 95.1068C61.8344 95.1068 61.7796 95.0778 61.7491 95.0273C61.7047 94.9519 61.731 94.8556 61.8088 94.8119L69.9218 90.2682C69.9981 90.2238 70.0981 90.25 70.1446 90.3261C70.189 90.4015 70.1619 90.4978 70.0849 90.5416L61.9719 95.0852C61.9462 95.0993 61.9184 95.1068 61.89 95.1068Z" fill="#42C3F1"/>
<path d="M108.31 73.541C108.254 73.541 108.2 73.5128 108.169 73.4616C108.125 73.3862 108.151 73.2899 108.229 73.2462L119.172 67.117C119.248 67.0733 119.349 67.0989 119.395 67.1749C119.439 67.2503 119.413 67.3473 119.335 67.3904L108.392 73.5195C108.366 73.5343 108.338 73.541 108.31 73.541Z" fill="#42C3F1"/>
<path d="M83.2122 87.5968C83.156 87.5968 83.1019 87.5686 83.0713 87.5181C83.0269 87.442 83.0533 87.3457 83.131 87.302L100.869 77.3677C100.946 77.3233 101.046 77.3496 101.092 77.425C101.137 77.501 101.109 77.5973 101.032 77.6411L83.2934 87.5753C83.2685 87.5901 83.24 87.5968 83.2122 87.5968Z" fill="#383C43"/>
<path d="M75.1034 92.1398C75.0472 92.1398 74.9924 92.1115 74.9618 92.061C74.9174 91.9849 74.9445 91.8886 75.0215 91.8449L77.8392 90.2675C77.9155 90.2231 78.0148 90.2493 78.0613 90.3254C78.1064 90.4008 78.0793 90.4971 78.0016 90.5408L75.1846 92.1182C75.1589 92.133 75.1312 92.1398 75.1034 92.1398Z" fill="#42C3F1"/>
<path d="M62.3255 99.2949C62.27 99.2949 62.2152 99.2667 62.1846 99.2162C62.1402 99.1401 62.1666 99.0438 62.2443 99.0007L70.3678 94.4517C70.4434 94.4079 70.5441 94.4328 70.5899 94.5089C70.6343 94.585 70.6079 94.6813 70.5302 94.7244L62.4074 99.2734C62.3817 99.2882 62.354 99.2949 62.3255 99.2949Z" fill="#383C43"/>
<path d="M75.5624 96.3286C75.5062 96.3286 75.4513 96.2997 75.4208 96.2492C75.3764 96.1738 75.4035 96.0775 75.4805 96.0338L105.021 79.4897C105.096 79.446 105.197 79.4716 105.243 79.5476C105.288 79.623 105.261 79.7193 105.184 79.7631L75.6436 96.3071C75.6179 96.3212 75.5901 96.3286 75.5624 96.3286Z" fill="#383C43"/>
<path d="M62.7913 103.48C62.7358 103.48 62.681 103.451 62.6505 103.401C62.606 103.325 62.6324 103.229 62.7101 103.185L70.8107 98.6492C70.8863 98.6054 70.987 98.6303 71.0328 98.7064C71.0772 98.7825 71.0508 98.8788 70.9731 98.9225L62.8732 103.459C62.8476 103.473 62.8198 103.48 62.7913 103.48Z" fill="#42C3F1"/>
<path d="M116.803 77.6633C116.746 77.6633 116.692 77.635 116.661 77.5838C116.617 77.5084 116.644 77.4121 116.721 77.3684L120.046 75.5062C120.122 75.4624 120.223 75.488 120.269 75.5641C120.314 75.6395 120.287 75.7358 120.209 75.7795L116.884 77.6417C116.858 77.6565 116.83 77.6633 116.803 77.6633Z" fill="#42C3F1"/>
<path d="M92.5247 91.2592C92.4692 91.2592 92.4144 91.2303 92.3838 91.1798C92.3394 91.1044 92.3658 91.0081 92.4435 90.9644L113.363 79.2481C113.44 79.2043 113.539 79.2292 113.586 79.3053C113.63 79.3814 113.604 79.4777 113.526 79.5207L92.6059 91.2377C92.581 91.2518 92.5525 91.2592 92.5247 91.2592Z" fill="#383C43"/>
<path d="M75.9567 100.538C75.9004 100.538 75.8463 100.51 75.8158 100.46C75.7707 100.384 75.7978 100.287 75.8755 100.244L88.5343 93.1543C88.6106 93.1105 88.7106 93.1361 88.7571 93.2122C88.8015 93.2876 88.7744 93.3839 88.6974 93.4276L76.0379 100.517C76.0129 100.532 75.9844 100.538 75.9567 100.538Z" fill="#42C3F1"/>
<path d="M63.1986 107.683C63.143 107.683 63.0882 107.655 63.0577 107.605C63.0133 107.529 63.0396 107.433 63.1174 107.389L71.2519 102.833C71.3276 102.79 71.4282 102.815 71.4747 102.891C71.5191 102.967 71.4921 103.063 71.415 103.107L63.2805 107.662C63.2548 107.677 63.227 107.683 63.1986 107.683Z" fill="#383C43"/>
<path d="M106.256 96.3522C105.869 96.569 105.871 96.9184 106.251 97.1332L109.968 99.2283C110.352 99.4451 110.971 99.4451 111.358 99.2283L115.719 96.7858C116.105 96.5697 116.107 96.2216 115.724 96.0048L112.006 93.9097C111.626 93.6956 111.004 93.6936 110.617 93.9097L106.256 96.3522Z" fill="#DBDEE4"/>
<path d="M114.182 91.9143C113.795 92.1304 113.796 92.4805 114.177 92.6946L117.894 94.7904C118.278 95.0065 118.897 95.0065 119.283 94.7904L123.645 92.3472C124.031 92.1311 124.033 91.783 123.649 91.5669L119.932 89.4711C119.551 89.2571 118.929 89.255 118.543 89.4711L114.182 91.9143Z" fill="#DBDEE4"/>
<path d="M129.335 91.5493C128.948 91.7654 128.95 92.1155 129.33 92.3296L133.047 94.4254C133.431 94.6415 134.05 94.6415 134.437 94.4254L138.798 91.9822C139.184 91.7661 139.186 91.418 138.803 91.2019L135.086 89.1061C134.705 88.8921 134.083 88.89 133.696 89.1061L129.335 91.5493Z" fill="#DBDEE4"/>
<path d="M122.107 87.4749C121.721 87.691 121.722 88.0411 122.103 88.2552L125.82 90.351C126.203 90.5671 126.823 90.5671 127.209 90.351L131.57 87.9085C131.957 87.6917 131.959 87.3436 131.575 87.1275L127.858 85.0324C127.478 84.8177 126.855 84.8157 126.469 85.0324L122.107 87.4749Z" fill="#DBDEE4"/>
<path d="M121.409 95.988C121.023 96.2048 121.024 96.5542 121.404 96.7689L125.121 98.864C125.505 99.0808 126.124 99.0808 126.511 98.864L130.872 96.4215C131.259 96.2054 131.261 95.8574 130.877 95.6406L127.16 93.5455C126.779 93.3314 126.157 93.3294 125.77 93.5455L121.409 95.988Z" fill="#DBDEE4"/>
<path d="M120.711 104.501C120.324 104.717 120.326 105.067 120.707 105.282L124.423 107.377C124.804 107.591 125.426 107.593 125.813 107.377L130.174 104.935C130.56 104.718 130.559 104.368 130.179 104.154L126.461 102.059C126.081 101.844 125.459 101.842 125.072 102.059L120.711 104.501Z" fill="#DBDEE4"/>
<path d="M113.483 100.427C113.097 100.643 113.098 100.993 113.479 101.208L117.196 103.303C117.579 103.519 118.199 103.519 118.585 103.303L122.946 100.86C123.333 100.643 123.335 100.296 122.951 100.079L119.234 97.9841C118.854 97.7693 118.231 97.7673 117.845 97.9841L113.483 100.427Z" fill="#DBDEE4"/>
<path d="M74.5508 114.109C74.1684 114.324 74.1663 114.676 74.5466 114.89L78.2638 116.985C78.6476 117.202 79.2701 117.2 79.6532 116.985L84.0179 114.541C84.4044 114.325 84.4058 113.977 84.022 113.76L80.3056 111.665C79.9246 111.451 79.302 111.449 78.9161 111.665L74.5508 114.109Z" fill="#DBDEE4"/>
<path d="M66.6256 118.548C66.2425 118.763 66.2404 119.114 66.6208 119.329L70.3379 121.424C70.7217 121.641 71.3442 121.639 71.7273 121.424L76.092 118.98C76.4786 118.763 76.4806 118.415 76.0962 118.199L72.3797 116.103C71.9987 115.889 71.3769 115.887 70.9903 116.103L66.6256 118.548Z" fill="#DBDEE4"/>
<path d="M81.7789 118.184C81.3959 118.398 81.3938 118.75 81.7741 118.965L85.4906 121.06C85.875 121.277 86.4976 121.275 86.8807 121.06L91.2453 118.615C91.6319 118.398 91.634 118.051 91.2495 117.834L87.533 115.739C87.152 115.524 86.5295 115.522 86.1436 115.739L81.7789 118.184Z" fill="#DBDEE4"/>
<path d="M73.8532 122.622C73.4701 122.837 73.468 123.189 73.8483 123.403L77.5655 125.499C77.9492 125.715 78.5718 125.713 78.9549 125.499L83.3195 123.054C83.7061 122.837 83.7082 122.489 83.3237 122.273L79.6072 120.178C79.2262 119.963 78.6044 119.961 78.2178 120.178L73.8532 122.622Z" fill="#DBDEE4"/>
<path d="M82.4759 109.671C82.0935 109.886 82.0907 110.238 82.4717 110.452L86.1882 112.547C86.5726 112.764 87.1952 112.762 87.5783 112.547L91.9429 110.102C92.3288 109.886 92.3309 109.538 91.9471 109.322L88.2306 107.226C87.8496 107.012 87.2271 107.01 86.8412 107.226L82.4759 109.671Z" fill="#DBDEE4"/>
<path d="M81.0788 126.697C80.6957 126.912 80.6936 127.263 81.0739 127.478L84.791 129.573C85.1714 129.788 85.7974 129.788 86.1805 129.573L90.5451 127.128C90.9317 126.912 90.9303 126.562 90.55 126.348L86.8328 124.253C86.4525 124.038 85.83 124.036 85.4434 124.253L81.0788 126.697Z" fill="#DBDEE4"/>
<path d="M89.0045 122.258C88.6214 122.472 88.6194 122.824 88.9997 123.038L92.7168 125.134C93.0971 125.348 93.7231 125.348 94.1062 125.134L98.4709 122.69C98.8575 122.473 98.8561 122.124 98.4751 121.909L94.7586 119.814C94.3783 119.599 93.7558 119.597 93.3692 119.814L89.0045 122.258Z" fill="#DBDEE4"/>
<path d="M96.9303 117.819C96.5472 118.034 96.5451 118.385 96.9255 118.6L100.643 120.695C101.023 120.91 101.649 120.91 102.032 120.695L122.248 109.373C122.634 109.156 122.633 108.806 122.252 108.592L118.536 106.497C118.155 106.282 117.532 106.28 117.146 106.497L96.9303 117.819Z" fill="#DBDEE4"/>
<path d="M97.6292 109.306C97.2461 109.521 97.2447 109.872 97.625 110.087L101.341 112.182C101.726 112.399 102.348 112.397 102.731 112.182L107.096 109.737C107.482 109.521 107.484 109.173 107.1 108.957L103.383 106.861C103.003 106.647 102.38 106.645 101.995 106.861L97.6292 109.306Z" fill="#DBDEE4"/>
<path d="M89.7032 113.745C89.3207 113.96 89.3187 114.311 89.699 114.526L93.4154 116.621C93.7999 116.838 94.4224 116.836 94.8055 116.621L99.1702 114.177C99.5561 113.961 99.5582 113.613 99.1744 113.396L95.4579 111.301C95.0769 111.087 94.4544 111.085 94.0685 111.301L89.7032 113.745Z" fill="#DBDEE4"/>
<path d="M105.557 104.866C105.171 105.082 105.172 105.432 105.553 105.647L109.27 107.742C109.654 107.958 110.273 107.958 110.659 107.742L115.02 105.299C115.407 105.083 115.409 104.735 115.025 104.519L111.308 102.423C110.928 102.209 110.305 102.207 109.919 102.423L105.557 104.866Z" fill="#DBDEE4"/>
<path d="M98.332 100.792C97.9454 101.008 97.9468 101.358 98.3271 101.573L102.044 103.668C102.428 103.884 103.047 103.884 103.434 103.668L107.795 101.225C108.181 101.009 108.184 100.661 107.8 100.444L104.083 98.3491C103.702 98.1343 103.08 98.1323 102.693 98.3491L98.332 100.792Z" fill="#DBDEE4"/>
<path d="M90.4019 105.232C90.0188 105.446 90.0167 105.798 90.3977 106.012L94.1142 108.108C94.4987 108.324 95.1212 108.322 95.5036 108.108L99.869 105.664C100.255 105.447 100.257 105.099 99.8731 104.883L96.156 102.788C95.7757 102.573 95.1531 102.571 94.7673 102.788L90.4019 105.232Z" fill="#DBDEE4"/>
<path d="M136.562 95.6231C136.176 95.8399 136.177 96.1893 136.558 96.404L140.275 98.4992C140.655 98.7139 141.278 98.7159 141.664 98.4992L146.025 96.0567C146.412 95.8406 146.411 95.4905 146.03 95.2757L142.313 93.1806C141.933 92.9665 141.31 92.9645 140.924 93.1806L136.562 95.6231Z" fill="#DBDEE4"/>
<path d="M128.637 100.062C128.25 100.279 128.252 100.629 128.632 100.843L132.349 102.939C132.729 103.153 133.352 103.155 133.738 102.939L138.1 100.496C138.486 100.279 138.485 99.9298 138.104 99.7151L134.387 97.62C134.007 97.4052 133.384 97.4032 132.998 97.62L128.637 100.062Z" fill="#DBDEE4"/>
<path d="M138.59 148.049C138.097 148.049 137.62 148.158 137.281 148.348C137.009 148.5 136.853 148.687 136.853 148.862C136.853 149.033 137.005 149.218 137.272 149.369C137.609 149.558 138.084 149.667 138.576 149.667C139.069 149.667 139.545 149.558 139.883 149.369C140.156 149.216 140.312 149.029 140.312 148.854C140.312 148.683 140.16 148.497 139.892 148.347C139.557 148.158 139.082 148.049 138.59 148.049Z" fill="#383C43"/>
<path d="M203.048 151.192C203.048 151.821 202.903 152.455 202.648 153.078C202.972 153.853 203.096 154.642 203.027 155.431C203.034 155.297 203.062 155.163 203.062 155.023L203.048 158.707C203.048 159.336 202.903 159.971 202.648 160.593C202.972 161.368 203.096 162.157 203.027 162.946C203.034 162.812 203.062 162.679 203.062 162.538L203.048 166.216C203.041 168.362 201.587 170.501 198.684 172.139C196.72 173.25 194.342 173.972 191.826 174.333C191.73 174.346 191.64 174.36 191.544 174.373C190.682 174.486 189.814 174.56 188.931 174.587C188.801 174.593 188.67 174.593 188.539 174.6H187.774C187.608 174.6 187.45 174.593 187.291 174.587C186.905 174.574 186.519 174.56 186.14 174.527C185.933 174.513 185.726 174.5 185.52 174.48C185.313 174.46 185.113 174.433 184.913 174.413C184.672 174.386 184.431 174.346 184.196 174.313C184.031 174.292 183.873 174.266 183.714 174.239C183.342 174.179 182.97 174.105 182.604 174.025C182.46 173.992 182.322 173.959 182.184 173.925C181.901 173.858 181.626 173.785 181.357 173.711C181.233 173.678 181.115 173.644 180.998 173.604C180.619 173.497 180.254 173.377 179.895 173.243C179.813 173.217 179.737 173.183 179.661 173.149C179.364 173.036 179.068 172.916 178.786 172.788C178.682 172.748 178.586 172.702 178.489 172.654C178.138 172.494 177.8 172.327 177.469 172.14C175.994 171.311 174.885 170.355 174.147 169.331C173.63 168.616 173.306 167.867 173.147 167.112C173.134 167.032 173.113 166.958 173.107 166.884C173.065 166.637 173.037 166.383 173.044 166.136L173.058 162.458C173.058 161.823 173.196 161.188 173.458 160.566C173.189 159.931 173.037 159.275 173.044 158.62L173.058 154.943C173.058 154.308 173.196 153.673 173.458 153.057C173.189 152.415 173.037 151.76 173.044 151.105L173.058 147.441C173.058 146.799 173.196 146.17 173.458 145.542C173.189 144.9 173.037 144.245 173.044 143.59L173.058 139.912C173.058 137.766 174.506 135.626 177.407 133.995C183.252 130.699 192.758 130.705 198.637 133.995C201.773 135.753 203.227 138.1 203.028 140.4C203.034 140.267 203.062 140.133 203.062 139.992L203.048 143.677C203.048 144.311 202.903 144.94 202.649 145.562C202.972 146.338 203.096 147.127 203.028 147.915C203.034 147.782 203.062 147.648 203.062 147.508L203.048 151.192Z" fill="#93D1E7"/>
<path d="M203.06 162.54L203.047 166.218C203.04 168.363 201.587 170.504 198.683 172.141C192.846 175.432 183.346 175.432 177.471 172.141C174.512 170.485 173.035 168.308 173.041 166.135L173.054 162.456C173.048 164.629 174.526 166.805 177.484 168.462C183.36 171.753 192.859 171.753 198.697 168.462C201.6 166.826 203.054 164.684 203.06 162.54Z" fill="#93D1E7"/>
<path d="M198.634 156.539C204.51 159.83 204.541 165.168 198.697 168.462C192.86 171.753 183.361 171.753 177.485 168.462C171.609 165.171 171.572 159.831 177.41 156.54C183.253 153.246 192.758 153.249 198.634 156.539Z" fill="#6CA5B9"/>
<path d="M202.339 158.7L202.327 161.933C202.321 163.974 200.938 166.011 198.177 167.567C192.619 170.701 183.578 170.701 177.983 167.567C175.167 165.991 173.761 163.921 173.768 161.854L173.78 158.621C173.774 160.687 175.18 162.757 177.996 164.334C183.591 167.467 192.632 167.467 198.19 164.333C200.951 162.777 202.334 160.74 202.339 158.7Z" fill="#42C3F1"/>
<path d="M202.339 158.701L202.326 161.932C202.326 163.974 200.94 166.01 198.177 167.568L198.191 164.337C200.954 162.779 202.332 160.743 202.339 158.701Z" fill="#42C3F1"/>
<path d="M177.995 164.337L177.981 167.568C175.169 165.989 173.764 163.92 173.771 161.851L173.777 158.633C173.777 160.703 175.19 162.765 177.995 164.337Z" fill="#42C3F1"/>
<path d="M202.332 158.692C202.344 154.26 195.962 150.651 188.075 150.629C180.189 150.607 173.785 154.182 173.772 158.614C173.759 163.045 180.142 166.655 188.029 166.676C195.916 166.698 202.319 163.123 202.332 158.692Z" fill="#666666"/>
<path d="M203.06 155.025L203.047 158.704C203.04 160.848 201.587 162.989 198.683 164.627C192.846 167.917 183.346 167.918 177.471 164.627C174.512 162.97 173.035 160.793 173.041 158.62L173.054 154.942C173.048 157.114 174.526 159.291 177.484 160.948C183.36 164.238 192.859 164.238 198.697 160.948C201.6 159.311 203.054 157.169 203.06 155.025Z" fill="#93D1E7"/>
<path d="M198.634 149.025C204.51 152.315 204.541 157.653 198.697 160.948C192.86 164.238 183.361 164.238 177.485 160.948C171.609 157.657 171.572 152.316 177.41 149.025C183.253 145.731 192.758 145.734 198.634 149.025Z" fill="#6CA5B9"/>
<path d="M202.339 151.185L202.327 154.419C202.321 156.459 200.938 158.496 198.177 160.053C192.619 163.186 183.578 163.186 177.983 160.053C175.167 158.476 173.761 156.406 173.768 154.34L173.78 151.106C173.774 153.172 175.18 155.243 177.996 156.819C183.591 159.953 192.632 159.953 198.19 156.819C200.951 155.262 202.334 153.225 202.339 151.185Z" fill="#42C3F1"/>
<path d="M202.336 151.184L202.323 154.421C202.323 156.457 200.938 158.499 198.175 160.051L198.189 156.82C200.952 155.261 202.329 153.226 202.336 151.184Z" fill="#42C3F1"/>
<path d="M177.995 156.819L177.981 160.051C175.169 158.478 173.764 156.403 173.771 154.341L173.777 151.116C173.777 153.185 175.19 155.247 177.995 156.819Z" fill="#42C3F1"/>
<path d="M202.332 151.177C202.344 146.746 195.962 143.136 188.075 143.114C180.189 143.093 173.785 146.668 173.772 151.1C173.759 155.531 180.142 159.14 188.029 159.162C195.916 159.183 202.319 155.608 202.332 151.177Z" fill="#666666"/>
<path d="M203.06 147.51L203.047 151.189C203.04 153.333 201.587 155.475 198.683 157.111C192.846 160.402 183.346 160.402 177.471 157.112C174.512 155.455 173.035 153.279 173.041 151.106L173.054 147.427C173.048 149.6 174.526 151.776 177.484 153.433C183.36 156.724 192.859 156.724 198.697 153.433C201.6 151.796 203.054 149.655 203.06 147.51Z" fill="#93D1E7"/>
<path d="M198.634 141.51C204.51 144.801 204.541 150.139 198.697 153.433C192.86 156.724 183.361 156.724 177.485 153.433C171.609 150.142 171.572 144.801 177.41 141.51C183.253 138.216 192.758 138.219 198.634 141.51Z" fill="#6CA5B9"/>
<path d="M202.339 143.67L202.327 146.904C202.321 148.944 200.938 150.981 198.177 152.538C192.619 155.671 183.578 155.671 177.983 152.538C175.167 150.962 173.761 148.891 173.768 146.825L173.78 143.591C173.774 145.658 175.18 147.727 177.996 149.304C183.591 152.438 192.632 152.438 198.19 149.304C200.951 147.748 202.334 145.71 202.339 143.67Z" fill="#42C3F1"/>
<path d="M202.336 143.672L202.323 146.904C202.323 148.946 200.938 150.982 198.175 152.54L198.189 149.302C200.952 147.75 202.329 145.708 202.336 143.672Z" fill="#42C3F1"/>
<path d="M177.995 149.303L177.981 152.54C175.169 150.961 173.764 148.893 173.771 146.824L173.777 143.606C173.777 145.675 175.19 147.737 177.995 149.303Z" fill="#42C3F1"/>
<path d="M202.332 143.662C202.344 139.231 195.962 135.621 188.075 135.6C180.189 135.578 173.785 139.153 173.772 143.584C173.759 148.016 180.142 151.625 188.029 151.647C195.916 151.668 202.319 148.094 202.332 143.662Z" fill="#666666"/>
<path d="M203.06 139.996L203.047 143.674C203.04 145.819 201.587 147.96 198.683 149.597C192.846 152.888 183.346 152.888 177.471 149.597C174.512 147.94 173.035 145.764 173.041 143.591L173.054 139.912C173.048 142.085 174.526 144.262 177.484 145.918C183.36 149.209 192.859 149.209 198.697 145.918C201.6 144.281 203.054 142.139 203.06 139.996Z" fill="#93D1E7"/>
<path d="M192.678 170.523C187.506 171.453 181.605 170.77 177.484 168.462C174.526 166.805 173.048 164.629 173.054 162.456L173.041 166.135C173.035 168.308 174.512 170.485 177.471 172.141C181.595 174.451 187.502 175.133 192.678 174.2V170.523Z" fill="#93D1E7"/>
<path d="M192.678 163.008C187.506 163.938 181.605 163.255 177.484 160.948C174.526 159.291 173.048 157.114 173.054 154.942L173.041 158.62C173.035 160.793 174.512 162.97 177.471 164.627C181.595 166.937 187.502 167.618 192.678 166.685V163.008Z" fill="#93D1E7"/>
<path d="M192.678 155.494C187.506 156.423 181.605 155.741 177.484 153.433C174.526 151.776 173.048 149.6 173.054 147.427L173.041 151.106C173.035 153.279 174.512 155.455 177.471 157.111C181.595 159.422 187.502 160.103 192.678 159.17V155.494Z" fill="#93D1E7"/>
<path d="M192.678 147.979C187.506 148.909 181.605 148.226 177.484 145.918C174.526 144.262 173.048 142.085 173.054 139.912L173.041 143.591C173.035 145.763 174.512 147.94 177.471 149.597C181.595 151.907 187.502 152.589 192.678 151.656V147.979Z" fill="#93D1E7"/>
<path d="M198.634 133.995C204.51 137.286 204.541 142.623 198.697 145.918C192.86 149.208 183.361 149.209 177.485 145.918C171.609 142.628 171.572 137.286 177.41 133.995C183.253 130.701 192.758 130.705 198.634 133.995Z" fill="#6CA5B9"/>
<path d="M196.62 136.282C199.567 137.933 199.582 140.612 196.655 142.263C193.722 143.916 188.954 143.916 186.007 142.265C183.055 140.613 183.044 137.936 185.977 136.282C188.905 134.632 193.668 134.629 196.62 136.282Z" fill="#93D1E7" fill-opacity="0.22"/>
<path d="M195.675 137.263L195.668 139.596C195.665 140.627 194.967 141.656 193.573 142.442C190.761 144.027 186.191 144.027 183.365 142.444C181.943 141.648 181.233 140.603 181.235 139.56L181.242 137.227C181.239 138.27 181.949 139.315 183.372 140.112C186.197 141.695 190.768 141.695 193.58 140.11C194.974 139.323 195.672 138.294 195.675 137.263Z" fill="#93D1E7"/>
<path d="M193.546 134.376C196.371 135.959 196.386 138.527 193.58 140.11C190.768 141.694 186.197 141.694 183.372 140.112C180.542 138.527 180.532 135.961 183.344 134.376C186.15 132.794 190.716 132.792 193.546 134.376Z" fill="white"/>
<path d="M192.514 138C192.319 138.344 191.972 138.663 191.493 138.939C189.824 139.877 187.116 139.877 185.447 138.939C184.95 138.663 184.603 138.336 184.408 137.992C183.911 137.156 184.249 136.209 185.429 135.546C187.089 134.607 189.797 134.607 191.475 135.546C192.656 136.209 193.011 137.165 192.514 138Z" fill="#93D1E7"/>
<path d="M192.514 138C192.318 138.344 191.972 138.663 191.492 138.939C189.824 139.877 187.116 139.877 185.446 138.939C184.95 138.663 184.603 138.336 184.408 137.992C184.594 137.647 184.941 137.32 185.429 137.044C187.089 136.105 189.797 136.105 191.475 137.044C191.963 137.32 192.309 137.647 192.514 138Z" fill="#42C3F1"/>
<path d="M199.676 146.217C200.184 145.932 200.595 146.163 200.597 146.73C200.598 147.293 200.191 147.978 199.682 148.263C199.173 148.548 198.759 148.323 198.757 147.76C198.755 147.193 199.167 146.502 199.676 146.217Z" fill="#242322"/>
<path d="M200.597 147.327C200.597 147.749 200.245 148.091 199.81 148.091C199.683 148.091 199.563 148.061 199.457 148.009C199.429 147.996 199.402 147.98 199.376 147.964C199.298 147.9 199.251 147.79 199.25 147.641C199.249 147.296 199.499 146.876 199.809 146.703C199.944 146.627 200.068 146.611 200.165 146.646C200.192 146.66 200.22 146.675 200.245 146.691C200.458 146.828 200.597 147.062 200.597 147.327Z" fill="#F0555D"/>
<path d="M199.676 153.623C200.184 153.338 200.595 153.569 200.597 154.136C200.598 154.699 200.191 155.385 199.682 155.669C199.173 155.954 198.759 155.729 198.757 155.166C198.755 154.6 199.167 153.908 199.676 153.623Z" fill="#242322"/>
<path d="M200.597 154.734C200.597 155.155 200.245 155.497 199.81 155.497C199.683 155.497 199.563 155.467 199.457 155.416C199.429 155.402 199.402 155.387 199.376 155.37C199.298 155.306 199.251 155.196 199.25 155.047C199.249 154.703 199.499 154.283 199.809 154.11C199.944 154.033 200.068 154.017 200.165 154.052C200.192 154.066 200.22 154.081 200.245 154.097C200.458 154.234 200.597 154.468 200.597 154.734Z" fill="#F0555D"/>
<path d="M199.676 161.028C200.184 160.744 200.595 160.975 200.597 161.542C200.598 162.105 200.191 162.79 199.682 163.075C199.173 163.36 198.759 163.135 198.757 162.572C198.755 162.005 199.167 161.314 199.676 161.028Z" fill="#242322"/>
<path d="M200.597 162.14C200.597 162.561 200.245 162.903 199.81 162.903C199.683 162.903 199.563 162.874 199.457 162.822C199.429 162.808 199.402 162.793 199.376 162.776C199.298 162.712 199.251 162.602 199.25 162.454C199.249 162.109 199.499 161.689 199.809 161.516C199.944 161.44 200.068 161.424 200.165 161.459C200.192 161.472 200.22 161.487 200.245 161.504C200.458 161.64 200.597 161.875 200.597 162.14Z" fill="#F0555D"/>
<path d="M199.676 168.435C200.184 168.15 200.595 168.381 200.597 168.949C200.598 169.512 200.191 170.197 199.682 170.482C199.173 170.767 198.759 170.542 198.757 169.979C198.755 169.412 199.167 168.721 199.676 168.435Z" fill="#242322"/>
<path d="M200.597 169.546C200.597 169.968 200.245 170.31 199.81 170.31C199.683 170.31 199.563 170.28 199.457 170.228C199.429 170.214 199.402 170.199 199.376 170.182C199.298 170.118 199.251 170.008 199.25 169.86C199.249 169.515 199.499 169.095 199.809 168.922C199.944 168.846 200.068 168.83 200.165 168.865C200.192 168.878 200.22 168.894 200.245 168.91C200.458 169.047 200.597 169.281 200.597 169.546Z" fill="#F0555D"/>
</svg>
