<svg width="266" height="208" viewBox="0 0 266 208" fill="none" xmlns="http://www.w3.org/2000/svg">
<rect width="265.056" height="207.105" rx="16" fill="#FFEACC"/>
<path d="M128.331 140.708C128.303 140.708 128.275 140.702 128.25 140.687L88.0501 118.085C87.9718 118.042 87.9457 117.944 87.9908 117.869C88.0351 117.793 88.1356 117.767 88.2131 117.812L128.413 140.414C128.491 140.458 128.517 140.554 128.471 140.63C128.442 140.68 128.387 140.708 128.331 140.708Z" fill="#DBDEE4"/>
<path d="M185.608 113.837C185.553 113.837 185.499 113.81 185.468 113.761C185.423 113.686 185.446 113.589 185.524 113.543L205.819 101.578C206.234 101.345 206.459 101.046 206.459 100.735C206.459 100.421 206.228 100.119 205.81 99.8853L140.174 62.8821C140.097 62.8385 140.071 62.7419 140.116 62.6661C140.16 62.5903 140.261 62.565 140.339 62.6086L205.974 99.6119C206.496 99.9037 206.784 100.303 206.785 100.734C206.786 101.163 206.502 101.559 205.986 101.85L185.692 113.814C185.666 113.829 185.638 113.837 185.608 113.837Z" fill="#DBDEE4"/>
<path d="M81.8509 184.551C81.1881 184.551 80.5253 184.409 80.0183 184.127L67.63 177.188C67.5525 177.144 67.5256 177.048 67.5707 176.972C67.6166 176.896 67.7162 176.871 67.7929 176.915L80.1813 183.852C81.1043 184.37 82.5999 184.369 83.515 183.852L119.543 163.575C119.619 163.532 119.72 163.557 119.765 163.633C119.81 163.709 119.784 163.805 119.706 163.849L83.678 184.126C83.1757 184.409 82.5137 184.551 81.8509 184.551Z" fill="#DBDEE4"/>
<path d="M69.5303 175.804C70.7088 176.464 70.7152 177.534 69.5446 178.195C68.374 178.854 66.4694 178.854 65.291 178.194C64.1125 177.534 64.1069 176.464 65.2775 175.804C66.4481 175.144 68.3527 175.144 69.5303 175.804Z" fill="white"/>
<path d="M67.4215 178.845C66.6211 178.845 65.8207 178.673 65.2101 178.331C64.5861 177.982 64.242 177.507 64.2412 176.996C64.2404 176.487 64.5789 176.015 65.1959 175.667C66.4091 174.984 68.3896 174.983 69.6124 175.667C70.2365 176.017 70.5813 176.492 70.5821 177.003C70.5821 177.512 70.2436 177.984 69.6274 178.331C69.02 178.673 68.2212 178.845 67.4215 178.845ZM67.4018 175.466C66.6607 175.466 65.9211 175.624 65.3596 175.941C64.8479 176.23 64.5663 176.604 64.5671 176.995C64.5679 177.389 64.8534 177.766 65.3722 178.057C66.5041 178.692 68.3406 178.692 69.4629 178.057C69.9746 177.769 70.2562 177.395 70.2562 177.003C70.2554 176.61 69.9691 176.232 69.4495 175.941C68.884 175.625 68.1421 175.466 67.4018 175.466Z" fill="#DBDEE4"/>
<path d="M67.4188 177.753C66.9593 177.753 66.5148 177.652 66.1992 177.475C65.9453 177.334 65.7998 177.159 65.7998 176.997C65.799 176.836 65.9422 176.664 66.1905 176.524C66.5037 176.347 66.9467 176.246 67.4054 176.246C67.8641 176.246 68.3086 176.347 68.6242 176.524C68.8781 176.666 69.0236 176.841 69.0236 177.003C69.0244 177.164 68.8813 177.336 68.6329 177.476C68.3197 177.652 67.8776 177.753 67.4188 177.753Z" fill="#FF9955"/>
<path d="M77.79 183.48C77.2965 183.48 76.8196 183.371 76.4803 183.181C76.2074 183.029 76.0516 182.841 76.0508 182.667C76.0508 182.495 76.2042 182.31 76.4716 182.16C76.8077 181.97 77.283 181.861 77.7758 181.861C78.2685 181.861 78.7463 181.97 79.0848 182.16C79.3577 182.312 79.5143 182.5 79.5143 182.674C79.5143 182.846 79.3616 183.031 79.0943 183.182C78.7581 183.371 78.2828 183.48 77.79 183.48Z" fill="#383C43"/>
<path d="M69.5303 175.804C70.7088 176.464 70.7152 177.534 69.5446 178.195C68.374 178.854 66.4694 178.854 65.291 178.194C64.1125 177.534 64.1069 176.464 65.2775 175.804C66.4481 175.144 68.3527 175.144 69.5303 175.804Z" fill="white"/>
<path d="M67.4215 178.845C66.6211 178.845 65.8207 178.673 65.2101 178.331C64.5861 177.982 64.242 177.507 64.2412 176.996C64.2404 176.487 64.5789 176.015 65.1959 175.667C66.4091 174.984 68.3896 174.983 69.6124 175.667C70.2365 176.017 70.5813 176.492 70.5821 177.003C70.5821 177.512 70.2436 177.984 69.6274 178.331C69.02 178.673 68.2212 178.845 67.4215 178.845ZM67.4018 175.466C66.6607 175.466 65.9211 175.624 65.3596 175.941C64.8479 176.23 64.5663 176.604 64.5671 176.995C64.5679 177.389 64.8534 177.766 65.3722 178.057C66.5041 178.692 68.3406 178.692 69.4629 178.057C69.9746 177.769 70.2562 177.395 70.2562 177.003C70.2554 176.61 69.9691 176.232 69.4495 175.941C68.884 175.625 68.1421 175.466 67.4018 175.466Z" fill="#DBDEE4"/>
<path d="M67.4188 177.753C66.9593 177.753 66.5148 177.652 66.1992 177.475C65.9453 177.334 65.7998 177.159 65.7998 176.997C65.799 176.836 65.9422 176.664 66.1905 176.524C66.5037 176.347 66.9467 176.246 67.4054 176.246C67.8641 176.246 68.3086 176.347 68.6242 176.524C68.8781 176.666 69.0236 176.841 69.0236 177.003C69.0244 177.164 68.8813 177.336 68.6329 177.476C68.3197 177.652 67.8776 177.753 67.4188 177.753Z" fill="#FF9955"/>
<path d="M187.063 179.736C186.463 179.736 185.864 179.586 185.33 179.287L163.802 167.23C163.725 167.186 163.698 167.09 163.742 167.014C163.788 166.937 163.888 166.913 163.965 166.956L185.493 179.013C186.464 179.557 187.671 179.556 188.639 179.009L210.018 166.956C210.096 166.913 210.196 166.937 210.242 167.013C210.287 167.089 210.261 167.185 210.183 167.23L188.803 179.282C188.266 179.584 187.664 179.736 187.063 179.736Z" fill="#DBDEE4"/>
<path d="M70.0949 151.719C70.0396 151.719 69.9842 151.691 69.955 151.64C69.9091 151.565 69.9352 151.468 70.0135 151.424L91.7371 139.208C92.2979 138.892 92.6325 138.329 92.6309 137.7C92.6301 137.07 92.2939 136.507 91.7324 136.194L69.8529 123.97C69.7754 123.926 69.7485 123.829 69.7928 123.754C69.8379 123.678 69.9391 123.653 70.0158 123.695L91.8953 135.92C92.5589 136.29 92.9552 136.955 92.9568 137.699C92.9584 138.443 92.5629 139.109 91.9001 139.481L70.1764 151.698C70.1511 151.712 70.1234 151.719 70.0949 151.719Z" fill="#DBDEE4"/>
<path d="M73.8153 151.629C74.993 150.968 75.0001 149.896 73.8295 149.236C72.659 148.575 70.7536 148.575 69.5751 149.236C68.3966 149.896 68.3911 150.968 69.5617 151.629C70.7323 152.289 72.6368 152.29 73.8153 151.629Z" fill="white"/>
<path d="M71.6848 152.279C70.8844 152.279 70.0847 152.109 69.4781 151.765C68.862 151.418 68.5226 150.946 68.5234 150.436C68.5242 149.924 68.8675 149.449 69.4923 149.099C70.7135 148.414 72.6956 148.414 73.9097 149.099C74.5258 149.447 74.8651 149.919 74.8643 150.429C74.8635 150.941 74.5195 151.416 73.8947 151.766C73.2848 152.109 72.4836 152.279 71.6848 152.279ZM71.7046 148.897C70.9635 148.897 70.2216 149.055 69.6553 149.372C69.1356 149.664 68.8501 150.042 68.8493 150.436C68.8485 150.828 69.1301 151.203 69.6418 151.492C70.7657 152.126 72.5999 152.126 73.7317 151.492C74.2513 151.201 74.5385 150.822 74.5393 150.428C74.5393 150.036 74.2577 149.661 73.7459 149.372C73.1844 149.055 72.4449 148.897 71.7046 148.897Z" fill="#DBDEE4"/>
<path d="M71.7011 149.677C71.2415 149.677 70.797 149.779 70.4815 149.956C70.2276 150.099 70.082 150.273 70.082 150.436C70.0812 150.596 70.2244 150.769 70.4735 150.909C70.7867 151.086 71.2289 151.187 71.6876 151.187C72.1471 151.187 72.5908 151.086 72.9064 150.909C73.1603 150.767 73.3059 150.592 73.3066 150.429C73.3066 150.269 73.1643 150.096 72.9151 149.955C72.6019 149.779 72.1598 149.677 71.7011 149.677Z" fill="#FF9955"/>
<path d="M82.0742 143.943C81.5807 143.943 81.1037 144.052 80.7644 144.242C80.4916 144.395 80.3358 144.583 80.335 144.757C80.335 144.93 80.4884 145.115 80.7557 145.266C81.0919 145.456 81.568 145.565 82.0607 145.565C82.5535 145.565 83.0304 145.455 83.3689 145.265C83.6418 145.113 83.7984 144.924 83.7984 144.75C83.7984 144.578 83.6458 144.393 83.3784 144.242C83.0423 144.052 82.5669 143.943 82.0742 143.943Z" fill="#383C43"/>
<g opacity="0.1">
<path d="M126.23 110.182C127.272 110.766 127.272 111.714 126.237 112.298L62.0164 148.501C60.9811 149.085 59.2988 149.085 58.2563 148.501L49.8131 143.774C48.7715 143.189 48.7659 142.244 49.8013 141.66L114.022 105.457C115.057 104.873 116.745 104.87 117.787 105.454L126.23 110.182Z" fill="#010101"/>
</g>
<path d="M129.327 104.77L129.307 108.446C129.307 108.826 129.05 109.201 128.536 109.494L64.3137 145.705C64.1531 145.798 63.9728 145.873 63.7862 145.935C62.9501 146.21 61.9014 146.209 61.0717 145.929C60.885 145.873 60.7118 145.792 60.5505 145.705L52.1049 140.975C51.5837 140.681 51.3203 140.294 51.3203 139.907L51.333 136.238C51.333 136.619 51.5908 137.006 52.1247 137.299L60.5576 142.023C60.7181 142.111 60.885 142.185 61.0717 142.248C61.9014 142.528 62.9501 142.535 63.7862 142.26C63.9799 142.198 64.1595 142.117 64.32 142.023L128.543 105.819C129.057 105.538 129.314 105.151 129.327 104.77Z" fill="#BEC4CD"/>
<path d="M63.7858 142.26V145.935C62.9498 146.21 61.901 146.21 61.0713 145.929V142.248C61.901 142.529 62.9498 142.535 63.7858 142.26Z" fill="#DBDEE4"/>
<path d="M62.4315 146.295C61.7213 146.295 61.011 146.143 60.4693 145.837L52.0261 141.109C51.4645 140.796 51.1553 140.368 51.1553 139.905L51.1727 136.237C51.1734 136.15 51.2462 136.08 51.3356 136.08C51.4258 136.08 51.4985 136.151 51.4985 136.238C51.4985 136.581 51.7492 136.909 52.2056 137.159L60.6417 141.888C61.6414 142.447 63.2549 142.448 64.2396 141.888L128.461 105.683C128.899 105.441 129.154 105.107 129.161 104.766C129.164 104.68 129.236 104.611 129.324 104.611C129.325 104.611 129.326 104.611 129.327 104.611C129.416 104.612 129.488 104.683 129.487 104.77L129.469 108.446C129.469 108.898 129.166 109.318 128.617 109.631L64.3946 145.837C63.8528 146.143 63.1426 146.295 62.4315 146.295ZM51.4946 137.013L51.4811 139.906C51.4811 140.251 51.7326 140.581 52.189 140.836L60.633 145.564C61.6264 146.124 63.2399 146.123 64.2301 145.564L128.453 109.359C128.898 109.105 129.144 108.78 129.144 108.446L129.157 105.542C129.019 105.697 128.84 105.837 128.624 105.957L64.4033 142.162C63.33 142.772 61.5686 142.772 60.4787 142.162L52.0435 137.433C51.8196 137.31 51.6354 137.168 51.4946 137.013Z" fill="#383C43"/>
<path d="M128.538 103.707C129.58 104.291 129.58 105.239 128.544 105.823L64.324 142.026C63.2887 142.61 61.6064 142.61 60.5639 142.026L52.1207 137.298C51.0791 136.714 51.0736 135.769 52.1089 135.185L116.329 98.9815C117.364 98.3978 119.052 98.3948 120.095 98.9785L128.538 103.707Z" fill="white"/>
<path d="M62.4485 142.619C61.7375 142.619 61.0264 142.468 60.4839 142.163L52.0407 137.435C51.4831 137.122 51.1746 136.697 51.1738 136.238C51.173 135.782 51.4768 135.36 52.028 135.049L116.248 98.8452C117.329 98.2354 119.092 98.2331 120.178 98.8421L128.62 103.57C129.178 103.882 129.484 104.306 129.485 104.766C129.485 105.224 129.181 105.648 128.628 105.96L64.4076 142.163C63.8682 142.468 63.1588 142.619 62.4485 142.619ZM118.215 98.6981C117.562 98.6981 116.909 98.8383 116.413 99.1186L52.1925 135.322C51.7457 135.574 51.4989 135.899 51.4997 136.238C51.5005 136.58 51.7504 136.908 52.2036 137.161L60.6468 141.89C61.641 142.447 63.2553 142.448 64.2439 141.89L128.463 105.686C128.913 105.434 129.159 105.107 129.159 104.766C129.158 104.424 128.91 104.097 128.457 103.843L120.015 99.1156C119.518 98.8375 118.866 98.6981 118.215 98.6981Z" fill="#383C43"/>
<path d="M122.771 25.522C122.036 25.1038 121.017 25.1651 119.893 25.7894L64.3394 56.9088C63.8237 57.1968 63.3357 57.5806 62.8833 58.0333C61.7451 59.1647 60.8538 60.722 60.4931 62.238C60.3729 62.7252 60.3096 63.2116 60.3096 63.6781L60.4369 135.192C60.4369 136.434 60.8965 137.298 61.6178 137.71L57.0992 135.172C56.3779 134.76 55.9255 133.889 55.9183 132.648L55.791 61.1273C55.791 60.6677 55.848 60.1874 55.9682 59.7002C56.3288 58.1842 57.2123 56.6346 58.3576 55.4955C58.8037 55.0428 59.3051 54.6521 59.8216 54.3641L115.376 23.2518C116.5 22.6207 117.517 22.5659 118.253 22.9707L122.771 25.522Z" fill="#DBDEE4"/>
<path d="M62.8829 58.0333C61.7447 59.1655 60.8533 60.722 60.4927 62.238L55.9678 59.7001C56.3284 58.1842 57.2119 56.6346 58.358 55.4955L62.8829 58.0333Z" fill="#F1F2F5"/>
<path d="M61.6176 137.868C61.5892 137.868 61.5615 137.861 61.5362 137.846L57.0176 135.308C56.21 134.848 55.7624 133.903 55.7553 132.649L55.6279 61.1273C55.6279 60.6432 55.6888 60.1506 55.8091 59.6634C56.1776 58.1153 57.0635 56.5557 58.2411 55.3852C58.6991 54.9195 59.218 54.5189 59.74 54.227L115.293 23.1152C116.428 22.4784 117.508 22.3787 118.333 22.8334L122.84 25.3788C122.844 25.3811 122.848 25.3834 122.852 25.3857C122.852 25.3857 122.853 25.3857 122.854 25.3857C122.93 25.4301 122.957 25.5267 122.911 25.6017C122.865 25.6776 122.767 25.7029 122.688 25.6584L122.677 25.6523C121.968 25.2555 121.009 25.352 119.974 25.9265L64.4207 57.046C63.9343 57.3171 63.4566 57.6863 62.9994 58.1437C61.8794 59.2574 61.0023 60.801 60.6511 62.274C60.5325 62.7566 60.4716 63.2292 60.4716 63.6789L60.5989 135.192C60.5989 136.323 60.9888 137.167 61.6983 137.573H61.6991C61.6991 137.573 61.6991 137.573 61.6999 137.573C61.7774 137.617 61.8035 137.714 61.7584 137.789C61.7284 137.839 61.6738 137.868 61.6176 137.868ZM117.195 22.8688C116.664 22.8688 116.072 23.0432 115.456 23.3887L59.9029 54.5005C59.4078 54.7778 58.9142 55.1593 58.4753 55.6051C57.3537 56.7196 56.4766 58.2632 56.1262 59.7354C56.0123 60.2004 55.9538 60.6677 55.9538 61.1273L56.0811 132.647C56.0875 133.786 56.4782 134.634 57.1813 135.036L60.7065 137.015C60.4233 136.532 60.273 135.913 60.273 135.193L60.1465 63.6789C60.1465 63.2047 60.2098 62.7076 60.3347 62.2012C60.6978 60.6761 61.6066 59.0767 62.7661 57.923C63.2438 57.4451 63.746 57.0574 64.2578 56.7717L119.812 25.6531C120.473 25.2854 121.112 25.0985 121.691 25.0954L118.171 23.1071C117.881 22.9479 117.552 22.8688 117.195 22.8688Z" fill="#383C43"/>
<path d="M60.3311 71.6277C60.3026 71.6277 60.2749 71.6208 60.2496 71.6063L55.731 69.0685C55.6527 69.0248 55.6266 68.9283 55.6709 68.8524C55.716 68.7774 55.8165 68.7513 55.894 68.795L60.4125 71.3328C60.4908 71.3765 60.517 71.473 60.4719 71.5488C60.4418 71.5994 60.3864 71.6277 60.3311 71.6277Z" fill="#383C43"/>
<path d="M60.4292 132.101C60.4007 132.101 60.3731 132.095 60.347 132.08L55.8292 129.536C55.7509 129.491 55.7248 129.395 55.7707 129.319C55.815 129.243 55.9138 129.218 55.9929 129.262L60.5107 131.807C60.589 131.85 60.6151 131.947 60.5692 132.023C60.54 132.073 60.4846 132.101 60.4292 132.101Z" fill="#383C43"/>
<path d="M116.902 27.621C116.875 27.621 116.846 27.6141 116.821 27.5995L112.31 25.0617C112.232 25.0181 112.205 24.9215 112.251 24.8457C112.295 24.7691 112.396 24.7446 112.473 24.7883L116.984 27.3261C117.062 27.3697 117.088 27.4663 117.043 27.5421C117.013 27.5926 116.959 27.621 116.902 27.621Z" fill="#383C43"/>
<path d="M123.952 28.0337C123.945 25.5465 122.124 24.546 119.893 25.7954L64.3416 56.908C62.1056 58.1604 60.3015 61.1915 60.3086 63.678L60.3315 71.4577L123.975 35.8126L123.952 28.0337Z" fill="#FF9955"/>
<path d="M60.3304 71.6156C60.3027 71.6156 60.2743 71.6087 60.249 71.5949C60.1991 71.5666 60.1675 71.5145 60.1675 71.4578L60.1446 63.6782C60.1366 61.1449 61.9827 58.0464 64.2582 56.7717L119.811 25.6592C120.947 25.0219 122.025 24.9231 122.847 25.3819C123.66 25.8362 124.11 26.7776 124.114 28.0331L124.137 35.8128C124.137 35.8694 124.106 35.9215 124.056 35.9499L60.4119 71.5942C60.3866 71.6087 60.3589 71.6156 60.3304 71.6156ZM121.707 25.4141C121.178 25.4141 120.588 25.588 119.974 25.9327L64.4219 57.0452C62.2358 58.2693 60.4633 61.2453 60.4704 63.6774L60.4926 71.1843L123.811 35.7224L123.788 28.0339C123.785 26.8963 123.394 26.0514 122.684 25.6561C122.395 25.4945 122.065 25.4141 121.707 25.4141Z" fill="#383C43"/>
<path d="M60.3311 71.4569L60.4394 135.195C60.4465 137.687 62.2625 138.691 64.4985 137.439L120.05 106.326C122.281 105.077 124.09 102.043 124.083 99.5506L123.976 35.8126L60.3311 71.4569Z" fill="white"/>
<path d="M62.68 138.138C62.2663 138.138 61.8835 138.044 61.5442 137.855C60.7303 137.4 60.2795 136.456 60.2755 135.196L60.168 71.4578C60.168 71.4011 60.1996 71.349 60.2494 71.3207L123.893 35.6764C123.945 35.6473 124.005 35.6481 124.056 35.6757C124.107 35.704 124.138 35.7561 124.138 35.8128L124.246 99.55C124.253 102.087 122.408 105.188 120.131 106.463L64.5798 137.576C63.9122 137.949 63.266 138.138 62.68 138.138ZM60.4938 71.5482L60.6014 135.195C60.6046 136.337 60.9977 137.184 61.7071 137.58C62.4213 137.979 63.3831 137.881 64.4161 137.302L119.969 106.19C122.154 104.965 123.927 101.987 123.92 99.5507L123.812 36.0862L60.4938 71.5482Z" fill="#383C43"/>
<path d="M66.6735 60.512C67.4209 60.093 68.0212 60.4255 68.0244 61.2581C68.0267 62.0839 67.4296 63.0943 66.6822 63.5125C65.9355 63.9308 65.3344 63.5914 65.332 62.7656C65.3297 61.933 65.9268 60.9303 66.6735 60.512Z" fill="white"/>
<path d="M72.2944 57.3637C73.0347 56.9493 73.6421 57.2779 73.6445 58.1106C73.6468 58.9364 73.0434 59.9498 72.3031 60.365C71.5556 60.7832 70.9545 60.4439 70.9522 59.6181C70.9498 58.7855 71.5469 57.782 72.2944 57.3637Z" fill="white"/>
<path d="M77.913 54.2124C78.6556 53.7972 79.2583 54.1297 79.2607 54.9646C79.2631 55.7927 78.6643 56.8053 77.9216 57.2205C77.1726 57.6403 76.5707 57.3002 76.5684 56.4721C76.566 55.6379 77.1639 54.6322 77.913 54.2124Z" fill="white"/>
<path d="M95.9727 156.034L146.563 184.552L210.49 148.755L159.896 120.235L95.9727 156.034Z" fill="#DBDEE4"/>
<path d="M212.286 135.513C212.296 138.404 210.194 141.934 207.6 143.389L147.131 177.249L93.5537 147.027L154.023 113.162C156.618 111.712 158.718 108.181 158.709 105.291C158.703 103.855 158.181 102.845 157.336 102.367L210.913 132.589C211.758 133.068 212.286 134.077 212.286 135.513Z" fill="white"/>
<path d="M147.132 177.407C147.104 177.407 147.075 177.4 147.05 177.386L93.4723 147.164C93.4225 147.136 93.3916 147.084 93.3916 147.027C93.3916 146.971 93.4233 146.919 93.4731 146.891L153.943 113.026C156.491 111.602 158.556 108.132 158.546 105.292C158.543 103.964 158.083 102.974 157.256 102.504L157.254 102.504C157.177 102.46 157.151 102.363 157.196 102.288C157.24 102.212 157.34 102.187 157.419 102.231L210.996 132.453C211.934 132.984 212.449 134.071 212.449 135.513C212.46 138.452 210.321 142.046 207.682 143.526L147.214 177.386C147.188 177.4 147.161 177.407 147.132 177.407ZM93.8804 147.028L147.132 177.066L207.52 143.252C210.069 141.823 212.134 138.352 212.123 135.514V135.513C212.123 134.188 211.665 133.197 210.832 132.725L158.325 103.107C158.68 103.674 158.869 104.417 158.873 105.291C158.882 108.232 156.744 111.825 154.106 113.299L93.8804 147.028Z" fill="#383C43"/>
<path d="M213.448 128.371C211.939 127.518 209.857 127.637 207.561 128.926C202.998 131.48 199.294 137.698 199.309 142.782L145.731 112.556C145.717 107.476 149.416 101.258 153.979 98.7042C156.275 97.415 158.361 97.2963 159.865 98.1451L213.448 128.371Z" fill="#BEC4CD"/>
<path d="M199.31 142.94C199.281 142.94 199.253 142.933 199.228 142.919L145.65 112.692C145.6 112.664 145.569 112.612 145.569 112.556C145.554 107.421 149.291 101.145 153.898 98.5671C156.174 97.2893 158.322 97.0917 159.948 98.0079L213.531 128.235C213.608 128.279 213.634 128.375 213.589 128.451C213.544 128.527 213.445 128.551 213.366 128.508L213.358 128.504C211.837 127.648 209.808 127.847 207.643 129.062C203.123 131.592 199.458 137.747 199.473 142.782C199.473 142.838 199.441 142.891 199.391 142.919C199.365 142.933 199.338 142.94 199.31 142.94ZM145.895 112.465L199.149 142.509C199.265 137.426 202.952 131.323 207.48 128.789C209.078 127.891 210.615 127.529 211.951 127.709L159.785 98.2813C158.263 97.4234 156.23 97.6226 154.061 98.8405C149.571 101.354 145.924 107.448 145.895 112.465Z" fill="#383C43"/>
<path d="M147.145 181.236L93.5656 151.014L93.5537 147.028L147.134 177.252L147.145 181.236Z" fill="#F1F2F5"/>
<path d="M147.144 181.394C147.117 181.394 147.088 181.387 147.063 181.374L93.4822 151.151C93.4324 151.123 93.4015 151.071 93.4015 151.014L93.3896 147.029C93.3896 146.973 93.4213 146.92 93.4711 146.892C93.5225 146.864 93.5842 146.864 93.6348 146.892L147.215 177.115C147.265 177.143 147.295 177.195 147.295 177.251L147.308 181.236C147.308 181.293 147.276 181.345 147.227 181.374C147.201 181.387 147.173 181.394 147.144 181.394ZM93.7274 150.923L146.981 180.961L146.97 177.343L93.7163 147.304L93.7274 150.923Z" fill="#383C43"/>
<path d="M207.559 128.924C212.124 126.368 215.848 128.426 215.863 133.511C215.878 138.599 212.178 144.816 207.613 147.372L147.144 181.236L147.133 177.251L207.602 143.387C210.196 141.934 212.296 138.406 212.287 135.514C212.279 132.625 210.165 131.454 207.571 132.907C204.979 134.358 202.877 137.891 202.885 140.779L199.312 142.781C199.297 137.696 202.997 131.479 207.559 128.924Z" fill="#DBDEE4"/>
<path d="M147.146 181.394C147.119 181.394 147.09 181.386 147.065 181.373C147.014 181.345 146.983 181.292 146.983 181.236L146.971 177.251C146.971 177.195 147.002 177.142 147.053 177.114L207.522 143.25C210.069 141.823 212.135 138.353 212.126 135.514C212.123 134.18 211.661 133.189 210.827 132.723C209.987 132.254 208.86 132.368 207.654 133.043C205.107 134.469 203.041 137.94 203.049 140.779C203.049 140.836 203.018 140.888 202.969 140.916L199.395 142.917C199.344 142.945 199.284 142.945 199.232 142.917C199.182 142.89 199.151 142.837 199.151 142.781C199.136 137.645 202.872 131.368 207.48 128.787C209.748 127.516 211.892 127.318 213.516 128.223C215.128 129.124 216.02 131.002 216.028 133.511C216.043 138.648 212.305 144.928 207.696 147.509L147.228 181.373C147.202 181.386 147.174 181.394 147.146 181.394ZM147.297 177.342L147.308 180.963L207.533 147.235C212.052 144.705 215.717 138.549 215.702 133.512C215.695 131.12 214.861 129.339 213.353 128.498C211.833 127.65 209.805 127.85 207.643 129.061C203.207 131.546 199.594 137.524 199.48 142.505L202.724 140.688C202.76 137.766 204.881 134.231 207.491 132.77C208.802 132.036 210.043 131.921 210.99 132.45C211.928 132.973 212.448 134.061 212.453 135.514C212.46 138.454 210.322 142.047 207.685 143.523L147.297 177.342Z" fill="#383C43"/>
<path d="M147.165 173.036C147.136 173.036 147.108 173.028 147.083 173.014L127.389 161.973C127.338 161.945 127.308 161.892 127.308 161.836C127.308 161.78 127.338 161.728 127.389 161.699L129.369 160.591C129.445 160.546 129.546 160.572 129.592 160.648C129.637 160.724 129.61 160.821 129.532 160.864L127.796 161.836L147.165 172.695L195.203 145.794L149.696 120.123L101.66 147.025L120.04 157.459L122.502 156.081C122.578 156.037 122.679 156.062 122.725 156.138C122.769 156.214 122.742 156.31 122.665 156.354L120.12 157.779C120.069 157.808 120.007 157.807 119.957 157.779L101.254 147.16C101.204 147.132 101.173 147.08 101.173 147.023C101.173 146.967 101.205 146.915 101.254 146.888L149.615 119.803C149.666 119.775 149.728 119.775 149.779 119.803L195.611 145.659C195.661 145.687 195.691 145.739 195.691 145.796C195.691 145.852 195.66 145.904 195.61 145.932L147.245 173.014C147.22 173.028 147.192 173.036 147.165 173.036Z" fill="#383C43"/>
<path d="M167.79 146.409L148.96 157.023L130.008 146.409L148.837 135.795L167.79 146.409Z" fill="white"/>
<path d="M166.098 147.52C166.042 147.52 165.987 147.492 165.957 147.441C165.912 147.366 165.938 147.27 166.016 147.225L167.463 146.409L166.014 145.598C165.937 145.554 165.91 145.458 165.954 145.382C165.999 145.305 166.099 145.28 166.177 145.324L167.87 146.272C167.92 146.3 167.951 146.353 167.951 146.408C167.951 146.465 167.921 146.517 167.87 146.546L166.18 147.499C166.154 147.513 166.126 147.52 166.098 147.52Z" fill="#383C43"/>
<path d="M153.739 154.487C153.683 154.487 153.628 154.459 153.598 154.408C153.553 154.333 153.579 154.237 153.657 154.192L156.747 152.45C156.824 152.407 156.924 152.432 156.969 152.508C157.014 152.584 156.989 152.68 156.911 152.724L153.821 154.466C153.795 154.48 153.767 154.487 153.739 154.487ZM159.918 151.004C159.862 151.004 159.807 150.976 159.777 150.925C159.732 150.85 159.758 150.753 159.836 150.709L162.926 148.967C163.003 148.923 163.104 148.949 163.149 149.025C163.194 149.1 163.168 149.197 163.09 149.241L160 150.983C159.974 150.997 159.946 151.004 159.918 151.004Z" fill="#383C43"/>
<path d="M148.96 157.181C148.931 157.181 148.903 157.174 148.878 157.16L147.185 156.212C147.107 156.169 147.08 156.072 147.125 155.996C147.17 155.92 147.271 155.894 147.348 155.938L148.96 156.84L150.568 155.933C150.645 155.89 150.745 155.915 150.791 155.991C150.836 156.067 150.81 156.163 150.732 156.207L149.041 157.16C149.016 157.174 148.987 157.181 148.96 157.181Z" fill="#383C43"/>
<path d="M144.154 154.489C144.126 154.489 144.098 154.483 144.073 154.468L140.959 152.725C140.881 152.681 140.854 152.584 140.899 152.509C140.945 152.433 141.046 152.407 141.122 152.451L144.235 154.195C144.313 154.238 144.339 154.335 144.295 154.411C144.265 154.461 144.209 154.489 144.154 154.489ZM137.928 151.003C137.899 151.003 137.872 150.996 137.846 150.981L134.733 149.238C134.655 149.194 134.628 149.098 134.673 149.022C134.718 148.946 134.82 148.921 134.896 148.964L138.009 150.708C138.087 150.751 138.113 150.848 138.069 150.924C138.039 150.974 137.983 151.003 137.928 151.003Z" fill="#383C43"/>
<path d="M131.7 147.516C131.672 147.516 131.644 147.509 131.619 147.495L129.925 146.547C129.875 146.518 129.844 146.466 129.844 146.41C129.844 146.353 129.875 146.301 129.924 146.273L131.615 145.32C131.693 145.276 131.793 145.301 131.838 145.378C131.883 145.453 131.857 145.549 131.779 145.594L130.332 146.409L131.781 147.221C131.858 147.264 131.885 147.361 131.841 147.437C131.811 147.487 131.756 147.516 131.7 147.516Z" fill="#383C43"/>
<path d="M134.788 143.873C134.732 143.873 134.677 143.845 134.647 143.794C134.602 143.719 134.628 143.622 134.706 143.578L137.796 141.837C137.874 141.793 137.973 141.818 138.018 141.894C138.064 141.97 138.038 142.066 137.959 142.111L134.87 143.852C134.844 143.866 134.816 143.873 134.788 143.873ZM140.967 140.39C140.91 140.39 140.856 140.362 140.827 140.311C140.781 140.236 140.807 140.139 140.885 140.095L143.975 138.353C144.052 138.31 144.152 138.334 144.198 138.411C144.243 138.486 144.217 138.583 144.139 138.627L141.049 140.369C141.023 140.383 140.995 140.39 140.967 140.39Z" fill="#383C43"/>
<path d="M147.146 136.906C147.09 136.906 147.036 136.878 147.005 136.827C146.96 136.752 146.987 136.655 147.064 136.611L148.754 135.658C148.806 135.63 148.867 135.63 148.918 135.658L150.611 136.607C150.689 136.65 150.715 136.747 150.671 136.823C150.624 136.899 150.524 136.923 150.448 136.88L148.836 135.978L147.229 136.885C147.202 136.899 147.174 136.906 147.146 136.906Z" fill="#383C43"/>
<path d="M162.983 143.875C162.955 143.875 162.927 143.869 162.901 143.854L159.788 142.111C159.711 142.067 159.684 141.97 159.728 141.895C159.773 141.819 159.874 141.793 159.951 141.837L163.064 143.581C163.142 143.624 163.169 143.721 163.124 143.797C163.093 143.847 163.039 143.875 162.983 143.875ZM156.757 140.389C156.729 140.389 156.7 140.382 156.675 140.367L153.562 138.624C153.484 138.58 153.458 138.483 153.502 138.408C153.547 138.332 153.648 138.306 153.725 138.35L156.838 140.094C156.915 140.137 156.942 140.234 156.898 140.31C156.867 140.36 156.813 140.389 156.757 140.389Z" fill="#383C43"/>
<path d="M156.417 149.874C156.554 149.999 156.523 150.161 156.341 150.263L155.317 150.84C155.132 150.945 154.848 150.961 154.625 150.884L152.883 150.266C152.042 150.572 151.121 150.782 150.173 150.898L149.733 152.026C149.679 152.168 149.453 152.269 149.19 152.268L147.74 152.269C147.588 152.269 147.447 152.235 147.344 152.178C147.271 152.137 147.218 152.084 147.194 152.024L146.741 150.896C145.792 150.783 144.865 150.572 144.021 150.266L142.288 150.885C142.071 150.963 141.78 150.946 141.592 150.84L140.565 150.265C140.38 150.161 140.348 149.997 140.485 149.876L141.579 148.899C141.03 148.427 140.654 147.909 140.451 147.374L138.441 147.123C138.335 147.11 138.242 147.08 138.169 147.039C138.067 146.982 138.004 146.902 138.002 146.816L138 146.001C137.997 145.854 138.178 145.728 138.429 145.695L140.435 145.444C140.639 144.911 141.009 144.393 141.551 143.92L140.445 142.943C140.306 142.818 140.334 142.659 140.521 142.554L141.543 141.977C141.725 141.875 142.014 141.856 142.236 141.933L143.976 142.553C144.819 142.245 145.74 142.035 146.686 141.921L147.127 140.793C147.185 140.651 147.407 140.549 147.672 140.549L149.121 140.548C149.275 140.549 149.415 140.584 149.518 140.641C149.591 140.683 149.644 140.735 149.669 140.794L150.123 141.922C151.075 142.034 151.996 142.245 152.84 142.551L154.575 141.933C154.792 141.856 155.083 141.873 155.268 141.977L156.296 142.553C156.483 142.657 156.515 142.821 156.379 142.943L155.282 143.918C155.827 144.393 156.208 144.912 156.412 145.444L158.422 145.695C158.528 145.709 158.621 145.74 158.694 145.781C158.796 145.838 158.858 145.916 158.858 146.001L158.861 146.816C158.862 146.965 158.685 147.091 158.43 147.123L156.423 147.375C156.223 147.906 155.852 148.424 155.309 148.899L156.417 149.874ZM145.06 148.311C146.933 149.359 149.963 149.357 151.824 148.308C153.684 147.26 153.675 145.559 151.802 144.51C149.929 143.462 146.899 143.459 145.039 144.508C143.177 145.557 143.188 147.261 145.06 148.311Z" fill="#FF9955"/>
<path d="M133.539 139.606C133.511 139.606 133.482 139.599 133.457 139.584L124.15 134.338C124.072 134.294 124.046 134.197 124.091 134.122C124.136 134.046 124.235 134.021 124.314 134.064L133.539 139.265L135.919 137.933C135.995 137.889 136.095 137.914 136.142 137.99C136.186 138.066 136.159 138.162 136.082 138.206L133.621 139.584C133.594 139.599 133.567 139.606 133.539 139.606Z" fill="#383C43"/>
<path d="M165.137 141.399C165.11 141.399 165.081 141.392 165.055 141.378L162.753 140.08C162.703 140.052 162.672 140 162.672 139.943C162.672 139.887 162.703 139.834 162.753 139.807L173.937 133.544C174.013 133.5 174.114 133.525 174.16 133.602C174.204 133.678 174.178 133.774 174.1 133.818L163.16 139.944L165.219 141.104C165.297 141.148 165.323 141.245 165.278 141.32C165.248 141.371 165.193 141.399 165.137 141.399Z" fill="#383C43"/>
<path d="M150.219 133.019C150.191 133.019 150.162 133.012 150.137 132.997L147.835 131.7C147.757 131.656 147.731 131.559 147.776 131.484C147.82 131.407 147.92 131.382 147.998 131.426L150.219 132.678L161.321 126.462C161.397 126.418 161.497 126.443 161.544 126.52C161.588 126.595 161.561 126.692 161.484 126.735L150.301 132.998C150.275 133.012 150.247 133.019 150.219 133.019Z" fill="#383C43"/>
<path d="M126.116 151.317L123.677 149.942L115.009 154.797" fill="white"/>
<path d="M115.01 154.955C114.953 154.955 114.899 154.927 114.868 154.876C114.824 154.8 114.851 154.704 114.928 154.66L123.597 149.806C123.648 149.778 123.71 149.778 123.76 149.806L126.199 151.18C126.276 151.225 126.302 151.321 126.257 151.396C126.212 151.472 126.113 151.497 126.034 151.454L123.678 150.125L115.091 154.935C115.066 154.948 115.038 154.955 115.01 154.955Z" fill="#383C43"/>
<path d="M135.394 166.433C135.337 166.433 135.283 166.405 135.252 166.354C135.208 166.278 135.234 166.182 135.312 166.138L141.632 162.599C141.708 162.555 141.808 162.581 141.855 162.657C141.9 162.732 141.873 162.83 141.795 162.873L135.475 166.412C135.449 166.426 135.421 166.433 135.394 166.433Z" fill="#383C43"/>
<path d="M161.617 164.936C161.589 164.936 161.559 164.929 161.533 164.914L155.716 161.555C155.666 161.527 155.636 161.475 155.637 161.419C155.637 161.362 155.668 161.311 155.718 161.282L158.814 159.549C158.891 159.504 158.99 159.53 159.037 159.606C159.081 159.682 159.054 159.779 158.977 159.822L156.122 161.422L161.7 164.642C161.778 164.687 161.803 164.784 161.757 164.859C161.726 164.909 161.672 164.936 161.617 164.936Z" fill="#383C43"/>
<path d="M177.423 156.068C177.396 156.068 177.367 156.061 177.341 156.047L169.546 151.653C169.469 151.608 169.443 151.512 169.488 151.437C169.532 151.36 169.632 151.336 169.71 151.379L177.506 155.773C177.583 155.817 177.609 155.914 177.564 155.989C177.534 156.04 177.479 156.068 177.423 156.068Z" fill="#383C43"/>
<path d="M109.92 85.0094L108.457 87.4675L106.984 86.654L109.92 85.0094Z" fill="#383C43"/>
<path d="M108.457 87.6253C108.429 87.6253 108.402 87.6191 108.376 87.6046L106.904 86.7911C106.853 86.7635 106.821 86.7106 106.821 86.6547C106.821 86.598 106.852 86.5452 106.903 86.5169L109.839 84.8722C109.901 84.8354 109.983 84.8454 110.035 84.8975C110.087 84.948 110.098 85.0262 110.061 85.0882L108.598 87.5464C108.568 87.5969 108.513 87.6253 108.457 87.6253ZM107.312 86.6532L108.397 87.2522L109.475 85.4406L107.312 86.6532Z" fill="#383C43"/>
<path d="M89.7863 89.6485C89.7309 89.6485 89.6756 89.6201 89.6455 89.5688C89.6012 89.4937 89.6273 89.3972 89.7056 89.3535L108.334 78.9656C108.386 78.9373 108.447 78.9373 108.497 78.9656C108.548 78.9932 108.579 79.0453 108.579 79.1019L108.615 86.9682C108.616 87.0555 108.543 87.1267 108.453 87.1267C108.364 87.1267 108.29 87.057 108.289 86.9697L108.255 79.3746L89.8686 89.6278C89.8417 89.6416 89.8148 89.6485 89.7863 89.6485Z" fill="#383C43"/>
<path d="M74.5979 106.108C74.5086 106.108 74.4358 106.037 74.435 105.95L74.3994 98.0439C74.3994 97.9872 74.4295 97.9351 74.4793 97.9067L83.3599 92.8327C83.4382 92.7882 83.5378 92.8127 83.5837 92.8886C83.6288 92.9636 83.6035 93.0602 83.5252 93.1046L74.7253 98.1327L74.7617 105.949C74.7617 106.036 74.6897 106.108 74.5987 106.108H74.5979Z" fill="#383C43"/>
<path d="M92.0369 108.42C91.9476 108.42 91.874 108.349 91.874 108.262V93.807C91.874 93.7197 91.9476 93.6492 92.0369 93.6492C92.1271 93.6492 92.1999 93.7197 92.1999 93.807V108.262C92.1999 108.349 92.1271 108.42 92.0369 108.42Z" fill="#383C43"/>
<path d="M92.0369 86.4961C91.9476 86.4961 91.874 86.4256 91.874 86.3383V72.2857C91.874 72.1984 91.9476 72.1279 92.0369 72.1279C92.1271 72.1279 92.1999 72.1984 92.1999 72.2857V86.3383C92.1999 86.4256 92.1271 86.4961 92.0369 86.4961Z" fill="#383C43"/>
<path d="M92.0004 82.5291L100.592 83.3632L92.0329 93.8071L83.4434 92.9683L92.0004 82.5291Z" fill="#383C43"/>
<path d="M103.289 92.2927L103.31 99.3814L114.167 93.3276L114.146 86.2389L103.289 92.2927Z" fill="#FF9955"/>
<path d="M103.309 99.5392C103.281 99.5392 103.253 99.5323 103.227 99.5185C103.177 99.4902 103.146 99.4381 103.146 99.3814L103.125 92.2927C103.125 92.2368 103.156 92.1839 103.206 92.1556L114.064 86.1017C114.115 86.0742 114.176 86.0742 114.226 86.1017C114.277 86.1301 114.308 86.1822 114.308 86.2389L114.329 93.3268C114.329 93.3835 114.298 93.4356 114.247 93.4647L103.391 99.5185C103.365 99.5323 103.337 99.5392 103.309 99.5392ZM103.451 92.3838L103.471 99.1087L114.003 93.2357L113.983 86.5116L103.451 92.3838Z" fill="#383C43"/>
<path d="M86.5977 64.9274L86.619 75.5957L97.4761 69.5419L97.4547 58.8735L86.5977 64.9274Z" fill="#BEC4CD"/>
<path d="M86.619 75.7544C86.5914 75.7544 86.5629 75.7475 86.5376 75.7329C86.4878 75.7046 86.4561 75.6533 86.4561 75.5966L86.4355 64.9283C86.4355 64.8716 86.4672 64.8187 86.517 64.7904L97.3741 58.7373C97.4247 58.709 97.4864 58.709 97.537 58.7373C97.5877 58.7657 97.6185 58.817 97.6185 58.8737L97.639 69.542C97.639 69.5987 97.6082 69.6508 97.5576 69.6791L86.7005 75.7329C86.6752 75.7475 86.6475 75.7544 86.619 75.7544ZM86.7614 65.0194L86.7812 75.3231L97.314 69.4508L97.2934 59.1471L86.7614 65.0194Z" fill="#383C43"/>
<path d="M87.2246 113.845L87.246 120.933L98.1031 114.879L98.0817 107.791L87.2246 113.845Z" fill="#BEC4CD"/>
<path d="M87.2448 121.091C87.2171 121.091 87.1887 121.084 87.1634 121.07C87.1128 121.041 87.0819 120.99 87.0819 120.933L87.0605 113.845C87.0605 113.788 87.0922 113.736 87.142 113.707L97.9999 107.654C98.0505 107.626 98.1114 107.626 98.1628 107.654C98.2126 107.682 98.2443 107.734 98.2443 107.79L98.2649 114.879C98.2649 114.935 98.234 114.987 98.1834 115.016L87.3263 121.07C87.301 121.084 87.2725 121.091 87.2448 121.091ZM87.3864 113.936L87.407 120.661L97.939 114.788L97.9192 108.063L87.3864 113.936Z" fill="#383C43"/>
<path d="M70.1162 110.859L70.1368 117.948L80.9939 111.894L80.9725 104.806L70.1162 110.859Z" fill="#FF9955"/>
<path d="M70.1356 118.106C70.108 118.106 70.0795 118.099 70.0542 118.085C70.0036 118.057 69.9727 118.005 69.9727 117.948L69.9521 110.86C69.9521 110.803 69.983 110.751 70.0336 110.722L80.8907 104.668C80.9413 104.641 81.003 104.641 81.0536 104.668C81.1043 104.697 81.1351 104.749 81.1351 104.806L81.1557 111.894C81.1557 111.951 81.124 112.003 81.0742 112.031L70.2171 118.085C70.1918 118.099 70.1633 118.106 70.1356 118.106ZM70.278 110.95L70.2978 117.675L80.8298 111.803L80.81 105.078L70.278 110.95Z" fill="#383C43"/>
<path d="M76.0492 104.184L74.586 106.643L73.1133 105.828L76.0492 104.184Z" fill="#383C43"/>
<path d="M74.5849 106.8C74.5572 106.8 74.5295 106.793 74.5034 106.78L73.0307 105.966C72.9809 105.938 72.9492 105.886 72.9492 105.829C72.9492 105.772 72.9801 105.72 73.0307 105.692L75.9658 104.047C76.0291 104.01 76.1106 104.021 76.1628 104.072C76.215 104.123 76.226 104.201 76.1889 104.263L74.7256 106.721C74.6956 106.772 74.6402 106.8 74.5849 106.8ZM73.4388 105.827L74.5248 106.427L75.6028 104.616L73.4388 105.827Z" fill="#383C43"/>
<path d="M93.5053 107.173L92.042 109.632L90.5693 108.818L93.5053 107.173Z" fill="#383C43"/>
<path d="M92.0409 109.79C92.0132 109.79 91.9856 109.783 91.9602 109.769L90.4875 108.956C90.4369 108.927 90.4053 108.875 90.4053 108.819C90.4053 108.762 90.4361 108.71 90.4867 108.681L93.4227 107.037C93.4859 107 93.5666 107.01 93.6188 107.061C93.671 107.112 93.6821 107.19 93.6449 107.252L92.1817 109.711C92.1516 109.762 92.0971 109.79 92.0409 109.79ZM90.8956 108.817L91.9808 109.417L93.0588 107.605L90.8956 108.817Z" fill="#383C43"/>
<path d="M63.5292 77.4756C63.3053 77.4756 63.087 77.3638 62.966 77.1623C62.7849 76.8613 62.8885 76.4745 63.1994 76.2975L76.3739 68.8189C76.6831 68.6419 77.0833 68.7438 77.266 69.0449C77.4472 69.3467 77.3427 69.7335 77.0319 69.9105L63.8574 77.3891C63.7546 77.4473 63.6415 77.4756 63.5292 77.4756Z" fill="#DBDEE4"/>
<path d="M63.5292 82.461C63.3061 82.461 63.0886 82.3499 62.9676 82.15C62.7849 81.8497 62.8869 81.4621 63.197 81.2844L70.5573 77.0697C70.8682 76.8928 71.2676 76.9924 71.4503 77.2934C71.633 77.5937 71.5302 77.9813 71.2201 78.159L63.8606 82.3736C63.7562 82.4334 63.6415 82.461 63.5292 82.461Z" fill="#DBDEE4"/>
<path d="M107.287 52.9691C107.063 52.9691 106.845 52.8573 106.724 52.6566C106.543 52.3548 106.647 51.9679 106.957 51.791L120.132 44.3124C120.442 44.1362 120.841 44.2381 121.024 44.5391C121.205 44.8402 121.1 45.2278 120.79 45.4039L107.615 52.8826C107.512 52.9416 107.399 52.9691 107.287 52.9691Z" fill="#DBDEE4"/>
<path d="M113.101 54.666C112.877 54.666 112.66 54.5549 112.539 54.355C112.356 54.0547 112.459 53.6671 112.77 53.4894L120.13 49.2755C120.439 49.097 120.839 49.1982 121.022 49.4984C121.205 49.7987 121.103 50.1871 120.792 50.364L113.432 54.5787C113.327 54.6384 113.213 54.666 113.101 54.666Z" fill="#DBDEE4"/>
<path d="M111.309 180.336C113.021 181.295 113.124 182.913 111.404 183.862C110.564 184.324 109.471 184.554 108.378 184.553C107.272 184.554 106.157 184.317 105.31 183.842L79.893 169.707C79.5497 169.516 79.3006 169.278 79.1701 169.017L77.1564 165.041C77.0615 164.858 77.3636 164.688 77.6903 164.74L84.7715 165.859C85.2365 165.931 85.6596 166.071 86.0029 166.263L111.309 180.336Z" fill="#DBDEE4"/>
<path d="M84.3441 162.223L81.0657 167.701L78.1005 163.712L77.2416 162.553C76.9671 162.18 77.2661 161.666 77.7375 161.701L79.2529 161.819L84.3441 162.223Z" fill="white"/>
<path d="M81.0664 167.859C81.0142 167.859 80.9651 167.835 80.9335 167.794L77.1094 162.646C76.9456 162.422 76.9298 162.135 77.069 161.896C77.2074 161.659 77.4479 161.518 77.7508 161.544L84.3582 162.065C84.4136 162.07 84.4626 162.101 84.4887 162.15C84.5148 162.198 84.514 162.255 84.4856 162.302L81.2072 167.78C81.1795 167.826 81.1296 167.856 81.0743 167.859C81.0711 167.859 81.0687 167.859 81.0664 167.859ZM77.6923 161.858C77.5491 161.858 77.4241 161.929 77.3522 162.052C77.2746 162.184 77.2834 162.338 77.3751 162.462L81.0513 167.411L84.0743 162.36L77.7247 161.859C77.7136 161.858 77.7026 161.858 77.6923 161.858Z" fill="#383C43"/>
<path d="M109.675 176.21C109.234 175.963 108.625 175.995 107.951 176.374C106.611 177.124 105.527 178.947 105.532 180.436C105.535 181.18 105.804 181.704 106.242 181.949L81.4985 168.12C81.0604 167.875 80.7914 167.351 80.7891 166.606C80.7859 165.117 81.8671 163.297 83.2077 162.545C83.8816 162.168 84.4906 162.133 84.932 162.38L109.675 176.21Z" fill="#DBDEE4"/>
<path d="M106.243 182.107C106.215 182.107 106.187 182.1 106.161 182.087L106.159 182.085L81.4179 168.256C80.9101 167.974 80.6293 167.387 80.627 166.607C80.6238 165.066 81.7453 163.183 83.1271 162.408C83.8318 162.014 84.5017 161.956 85.0142 162.244L109.751 176.07C109.753 176.071 109.755 176.072 109.757 176.073C109.835 176.117 109.861 176.214 109.817 176.289C109.77 176.365 109.67 176.389 109.594 176.347L109.589 176.344C109.18 176.116 108.627 176.176 108.034 176.511C106.739 177.235 105.691 178.995 105.696 180.435C105.699 181.098 105.921 181.586 106.323 181.812L106.324 181.812C106.402 181.856 106.429 181.953 106.384 182.028C106.354 182.079 106.299 182.107 106.243 182.107ZM84.2953 162.38C83.9908 162.38 83.6483 162.481 83.29 162.681C81.9984 163.406 80.9496 165.167 80.9528 166.605C80.9552 167.269 81.1774 167.757 81.5808 167.983L105.544 181.377C105.431 181.111 105.371 180.794 105.37 180.437C105.364 178.895 106.486 177.012 107.87 176.237C108.193 176.056 108.51 175.945 108.807 175.907L84.8513 162.517C84.6876 162.425 84.5001 162.38 84.2953 162.38Z" fill="#383C43"/>
<path d="M104.483 173.308C104.042 173.068 103.436 173.104 102.766 173.477C101.425 174.23 100.346 176.052 100.346 177.539C100.351 178.27 100.608 178.79 101.035 179.036L98.3311 177.526C97.8945 177.281 97.624 176.76 97.624 176.011C97.6193 174.524 98.7028 172.703 100.043 171.95C100.713 171.576 101.324 171.54 101.765 171.79L104.483 173.308Z" fill="#383C43"/>
<path d="M101.035 179.193C101.008 179.193 100.98 179.186 100.954 179.173L98.2505 177.663C97.7419 177.377 97.4619 176.791 97.4619 176.011C97.4564 174.474 98.5779 172.59 99.9621 171.814C100.668 171.421 101.337 171.364 101.848 171.653L104.565 173.171C104.643 173.215 104.67 173.311 104.625 173.386C104.58 173.462 104.48 173.488 104.404 173.446C103.995 173.224 103.442 173.283 102.848 173.614C101.558 174.338 100.509 176.099 100.509 177.54C100.514 178.194 100.731 178.677 101.118 178.899C101.196 178.944 101.221 179.04 101.176 179.115C101.146 179.165 101.092 179.193 101.035 179.193ZM101.126 171.787C100.823 171.787 100.482 171.888 100.125 172.087C98.831 172.813 97.7823 174.573 97.7878 176.011C97.7878 176.673 98.0101 177.163 98.4134 177.389L100.358 178.475C100.245 178.211 100.187 177.896 100.184 177.54C100.184 175.998 101.306 174.115 102.685 173.341C103.01 173.159 103.327 173.049 103.626 173.012L101.684 171.927C101.519 171.833 101.331 171.787 101.126 171.787Z" fill="#383C43"/>
<path d="M107.951 176.374C109.292 175.624 110.38 176.229 110.384 177.72C110.389 179.215 109.308 181.035 107.967 181.786C106.625 182.537 105.537 181.932 105.533 180.437C105.528 178.946 106.61 177.126 107.951 176.374Z" fill="#383C43"/>
<path d="M106.878 182.267C106.619 182.267 106.379 182.208 106.165 182.089C105.654 181.804 105.373 181.217 105.37 180.437C105.365 178.896 106.486 177.012 107.869 176.237C108.57 175.844 109.24 175.784 109.753 176.071C110.263 176.355 110.544 176.941 110.548 177.72C110.552 179.262 109.431 181.148 108.048 181.922C107.639 182.152 107.241 182.267 106.878 182.267ZM108.032 176.511C106.739 177.235 105.691 178.996 105.696 180.437C105.698 181.099 105.922 181.589 106.327 181.815C106.736 182.043 107.289 181.983 107.885 181.648C109.178 180.925 110.226 179.163 110.222 177.72C110.219 177.059 109.995 176.571 109.591 176.345C109.183 176.117 108.629 176.175 108.032 176.511Z" fill="#383C43"/>
<path d="M79.2584 161.938C79.2584 162.723 78.7847 163.4 78.1005 163.712L77.2416 162.553C76.9671 162.18 77.2661 161.666 77.7375 161.701L79.2529 161.819C79.2584 161.857 79.2584 161.898 79.2584 161.938Z" fill="#383C43"/>
<path d="M78.1012 163.87C78.0506 163.87 78.0007 163.846 77.9691 163.804L77.1094 162.646C76.9456 162.421 76.9298 162.135 77.069 161.896C77.2074 161.659 77.4479 161.518 77.7508 161.544L79.267 161.662C79.3422 161.668 79.4038 161.724 79.4149 161.796C79.422 161.842 79.4228 161.89 79.4228 161.938C79.4228 162.756 78.9309 163.508 78.1708 163.855C78.1478 163.865 78.1249 163.87 78.1012 163.87ZM77.6923 161.858C77.5491 161.858 77.4241 161.929 77.3522 162.052C77.2746 162.184 77.2834 162.338 77.3751 162.462L78.1518 163.509C78.7213 163.197 79.0859 162.608 79.0962 161.966L77.7247 161.859C77.7136 161.858 77.7026 161.858 77.6923 161.858Z" fill="#383C43"/>
<path d="M112.096 178.45C111.757 178.254 111.283 178.283 110.759 178.575C109.719 179.161 108.88 180.568 108.885 181.724C108.885 182.301 109.094 182.704 109.434 182.896L106.95 181.498C106.611 181.308 106.401 180.901 106.401 180.327C106.397 179.168 107.235 177.76 108.275 177.179C108.799 176.886 109.273 176.857 109.613 177.049L112.096 178.45Z" fill="white"/>
<path d="M109.435 183.053C109.407 183.053 109.379 183.046 109.354 183.032L106.869 181.635C106.463 181.406 106.238 180.941 106.238 180.327C106.235 179.121 107.111 177.648 108.194 177.042C108.755 176.728 109.288 176.682 109.695 176.912L112.164 178.305C112.169 178.308 112.175 178.311 112.181 178.314C112.257 178.358 112.283 178.454 112.238 178.529C112.192 178.605 112.093 178.63 112.015 178.586L112.002 178.578C111.703 178.414 111.292 178.461 110.842 178.712C109.849 179.272 109.045 180.623 109.048 181.724C109.048 182.221 109.215 182.589 109.517 182.758C109.594 182.802 109.621 182.899 109.575 182.974C109.546 183.025 109.491 183.053 109.435 183.053ZM109.124 177.085C108.893 177.085 108.632 177.162 108.357 177.316C107.365 177.87 106.561 179.222 106.565 180.326C106.565 180.824 106.731 181.192 107.033 181.362L108.822 182.368C108.757 182.179 108.723 181.963 108.723 181.724C108.719 180.522 109.595 179.049 110.678 178.439C110.899 178.316 111.114 178.234 111.32 178.194L109.532 177.186C109.412 177.117 109.275 177.085 109.124 177.085Z" fill="#383C43"/>
<path d="M110.76 178.576C111.798 177.994 112.642 178.46 112.645 179.618C112.649 180.776 111.811 182.187 110.772 182.768C109.731 183.352 108.887 182.883 108.884 181.724C108.881 180.567 109.718 179.159 110.76 178.576Z" fill="#FF9955"/>
<path d="M109.927 183.178C109.72 183.178 109.526 183.131 109.355 183.035C108.948 182.808 108.723 182.343 108.721 181.725C108.718 180.52 109.596 179.045 110.678 178.439C111.234 178.127 111.766 178.081 112.175 178.31C112.581 178.536 112.806 179.001 112.808 179.618C112.811 180.824 111.935 182.3 110.854 182.906C110.53 183.087 110.215 183.178 109.927 183.178ZM110.841 178.712C109.849 179.269 109.043 180.62 109.047 181.724C109.048 182.224 109.215 182.592 109.517 182.761C109.823 182.932 110.239 182.885 110.691 182.632C111.682 182.076 112.486 180.725 112.482 179.619C112.481 179.119 112.314 178.752 112.013 178.584C111.708 178.414 111.294 178.46 110.841 178.712Z" fill="#383C43"/>
<g opacity="0.5">
<path d="M178.81 40.7824C182.421 39.3208 184.586 36.3625 183.646 34.1747C182.704 31.987 179.014 31.3979 175.402 32.8603C171.79 34.3218 169.626 37.2809 170.567 39.4687C171.507 41.6564 175.198 42.2447 178.81 40.7824Z" fill="#BEC4CD"/>
</g>
<g opacity="0.1">
<path d="M195.853 84.7971C201.546 87.9853 201.576 93.1566 195.918 96.3463C190.259 99.5368 181.058 99.5353 175.366 96.3471C169.671 93.1574 169.636 87.9853 175.294 84.7956C180.952 81.6059 190.158 81.6074 195.853 84.7971Z" fill="#010101"/>
</g>
<path d="M171.128 88.6066C171.124 90.7124 172.556 92.8174 175.422 94.4237C177.764 95.7382 180.693 96.5081 183.73 96.7409C184.974 96.8367 186.239 96.8413 187.487 96.754C190.593 96.5418 193.595 95.7673 195.976 94.4237C198.785 92.8381 200.191 90.7668 200.2 88.6901L200.209 83.4222C200.205 85.4989 198.798 87.571 195.984 89.1558C193.604 90.4956 190.597 91.2739 187.487 91.4861C186.239 91.5734 184.978 91.5696 183.73 91.4692C180.697 91.2363 177.773 90.4627 175.435 89.1558C172.57 87.5541 171.137 85.4529 171.137 83.3479L171.128 88.6066Z" fill="#BEC4CD"/>
<path d="M183.729 91.4691V96.7408C184.973 96.8366 186.238 96.8404 187.486 96.7531V91.486C186.238 91.5733 184.977 91.5695 183.729 91.4691Z" fill="#DBDEE4"/>
<path d="M185.712 96.9676C181.961 96.9676 178.205 96.1656 175.341 94.5608C172.514 92.9767 170.96 90.8617 170.966 88.605L170.975 83.3371C170.975 83.3371 170.975 83.3371 170.975 83.3364C170.975 83.2498 171.049 83.1793 171.138 83.1793C171.228 83.1793 171.301 83.2498 171.301 83.3379V83.3486C171.3 85.4835 172.795 87.4966 175.514 89.0194C181.153 92.177 190.3 92.1777 195.901 89.0194C198.568 87.5165 200.04 85.5279 200.046 83.4199C200.046 83.3325 200.119 83.2621 200.209 83.2621C200.299 83.2621 200.372 83.3333 200.372 83.4206L200.362 88.6885C200.355 90.9138 198.826 92.9989 196.056 94.5608C193.21 96.1656 189.463 96.9676 185.712 96.9676ZM171.298 85.1066L171.292 88.6058C171.285 90.7445 172.781 92.7622 175.503 94.2873C181.144 97.4456 190.289 97.4456 195.892 94.2873C198.558 92.7844 200.029 90.7958 200.036 88.6878L200.042 85.1748C199.454 86.7275 198.092 88.1508 196.066 89.2929C190.373 92.501 181.081 92.5017 175.351 89.2929C173.278 88.1316 171.889 86.6854 171.298 85.1066Z" fill="#383C43"/>
<path d="M195.919 77.6067C201.611 80.7956 201.641 85.967 195.983 89.1567C190.325 92.3464 181.124 92.3449 175.431 89.1567C169.736 85.967 169.701 80.7956 175.359 77.6059C181.018 74.4155 190.223 74.417 195.919 77.6067Z" fill="#383C43"/>
<path d="M185.721 91.6998C181.969 91.6998 178.215 90.8978 175.349 89.293C172.531 87.715 170.978 85.6077 170.975 83.3587C170.971 81.1265 172.5 79.0345 175.277 77.4687C180.972 74.2599 190.267 74.2591 196 77.4703C198.815 79.0467 200.367 81.1525 200.37 83.4C200.373 85.633 198.845 87.7265 196.065 89.293C193.219 90.8978 189.472 91.6998 185.721 91.6998ZM185.623 75.3737C181.93 75.3737 178.242 76.1627 175.441 77.7422C172.768 79.249 171.297 81.2437 171.3 83.3579C171.304 85.4897 172.799 87.5005 175.512 89.0195C181.152 92.1778 190.299 92.1786 195.901 89.0195C198.576 87.512 200.048 85.5165 200.044 83.4008C200.041 81.2705 198.547 79.262 195.837 77.7437C193.016 76.1635 189.316 75.3737 185.623 75.3737Z" fill="#383C43"/>
<path d="M185.721 91.0655C189.517 91.0655 193.073 90.2398 195.734 88.7392C198.302 87.2922 199.714 85.3963 199.711 83.4008C199.708 81.3915 198.272 79.4819 195.67 78.0241C192.99 76.5227 189.421 75.6954 185.623 75.6954C181.827 75.6954 178.27 76.522 175.608 78.0218C173.043 79.4688 171.632 81.3632 171.635 83.3571C171.638 85.3679 173.074 87.2791 175.68 88.7392C178.359 90.239 181.926 91.0655 185.721 91.0655Z" fill="white"/>
<path d="M185.722 91.2241C181.898 91.2241 178.303 90.3899 175.599 88.8755C172.941 87.3871 171.475 85.4276 171.473 83.3579C171.469 81.3049 172.91 79.3623 175.527 77.8854C178.214 76.3718 181.799 75.5376 185.623 75.5376C189.45 75.5376 193.048 76.3726 195.753 77.8877C198.408 79.3746 199.871 81.3325 199.874 83.4008C199.877 85.4544 198.436 87.3994 195.817 88.8762C193.13 90.3899 189.546 91.2241 185.722 91.2241ZM185.624 75.854C181.856 75.854 178.328 76.6728 175.692 78.1589C173.178 79.576 171.795 81.4221 171.799 83.3571C171.801 85.3097 173.209 87.1719 175.763 88.602C178.418 90.0889 181.955 90.9077 185.722 90.9077C189.489 90.9077 193.016 90.0889 195.652 88.6028C198.168 87.1849 199.552 85.3373 199.548 83.4015C199.545 81.4505 198.14 79.5891 195.59 78.1612C192.933 76.6728 189.394 75.854 185.624 75.854Z" fill="#383C43"/>
<path d="M185.702 87.7264C187.847 87.7264 189.859 87.2591 191.364 86.4104C192.816 85.5923 193.614 84.5199 193.612 83.3915C193.611 82.2555 192.799 81.1754 191.327 80.3512C189.812 79.5017 187.794 79.0344 185.645 79.0344C183.499 79.0344 181.488 79.5017 179.982 80.3497C178.532 81.1678 177.734 82.2394 177.735 83.367C177.737 84.5046 178.549 85.5846 180.023 86.4104C181.538 87.2591 183.555 87.7264 185.702 87.7264Z" fill="white"/>
<path d="M185.7 87.8842C183.525 87.8842 181.48 87.41 179.941 86.5475C178.414 85.6934 177.573 84.5643 177.571 83.3677C177.57 82.1812 178.397 81.0613 179.899 80.2133C181.429 79.3507 183.469 78.8766 185.645 78.8766C187.822 78.8766 189.868 79.3515 191.409 80.2148C192.933 81.0682 193.773 82.1965 193.774 83.3915C193.777 84.5788 192.949 85.6995 191.445 86.5475C189.916 87.41 187.876 87.8842 185.7 87.8842ZM185.645 79.1922C183.526 79.1922 181.543 79.6518 180.064 80.4867C178.665 81.275 177.896 82.2984 177.897 83.367C177.899 84.4455 178.683 85.4781 180.104 86.274C181.595 87.1082 183.582 87.5686 185.7 87.5686C187.819 87.5686 189.801 87.109 191.281 86.274C192.68 85.485 193.451 84.4616 193.448 83.3922C193.448 82.3145 192.665 81.2834 191.246 80.4883C189.754 79.6526 187.765 79.1922 185.645 79.1922Z" fill="#383C43"/>
<path d="M177.731 83.3687C177.731 83.7103 177.81 84.0512 177.951 84.3775C178.287 83.6268 178.974 82.9443 179.983 82.3759C181.484 81.5264 183.5 81.0561 185.642 81.0561C187.792 81.0561 189.809 81.5264 191.326 82.3759C192.357 82.952 193.061 83.6575 193.397 84.4082C193.538 84.0818 193.616 83.741 193.616 83.3917C193.609 82.2541 192.803 81.1779 191.326 80.3506C189.809 79.5018 187.792 79.0315 185.642 79.0315C183.5 79.0315 181.484 79.5011 179.983 80.3506C178.529 81.1694 177.731 82.2388 177.731 83.3687Z" fill="#383C43"/>
<path d="M193.397 84.5659C193.332 84.5659 193.274 84.5284 193.248 84.4709C192.919 83.7386 192.227 83.0622 191.244 82.5122C189.749 81.6757 187.759 81.2146 185.642 81.2146C183.525 81.2146 181.544 81.675 180.065 82.5122C179.086 83.0638 178.426 83.7126 178.1 84.4403C178.074 84.4985 178.015 84.5361 177.95 84.5361C177.885 84.5353 177.825 84.497 177.8 84.4388C177.646 84.0841 177.568 83.7248 177.568 83.3694C177.568 82.1821 178.396 81.0614 179.9 80.2142C181.429 79.3494 183.468 78.8737 185.642 78.8737C187.816 78.8737 189.863 79.3494 191.406 80.2142C192.928 81.0652 193.771 82.1936 193.778 83.3909C193.778 83.7501 193.701 84.1124 193.547 84.4686C193.522 84.5276 193.449 84.5751 193.397 84.5659ZM185.642 80.8982C187.816 80.8982 189.863 81.3739 191.407 82.2388C192.3 82.7374 192.97 83.3426 193.368 84.0044C193.424 83.7999 193.453 83.5946 193.453 83.3916C193.446 82.3123 192.662 81.2805 191.244 80.4877C189.749 79.6504 187.759 79.1893 185.642 79.1893C183.525 79.1893 181.544 79.6504 180.065 80.4877C178.665 81.2759 177.894 82.2993 177.894 83.3694C177.894 83.5693 177.923 83.7716 177.979 83.9738C178.369 83.3219 179.013 82.7397 179.9 82.2388C181.429 81.3747 183.468 80.8982 185.642 80.8982Z" fill="#383C43"/>
<path d="M185.672 85.5403C189.073 85.5403 191.831 82.8654 191.831 79.5654C191.831 76.2654 189.073 73.5905 185.672 73.5905C182.271 73.5905 179.513 76.2654 179.513 79.5654C179.513 82.8654 182.271 85.5403 185.672 85.5403Z" fill="#FF9955"/>
<path d="M195.446 71.6853L195.433 75.9597C195.428 77.3569 194.483 78.7495 192.593 79.8151C191.184 80.6094 189.456 81.1073 187.637 81.3126C186.336 81.4612 184.996 81.4612 183.695 81.3042C181.894 81.0989 180.171 80.601 178.771 79.8151C176.844 78.7365 175.881 77.3179 175.886 75.903L175.899 71.6371C175.899 73.0565 176.863 74.4667 178.784 75.5407C180.184 76.3266 181.898 76.8245 183.695 77.0337C184.991 77.1869 186.336 77.1907 187.637 77.0429C189.46 76.8376 191.193 76.3351 192.601 75.5407C194.492 74.4752 195.441 73.0826 195.446 71.6853Z" fill="#DBDEE4"/>
<path d="M187.637 77.0428V81.3125C186.336 81.4611 184.995 81.4611 183.694 81.3041V77.0336C184.991 77.1868 186.336 77.1906 187.637 77.0428Z" fill="#F1F2F5"/>
<path d="M185.691 81.576C183.16 81.576 180.626 81.0344 178.692 79.9513C176.773 78.8766 175.718 77.4388 175.724 75.9021L175.736 71.6308C175.736 71.5435 175.809 71.473 175.898 71.473C175.898 71.473 175.898 71.473 175.899 71.473C175.989 71.473 176.061 71.5443 176.061 71.6308C176.058 73.0503 177.054 74.3908 178.867 75.4058C182.643 77.5207 188.77 77.5215 192.522 75.4058C194.297 74.4053 195.277 73.0847 195.282 71.6867C195.282 71.5994 195.355 71.5289 195.445 71.5289C195.534 71.5297 195.608 71.6002 195.608 71.6875L195.595 75.9596C195.59 77.474 194.553 78.8919 192.673 79.9513C190.752 81.0337 188.223 81.576 185.691 81.576ZM176.057 73.0817L176.05 75.9029C176.045 77.3216 177.041 78.6621 178.855 79.6778C182.632 81.7928 188.757 81.7936 192.51 79.6778C194.285 78.6774 195.265 77.356 195.269 75.9588L195.277 73.1353C194.833 74.0928 193.951 74.9668 192.686 75.6792C188.844 77.8455 182.571 77.8455 178.704 75.6792C177.407 74.9523 176.504 74.0599 176.057 73.0817Z" fill="#383C43"/>
<path d="M192.56 67.7786C196.389 69.9227 196.409 73.3981 192.605 75.5429C188.8 77.6878 182.615 77.6878 178.786 75.5429C174.957 73.3981 174.934 69.9211 178.738 67.7771C182.543 65.6322 188.73 65.6337 192.56 67.7786Z" fill="white"/>
<path d="M185.704 77.304C183.173 77.304 180.638 76.7624 178.704 75.6792C176.792 74.6091 175.739 73.1759 175.736 71.6446C175.734 70.1249 176.771 68.7024 178.656 67.6391C182.499 65.4744 188.772 65.4744 192.641 67.6407C194.552 68.7116 195.605 70.1432 195.608 71.6737C195.609 73.1935 194.572 74.616 192.687 75.6792C190.766 76.7624 188.236 77.304 185.704 77.304ZM185.637 66.3269C183.165 66.3269 180.695 66.8555 178.82 67.9134C177.04 68.9168 176.06 70.2421 176.062 71.6446C176.065 73.0579 177.06 74.3939 178.868 75.4058C182.644 77.5207 188.77 77.5215 192.522 75.4058C194.303 74.4015 195.284 73.0763 195.282 71.6745C195.279 70.2612 194.284 68.926 192.478 67.9149C190.588 66.8563 188.11 66.3269 185.637 66.3269Z" fill="#383C43"/>
<g opacity="0.5">
<path d="M207.329 42.4386C207.807 50.026 204.137 56.8144 198.311 60.8697C195.164 63.0605 193.228 66.5283 193.228 70.2856V71.6759C193.228 72.4795 192.54 73.329 191.34 74.0084C189.879 74.8312 187.826 75.3007 185.702 75.3007C183.578 75.3007 181.513 74.8312 180.045 74.0084C178.821 73.3213 178.117 72.4596 178.117 71.6445V70.2825C178.117 66.5329 176.193 63.0636 173.052 60.8805C167.557 57.0619 163.978 50.8165 163.978 43.7592C163.978 31.8545 174.167 22.2585 186.547 22.729C197.591 23.1488 206.655 31.7358 207.329 42.4386Z" fill="#FF9955"/>
</g>
<path d="M185.703 75.4587C183.546 75.4587 181.454 74.9799 179.964 74.145C178.687 73.4287 177.954 72.5172 177.954 71.6447V70.2827C177.954 66.6502 176.087 63.1833 172.957 61.0085C167.233 57.0306 163.815 50.5823 163.815 43.7594C163.815 37.9376 166.199 32.5089 170.526 28.4727C174.85 24.4381 180.553 22.3461 186.553 22.5711C197.62 22.9919 206.817 31.7145 207.493 42.4288C207.955 49.7741 204.559 56.7165 198.407 60.9978C195.267 63.184 193.391 66.6564 193.391 70.285V71.6761C193.391 72.5371 192.673 73.4364 191.422 74.145C189.94 74.9799 187.855 75.4587 185.703 75.4587ZM185.666 22.8705C180.068 22.8705 174.801 24.9223 170.751 28.7002C166.49 32.6759 164.141 38.0242 164.141 43.7594C164.141 50.4804 167.508 56.833 173.147 60.7519C176.361 62.9856 178.28 66.5484 178.28 70.2827V71.6447C178.28 72.4015 178.954 73.2135 180.127 73.8715C181.569 74.6796 183.601 75.1431 185.703 75.1431C187.8 75.1431 189.824 74.6796 191.258 73.8715C192.407 73.2219 193.066 72.4214 193.066 71.6761V70.285C193.066 66.5545 194.991 62.9864 198.217 60.7412C204.276 56.5227 207.622 49.6837 207.167 42.4479C206.503 31.8938 197.443 23.3014 186.54 22.8872C186.249 22.8761 185.956 22.8705 185.666 22.8705Z" fill="#383C43"/>
<path d="M193.23 71.6324V71.6745C193.23 72.4781 192.542 73.3284 191.341 74.0078C189.881 74.8305 187.828 75.3001 185.704 75.3001C183.58 75.3001 181.515 74.8305 180.046 74.0078C178.823 73.3207 178.118 72.4589 178.118 71.6439V71.601C178.118 70.7982 178.806 69.9479 180.007 69.2685C181.467 68.4458 183.519 67.9762 185.644 67.9762C187.768 67.9762 189.833 68.4458 191.301 69.2685C192.526 69.9556 193.23 70.8174 193.23 71.6324Z" fill="#BEC4CD"/>
<path d="M185.703 75.4578C183.545 75.4578 181.454 74.9791 179.964 74.1449C178.687 73.4279 177.954 72.5163 177.954 71.6438V71.601C177.954 70.7407 178.672 69.8399 179.924 69.1328C181.406 68.2971 183.491 67.8184 185.643 67.8184C187.8 67.8184 189.892 68.2971 191.382 69.1321C192.659 69.8491 193.391 70.7599 193.391 71.6324V71.6753C193.391 72.5363 192.673 73.4363 191.422 74.1441C189.94 74.9791 187.855 75.4578 185.703 75.4578ZM185.643 68.1347C183.547 68.1347 181.521 68.5982 180.088 69.4055C178.939 70.0551 178.28 70.8556 178.28 71.601V71.6438C178.28 72.4007 178.954 73.2126 180.127 73.8707C181.569 74.6788 183.601 75.1422 185.703 75.1422C187.8 75.1422 189.824 74.6788 191.258 73.8707C192.407 73.2211 193.066 72.4206 193.066 71.6753V71.6324C193.066 70.8763 192.393 70.0643 191.219 69.4055C189.777 68.5982 187.744 68.1347 185.643 68.1347Z" fill="#383C43"/>
<path d="M187.302 69.6461C186.773 69.9426 186.77 70.4229 187.295 70.7186C187.821 71.015 188.676 71.015 189.205 70.7186C189.734 70.4229 189.738 69.9418 189.212 69.6454C188.686 69.3497 187.831 69.3497 187.302 69.6461Z" fill="white"/>
<path d="M188.25 71.1009C187.876 71.1009 187.504 71.0197 187.214 70.8558C186.908 70.6842 186.74 70.4452 186.741 70.1848C186.742 69.9228 186.912 69.683 187.221 69.5099C187.804 69.1828 188.715 69.1836 189.294 69.5091C189.6 69.6815 189.768 69.9197 189.767 70.1809C189.767 70.4429 189.596 70.6827 189.287 70.8558C188.996 71.0197 188.622 71.1009 188.25 71.1009ZM188.26 69.5834C187.941 69.5834 187.622 69.6501 187.384 69.7834C187.18 69.8983 187.067 70.0407 187.067 70.1855C187.067 70.328 187.177 70.4697 187.378 70.5823C187.849 70.8489 188.65 70.8481 189.124 70.5823C189.328 70.4682 189.441 70.3249 189.441 70.1802C189.442 70.0369 189.332 69.896 189.13 69.7826C188.895 69.6501 188.578 69.5834 188.26 69.5834Z" fill="#383C43"/>
<path d="M182.138 72.5585C181.609 72.8549 181.606 73.3352 182.131 73.6309C182.657 73.9274 183.511 73.9274 184.041 73.6309C184.57 73.3352 184.573 72.8542 184.047 72.5577C183.522 72.262 182.667 72.262 182.138 72.5585Z" fill="white"/>
<path d="M183.085 74.0132C182.713 74.0132 182.34 73.9312 182.05 73.7681C181.745 73.5957 181.577 73.3575 181.577 73.097C181.578 72.835 181.749 72.5953 182.058 72.4222C182.641 72.0951 183.551 72.0951 184.131 72.4214C184.436 72.5938 184.604 72.8328 184.604 73.0932C184.604 73.3552 184.433 73.5949 184.124 73.7681C183.832 73.9312 183.459 74.0132 183.085 74.0132ZM183.097 72.4957C182.778 72.4957 182.459 72.5624 182.221 72.6956C182.017 72.8098 181.903 72.953 181.903 73.0978C181.903 73.2403 182.014 73.382 182.215 73.4946C182.685 73.7612 183.486 73.7596 183.961 73.4946C184.165 73.3805 184.278 73.2372 184.278 73.0924C184.279 72.95 184.167 72.8082 183.967 72.6949C183.731 72.5624 183.414 72.4957 183.097 72.4957Z" fill="#383C43"/>
<path d="M183.035 73.2525C182.945 73.2525 182.872 73.1821 182.872 73.0948C182.87 67.3136 182.85 60.0671 182.835 55.0045L182.834 54.741C182.824 51.4479 180.729 50.5034 179.723 50.0491C179.529 49.9618 179.377 49.8929 179.267 49.8232C179.221 49.7941 179.18 49.7198 179.18 49.6669C179.18 49.5849 179.23 49.4991 179.304 49.4578C179.335 49.4402 179.371 49.434 179.408 49.4386L180.412 49.578C180.474 49.588 180.55 49.5673 180.631 49.5221C180.729 49.4677 180.824 49.3827 180.909 49.2755L181.909 48C182.02 47.8591 182.15 47.745 182.282 47.6714C182.429 47.5895 182.573 47.5565 182.714 47.5757L183.721 47.7258C183.782 47.735 183.858 47.7151 183.939 47.6699C184.036 47.6155 184.132 47.5297 184.216 47.4225L185.217 46.1478C185.329 46.0069 185.457 45.8927 185.59 45.8184C185.74 45.7349 185.885 45.7012 186.023 45.7242L187.029 45.8736C187.089 45.8835 187.167 45.8621 187.249 45.8169C187.345 45.7625 187.44 45.6775 187.523 45.571L188.527 44.2941C188.636 44.1546 188.764 44.0413 188.899 43.9654C189.046 43.8835 189.194 43.849 189.33 43.8697L190.339 44.0198C190.4 44.0298 190.476 44.0091 190.556 43.9639C190.654 43.9095 190.749 43.8237 190.833 43.7165L191.81 42.4763C191.819 42.4648 191.83 42.4541 191.843 42.4449C191.949 42.3691 192.049 42.3913 192.105 42.4388C192.175 42.4985 192.188 42.595 192.139 42.6862C192.028 42.8808 191.859 43.1412 191.645 43.4706C190.583 45.1068 188.373 48.5125 188.382 51.8163L188.383 52.0791C188.397 57.1417 188.419 64.389 188.419 70.1701C188.419 70.2574 188.347 70.3279 188.256 70.3279C188.167 70.3279 188.093 70.2574 188.093 70.1701C188.093 64.389 188.071 57.1425 188.057 52.0798L188.056 51.8171C188.048 48.9407 189.657 46.0199 190.806 44.1837C190.777 44.2037 190.748 44.2213 190.719 44.2374C190.572 44.3201 190.424 44.3538 190.288 44.3324L189.281 44.1822C189.221 44.1746 189.143 44.1937 189.061 44.2397C188.965 44.2941 188.869 44.3783 188.787 44.4848L187.783 45.7617C187.673 45.9019 187.545 46.0153 187.412 46.0904C187.265 46.1723 187.118 46.2068 186.979 46.1861L185.971 46.036C185.91 46.0253 185.835 46.0467 185.753 46.0919C185.657 46.1463 185.562 46.2313 185.476 46.3401L184.476 47.6147C184.365 47.7549 184.236 47.8691 184.102 47.9434C183.954 48.0269 183.806 48.0598 183.671 48.0383L182.665 47.8882C182.604 47.8813 182.526 47.9005 182.445 47.9457C182.349 47.9993 182.253 48.0843 182.169 48.1915L181.168 49.467C181.058 49.6072 180.928 49.7205 180.795 49.7964C180.646 49.8791 180.498 49.9113 180.363 49.8906L180.046 49.8461C181.165 50.3609 183.15 51.4379 183.16 54.7402V55.0037C183.175 60.0656 183.197 67.3136 183.198 73.0948C183.198 73.1821 183.124 73.2525 183.035 73.2525Z" fill="#383C43"/>
<path d="M152.793 70.2536C152.3 70.2536 151.823 70.1448 151.483 69.9549C151.211 69.8024 151.055 69.6147 151.055 69.4409C151.054 69.2693 151.207 69.0839 151.475 68.933C151.811 68.743 152.286 68.635 152.779 68.635C153.272 68.635 153.749 68.7438 154.088 68.933C154.361 69.0862 154.517 69.2739 154.517 69.4478C154.517 69.6201 154.365 69.8047 154.097 69.9556C153.761 70.1456 153.286 70.2536 152.793 70.2536Z" fill="#383C43"/>
<path d="M144.534 62.5781C145.713 63.2376 145.719 64.3085 144.549 64.968C143.378 65.6283 141.473 65.6276 140.295 64.968C139.116 64.3077 139.111 63.2384 140.281 62.5781C141.452 61.9185 143.357 61.9178 144.534 62.5781Z" fill="white"/>
<path d="M142.425 65.6184C141.626 65.6184 140.825 65.4476 140.214 65.1051C139.59 64.7558 139.246 64.2809 139.245 63.7692C139.244 63.2614 139.584 62.7895 140.201 62.4417C141.415 61.7569 143.396 61.7569 144.616 62.4417C145.241 62.791 145.585 63.2659 145.587 63.7776C145.587 64.2863 145.247 64.7574 144.631 65.1051C144.025 65.4476 143.226 65.6184 142.425 65.6184ZM142.406 62.2403C141.666 62.2403 140.927 62.398 140.364 62.7152C139.852 63.004 139.57 63.3778 139.571 63.7692C139.572 64.163 139.858 64.5406 140.377 64.8317C141.509 65.4652 143.344 65.4652 144.468 64.8317C144.979 64.5437 145.261 64.1691 145.26 63.7776C145.26 63.3831 144.973 63.0063 144.453 62.7152C143.888 62.398 143.147 62.2403 142.406 62.2403Z" fill="#DBDEE4"/>
<path d="M142.423 64.5276C141.963 64.5276 141.519 64.4257 141.203 64.2487C140.949 64.107 140.804 63.9324 140.804 63.7708C140.803 63.6107 140.946 63.4375 141.195 63.2973C141.508 63.1212 141.951 63.0193 142.409 63.0193C142.869 63.0193 143.313 63.1212 143.628 63.2973C143.882 63.4398 144.028 63.6145 144.028 63.7769C144.028 63.937 143.886 64.1093 143.637 64.2495C143.324 64.4265 142.881 64.5276 142.423 64.5276Z" fill="#FF9955"/>
<path d="M109.189 128.907C108.696 128.907 108.218 129.016 107.879 129.205C107.607 129.358 107.45 129.546 107.45 129.719C107.449 129.892 107.603 130.077 107.87 130.227C108.207 130.417 108.682 130.526 109.175 130.526C109.668 130.526 110.145 130.417 110.484 130.227C110.757 130.075 110.913 129.887 110.914 129.713C110.914 129.541 110.76 129.356 110.493 129.205C110.157 129.016 109.681 128.907 109.189 128.907Z" fill="#383C43"/>
<path d="M196.594 106.345C196.1 106.345 195.623 106.454 195.284 106.644C195.012 106.797 194.855 106.984 194.854 107.158C194.854 107.33 195.008 107.515 195.275 107.666C195.611 107.856 196.088 107.965 196.58 107.965C197.073 107.965 197.55 107.856 197.889 107.666C198.161 107.514 198.318 107.326 198.318 107.151C198.319 106.979 198.165 106.794 197.898 106.643C197.562 106.454 197.086 106.345 196.594 106.345Z" fill="#383C43"/>
<path d="M197.965 174.348C198.459 174.348 198.937 174.24 199.276 174.05C199.548 173.897 199.704 173.709 199.705 173.536C199.705 173.363 199.551 173.178 199.284 173.028C198.948 172.838 198.472 172.729 197.98 172.729C197.487 172.729 197.01 172.838 196.671 173.028C196.398 173.18 196.242 173.368 196.241 173.542C196.241 173.715 196.395 173.899 196.662 174.05C196.998 174.24 197.473 174.348 197.965 174.348Z" fill="#383C43"/>
<path d="M205.956 166.608C204.778 167.268 204.771 168.338 205.942 168.999C207.112 169.658 209.018 169.658 210.196 168.999C211.374 168.338 211.379 167.268 210.21 166.609C209.039 165.948 207.135 165.948 205.956 166.608Z" fill="white"/>
<path d="M208.064 169.649C207.264 169.649 206.466 169.477 205.859 169.135C205.243 168.788 204.904 168.316 204.904 167.807C204.904 167.296 205.249 166.821 205.873 166.472C207.094 165.787 209.076 165.788 210.29 166.472C210.907 166.819 211.245 167.291 211.244 167.8C211.244 168.312 210.9 168.786 210.276 169.135C209.665 169.477 208.864 169.649 208.064 169.649ZM206.036 166.745C205.516 167.036 205.23 167.414 205.23 167.808C205.229 168.199 205.51 168.573 206.023 168.862C207.146 169.495 208.982 169.496 210.113 168.862C210.632 168.57 210.919 168.194 210.919 167.799C210.919 167.408 210.639 167.034 210.126 166.745C209.002 166.112 207.168 166.112 206.036 166.745Z" fill="#DBDEE4"/>
<path d="M208.068 168.556C208.528 168.556 208.973 168.455 209.288 168.278C209.542 168.137 209.688 167.962 209.688 167.8C209.688 167.64 209.545 167.467 209.296 167.327C208.983 167.15 208.541 167.049 208.081 167.049C207.622 167.049 207.179 167.15 206.863 167.327C206.609 167.469 206.463 167.644 206.463 167.807C206.463 167.967 206.605 168.139 206.854 168.279C207.167 168.455 207.61 168.557 208.068 168.556Z" fill="#FF9955"/>
<path d="M205.956 166.608C204.778 167.268 204.771 168.338 205.942 168.999C207.112 169.658 209.018 169.658 210.196 168.999C211.374 168.338 211.379 167.268 210.21 166.609C209.039 165.948 207.135 165.948 205.956 166.608Z" fill="white"/>
<path d="M208.064 169.649C207.264 169.649 206.466 169.477 205.859 169.135C205.243 168.788 204.904 168.316 204.904 167.807C204.904 167.296 205.249 166.821 205.873 166.472C207.094 165.787 209.076 165.788 210.29 166.472C210.907 166.819 211.245 167.291 211.244 167.8C211.244 168.312 210.9 168.786 210.276 169.135C209.665 169.477 208.864 169.649 208.064 169.649ZM206.036 166.745C205.516 167.036 205.23 167.414 205.23 167.808C205.229 168.199 205.51 168.573 206.023 168.862C207.146 169.495 208.982 169.496 210.113 168.862C210.632 168.57 210.919 168.194 210.919 167.799C210.919 167.408 210.639 167.034 210.126 166.745C209.002 166.112 207.168 166.112 206.036 166.745Z" fill="#DBDEE4"/>
<path d="M208.068 168.556C208.528 168.556 208.973 168.455 209.288 168.278C209.542 168.137 209.688 167.962 209.688 167.8C209.688 167.64 209.545 167.467 209.296 167.327C208.983 167.15 208.541 167.049 208.081 167.049C207.622 167.049 207.179 167.15 206.863 167.327C206.609 167.469 206.463 167.644 206.463 167.807C206.463 167.967 206.605 168.139 206.854 168.279C207.167 168.455 207.61 168.557 208.068 168.556Z" fill="#FF9955"/>
</svg>
